<svg height="131" width="404.762" xmlns="http://www.w3.org/2000/svg"><path d="M392.425 59.425a25.355 25.355 0 0 1-3.687 1.886c-1.342.559-2.641.838-3.897.838-.446 0-.872-.084-1.276-.252-.405-.167-.77-.454-1.09-.858-.322-.405-.58-.943-.774-1.613-.196-.671-.294-1.509-.294-2.515 0-.586.068-1.319.21-2.199.139-.88.293-1.788.461-2.724.167-.936.319-1.829.461-2.682.139-.852.209-1.516.209-1.99 0-.614-.111-1.166-.335-1.655a3.694 3.694 0 0 0-.901-1.235 3.977 3.977 0 0 0-1.319-.775 4.544 4.544 0 0 0-1.551-.272c-1.535 0-2.891.412-4.062 1.236a14.327 14.327 0 0 0-3.143 3.037c-.922 1.201-1.732 2.355-2.432 3.738-.699 1.383-1.328 2.61-1.887 3.61h-.461c-.057-2 .104-2.594.104-4.061v-3.75c0-.865-.114-1.55-.157-2.053-.041-.503-.207-.887-.402-1.152s-.52-.433-.924-.503c-.406-.069-.983-.104-1.711-.104-.643 0-1.185.035-1.617.104-.434.07-.801.21-1.094.419-.293.21-.553.496-.775.859-.223.363-.449.852-.672 1.467-.363.921-.727 2.095-1.09 3.52a121.862 121.862 0 0 0-1.09 4.692 143.886 143.886 0 0 0-1.846 10.808 45.898 45.898 0 0 1-3.223 2.663 45.907 45.907 0 0 1-4.986 3.289 34.584 34.584 0 0 1-5.426 2.515c-1.856.67-3.624 1.005-5.301 1.005-.53 0-1.026-.056-1.487-.167a4.132 4.132 0 0 1-1.32-.587c-.418-.278-.83-.67-1.234-1.173-.405-.503-.817-1.132-1.236-1.886a28.773 28.773 0 0 0 6.768-2.808c2.08-1.201 3.875-2.57 5.385-4.105 1.508-1.537 2.688-3.171 3.539-4.902.854-1.732 1.279-3.464 1.279-5.196 0-1.592-.279-3.03-.839-4.315a9.577 9.577 0 0 0-2.325-3.289c-.992-.908-2.158-1.613-3.498-2.116-1.342-.503-2.793-.754-4.357-.754-1.928 0-3.682.342-5.259 1.026a15.34 15.34 0 0 0-4.273 2.766 19.048 19.048 0 0 0-3.331 4.022 26.793 26.793 0 0 0-2.367 4.797 28.691 28.691 0 0 0-1.403 5.133c-.308 1.746-.462 3.401-.462 4.966 0 1.354.127 2.671.352 3.956-.539.463-1.079.922-1.628 1.365-.657.529-1.299.998-1.928 1.402-.63.405-1.216.733-1.761.984-.545.252-1.025.378-1.444.378-.923 0-1.601-.56-2.032-1.677-.434-1.117-.648-2.542-.648-4.273 0-1.033.062-2.164.188-3.394.126-1.229.286-2.473.48-3.729.195-1.256.412-2.486.649-3.688s.454-2.305.649-3.31c.195-1.006.355-1.872.481-2.598.125-.727.188-1.243.188-1.551 0-2.067-.412-3.688-1.236-4.86s-1.936-1.76-3.331-1.76-2.668.279-3.812.838c-1.146.559-2.166 1.592-3.06 3.101a97.548 97.548 0 0 0-2.18 3.96c-.476.907-.984 1.857-1.529 2.849s-1.055 1.935-1.528 2.828c-.476.895-.895 1.28-1.258 1.964-.368.685-.631 1.085-.799 1.085h-.838s.041-.176.125-.749.189-1.042.314-1.809c.125-.769.259-1.505.397-2.413.14-.908.272-1.737.398-2.59.125-.852.229-1.608.312-2.321.084-.712.126-1.265.126-1.684 0-1.537-.293-2.76-.88-3.682s-1.634-1.379-3.143-1.379-2.702.434-3.583 1.3c-.879.866-1.473 1.942-1.78 3.227-.392 1.648-.796 3.632-1.215 5.951s-.796 4.729-1.132 7.229a180.03 180.03 0 0 0-.74 6.428 76.065 76.065 0 0 1-2.486 3.167c-1.479 1.773-2.82 3.247-4.021 4.421s-2.291 2.108-3.269 2.807a31.603 31.603 0 0 1-2.725 1.761 883.216 883.216 0 0 1 2.137-13.324c.279-1.76.573-3.526.881-5.3s.607-3.457.9-5.049c.293-1.593.564-3.018.816-4.274.252-1.257.461-2.248.629-2.975a3.68 3.68 0 0 0 .125-.88c0-.811-.293-1.404-.879-1.781-.588-.377-1.313-.565-2.18-.565-.727 0-1.494.126-2.305.377a8.73 8.73 0 0 0-4.295 2.996 6.506 6.506 0 0 0-1.194 2.535l-2.933 12.318c-.112.894-.355 2.012-.733 3.353a22.925 22.925 0 0 1-1.487 3.896c-.613 1.256-1.34 2.332-2.179 3.227-.838.895-1.774 1.342-2.808 1.342-.643 0-1.174-.162-1.594-.482a3.443 3.443 0 0 1-1.004-1.258 6.03 6.03 0 0 1-.524-1.76 13.806 13.806 0 0 1-.146-2.031c0-1.342.111-2.893.336-4.651a70.77 70.77 0 0 1 .899-5.384c.377-1.83.812-3.617 1.299-5.363.489-1.746.984-3.261 1.487-4.546.168-.419.286-.811.355-1.174.066-.331.102-.667.104-1.005 0-1.034-.349-1.795-1.048-2.284-.697-.488-1.535-.732-2.514-.732-1.146 0-2.318.328-3.521.984-1.202.656-2.123 1.613-2.767 2.87a68.27 68.27 0 0 0-2.305 5.217 41.76 41.76 0 0 0-1.676 5.342 48.51 48.51 0 0 0-1.025 5.824 56.26 56.26 0 0 0-.342 5.475c-.143.135-.268.279-.412.412a21.56 21.56 0 0 1-1.971 1.613c-.656.475-1.307.859-1.947 1.152-.643.293-1.258.439-1.845.439-.782 0-1.292-.369-1.528-1.109-.238-.74-.356-1.769-.356-3.08 0-1.536.141-3.163.42-4.882.279-1.723.587-3.44.922-5.153.335-1.718.644-3.394.922-5.028.279-1.634.418-3.121.418-4.462 0-.866-.075-1.551-.229-2.053-.153-.503-.369-.895-.648-1.174a1.98 1.98 0 0 0-.964-.545 5.329 5.329 0 0 0-1.174-.125c-.308 0-.621.007-.942.021-.32.014-.636.021-.943.021-.361 0-.719-.021-1.067-.063s-.69-.133-1.026-.272a1.957 1.957 0 0 1-.838-.67c-.224-.308-.453-.622-.691-.943a3.796 3.796 0 0 0-.899-.858c-.362-.252-.866-.377-1.509-.377-1.928 0-3.82.412-5.678 1.235-1.857.824-3.625 1.935-5.301 3.331-1.676 1.397-3.22 3.031-4.63 4.902a36.802 36.802 0 0 0-4.348 7.45 27.97 27.97 0 0 1-2 .932c-1.342.559-2.641.838-3.897.838-.446 0-.872-.084-1.277-.252-.405-.167-.769-.454-1.09-.858-.321-.405-.579-.943-.774-1.613-.196-.671-.294-1.509-.294-2.515 0-.586.069-1.319.21-2.199.139-.88.293-1.788.461-2.724.167-.936.32-1.829.461-2.682.139-.852.209-1.516.209-1.99 0-.614-.111-1.166-.335-1.655a3.68 3.68 0 0 0-.901-1.235 3.987 3.987 0 0 0-1.319-.775 4.552 4.552 0 0 0-1.551-.272c-1.536 0-2.891.412-4.063 1.236a14.327 14.327 0 0 0-3.143 3.037c-.922 1.201-1.732 2.355-2.431 3.738s-1.325 2.607-1.884 3.607h-.461c-.056-2-.109-2.594-.109-4.061v-3.75c0-.865-.008-1.55-.05-2.053s-.153-.887-.351-1.152c-.195-.266-.491-.433-.896-.503-.405-.069-.97-.104-1.696-.104-.643 0-1.179.035-1.612.104-.432.07-.795.21-1.088.419-.293.21-.552.496-.775.859s-.447.852-.67 1.467c-.363.921-.727 2.095-1.09 3.52a121.862 121.862 0 0 0-1.09 4.692 144.298 144.298 0 0 0-1.864 10.936c-.033.255-.058.494-.09.745a30.643 30.643 0 0 1-2.193 2.072 45.838 45.838 0 0 1-9.994 6.453c-.939.444-1.905.828-2.892 1.15-.88.28-1.612.42-2.199.42-.95 0-1.81-.146-2.577-.439s-1.418-.77-1.948-1.426-.936-1.5-1.215-2.535c-.28-1.032-.419-2.304-.419-3.812 0-.587.007-1.229.021-1.928s.035-1.424.063-2.179l.083-2.283.084-2.242c.084-1.676.182-3.38.293-5.111.698-.866 1.46-1.867 2.284-2.942s1.64-2.318 2.451-3.318h16.09c.67 0 1.284-.278 1.843-.893.56-.614.839-1.395.839-2.373 0-.811-.126-1.474-.378-2.005-.251-.53-.656-.806-1.215-.834-.475-.028-1.075-.054-1.802-.082s-1.508-.055-2.346-.083c-.839-.027-1.705-.062-2.599-.104a213.393 213.393 0 0 0-4.524-.168 16.5 16.5 0 0 1-1.258-.062c1-1.58 1.956-3.187 2.87-4.818a49.43 49.43 0 0 0 2.368-4.798 32.871 32.871 0 0 0 1.592-4.651c.391-1.521.586-2.968.586-4.336 0-1.62-.188-3.178-.565-4.672-.377-1.495-.915-2.801-1.612-3.918-.699-1.117-1.544-2.011-2.535-2.682a5.752 5.752 0 0 0-3.289-1.006c-1.872 0-3.66.831-5.363 2.493-1.704 1.662-3.275 3.869-4.714 6.62-1.438 2.752-2.737 5.895-3.897 9.428a95.124 95.124 0 0 0-2.869 10.957c-.204.04-.534.062-.983.066a1.367 1.367 0 0 0-.62-.181 90.597 90.597 0 0 0-1.803-.084c-.726-.028-1.508-.056-2.346-.084-.838-.027-1.704-.062-2.598-.104a213.483 213.483 0 0 0-4.525-.167c-.42-.005-.839-.026-1.257-.062 1.005-1.593 1.962-3.198 2.87-4.818s1.697-3.22 2.367-4.798a32.799 32.799 0 0 0 1.592-4.651c.392-1.521.587-2.968.587-4.336 0-1.62-.188-3.178-.565-4.672-.377-1.495-.915-2.801-1.613-3.918s-1.543-2.011-2.535-2.682a5.752 5.752 0 0 0-3.289-1.006c-1.871 0-3.659.831-5.363 2.493s-3.275 3.869-4.714 6.62c-1.438 2.752-2.737 5.895-3.896 9.428a94.924 94.924 0 0 0-2.87 10.957c-.279.056-.789.077-1.529.062-.74-.014-1.578-.034-2.514-.062a66.745 66.745 0 0 0-2.934-.021c-.94.007-1.878.084-2.807.23-.853.14-1.551.355-2.096.649-.545.293-.816.719-.816 1.277 0 .252.014.552.041.901.028.349.126.684.294 1.005.167.321.433.601.796.839.363.237.88.397 1.551.481 1.508.168 2.66.308 3.456.419 1.153.157 2.3.359 3.437.607.645.128 1.294.233 1.947.314-.251 1.871-.446 3.757-.586 5.656s-.209 3.688-.209 5.363c0 3.519.191 6.732.557 9.672a61.346 61.346 0 0 1-3.113 3.736 28.736 28.736 0 0 1-1.864 1.863c-.656.6-1.313 1.139-1.97 1.613s-1.306.859-1.948 1.152-1.257.439-1.844.439c-.782 0-1.292-.37-1.529-1.109-.237-.74-.356-1.769-.356-3.08 0-1.537.141-3.164.42-4.882.28-1.723.587-3.44.922-5.153.335-1.718.643-3.394.922-5.028s.418-3.121.418-4.462c0-.866-.076-1.551-.23-2.053-.153-.503-.369-.895-.648-1.174a1.98 1.98 0 0 0-.964-.545 5.322 5.322 0 0 0-1.174-.125c-.307 0-.621.007-.942.021a21.67 21.67 0 0 1-.943.021c-.362 0-.719-.021-1.068-.063s-.691-.133-1.026-.272a1.95 1.95 0 0 1-.838-.67c-.224-.308-.454-.622-.691-.943a3.802 3.802 0 0 0-.9-.858c-.363-.252-.866-.377-1.509-.377-1.928 0-3.82.412-5.678 1.235-1.857.824-3.624 1.935-5.3 3.331-1.677 1.397-3.22 3.031-4.63 4.902a36.726 36.726 0 0 0-3.666 5.971 35.287 35.287 0 0 0-2.431 6.474 25.695 25.695 0 0 0-.827 4.951c-.217.185-.417.38-.64.56-.643.517-1.299.972-1.969 1.361-.671.391-1.327.712-1.97.964-.643.251-1.257.377-1.844.377-.559 0-1.033-.475-1.424-1.425-.392-.949-.587-2.179-.587-3.688 0-1.927.098-3.75.293-5.468s.419-3.415.671-5.091c.251-1.676.475-3.38.67-5.111.2-1.823.298-3.655.293-5.489 0-1.257-.453-2.228-1.361-2.912s-2.018-1.026-3.331-1.026c-1.173 0-2.165.384-2.975 1.152-.811.768-1.62 1.711-2.431 2.828a77.61 77.61 0 0 0-2.702 3.98 428.517 428.517 0 0 0-4.882 7.814c-.586.964-.908 1.487-.963 1.571l-.461-.503c0-.056.014-.168.041-.335.028-.168.112-.573.252-1.215.195-.922.404-1.823.628-2.703s.44-1.78.649-2.702c.21-.922.385-1.872.524-2.85s.209-2.011.209-3.101c0-1.257-.419-2.228-1.257-2.912s-1.844-1.026-3.017-1.026c-1.257 0-2.34.377-3.247 1.131-.908.755-1.768 1.704-2.577 2.85a60.52 60.52 0 0 0-2.64 3.96 194.213 194.213 0 0 0-2.577 4.294 226.5 226.5 0 0 0-2.011 3.52 65.699 65.699 0 0 1-.901 1.593l-.461-.503c.279-1.76.545-3.464.796-5.111.112-.699.217-1.418.314-2.158s.188-1.46.272-2.158a38.41 38.41 0 0 0 .188-1.969c.039-.544.06-1.089.062-1.635 0-.865-.027-1.55-.083-2.053s-.23-.887-.524-1.152c-.293-.266-.74-.433-1.34-.503-.602-.069-1.432-.104-2.494-.104-.697 0-1.271.049-1.717.146a2.44 2.44 0 0 0-1.152.587c-.322.293-.607.705-.859 1.235-.252.531-.517 1.243-.796 2.138a50.325 50.325 0 0 0-.922 3.352 99.574 99.574 0 0 0-.985 4.525 171.698 171.698 0 0 0-1.696 10.475c-.224 1.732-.405 3.38-.545 4.943-.14 1.564-.21 2.92-.21 4.064 0 1.117.063 2.2.189 3.247.125 1.048.377 1.983.754 2.808s.915 1.48 1.613 1.971c.698.488 1.62.732 2.766.732a5.017 5.017 0 0 0 2.451-.607c.74-.404 1.39-1.18 1.948-2.325a538.405 538.405 0 0 0 4.714-9.7 698.527 698.527 0 0 1 2.996-6.306c.781-1.62 1.389-2.894 1.822-3.732.433-.839.816-1.93 1.152-1.93h.628c-.446 2-.823 5.016-1.131 7.251-.14.949-.279 1.929-.419 2.893-.133.918-.259 1.836-.377 2.756-.112.865-.195 1.64-.252 2.311-.056.67-.084 1.189-.084 1.553 0 .866.049 1.762.146 2.684.099.922.294 1.768.587 2.535.294.77.706 1.397 1.236 1.887.53.488 1.243.732 2.137.732 1.173 0 2.207-.203 3.101-.606.895-.405 1.704-1.177 2.431-2.351L45.396 59h.629c-.224 2-.398 3.983-.523 5.953a87.414 87.414 0 0 0-.188 5.584c0 1.872.091 3.6.272 5.191.182 1.592.481 2.973.9 4.146s.971 2.087 1.655 2.743 1.529.984 2.535.984c2.039 0 3.868-.272 5.488-.817s3.108-1.244 4.463-2.095a31.592 31.592 0 0 0 3.153-2.291c.451.787.965 1.5 1.561 2.123a10.239 10.239 0 0 0 3.373 2.347 9.864 9.864 0 0 0 3.917.815c1.257 0 2.515-.209 3.771-.627a20.612 20.612 0 0 0 3.624-1.613 22.023 22.023 0 0 0 3.205-2.2c.979-.81 1.802-1.604 2.473-2.388.894 2.263 1.955 3.986 3.185 5.174 1.229 1.188 2.765 1.781 4.608 1.781 1.537 0 3.073-.377 4.609-1.133a22.65 22.65 0 0 0 4.315-2.765 31.482 31.482 0 0 0 3.624-3.437 49.563 49.563 0 0 0 1.622-1.9c.198.531.399 1.056.62 1.545 1.09 2.416 2.444 4.268 4.064 5.552 1.62 1.285 3.491 1.927 5.614 1.927 1.034 0 2.187-.194 3.457-.586 1.271-.392 2.724-.978 4.357-1.76 1.633-.781 3.499-1.76 5.594-2.934a482.458 482.458 0 0 0 7.091-4.062c.366 1.32.829 2.611 1.385 3.863 1.089 2.416 2.443 4.268 4.064 5.552 1.619 1.285 3.491 1.927 5.614 1.927 1.033 0 2.186-.194 3.456-.586 1.271-.392 2.724-.978 4.358-1.76 1.634-.781 3.498-1.76 5.593-2.934a452.273 452.273 0 0 0 5.951-3.4c.029.393.059.786.104 1.17.126 1.049.377 1.983.755 2.809a4.79 4.79 0 0 0 1.613 1.97c.698.487 1.62.731 2.765.731.503 0 .964-.091 1.383-.271.419-.183.811-.496 1.174-.943.363-.446.719-1.026 1.068-1.737.349-.713.719-1.631 1.11-2.722L186.36 57h.671c.223 1 .516 3.517.879 5.235s.922 3.278 1.677 4.66a9.285 9.285 0 0 0 3.059 3.356c1.284.853 2.975 1.281 5.069 1.281a11.69 11.69 0 0 0 3.457-.523c.406-.125.801-.272 1.195-.42-.022.414-.043.828-.043 1.237 0 1.844.293 3.5.88 4.965.587 1.467 1.368 2.709 2.347 3.729a10.202 10.202 0 0 0 3.373 2.348 9.848 9.848 0 0 0 3.917.816c1.257 0 2.515-.209 3.771-.627a20.59 20.59 0 0 0 3.625-1.613 22.078 22.078 0 0 0 3.205-2.2c.979-.81 1.803-1.604 2.473-2.388.895 2.263 1.955 3.986 3.186 5.174 1.229 1.188 2.765 1.781 4.607 1.781 1.537 0 3.073-.377 4.609-1.133a22.673 22.673 0 0 0 4.314-2.765c.271-.22.512-.452.771-.677.316.457.654.893 1.029 1.283a10.227 10.227 0 0 0 3.373 2.348 9.87 9.87 0 0 0 3.918.816c1.536 0 3.121-.412 4.756-1.235 1.635-.824 3.205-1.907 4.713-3.248l-1.131 3.897c-2.012 1.646-4.002 3.379-5.971 5.194s-3.854 3.659-5.656 5.53a91.672 91.672 0 0 0-5.008 5.636c-1.535 1.886-2.863 3.701-3.979 5.447-1.117 1.745-1.997 3.407-2.64 4.985s-.965 2.996-.965 4.254c0 1.814.309 3.268.922 4.356.615 1.089 1.392 1.929 2.326 2.515a8.516 8.516 0 0 0 3.059 1.174c1.104.194 2.131.293 3.08.293 2.401 0 4.596-.412 6.578-1.236a18.213 18.213 0 0 0 5.385-3.457c1.605-1.48 3.045-3.254 4.314-5.321 1.271-2.065 2.402-4.336 3.395-6.809a63.74 63.74 0 0 0 2.576-7.961 119.55 119.55 0 0 0 1.887-8.736 96.32 96.32 0 0 0 10.746-7.604 54.902 54.902 0 0 0 2.978-2.603c.142.774.334 1.502.627 2.142.377.824.915 1.48 1.613 1.971.698.488 1.62.732 2.766.732.923 0 1.732-.209 2.431-.629.699-.419 1.326-1.621 1.886-2.766L303.387 58h.672c-.336 3-.615 4.742-.839 6.683s-.335 3.959-.335 5.635c0 4.273.523 7.625 1.571 9.847 1.047 2.221 2.339 3.384 3.876 3.384 1.536 0 3.002-.189 4.398-.624a22.993 22.993 0 0 0 4.022-1.663 30.956 30.956 0 0 0 3.708-2.318 244.08 244.08 0 0 0 2.555-1.893c.293.446.606.877.943 1.291 1.312 1.605 2.954 2.885 4.924 3.834 1.969.949 4.268 1.426 6.893 1.426 1.677 0 3.332-.188 4.966-.565s3.212-.88 4.735-1.509a35.334 35.334 0 0 0 4.356-2.157 58.506 58.506 0 0 0 3.875-2.472c.312-.221.612-.457.92-.686.03.637.075 1.266.147 1.878.127 1.048.378 1.983.756 2.808.377.824.915 1.48 1.613 1.971.697.488 1.619.732 2.765.732.503 0 .964-.092 1.383-.271.419-.182.812-.496 1.174-.943.363-.447.72-1.025 1.068-1.738s.719-1.631 1.11-2.721l7.5-20.926h.67c.224 1 .517 3.517.879 5.235.363 1.718.923 3.278 1.678 4.66a9.285 9.285 0 0 0 3.059 3.356c1.284.853 2.976 1.281 5.069 1.281a11.69 11.69 0 0 0 3.457-.523 21.962 21.962 0 0 0 3.269-1.299c1.014-.498 2-1.05 2.955-1.653.922-.588 1.744-1.119 2.471-1.593l.629-9.805a35.527 35.527 0 0 1-3.854 2.763zM148.21 33.352a81.002 81.002 0 0 1 1.928-6.6c.685-1.997 1.396-3.638 2.137-4.923s1.474-1.928 2.2-1.928c.53 0 .942.112 1.235.335.294.224.51.503.649.839.141.335.23.691.272 1.068s.063.719.063 1.026c0 .894-.238 2.039-.713 3.436s-1.075 2.898-1.802 4.505a72.691 72.691 0 0 1-2.451 4.901 165.72 165.72 0 0 1-2.618 4.631c-.447-.057-.88-.105-1.299-.147-.42-.041-.838-.091-1.258-.146a279.742 279.742 0 0 1 1.657-6.997zM83.316 63.74c-.111.894-.355 2.012-.732 3.353a22.969 22.969 0 0 1-1.488 3.896c-.614 1.257-1.341 2.331-2.179 3.227-.838.894-1.773 1.341-2.808 1.341-.643 0-1.173-.16-1.592-.481s-.754-.74-1.006-1.257a6.039 6.039 0 0 1-.523-1.76 13.888 13.888 0 0 1-.146-2.033c0-1.229.16-2.541.481-3.938a25.005 25.005 0 0 1 1.362-4.169 26.088 26.088 0 0 1 2.095-3.96 20.752 20.752 0 0 1 2.661-3.352c.963-.978 1.99-1.753 3.079-2.326 1.089-.572 2.207-.858 3.353-.858zm33.332-32.388a80.885 80.885 0 0 1 1.928-6.6c.684-1.997 1.396-3.638 2.137-4.923s1.473-1.928 2.199-1.928c.531 0 .943.112 1.236.335.293.224.51.503.649.839.14.335.23.691.272 1.068s.062.719.062 1.026c0 .894-.237 2.039-.712 3.436a50.579 50.579 0 0 1-1.802 4.505 73.166 73.166 0 0 1-2.451 4.901 168.323 168.323 0 0 1-2.619 4.631c-.447-.057-.88-.105-1.299-.147a37.76 37.76 0 0 1-1.257-.146 284.23 284.23 0 0 1 1.657-6.997zm20.254 33.788c-.379.354-.76.706-1.169 1.053a44.059 44.059 0 0 1-3.247 2.513 45.38 45.38 0 0 1-6.747 3.938c-.938.445-1.904.83-2.891 1.151-.88.28-1.613.42-2.2.42-.949 0-1.809-.147-2.577-.44a4.554 4.554 0 0 1-1.947-1.424c-.531-.656-.937-1.502-1.216-2.535s-.419-2.305-.419-3.812c0-.587.007-1.229.021-1.928.014-.698.034-1.424.062-2.179l.084-2.283c.027-.77.056-1.516.084-2.242.083-1.676.182-3.38.293-5.111.698-.866 1.459-1.867 2.283-2.942S118.96 47 119.77 46h13.895c.096 0 .212.064.3.081.517.098 1.006.21 1.467.308s1.11.21 1.948.321a95 95 0 0 0-.586 5.66 72.769 72.769 0 0 0-.21 5.365 83.19 83.19 0 0 0 .318 7.405zm86.623-1.4c-.111.894-.355 2.012-.732 3.353s-.875 2.646-1.488 3.896c-.613 1.257-1.341 2.331-2.179 3.227-.838.894-1.772 1.341-2.808 1.341-.644 0-1.174-.16-1.592-.481a3.452 3.452 0 0 1-1.006-1.257 5.978 5.978 0 0 1-.523-1.76 13.75 13.75 0 0 1-.146-2.033c0-1.229.16-2.541.481-3.938a24.913 24.913 0 0 1 1.362-4.169c.586-1.383 1.285-2.703 2.095-3.96s1.696-2.374 2.661-3.352c.963-.978 1.99-1.753 3.078-2.326 1.09-.572 2.207-.858 3.354-.858zm34.191 34.401a51.057 51.057 0 0 1-1.425 4.379 42.2 42.2 0 0 1-1.927 4.379c-.728 1.425-1.529 2.694-2.409 3.812s-1.844 2.019-2.893 2.703c-1.047.685-2.156 1.026-3.33 1.026-1.117 0-1.676-.518-1.676-1.551 0-.643.209-1.453.629-2.431.418-.978.99-2.032 1.717-3.163a46.625 46.625 0 0 1 2.535-3.541 56.66 56.66 0 0 1 3.06-3.582 48.783 48.783 0 0 1 3.31-3.248 30.862 30.862 0 0 1 3.332-2.598 57.396 57.396 0 0 1-.923 3.815zm72.571-36.454c.056-.866.175-1.76.355-2.682.182-.922.446-1.837.797-2.745.35-.907.811-1.718 1.383-2.43s1.285-1.292 2.137-1.739c.852-.446 1.879-.67 3.08-.67.67 0 1.234.405 1.695 1.215.461.812.691 1.844.691 3.101 0 .894-.349 1.815-1.048 2.766-.696.949-1.558 1.829-2.576 2.64a14.713 14.713 0 0 1-3.311 1.99c-1.188.517-2.283.775-3.289.775.002-.615.029-1.355.086-2.221z" fill="#fff"/></svg>