<?xml version="1.0" encoding="utf-8"?>
<!-- Generator: Adobe Illustrator 16.0.0, SVG Export Plug-In . SVG Version: 6.00 Build 0)  -->
<!DOCTYPE svg PUBLIC "-//W3C//DTD SVG 1.1//EN" "http://www.w3.org/Graphics/SVG/1.1/DTD/svg11.dtd">
<svg version="1.1" id="Layer_1" xmlns="http://www.w3.org/2000/svg" xmlns:xlink="http://www.w3.org/1999/xlink" x="0px" y="0px"
	 width="404.762px" height="131px" viewBox="0 0 404.762 131" enable-background="new 0 0 404.762 131" xml:space="preserve">
<path d="M392.425,59.425c-1.176,0.729-2.408,1.359-3.687,1.886c-1.344,0.559-2.643,0.838-3.897,0.838
	c-0.446,0-0.872-0.084-1.274-0.252c-0.405-0.167-0.771-0.454-1.092-0.858c-0.32-0.405-0.58-0.943-0.772-1.613
	c-0.196-0.671-0.294-1.509-0.294-2.515c0-0.586,0.066-1.319,0.21-2.199c0.139-0.88,0.293-1.788,0.461-2.724
	c0.167-0.936,0.317-1.829,0.461-2.682c0.139-0.852,0.209-1.516,0.209-1.99c0-0.614-0.111-1.166-0.335-1.655
	c-0.211-0.47-0.519-0.891-0.901-1.235c-0.385-0.341-0.833-0.604-1.317-0.775c-0.498-0.18-1.022-0.272-1.553-0.272
	c-1.533,0-2.891,0.412-4.062,1.236c-1.197,0.845-2.257,1.87-3.145,3.037c-0.922,1.201-1.73,2.355-2.432,3.738
	c-0.699,1.383-1.328,2.61-1.887,3.61h-0.461c-0.059-2,0.104-2.594,0.104-4.061v-3.75c0-0.865-0.114-1.55-0.157-2.053
	c-0.041-0.503-0.207-0.887-0.4-1.152c-0.195-0.265-0.521-0.433-0.924-0.503c-0.406-0.069-0.983-0.104-1.711-0.104
	c-0.645,0-1.187,0.035-1.617,0.104c-0.436,0.07-0.801,0.21-1.096,0.419c-0.293,0.21-0.553,0.496-0.773,0.859
	c-0.223,0.363-0.449,0.852-0.672,1.467c-0.363,0.921-0.729,2.095-1.09,3.52c-0.396,1.557-0.759,3.121-1.092,4.692
	c-0.752,3.578-1.367,7.183-1.846,10.808c-1.033,0.936-2.107,1.824-3.223,2.663c-1.589,1.202-3.255,2.302-4.986,3.289
	c-1.731,0.993-3.548,1.835-5.426,2.515c-1.856,0.67-3.624,1.005-5.301,1.005c-0.53,0-1.026-0.056-1.487-0.167
	c-0.471-0.115-0.918-0.314-1.32-0.587c-0.418-0.278-0.83-0.67-1.232-1.173c-0.405-0.503-0.817-1.132-1.236-1.886
	c2.366-0.645,4.641-1.589,6.769-2.808c2.079-1.201,3.875-2.572,5.386-4.105c1.508-1.537,2.688-3.171,3.539-4.902
	c0.854-1.732,1.277-3.464,1.277-5.196c0-1.592-0.277-3.03-0.839-4.315c-0.533-1.249-1.325-2.37-2.325-3.289
	c-0.99-0.908-2.156-1.613-3.497-2.116c-1.343-0.503-2.794-0.754-4.356-0.754c-1.928,0-3.682,0.342-5.259,1.026
	c-1.568,0.678-3.014,1.613-4.273,2.766c-1.289,1.182-2.41,2.535-3.331,4.022c-0.946,1.516-1.739,3.123-2.367,4.797
	c-0.625,1.664-1.095,3.382-1.401,5.133c-0.31,1.746-0.462,3.401-0.462,4.966c0,1.354,0.127,2.671,0.352,3.956
	c-0.539,0.463-1.079,0.922-1.628,1.365c-0.657,0.529-1.299,0.998-1.928,1.402c-0.63,0.403-1.216,0.731-1.762,0.982
	c-0.546,0.252-1.024,0.378-1.443,0.378c-0.923,0-1.603-0.56-2.032-1.677c-0.434-1.117-0.647-2.542-0.647-4.271
	c0-1.033,0.062-2.164,0.188-3.396c0.126-1.229,0.286-2.473,0.479-3.729c0.194-1.256,0.411-2.486,0.648-3.688s0.454-2.305,0.649-3.31
	c0.193-1.006,0.354-1.872,0.479-2.598c0.125-0.727,0.188-1.243,0.188-1.551c0-2.067-0.412-3.688-1.236-4.86
	c-0.824-1.172-1.936-1.76-3.331-1.76c-1.395,0-2.668,0.279-3.812,0.838c-1.146,0.559-2.166,1.592-3.062,3.101
	c-0.757,1.303-1.482,2.624-2.18,3.96c-0.478,0.907-0.984,1.857-1.529,2.849s-1.055,1.935-1.528,2.828
	c-0.476,0.895-0.895,1.28-1.258,1.964C295.271,59.6,295.008,60,294.84,60h-0.838c0,0,0.041-0.176,0.125-0.749
	s0.189-1.042,0.314-1.809c0.125-0.769,0.258-1.505,0.396-2.413c0.142-0.908,0.271-1.737,0.397-2.59
	c0.125-0.852,0.229-1.608,0.312-2.321c0.084-0.712,0.126-1.265,0.126-1.684c0-1.537-0.293-2.76-0.88-3.682s-1.634-1.379-3.145-1.379
	c-1.508,0-2.7,0.434-3.582,1.3c-0.879,0.866-1.474,1.942-1.779,3.227c-0.393,1.648-0.796,3.632-1.217,5.951
	c-0.418,2.319-0.795,4.729-1.131,7.229c-0.285,2.138-0.531,4.281-0.739,6.428c-0.802,1.078-1.63,2.135-2.486,3.167
	c-1.479,1.773-2.819,3.247-4.021,4.421c-1.2,1.174-2.291,2.108-3.27,2.807c-0.878,0.635-1.787,1.223-2.727,1.763
	c0.681-4.447,1.393-8.89,2.139-13.324c0.277-1.76,0.573-3.526,0.881-5.3c0.309-1.774,0.605-3.457,0.9-5.049
	c0.293-1.593,0.562-3.018,0.814-4.274c0.252-1.257,0.461-2.248,0.629-2.975c0.078-0.288,0.119-0.583,0.125-0.88
	c0-0.811-0.293-1.404-0.879-1.781c-0.588-0.377-1.312-0.565-2.18-0.565c-0.727,0-1.494,0.126-2.305,0.377
	c-1.705,0.536-3.204,1.582-4.295,2.996c-0.578,0.748-0.985,1.613-1.194,2.535L262.4,63.743c-0.112,0.894-0.355,2.012-0.733,3.353
	c-0.376,1.342-0.874,2.646-1.487,3.896c-0.613,1.256-1.34,2.332-2.179,3.227c-0.838,0.896-1.774,1.344-2.808,1.344
	c-0.645,0-1.174-0.162-1.594-0.482c-0.431-0.334-0.773-0.766-1.006-1.258c-0.263-0.557-0.439-1.15-0.523-1.76
	c-0.098-0.674-0.146-1.353-0.146-2.031c0-1.342,0.111-2.895,0.336-4.651c0.23-1.806,0.53-3.602,0.899-5.384
	c0.377-1.83,0.812-3.617,1.299-5.363c0.489-1.746,0.983-3.261,1.485-4.546c0.168-0.419,0.287-0.811,0.355-1.174
	c0.066-0.331,0.102-0.667,0.104-1.005c0-1.034-0.348-1.795-1.047-2.284c-0.696-0.488-1.535-0.732-2.515-0.732
	c-1.146,0-2.317,0.328-3.521,0.984c-1.202,0.656-2.123,1.613-2.769,2.87c-0.84,1.706-1.608,3.446-2.305,5.217
	c-0.679,1.741-1.237,3.526-1.677,5.342c-0.459,1.919-0.803,3.864-1.024,5.824c-0.203,1.818-0.315,3.646-0.342,5.475
	c-0.144,0.136-0.269,0.279-0.412,0.412c-0.625,0.576-1.283,1.115-1.972,1.613c-0.655,0.475-1.307,0.859-1.946,1.152
	c-0.644,0.293-1.258,0.438-1.845,0.438c-0.782,0-1.293-0.367-1.528-1.107c-0.237-0.74-0.354-1.771-0.354-3.08
	c0-1.536,0.141-3.163,0.42-4.882c0.279-1.723,0.586-3.44,0.922-5.153c0.335-1.718,0.644-3.394,0.922-5.028
	c0.279-1.634,0.418-3.121,0.418-4.462c0-0.866-0.075-1.551-0.229-2.053c-0.154-0.503-0.369-0.895-0.648-1.174
	c-0.264-0.27-0.598-0.458-0.965-0.545c-0.385-0.085-0.778-0.127-1.174-0.125c-0.309,0-0.621,0.007-0.941,0.021
	c-0.32,0.014-0.637,0.021-0.943,0.021c-0.361,0-0.719-0.021-1.066-0.063c-0.346-0.042-0.689-0.133-1.025-0.272
	c-0.336-0.141-0.626-0.373-0.838-0.67c-0.225-0.308-0.453-0.622-0.689-0.943c-0.252-0.333-0.556-0.624-0.899-0.858
	c-0.362-0.252-0.866-0.377-1.509-0.377c-1.928,0-3.82,0.412-5.678,1.235c-1.857,0.824-3.625,1.935-5.303,3.331
	c-1.676,1.397-3.22,3.031-4.63,4.902c-1.735,2.304-3.194,4.805-4.349,7.45c-0.653,0.337-1.321,0.648-2,0.932
	c-1.341,0.559-2.642,0.838-3.896,0.838c-0.446,0-0.872-0.084-1.277-0.252c-0.405-0.167-0.769-0.454-1.09-0.858
	c-0.321-0.405-0.579-0.943-0.774-1.613c-0.196-0.671-0.294-1.509-0.294-2.515c0-0.586,0.069-1.319,0.21-2.199
	c0.139-0.88,0.293-1.788,0.461-2.724c0.167-0.936,0.32-1.829,0.461-2.682c0.139-0.852,0.209-1.516,0.209-1.99
	c0-0.614-0.111-1.166-0.335-1.655c-0.211-0.47-0.518-0.891-0.901-1.235c-0.385-0.341-0.833-0.604-1.319-0.775
	c-0.497-0.18-1.022-0.272-1.551-0.272c-1.536,0-2.891,0.412-4.063,1.236c-1.197,0.846-2.257,1.87-3.143,3.037
	c-0.922,1.201-1.732,2.354-2.431,3.738c-0.699,1.383-1.325,2.607-1.884,3.607h-0.461c-0.056-2-0.109-2.594-0.109-4.061v-3.75
	c0-0.865-0.008-1.55-0.05-2.053c-0.042-0.503-0.153-0.887-0.351-1.152c-0.195-0.266-0.491-0.433-0.896-0.503
	c-0.405-0.069-0.97-0.104-1.696-0.104c-0.643,0-1.179,0.035-1.612,0.104c-0.432,0.07-0.795,0.21-1.088,0.419
	c-0.293,0.21-0.552,0.496-0.775,0.859c-0.223,0.363-0.447,0.852-0.67,1.467c-0.363,0.921-0.727,2.095-1.09,3.52
	c-0.394,1.557-0.757,3.121-1.09,4.692c-0.761,3.62-1.383,7.268-1.864,10.936c-0.033,0.255-0.058,0.494-0.09,0.745
	c-0.696,0.727-1.428,1.418-2.193,2.072c-3.037,2.576-6.396,4.744-9.994,6.453c-0.939,0.442-1.905,0.828-2.892,1.148
	c-0.88,0.28-1.612,0.42-2.199,0.42c-0.95,0-1.81-0.146-2.577-0.438c-0.767-0.293-1.418-0.771-1.948-1.426
	c-0.53-0.656-0.936-1.5-1.215-2.535c-0.28-1.032-0.419-2.305-0.419-3.812c0-0.587,0.007-1.229,0.021-1.928
	c0.014-0.699,0.035-1.424,0.063-2.179l0.083-2.283l0.084-2.242c0.084-1.676,0.182-3.38,0.293-5.111
	c0.698-0.866,1.46-1.867,2.284-2.942c0.824-1.075,1.64-2.318,2.451-3.318h16.09c0.67,0,1.284-0.278,1.843-0.893
	c0.56-0.614,0.839-1.395,0.839-2.373c0-0.811-0.126-1.474-0.378-2.005c-0.251-0.53-0.656-0.806-1.215-0.834
	c-0.475-0.028-1.075-0.054-1.802-0.082s-1.508-0.055-2.346-0.083c-0.839-0.027-1.705-0.062-2.599-0.104
	c-1.507-0.072-3.015-0.128-4.524-0.168c-0.42-0.005-0.839-0.025-1.258-0.062c1-1.58,1.956-3.187,2.87-4.818
	c0.875-1.556,1.666-3.157,2.368-4.798c0.646-1.509,1.178-3.063,1.592-4.651c0.391-1.521,0.586-2.968,0.586-4.336
	c0-1.62-0.188-3.178-0.565-4.672c-0.377-1.495-0.915-2.801-1.612-3.918c-0.699-1.117-1.544-2.011-2.535-2.682
	c-0.968-0.663-2.116-1.014-3.289-1.006c-1.872,0-3.66,0.831-5.363,2.493c-1.704,1.662-3.275,3.869-4.714,6.62
	c-1.438,2.752-2.737,5.895-3.897,9.428c-1.173,3.592-2.131,7.251-2.869,10.957c-0.204,0.04-0.534,0.062-0.983,0.066
	c-0.189-0.109-0.402-0.171-0.62-0.181c-0.601-0.034-1.202-0.062-1.803-0.084c-0.726-0.028-1.508-0.056-2.346-0.084
	c-0.838-0.027-1.704-0.062-2.598-0.104c-1.507-0.072-3.016-0.127-4.525-0.167c-0.42-0.005-0.839-0.026-1.257-0.062
	c1.005-1.593,1.962-3.198,2.87-4.818c0.908-1.62,1.697-3.22,2.367-4.798c0.646-1.509,1.179-3.063,1.592-4.651
	c0.392-1.521,0.587-2.968,0.587-4.336c0-1.62-0.188-3.178-0.565-4.672c-0.377-1.495-0.915-2.801-1.613-3.918
	c-0.698-1.117-1.543-2.011-2.535-2.682c-0.968-0.663-2.116-1.014-3.289-1.006c-1.871,0-3.659,0.831-5.363,2.493
	c-1.704,1.662-3.275,3.869-4.714,6.62c-1.438,2.752-2.737,5.895-3.896,9.428c-1.174,3.592-2.132,7.25-2.87,10.957
	c-0.279,0.056-0.789,0.077-1.529,0.062c-0.74-0.014-1.578-0.034-2.514-0.062c-0.978-0.029-1.956-0.036-2.934-0.021
	c-0.94,0.007-1.878,0.084-2.807,0.23c-0.853,0.14-1.551,0.355-2.096,0.649c-0.545,0.293-0.816,0.719-0.816,1.277
	c0,0.252,0.014,0.552,0.041,0.901c0.028,0.349,0.126,0.684,0.294,1.005c0.167,0.321,0.433,0.601,0.796,0.839
	c0.363,0.237,0.88,0.397,1.551,0.481c1.508,0.168,2.66,0.308,3.456,0.419c1.153,0.157,2.3,0.359,3.437,0.607
	c0.645,0.128,1.294,0.233,1.947,0.314c-0.251,1.871-0.446,3.757-0.586,5.656s-0.209,3.688-0.209,5.363
	c0,3.519,0.191,6.732,0.557,9.672c-0.988,1.286-2.026,2.532-3.113,3.735c-0.592,0.648-1.214,1.271-1.864,1.862
	c-0.656,0.601-1.313,1.14-1.97,1.613s-1.306,0.858-1.948,1.151c-0.642,0.293-1.257,0.438-1.844,0.438
	c-0.782,0-1.292-0.37-1.529-1.108c-0.237-0.74-0.356-1.77-0.356-3.08c0-1.537,0.141-3.164,0.42-4.881
	c0.28-1.723,0.587-3.44,0.922-5.153c0.335-1.718,0.643-3.394,0.922-5.028c0.279-1.634,0.418-3.121,0.418-4.462
	c0-0.866-0.076-1.551-0.23-2.053c-0.153-0.503-0.369-0.895-0.648-1.174c-0.263-0.27-0.597-0.459-0.964-0.545
	c-0.386-0.085-0.779-0.127-1.174-0.125c-0.307,0-0.621,0.007-0.942,0.021c-0.314,0.014-0.628,0.021-0.943,0.021
	c-0.362,0-0.719-0.021-1.068-0.063c-0.349-0.042-0.691-0.133-1.026-0.272c-0.337-0.141-0.627-0.373-0.838-0.67
	c-0.224-0.308-0.454-0.622-0.691-0.943c-0.251-0.333-0.555-0.623-0.9-0.858c-0.363-0.252-0.866-0.377-1.509-0.377
	c-1.928,0-3.82,0.412-5.678,1.235c-1.857,0.824-3.624,1.935-5.3,3.331c-1.677,1.397-3.22,3.031-4.63,4.902
	c-1.409,1.869-2.637,3.869-3.666,5.971c-1.02,2.073-1.834,4.242-2.431,6.474c-0.437,1.619-0.714,3.276-0.827,4.951
	c-0.217,0.185-0.417,0.38-0.64,0.56c-0.643,0.518-1.299,0.973-1.969,1.361c-0.671,0.391-1.327,0.712-1.97,0.964
	c-0.643,0.251-1.257,0.377-1.844,0.377c-0.559,0-1.033-0.476-1.424-1.425c-0.392-0.949-0.587-2.18-0.587-3.688
	c0-1.928,0.098-3.75,0.293-5.469c0.195-1.718,0.419-3.415,0.671-5.091c0.251-1.676,0.475-3.38,0.67-5.111
	c0.2-1.823,0.298-3.655,0.293-5.489c0-1.257-0.453-2.228-1.361-2.912c-0.908-0.684-2.018-1.026-3.331-1.026
	c-1.173,0-2.165,0.384-2.975,1.152c-0.811,0.768-1.62,1.711-2.431,2.828c-0.941,1.298-1.843,2.625-2.702,3.98
	c-1.655,2.587-3.283,5.192-4.882,7.814c-0.586,0.964-0.908,1.487-0.963,1.571l-0.461-0.503c0-0.056,0.014-0.168,0.041-0.335
	c0.028-0.168,0.112-0.573,0.252-1.215c0.195-0.922,0.404-1.823,0.628-2.703c0.224-0.88,0.44-1.78,0.649-2.702
	c0.21-0.922,0.385-1.872,0.524-2.85s0.209-2.011,0.209-3.101c0-1.257-0.419-2.228-1.257-2.912c-0.838-0.684-1.844-1.026-3.017-1.026
	c-1.257,0-2.34,0.377-3.247,1.131c-0.908,0.755-1.768,1.704-2.577,2.85c-0.932,1.285-1.812,2.606-2.64,3.96
	c-0.877,1.42-1.737,2.852-2.577,4.294c-0.681,1.167-1.351,2.341-2.011,3.52c-0.292,0.535-0.593,1.066-0.901,1.593l-0.461-0.503
	c0.279-1.76,0.545-3.464,0.796-5.111c0.112-0.699,0.217-1.418,0.314-2.158c0.097-0.74,0.188-1.46,0.272-2.158
	c0.08-0.655,0.143-1.311,0.188-1.969c0.039-0.544,0.06-1.089,0.062-1.635c0-0.865-0.027-1.55-0.083-2.053
	c-0.056-0.503-0.23-0.887-0.524-1.152c-0.293-0.266-0.74-0.433-1.34-0.503c-0.602-0.069-1.432-0.104-2.494-0.104
	c-0.697,0-1.271,0.049-1.717,0.146c-0.43,0.088-0.828,0.292-1.152,0.587c-0.322,0.293-0.607,0.705-0.859,1.235
	c-0.252,0.531-0.517,1.243-0.796,2.138c-0.346,1.106-0.653,2.224-0.922,3.352c-0.363,1.5-0.692,3.009-0.985,4.525
	c-0.673,3.473-1.239,6.967-1.696,10.475c-0.224,1.731-0.405,3.38-0.545,4.942c-0.14,1.563-0.21,2.92-0.21,4.063
	c0,1.117,0.063,2.2,0.189,3.247c0.125,1.048,0.377,1.982,0.754,2.809c0.377,0.824,0.915,1.479,1.613,1.972
	c0.698,0.487,1.62,0.731,2.766,0.731c0.855,0.01,1.699-0.199,2.451-0.606c0.74-0.404,1.39-1.181,1.948-2.325
	c1.604-3.218,3.175-6.451,4.714-9.7c0.988-2.106,1.987-4.209,2.996-6.306c0.781-1.62,1.389-2.894,1.822-3.732
	c0.433-0.839,0.816-1.93,1.152-1.93h0.628c-0.446,2-0.823,5.016-1.131,7.251c-0.14,0.949-0.279,1.929-0.419,2.894
	c-0.133,0.918-0.259,1.836-0.377,2.756c-0.112,0.865-0.195,1.641-0.252,2.312c-0.056,0.67-0.084,1.188-0.084,1.554
	c0,0.865,0.049,1.762,0.146,2.685c0.099,0.922,0.294,1.768,0.587,2.534c0.294,0.771,0.706,1.396,1.236,1.888
	c0.53,0.487,1.243,0.731,2.137,0.731c1.173,0,2.207-0.203,3.101-0.605c0.895-0.405,1.704-1.178,2.431-2.352L45.396,59h0.629
	c-0.224,2-0.398,3.983-0.523,5.953c-0.122,1.859-0.185,3.721-0.188,5.584c0,1.872,0.091,3.6,0.272,5.191
	c0.182,1.592,0.481,2.973,0.9,4.146s0.971,2.087,1.655,2.743s1.529,0.984,2.535,0.984c2.039,0,3.868-0.272,5.488-0.817
	s3.108-1.244,4.463-2.095c1.097-0.698,2.15-1.465,3.153-2.291c0.451,0.787,0.965,1.5,1.561,2.123
	c0.955,1.002,2.102,1.801,3.373,2.347c1.236,0.536,2.569,0.813,3.917,0.815c1.257,0,2.515-0.209,3.771-0.627
	c1.257-0.421,2.471-0.961,3.624-1.613c1.131-0.639,2.204-1.375,3.205-2.2c0.979-0.81,1.802-1.604,2.473-2.388
	c0.894,2.263,1.955,3.984,3.185,5.174c1.229,1.188,2.765,1.781,4.608,1.781c1.537,0,3.073-0.377,4.609-1.135
	c1.539-0.755,2.986-1.683,4.315-2.765c1.297-1.048,2.509-2.197,3.624-3.438c0.557-0.619,1.098-1.253,1.622-1.898
	c0.198,0.529,0.399,1.056,0.62,1.545c1.09,2.416,2.444,4.27,4.064,5.552c1.62,1.285,3.491,1.929,5.614,1.929
	c1.034,0,2.187-0.194,3.457-0.586c1.271-0.394,2.724-0.979,4.357-1.762c1.633-0.779,3.499-1.76,5.594-2.936
	c2.375-1.334,4.739-2.688,7.091-4.062c0.366,1.32,0.829,2.611,1.385,3.863c1.089,2.416,2.443,4.269,4.064,5.552
	c1.619,1.285,3.491,1.928,5.614,1.928c1.033,0,2.186-0.193,3.456-0.586c1.271-0.393,2.724-0.979,4.358-1.761
	c1.634-0.78,3.498-1.76,5.593-2.935c1.992-1.117,3.976-2.252,5.951-3.399c0.029,0.394,0.059,0.786,0.104,1.17
	c0.126,1.05,0.377,1.983,0.755,2.81c0.35,0.789,0.907,1.472,1.613,1.971c0.698,0.486,1.62,0.73,2.765,0.73
	c0.503,0,0.964-0.092,1.383-0.271c0.419-0.185,0.811-0.496,1.174-0.943c0.363-0.444,0.719-1.024,1.068-1.735
	c0.349-0.713,0.719-1.631,1.11-2.724L186.36,57h0.671c0.223,1,0.516,3.517,0.879,5.235c0.363,1.718,0.922,3.278,1.677,4.66
	c0.726,1.355,1.777,2.508,3.059,3.356c1.284,0.853,2.975,1.281,5.069,1.281c1.172,0,2.337-0.177,3.457-0.523
	c0.406-0.125,0.801-0.272,1.195-0.42c-0.022,0.414-0.043,0.828-0.043,1.237c0,1.844,0.293,3.5,0.88,4.965
	c0.587,1.467,1.368,2.709,2.347,3.729c0.953,1.004,2.102,1.804,3.373,2.35c1.236,0.537,2.569,0.814,3.917,0.814
	c1.257,0,2.515-0.209,3.771-0.627c1.259-0.42,2.474-0.959,3.625-1.613c1.133-0.637,2.205-1.373,3.205-2.198
	c0.979-0.812,1.805-1.604,2.475-2.39c0.896,2.265,1.955,3.986,3.188,5.176c1.229,1.188,2.765,1.779,4.605,1.779
	c1.537,0,3.073-0.377,4.607-1.133c1.539-0.756,2.986-1.684,4.314-2.765c0.271-0.22,0.512-0.452,0.771-0.677
	c0.314,0.457,0.654,0.893,1.029,1.283c0.952,1.002,2.101,1.801,3.373,2.348c1.235,0.537,2.568,0.814,3.918,0.816
	c1.534,0,3.119-0.412,4.756-1.235c1.635-0.824,3.205-1.907,4.713-3.248l-1.131,3.897c-2.014,1.646-4.002,3.379-5.973,5.192
	c-1.969,1.813-3.854,3.659-5.654,5.528c-1.746,1.812-3.418,3.689-5.01,5.638c-1.533,1.886-2.861,3.701-3.979,5.446
	c-1.117,1.744-1.997,3.406-2.641,4.984s-0.966,2.996-0.966,4.254c0,1.814,0.31,3.27,0.923,4.356
	c0.614,1.089,1.393,1.929,2.325,2.515c0.935,0.586,1.974,0.984,3.06,1.174c1.104,0.194,2.131,0.293,3.08,0.293
	c2.4,0,4.597-0.412,6.578-1.234c1.984-0.825,3.809-1.996,5.385-3.457c1.604-1.479,3.045-3.254,4.313-5.321
	c1.271-2.063,2.402-4.336,3.396-6.809c1.031-2.595,1.894-5.255,2.576-7.961c0.737-2.888,1.367-5.802,1.887-8.736
	c3.752-2.287,7.343-4.827,10.746-7.604c1.023-0.832,2.018-1.699,2.979-2.604c0.143,0.773,0.334,1.502,0.627,2.143
	c0.377,0.824,0.915,1.479,1.613,1.972c0.697,0.487,1.619,0.731,2.766,0.731c0.924,0,1.732-0.209,2.432-0.629
	s1.326-1.621,1.887-2.767L303.387,58h0.672c-0.336,3-0.613,4.742-0.839,6.683c-0.224,1.941-0.335,3.959-0.335,5.635
	c0,4.271,0.523,7.625,1.571,9.847c1.047,2.221,2.339,3.384,3.876,3.384c1.536,0,3.002-0.189,4.398-0.624
	c1.39-0.426,2.735-0.981,4.021-1.663c1.289-0.684,2.528-1.459,3.708-2.318c0.855-0.625,1.708-1.256,2.555-1.893
	c0.293,0.446,0.606,0.877,0.943,1.291c1.312,1.605,2.954,2.885,4.924,3.834c1.969,0.949,4.27,1.426,6.895,1.426
	c1.677,0,3.332-0.188,4.966-0.563s3.212-0.88,4.733-1.511c1.5-0.616,2.956-1.338,4.356-2.155c1.323-0.772,2.616-1.599,3.875-2.474
	c0.312-0.221,0.612-0.457,0.92-0.686c0.03,0.637,0.075,1.266,0.147,1.878c0.127,1.048,0.378,1.983,0.756,2.808
	c0.377,0.824,0.915,1.48,1.611,1.973c0.697,0.486,1.619,0.73,2.767,0.73c0.503,0,0.964-0.092,1.383-0.271
	c0.419-0.183,0.812-0.496,1.174-0.942c0.363-0.447,0.722-1.024,1.068-1.738c0.347-0.713,0.719-1.631,1.108-2.721l7.5-20.927h0.672
	c0.224,1,0.517,3.517,0.879,5.235c0.361,1.718,0.923,3.278,1.678,4.661c0.727,1.354,1.777,2.509,3.059,3.355
	c1.284,0.854,2.978,1.281,5.069,1.281c1.172,0,2.338-0.178,3.457-0.523c1.123-0.345,2.216-0.779,3.269-1.299
	c1.016-0.498,2-1.05,2.955-1.652c0.924-0.588,1.744-1.119,2.473-1.594l0.629-9.805C395.058,57.668,393.77,58.591,392.425,59.425
	L392.425,59.425z M148.21,33.352c0.549-2.226,1.192-4.428,1.928-6.6c0.685-1.997,1.396-3.638,2.137-4.923
	c0.741-1.285,1.474-1.928,2.2-1.928c0.53,0,0.942,0.112,1.235,0.335c0.294,0.224,0.51,0.503,0.649,0.839
	c0.141,0.335,0.23,0.691,0.272,1.068s0.063,0.719,0.063,1.026c0,0.894-0.238,2.039-0.713,3.436s-1.075,2.898-1.802,4.505
	c-0.755,1.664-1.573,3.299-2.451,4.901c-0.848,1.558-1.721,3.103-2.618,4.631c-0.447-0.057-0.88-0.105-1.299-0.147
	c-0.42-0.041-0.838-0.091-1.258-0.146C147.075,38.01,147.628,35.677,148.21,33.352z M83.316,63.74
	c-0.111,0.894-0.355,2.012-0.732,3.353s-0.875,2.646-1.488,3.896c-0.614,1.257-1.341,2.331-2.179,3.227
	c-0.838,0.894-1.773,1.341-2.808,1.341c-0.643,0-1.173-0.16-1.592-0.479c-0.419-0.321-0.754-0.74-1.006-1.259
	c-0.263-0.555-0.439-1.148-0.523-1.76c-0.098-0.673-0.147-1.353-0.146-2.033c0-1.229,0.16-2.541,0.481-3.938
	c0.331-1.427,0.787-2.822,1.362-4.169c0.583-1.377,1.284-2.703,2.095-3.96c0.77-1.206,1.661-2.329,2.661-3.352
	c0.963-0.978,1.99-1.753,3.079-2.326c1.089-0.572,2.207-0.858,3.353-0.858L83.316,63.74z M116.648,31.352
	c0.549-2.227,1.192-4.428,1.928-6.6c0.684-1.997,1.396-3.638,2.137-4.923c0.741-1.285,1.473-1.928,2.199-1.928
	c0.531,0,0.943,0.112,1.236,0.335c0.293,0.224,0.51,0.503,0.649,0.839c0.14,0.335,0.23,0.691,0.272,1.068s0.062,0.719,0.062,1.026
	c0,0.894-0.237,2.039-0.712,3.436c-0.528,1.53-1.129,3.033-1.802,4.505c-0.756,1.664-1.573,3.299-2.451,4.901
	c-0.849,1.558-1.722,3.102-2.619,4.631c-0.447-0.057-0.88-0.105-1.299-0.147c-0.42-0.042-0.839-0.09-1.257-0.146
	C115.514,36.01,116.066,33.677,116.648,31.352L116.648,31.352z M136.902,65.14c-0.379,0.354-0.76,0.706-1.169,1.053
	c-1.042,0.887-2.126,1.727-3.247,2.513c-2.131,1.504-4.389,2.821-6.747,3.938c-0.938,0.443-1.904,0.83-2.891,1.149
	c-0.88,0.28-1.613,0.42-2.2,0.42c-0.949,0-1.809-0.146-2.577-0.438c-0.765-0.291-1.438-0.783-1.947-1.424
	c-0.531-0.656-0.937-1.502-1.216-2.535c-0.279-1.033-0.419-2.307-0.419-3.812c0-0.587,0.007-1.229,0.021-1.928
	c0.014-0.698,0.034-1.424,0.062-2.179l0.084-2.283c0.027-0.771,0.056-1.516,0.084-2.242c0.083-1.676,0.182-3.38,0.293-5.111
	c0.698-0.866,1.459-1.867,2.283-2.942C118.14,48.244,118.96,47,119.77,46h13.895c0.096,0,0.212,0.064,0.3,0.081
	c0.517,0.098,1.006,0.21,1.467,0.308c0.461,0.098,1.11,0.21,1.948,0.321c-0.251,1.88-0.447,3.768-0.586,5.66
	c-0.136,1.785-0.206,3.575-0.21,5.365C136.58,60.207,136.686,62.678,136.902,65.14L136.902,65.14z M223.525,63.74
	c-0.111,0.894-0.355,2.012-0.732,3.353s-0.875,2.646-1.488,3.896c-0.613,1.257-1.341,2.331-2.179,3.227
	c-0.838,0.894-1.772,1.341-2.808,1.341c-0.646,0-1.174-0.16-1.592-0.479c-0.431-0.334-0.775-0.765-1.006-1.259
	c-0.266-0.555-0.441-1.148-0.523-1.76c-0.1-0.673-0.148-1.352-0.146-2.033c0-1.229,0.16-2.541,0.481-3.938
	c0.331-1.427,0.786-2.822,1.362-4.169c0.586-1.383,1.285-2.703,2.095-3.96s1.696-2.374,2.661-3.352
	c0.963-0.978,1.99-1.753,3.078-2.326c1.09-0.572,2.207-0.858,3.354-0.858L223.525,63.74z M257.716,98.141
	c-0.409,1.48-0.884,2.941-1.425,4.379c-0.559,1.496-1.202,2.957-1.927,4.379c-0.728,1.427-1.529,2.694-2.409,3.812
	s-1.844,2.02-2.893,2.703c-1.047,0.686-2.156,1.025-3.33,1.025c-1.117,0-1.676-0.519-1.676-1.551c0-0.644,0.209-1.453,0.629-2.432
	c0.418-0.979,0.988-2.032,1.717-3.163c0.789-1.219,1.635-2.399,2.535-3.541c0.969-1.235,1.989-2.431,3.06-3.582
	c1.052-1.135,2.155-2.219,3.31-3.248c1.051-0.94,2.164-1.809,3.332-2.598C258.375,95.607,258.066,96.881,257.716,98.141z
	 M330.287,61.687c0.056-0.866,0.175-1.76,0.354-2.682c0.184-0.922,0.446-1.837,0.799-2.745c0.35-0.907,0.811-1.718,1.383-2.43
	c0.57-0.712,1.285-1.292,2.137-1.739c0.852-0.446,1.879-0.67,3.08-0.67c0.67,0,1.234,0.405,1.695,1.215
	c0.461,0.812,0.689,1.844,0.689,3.101c0,0.894-0.349,1.815-1.048,2.766c-0.696,0.949-1.558,1.829-2.576,2.64
	c-1.011,0.806-2.124,1.475-3.311,1.99c-1.188,0.517-2.283,0.775-3.289,0.775C330.203,63.293,330.23,62.553,330.287,61.687z"/>
</svg>
