<svg version="1" xmlns="http://www.w3.org/2000/svg" width="80" height="80"><path fill="#FFF" d="M60.001 56.729h-8.843V43.817c0-3.38-1.381-5.686-4.422-5.686-2.327 0-3.62 1.555-4.223 3.058-.226.536-.191 1.286-.191 2.038v13.502h-8.759s.115-22.873 0-24.952h8.759v3.916c.52-1.712 3.316-4.156 7.785-4.156 5.538 0 9.894 3.59 9.894 11.318v13.874zM24.708 28.656h-.058c-2.821 0-4.651-1.907-4.651-4.322 0-2.465 1.886-4.333 4.762-4.333 2.877 0 4.646 1.863 4.703 4.326 0 2.416-1.826 4.329-4.756 4.329m4.098 28.073h-7.797V31.777h7.797v24.952zM40 0C17.908 0 0 17.908 0 39.998 0 62.09 17.908 80 40 80c22.094 0 40-17.91 40-40.002C80 17.908 62.094 0 40 0"/></svg>