<svg version="1" xmlns="http://www.w3.org/2000/svg" width="80" height="80" viewBox="0 0 80 80"><g fill="#FFF"><path fill-rule="evenodd" clip-rule="evenodd" d="M40 0C17.912 0 0 18.361 0 41.012 0 59.133 11.461 74.506 27.354 79.93c1.999.379 2.733-.89 2.733-1.974 0-.978-.037-4.209-.054-7.636-11.128 2.48-13.476-4.839-13.476-4.839-1.82-4.74-4.441-6.001-4.441-6.001-3.629-2.545.273-2.493.273-2.493 4.017.289 6.132 4.228 6.132 4.228 3.567 6.269 9.357 4.456 11.64 3.408.359-2.65 1.396-4.461 2.54-5.484-8.884-1.036-18.225-4.554-18.225-20.268 0-4.478 1.563-8.136 4.122-11.009-.416-1.033-1.785-5.204.387-10.854 0 0 3.359-1.102 11.002 4.204 3.191-.909 6.613-1.364 10.012-1.38 3.399.016 6.824.472 10.021 1.38 7.636-5.306 10.989-4.204 10.989-4.204 2.177 5.649.809 9.82.393 10.854 2.564 2.873 4.117 6.531 4.117 11.009 0 15.752-9.357 19.22-18.265 20.236 1.435 1.272 2.713 3.769 2.713 7.594 0 5.488-.047 9.905-.047 11.256 0 1.092.721 2.37 2.748 1.969C68.553 74.495 80 59.127 80 41.012 80 18.361 62.091 0 40 0z"/><path d="M15.15 58.885c-.088.204-.401.266-.686.125-.291-.134-.453-.411-.359-.615.086-.21.399-.269.689-.129.291.133.456.415.356.619zm-.492-.374M16.771 60.738c-.191.181-.564.097-.817-.189-.262-.287-.311-.669-.117-.854.197-.18.558-.096.82.189.261.291.313.67.114.854zm-.382-.421M18.348 63.1c-.245.175-.646.012-.894-.354-.245-.364-.245-.802.006-.978.248-.175.643-.017.894.344.244.371.244.81-.006.988zm0 0M20.508 65.382c-.219.248-.687.181-1.028-.157-.35-.331-.447-.8-.228-1.048.223-.248.692-.178 1.037.157.347.33.453.803.219 1.048zm0 0M23.489 66.707c-.097.321-.546.467-1 .331-.453-.141-.748-.518-.657-.842.094-.323.546-.476 1.002-.33.453.141.749.514.655.841zm0 0M26.763 66.953c.011.338-.374.618-.849.624-.478.011-.866-.263-.871-.596 0-.342.375-.619.854-.627.476-.009.866.263.866.599zm0 0M29.809 66.421c.057.33-.273.668-.746.759-.464.087-.894-.117-.954-.443-.058-.338.279-.678.743-.766.473-.083.897.114.957.45zm0 0"/></g></svg>