<svg version="1" xmlns="http://www.w3.org/2000/svg" width="80" height="80"><path fill="#FFF" d="M55.968 33.776c.014.35.021.706.021 1.064 0 10.863-8.266 23.388-23.389 23.388-4.641 0-8.962-1.36-12.6-3.691.643.076 1.298.113 1.962.113 3.85 0 7.396-1.313 10.208-3.52a8.22 8.22 0 0 1-7.678-5.706 8.102 8.102 0 0 0 1.545.146c.751 0 1.477-.096 2.167-.289a8.22 8.22 0 0 1-6.596-8.06v-.101a8.235 8.235 0 0 0 3.726 1.026 8.223 8.223 0 0 1-3.658-6.842c0-1.507.404-2.918 1.112-4.137 4.057 4.978 10.112 8.247 16.944 8.59a8.176 8.176 0 0 1-.211-1.872 8.22 8.22 0 0 1 8.218-8.22 8.2 8.2 0 0 1 6 2.596 16.42 16.42 0 0 0 5.221-1.993 8.23 8.23 0 0 1-3.613 4.547 16.447 16.447 0 0 0 4.722-1.294 16.708 16.708 0 0 1-4.101 4.255M40 0C17.909 0 0 17.909 0 40c0 22.092 17.909 40 40 40 22.09 0 40-17.908 40-40C80 17.909 62.091 0 40 0"/></svg>