<?xml version="1.0" encoding="utf-8"?>
<!-- Generator: Adobe Illustrator 22.1.0, SVG Export Plug-In . SVG Version: 6.00 Build 0)  -->
<svg version="1.1" id="Layer_1" xmlns="http://www.w3.org/2000/svg" xmlns:xlink="http://www.w3.org/1999/xlink" x="0px" y="0px"
	 viewBox="0 0 1411.5 738.4" style="enable-background:new 0 0 1411.5 738.4;" xml:space="preserve">
<style type="text/css">
	.st0{opacity:0.2;fill:#FFFFFF;enable-background:new    ;}
	.st1{opacity:0.2;}
	.st2{fill:#FFFFFF;}
	.st3{opacity:0.6;fill:#FFFFFF;enable-background:new    ;}
	.st4{opacity:0.5;fill:#FFFFFF;}
</style>
<g>
	<path class="st0" d="M475.9,135.1h4.3c1.3,0,2.2,0.4,2.8,1.1c0.6,0.7,0.8,1.7,0.6,2.9c-0.1,0.6-0.2,1.1-0.5,1.7
		c-0.3,0.6-0.6,1.1-1,1.5c-0.5,0.6-1.1,0.9-1.7,1.1s-1.2,0.2-1.9,0.2h-1.9l-0.6,3.1h-2.2L475.9,135.1z M477.8,136.9l-1,4.8
		c0.1,0,0.1,0,0.2,0h0.2c1,0,1.9-0.1,2.6-0.3c0.7-0.2,1.1-1,1.4-2.4c0.2-1.1,0-1.8-0.6-1.9c-0.6-0.2-1.3-0.3-2.1-0.2
		c-0.1,0-0.3,0-0.4,0L477.8,136.9L477.8,136.9z M486.1,132h2.2l-0.6,3.1h2c1.1,0,1.9,0.2,2.5,0.7c0.5,0.4,0.7,1.2,0.5,2.4l-1.1,5.4
		h-2.3l1-5.1c0.1-0.5,0.1-0.9-0.1-1.1s-0.5-0.3-1.1-0.3l-1.8,0l-1.3,6.6h-2.2L486.1,132z M495,135.1h4.3c1.3,0,2.2,0.4,2.8,1.1
		c0.6,0.7,0.8,1.7,0.6,2.9c-0.1,0.6-0.2,1.1-0.5,1.7c-0.2,0.6-0.6,1.1-1,1.5c-0.5,0.6-1.1,0.9-1.7,1.1s-1.2,0.2-1.9,0.2h-1.9
		l-0.6,3.1h-2.2L495,135.1z M496.9,136.9l-1,4.8c0.1,0,0.1,0,0.2,0h0.2c1,0,1.9-0.1,2.6-0.3c0.7-0.2,1.1-1,1.4-2.4
		c0.2-1.1,0-1.8-0.6-1.9c-0.6-0.2-1.3-0.3-2.1-0.2c-0.1,0-0.3,0-0.4,0L496.9,136.9L496.9,136.9z M991.9,135.1h4.3
		c1.3,0,2.2,0.4,2.8,1.1s0.8,1.7,0.6,2.9c-0.1,0.6-0.2,1.1-0.5,1.7c-0.3,0.6-0.6,1.1-1,1.5c-0.5,0.6-1.1,0.9-1.7,1.1
		s-1.2,0.2-1.9,0.2h-1.9l-0.6,3.1h-2.2L991.9,135.1z M993.8,136.9l-1,4.8c0.1,0,0.1,0,0.2,0h0.2c1,0,1.9-0.1,2.6-0.3
		c0.7-0.2,1.1-1,1.4-2.4c0.2-1.1,0-1.8-0.6-1.9c-0.6-0.2-1.3-0.3-2.1-0.2c-0.1,0-0.2,0-0.4,0L993.8,136.9L993.8,136.9z M1002.1,132
		h2.2l-0.6,3.1h2c1.1,0,1.9,0.2,2.5,0.7c0.5,0.4,0.7,1.2,0.5,2.4l-1.1,5.4h-2.3l1-5.1c0.1-0.5,0.1-0.9-0.1-1.1s-0.5-0.3-1.1-0.3
		l-1.8,0l-1.3,6.6h-2.2L1002.1,132z M1011,135.1h4.3c1.3,0,2.2,0.4,2.8,1.1c0.6,0.7,0.8,1.7,0.6,2.9c-0.1,0.6-0.2,1.1-0.5,1.7
		c-0.2,0.6-0.6,1.1-1,1.5c-0.5,0.6-1.1,0.9-1.7,1.1c-0.6,0.2-1.3,0.2-1.9,0.2h-1.9l-0.6,3.1h-2.2L1011,135.1z M1012.9,136.9l-1,4.8
		c0.1,0,0.1,0,0.2,0h0.2c1,0,1.9-0.1,2.6-0.3c0.7-0.2,1.2-1,1.4-2.4c0.2-1.1,0-1.8-0.6-1.9c-0.6-0.2-1.3-0.3-2.1-0.2
		c-0.1,0-0.2,0-0.4,0L1012.9,136.9L1012.9,136.9z M1256.9,429.1h4.3c1.3,0,2.2,0.4,2.8,1.1c0.6,0.7,0.8,1.7,0.6,2.9
		c-0.1,0.6-0.2,1.1-0.5,1.7c-0.3,0.6-0.6,1.1-1,1.5c-0.5,0.6-1.1,0.9-1.7,1.1s-1.2,0.2-1.9,0.2h-1.9l-0.6,3.1h-2.2L1256.9,429.1z
		 M1258.8,430.9l-1,4.8c0.1,0,0.1,0,0.2,0h0.2c1,0,1.9-0.1,2.6-0.3c0.7-0.2,1.1-1,1.4-2.4c0.2-1.1,0-1.8-0.6-2
		c-0.6-0.2-1.3-0.3-2.1-0.2c-0.1,0-0.2,0-0.4,0L1258.8,430.9L1258.8,430.9z M1267.1,426h2.2l-0.6,3.1h2c1.1,0,1.9,0.2,2.4,0.7
		c0.5,0.4,0.7,1.2,0.5,2.4l-1.1,5.4h-2.3l1-5.1c0.1-0.5,0.1-0.9-0.1-1.1c-0.2-0.2-0.5-0.3-1.1-0.3l-1.8,0l-1.3,6.6h-2.2L1267.1,426z
		 M1276,429.1h4.3c1.3,0,2.2,0.4,2.8,1.1c0.6,0.7,0.8,1.7,0.6,2.9c-0.1,0.6-0.2,1.1-0.5,1.7c-0.3,0.6-0.6,1.1-1,1.5
		c-0.5,0.6-1.1,0.9-1.7,1.1c-0.6,0.2-1.3,0.2-1.9,0.2h-1.9l-0.6,3.1h-2.2L1276,429.1z M1277.9,430.9l-1,4.8c0.1,0,0.1,0,0.2,0h0.2
		c1,0,1.9-0.1,2.6-0.3c0.7-0.2,1.2-1,1.4-2.4c0.2-1.1,0-1.8-0.6-2c-0.6-0.2-1.3-0.3-2.1-0.2c-0.1,0-0.2,0-0.4,0L1277.9,430.9
		L1277.9,430.9z M809.9,631.1h4.3c1.3,0,2.2,0.4,2.8,1.1c0.6,0.7,0.8,1.7,0.6,2.9c-0.1,0.6-0.2,1.1-0.5,1.7c-0.3,0.6-0.6,1.1-1,1.5
		c-0.5,0.6-1.1,0.9-1.7,1.1s-1.2,0.2-1.9,0.2h-1.9l-0.6,3.1h-2.2L809.9,631.1z M811.8,632.9l-1,4.8c0.1,0,0.1,0,0.2,0h0.2
		c1,0,1.9-0.1,2.6-0.3c0.7-0.2,1.1-1,1.4-2.4c0.2-1.1,0-1.8-0.6-2c-0.6-0.2-1.3-0.3-2.1-0.2c-0.1,0-0.2,0-0.4,0L811.8,632.9
		L811.8,632.9z M820.1,628h2.2l-0.6,3.1h2c1.1,0,1.9,0.2,2.5,0.7c0.5,0.4,0.7,1.2,0.5,2.4l-1.1,5.4h-2.3l1-5.1
		c0.1-0.5,0.1-0.9-0.1-1.1c-0.2-0.2-0.5-0.3-1.1-0.3l-1.8,0l-1.3,6.6h-2.2L820.1,628z M829,631.1h4.3c1.3,0,2.2,0.4,2.8,1.1
		c0.6,0.7,0.8,1.7,0.6,2.9c-0.1,0.6-0.2,1.1-0.5,1.7c-0.3,0.6-0.6,1.1-1,1.5c-0.5,0.6-1.1,0.9-1.7,1.1c-0.6,0.2-1.3,0.2-1.9,0.2
		h-1.9l-0.6,3.1h-2.2L829,631.1z M830.9,632.9l-1,4.8c0.1,0,0.1,0,0.2,0h0.2c1,0,1.9-0.1,2.6-0.3c0.7-0.2,1.2-1,1.4-2.4
		c0.2-1.1,0-1.8-0.6-2c-0.6-0.2-1.3-0.3-2.1-0.2c-0.1,0-0.2,0-0.4,0L830.9,632.9L830.9,632.9z M428.9,535.1h4.3
		c1.3,0,2.2,0.4,2.8,1.1c0.6,0.7,0.8,1.7,0.6,2.9c-0.1,0.6-0.2,1.1-0.5,1.7c-0.3,0.6-0.6,1.1-1,1.5c-0.5,0.6-1.1,0.9-1.7,1.1
		s-1.2,0.2-1.9,0.2h-1.9l-0.6,3.1h-2.2L428.9,535.1z M430.8,536.9l-1,4.8c0.1,0,0.1,0,0.2,0h0.2c1,0,1.9-0.1,2.6-0.3
		c0.7-0.2,1.1-1,1.4-2.4c0.2-1.1,0-1.8-0.6-2c-0.6-0.2-1.3-0.3-2.1-0.2c-0.1,0-0.2,0-0.4,0L430.8,536.9L430.8,536.9z M439.1,532h2.2
		l-0.6,3.1h2c1.1,0,1.9,0.2,2.5,0.7c0.5,0.4,0.7,1.2,0.5,2.4l-1.1,5.4h-2.3l1-5.1c0.1-0.5,0.1-0.9-0.1-1.1c-0.2-0.2-0.5-0.3-1.1-0.3
		l-1.8,0l-1.3,6.6h-2.2L439.1,532z M448,535.1h4.3c1.3,0,2.2,0.4,2.8,1.1c0.6,0.7,0.8,1.7,0.6,2.9c-0.1,0.6-0.2,1.1-0.5,1.7
		c-0.3,0.6-0.6,1.1-1,1.5c-0.5,0.6-1.1,0.9-1.7,1.1s-1.2,0.2-1.9,0.2h-1.9l-0.6,3.1h-2.2L448,535.1z M449.9,536.9l-1,4.8
		c0.1,0,0.1,0,0.2,0h0.2c1,0,1.9-0.1,2.6-0.3c0.7-0.2,1.1-1,1.4-2.4c0.2-1.1,0-1.8-0.6-2c-0.6-0.2-1.3-0.3-2.1-0.2
		c-0.1,0-0.2,0-0.4,0L449.9,536.9L449.9,536.9z M214.9,680.1h4.3c1.3,0,2.2,0.4,2.8,1.1c0.6,0.7,0.8,1.7,0.6,2.9
		c-0.1,0.6-0.2,1.1-0.5,1.7c-0.3,0.6-0.6,1.1-1,1.5c-0.5,0.6-1.1,0.9-1.7,1.1s-1.2,0.2-1.9,0.2h-1.9l-0.6,3.1h-2.2L214.9,680.1z
		 M216.8,681.9l-1,4.8c0.1,0,0.1,0,0.2,0h0.2c1,0,1.9-0.1,2.6-0.3c0.7-0.2,1.1-1,1.4-2.4c0.2-1.1,0-1.8-0.6-2
		c-0.6-0.2-1.3-0.3-2.1-0.2c-0.1,0-0.2,0-0.4,0L216.8,681.9L216.8,681.9z M225.1,677h2.2l-0.6,3.1h2c1.1,0,1.9,0.2,2.4,0.7
		c0.5,0.4,0.7,1.2,0.5,2.4l-1.1,5.4h-2.3l1-5.1c0.1-0.5,0.1-0.9-0.1-1.1c-0.2-0.2-0.5-0.3-1.1-0.3l-1.8,0l-1.3,6.6h-2.2L225.1,677z
		 M234,680.1h4.3c1.3,0,2.2,0.4,2.8,1.1c0.6,0.7,0.8,1.7,0.6,2.9c-0.1,0.6-0.2,1.1-0.5,1.7c-0.3,0.6-0.6,1.1-1,1.5
		c-0.5,0.6-1.1,0.9-1.7,1.1s-1.2,0.2-1.9,0.2h-1.9l-0.6,3.1h-2.2L234,680.1z M235.9,681.9l-1,4.8c0.1,0,0.1,0,0.2,0h0.2
		c1,0,1.9-0.1,2.6-0.3c0.7-0.2,1.1-1,1.4-2.4c0.2-1.1,0-1.8-0.6-2c-0.6-0.2-1.3-0.3-2.1-0.2c-0.1,0-0.2,0-0.4,0L235.9,681.9
		L235.9,681.9z M189.9,214.1h4.3c1.3,0,2.2,0.4,2.8,1.1c0.6,0.7,0.8,1.7,0.6,2.9c-0.1,0.6-0.2,1.1-0.5,1.7c-0.3,0.6-0.6,1.1-1,1.5
		c-0.5,0.6-1.1,0.9-1.7,1.1s-1.2,0.2-1.9,0.2h-1.9l-0.6,3.1h-2.2L189.9,214.1z M191.8,215.9l-1,4.8c0.1,0,0.1,0,0.2,0h0.2
		c1,0,1.9-0.1,2.6-0.3c0.7-0.2,1.1-1,1.4-2.4c0.2-1.1,0-1.8-0.6-1.9c-0.6-0.2-1.3-0.3-2.1-0.2c-0.1,0-0.3,0-0.4,0L191.8,215.9
		L191.8,215.9z M200.1,211h2.2l-0.6,3.1h2c1.1,0,1.9,0.2,2.4,0.7c0.5,0.4,0.7,1.2,0.5,2.4l-1.1,5.4h-2.3l1-5.1
		c0.1-0.5,0.1-0.9-0.1-1.1s-0.5-0.3-1.1-0.3l-1.8,0l-1.3,6.6h-2.2L200.1,211z M209,214.1h4.3c1.3,0,2.2,0.4,2.8,1.1
		c0.6,0.7,0.8,1.7,0.6,2.9c-0.1,0.6-0.2,1.1-0.5,1.7c-0.2,0.6-0.6,1.1-1,1.5c-0.5,0.6-1.1,0.9-1.7,1.1s-1.2,0.2-1.9,0.2h-1.9
		l-0.6,3.1h-2.2L209,214.1z M210.9,215.9l-1,4.8c0.1,0,0.1,0,0.2,0h0.2c1,0,1.9-0.1,2.6-0.3c0.7-0.2,1.1-1,1.4-2.4
		c0.2-1.1,0-1.8-0.6-1.9c-0.6-0.2-1.3-0.3-2.1-0.2c-0.1,0-0.3,0-0.4,0L210.9,215.9L210.9,215.9z M1095.9,251.1h4.3
		c1.3,0,2.2,0.4,2.8,1.1s0.8,1.7,0.6,2.9c-0.1,0.6-0.2,1.1-0.5,1.7c-0.3,0.6-0.6,1.1-1,1.5c-0.5,0.6-1.1,0.9-1.7,1.1
		s-1.2,0.2-1.9,0.2h-1.9l-0.6,3.1h-2.2L1095.9,251.1z M1097.8,252.9l-1,4.8c0.1,0,0.1,0,0.2,0h0.2c1,0,1.9-0.1,2.6-0.3
		c0.7-0.2,1.1-1,1.4-2.4c0.2-1.1,0-1.8-0.6-1.9c-0.6-0.2-1.3-0.3-2.1-0.2c-0.1,0-0.2,0-0.4,0L1097.8,252.9L1097.8,252.9z
		 M1106.1,248h2.2l-0.6,3.1h2c1.1,0,1.9,0.2,2.4,0.7c0.5,0.4,0.7,1.2,0.5,2.4l-1.1,5.4h-2.3l1-5.1c0.1-0.5,0.1-0.9-0.1-1.1
		s-0.5-0.3-1.1-0.3l-1.8,0l-1.3,6.6h-2.2L1106.1,248z M1115,251.1h4.3c1.3,0,2.2,0.4,2.8,1.1c0.6,0.7,0.8,1.7,0.6,2.9
		c-0.1,0.6-0.2,1.1-0.5,1.7c-0.2,0.6-0.6,1.1-1,1.5c-0.5,0.6-1.1,0.9-1.7,1.1c-0.6,0.2-1.3,0.2-1.9,0.2h-1.9l-0.6,3.1h-2.2
		L1115,251.1z M1116.9,252.9l-1,4.8c0.1,0,0.1,0,0.2,0h0.2c1,0,1.9-0.1,2.6-0.3c0.7-0.2,1.2-1,1.4-2.4c0.2-1.1,0-1.8-0.6-1.9
		c-0.6-0.2-1.3-0.3-2.1-0.2c-0.1,0-0.2,0-0.4,0L1116.9,252.9L1116.9,252.9z M1379.9,68.1h4.3c1.3,0,2.2,0.4,2.8,1.1s0.8,1.7,0.6,2.9
		c-0.1,0.6-0.2,1.1-0.5,1.7c-0.3,0.6-0.6,1.1-1,1.5c-0.5,0.6-1.1,0.9-1.7,1.1s-1.2,0.2-1.9,0.2h-1.9l-0.6,3.1h-2.2L1379.9,68.1z
		 M1381.8,69.9l-1,4.8c0.1,0,0.1,0,0.2,0h0.2c1,0,1.9-0.1,2.6-0.3c0.7-0.2,1.1-1,1.4-2.4c0.2-1.1,0-1.8-0.6-1.9
		c-0.6-0.2-1.3-0.3-2.1-0.2c-0.1,0-0.2,0-0.4,0L1381.8,69.9L1381.8,69.9z M1390.1,65h2.2l-0.6,3.1h2c1.1,0,1.9,0.2,2.4,0.7
		c0.5,0.4,0.7,1.2,0.5,2.4l-1.1,5.4h-2.3l1-5.1c0.1-0.5,0.1-0.9-0.1-1.1s-0.5-0.3-1.1-0.3l-1.8,0l-1.3,6.6h-2.2L1390.1,65z
		 M1399,68.1h4.3c1.3,0,2.2,0.4,2.8,1.1c0.6,0.7,0.8,1.7,0.6,2.9c-0.1,0.6-0.2,1.1-0.5,1.7c-0.2,0.6-0.6,1.1-1,1.5
		c-0.5,0.6-1.1,0.9-1.7,1.1c-0.6,0.2-1.3,0.2-1.9,0.2h-1.9l-0.6,3.1h-2.2L1399,68.1z M1400.9,69.9l-1,4.8c0.1,0,0.1,0,0.2,0h0.2
		c1,0,1.9-0.1,2.6-0.3c0.7-0.2,1.2-1,1.4-2.4c0.2-1.1,0-1.8-0.6-1.9c-0.6-0.2-1.3-0.3-2.1-0.2c-0.1,0-0.2,0-0.4,0L1400.9,69.9
		L1400.9,69.9z"/>
	<g class="st1">
		<path class="st2" d="M508.4,279.7c-0.2,0-0.3,0.1-0.3,0.3v7.6c0,0.1-0.1,0.2-0.2,0.2c0,0-0.1,0-0.1,0l-1.2-0.7
			c-0.2-0.1-0.4-0.1-0.6,0l-4.9,2.8c-0.2,0.1-0.3,0.3-0.3,0.5v5.7c0,0.2,0.1,0.4,0.3,0.5l4.9,2.8c0.2,0.1,0.4,0.1,0.6,0l4.9-2.8
			c0.2-0.1,0.3-0.3,0.3-0.5v-14.2c0-0.2-0.1-0.4-0.3-0.5l-2.9-1.6C508.5,279.7,508.4,279.7,508.4,279.7L508.4,279.7z M476.6,286.8
			c-0.1,0-0.2,0-0.3,0.1l-4.9,2.8c-0.2,0.1-0.3,0.3-0.3,0.5l0,7.6c0,0.1,0.1,0.2,0.1,0.3c0.1,0.1,0.2,0.1,0.3,0l2.9-1.7
			c0.2-0.1,0.3-0.3,0.3-0.5v-3.6c0-0.2,0.1-0.4,0.3-0.5l1.2-0.7c0.2-0.1,0.4-0.1,0.6,0l1.2,0.7c0.2,0.1,0.3,0.3,0.3,0.5v3.6
			c0,0.2,0.1,0.4,0.3,0.5l2.9,1.7c0.1,0.1,0.2,0.1,0.3,0c0.1-0.1,0.1-0.2,0.1-0.3l0-7.6c0-0.2-0.1-0.4-0.3-0.5l-4.9-2.8
			C476.9,286.8,476.8,286.8,476.6,286.8L476.6,286.8L476.6,286.8z M521,286.8c-0.1,0-0.2,0-0.3,0.1l-4.9,2.8
			c-0.2,0.1-0.3,0.3-0.3,0.5v5.7c0,0.2,0.1,0.4,0.3,0.5l4.9,2.8c0.2,0.1,0.4,0.1,0.6,0l3-1.7c0.1,0.1,0.3,0,0.4-0.1s0-0.3-0.1-0.4
			c-0.1,0-0.2,0-0.3,0l-5-2.8c-0.1-0.1-0.2-0.2-0.2-0.3v-1.8c0-0.1,0.1-0.2,0.2-0.3l1.5-0.9c0.1-0.1,0.2-0.1,0.3,0l1.5,0.9
			c0.1,0.1,0.1,0.2,0.1,0.3v1.4c0,0.1,0.1,0.2,0.1,0.3c0.1,0.1,0.2,0.1,0.3,0l3-1.7c0.2-0.1,0.3-0.3,0.3-0.5v-1.4
			c0-0.2-0.1-0.4-0.3-0.5l-4.9-2.8C521.2,286.9,521.1,286.8,521,286.8L521,286.8z M506.2,291.1C506.2,291.1,506.3,291.1,506.2,291.1
			l1.8,1c0,0,0.1,0.1,0.1,0.1v2c0,0.1,0,0.1-0.1,0.1l-1.7,1c0,0-0.1,0-0.1,0l-1.7-1c0,0-0.1-0.1-0.1-0.1v-2c0-0.1,0-0.1,0.1-0.1
			L506.2,291.1C506.2,291.1,506.2,291.1,506.2,291.1z"/>
		<path class="st3" d="M535.7,286.7c-0.2,0-0.3,0-0.5,0.1l-4.7,2.7c-0.3,0.2-0.5,0.5-0.5,0.9v5.4c0,0.3,0.2,0.7,0.5,0.9l1.2,0.7
			c0.6,0.3,0.8,0.3,1.1,0.3c0.9,0,1.4-0.5,1.4-1.5v-5.3c0-0.1-0.1-0.1-0.1-0.1h-0.6c-0.1,0-0.1,0.1-0.1,0.1v5.3
			c0,0.4-0.4,0.8-1.1,0.5l-1.3-0.7c0,0-0.1-0.1-0.1-0.1v-5.4c0,0,0-0.1,0.1-0.1l4.6-2.7c0,0,0.1,0,0.1,0l4.6,2.7
			c0,0,0.1,0.1,0.1,0.1v5.4c0,0.1,0,0.1-0.1,0.1l-4.7,2.7c0,0-0.1,0-0.1,0l-1.2-0.7c0,0-0.1,0-0.1,0c-0.3,0.2-0.4,0.2-0.7,0.3
			c-0.1,0-0.2,0.1,0,0.2l1.6,0.9c0.1,0.1,0.3,0.1,0.5,0.1c0.2,0,0.3,0,0.5-0.1l4.7-2.7c0.3-0.2,0.5-0.5,0.5-0.9v-5.4
			c0-0.3-0.2-0.7-0.5-0.9l-4.7-2.7C536.1,286.7,535.9,286.7,535.7,286.7L535.7,286.7z M491.4,286.8c-0.1,0-0.2,0-0.3,0.1l-4.9,2.8
			c-0.2,0.1-0.3,0.3-0.3,0.5v5.7c0,0.2,0.1,0.4,0.3,0.5l4.9,2.8c0.2,0.1,0.4,0.1,0.6,0l4.9-2.8c0.2-0.1,0.3-0.3,0.3-0.5v-5.7
			c0-0.2-0.1-0.4-0.3-0.5l-4.9-2.8C491.7,286.8,491.6,286.8,491.4,286.8L491.4,286.8z M542.7,286.8v0.1h0.4v1h0.2v-1h0.4v-0.1
			L542.7,286.8L542.7,286.8z M543.7,286.8v1.2h0.1v-0.8c0-0.1,0-0.1,0-0.1v0l0.3,1h0.2l0.3-1c0,0.1,0,0.1,0,0.2v0.8h0.1v-1.2h-0.2
			l-0.3,1l-0.3-1L543.7,286.8L543.7,286.8z M537,290.5c-1.3,0-2.1,0.6-2.1,1.5c0,1,0.8,1.3,2.1,1.4c1.5,0.1,1.6,0.4,1.6,0.7
			c0,0.5-0.4,0.7-1.4,0.7c-1.2,0-1.5-0.3-1.6-0.9c0-0.1-0.1-0.1-0.1-0.1h-0.6c-0.1,0-0.1,0.1-0.1,0.1c0,0.8,0.4,1.7,2.5,1.7
			c1.5,0,2.3-0.6,2.3-1.6c0-1-0.7-1.3-2.1-1.5c-1.4-0.2-1.6-0.3-1.6-0.6c0-0.3,0.1-0.7,1.2-0.7c1,0,1.3,0.2,1.5,0.9
			c0,0.1,0.1,0.1,0.1,0.1h0.6c0,0,0.1,0,0.1,0c0,0,0-0.1,0-0.1C539.2,291.1,538.5,290.5,537,290.5L537,290.5z M521,291.9
			C520.9,291.9,520.9,291.9,521,291.9l-1,0.6c0,0-0.1,0.1-0.1,0.1v1.1c0,0,0,0.1,0.1,0.1l0.9,0.5c0,0,0.1,0,0.1,0l0.9-0.5
			c0,0,0.1-0.1,0.1-0.1v-1.1c0,0,0-0.1-0.1-0.1L521,291.9C521,291.9,521,291.9,521,291.9L521,291.9z"/>
	</g>
	<g class="st1">
		<path class="st2" d="M1047.4,353.7c-0.2,0-0.3,0.1-0.3,0.3v7.6c0,0.1,0,0.1-0.1,0.2c-0.1,0-0.1,0-0.2,0l-1.2-0.7
			c-0.2-0.1-0.4-0.1-0.6,0l-4.9,2.8c-0.2,0.1-0.3,0.3-0.3,0.5v5.7c0,0.2,0.1,0.4,0.3,0.5l4.9,2.8c0.2,0.1,0.4,0.1,0.6,0l4.9-2.8
			c0.2-0.1,0.3-0.3,0.3-0.5v-14.2c0-0.2-0.1-0.4-0.3-0.5l-2.9-1.6C1047.5,353.7,1047.4,353.7,1047.4,353.7L1047.4,353.7z
			 M1015.6,360.8c-0.1,0-0.2,0-0.3,0.1l-4.9,2.8c-0.2,0.1-0.3,0.3-0.3,0.5l0,7.6c0,0.1,0.1,0.2,0.1,0.3c0.1,0.1,0.2,0.1,0.3,0
			l2.9-1.7c0.2-0.1,0.3-0.3,0.3-0.5v-3.6c0-0.2,0.1-0.4,0.3-0.5l1.2-0.7c0.2-0.1,0.4-0.1,0.6,0l1.2,0.7c0.2,0.1,0.3,0.3,0.3,0.5v3.6
			c0,0.2,0.1,0.4,0.3,0.5l2.9,1.7c0.1,0.1,0.2,0.1,0.3,0c0.1-0.1,0.1-0.2,0.1-0.3l0-7.6c0-0.2-0.1-0.4-0.3-0.5l-4.9-2.8
			C1015.9,360.8,1015.8,360.8,1015.6,360.8L1015.6,360.8L1015.6,360.8z M1060,360.8c-0.1,0-0.2,0-0.3,0.1l-4.9,2.8
			c-0.2,0.1-0.3,0.3-0.3,0.5v5.7c0,0.2,0.1,0.4,0.3,0.5l4.9,2.8c0.2,0.1,0.4,0.1,0.6,0l3-1.7c0.1-0.1,0.2-0.1,0.2-0.3
			c0-0.1-0.1-0.2-0.1-0.3l-5-2.8c-0.1-0.1-0.2-0.2-0.2-0.3v-1.8c0-0.1,0.1-0.2,0.2-0.3l1.5-0.9c0.1-0.1,0.2-0.1,0.3,0l1.5,0.9
			c0.1,0.1,0.1,0.2,0.1,0.3v1.4c0,0.2,0.1,0.3,0.3,0.3c0.1,0,0.1,0,0.2,0l3-1.7c0.2-0.1,0.3-0.3,0.3-0.5v-1.4c0-0.2-0.1-0.4-0.3-0.5
			l-4.9-2.8C1060.2,360.9,1060.1,360.8,1060,360.8L1060,360.8z M1045.2,365.1C1045.2,365.1,1045.3,365.1,1045.2,365.1l1.8,1
			c0,0,0.1,0.1,0.1,0.1v2c0,0.1,0,0.1-0.1,0.1l-1.7,1c0,0-0.1,0-0.1,0l-1.7-1c0,0-0.1-0.1-0.1-0.1v-2c0-0.1,0-0.1,0.1-0.1
			L1045.2,365.1C1045.2,365.1,1045.2,365.1,1045.2,365.1z"/>
		<path class="st3" d="M1074.7,360.7c-0.2,0-0.3,0-0.5,0.1l-4.7,2.7c-0.3,0.2-0.5,0.5-0.5,0.9v5.4c0,0.3,0.2,0.7,0.5,0.9l1.2,0.7
			c0.6,0.3,0.8,0.3,1.1,0.3c0.9,0,1.4-0.5,1.4-1.5v-5.3c0-0.1-0.1-0.1-0.1-0.1h-0.6c-0.1,0-0.1,0.1-0.1,0.1v5.3
			c0,0.4-0.4,0.8-1.1,0.5l-1.3-0.7c0,0-0.1-0.1-0.1-0.1v-5.4c0,0,0-0.1,0.1-0.1l4.6-2.7c0,0,0.1,0,0.1,0l4.6,2.7
			c0,0,0.1,0.1,0.1,0.1v5.4c0,0.1,0,0.1-0.1,0.1l-4.7,2.7c0,0-0.1,0-0.1,0l-1.2-0.7c0,0-0.1,0-0.1,0c-0.3,0.2-0.4,0.2-0.7,0.3
			c-0.1,0-0.2,0.1,0,0.2l1.6,0.9c0.1,0.1,0.3,0.1,0.5,0.1c0.2,0,0.3,0,0.5-0.1l4.7-2.7c0.3-0.2,0.5-0.5,0.5-0.9v-5.4
			c0-0.3-0.2-0.7-0.5-0.9l-4.7-2.7C1075.1,360.7,1074.9,360.7,1074.7,360.7L1074.7,360.7z M1030.4,360.8c-0.1,0-0.2,0-0.3,0.1
			l-4.9,2.8c-0.2,0.1-0.3,0.3-0.3,0.5v5.7c0,0.2,0.1,0.4,0.3,0.5l4.9,2.8c0.2,0.1,0.4,0.1,0.6,0l4.9-2.8c0.2-0.1,0.3-0.3,0.3-0.5
			v-5.7c0-0.2-0.1-0.4-0.3-0.5l-4.9-2.8C1030.7,360.8,1030.6,360.8,1030.4,360.8z M1081.7,360.8v0.1h0.4v1h0.2v-1h0.4v-0.1
			L1081.7,360.8L1081.7,360.8z M1082.7,360.8v1.2h0.1v-0.8c0-0.1,0-0.1,0-0.1v0l0.3,1h0.2l0.3-1c0,0.1,0,0.1,0,0.2v0.8h0.1v-1.2
			h-0.2l-0.3,1l-0.3-1L1082.7,360.8L1082.7,360.8z M1076,364.5c-1.3,0-2.1,0.6-2.1,1.5c0,1,0.8,1.3,2.1,1.4c1.5,0.1,1.6,0.4,1.6,0.7
			c0,0.5-0.4,0.7-1.4,0.7c-1.2,0-1.5-0.3-1.6-0.9c0-0.1-0.1-0.1-0.1-0.1h-0.6c-0.1,0-0.1,0.1-0.1,0.1c0,0.8,0.4,1.7,2.5,1.7
			c1.5,0,2.3-0.6,2.3-1.6c0-1-0.7-1.3-2.1-1.5c-1.4-0.2-1.6-0.3-1.6-0.6c0-0.3,0.1-0.7,1.2-0.7c1,0,1.3,0.2,1.5,0.9
			c0,0.1,0.1,0.1,0.1,0.1h0.6c0,0,0.1,0,0.1,0c0,0,0-0.1,0-0.1C1078.2,365.1,1077.5,364.5,1076,364.5L1076,364.5z M1060,365.9
			C1059.9,365.9,1059.9,365.9,1060,365.9l-1,0.6c0,0-0.1,0.1-0.1,0.1v1.1c0,0,0,0.1,0.1,0.1l0.9,0.5c0,0,0.1,0,0.1,0l0.9-0.5
			c0,0,0.1-0.1,0.1-0.1v-1.1c0,0,0-0.1-0.1-0.1L1060,365.9C1060,365.9,1060,365.9,1060,365.9L1060,365.9z"/>
	</g>
	<g class="st1">
		<path class="st2" d="M1222.4,516.7c-0.2,0-0.3,0.1-0.3,0.3v7.6c0,0.1,0,0.1-0.1,0.2c-0.1,0-0.1,0-0.2,0l-1.2-0.7
			c-0.2-0.1-0.4-0.1-0.6,0l-4.9,2.8c-0.2,0.1-0.3,0.3-0.3,0.5v5.7c0,0.2,0.1,0.4,0.3,0.5l4.9,2.8c0.2,0.1,0.4,0.1,0.6,0l4.9-2.8
			c0.2-0.1,0.3-0.3,0.3-0.5v-14.2c0-0.2-0.1-0.4-0.3-0.5l-2.9-1.6C1222.5,516.7,1222.4,516.7,1222.4,516.7L1222.4,516.7z
			 M1190.6,523.8c-0.1,0-0.2,0-0.3,0.1l-4.9,2.8c-0.2,0.1-0.3,0.3-0.3,0.5l0,7.6c0,0.1,0.1,0.2,0.1,0.3c0.1,0.1,0.2,0.1,0.3,0
			l2.9-1.7c0.2-0.1,0.3-0.3,0.3-0.5v-3.6c0-0.2,0.1-0.4,0.3-0.5l1.2-0.7c0.1-0.1,0.2-0.1,0.3-0.1c0.1,0,0.2,0,0.3,0.1l1.2,0.7
			c0.2,0.1,0.3,0.3,0.3,0.5v3.6c0,0.2,0.1,0.4,0.3,0.5l2.9,1.7c0.1,0.1,0.2,0.1,0.3,0c0.1-0.1,0.1-0.2,0.1-0.3l0-7.6
			c0-0.2-0.1-0.4-0.3-0.5l-4.9-2.8C1190.9,523.8,1190.8,523.8,1190.6,523.8L1190.6,523.8z M1235,523.8c-0.1,0-0.2,0-0.3,0.1
			l-4.9,2.8c-0.2,0.1-0.3,0.3-0.3,0.5v5.7c0,0.2,0.1,0.4,0.3,0.5l4.9,2.8c0.2,0.1,0.4,0.1,0.6,0l3-1.7c0.1-0.1,0.2-0.1,0.2-0.3
			c0-0.1-0.1-0.2-0.1-0.3l-5-2.8c-0.1-0.1-0.2-0.2-0.2-0.3v-1.8c0-0.1,0.1-0.2,0.2-0.3l1.5-0.9c0.1-0.1,0.2-0.1,0.3,0l1.5,0.9
			c0.1,0.1,0.1,0.2,0.1,0.3v1.4c0,0.1,0.1,0.2,0.1,0.3c0.1,0.1,0.2,0.1,0.3,0l3-1.7c0.2-0.1,0.3-0.3,0.3-0.5v-1.4
			c0-0.2-0.1-0.4-0.3-0.5l-4.9-2.8C1235.2,523.9,1235.1,523.8,1235,523.8L1235,523.8z M1220.2,528.1
			C1220.2,528.1,1220.3,528.1,1220.2,528.1l1.8,1c0,0,0.1,0.1,0.1,0.1v2c0,0.1,0,0.1-0.1,0.1l-1.7,1c0,0-0.1,0-0.1,0l-1.7-1
			c0,0-0.1-0.1-0.1-0.1v-2c0-0.1,0-0.1,0.1-0.1L1220.2,528.1C1220.2,528.1,1220.2,528.1,1220.2,528.1L1220.2,528.1z"/>
		<path class="st3" d="M1249.7,523.7c-0.2,0-0.3,0-0.5,0.1l-4.7,2.7c-0.3,0.2-0.5,0.5-0.5,0.8v5.4c0,0.3,0.2,0.7,0.5,0.8l1.2,0.7
			c0.6,0.3,0.8,0.3,1.1,0.3c0.9,0,1.4-0.5,1.4-1.5v-5.3c0-0.1-0.1-0.1-0.1-0.1h-0.6c-0.1,0-0.1,0.1-0.1,0.1v5.3
			c0,0.4-0.4,0.8-1.1,0.5l-1.3-0.7c0,0-0.1-0.1-0.1-0.1v-5.4c0-0.1,0-0.1,0.1-0.1l4.6-2.7c0,0,0.1,0,0.1,0l4.6,2.7
			c0,0,0.1,0.1,0.1,0.1v5.4c0,0.1,0,0.1-0.1,0.1l-4.7,2.7c0,0-0.1,0-0.1,0l-1.2-0.7c0,0-0.1,0-0.1,0c-0.3,0.2-0.4,0.2-0.7,0.3
			c-0.1,0-0.2,0.1,0,0.2l1.6,0.9c0.1,0.1,0.3,0.1,0.5,0.1c0.2,0,0.3,0,0.5-0.1l4.7-2.7c0.3-0.2,0.5-0.5,0.5-0.9v-5.4
			c0-0.3-0.2-0.7-0.5-0.8l-4.7-2.7C1250.1,523.7,1249.9,523.7,1249.7,523.7L1249.7,523.7z M1205.4,523.8c-0.1,0-0.2,0-0.3,0.1
			l-4.9,2.8c-0.2,0.1-0.3,0.3-0.3,0.5v5.7c0,0.2,0.1,0.4,0.3,0.5l4.9,2.8c0.2,0.1,0.4,0.1,0.6,0l4.9-2.8c0.2-0.1,0.3-0.3,0.3-0.5
			v-5.7c0-0.2-0.1-0.4-0.3-0.5l-4.9-2.8C1205.7,523.8,1205.6,523.8,1205.4,523.8L1205.4,523.8z M1256.7,523.8v0.1h0.4v1h0.2v-1h0.4
			v-0.1L1256.7,523.8L1256.7,523.8z M1257.7,523.8v1.2h0.1v-0.8c0-0.1,0-0.1,0-0.1v0l0.3,1h0.2l0.3-1c0,0.1,0,0.1,0,0.2v0.8h0.1
			v-1.2h-0.2l-0.3,1l-0.3-1L1257.7,523.8L1257.7,523.8z M1251,527.5c-1.3,0-2.1,0.6-2.1,1.5c0,1,0.8,1.3,2.1,1.4
			c1.5,0.1,1.6,0.4,1.6,0.7c0,0.5-0.4,0.7-1.4,0.7c-1.2,0-1.5-0.3-1.6-0.9c0-0.1-0.1-0.1-0.1-0.1h-0.6c-0.1,0-0.1,0.1-0.1,0.1
			c0,0.8,0.4,1.7,2.5,1.7c1.5,0,2.3-0.6,2.3-1.6c0-1-0.7-1.3-2.1-1.5c-1.4-0.2-1.6-0.3-1.6-0.6c0-0.3,0.1-0.7,1.2-0.7
			c1,0,1.3,0.2,1.5,0.8c0,0.1,0.1,0.1,0.1,0.1h0.6c0,0,0.1,0,0.1-0.1c0,0,0-0.1,0-0.1C1253.2,528.1,1252.5,527.5,1251,527.5
			L1251,527.5z M1235,528.9C1234.9,528.9,1234.9,528.9,1235,528.9l-1,0.6c0,0-0.1,0.1-0.1,0.1v1.1c0,0,0,0.1,0.1,0.1l0.9,0.5
			c0,0,0.1,0,0.1,0l0.9-0.5c0,0,0.1-0.1,0.1-0.1v-1.1c0,0,0-0.1-0.1-0.1L1235,528.9C1235,528.9,1235,528.9,1235,528.9L1235,528.9z"
			/>
	</g>
	<g class="st1">
		<path class="st2" d="M486.4,642.7c-0.2,0-0.3,0.1-0.3,0.3v7.6c0,0.1-0.1,0.2-0.2,0.2c0,0-0.1,0-0.1,0l-1.2-0.7
			c-0.2-0.1-0.4-0.1-0.6,0l-4.9,2.8c-0.2,0.1-0.3,0.3-0.3,0.5v5.7c0,0.2,0.1,0.4,0.3,0.5l4.9,2.8c0.2,0.1,0.4,0.1,0.6,0l4.9-2.8
			c0.2-0.1,0.3-0.3,0.3-0.5v-14.2c0-0.2-0.1-0.4-0.3-0.5l-2.9-1.6C486.5,642.7,486.4,642.7,486.4,642.7L486.4,642.7z M454.6,649.8
			c-0.1,0-0.2,0-0.3,0.1l-4.9,2.8c-0.2,0.1-0.3,0.3-0.3,0.5l0,7.6c0,0.1,0.1,0.2,0.1,0.3c0.1,0.1,0.2,0.1,0.3,0l2.9-1.7
			c0.2-0.1,0.3-0.3,0.3-0.5v-3.6c0-0.2,0.1-0.4,0.3-0.5l1.2-0.7c0.1-0.1,0.2-0.1,0.3-0.1c0.1,0,0.2,0,0.3,0.1l1.2,0.7
			c0.2,0.1,0.3,0.3,0.3,0.5v3.6c0,0.2,0.1,0.4,0.3,0.5l2.9,1.7c0.1,0.1,0.2,0.1,0.3,0c0.1-0.1,0.1-0.2,0.1-0.3l0-7.6
			c0-0.2-0.1-0.4-0.3-0.5l-4.9-2.8C454.9,649.8,454.8,649.8,454.6,649.8L454.6,649.8z M499,649.8c-0.1,0-0.2,0-0.3,0.1l-4.9,2.8
			c-0.2,0.1-0.3,0.3-0.3,0.5v5.7c0,0.2,0.1,0.4,0.3,0.5l4.9,2.8c0.2,0.1,0.4,0.1,0.6,0l3-1.7c0.1-0.1,0.2-0.1,0.2-0.3
			c0-0.1-0.1-0.2-0.1-0.3l-5-2.8c-0.1-0.1-0.2-0.2-0.2-0.3v-1.8c0-0.1,0.1-0.2,0.2-0.3l1.5-0.9c0.1-0.1,0.2-0.1,0.3,0l1.5,0.9
			c0.1,0.1,0.1,0.2,0.1,0.3v1.4c0,0.1,0.1,0.2,0.1,0.3c0.1,0.1,0.2,0.1,0.3,0l3-1.7c0.2-0.1,0.3-0.3,0.3-0.5v-1.4
			c0-0.2-0.1-0.4-0.3-0.5l-4.9-2.8C499.2,649.9,499.1,649.8,499,649.8L499,649.8z M484.2,654.1C484.2,654.1,484.3,654.1,484.2,654.1
			l1.8,1c0,0,0.1,0.1,0.1,0.1v2c0,0.1,0,0.1-0.1,0.1l-1.7,1c0,0-0.1,0-0.1,0l-1.7-1c0,0-0.1-0.1-0.1-0.1v-2c0-0.1,0-0.1,0.1-0.1
			L484.2,654.1C484.2,654.1,484.2,654.1,484.2,654.1L484.2,654.1z"/>
		<path class="st3" d="M513.7,649.7c-0.2,0-0.3,0-0.5,0.1l-4.7,2.7c-0.3,0.2-0.5,0.5-0.5,0.8v5.4c0,0.3,0.2,0.7,0.5,0.8l1.2,0.7
			c0.6,0.3,0.8,0.3,1.1,0.3c0.9,0,1.4-0.5,1.4-1.5v-5.3c0-0.1-0.1-0.1-0.1-0.1h-0.6c-0.1,0-0.1,0.1-0.1,0.1v5.3
			c0,0.4-0.4,0.8-1.1,0.5l-1.3-0.7c0,0-0.1-0.1-0.1-0.1v-5.4c0-0.1,0-0.1,0.1-0.1l4.6-2.7c0,0,0.1,0,0.1,0l4.6,2.7
			c0,0,0.1,0.1,0.1,0.1v5.4c0,0.1,0,0.1-0.1,0.1l-4.7,2.7c0,0-0.1,0-0.1,0l-1.2-0.7c0,0-0.1,0-0.1,0c-0.3,0.2-0.4,0.2-0.7,0.3
			c-0.1,0-0.2,0.1,0,0.2l1.6,0.9c0.1,0.1,0.3,0.1,0.5,0.1c0.2,0,0.3,0,0.5-0.1l4.7-2.7c0.3-0.2,0.5-0.5,0.5-0.9v-5.4
			c0-0.3-0.2-0.7-0.5-0.8l-4.7-2.7C514.1,649.7,513.9,649.7,513.7,649.7L513.7,649.7z M469.4,649.8c-0.1,0-0.2,0-0.3,0.1l-4.9,2.8
			c-0.2,0.1-0.3,0.3-0.3,0.5v5.7c0,0.2,0.1,0.4,0.3,0.5l4.9,2.8c0.2,0.1,0.4,0.1,0.6,0l4.9-2.8c0.2-0.1,0.3-0.3,0.3-0.5v-5.7
			c0-0.2-0.1-0.4-0.3-0.5l-4.9-2.8C469.7,649.8,469.6,649.8,469.4,649.8L469.4,649.8z M520.7,649.8v0.1h0.4v1h0.2v-1h0.4v-0.1
			L520.7,649.8L520.7,649.8z M521.7,649.8v1.2h0.1v-0.8c0-0.1,0-0.1,0-0.1v0l0.3,1h0.2l0.3-1c0,0.1,0,0.1,0,0.2v0.8h0.1v-1.2h-0.2
			l-0.3,1l-0.3-1L521.7,649.8L521.7,649.8z M515,653.5c-1.3,0-2.1,0.6-2.1,1.5c0,1,0.8,1.3,2.1,1.4c1.5,0.1,1.6,0.4,1.6,0.7
			c0,0.5-0.4,0.7-1.4,0.7c-1.2,0-1.5-0.3-1.6-0.9c0-0.1-0.1-0.1-0.1-0.1h-0.6c-0.1,0-0.1,0.1-0.1,0.1c0,0.8,0.4,1.7,2.5,1.7
			c1.5,0,2.3-0.6,2.3-1.6c0-1-0.7-1.3-2.1-1.5c-1.4-0.2-1.6-0.3-1.6-0.6c0-0.3,0.1-0.7,1.2-0.7c1,0,1.3,0.2,1.5,0.8
			c0,0.1,0.1,0.1,0.1,0.1h0.6c0,0,0.1,0,0.1-0.1c0,0,0-0.1,0-0.1C517.2,654.1,516.5,653.5,515,653.5L515,653.5z M499,654.9
			C498.9,654.9,498.9,654.9,499,654.9l-1,0.6c0,0-0.1,0.1-0.1,0.1v1.1c0,0,0,0.1,0.1,0.1l0.9,0.5c0,0,0.1,0,0.1,0l0.9-0.5
			c0,0,0.1-0.1,0.1-0.1v-1.1c0,0,0-0.1-0.1-0.1L499,654.9C499,654.9,499,654.9,499,654.9L499,654.9z"/>
	</g>
	<g class="st1">
		<path class="st2" d="M703.4,10.7c-0.2,0-0.3,0.1-0.3,0.3v7.6c0,0.1,0,0.1-0.1,0.2c-0.1,0-0.1,0-0.2,0l-1.2-0.7
			c-0.2-0.1-0.4-0.1-0.6,0l-4.9,2.8c-0.2,0.1-0.3,0.3-0.3,0.5v5.7c0,0.2,0.1,0.4,0.3,0.5l4.9,2.8c0.2,0.1,0.4,0.1,0.6,0l4.9-2.8
			c0.2-0.1,0.3-0.3,0.3-0.5V12.9c0-0.2-0.1-0.4-0.3-0.5l-2.9-1.6C703.5,10.7,703.4,10.7,703.4,10.7L703.4,10.7z M671.6,17.8
			c-0.1,0-0.2,0-0.3,0.1l-4.9,2.8c-0.2,0.1-0.3,0.3-0.3,0.5l0,7.6c0,0.1,0.1,0.2,0.1,0.3c0.1,0.1,0.2,0.1,0.3,0l2.9-1.7
			c0.2-0.1,0.3-0.3,0.3-0.5v-3.6c0-0.2,0.1-0.4,0.3-0.5l1.2-0.7c0.2-0.1,0.4-0.1,0.6,0l1.2,0.7c0.2,0.1,0.3,0.3,0.3,0.5v3.6
			c0,0.2,0.1,0.4,0.3,0.5l2.9,1.7c0.1,0.1,0.2,0.1,0.3,0c0.1-0.1,0.1-0.2,0.1-0.3l0-7.6c0-0.2-0.1-0.4-0.3-0.5l-4.9-2.8
			C671.9,17.8,671.8,17.8,671.6,17.8L671.6,17.8L671.6,17.8z M716,17.8c-0.1,0-0.2,0-0.3,0.1l-4.9,2.8c-0.2,0.1-0.3,0.3-0.3,0.5V27
			c0,0.2,0.1,0.4,0.3,0.5l4.9,2.8c0.2,0.1,0.4,0.1,0.6,0l3-1.7c0.1-0.1,0.2-0.1,0.2-0.3c0-0.1-0.1-0.2-0.1-0.3l-5-2.8
			c-0.1-0.1-0.2-0.2-0.2-0.3v-1.8c0-0.1,0.1-0.2,0.2-0.3l1.5-0.9c0.1-0.1,0.2-0.1,0.3,0l1.5,0.9c0.1,0.1,0.1,0.2,0.1,0.3v1.4
			c0,0.2,0.1,0.3,0.3,0.3c0.1,0,0.1,0,0.2,0l3-1.7c0.2-0.1,0.3-0.3,0.3-0.5v-1.4c0-0.2-0.1-0.4-0.3-0.5l-4.9-2.8
			C716.2,17.9,716.1,17.8,716,17.8L716,17.8z M701.2,22.1C701.2,22.1,701.3,22.1,701.2,22.1l1.8,1c0,0,0.1,0.1,0.1,0.1v2
			c0,0.1,0,0.1-0.1,0.1l-1.7,1c0,0-0.1,0-0.1,0l-1.7-1c0,0-0.1-0.1-0.1-0.1v-2c0-0.1,0-0.1,0.1-0.1L701.2,22.1
			C701.2,22.1,701.2,22.1,701.2,22.1z"/>
		<path class="st3" d="M730.7,17.7c-0.2,0-0.3,0-0.5,0.1l-4.7,2.7c-0.3,0.2-0.5,0.5-0.5,0.9v5.4c0,0.3,0.2,0.7,0.5,0.9l1.2,0.7
			c0.6,0.3,0.8,0.3,1.1,0.3c0.9,0,1.4-0.5,1.4-1.5v-5.3c0-0.1-0.1-0.1-0.1-0.1h-0.6c-0.1,0-0.1,0.1-0.1,0.1v5.3
			c0,0.4-0.4,0.8-1.1,0.5l-1.3-0.7c0,0-0.1-0.1-0.1-0.1v-5.4c0,0,0-0.1,0.1-0.1l4.6-2.7c0,0,0.1,0,0.1,0l4.6,2.7
			c0,0,0.1,0.1,0.1,0.1v5.4c0,0.1,0,0.1-0.1,0.1l-4.7,2.7c0,0-0.1,0-0.1,0l-1.2-0.7c0,0-0.1,0-0.1,0c-0.3,0.2-0.4,0.2-0.7,0.3
			c-0.1,0-0.2,0.1,0,0.2l1.6,0.9c0.1,0.1,0.3,0.1,0.5,0.1c0.2,0,0.3,0,0.5-0.1l4.7-2.7c0.3-0.2,0.5-0.5,0.5-0.9v-5.4
			c0-0.3-0.2-0.7-0.5-0.9l-4.7-2.7C731.1,17.7,730.9,17.7,730.7,17.7z M686.4,17.8c-0.1,0-0.2,0-0.3,0.1l-4.9,2.8
			c-0.2,0.1-0.3,0.3-0.3,0.5V27c0,0.2,0.1,0.4,0.3,0.5l4.9,2.8c0.2,0.1,0.4,0.1,0.6,0l4.9-2.8c0.2-0.1,0.3-0.3,0.3-0.5v-5.7
			c0-0.2-0.1-0.4-0.3-0.5l-4.9-2.8C686.7,17.8,686.6,17.8,686.4,17.8z M737.7,17.8V18h0.4v1h0.2v-1h0.4v-0.1L737.7,17.8L737.7,17.8z
			 M738.7,17.8V19h0.1v-0.8c0-0.1,0-0.1,0-0.1v0l0.3,1h0.2l0.3-1c0,0.1,0,0.1,0,0.2V19h0.1v-1.2h-0.2l-0.3,1l-0.3-1L738.7,17.8
			L738.7,17.8z M732,21.5c-1.3,0-2.1,0.6-2.1,1.5c0,1,0.8,1.3,2.1,1.4c1.5,0.1,1.6,0.4,1.6,0.7c0,0.5-0.4,0.7-1.4,0.7
			c-1.2,0-1.5-0.3-1.6-0.9c0-0.1-0.1-0.1-0.1-0.1h-0.6c-0.1,0-0.1,0.1-0.1,0.1c0,0.8,0.4,1.7,2.5,1.7c1.5,0,2.3-0.6,2.3-1.6
			c0-1-0.7-1.3-2.1-1.5c-1.4-0.2-1.6-0.3-1.6-0.6c0-0.3,0.1-0.7,1.2-0.7c1,0,1.3,0.2,1.5,0.9c0,0.1,0.1,0.1,0.1,0.1h0.6
			c0,0,0.1,0,0.1,0c0,0,0-0.1,0-0.1C734.2,22.1,733.5,21.5,732,21.5L732,21.5z M716,22.9C715.9,22.9,715.9,22.9,716,22.9l-1,0.6
			c0,0-0.1,0.1-0.1,0.1v1.1c0,0,0,0.1,0.1,0.1l1,0.5c0,0,0.1,0,0.1,0l0.9-0.5c0,0,0.1-0.1,0.1-0.1v-1.1c0,0,0-0.1-0.1-0.1L716,22.9
			C716,22.9,716,22.9,716,22.9L716,22.9z"/>
	</g>
	<path class="st0" d="M790.3,340.6L790.3,340.6l-5.3,5.2l12.7,12.7l5.2-5.2l7.5-7.5l-5.2-5.2v0L790.3,340.6L790.3,340.6z
		 M464.3,179.6L464.3,179.6l-5.3,5.2l12.7,12.7l5.2-5.2l7.5-7.5l-5.2-5.2v0L464.3,179.6L464.3,179.6z M355.3,327.6L355.3,327.6
		l-5.3,5.2l12.7,12.7l5.2-5.2l7.5-7.5l-5.2-5.2v0L355.3,327.6L355.3,327.6z M1246.3,690.6L1246.3,690.6l-5.3,5.2l12.7,12.7l5.2-5.2
		l7.5-7.5l-5.2-5.2v0L1246.3,690.6L1246.3,690.6z M1360.3,206.6L1360.3,206.6l-5.3,5.2l12.7,12.7l5.2-5.2l7.5-7.5l-5.2-5.2v0
		L1360.3,206.6L1360.3,206.6z M96.3,137.6L96.3,137.6l-5.3,5.2l12.7,12.7l5.2-5.2l7.5-7.5l-5.2-5.2v0L96.3,137.6L96.3,137.6z
		 M654.3,628.6L654.3,628.6l-5.3,5.2l12.7,12.7l5.2-5.2l7.5-7.5l-5.2-5.2v0L654.3,628.6L654.3,628.6z M777,192.2h-5.1l0.4-4.3h-2.5
		l-0.4,4.3h-10.6l-0.4-4.3h-2.5l0.4,4.3H751l-2.9-18.7l7.2-11.5h17.3l7.2,11.5L777,192.2z M771.2,167.6h-4.6l0.3,2.2h-5.8l0.3-2.2
		h-4.6l-2.9,5.8l1.4,11.5h17.3l1.4-11.5L771.2,167.6z M768.7,181.1c-0.4,0-0.7-1.2-0.7-2.7s0.3-2.7,0.7-2.7c0.4,0,0.7,1.2,0.7,2.7
		S769.1,181.1,768.7,181.1z M759.6,181.3c-0.4,0-0.7-1.2-0.7-2.7s0.3-2.7,0.7-2.7c0.4,0,0.7,1.2,0.7,2.7S760,181.3,759.6,181.3z
		 M591,53.2h-5.1l0.4-4.3h-2.5l-0.4,4.3h-10.6l-0.4-4.3h-2.5l0.4,4.3H565l-2.9-18.7l7.2-11.5h17.3l7.2,11.5L591,53.2z M585.2,28.7
		h-4.6l0.3,2.2h-5.8l0.3-2.2h-4.6l-2.9,5.8l1.4,11.5h17.3l1.4-11.5L585.2,28.7z M582.7,42.1c-0.4,0-0.7-1.2-0.7-2.7s0.3-2.7,0.7-2.7
		c0.4,0,0.7,1.2,0.7,2.7S583.1,42.1,582.7,42.1z M573.6,42.3c-0.4,0-0.7-1.2-0.7-2.7s0.3-2.7,0.7-2.7c0.4,0,0.7,1.2,0.7,2.7
		S574,42.3,573.6,42.3z M270,579.2h-5.1l0.4-4.3h-2.5l-0.4,4.3h-10.6l-0.4-4.3h-2.5l0.4,4.3H244l-2.9-18.7l7.2-11.5h17.3l7.2,11.5
		L270,579.2z M264.2,554.7h-4.6l0.3,2.2h-5.8l0.3-2.2h-4.6l-2.9,5.8l1.4,11.5h17.3l1.4-11.5L264.2,554.7z M261.7,568.1
		c-0.4,0-0.7-1.2-0.7-2.7c0-1.5,0.3-2.7,0.7-2.7c0.4,0,0.7,1.2,0.7,2.7C262.4,566.9,262.1,568.1,261.7,568.1z M252.6,568.4
		c-0.4,0-0.7-1.2-0.7-2.7s0.3-2.7,0.7-2.7c0.4,0,0.7,1.2,0.7,2.7C253.3,567.1,253,568.4,252.6,568.4z M1250,616.2h-5.1l0.4-4.3h-2.5
		l-0.4,4.3h-10.6l-0.4-4.3h-2.5l0.4,4.3h-5.1l-2.9-18.7l7.2-11.5h17.3l7.2,11.5L1250,616.2z M1244.2,591.7h-4.6l0.3,2.2h-5.8
		l0.3-2.2h-4.6l-2.9,5.8l1.4,11.5h17.3l1.4-11.5L1244.2,591.7z M1241.7,605.1c-0.4,0-0.7-1.2-0.7-2.7c0-1.5,0.3-2.7,0.7-2.7
		c0.4,0,0.7,1.2,0.7,2.7C1242.4,603.9,1242.1,605.1,1241.7,605.1z M1232.6,605.4c-0.4,0-0.7-1.2-0.7-2.7s0.3-2.7,0.7-2.7
		c0.4,0,0.7,1.2,0.7,2.7C1233.3,604.1,1233,605.4,1232.6,605.4z M820,413.2h-5.1l0.4-4.3h-2.5l-0.4,4.3h-10.6l-0.4-4.3h-2.5l0.4,4.3
		H794l-2.9-18.7l7.2-11.5h17.3l7.2,11.5L820,413.2z M814.2,388.6h-4.6l0.3,2.2h-5.8l0.3-2.2h-4.6l-2.9,5.8l1.4,11.5h17.3l1.4-11.5
		L814.2,388.6z M811.7,402.1c-0.4,0-0.7-1.2-0.7-2.7s0.3-2.7,0.7-2.7c0.4,0,0.7,1.2,0.7,2.7S812.1,402.1,811.7,402.1z M802.6,402.4
		c-0.4,0-0.7-1.2-0.7-2.7s0.3-2.7,0.7-2.7c0.4,0,0.7,1.2,0.7,2.7S803,402.4,802.6,402.4z M531,231.2h-5.1l0.4-4.3h-2.5l-0.4,4.3
		h-10.6l-0.4-4.3h-2.5l0.4,4.3H505l-2.9-18.7l7.2-11.5h17.3l7.2,11.5L531,231.2z M525.2,206.6h-4.6l0.3,2.2h-5.8l0.3-2.2h-4.6
		l-2.9,5.8l1.4,11.5h17.3l1.4-11.5L525.2,206.6z M522.7,220.1c-0.4,0-0.7-1.2-0.7-2.7s0.3-2.7,0.7-2.7c0.4,0,0.7,1.2,0.7,2.7
		S523.1,220.1,522.7,220.1z M513.6,220.3c-0.4,0-0.7-1.2-0.7-2.7s0.3-2.7,0.7-2.7c0.4,0,0.7,1.2,0.7,2.7S514,220.3,513.6,220.3z
		 M215,394.2h-5.1l0.4-4.3h-2.5l-0.4,4.3h-10.6l-0.4-4.3h-2.5l0.4,4.3H189l-2.9-18.7l7.2-11.5h17.3l7.2,11.5L215,394.2z
		 M209.2,369.7h-4.6l0.3,2.2h-5.8l0.3-2.2h-4.6l-2.9,5.8l1.4,11.5h17.3l1.4-11.5L209.2,369.7z M206.7,383.1c-0.4,0-0.7-1.2-0.7-2.7
		s0.3-2.7,0.7-2.7c0.4,0,0.7,1.2,0.7,2.7S207.1,383.1,206.7,383.1z M197.6,383.4c-0.4,0-0.7-1.2-0.7-2.7s0.3-2.7,0.7-2.7
		c0.4,0,0.7,1.2,0.7,2.7S198,383.4,197.6,383.4z M1157.2,482.2v15.1h15.1v-15.1H1157.2z M1165.4,494c0,1.5-0.9,2.1-2.1,2.1
		c-1.1,0-1.8-0.6-2.1-1.3l1.2-0.7c0.2,0.4,0.4,0.7,0.9,0.7c0.5,0,0.8-0.2,0.8-0.9v-4.8h1.4L1165.4,494z M1168.8,496.1
		c-1.3,0-2.2-0.6-2.6-1.5l1.2-0.7c0.3,0.5,0.7,0.9,1.4,0.9c0.6,0,1-0.3,1-0.7c0-0.5-0.4-0.7-1-0.9l-0.4-0.2c-1-0.4-1.7-1-1.7-2.1
		c0-1.1,0.8-1.9,2.1-1.9c0.9,0,1.6,0.3,2,1.1l-1.1,0.7c-0.2-0.4-0.5-0.6-0.9-0.6c-0.4,0-0.7,0.3-0.7,0.6c0,0.4,0.3,0.6,0.9,0.9
		l0.4,0.2c1.2,0.5,1.9,1,1.9,2.2C1171.1,495.4,1170.1,496.1,1168.8,496.1L1168.8,496.1z M659.2,264.2v15.1h15.1v-15.1H659.2z
		 M667.4,276c0,1.5-0.9,2.1-2.1,2.1c-1.1,0-1.8-0.6-2.1-1.3l1.2-0.7c0.2,0.4,0.4,0.7,0.9,0.7c0.5,0,0.8-0.2,0.8-0.9v-4.8h1.4V276z
		 M670.8,278.1c-1.3,0-2.2-0.6-2.6-1.5l1.2-0.7c0.3,0.5,0.7,0.9,1.4,0.9c0.6,0,1-0.3,1-0.7c0-0.5-0.4-0.7-1-0.9l-0.4-0.2
		c-1-0.4-1.7-1-1.7-2.1c0-1.1,0.8-1.9,2.1-1.9c0.9,0,1.6,0.3,2,1.1l-1.1,0.7c-0.2-0.4-0.5-0.6-0.9-0.6c-0.4,0-0.7,0.3-0.7,0.6
		c0,0.4,0.3,0.6,0.9,0.9l0.4,0.2c1.2,0.5,1.9,1,1.9,2.2C673.1,277.4,672.1,278.1,670.8,278.1L670.8,278.1z M315.2,408.2v15.1h15.1
		v-15.1H315.2z M323.4,420c0,1.5-0.9,2.1-2.1,2.1c-1.1,0-1.8-0.6-2.1-1.3l1.2-0.7c0.2,0.4,0.4,0.7,0.9,0.7c0.5,0,0.8-0.2,0.8-0.9
		v-4.8h1.4V420z M326.8,422.1c-1.3,0-2.2-0.6-2.6-1.5l1.2-0.7c0.3,0.5,0.7,0.9,1.4,0.9c0.6,0,1-0.3,1-0.7c0-0.5-0.4-0.7-1-0.9
		l-0.4-0.2c-1-0.4-1.7-1-1.7-2.1c0-1.1,0.8-1.9,2.1-1.9c0.9,0,1.6,0.3,2,1.1l-1.1,0.7c-0.2-0.4-0.5-0.6-0.9-0.6
		c-0.4,0-0.7,0.3-0.7,0.6c0,0.4,0.3,0.6,0.9,0.9l0.4,0.2c1.2,0.5,1.9,1,1.9,2.2C329.1,421.4,328.1,422.1,326.8,422.1L326.8,422.1z
		 M672.3,378.6c-0.7,0-1.2,0.5-1.2,1.2v4.6c0,0.7,0.5,1.2,1.2,1.2s1.2-0.5,1.2-1.2v-4.6C673.5,379.2,672.9,378.6,672.3,378.6z
		 M659.4,378.6c-0.7,0-1.2,0.5-1.2,1.2v4.6c0,0.7,0.6,1.2,1.3,1.2c0.6,0,1.1-0.5,1.2-1.2v-4.6C660.6,379.2,660,378.6,659.4,378.6
		L659.4,378.6z M660.9,386.1c0,0.7,0.5,1.2,1.2,1.2h0.7v2.4c0,0.7,0.6,1.2,1.3,1.2c0.6,0,1.2-0.5,1.2-1.2v-2.4h1.3v2.4
		c0,0.7,0.6,1.2,1.3,1.2c0.6,0,1.1-0.5,1.2-1.2v-2.4h0.7c0.7,0,1.2-0.5,1.2-1.2v-7.3h-9.9L660.9,386.1L660.9,386.1z M670.7,378.5
		c0-1.7-1-3.1-2.4-3.9l0.8-1.4c0.1-0.1,0-0.3-0.1-0.4c0,0-0.1,0-0.1,0c-0.1,0-0.2,0.1-0.2,0.1l-0.8,1.4c-0.6-0.3-1.3-0.4-2-0.4
		s-1.4,0.1-2,0.4L663,373c-0.1-0.1-0.2-0.2-0.4-0.1c-0.1,0.1-0.2,0.2-0.1,0.4c0,0,0,0,0,0l0.8,1.4c-1.4,0.8-2.4,2.3-2.4,3.9l0,0l0,0
		v0.1h9.9L670.7,378.5L670.7,378.5z M663.5,376.6c-0.2,0-0.3-0.1-0.3-0.3c0-0.2,0.1-0.3,0.3-0.3c0,0,0,0,0,0c0.2,0,0.3,0.2,0.3,0.3
		C663.8,376.5,663.7,376.6,663.5,376.6z M668.1,376.6c-0.2,0-0.3-0.1-0.3-0.3c0-0.2,0.1-0.3,0.3-0.3s0.3,0.1,0.3,0.3
		C668.4,376.5,668.2,376.6,668.1,376.6z M60.3,597.6c-0.7,0-1.2,0.5-1.2,1.2v4.6c0,0.7,0.5,1.2,1.2,1.2s1.2-0.5,1.2-1.2v-4.6
		C61.5,598.2,60.9,597.6,60.3,597.6z M47.4,597.6c-0.7,0-1.2,0.5-1.2,1.2v4.6c0,0.7,0.6,1.2,1.3,1.2c0.6,0,1.1-0.5,1.2-1.2v-4.6
		C48.6,598.2,48,597.6,47.4,597.6z M48.9,605.1c0,0.7,0.5,1.2,1.2,1.2h0.7v2.4c0,0.7,0.6,1.2,1.3,1.2c0.6,0,1.2-0.5,1.2-1.2v-2.4
		h1.3v2.4c0,0.7,0.6,1.2,1.3,1.2c0.6,0,1.1-0.5,1.2-1.2v-2.4h0.7c0.7,0,1.2-0.5,1.2-1.2v-7.3h-9.9L48.9,605.1L48.9,605.1z
		 M58.7,597.5c0-1.7-1-3.1-2.4-3.9l0.8-1.4c0.1-0.1,0-0.3-0.1-0.4c-0.1-0.1-0.3,0-0.3,0.1l-0.8,1.4c-0.6-0.3-1.3-0.4-2-0.4
		s-1.4,0.1-2,0.4L51,592c-0.1-0.1-0.2-0.2-0.4-0.1s-0.2,0.2-0.1,0.4c0,0,0,0,0,0l0.8,1.4c-1.4,0.8-2.4,2.3-2.4,3.9l0,0l0,0v0.1h9.9
		L58.7,597.5L58.7,597.5z M51.5,595.6c-0.2,0-0.3-0.1-0.3-0.3c0-0.2,0.1-0.3,0.3-0.3c0,0,0,0,0,0c0.2,0,0.3,0.2,0.3,0.3
		C51.8,595.5,51.7,595.6,51.5,595.6z M56.1,595.6c-0.2,0-0.3-0.1-0.3-0.3s0.1-0.3,0.3-0.3s0.3,0.1,0.3,0.3S56.2,595.6,56.1,595.6
		L56.1,595.6z M332.3,108.6c-0.7,0-1.2,0.5-1.2,1.2v4.6c0,0.7,0.5,1.2,1.2,1.2s1.2-0.5,1.2-1.2v-4.6
		C333.5,109.2,332.9,108.6,332.3,108.6z M319.4,108.6c-0.7,0-1.2,0.5-1.2,1.2v4.6c0,0.7,0.6,1.2,1.3,1.2c0.6,0,1.1-0.5,1.2-1.2v-4.6
		C320.6,109.2,320,108.6,319.4,108.6L319.4,108.6z M320.9,116.1c0,0.7,0.5,1.2,1.2,1.2h0.7v2.4c0,0.7,0.6,1.2,1.3,1.2
		c0.6,0,1.2-0.5,1.2-1.2v-2.4h1.3v2.4c0,0.7,0.6,1.2,1.3,1.2c0.6,0,1.1-0.5,1.2-1.2v-2.4h0.7c0.7,0,1.2-0.5,1.2-1.2v-7.3h-9.9
		L320.9,116.1L320.9,116.1z M330.7,108.5c0-1.7-1-3.1-2.4-3.9l0.8-1.4c0.1-0.1,0-0.3-0.1-0.4c0,0-0.1,0-0.1,0
		c-0.1,0-0.2,0.1-0.2,0.1l-0.8,1.4c-0.6-0.3-1.3-0.4-2-0.4s-1.4,0.1-2,0.4L323,103c-0.1-0.1-0.2-0.2-0.4-0.1s-0.2,0.2-0.1,0.4
		c0,0,0,0,0,0l0.8,1.4c-1.4,0.8-2.4,2.3-2.4,3.9l0,0l0,0v0.1h9.9L330.7,108.5L330.7,108.5z M323.5,106.6c-0.2,0-0.3-0.1-0.3-0.3
		c0-0.2,0.1-0.3,0.3-0.3c0,0,0,0,0,0c0.2,0,0.3,0.2,0.3,0.3C323.8,106.5,323.7,106.6,323.5,106.6z M328.1,106.6
		c-0.2,0-0.3-0.1-0.3-0.3s0.1-0.3,0.3-0.3s0.3,0.1,0.3,0.3S328.2,106.6,328.1,106.6z M885.3,71.6c-0.7,0-1.2,0.5-1.2,1.2v4.6
		c0,0.7,0.5,1.2,1.2,1.2s1.2-0.5,1.2-1.2v-4.6C886.5,72.2,885.9,71.6,885.3,71.6z M872.4,71.6c-0.7,0-1.2,0.5-1.2,1.2v4.6
		c0,0.7,0.6,1.2,1.3,1.2c0.6,0,1.1-0.5,1.2-1.2v-4.6C873.6,72.2,873,71.6,872.4,71.6L872.4,71.6z M873.9,79.1c0,0.7,0.5,1.2,1.2,1.2
		h0.7v2.4c0,0.7,0.6,1.2,1.3,1.2c0.6,0,1.2-0.5,1.2-1.2v-2.4h1.3v2.4c0,0.7,0.6,1.2,1.3,1.2c0.6,0,1.1-0.5,1.2-1.2v-2.4h0.7
		c0.7,0,1.2-0.5,1.2-1.2v-7.3h-9.9L873.9,79.1L873.9,79.1z M883.7,71.5c0-1.7-1-3.1-2.4-3.9l0.8-1.4c0.1-0.1,0-0.3-0.1-0.4
		c0,0-0.1,0-0.1,0c-0.1,0-0.2,0.1-0.2,0.1l-0.8,1.4c-0.6-0.3-1.3-0.4-2-0.4s-1.4,0.1-2,0.4L876,66c-0.1-0.1-0.2-0.2-0.4-0.1
		c-0.1,0.1-0.2,0.2-0.1,0.4c0,0,0,0,0,0l0.8,1.4c-1.4,0.8-2.4,2.3-2.4,3.9l0,0l0,0v0.1h9.9L883.7,71.5L883.7,71.5z M876.5,69.6
		c-0.2,0-0.3-0.1-0.3-0.3c0-0.2,0.1-0.3,0.3-0.3c0,0,0,0,0,0c0.2,0,0.3,0.2,0.3,0.3C876.8,69.5,876.7,69.6,876.5,69.6z M881.1,69.6
		c-0.2,0-0.3-0.1-0.3-0.3s0.1-0.3,0.3-0.3s0.3,0.1,0.3,0.3S881.2,69.6,881.1,69.6L881.1,69.6z M1236.3,333.6c-0.7,0-1.2,0.5-1.2,1.2
		v4.6c0,0.7,0.5,1.2,1.2,1.2s1.2-0.5,1.2-1.2v-4.6C1237.5,334.2,1236.9,333.6,1236.3,333.6z M1223.4,333.6c-0.7,0-1.2,0.5-1.2,1.2
		v4.6c0,0.7,0.6,1.2,1.3,1.2c0.6,0,1.1-0.5,1.2-1.2v-4.6C1224.6,334.2,1224,333.6,1223.4,333.6L1223.4,333.6z M1224.9,341.1
		c0,0.7,0.5,1.2,1.2,1.2h0.7v2.4c0,0.7,0.6,1.2,1.3,1.2c0.6,0,1.2-0.5,1.2-1.2v-2.4h1.3v2.4c0,0.7,0.6,1.2,1.3,1.2
		c0.6,0,1.1-0.5,1.2-1.2v-2.4h0.7c0.7,0,1.2-0.5,1.2-1.2v-7.3h-9.9L1224.9,341.1L1224.9,341.1z M1234.7,333.5c0-1.7-1-3.1-2.4-3.9
		l0.8-1.4c0.1-0.1,0-0.3-0.1-0.4c0,0-0.1,0-0.1,0c-0.1,0-0.2,0.1-0.2,0.1l-0.8,1.4c-0.6-0.3-1.3-0.4-2-0.4s-1.4,0.1-2,0.4l-0.8-1.4
		c-0.1-0.1-0.2-0.2-0.4-0.1c-0.1,0.1-0.2,0.2-0.1,0.4c0,0,0,0,0,0l0.8,1.4c-1.4,0.8-2.4,2.3-2.4,3.9l0,0l0,0v0.1h9.9L1234.7,333.5
		L1234.7,333.5z M1227.5,331.6c-0.2,0-0.3-0.1-0.3-0.3c0-0.2,0.1-0.3,0.3-0.3c0,0,0,0,0,0c0.2,0,0.3,0.2,0.3,0.3
		C1227.8,331.5,1227.7,331.6,1227.5,331.6z M1232.1,331.6c-0.2,0-0.3-0.1-0.3-0.3c0-0.2,0.1-0.3,0.3-0.3s0.3,0.1,0.3,0.3
		C1232.4,331.5,1232.2,331.6,1232.1,331.6z M979.3,639.6c-0.7,0-1.2,0.5-1.2,1.2v4.6c0,0.7,0.5,1.2,1.2,1.2s1.2-0.5,1.2-1.2v-4.6
		C980.5,640.2,979.9,639.6,979.3,639.6z M966.4,639.6c-0.7,0-1.2,0.5-1.2,1.2v4.6c0,0.7,0.6,1.2,1.3,1.2c0.6,0,1.1-0.5,1.2-1.2v-4.6
		C967.6,640.2,967,639.6,966.4,639.6L966.4,639.6z M967.9,647.1c0,0.7,0.5,1.2,1.2,1.2h0.7v2.4c0,0.7,0.6,1.2,1.3,1.2
		c0.6,0,1.2-0.5,1.2-1.2v-2.4h1.3v2.4c0,0.7,0.6,1.2,1.3,1.2c0.6,0,1.1-0.5,1.2-1.2v-2.4h0.7c0.7,0,1.2-0.5,1.2-1.2v-7.3h-9.9
		L967.9,647.1L967.9,647.1z M977.7,639.5c0-1.7-1-3.1-2.4-3.9l0.8-1.4c0.1-0.1,0-0.3-0.1-0.4c-0.1-0.1-0.3,0-0.3,0.1l-0.8,1.4
		c-0.6-0.3-1.3-0.4-2-0.4s-1.4,0.1-2,0.4L970,634c-0.1-0.1-0.2-0.2-0.4-0.1c-0.1,0.1-0.2,0.2-0.1,0.4c0,0,0,0,0,0l0.8,1.4
		c-1.4,0.8-2.4,2.3-2.4,3.9l0,0l0,0v0.1h9.9L977.7,639.5L977.7,639.5z M970.5,637.6c-0.2,0-0.3-0.1-0.3-0.3c0-0.2,0.1-0.3,0.3-0.3
		c0,0,0,0,0,0c0.2,0,0.3,0.1,0.3,0.3C970.8,637.5,970.7,637.6,970.5,637.6z M975.1,637.6c-0.2,0-0.3-0.1-0.3-0.3s0.1-0.3,0.3-0.3
		s0.3,0.1,0.3,0.3S975.2,637.6,975.1,637.6z"/>
	<g class="st1">
		<path class="st3" d="M935.7,480.1h1v1h1v-1h1v3.1h-1v-1h-1v1h-1V480.1z M940.2,481.2h-0.9v-1h2.9v1h-0.9v2.1h-1V481.2z
			 M942.6,480.1h1.1l0.7,1.1l0.7-1.1h1.1v3.1h-1v-1.6l-0.7,1.1h0l-0.7-1.1v1.6h-1L942.6,480.1z M946.6,480.1h1v2.1h1.5v1h-2.5V480.1
			z"/>
		<path class="st2" d="M934.2,484.7l1.5,16.8l6.7,1.9l6.7-1.9l1.5-16.8H934.2z M947.5,488.7l-0.1,1l0,0.5h-7.9l0.2,2.1h7.5l-0.1,0.6
			l-0.5,5.4l0,0.3l-4.2,1.2v0l0,0l-4.2-1.2l-0.3-3.2h2.1l0.1,1.6l2.3,0.6h0l2.3-0.6l0.2-2.7h-7.1l-0.5-5.7l0-0.6h10.3L947.5,488.7z"
			/>
	</g>
	<g class="st1">
		<path class="st3" d="M587.7,446.1h1v1h1v-1h1v3.1h-1v-1h-1v1h-1V446.1z M592.2,447.2h-0.9v-1h2.9v1h-0.9v2.1h-1V447.2z
			 M594.6,446.1h1.1l0.7,1.1l0.7-1.1h1.1v3.1h-1v-1.6l-0.7,1.1h0l-0.7-1.1v1.6h-1L594.6,446.1z M598.6,446.1h1v2.1h1.5v1h-2.5V446.1
			z"/>
		<path class="st2" d="M586.2,450.7l1.5,16.8l6.7,1.9l6.7-1.9l1.5-16.8H586.2z M599.5,454.7l-0.1,1l0,0.5h-7.9l0.2,2.1h7.5l-0.1,0.6
			l-0.5,5.4l0,0.3l-4.2,1.2v0l0,0l-4.2-1.2l-0.3-3.2h2.1l0.1,1.6l2.3,0.6h0l2.3-0.6l0.2-2.7h-7.1l-0.5-5.7l0-0.6h10.3L599.5,454.7z"
			/>
	</g>
	<g class="st1">
		<path class="st3" d="M1185.7,127.1h1v1h1v-1h1v3.1h-1v-1h-1v1h-1V127.1z M1190.2,128.2h-0.9v-1h2.9v1h-0.9v2.1h-1L1190.2,128.2z
			 M1192.6,127.1h1.1l0.7,1.1l0.7-1.1h1.1v3.1h-1v-1.6l-0.7,1.1h0l-0.7-1.1v1.6h-1L1192.6,127.1z M1196.6,127.1h1v2.1h1.5v1h-2.5
			V127.1z"/>
		<path class="st2" d="M1184.2,131.7l1.5,16.8l6.7,1.9l6.7-1.9l1.5-16.8L1184.2,131.7z M1197.5,135.7l-0.1,1l0,0.5h-7.9l0.2,2.1h7.5
			l-0.1,0.6l-0.5,5.4l0,0.3l-4.2,1.2v0l0,0l-4.2-1.2l-0.3-3.2h2.1l0.1,1.6l2.3,0.6h0l2.3-0.6l0.2-2.7h-7.1l-0.5-5.7l0-0.6h10.3
			L1197.5,135.7z"/>
	</g>
	<g class="st1">
		<path class="st3" d="M105.7,359.1h1v1h1v-1h1v3.1h-1v-1h-1v1h-1V359.1z M110.2,360.2h-0.9v-1h2.9v1h-0.9v2.1h-1L110.2,360.2z
			 M112.6,359.1h1.1l0.7,1.1l0.7-1.1h1.1v3.1h-1v-1.6l-0.7,1.1h0l-0.7-1.1v1.6h-1L112.6,359.1z M116.6,359.1h1v2.1h1.5v1h-2.5V359.1
			z"/>
		<path class="st2" d="M104.2,363.7l1.5,16.8l6.7,1.9l6.7-1.9l1.5-16.8H104.2z M117.5,367.7l-0.1,1l0,0.5h-7.9l0.2,2.1h7.5l-0.1,0.6
			l-0.5,5.4l0,0.3l-4.2,1.2v0l0,0l-4.2-1.2l-0.3-3.2h2.1l0.1,1.6l2.3,0.6h0l2.3-0.6l0.2-2.7h-7.1l-0.5-5.7l0-0.6h10.3L117.5,367.7z"
			/>
	</g>
	<g class="st1">
		<path class="st3" d="M234.7,100.1h1v1h1v-1h1v3.1h-1v-1h-1v1h-1V100.1z M239.2,101.2h-0.9v-1h2.9v1h-0.9v2.1h-1V101.2z
			 M241.6,100.1h1.1l0.7,1.1l0.7-1.1h1.1v3.1h-1v-1.6l-0.7,1.1h0l-0.7-1.1v1.6h-1V100.1z M245.6,100.1h1v2.1h1.5v1h-2.5V100.1z"/>
		<path class="st2" d="M233.2,104.7l1.5,16.8l6.7,1.9l6.7-1.9l1.5-16.8H233.2z M246.5,108.7l-0.1,1l0,0.5h-7.9l0.2,2.1h7.5l-0.1,0.6
			l-0.5,5.4l0,0.3l-4.2,1.2v0l0,0l-4.2-1.2l-0.3-3.2h2.1l0.1,1.6l2.3,0.6h0l2.3-0.6l0.2-2.7h-7.1l-0.5-5.7l0-0.6h10.3L246.5,108.7z"
			/>
	</g>
	<path class="st0" d="M895.8,281.9c0,0.2-0.1,0.4-0.4,0.4c-0.2,0-0.3-0.2-0.3-0.4c0-0.2,0.2-0.4,0.3-0.4
		C895.6,281.5,895.8,281.7,895.8,281.9z M895.3,293.2v-8.6h0.4v8.6H895.3z M907.4,287.1c0,4.4-2.4,6.3-5.1,6.3
		c-2.7,0-4.9-2.1-4.9-6.2c0-4.1,2.3-6.3,5.1-6.3C905.3,280.9,907.4,283.1,907.4,287.1z M897.8,287.1c0,3.3,1.6,5.9,4.5,5.9
		c3,0,4.7-2.6,4.7-5.9c0-3-1.4-5.8-4.5-5.8C899.4,281.3,897.8,283.9,897.8,287.1L897.8,287.1z M908.7,292.3c0.6,0.4,1.6,0.8,2.5,0.8
		c1.7,0,3.2-1.2,3.2-2.9c0-1.6-1-2.4-2.7-3.1c-1.5-0.6-2.9-1.3-2.9-3c0-1.8,1.4-3,3.3-3c1,0,1.8,0.3,2.2,0.5l-0.1,0.3
		c-0.3-0.2-1.1-0.5-2-0.5c-2,0-2.9,1.5-2.9,2.6c0,1.5,1.2,2.1,2.7,2.8c1.8,0.9,2.8,1.7,2.8,3.3c0,1.8-1.3,3.3-3.6,3.3
		c-1,0-2.1-0.3-2.6-0.7L908.7,292.3z M704.8,557.9c0,0.2-0.1,0.4-0.4,0.4c-0.2,0-0.3-0.2-0.3-0.4c0-0.2,0.2-0.4,0.3-0.4
		C704.6,557.5,704.8,557.7,704.8,557.9z M704.3,569.2v-8.6h0.4v8.6H704.3z M716.4,563.1c0,4.4-2.4,6.3-5.1,6.3
		c-2.7,0-4.9-2.1-4.9-6.2c0-4.1,2.3-6.3,5.1-6.3C714.3,556.9,716.4,559.1,716.4,563.1z M706.8,563.1c0,3.3,1.6,5.9,4.5,5.9
		c3,0,4.7-2.6,4.7-5.9c0-3-1.4-5.8-4.5-5.8C708.4,557.3,706.8,559.9,706.8,563.1L706.8,563.1z M717.7,568.3c0.6,0.4,1.6,0.8,2.5,0.8
		c1.7,0,3.2-1.2,3.2-2.9c0-1.6-1-2.4-2.7-3.1c-1.5-0.6-2.9-1.3-2.9-3c0-1.8,1.4-3,3.3-3c1,0,1.8,0.3,2.2,0.5l-0.1,0.3
		c-0.3-0.2-1.1-0.5-2-0.5c-2,0-2.9,1.5-2.9,2.6c0,1.5,1.2,2.1,2.7,2.8c1.8,0.9,2.8,1.7,2.8,3.3c0,1.8-1.3,3.3-3.6,3.3
		c-1,0-2.1-0.3-2.6-0.7L717.7,568.3z M474.8,474.9c0,0.2-0.1,0.4-0.4,0.4c-0.2,0-0.3-0.2-0.3-0.4c0-0.2,0.1-0.4,0.3-0.4
		C474.6,474.5,474.8,474.7,474.8,474.9z M474.3,486.2v-8.6h0.4v8.6H474.3z M486.4,480.1c0,4.4-2.4,6.3-5.1,6.3
		c-2.7,0-4.9-2.1-4.9-6.2c0-4.1,2.3-6.3,5.1-6.3C484.3,473.9,486.4,476.1,486.4,480.1L486.4,480.1z M476.8,480.1
		c0,3.3,1.6,5.9,4.5,5.9c3,0,4.7-2.6,4.7-5.9c0-3-1.4-5.8-4.5-5.8C478.4,474.3,476.8,476.9,476.8,480.1z M487.7,485.3
		c0.6,0.4,1.6,0.8,2.5,0.8c1.7,0,3.2-1.2,3.2-2.9c0-1.6-1-2.4-2.7-3.1c-1.5-0.6-2.9-1.3-2.9-3c0-1.8,1.4-3,3.3-3
		c1,0,1.8,0.3,2.2,0.5l-0.1,0.3c-0.3-0.2-1.1-0.5-2-0.5c-2,0-2.9,1.5-2.9,2.6c0,1.5,1.2,2.1,2.7,2.8c1.8,0.9,2.8,1.7,2.8,3.3
		c0,1.8-1.3,3.3-3.6,3.3c-1,0-2.1-0.3-2.6-0.7L487.7,485.3z M338.8,227.9c0,0.2-0.1,0.4-0.4,0.4c-0.2,0-0.3-0.2-0.3-0.4
		c0-0.2,0.1-0.4,0.3-0.4C338.6,227.5,338.8,227.7,338.8,227.9z M338.3,239.2v-8.6h0.4v8.6H338.3z M350.4,233.1
		c0,4.4-2.4,6.3-5.1,6.3c-2.7,0-4.9-2.1-4.9-6.2c0-4.1,2.3-6.3,5.1-6.3C348.3,226.9,350.4,229.1,350.4,233.1L350.4,233.1z
		 M340.8,233.1c0,3.3,1.6,5.9,4.5,5.9c3,0,4.7-2.6,4.7-5.9c0-3-1.4-5.8-4.5-5.8C342.4,227.3,340.8,229.9,340.8,233.1L340.8,233.1z
		 M351.7,238.3c0.6,0.4,1.6,0.8,2.5,0.8c1.7,0,3.2-1.2,3.2-2.9c0-1.6-1-2.4-2.7-3.1c-1.5-0.6-2.9-1.3-2.9-3c0-1.8,1.4-3,3.3-3
		c1,0,1.8,0.3,2.2,0.5l-0.1,0.3c-0.3-0.2-1.1-0.5-2-0.5c-2,0-2.9,1.5-2.9,2.6c0,1.5,1.2,2.1,2.7,2.8c1.8,0.9,2.8,1.7,2.8,3.3
		c0,1.8-1.3,3.3-3.6,3.3c-1,0-2.1-0.3-2.6-0.7L351.7,238.3z M86.8,9.9c0,0.2-0.1,0.4-0.4,0.4c-0.2,0-0.3-0.2-0.3-0.4
		c0-0.2,0.2-0.4,0.3-0.4C86.6,9.5,86.8,9.7,86.8,9.9z M86.3,21.2v-8.6h0.4v8.6H86.3z M98.4,15.1c0,4.4-2.4,6.3-5.1,6.3
		c-2.7,0-4.9-2.1-4.9-6.2c0-4.1,2.3-6.3,5.1-6.3C96.3,8.9,98.4,11.1,98.4,15.1z M88.8,15.1c0,3.3,1.6,5.9,4.5,5.9
		c3,0,4.7-2.6,4.7-5.9c0-3-1.4-5.8-4.5-5.8C90.4,9.3,88.8,11.9,88.8,15.1z M99.7,20.3c0.6,0.4,1.6,0.8,2.5,0.8
		c1.7,0,3.2-1.2,3.2-2.9c0-1.6-1-2.4-2.7-3.1c-1.5-0.6-2.9-1.3-2.9-3c0-1.8,1.4-3,3.3-3c1,0,1.8,0.3,2.2,0.5l-0.1,0.3
		c-0.3-0.2-1.1-0.5-2-0.5c-2,0-2.9,1.5-2.9,2.6c0,1.5,1.2,2.1,2.7,2.8c1.8,0.9,2.8,1.7,2.8,3.3c0,1.8-1.3,3.3-3.6,3.3
		c-1,0-2.1-0.3-2.6-0.7L99.7,20.3z M1069.8,49.9c0,0.2-0.1,0.4-0.4,0.4c-0.2,0-0.3-0.2-0.3-0.4c0-0.2,0.2-0.4,0.3-0.4
		C1069.6,49.5,1069.8,49.7,1069.8,49.9L1069.8,49.9z M1069.3,61.2v-8.6h0.4v8.6H1069.3z M1081.4,55.1c0,4.4-2.4,6.3-5.1,6.3
		c-2.7,0-4.9-2.1-4.9-6.2c0-4.1,2.3-6.3,5.1-6.3C1079.3,48.9,1081.4,51.1,1081.4,55.1L1081.4,55.1z M1071.8,55.1
		c0,3.3,1.6,5.9,4.5,5.9c3,0,4.7-2.6,4.7-5.9c0-3-1.4-5.8-4.5-5.8C1073.4,49.3,1071.8,51.9,1071.8,55.1z M1082.7,60.3
		c0.6,0.4,1.6,0.8,2.5,0.8c1.7,0,3.2-1.2,3.2-2.9c0-1.6-1-2.4-2.7-3.1c-1.5-0.6-2.9-1.3-2.9-3c0-1.8,1.4-3,3.3-3
		c1,0,1.8,0.3,2.2,0.5l-0.1,0.3c-0.3-0.2-1.1-0.5-2-0.5c-2,0-2.9,1.5-2.9,2.6c0,1.5,1.2,2.1,2.7,2.8c1.8,0.9,2.8,1.7,2.8,3.3
		c0,1.8-1.3,3.3-3.6,3.3c-1,0-2.1-0.3-2.6-0.7L1082.7,60.3z M1022.8,619.9c0,0.2-0.1,0.4-0.4,0.4c-0.2,0-0.3-0.2-0.3-0.4
		c0-0.2,0.2-0.4,0.3-0.4C1022.6,619.5,1022.8,619.7,1022.8,619.9z M1022.3,631.2v-8.6h0.4v8.6H1022.3z M1034.4,625.1
		c0,4.4-2.4,6.3-5.1,6.3c-2.7,0-4.9-2.1-4.9-6.2c0-4.1,2.3-6.3,5.1-6.3C1032.3,618.9,1034.4,621.1,1034.4,625.1L1034.4,625.1z
		 M1024.8,625.1c0,3.3,1.6,5.9,4.5,5.9c3,0,4.7-2.6,4.7-5.9c0-3-1.4-5.8-4.5-5.8C1026.4,619.3,1024.8,621.9,1024.8,625.1z
		 M1035.7,630.3c0.6,0.4,1.6,0.8,2.5,0.8c1.7,0,3.2-1.2,3.2-2.9c0-1.6-1-2.4-2.7-3.1c-1.5-0.6-2.9-1.3-2.9-3c0-1.8,1.4-3,3.3-3
		c1,0,1.8,0.3,2.2,0.5l-0.1,0.3c-0.3-0.2-1.1-0.5-2-0.5c-2,0-2.9,1.5-2.9,2.6c0,1.5,1.2,2.1,2.7,2.8c1.8,0.9,2.8,1.7,2.8,3.3
		c0,1.8-1.3,3.3-3.6,3.3c-1,0-2.1-0.3-2.6-0.7L1035.7,630.3z"/>
</g>
<g class="st1">
	<path class="st2" d="M401.8,75.5c-0.8,0-1.4,0.6-1.4,1.4c0,0.8,0.6,1.4,1.4,1.4c0.8,0,1.4-0.6,1.4-1.4
		C403.2,76.1,402.6,75.5,401.8,75.5z M402.2,76.8c-0.3,0-0.5-0.2-0.5-0.5c0-0.3,0.2-0.5,0.5-0.5s0.5,0.2,0.5,0.5
		C402.6,76.6,402.4,76.8,402.2,76.8z"/>
	<path class="st2" d="M411.1,75.5c-0.8,0-1.4,0.6-1.4,1.4c0,0.8,0.6,1.4,1.4,1.4s1.4-0.6,1.4-1.4C412.6,76.1,411.9,75.5,411.1,75.5z
		 M410.7,76.8c-0.3,0-0.5-0.2-0.5-0.5c0-0.3,0.2-0.5,0.5-0.5s0.5,0.2,0.5,0.5C411.2,76.6,411,76.8,410.7,76.8z"/>
	<path class="st4" d="M398.4,99.1c0.8-1.1,1.4-0.3,2.5,0.3c0.5,0.3-0.9,1.2-2.4,0.5C398.1,99.7,398.1,99.4,398.4,99.1z"/>
	<path class="st4" d="M414.5,99c-0.8-1.1-1.4-0.3-2.5,0.3c-0.5,0.3,0.9,1.2,2.4,0.5C414.8,99.6,414.8,99.3,414.5,99z"/>
	<path class="st2" d="M418.9,71.9c-0.8-1.7-2.9-0.2-3.4-0.7c-2.6-2.7-5.8-3.4-8.4-3.5c0,0-1.1,0-1.4,0c-2.5,0.1-5.7,0.8-8.4,3.5
		c-0.5,0.5-2.6-1-3.4,0.7c-1,2,2,2.2,1.8,3.1c-0.3,1.6-0.1,4,0.1,6.4c0.2,1.9-0.4,5-0.4,8.2c-0.5,0.1-0.9,0.9-0.9,1.6
		c0,0.3,0.1,0.6,0.2,0.9c0.2,0.3,0.5,0.4,0.8,0.4v-0.3c0.3,2.5,1.3,4.7,3.4,6.3c0.4,0,0.9,0.4,1.5,0.7c1.5,0.4,3.9,0.7,6,0.7h0h0
		c1.9,0,3.9-0.3,5.3-0.6c0,0,0-0.1,0.1-0.1c0.8-0.4,1.3-0.9,1.9-0.8c2.7-2,3.4-5.2,3.5-8.4c0.3,0,0.5-0.2,0.7-0.4
		c0.1-0.2,0.2-0.5,0.2-0.9c0-0.8-0.4-1.6-1-1.6c-0.2-2.3-0.4-4.3-0.3-5.7c0.2-2.4,0.4-4.7,0.1-6.4C416.9,74.1,419.9,73.9,418.9,71.9
		z M395.3,91.8c-0.1-0.1-0.1-0.4-0.1-0.6c0-0.5,0.2-1,0.4-1.1c0,0.6,0.1,1.3,0.1,1.9C395.5,92,395.4,91.9,395.3,91.8z M396,73.3
		c-0.1,0.3-1.1-0.4-0.7-1c0.4-0.5,1-0.3,1.1-0.1C396.4,72.5,396.1,72.4,396,73.3z M398.3,76.8c0.3-2.6,2.5-3.8,3.8-3.6
		c4.2,0.5,3.6,4.9,2,6.3C401.1,82.1,397.9,79.4,398.3,76.8z M409,81.6c-0.1,0.5-0.7,0.8-1.5,0.9c0,0,0,0,0,0
		c0.1,0.1,0.1,0.3,0.1,0.5c0,0,0,0,0,0c0,0,0,0,0,0.1c0,0,0,0,0,0c0,0,0,0,0,0c0,0,0,0,0,0c0,0,0,0,0,0c0,0,0,0,0,0c0,0,0,0,0,0
		c0,0,0,0,0,0c0,0,0,0,0,0c0,0,0,0,0,0c0,0,0,0,0,0c0,0,0,0,0,0c0,0,0,0,0,0c0,0,0,0,0,0c0,0,0,0,0,0c0,0-0.1,0-0.1,0.1
		c-0.3,0.2-1.3,0-1.7,0c0,0-0.1,0-0.1,0c0,0,0,0,0,0c0,0,0,0-0.1,0c0,0,0,0,0,0c0,0,0,0,0,0c0,0,0,0,0,0c0,0,0,0,0-0.1c0,0,0,0,0,0
		c0-0.1,0-0.1-0.1-0.2c0,0,0,0,0,0c0,0,0-0.1,0-0.1c0,0,0,0,0,0c0,0,0,0,0-0.1c0,0,0,0,0,0c0,0,0,0,0-0.1c0,0,0,0,0,0c0,0,0,0,0-0.1
		c0,0,0-0.1,0-0.1c0,0,0,0,0,0c0,0,0,0,0-0.1c0,0,0,0,0,0c0,0,0,0,0-0.1c0,0,0,0,0,0c0,0,0,0,0-0.1c-0.7-0.2-1.2-0.5-1.3-0.9
		c-0.1-0.7,0.3-1.2,1.5-1.6c-0.1,0.1-0.1,0.2-0.2,0.4c-0.3,1.2,2.7,1,2.7,0.3c0-0.2-0.1-0.5-0.4-0.7C408.3,80.3,409.1,80.9,409,81.6
		z M408.8,79.4c-1.6-1.4-2.2-5.8,2-6.3c1.3-0.2,3.5,1.1,3.8,3.6C415,79.4,411.8,82.1,408.8,79.4z M417.7,88.8c0,0.2,0,0.5-0.1,0.6
		c-0.1,0.1-0.1,0.1-0.2,0.2c0-0.6,0-1.3-0.1-1.9C417.5,87.7,417.7,88.2,417.7,88.8z M416.9,73.3c-0.1-0.8-0.5-0.8-0.4-1
		c0.1-0.3,0.7-0.4,1.1,0.1C418.1,72.8,417,73.6,416.9,73.3z"/>
</g>
<g class="st1">
	<path class="st2" d="M211.2,494.9c-0.8,0-1.4,0.6-1.4,1.4s0.6,1.4,1.4,1.4c0.8,0,1.4-0.6,1.4-1.4S212,494.9,211.2,494.9z
		 M211.5,496.2c-0.3,0-0.5-0.2-0.5-0.5s0.2-0.5,0.5-0.5s0.5,0.2,0.5,0.5S211.8,496.2,211.5,496.2z"/>
	<path class="st2" d="M220.5,494.9c-0.8,0-1.4,0.6-1.4,1.4s0.6,1.4,1.4,1.4s1.4-0.6,1.4-1.4S221.3,494.9,220.5,494.9z M220.1,496.2
		c-0.3,0-0.5-0.2-0.5-0.5s0.2-0.5,0.5-0.5s0.5,0.2,0.5,0.5S220.4,496.2,220.1,496.2z"/>
	<path class="st4" d="M207.7,518.5c0.8-1.1,1.4-0.3,2.5,0.3c0.5,0.3-0.9,1.2-2.4,0.5C207.5,519.1,207.5,518.9,207.7,518.5z"/>
	<path class="st4" d="M223.9,518.4c-0.8-1.1-1.4-0.3-2.5,0.3c-0.5,0.3,0.9,1.2,2.4,0.5C224.2,519,224.2,518.8,223.9,518.4z"/>
	<path class="st2" d="M228.3,491.4c-0.8-1.7-2.9-0.2-3.4-0.7c-2.6-2.7-5.8-3.4-8.4-3.5c0,0-1.1,0-1.4,0c-2.5,0.1-5.7,0.8-8.4,3.5
		c-0.5,0.5-2.6-1-3.4,0.7c-1,2,2,2.2,1.8,3.1c-0.3,1.6-0.1,4,0.1,6.4c0.2,1.9-0.4,5-0.4,8.2c-0.5,0.1-0.9,0.9-0.9,1.6
		c0,0.3,0.1,0.6,0.2,0.9c0.2,0.3,0.5,0.4,0.8,0.4v-0.3c0.3,2.5,1.3,4.7,3.4,6.3c0.4,0,0.9,0.4,1.5,0.7c1.5,0.4,3.9,0.7,6,0.7h0h0
		c1.9,0,3.9-0.3,5.3-0.6c0,0,0-0.1,0.1-0.1c0.8-0.4,1.3-0.9,1.9-0.8c2.7-2,3.4-5.2,3.5-8.4c0.3,0,0.5-0.2,0.7-0.4
		c0.1-0.2,0.2-0.5,0.2-0.9c0-0.8-0.4-1.6-1-1.6c-0.2-2.3-0.4-4.3-0.3-5.7c0.2-2.4,0.4-4.7,0.1-6.4
		C226.3,493.6,229.3,493.4,228.3,491.4z M204.7,511.3c-0.1-0.1-0.1-0.4-0.1-0.6c0-0.5,0.2-1,0.4-1.1c0,0.6,0.1,1.3,0.1,1.9
		C204.9,511.5,204.8,511.4,204.7,511.3z M205.3,492.7c-0.1,0.3-1.1-0.4-0.7-1c0.4-0.5,1-0.3,1.1-0.1
		C205.8,491.9,205.5,491.9,205.3,492.7z M207.6,496.2c0.3-2.6,2.5-3.8,3.8-3.6c4.2,0.5,3.6,4.9,2,6.3
		C210.4,501.5,207.3,498.9,207.6,496.2z M218.4,501.1c-0.1,0.5-0.7,0.8-1.5,0.9c0,0,0,0,0,0c0.1,0.1,0.1,0.3,0.1,0.5c0,0,0,0,0,0
		c0,0,0,0,0,0.1c0,0,0,0,0,0c0,0,0,0,0,0c0,0,0,0,0,0c0,0,0,0,0,0c0,0,0,0,0,0c0,0,0,0,0,0c0,0,0,0,0,0c0,0,0,0,0,0c0,0,0,0,0,0
		c0,0,0,0,0,0c0,0,0,0,0,0c0,0,0,0,0,0c0,0,0,0,0,0c0,0,0,0,0,0c0,0-0.1,0-0.1,0.1c-0.3,0.2-1.3,0-1.7,0c0,0-0.1,0-0.1,0
		c0,0,0,0,0,0c0,0,0,0-0.1,0c0,0,0,0,0,0c0,0,0,0,0,0c0,0,0,0,0,0c0,0,0,0,0-0.1c0,0,0,0,0,0c0-0.1,0-0.1-0.1-0.2c0,0,0,0,0,0
		c0,0,0-0.1,0-0.1c0,0,0,0,0,0c0,0,0,0,0-0.1c0,0,0,0,0,0c0,0,0,0,0-0.1c0,0,0,0,0,0c0,0,0,0,0-0.1c0,0,0-0.1,0-0.1c0,0,0,0,0,0
		c0,0,0,0,0-0.1c0,0,0,0,0,0c0,0,0,0,0-0.1c0,0,0,0,0,0c0,0,0,0,0-0.1c-0.7-0.2-1.2-0.5-1.3-0.9c-0.1-0.7,0.3-1.2,1.5-1.6
		c-0.1,0.1-0.1,0.2-0.2,0.4c-0.3,1.2,2.7,1,2.7,0.3c0-0.2-0.1-0.5-0.4-0.7C217.6,499.7,218.5,500.4,218.4,501.1z M218.2,498.9
		c-1.6-1.4-2.2-5.8,2-6.3c1.3-0.2,3.5,1.1,3.8,3.6C224.4,498.9,221.2,501.5,218.2,498.9z M227.1,508.2c0,0.2,0,0.5-0.1,0.6
		c-0.1,0.1-0.1,0.1-0.2,0.2c0-0.6,0-1.3-0.1-1.9C226.8,507.1,227.1,507.7,227.1,508.2z M226.3,492.7c-0.1-0.8-0.5-0.8-0.4-1
		c0.1-0.3,0.7-0.4,1.1,0.1C227.5,492.3,226.4,493,226.3,492.7z"/>
</g>
<g class="st1">
	<path class="st2" d="M832.1,540.5c-0.8,0-1.4,0.6-1.4,1.4s0.6,1.4,1.4,1.4c0.8,0,1.4-0.6,1.4-1.4S832.8,540.5,832.1,540.5z
		 M832.4,541.8c-0.3,0-0.5-0.2-0.5-0.5c0-0.2,0.2-0.5,0.5-0.5c0.3,0,0.5,0.2,0.5,0.5C832.9,541.6,832.7,541.8,832.4,541.8z"/>
	<path class="st2" d="M841.4,540.5c-0.8,0-1.4,0.6-1.4,1.4s0.6,1.4,1.4,1.4c0.8,0,1.4-0.6,1.4-1.4S842.2,540.5,841.4,540.5z
		 M841,541.8c-0.3,0-0.5-0.2-0.5-0.5c0-0.2,0.2-0.5,0.5-0.5c0.3,0,0.5,0.2,0.5,0.5C841.5,541.6,841.3,541.8,841,541.8z"/>
	<path class="st4" d="M828.6,564c0.8-1.1,1.4-0.3,2.5,0.3c0.5,0.3-0.9,1.2-2.4,0.5C828.4,564.6,828.4,564.4,828.6,564z"/>
	<path class="st4" d="M844.8,563.9c-0.8-1.1-1.4-0.3-2.5,0.3c-0.5,0.3,0.9,1.2,2.4,0.5C845.1,564.5,845.1,564.2,844.8,563.9z"/>
	<path class="st2" d="M849.2,537c-0.8-1.7-2.9-0.2-3.4-0.7c-2.6-2.7-5.8-3.4-8.4-3.5c0,0-1.1,0-1.4,0c-2.5,0.1-5.7,0.8-8.4,3.5
		c-0.5,0.5-2.6-1-3.4,0.7c-1,2,2,2.2,1.8,3.1c-0.3,1.6-0.1,4,0.1,6.3c0.2,1.9-0.4,5-0.4,8.1c-0.5,0.1-0.9,0.9-0.9,1.6
		c0,0.3,0.1,0.6,0.2,0.9c0.2,0.3,0.5,0.4,0.8,0.4v-0.3c0.3,2.5,1.3,4.7,3.4,6.2c0.4,0,0.9,0.4,1.5,0.7c1.5,0.4,3.9,0.7,6,0.7h0h0
		c1.9,0,3.9-0.3,5.3-0.6c0,0,0-0.1,0.1-0.1c0.8-0.4,1.3-0.9,1.9-0.8c2.7-2,3.4-5.1,3.5-8.3c0.3,0,0.5-0.2,0.7-0.4
		c0.1-0.2,0.2-0.5,0.2-0.9c0-0.8-0.4-1.6-1-1.6c-0.2-2.3-0.4-4.3-0.3-5.7c0.2-2.3,0.4-4.7,0.1-6.3C847.2,539.2,850.1,539,849.2,537z
		 M825.6,556.8c-0.1-0.1-0.1-0.3-0.1-0.6c0-0.5,0.2-1,0.4-1.1c0,0.6,0.1,1.3,0.1,1.9C825.8,557,825.7,556.9,825.6,556.8z
		 M826.2,538.3c-0.1,0.3-1.1-0.4-0.7-1c0.4-0.5,1-0.3,1.1-0.1C826.7,537.5,826.4,537.5,826.2,538.3z M828.5,541.8
		c0.3-2.6,2.5-3.8,3.8-3.6c4.2,0.5,3.6,4.9,2,6.3C831.3,547.1,828.2,544.4,828.5,541.8z M839.3,546.6c-0.1,0.4-0.7,0.8-1.5,0.9
		c0,0,0,0,0,0c0.1,0.1,0.1,0.3,0.1,0.5c0,0,0,0,0,0c0,0,0,0,0,0.1c0,0,0,0,0,0c0,0,0,0,0,0c0,0,0,0,0,0c0,0,0,0,0,0c0,0,0,0,0,0
		c0,0,0,0,0,0c0,0,0,0,0,0c0,0,0,0,0,0c0,0,0,0,0,0c0,0,0,0,0,0c0,0,0,0,0,0c0,0,0,0,0,0c0,0,0,0,0,0c0,0,0,0,0,0c0,0-0.1,0-0.1,0.1
		c-0.3,0.2-1.3,0-1.7,0c0,0-0.1,0-0.1,0c0,0,0,0,0,0c0,0,0,0-0.1,0c0,0,0,0,0,0c0,0,0,0,0,0c0,0,0,0,0,0c0,0,0,0,0-0.1c0,0,0,0,0,0
		c0-0.1,0-0.1-0.1-0.2c0,0,0,0,0,0c0,0,0-0.1,0-0.1c0,0,0,0,0,0c0,0,0,0,0-0.1c0,0,0,0,0,0c0,0,0,0,0-0.1c0,0,0,0,0,0c0,0,0,0,0-0.1
		c0,0,0-0.1,0-0.1c0,0,0,0,0,0c0,0,0,0,0-0.1c0,0,0,0,0,0c0,0,0,0,0-0.1c0,0,0,0,0,0c0,0,0,0,0-0.1c-0.7-0.2-1.2-0.5-1.3-0.9
		c-0.1-0.7,0.3-1.2,1.5-1.6c-0.1,0.1-0.1,0.2-0.2,0.4c-0.3,1.2,2.7,1,2.7,0.3c0-0.2-0.1-0.5-0.4-0.7
		C838.5,545.3,839.4,545.9,839.3,546.6z M839.1,544.4c-1.6-1.4-2.2-5.8,2-6.3c1.3-0.2,3.5,1.1,3.8,3.6
		C845.3,544.4,842.1,547.1,839.1,544.4z M848,553.7c0,0.2,0,0.5-0.1,0.6c-0.1,0.1-0.1,0.1-0.2,0.2c0-0.6,0-1.3-0.1-1.9
		C847.7,552.7,848,553.2,848,553.7z M847.2,538.3c-0.1-0.8-0.5-0.8-0.4-1c0.1-0.3,0.7-0.4,1.1,0.1
		C848.3,537.9,847.3,538.6,847.2,538.3z"/>
</g>
<g class="st1">
	<path class="st2" d="M910,222.8c-0.8,0-1.4,0.6-1.4,1.4c0,0.8,0.6,1.4,1.4,1.4c0.8,0,1.4-0.6,1.4-1.4
		C911.5,223.4,910.8,222.8,910,222.8z M910.4,224.1c-0.3,0-0.5-0.2-0.5-0.5c0-0.2,0.2-0.5,0.5-0.5c0.3,0,0.5,0.2,0.5,0.5
		C910.9,223.9,910.7,224.1,910.4,224.1z"/>
	<path class="st2" d="M919.4,222.8c-0.8,0-1.4,0.6-1.4,1.4c0,0.8,0.6,1.4,1.4,1.4c0.8,0,1.4-0.6,1.4-1.4
		C920.8,223.4,920.2,222.8,919.4,222.8z M919,224.1c-0.3,0-0.5-0.2-0.5-0.5c0-0.2,0.2-0.5,0.5-0.5c0.3,0,0.5,0.2,0.5,0.5
		C919.4,223.9,919.2,224.1,919,224.1z"/>
	<path class="st4" d="M906.6,246.3c0.8-1.1,1.4-0.3,2.5,0.3c0.5,0.3-0.9,1.2-2.4,0.5C906.3,246.9,906.4,246.6,906.6,246.3z"/>
	<path class="st4" d="M922.8,246.2c-0.8-1.1-1.4-0.3-2.5,0.3c-0.5,0.3,0.9,1.2,2.4,0.5C923.1,246.8,923,246.5,922.8,246.2z"/>
	<path class="st2" d="M927.2,219.2c-0.8-1.7-2.9-0.2-3.4-0.7c-2.6-2.7-5.8-3.4-8.4-3.5c0,0-1.1,0-1.4,0c-2.5,0.1-5.7,0.8-8.4,3.5
		c-0.5,0.5-2.6-1-3.4,0.7c-1,2,2,2.2,1.8,3.1c-0.3,1.6-0.1,4,0.1,6.3c0.2,1.9-0.4,5-0.4,8.1c-0.5,0.1-0.9,0.9-0.9,1.6
		c0,0.3,0.1,0.6,0.2,0.9c0.2,0.3,0.5,0.4,0.8,0.4v-0.3c0.3,2.5,1.3,4.7,3.4,6.2c0.4,0,0.9,0.4,1.5,0.7c1.5,0.4,3.9,0.7,6,0.7h0h0
		c1.9,0,3.9-0.3,5.3-0.6c0,0,0-0.1,0.1-0.1c0.8-0.4,1.3-0.9,1.9-0.8c2.7-2,3.4-5.1,3.5-8.3c0.3,0,0.5-0.2,0.7-0.4
		c0.1-0.2,0.2-0.5,0.2-0.9c0-0.8-0.4-1.6-1-1.6c-0.2-2.3-0.4-4.3-0.3-5.7c0.2-2.3,0.4-4.7,0.1-6.3
		C925.2,221.5,928.1,221.2,927.2,219.2z M903.6,239c-0.1-0.1-0.1-0.4-0.1-0.6c0-0.5,0.2-1,0.4-1.1c0,0.6,0.1,1.3,0.1,1.9
		C903.8,239.2,903.7,239.2,903.6,239z M904.2,220.6c-0.1,0.3-1.1-0.4-0.7-1c0.4-0.5,1-0.3,1.1-0.1S904.3,219.8,904.2,220.6z
		 M906.5,224.1c0.3-2.6,2.5-3.8,3.8-3.6c4.2,0.5,3.6,4.9,2,6.3C909.3,229.4,906.2,226.7,906.5,224.1z M917.3,228.9
		c-0.1,0.4-0.7,0.8-1.5,0.9c0,0,0,0,0,0c0.1,0.1,0.1,0.3,0.1,0.5c0,0,0,0,0,0c0,0,0,0,0,0.1c0,0,0,0,0,0c0,0,0,0,0,0c0,0,0,0,0,0
		c0,0,0,0,0,0c0,0,0,0,0,0c0,0,0,0,0,0c0,0,0,0,0,0c0,0,0,0,0,0c0,0,0,0,0,0c0,0,0,0,0,0c0,0,0,0,0,0c0,0,0,0,0,0c0,0,0,0,0,0
		c0,0,0,0,0,0c0,0-0.1,0-0.1,0.1c-0.3,0.2-1.3,0-1.7,0c0,0-0.1,0-0.1,0c0,0,0,0,0,0c0,0,0,0-0.1,0c0,0,0,0,0,0c0,0,0,0,0,0
		c0,0,0,0,0,0c0,0,0,0,0-0.1c0,0,0,0,0,0c0-0.1,0-0.1-0.1-0.2c0,0,0,0,0,0c0,0,0-0.1,0-0.1c0,0,0,0,0,0c0,0,0,0,0-0.1c0,0,0,0,0,0
		c0,0,0,0,0-0.1c0,0,0,0,0,0c0,0,0,0,0-0.1c0,0,0-0.1,0-0.1c0,0,0,0,0,0c0,0,0,0,0-0.1c0,0,0,0,0,0c0,0,0,0,0-0.1c0,0,0,0,0,0
		c0,0,0,0,0-0.1c-0.7-0.2-1.2-0.5-1.3-0.9c-0.1-0.7,0.3-1.2,1.5-1.6c-0.1,0.1-0.1,0.2-0.2,0.4c-0.3,1.2,2.7,1,2.7,0.3
		c0-0.2-0.1-0.5-0.4-0.7C916.5,227.6,917.4,228.2,917.3,228.9z M917.1,226.7c-1.6-1.4-2.2-5.8,2-6.3c1.3-0.2,3.5,1.1,3.8,3.6
		C923.2,226.7,920.1,229.4,917.1,226.7z M926,236c0,0.2,0,0.5-0.1,0.6c-0.1,0.1-0.1,0.1-0.2,0.2c0-0.6,0-1.3-0.1-1.9
		C925.7,235,926,235.4,926,236z M925.2,220.6c-0.1-0.8-0.5-0.8-0.4-1c0.1-0.3,0.7-0.4,1.1,0.1C926.3,220.1,925.2,220.9,925.2,220.6z
		"/>
</g>
<g class="st1">
	<path class="st2" d="M106,71.6c-0.8,0-1.4,0.6-1.4,1.4s0.6,1.4,1.4,1.4c0.8,0,1.4-0.6,1.4-1.4S106.8,71.6,106,71.6z M106.4,72.9
		c-0.3,0-0.5-0.2-0.5-0.5c0-0.2,0.2-0.5,0.5-0.5s0.5,0.2,0.5,0.5C106.8,72.7,106.6,72.9,106.4,72.9z"/>
	<path class="st2" d="M115.3,71.6c-0.8,0-1.4,0.6-1.4,1.4s0.6,1.4,1.4,1.4c0.8,0,1.4-0.6,1.4-1.4S116.1,71.6,115.3,71.6z M115,72.9
		c-0.3,0-0.5-0.2-0.5-0.5c0-0.2,0.2-0.5,0.5-0.5s0.5,0.2,0.5,0.5C115.4,72.7,115.2,72.9,115,72.9z"/>
	<path class="st4" d="M102.6,95.1c0.8-1.1,1.4-0.3,2.5,0.3c0.5,0.3-0.9,1.2-2.4,0.5C102.3,95.7,102.3,95.4,102.6,95.1z"/>
	<path class="st4" d="M118.8,94.9c-0.8-1.1-1.4-0.3-2.5,0.3c-0.5,0.3,0.9,1.2,2.4,0.5C119,95.6,119,95.3,118.8,94.9z"/>
	<path class="st2" d="M123.1,68c-0.8-1.7-2.9-0.2-3.4-0.7c-2.6-2.7-5.8-3.4-8.4-3.5c0,0-1.1,0-1.4,0c-2.5,0.1-5.7,0.8-8.4,3.5
		c-0.5,0.5-2.6-1-3.4,0.7c-1,2,2,2.2,1.8,3.1c-0.3,1.6-0.1,4,0.1,6.3c0.2,1.9-0.4,5-0.4,8.1c-0.5,0.1-0.9,0.9-0.9,1.6
		c0,0.3,0.1,0.6,0.2,0.9c0.2,0.3,0.5,0.4,0.8,0.4v-0.3c0.3,2.5,1.3,4.7,3.4,6.2c0.4,0,0.9,0.4,1.5,0.7c1.5,0.4,3.9,0.7,6,0.7h0h0
		c1.9,0,3.9-0.3,5.3-0.6c0,0,0-0.1,0.1-0.1c0.8-0.4,1.3-0.9,1.9-0.8c2.7-2,3.4-5.1,3.5-8.3c0.3,0,0.5-0.2,0.7-0.4
		c0.1-0.2,0.2-0.5,0.2-0.9c0-0.8-0.4-1.6-1-1.6c-0.2-2.3-0.4-4.3-0.3-5.7c0.2-2.3,0.4-4.7,0.1-6.3C121.2,70.2,124.1,70,123.1,68z
		 M99.5,87.8c-0.1-0.1-0.1-0.4-0.1-0.6c0-0.5,0.2-1,0.4-1.1c0,0.6,0.1,1.3,0.1,1.9C99.7,88,99.6,88,99.5,87.8z M100.2,69.4
		c-0.1,0.3-1.1-0.4-0.7-1c0.4-0.5,1-0.3,1.1-0.1S100.3,68.6,100.2,69.4z M102.5,72.9c0.3-2.6,2.5-3.8,3.8-3.6c4.2,0.5,3.6,4.9,2,6.3
		C105.3,78.2,102.1,75.5,102.5,72.9z M113.3,77.7c-0.1,0.4-0.7,0.8-1.5,0.9c0,0,0,0,0,0c0.1,0.1,0.1,0.3,0.1,0.5c0,0,0,0,0,0
		c0,0,0,0,0,0.1c0,0,0,0,0,0c0,0,0,0,0,0c0,0,0,0,0,0c0,0,0,0,0,0c0,0,0,0,0,0c0,0,0,0,0,0c0,0,0,0,0,0c0,0,0,0,0,0c0,0,0,0,0,0
		c0,0,0,0,0,0c0,0,0,0,0,0c0,0,0,0,0,0c0,0,0,0,0,0c0,0,0,0,0,0c0,0-0.1,0-0.1,0.1c-0.3,0.2-1.3,0-1.7,0c0,0-0.1,0-0.1,0
		c0,0,0,0,0,0c0,0,0,0-0.1,0c0,0,0,0,0,0c0,0,0,0,0,0c0,0,0,0,0,0c0,0,0,0,0-0.1c0,0,0,0,0,0c0-0.1,0-0.1-0.1-0.2c0,0,0,0,0,0
		c0,0,0-0.1,0-0.1c0,0,0,0,0,0c0,0,0,0,0-0.1c0,0,0,0,0,0c0,0,0,0,0-0.1c0,0,0,0,0,0c0,0,0,0,0-0.1c0,0,0-0.1,0-0.1c0,0,0,0,0,0
		c0,0,0,0,0-0.1c0,0,0,0,0,0c0,0,0,0,0-0.1c0,0,0,0,0,0c0,0,0,0,0-0.1c-0.7-0.2-1.2-0.5-1.3-0.9c-0.1-0.7,0.3-1.2,1.5-1.6
		c-0.1,0.1-0.1,0.2-0.2,0.4c-0.3,1.2,2.7,1,2.7,0.3c0-0.2-0.1-0.5-0.4-0.7C112.5,76.4,113.3,77,113.3,77.7z M113,75.5
		c-1.6-1.4-2.2-5.8,2-6.3c1.3-0.2,3.5,1.1,3.8,3.6C119.2,75.5,116.1,78.2,113,75.5z M121.9,84.8c0,0.2,0,0.5-0.1,0.6
		c-0.1,0.1-0.1,0.1-0.2,0.2c0-0.6,0-1.3-0.1-1.9C121.7,83.7,121.9,84.2,121.9,84.8z M121.2,69.4c-0.1-0.8-0.5-0.8-0.4-1
		c0.1-0.3,0.7-0.4,1.1,0.1C122.3,68.9,121.2,69.7,121.2,69.4z"/>
</g>
<g class="st1">
	<path class="st2" d="M1139.9,661.3c-0.8,0-1.4,0.6-1.4,1.4c0,0.8,0.6,1.4,1.4,1.4c0.8,0,1.4-0.6,1.4-1.4
		C1141.3,662,1140.6,661.3,1139.9,661.3z M1140.2,662.6c-0.3,0-0.5-0.2-0.5-0.5s0.2-0.5,0.5-0.5c0.3,0,0.5,0.2,0.5,0.5
		S1140.5,662.6,1140.2,662.6z"/>
	<path class="st2" d="M1149.2,661.3c-0.8,0-1.4,0.6-1.4,1.4c0,0.8,0.6,1.4,1.4,1.4s1.4-0.6,1.4-1.4
		C1150.6,662,1150,661.3,1149.2,661.3z M1148.8,662.6c-0.3,0-0.5-0.2-0.5-0.5s0.2-0.5,0.5-0.5c0.3,0,0.5,0.2,0.5,0.5
		S1149.1,662.6,1148.8,662.6z"/>
	<path class="st4" d="M1136.4,684.8c0.8-1.1,1.4-0.3,2.5,0.3c0.5,0.3-0.9,1.2-2.4,0.5C1136.2,685.4,1136.2,685.2,1136.4,684.8z"/>
	<path class="st4" d="M1152.6,684.7c-0.8-1.1-1.4-0.3-2.5,0.3c-0.5,0.3,0.9,1.2,2.4,0.5C1152.9,685.3,1152.9,685,1152.6,684.7z"/>
	<path class="st2" d="M1157,657.8c-0.8-1.7-2.9-0.2-3.4-0.7c-2.6-2.7-5.8-3.4-8.4-3.5c0,0-1.1,0-1.4,0c-2.5,0.1-5.7,0.8-8.4,3.5
		c-0.5,0.5-2.6-1-3.4,0.7c-1,2,2,2.2,1.8,3.1c-0.3,1.6-0.1,4,0.1,6.3c0.2,1.9-0.4,5-0.4,8.1c-0.5,0.1-0.9,0.9-0.9,1.6
		c0,0.3,0.1,0.6,0.2,0.9c0.2,0.3,0.5,0.4,0.8,0.4V678c0.3,2.5,1.3,4.7,3.4,6.2c0.4,0,0.9,0.4,1.5,0.7c1.5,0.4,3.9,0.7,6,0.7h0h0
		c1.9,0,3.9-0.3,5.3-0.6c0,0,0-0.1,0.1-0.1c0.8-0.4,1.3-0.9,1.9-0.8c2.7-2,3.4-5.1,3.5-8.3c0.3,0,0.5-0.2,0.7-0.4
		c0.1-0.2,0.2-0.5,0.2-0.9c0-0.8-0.4-1.6-1-1.6c-0.2-2.3-0.4-4.3-0.3-5.7c0.2-2.3,0.4-4.7,0.1-6.3C1155,660,1157.9,659.8,1157,657.8
		z M1133.4,677.6c-0.1-0.1-0.1-0.4-0.1-0.6c0-0.5,0.2-1,0.4-1.1c0,0.6,0.1,1.3,0.1,1.9C1133.6,677.8,1133.5,677.7,1133.4,677.6z
		 M1134,659.1c-0.1,0.3-1.1-0.4-0.7-1c0.4-0.5,1-0.3,1.1-0.1C1134.5,658.3,1134.2,658.3,1134,659.1z M1136.3,662.6
		c0.3-2.6,2.5-3.8,3.8-3.6c4.2,0.5,3.6,4.9,2,6.3C1139.1,667.9,1136,665.3,1136.3,662.6z M1147.1,667.5c-0.1,0.4-0.7,0.8-1.5,0.9
		c0,0,0,0,0,0c0.1,0.1,0.1,0.3,0.1,0.5c0,0,0,0,0,0c0,0,0,0,0,0.1c0,0,0,0,0,0c0,0,0,0,0,0c0,0,0,0,0,0c0,0,0,0,0,0c0,0,0,0,0,0
		c0,0,0,0,0,0c0,0,0,0,0,0c0,0,0,0,0,0c0,0,0,0,0,0c0,0,0,0,0,0c0,0,0,0,0,0c0,0,0,0,0,0c0,0,0,0,0,0c0,0,0,0,0,0c0,0-0.1,0-0.1,0.1
		c-0.3,0.2-1.3,0-1.7,0c0,0-0.1,0-0.1,0c0,0,0,0,0,0c0,0,0,0-0.1,0c0,0,0,0,0,0c0,0,0,0,0,0c0,0,0,0,0,0c0,0,0,0,0-0.1c0,0,0,0,0,0
		c0-0.1,0-0.1-0.1-0.2c0,0,0,0,0,0c0,0,0-0.1,0-0.1c0,0,0,0,0,0c0,0,0,0,0-0.1c0,0,0,0,0,0c0,0,0,0,0-0.1c0,0,0,0,0,0c0,0,0,0,0-0.1
		c0,0,0-0.1,0-0.1c0,0,0,0,0,0c0,0,0,0,0-0.1c0,0,0,0,0,0c0,0,0,0,0-0.1c0,0,0,0,0,0c0,0,0,0,0-0.1c-0.7-0.2-1.2-0.5-1.3-0.9
		c-0.1-0.7,0.3-1.2,1.5-1.6c-0.1,0.1-0.1,0.2-0.2,0.4c-0.3,1.2,2.7,1,2.7,0.3c0-0.2-0.1-0.5-0.4-0.7
		C1146.3,666.1,1147.2,666.7,1147.1,667.5z M1146.9,665.3c-1.6-1.4-2.2-5.8,2-6.3c1.3-0.2,3.5,1.1,3.8,3.6
		C1153.1,665.3,1149.9,667.9,1146.9,665.3z M1155.8,674.5c0,0.2,0,0.5-0.1,0.6c-0.1,0.1-0.1,0.1-0.2,0.2c0-0.6,0-1.3-0.1-1.9
		C1155.5,673.5,1155.8,674,1155.8,674.5z M1155,659.1c-0.1-0.8-0.5-0.8-0.4-1c0.1-0.3,0.7-0.4,1.1,0.1
		C1156.1,658.7,1155.1,659.4,1155,659.1z"/>
</g>
<g class="st1">
	<path class="st2" d="M1028,451.7c-0.8,0-1.4,0.6-1.4,1.4c0,0.8,0.6,1.4,1.4,1.4c0.8,0,1.4-0.6,1.4-1.4
		C1029.5,452.3,1028.8,451.7,1028,451.7z M1028.4,452.9c-0.3,0-0.5-0.2-0.5-0.5c0-0.2,0.2-0.5,0.5-0.5c0.3,0,0.5,0.2,0.5,0.5
		C1028.9,452.7,1028.7,452.9,1028.4,452.9z"/>
	<path class="st2" d="M1037.4,451.7c-0.8,0-1.4,0.6-1.4,1.4c0,0.8,0.6,1.4,1.4,1.4s1.4-0.6,1.4-1.4
		C1038.8,452.3,1038.2,451.7,1037.4,451.7z M1037,452.9c-0.3,0-0.5-0.2-0.5-0.5c0-0.2,0.2-0.5,0.5-0.5s0.5,0.2,0.5,0.5
		C1037.4,452.7,1037.2,452.9,1037,452.9z"/>
	<path class="st4" d="M1024.6,475.1c0.8-1.1,1.4-0.3,2.5,0.3c0.5,0.3-0.9,1.2-2.4,0.5C1024.3,475.7,1024.3,475.5,1024.6,475.1z"/>
	<path class="st4" d="M1040.8,475c-0.8-1.1-1.4-0.3-2.5,0.3c-0.5,0.3,0.9,1.2,2.4,0.5C1041,475.6,1041,475.4,1040.8,475z"/>
	<path class="st2" d="M1045.1,448.1c-0.8-1.7-2.9-0.2-3.4-0.7c-2.6-2.7-5.8-3.4-8.4-3.5c0,0-1.1,0-1.4,0c-2.5,0.1-5.7,0.8-8.4,3.5
		c-0.5,0.5-2.6-1-3.4,0.7c-1,2,2,2.2,1.8,3.1c-0.3,1.6-0.1,4,0.1,6.3c0.2,1.9-0.4,5-0.4,8.1c-0.5,0.1-0.9,0.9-0.9,1.6
		c0,0.3,0.1,0.6,0.2,0.9c0.2,0.3,0.5,0.4,0.8,0.4v-0.3c0.3,2.5,1.3,4.7,3.4,6.2c0.4,0,0.9,0.4,1.5,0.7c1.5,0.4,3.9,0.7,6,0.7h0h0
		c1.9,0,3.9-0.3,5.3-0.6c0,0,0-0.1,0.1-0.1c0.8-0.4,1.3-0.9,1.9-0.8c2.7-2,3.4-5.1,3.5-8.3c0.3,0,0.5-0.2,0.7-0.4
		c0.1-0.2,0.2-0.5,0.2-0.9c0-0.8-0.4-1.6-1-1.6c-0.2-2.3-0.4-4.3-0.3-5.7c0.2-2.3,0.4-4.7,0.1-6.3
		C1043.2,450.3,1046.1,450.1,1045.1,448.1z M1021.6,467.9c-0.1-0.1-0.1-0.4-0.1-0.6c0-0.5,0.2-1,0.4-1.1c0,0.6,0.1,1.3,0.1,1.9
		C1021.8,468.1,1021.6,468,1021.6,467.9z M1022.2,449.4c-0.1,0.3-1.1-0.4-0.7-1c0.4-0.5,1-0.3,1.1-0.1
		C1022.7,448.7,1022.3,448.6,1022.2,449.4z M1024.5,452.9c0.3-2.6,2.5-3.8,3.8-3.6c4.2,0.5,3.6,4.9,2,6.3
		C1027.3,458.2,1024.1,455.6,1024.5,452.9z M1035.3,457.8c-0.1,0.4-0.7,0.8-1.5,0.9c0,0,0,0,0,0c0.1,0.1,0.1,0.3,0.1,0.5
		c0,0,0,0,0,0c0,0,0,0,0,0.1c0,0,0,0,0,0c0,0,0,0,0,0c0,0,0,0,0,0c0,0,0,0,0,0c0,0,0,0,0,0c0,0,0,0,0,0c0,0,0,0,0,0c0,0,0,0,0,0
		c0,0,0,0,0,0c0,0,0,0,0,0c0,0,0,0,0,0c0,0,0,0,0,0c0,0,0,0,0,0c0,0,0,0,0,0c0,0-0.1,0-0.1,0.1c-0.3,0.2-1.3,0-1.7,0
		c0,0-0.1,0-0.1,0c0,0,0,0,0,0c0,0,0,0-0.1,0c0,0,0,0,0,0c0,0,0,0,0,0c0,0,0,0,0,0c0,0,0,0,0-0.1c0,0,0,0,0,0c0-0.1,0-0.1-0.1-0.2
		c0,0,0,0,0,0c0,0,0-0.1,0-0.1c0,0,0,0,0,0c0,0,0,0,0-0.1c0,0,0,0,0,0c0,0,0,0,0-0.1c0,0,0,0,0,0c0,0,0,0,0-0.1c0,0,0-0.1,0-0.1
		c0,0,0,0,0,0c0,0,0,0,0-0.1c0,0,0,0,0,0c0,0,0,0,0-0.1c0,0,0,0,0,0c0,0,0,0,0-0.1c-0.7-0.2-1.2-0.5-1.3-0.9
		c-0.1-0.7,0.3-1.2,1.5-1.6c-0.1,0.1-0.1,0.2-0.2,0.4c-0.3,1.2,2.7,1,2.7,0.3c0-0.2-0.1-0.5-0.4-0.7
		C1034.5,456.4,1035.4,457.1,1035.3,457.8z M1035.1,455.6c-1.6-1.4-2.2-5.8,2-6.3c1.3-0.2,3.5,1.1,3.8,3.6
		C1041.2,455.6,1038.1,458.2,1035.1,455.6z M1044,464.9c0,0.2,0,0.5-0.1,0.6c-0.1,0.1-0.1,0.1-0.2,0.2c0-0.6,0-1.3-0.1-1.9
		C1043.7,463.8,1044,464.3,1044,464.9z M1043.2,449.4c-0.1-0.8-0.5-0.8-0.4-1c0.1-0.3,0.7-0.4,1.1,0.1
		C1044.3,449,1043.2,449.7,1043.2,449.4z"/>
</g>
<g class="st1">
	<path class="st2" d="M1300,69.5c-0.8,0-1.4,0.6-1.4,1.4s0.6,1.4,1.4,1.4s1.4-0.6,1.4-1.4S1300.8,69.5,1300,69.5z M1300.3,70.8
		c-0.3,0-0.5-0.2-0.5-0.5c0-0.2,0.2-0.5,0.5-0.5s0.5,0.2,0.5,0.5C1300.8,70.5,1300.6,70.8,1300.3,70.8z"/>
	<path class="st2" d="M1309.3,69.5c-0.8,0-1.4,0.6-1.4,1.4s0.6,1.4,1.4,1.4s1.4-0.6,1.4-1.4S1310.1,69.5,1309.3,69.5z M1308.9,70.8
		c-0.3,0-0.5-0.2-0.5-0.5c0-0.2,0.2-0.5,0.5-0.5s0.5,0.2,0.5,0.5C1309.4,70.5,1309.2,70.8,1308.9,70.8z"/>
	<path class="st4" d="M1296.5,93c0.8-1.1,1.4-0.3,2.5,0.3c0.5,0.3-0.9,1.2-2.4,0.5C1296.3,93.6,1296.3,93.3,1296.5,93z"/>
	<path class="st4" d="M1312.7,92.8c-0.8-1.1-1.4-0.3-2.5,0.3c-0.5,0.3,0.9,1.2,2.4,0.5C1313,93.5,1313,93.2,1312.7,92.8z"/>
	<path class="st2" d="M1317.1,65.9c-0.8-1.7-2.9-0.2-3.4-0.7c-2.6-2.7-5.8-3.4-8.4-3.5c0,0-1.1,0-1.4,0c-2.5,0.1-5.7,0.8-8.4,3.5
		c-0.5,0.5-2.6-1-3.4,0.7c-1,2,2,2.2,1.8,3.1c-0.3,1.6-0.1,4,0.1,6.3c0.2,1.9-0.4,5-0.4,8.1c-0.5,0.1-0.9,0.9-0.9,1.6
		c0,0.3,0.1,0.6,0.2,0.9c0.2,0.3,0.5,0.4,0.8,0.4v-0.3c0.3,2.5,1.3,4.7,3.4,6.2c0.4,0,0.9,0.4,1.5,0.7c1.5,0.4,3.9,0.7,6,0.7h0h0
		c1.9,0,3.9-0.3,5.3-0.6c0,0,0-0.1,0.1-0.1c0.8-0.4,1.3-0.9,1.9-0.8c2.7-2,3.4-5.1,3.5-8.3c0.3,0,0.5-0.2,0.7-0.4
		c0.1-0.2,0.2-0.5,0.2-0.9c0-0.8-0.4-1.6-1-1.6c-0.2-2.3-0.4-4.3-0.3-5.7c0.2-2.3,0.4-4.7,0.1-6.3
		C1315.1,68.1,1318.1,67.9,1317.1,65.9z M1293.5,85.7c-0.1-0.1-0.1-0.4-0.1-0.6c0-0.5,0.2-1,0.4-1.1c0,0.6,0.1,1.3,0.1,1.9
		C1293.7,85.9,1293.6,85.9,1293.5,85.7z M1294.2,67.3c-0.1,0.3-1.1-0.4-0.7-1c0.4-0.5,1-0.3,1.1-0.1
		C1294.6,66.5,1294.3,66.5,1294.2,67.3z M1296.4,70.8c0.3-2.6,2.5-3.8,3.8-3.6c4.2,0.5,3.6,4.9,2,6.3
		C1299.2,76.1,1296.1,73.4,1296.4,70.8z M1307.2,75.6c-0.1,0.4-0.7,0.8-1.5,0.9c0,0,0,0,0,0c0.1,0.1,0.1,0.3,0.1,0.5c0,0,0,0,0,0
		c0,0,0,0,0,0.1c0,0,0,0,0,0c0,0,0,0,0,0c0,0,0,0,0,0c0,0,0,0,0,0c0,0,0,0,0,0c0,0,0,0,0,0c0,0,0,0,0,0c0,0,0,0,0,0c0,0,0,0,0,0
		c0,0,0,0,0,0c0,0,0,0,0,0c0,0,0,0,0,0c0,0,0,0,0,0c0,0,0,0,0,0c0,0-0.1,0-0.1,0.1c-0.3,0.2-1.3,0-1.7,0c0,0-0.1,0-0.1,0
		c0,0,0,0,0,0c0,0,0,0-0.1,0c0,0,0,0,0,0c0,0,0,0,0,0c0,0,0,0,0,0c0,0,0,0,0-0.1c0,0,0,0,0,0c0-0.1,0-0.1-0.1-0.2c0,0,0,0,0,0
		c0,0,0-0.1,0-0.1c0,0,0,0,0,0c0,0,0,0,0-0.1c0,0,0,0,0,0c0,0,0,0,0-0.1c0,0,0,0,0,0c0,0,0,0,0-0.1c0,0,0-0.1,0-0.1c0,0,0,0,0,0
		c0,0,0,0,0-0.1c0,0,0,0,0,0c0,0,0,0,0-0.1c0,0,0,0,0,0c0,0,0,0,0-0.1c-0.7-0.2-1.2-0.5-1.3-0.9c-0.1-0.7,0.3-1.2,1.5-1.6
		c-0.1,0.1-0.1,0.2-0.2,0.4c-0.3,1.2,2.7,1,2.7,0.3c0-0.2-0.1-0.5-0.4-0.7C1306.5,74.2,1307.3,74.9,1307.2,75.6z M1307,73.4
		c-1.6-1.4-2.2-5.8,2-6.3c1.3-0.2,3.5,1.1,3.8,3.6C1313.2,73.4,1310,76.1,1307,73.4z M1315.9,82.7c0,0.2,0,0.5-0.1,0.6
		c-0.1,0.1-0.1,0.1-0.2,0.2c0-0.6,0-1.3-0.1-1.9C1315.7,81.6,1315.9,82.1,1315.9,82.7z M1315.1,67.3c-0.1-0.8-0.5-0.8-0.4-1
		c0.1-0.3,0.7-0.4,1.1,0.1C1316.3,66.8,1315.2,67.6,1315.1,67.3z"/>
</g>
<g class="st1">
	<path class="st2" d="M61.8,291.1c-0.8,0-1.4,0.6-1.4,1.4s0.6,1.4,1.4,1.4c0.8,0,1.4-0.6,1.4-1.4S62.6,291.1,61.8,291.1z
		 M62.2,292.4c-0.3,0-0.5-0.2-0.5-0.5c0-0.2,0.2-0.5,0.5-0.5s0.5,0.2,0.5,0.5C62.6,292.2,62.4,292.4,62.2,292.4z"/>
	<path class="st2" d="M71.1,291.1c-0.8,0-1.4,0.6-1.4,1.4s0.6,1.4,1.4,1.4c0.8,0,1.4-0.6,1.4-1.4S71.9,291.1,71.1,291.1z
		 M70.7,292.4c-0.3,0-0.5-0.2-0.5-0.5c0-0.2,0.2-0.5,0.5-0.5s0.5,0.2,0.5,0.5C71.2,292.2,71,292.4,70.7,292.4z"/>
	<path class="st4" d="M58.3,314.6c0.8-1.1,1.4-0.3,2.5,0.3c0.5,0.3-0.9,1.2-2.4,0.5C58.1,315.2,58.1,315,58.3,314.6z"/>
	<path class="st4" d="M74.5,314.5c-0.8-1.1-1.4-0.3-2.5,0.3c-0.5,0.3,0.9,1.2,2.4,0.5C74.8,315.1,74.8,314.9,74.5,314.5z"/>
	<path class="st2" d="M78.9,287.6c-0.8-1.7-2.9-0.2-3.4-0.7c-2.6-2.7-5.8-3.4-8.4-3.5c0,0-1.1,0-1.4,0c-2.5,0.1-5.7,0.8-8.4,3.5
		c-0.5,0.5-2.6-1-3.4,0.7c-1,2,2,2.2,1.8,3.1c-0.3,1.6-0.1,4,0.1,6.3c0.2,1.9-0.4,5-0.4,8.1c-0.5,0.1-0.9,0.9-0.9,1.6
		c0,0.3,0.1,0.6,0.2,0.9c0.2,0.3,0.5,0.4,0.8,0.4v-0.3c0.3,2.5,1.3,4.7,3.4,6.2c0.4,0,0.9,0.4,1.5,0.7c1.5,0.4,3.9,0.7,6,0.7h0h0
		c1.9,0,3.9-0.3,5.3-0.6c0,0,0-0.1,0.1-0.1c0.8-0.4,1.3-0.9,1.9-0.8c2.7-2,3.4-5.1,3.5-8.3c0.3,0,0.5-0.2,0.7-0.4
		c0.1-0.2,0.2-0.5,0.2-0.9c0-0.8-0.4-1.6-1-1.6c-0.2-2.3-0.4-4.3-0.3-5.7c0.2-2.3,0.4-4.7,0.1-6.3C76.9,289.8,79.9,289.6,78.9,287.6
		z M55.3,307.4c-0.1-0.1-0.1-0.4-0.1-0.6c0-0.5,0.2-1,0.4-1.1c0,0.6,0.1,1.3,0.1,1.9C55.5,307.6,55.4,307.5,55.3,307.4z M56,288.9
		c-0.1,0.3-1.1-0.4-0.7-1c0.4-0.5,1-0.3,1.1-0.1C56.4,288.1,56.1,288.1,56,288.9z M58.2,292.4c0.3-2.6,2.5-3.8,3.8-3.6
		c4.2,0.5,3.6,4.9,2,6.3C61,297.7,57.9,295.1,58.2,292.4z M69,297.3c-0.1,0.4-0.7,0.8-1.5,0.9c0,0,0,0,0,0c0.1,0.1,0.1,0.3,0.1,0.5
		c0,0,0,0,0,0c0,0,0,0,0,0.1c0,0,0,0,0,0c0,0,0,0,0,0c0,0,0,0,0,0c0,0,0,0,0,0c0,0,0,0,0,0c0,0,0,0,0,0c0,0,0,0,0,0c0,0,0,0,0,0
		c0,0,0,0,0,0c0,0,0,0,0,0c0,0,0,0,0,0c0,0,0,0,0,0c0,0,0,0,0,0c0,0,0,0,0,0c0,0-0.1,0-0.1,0.1c-0.3,0.2-1.3,0-1.7,0
		c0,0-0.1,0-0.1,0c0,0,0,0,0,0c0,0,0,0-0.1,0c0,0,0,0,0,0c0,0,0,0,0,0c0,0,0,0,0,0c0,0,0,0,0-0.1c0,0,0,0,0,0c0-0.1,0-0.1-0.1-0.2
		c0,0,0,0,0,0c0,0,0-0.1,0-0.1c0,0,0,0,0,0c0,0,0,0,0-0.1c0,0,0,0,0,0c0,0,0,0,0-0.1c0,0,0,0,0,0c0,0,0,0,0-0.1c0,0,0-0.1,0-0.1
		c0,0,0,0,0,0c0,0,0,0,0-0.1c0,0,0,0,0,0c0,0,0,0,0-0.1c0,0,0,0,0,0c0,0,0,0,0-0.1c-0.7-0.2-1.2-0.5-1.3-0.9
		c-0.1-0.7,0.3-1.2,1.5-1.6c-0.1,0.1-0.1,0.2-0.2,0.4c-0.3,1.2,2.7,1,2.7,0.3c0-0.2-0.1-0.5-0.4-0.7C68.3,295.9,69.1,296.5,69,297.3
		z M68.8,295.1c-1.6-1.4-2.2-5.8,2-6.3c1.3-0.2,3.5,1.1,3.8,3.6C75,295.1,71.8,297.7,68.8,295.1z M77.7,304.3c0,0.2,0,0.5-0.1,0.6
		c-0.1,0.1-0.1,0.1-0.2,0.2c0-0.6,0-1.3-0.1-1.9C77.5,303.3,77.7,303.8,77.7,304.3z M76.9,288.9c-0.1-0.8-0.5-0.8-0.4-1
		c0.1-0.3,0.7-0.4,1.1,0.1C78.1,288.5,77,289.2,76.9,288.9z"/>
</g>
</svg>
