<?xml version="1.0" encoding="utf-8"?>
<!-- Generator: Adobe Illustrator 23.1.0, SVG Export Plug-In . SVG Version: 6.00 Build 0)  -->
<svg version="1.0" id="Layer_1" xmlns="http://www.w3.org/2000/svg" xmlns:xlink="http://www.w3.org/1999/xlink" x="0px" y="0px"
	 viewBox="0 0 1411.482 738.433" enable-background="new 0 0 1411.482 738.433" xml:space="preserve">
<g opacity="0.5">
	<g opacity="0.4">
		<path fill="#FFFFFF" d="M39.329,38.312h8.836c2.594,0.022,4.474,0.77,5.638,2.242c1.166,1.472,1.55,3.484,1.154,6.034
			c-0.161,1.189-0.505,2.346-1.022,3.428c-0.513,1.131-1.228,2.16-2.11,3.034c-1.1,1.142-2.274,1.868-3.528,2.176
			c-1.254,0.308-2.55,0.462-3.89,0.462H40.45l-1.252,6.264h-4.584L39.329,38.312 M43.186,42.07l-1.978,9.892
			c0.132,0.022,0.264,0.034,0.396,0.034h0.462c2.11,0.022,3.868-0.186,5.276-0.626c1.406-0.462,2.352-2.066,2.836-4.814
			c0.396-2.308,0-3.638-1.188-3.99c-1.166-0.352-2.626-0.516-4.386-0.494c-0.252,0.021-0.505,0.033-0.758,0.034h-0.692L43.186,42.07
			 M60.179,32.014h4.55l-1.286,6.298h4.088c2.242,0.044,3.912,0.506,5.012,1.386c1.122,0.878,1.452,2.55,0.99,5.012l-2.21,10.98
			h-4.616l2.11-10.486c0.22-1.1,0.154-1.88-0.198-2.34c-0.352-0.462-1.11-0.692-2.276-0.692l-3.66-0.032l-2.704,13.552h-4.55
			L60.179,32.014 M78.417,38.312h8.836c2.594,0.022,4.474,0.77,5.638,2.242c1.166,1.472,1.55,3.484,1.154,6.034
			c-0.161,1.189-0.505,2.346-1.022,3.428c-0.512,1.132-1.227,2.16-2.11,3.034c-1.098,1.142-2.274,1.868-3.528,2.176
			c-1.254,0.308-2.55,0.462-3.89,0.462h-3.956l-1.252,6.264h-4.584L78.417,38.312 M82.275,42.07l-1.978,9.892
			c0.132,0.022,0.264,0.034,0.396,0.034h0.462c2.11,0.022,3.868-0.186,5.276-0.626c1.406-0.462,2.352-2.066,2.834-4.814
			c0.396-2.308,0-3.638-1.186-3.99c-1.166-0.352-2.626-0.516-4.386-0.494c-0.252,0.021-0.505,0.033-0.758,0.034h-0.692L82.275,42.07
			"/>
	</g>
	<g opacity="0.4">
		<path fill="#FFFFFF" d="M488.627,231.4h8.836c2.594,0.022,4.475,0.77,5.638,2.242c1.166,1.472,1.552,3.484,1.154,6.034
			c-0.16,1.189-0.505,2.346-1.021,3.428c-0.514,1.131-1.229,2.16-2.11,3.034c-1.1,1.142-2.274,1.868-3.528,2.176
			c-1.254,0.308-2.55,0.462-3.89,0.462h-3.956l-1.252,6.264h-4.584L488.627,231.4 M492.485,235.16l-1.979,9.892
			c0.132,0.022,0.266,0.034,0.397,0.034h0.462c2.108,0.022,3.868-0.186,5.275-0.626c1.406-0.462,2.354-2.066,2.836-4.814
			c0.396-2.308,0-3.638-1.188-3.99c-1.166-0.352-2.626-0.516-4.386-0.494c-0.253,0.021-0.505,0.033-0.76,0.034h-0.69L492.485,235.16
			 M509.475,225.104h4.552l-1.286,6.298h4.088c2.242,0.044,3.912,0.506,5.012,1.386c1.122,0.878,1.452,2.55,0.99,5.012l-2.21,10.98
			h-4.616l2.11-10.486c0.22-1.1,0.152-1.88-0.198-2.34c-0.354-0.462-1.11-0.692-2.276-0.692l-3.659-0.032l-2.703,13.552h-4.552
			L509.475,225.104 M527.715,231.4h8.836c2.594,0.022,4.476,0.77,5.64,2.242c1.166,1.472,1.55,3.484,1.152,6.034
			c-0.16,1.189-0.505,2.346-1.02,3.428c-0.513,1.132-1.229,2.16-2.11,3.034c-1.098,1.142-2.273,1.868-3.528,2.176
			c-1.254,0.308-2.55,0.462-3.89,0.462h-3.956l-1.252,6.264H523L527.715,231.4 M531.572,235.16l-1.98,9.892
			c0.132,0.022,0.265,0.034,0.396,0.034h0.462c2.108,0.022,3.868-0.186,5.274-0.626c1.406-0.462,2.354-2.066,2.834-4.814
			c0.396-2.308,0-3.638-1.186-3.99c-1.166-0.352-2.626-0.516-4.386-0.494c-0.252,0.021-0.505,0.033-0.758,0.034h-0.692
			L531.572,235.16"/>
	</g>
	<g opacity="0.4">
		<path fill="#FFFFFF" d="M171.627,413.4h8.836c2.594,0.023,4.474,0.77,5.638,2.242c1.166,1.473,1.55,3.484,1.154,6.033
			c-0.16,1.189-0.505,2.346-1.022,3.428c-0.512,1.133-1.228,2.16-2.11,3.035c-1.1,1.143-2.274,1.867-3.528,2.176
			c-1.254,0.309-2.55,0.463-3.89,0.463h-3.956l-1.252,6.264h-4.584L171.627,413.4 M175.485,417.16l-1.978,9.891
			c0.132,0.021,0.264,0.033,0.396,0.033h0.462c2.11,0.023,3.868-0.186,5.276-0.625c1.406-0.463,2.352-2.066,2.836-4.815
			c0.396-2.309,0-3.639-1.188-3.988c-1.166-0.354-2.626-0.518-4.386-0.494c-0.252,0.02-0.505,0.033-0.758,0.035h-0.692
			L175.485,417.16 M192.475,407.103h4.55l-1.286,6.297h4.088c2.242,0.045,3.912,0.506,5.012,1.387
			c1.122,0.877,1.452,2.549,0.99,5.01l-2.21,10.98h-4.616l2.11-10.486c0.22-1.098,0.154-1.881-0.198-2.34
			c-0.352-0.463-1.11-0.695-2.276-0.695l-3.66-0.031l-2.704,13.555h-4.55L192.475,407.103 M210.715,413.4h8.836
			c2.594,0.023,4.474,0.77,5.638,2.242c1.166,1.473,1.55,3.484,1.154,6.033c-0.16,1.189-0.505,2.346-1.022,3.428
			c-0.512,1.133-1.227,2.162-2.11,3.035c-1.098,1.143-2.274,1.867-3.528,2.176c-1.254,0.309-2.55,0.463-3.89,0.463h-3.956
			l-1.252,6.264H206L210.715,413.4 M214.572,417.16l-1.98,9.891c0.132,0.021,0.264,0.033,0.396,0.033h0.462
			c2.11,0.023,3.868-0.186,5.276-0.625c1.406-0.463,2.352-2.066,2.834-4.815c0.396-2.309,0-3.639-1.186-3.988
			c-1.166-0.354-2.626-0.518-4.386-0.494c-0.252,0.02-0.505,0.033-0.758,0.035h-0.692L214.572,417.16"/>
	</g>
	<g opacity="0.4">
		<path fill="#FFFFFF" d="M349.627,591.4h8.836c2.594,0.023,4.474,0.77,5.638,2.242c1.166,1.473,1.55,3.484,1.154,6.033
			c-0.16,1.189-0.505,2.346-1.022,3.428c-0.512,1.133-1.228,2.16-2.11,3.035c-1.1,1.143-2.274,1.867-3.528,2.176
			c-1.254,0.308-2.55,0.463-3.89,0.463h-3.956l-1.252,6.264h-4.584L349.627,591.4 M353.485,595.16l-1.978,9.891
			c0.132,0.022,0.264,0.033,0.396,0.033h0.462c2.11,0.022,3.868-0.186,5.276-0.625c1.406-0.463,2.352-2.066,2.836-4.814
			c0.396-2.309,0-3.639-1.188-3.988c-1.166-0.354-2.626-0.518-4.386-0.494c-0.252,0.019-0.505,0.033-0.758,0.035h-0.692
			L353.485,595.16 M370.475,585.103h4.55l-1.286,6.297h4.088c2.242,0.045,3.912,0.506,5.012,1.387
			c1.122,0.877,1.452,2.549,0.99,5.01l-2.21,10.98h-4.616l2.11-10.486c0.22-1.098,0.154-1.881-0.198-2.34
			c-0.352-0.463-1.11-0.695-2.276-0.695l-3.66-0.031l-2.704,13.555h-4.55L370.475,585.103 M388.715,591.4h8.836
			c2.594,0.023,4.476,0.77,5.64,2.242c1.165,1.473,1.55,3.484,1.152,6.033c-0.16,1.189-0.505,2.346-1.021,3.428
			c-0.512,1.133-1.229,2.162-2.11,3.035c-1.098,1.143-2.273,1.867-3.528,2.176c-1.254,0.308-2.55,0.463-3.89,0.463h-3.956
			l-1.252,6.264H384L388.715,591.4 M392.572,595.16l-1.979,9.891c0.132,0.022,0.264,0.033,0.396,0.033h0.462
			c2.11,0.022,3.868-0.186,5.275-0.625c1.405-0.463,2.353-2.066,2.834-4.814c0.396-2.309,0-3.639-1.187-3.988
			c-1.166-0.354-2.626-0.518-4.386-0.494c-0.253,0.019-0.505,0.033-0.758,0.035h-0.692L392.572,595.16"/>
	</g>
	<g opacity="0.4">
		<path fill="#FFFFFF" d="M749.627,394.4h8.836c2.594,0.021,4.472,0.769,5.638,2.242c1.166,1.473,1.552,3.484,1.154,6.033
			c-0.161,1.189-0.506,2.346-1.021,3.428c-0.514,1.133-1.229,2.16-2.11,3.035c-1.1,1.143-2.276,1.867-3.528,2.176
			c-1.252,0.309-2.55,0.463-3.89,0.463h-3.956l-1.254,6.264h-4.582L749.627,394.4 M753.485,398.16l-1.979,9.892
			c0.132,0.022,0.264,0.033,0.396,0.033h0.46c2.108,0.023,3.87-0.185,5.274-0.625c1.406-0.463,2.354-2.066,2.836-4.812
			c0.396-2.31,0-3.641-1.188-3.99c-1.166-0.353-2.626-0.518-4.384-0.494c-0.252,0.02-0.505,0.033-0.759,0.035h-0.691L753.485,398.16
			 M770.475,388.103h4.552l-1.286,6.299h4.088c2.242,0.045,3.912,0.506,5.012,1.387c1.122,0.877,1.452,2.549,0.99,5.012l-2.21,10.98
			h-4.616l2.11-10.486c0.22-1.1,0.152-1.881-0.198-2.34c-0.354-0.463-1.11-0.693-2.276-0.693l-3.659-0.029l-2.703,13.553h-4.552
			L770.475,388.103 M788.715,394.4h8.836c2.594,0.021,4.476,0.769,5.639,2.242c1.164,1.473,1.549,3.484,1.153,6.033
			c-0.159,1.189-0.506,2.346-1.022,3.428c-0.513,1.133-1.229,2.162-2.11,3.035c-1.1,1.143-2.275,1.867-3.528,2.176
			c-1.254,0.309-2.55,0.463-3.89,0.463h-3.958l-1.252,6.264h-4.584L788.715,394.4 M792.573,398.16l-1.979,9.892
			c0.133,0.022,0.266,0.033,0.397,0.033h0.46c2.108,0.023,3.87-0.185,5.274-0.625c1.408-0.463,2.353-2.066,2.836-4.812
			c0.396-2.31,0-3.641-1.188-3.99c-1.164-0.353-2.626-0.518-4.384-0.494c-0.252,0.02-0.505,0.033-0.758,0.035h-0.694L792.573,398.16
			"/>
	</g>
	<g opacity="0.4">
		<path fill="#FFFFFF" d="M665.627,119.4h8.836c2.594,0.022,4.472,0.77,5.638,2.242c1.166,1.472,1.552,3.484,1.154,6.034
			c-0.161,1.189-0.506,2.345-1.021,3.428c-0.514,1.131-1.229,2.16-2.11,3.034c-1.1,1.142-2.276,1.868-3.528,2.176
			c-1.252,0.308-2.55,0.462-3.89,0.462h-3.956l-1.254,6.264h-4.582L665.627,119.4 M669.485,123.16l-1.979,9.892
			c0.132,0.022,0.264,0.034,0.396,0.034h0.46c2.108,0.022,3.87-0.186,5.274-0.626c1.406-0.462,2.354-2.066,2.836-4.814
			c0.396-2.308,0-3.638-1.188-3.99c-1.166-0.354-2.626-0.516-4.384-0.494c-0.252,0.021-0.505,0.033-0.759,0.034h-0.691
			L669.485,123.16 M686.475,113.104h4.552l-1.286,6.298h4.088c2.242,0.044,3.912,0.506,5.012,1.386
			c1.122,0.878,1.452,2.55,0.99,5.012l-2.21,10.98h-4.616l2.11-10.486c0.22-1.1,0.152-1.88-0.198-2.34
			c-0.354-0.462-1.11-0.692-2.276-0.692l-3.659-0.032l-2.703,13.552h-4.552L686.475,113.104 M704.715,119.4h8.836
			c2.594,0.022,4.476,0.77,5.64,2.242c1.163,1.472,1.548,3.484,1.152,6.034c-0.16,1.189-0.506,2.346-1.022,3.428
			c-0.513,1.132-1.229,2.16-2.11,3.034c-1.1,1.142-2.276,1.868-3.528,2.176c-1.254,0.308-2.55,0.462-3.89,0.462h-3.958l-1.252,6.264
			h-4.584L704.715,119.4 M708.573,123.16l-1.979,9.892c0.132,0.022,0.266,0.034,0.397,0.034h0.46
			c2.108,0.022,3.87-0.186,5.274-0.626c1.408-0.462,2.354-2.066,2.836-4.814c0.396-2.308,0-3.638-1.188-3.99
			c-1.164-0.354-2.626-0.516-4.384-0.494c-0.252,0.021-0.505,0.033-0.758,0.034h-0.694L708.573,123.16"/>
	</g>
	<g opacity="0.4">
		<path fill="#FFFFFF" d="M1036.627,408.4h8.836c2.594,0.023,4.473,0.769,5.638,2.242c1.166,1.473,1.552,3.484,1.154,6.033
			c-0.161,1.189-0.506,2.346-1.021,3.428c-0.514,1.133-1.229,2.16-2.11,3.035c-1.1,1.143-2.276,1.867-3.528,2.176
			c-1.252,0.309-2.55,0.463-3.89,0.463h-3.956l-1.254,6.264h-4.582L1036.627,408.4 M1040.485,412.16l-1.979,9.891
			c0.132,0.021,0.266,0.033,0.397,0.033h0.46c2.108,0.023,3.868-0.186,5.274-0.625c1.406-0.463,2.354-2.066,2.836-4.815
			c0.396-2.309,0-3.639-1.188-3.988c-1.166-0.354-2.626-0.518-4.384-0.494c-0.253,0.02-0.505,0.033-0.76,0.035h-0.69
			L1040.485,412.16 M1057.475,402.103h4.552l-1.286,6.297h4.088c2.242,0.045,3.912,0.506,5.012,1.387
			c1.122,0.877,1.452,2.549,0.99,5.01l-2.21,10.98h-4.616l2.11-10.486c0.22-1.098,0.153-1.881-0.198-2.34
			c-0.354-0.463-1.11-0.695-2.276-0.695l-3.659-0.031l-2.703,13.555h-4.552L1057.475,402.103 M1075.715,408.4h8.836
			c2.594,0.023,4.476,0.769,5.64,2.242c1.163,1.473,1.548,3.484,1.152,6.033c-0.16,1.189-0.506,2.346-1.022,3.428
			c-0.512,1.133-1.229,2.162-2.11,3.035c-1.1,1.143-2.276,1.867-3.528,2.176c-1.254,0.309-2.55,0.463-3.89,0.463h-3.958
			l-1.252,6.264h-4.584L1075.715,408.4 M1079.573,412.16l-1.979,9.891c0.132,0.021,0.266,0.033,0.396,0.033h0.46
			c2.108,0.023,3.87-0.186,5.274-0.625c1.408-0.463,2.354-2.066,2.838-4.815c0.394-2.309,0-3.639-1.188-3.988
			c-1.164-0.354-2.626-0.518-4.384-0.494c-0.252,0.02-0.505,0.033-0.758,0.035h-0.694L1079.573,412.16"/>
	</g>
	<g opacity="0.4">
		<path fill="#FFFFFF" d="M648.627,596.4h8.836c2.594,0.023,4.472,0.77,5.638,2.242c1.166,1.473,1.552,3.484,1.154,6.033
			c-0.161,1.189-0.506,2.346-1.021,3.428c-0.514,1.133-1.229,2.16-2.11,3.035c-1.1,1.143-2.276,1.867-3.528,2.176
			c-1.252,0.308-2.55,0.463-3.89,0.463h-3.956l-1.254,6.264h-4.582L648.627,596.4 M652.485,600.16l-1.979,9.891
			c0.132,0.022,0.264,0.033,0.396,0.033h0.46c2.108,0.022,3.87-0.186,5.274-0.625c1.406-0.463,2.354-2.066,2.836-4.814
			c0.396-2.309,0-3.639-1.188-3.988c-1.166-0.354-2.626-0.518-4.384-0.494c-0.252,0.019-0.505,0.033-0.759,0.035h-0.691
			L652.485,600.16 M669.475,590.103h4.552l-1.286,6.297h4.088c2.242,0.045,3.912,0.506,5.012,1.387
			c1.122,0.877,1.452,2.549,0.99,5.01l-2.21,10.98h-4.616l2.11-10.486c0.22-1.098,0.152-1.881-0.198-2.34
			c-0.354-0.463-1.11-0.695-2.276-0.695l-3.659-0.031l-2.703,13.555h-4.552L669.475,590.103 M687.715,596.4h8.836
			c2.594,0.023,4.476,0.77,5.64,2.242c1.163,1.473,1.548,3.484,1.152,6.033c-0.16,1.189-0.506,2.346-1.022,3.428
			c-0.513,1.133-1.229,2.162-2.11,3.035c-1.1,1.143-2.276,1.867-3.528,2.176c-1.254,0.308-2.55,0.463-3.89,0.463h-3.958
			l-1.252,6.264h-4.584L687.715,596.4 M691.573,600.16l-1.979,9.891c0.132,0.022,0.266,0.033,0.397,0.033h0.46
			c2.108,0.022,3.87-0.186,5.274-0.625c1.408-0.463,2.354-2.066,2.836-4.814c0.396-2.309,0-3.639-1.188-3.988
			c-1.164-0.354-2.626-0.518-4.384-0.494c-0.252,0.019-0.505,0.033-0.758,0.035h-0.694L691.573,600.16"/>
	</g>
	<g opacity="0.4">
		<path fill="#FFFFFF" d="M1196.627,179.4h8.836c2.594,0.022,4.473,0.77,5.638,2.242c1.166,1.472,1.552,3.484,1.154,6.034
			c-0.161,1.189-0.506,2.345-1.021,3.428c-0.514,1.131-1.229,2.16-2.11,3.034c-1.1,1.142-2.276,1.868-3.528,2.176
			c-1.252,0.308-2.55,0.462-3.89,0.462h-3.956l-1.254,6.264h-4.582L1196.627,179.4 M1200.485,183.16l-1.979,9.892
			c0.132,0.022,0.266,0.034,0.396,0.034h0.46c2.108,0.022,3.868-0.186,5.274-0.626c1.406-0.462,2.354-2.066,2.836-4.814
			c0.396-2.308,0-3.638-1.188-3.99c-1.166-0.352-2.626-0.516-4.384-0.494c-0.253,0.021-0.505,0.033-0.76,0.034h-0.69
			L1200.485,183.16 M1217.475,173.104h4.552l-1.286,6.298h4.088c2.242,0.044,3.912,0.506,5.012,1.386
			c1.122,0.878,1.452,2.55,0.99,5.012l-2.21,10.98h-4.616l2.11-10.486c0.22-1.1,0.153-1.88-0.198-2.34
			c-0.354-0.462-1.11-0.692-2.276-0.692l-3.659-0.032l-2.703,13.552h-4.552L1217.475,173.104 M1235.715,179.4h8.836
			c2.594,0.022,4.476,0.77,5.64,2.242c1.163,1.472,1.548,3.484,1.152,6.034c-0.16,1.189-0.506,2.346-1.022,3.428
			c-0.512,1.132-1.229,2.16-2.11,3.034c-1.1,1.142-2.276,1.868-3.528,2.176c-1.254,0.308-2.55,0.462-3.89,0.462h-3.958l-1.252,6.264
			h-4.584L1235.715,179.4 M1239.573,183.16l-1.979,9.892c0.132,0.022,0.266,0.034,0.396,0.034h0.46
			c2.108,0.022,3.87-0.186,5.274-0.626c1.408-0.462,2.354-2.066,2.838-4.814c0.394-2.308,0-3.638-1.188-3.99
			c-1.164-0.352-2.626-0.516-4.384-0.494c-0.252,0.021-0.505,0.033-0.758,0.034h-0.694L1239.573,183.16"/>
	</g>
	<g opacity="0.4">
		<path fill="#FFFFFF" d="M1100.627,43.4h8.836c2.594,0.022,4.473,0.77,5.638,2.242c1.166,1.472,1.552,3.484,1.154,6.034
			c-0.161,1.189-0.506,2.345-1.021,3.428c-0.514,1.131-1.229,2.16-2.11,3.034c-1.1,1.142-2.276,1.868-3.528,2.176
			c-1.252,0.308-2.55,0.462-3.89,0.462h-3.956l-1.254,6.264h-4.582L1100.627,43.4 M1104.485,47.16l-1.979,9.892
			c0.132,0.022,0.266,0.034,0.396,0.034h0.46c2.108,0.022,3.868-0.186,5.274-0.626c1.406-0.462,2.354-2.066,2.836-4.814
			c0.396-2.308,0-3.638-1.188-3.99c-1.166-0.352-2.626-0.516-4.384-0.494c-0.253,0.021-0.505,0.033-0.76,0.034h-0.69L1104.485,47.16
			 M1121.475,37.104h4.552l-1.286,6.298h4.088c2.242,0.044,3.912,0.506,5.012,1.386c1.122,0.878,1.452,2.55,0.99,5.012l-2.21,10.98
			h-4.616l2.11-10.486c0.22-1.1,0.153-1.88-0.198-2.34c-0.354-0.462-1.11-0.692-2.276-0.692l-3.659-0.032l-2.703,13.552h-4.552
			L1121.475,37.104 M1139.715,43.4h8.836c2.594,0.022,4.476,0.77,5.64,2.242c1.163,1.472,1.548,3.484,1.152,6.034
			c-0.16,1.189-0.506,2.346-1.022,3.428c-0.512,1.132-1.229,2.16-2.11,3.034c-1.1,1.142-2.276,1.868-3.528,2.176
			c-1.254,0.308-2.55,0.462-3.89,0.462h-3.958l-1.252,6.264h-4.584L1139.715,43.4 M1143.573,47.16l-1.979,9.892
			c0.132,0.022,0.266,0.034,0.396,0.034h0.46c2.108,0.022,3.87-0.186,5.274-0.626c1.408-0.462,2.354-2.066,2.838-4.814
			c0.394-2.308,0-3.638-1.188-3.99c-1.164-0.352-2.626-0.516-4.384-0.494c-0.252,0.021-0.505,0.033-0.758,0.034h-0.694
			L1143.573,47.16"/>
	</g>
	<g opacity="0.4">
		<path fill="#FFFFFF" d="M1233.627,487.4h8.836c2.594,0.023,4.473,0.77,5.638,2.242c1.166,1.473,1.552,3.484,1.154,6.033
			c-0.161,1.189-0.506,2.346-1.021,3.428c-0.514,1.133-1.229,2.16-2.11,3.035c-1.1,1.143-2.276,1.867-3.528,2.176
			c-1.252,0.309-2.55,0.463-3.89,0.463h-3.956l-1.254,6.264h-4.582L1233.627,487.4 M1237.485,491.16l-1.979,9.891
			c0.132,0.021,0.266,0.033,0.396,0.033h0.46c2.108,0.023,3.868-0.186,5.274-0.625c1.406-0.463,2.354-2.066,2.836-4.815
			c0.396-2.309,0-3.639-1.188-3.988c-1.166-0.354-2.626-0.518-4.384-0.494c-0.253,0.02-0.505,0.033-0.76,0.035h-0.69
			L1237.485,491.16 M1254.475,481.103h4.552l-1.286,6.297h4.088c2.242,0.045,3.912,0.506,5.012,1.387
			c1.122,0.877,1.452,2.549,0.99,5.01l-2.21,10.98h-4.616l2.11-10.486c0.22-1.098,0.153-1.881-0.198-2.34
			c-0.354-0.463-1.11-0.695-2.276-0.695l-3.659-0.031l-2.703,13.555h-4.552L1254.475,481.103 M1272.715,487.4h8.836
			c2.594,0.023,4.476,0.77,5.64,2.242c1.163,1.473,1.548,3.484,1.152,6.033c-0.16,1.189-0.506,2.346-1.022,3.428
			c-0.512,1.133-1.229,2.162-2.11,3.035c-1.1,1.143-2.276,1.867-3.528,2.176c-1.254,0.309-2.55,0.463-3.89,0.463h-3.958
			l-1.252,6.264h-4.584L1272.715,487.4 M1276.573,491.16l-1.979,9.891c0.132,0.021,0.266,0.033,0.396,0.033h0.46
			c2.108,0.023,3.87-0.186,5.274-0.625c1.408-0.463,2.354-2.066,2.838-4.815c0.394-2.309,0-3.639-1.188-3.988
			c-1.164-0.354-2.626-0.518-4.384-0.494c-0.252,0.02-0.505,0.033-0.758,0.035h-0.694L1276.573,491.16"/>
	</g>
	<g opacity="0.4">
		<path fill="#FFFFFF" d="M144.627,608.4h8.836c2.594,0.023,4.474,0.77,5.638,2.242c1.166,1.473,1.55,3.484,1.154,6.033
			c-0.16,1.189-0.505,2.346-1.022,3.428c-0.512,1.133-1.228,2.16-2.11,3.035c-1.1,1.143-2.274,1.867-3.528,2.176
			c-1.254,0.308-2.55,0.463-3.89,0.463h-3.956l-1.252,6.264h-4.584L144.627,608.4 M148.485,612.16l-1.978,9.891
			c0.132,0.022,0.264,0.033,0.396,0.033h0.462c2.11,0.022,3.868-0.186,5.276-0.625c1.406-0.463,2.352-2.066,2.836-4.814
			c0.396-2.309,0-3.639-1.188-3.988c-1.166-0.354-2.626-0.518-4.386-0.494c-0.252,0.019-0.505,0.033-0.758,0.035h-0.692
			L148.485,612.16 M165.475,602.103h4.55l-1.286,6.297h4.088c2.242,0.045,3.912,0.506,5.012,1.387
			c1.122,0.877,1.452,2.549,0.99,5.01l-2.21,10.98h-4.616l2.11-10.486c0.22-1.098,0.154-1.881-0.198-2.34
			c-0.352-0.463-1.11-0.695-2.276-0.695l-3.66-0.031l-2.704,13.555h-4.55L165.475,602.103 M183.715,608.4h8.836
			c2.594,0.023,4.474,0.77,5.638,2.242c1.166,1.473,1.55,3.484,1.154,6.033c-0.16,1.189-0.505,2.346-1.022,3.428
			c-0.512,1.133-1.227,2.162-2.11,3.035c-1.098,1.143-2.274,1.867-3.528,2.176c-1.254,0.308-2.55,0.463-3.89,0.463h-3.956
			l-1.252,6.264H179L183.715,608.4 M187.572,612.16l-1.98,9.891c0.132,0.022,0.264,0.033,0.396,0.033h0.462
			c2.11,0.022,3.868-0.186,5.276-0.625c1.406-0.463,2.352-2.066,2.834-4.814c0.396-2.309,0-3.639-1.186-3.988
			c-1.166-0.354-2.626-0.518-4.386-0.494c-0.252,0.019-0.505,0.033-0.758,0.035h-0.692L187.572,612.16"/>
	</g>
	<g opacity="0.4">
		<path fill="#FFFFFF" d="M224.62,267.665c-0.088,0-0.175,0.023-0.252,0.067c-0.156,0.091-0.251,0.258-0.252,0.438v12.898
			c0,0.126-0.06,0.239-0.17,0.303c-0.109,0.063-0.244,0.063-0.353,0l-2.108-1.213c-0.312-0.182-0.699-0.182-1.012,0l-8.413,4.855
			c-0.314,0.18-0.506,0.53-0.506,0.893v9.71c0,0.364,0.192,0.696,0.506,0.877l8.413,4.856c0.314,0.182,0.697,0.182,1.012,0
			l8.413-4.856c0.315-0.181,0.505-0.513,0.505-0.877v-24.208c0-0.37-0.201-0.714-0.522-0.894l-5.007-2.8
			C224.795,267.675,224.708,267.658,224.62,267.665L224.62,267.665z M170.503,279.785c-0.16,0.001-0.316,0.042-0.456,0.119
			l-8.413,4.856c-0.313,0.181-0.506,0.516-0.505,0.877l0.017,13.03c0,0.183,0.094,0.35,0.253,0.439c0.156,0.094,0.35,0.094,0.505,0
			l4.99-2.866c0.317-0.179,0.516-0.512,0.523-0.876v-6.085c0-0.364,0.19-0.697,0.505-0.877l2.124-1.231
			c0.313-0.18,0.699-0.18,1.012,0l2.125,1.23c0.314,0.18,0.505,0.514,0.505,0.878v6.086c0,0.362,0.209,0.69,0.523,0.876l4.99,2.866
			c0.155,0.094,0.35,0.094,0.505,0c0.157-0.09,0.254-0.257,0.253-0.438l0.017-13.031c0-0.366-0.19-0.696-0.506-0.878l-8.413-4.856
			c-0.14-0.077-0.296-0.118-0.456-0.118h-0.098V279.785L170.503,279.785z M246.1,279.905c-0.175,0-0.348,0.044-0.505,0.135
			l-8.413,4.855c-0.313,0.18-0.506,0.515-0.505,0.876v9.71c0,0.366,0.205,0.696,0.522,0.877l8.345,4.754
			c0.309,0.175,0.685,0.189,0.995,0.017l5.059-2.815c0.162-0.087,0.265-0.255,0.269-0.44c0.001-0.181-0.095-0.348-0.252-0.437
			l-8.464-4.856c-0.163-0.095-0.265-0.267-0.27-0.455v-3.035c0-0.181,0.113-0.347,0.27-0.438l2.63-1.517
			c0.156-0.091,0.349-0.091,0.505,0l2.63,1.517c0.157,0.09,0.254,0.257,0.254,0.438v2.394c-0.001,0.181,0.096,0.349,0.253,0.438
			c0.156,0.092,0.349,0.092,0.505,0l5.04-2.933c0.314-0.182,0.507-0.516,0.507-0.877v-2.344c0-0.361-0.192-0.695-0.506-0.877
			l-8.362-4.855C246.452,279.95,246.277,279.904,246.1,279.905L246.1,279.905z M220.946,287.155c0.044,0,0.095,0.01,0.134,0.033
			l2.884,1.669c0.081,0.044,0.132,0.127,0.135,0.219v3.337c-0.004,0.092-0.055,0.175-0.135,0.22l-2.884,1.669
			c-0.078,0.046-0.174,0.046-0.252,0l-2.883-1.668c-0.08-0.045-0.131-0.129-0.134-0.221v-3.337c0-0.091,0.056-0.173,0.134-0.22
			l2.883-1.668C220.863,287.166,220.904,287.154,220.946,287.155z"/>
		<path opacity="0.6" fill="#FFFFFF" enable-background="new    " d="M271.305,279.669c-0.293,0-0.576,0.06-0.827,0.202
			l-7.941,4.585c-0.514,0.302-0.828,0.854-0.826,1.45v9.155c0,0.594,0.313,1.153,0.826,1.45l2.074,1.197
			c1.008,0.496,1.379,0.489,1.838,0.489c1.49,0,2.343-0.905,2.343-2.48v-9.035c0-0.127-0.111-0.22-0.236-0.22h-0.995
			c-0.128,0-0.237,0.093-0.237,0.22v9.036c0,0.697-0.726,1.399-1.905,0.81l-2.157-1.264c-0.077-0.042-0.135-0.115-0.135-0.203
			v-9.155c0.005-0.092,0.056-0.175,0.135-0.22l7.924-4.568c0.073-0.042,0.163-0.042,0.236,0l7.923,4.569
			c0.08,0.045,0.13,0.128,0.135,0.219v9.155c0.002,0.088-0.043,0.172-0.118,0.219l-7.94,4.57c-0.073,0.041-0.163,0.041-0.236,0
			l-2.041-1.214c-0.063-0.034-0.139-0.034-0.202,0c-0.562,0.32-0.668,0.356-1.197,0.54c-0.13,0.045-0.328,0.116,0.068,0.337
			l2.663,1.567c0.254,0.147,0.537,0.219,0.827,0.219c0.293,0,0.572-0.072,0.825-0.22l7.94-4.568c0.514-0.3,0.826-0.855,0.826-1.45
			v-9.155c0-0.594-0.312-1.152-0.825-1.45l-7.941-4.585C271.877,279.733,271.593,279.663,271.305,279.669z M195.775,279.854
			c-0.174,0-0.35,0.044-0.506,0.135l-8.413,4.838c-0.314,0.188-0.506,0.527-0.505,0.894v9.71c0,0.364,0.19,0.695,0.505,0.877
			l8.413,4.856c0.315,0.182,0.697,0.182,1.012,0l8.413-4.856c0.314-0.182,0.505-0.513,0.505-0.876v-9.711
			c0-0.364-0.19-0.712-0.505-0.894l-8.413-4.838C196.127,279.9,195.953,279.854,195.775,279.854L195.775,279.854z M283.089,279.904
			v0.237h0.657v1.736h0.27v-1.736h0.675v-0.236L283.089,279.904L283.089,279.904z M284.926,279.904v1.973h0.253v-1.163
			c0-0.048,0.002-0.121,0-0.22c-0.003-0.1,0-0.187,0-0.235v-0.051l0.557,1.668h0.269l0.574-1.668c0,0.105-0.014,0.209-0.017,0.303
			v1.366h0.253v-1.972h-0.372l-0.572,1.669l-0.556-1.67H284.926L284.926,279.904z M273.428,286.21c-2.26,0-3.605,0.963-3.605,2.562
			c0,1.737,1.336,2.214,3.507,2.429c2.597,0.254,2.798,0.635,2.798,1.146c0,0.887-0.707,1.264-2.377,1.264
			c-2.098,0-2.56-0.524-2.714-1.568c-0.018-0.112-0.104-0.202-0.22-0.202h-1.028c-0.129,0.003-0.233,0.107-0.235,0.236
			c0,1.336,0.728,2.917,4.197,2.917c2.513,0,3.962-0.986,3.962-2.714c0-1.713-1.171-2.173-3.608-2.495
			c-2.463-0.326-2.697-0.486-2.697-1.062c0-0.476,0.199-1.112,2.021-1.112c1.63,0,2.23,0.352,2.479,1.449
			c0.021,0.105,0.111,0.183,0.219,0.186h1.028c0.062,0,0.125-0.04,0.169-0.084c0.043-0.05,0.073-0.103,0.068-0.168
			C277.231,287.099,275.97,286.21,273.428,286.21z M246.083,288.519c-0.034,0-0.071,0-0.101,0.017l-1.62,0.945
			c-0.061,0.034-0.099,0.098-0.1,0.167v1.855c0,0.07,0.04,0.133,0.1,0.168l1.62,0.928c0.057,0.035,0.128,0.035,0.185,0l1.618-0.928
			c0.062-0.034,0.101-0.098,0.102-0.168v-1.855c-0.001-0.07-0.041-0.134-0.102-0.167l-1.618-0.945
			C246.137,288.519,246.117,288.519,246.083,288.519z"/>
	</g>
	<g opacity="0.4">
		<path fill="#FFFFFF" d="M765.62,501.664c-0.278,0.002-0.504,0.229-0.506,0.506v12.899c0.004,0.189-0.146,0.348-0.336,0.352
			c-0.065,0.002-0.13-0.016-0.187-0.049l-2.107-1.213c-0.313-0.184-0.699-0.184-1.014,0l-8.413,4.854
			c-0.312,0.184-0.506,0.531-0.506,0.896v9.711c0,0.361,0.191,0.693,0.506,0.877l8.413,4.854c0.314,0.184,0.696,0.184,1.014,0
			l8.413-4.854c0.312-0.184,0.505-0.514,0.505-0.877V505.41c-0.001-0.371-0.2-0.713-0.523-0.897l-5.007-2.801
			C765.795,501.675,765.708,501.658,765.62,501.664L765.62,501.664z M711.502,513.787c-0.159,0-0.314,0.041-0.455,0.117
			l-8.412,4.856c-0.312,0.18-0.506,0.516-0.506,0.877l0.019,13.029c0,0.184,0.094,0.35,0.252,0.438c0.154,0.098,0.35,0.098,0.506,0
			l4.988-2.863c0.317-0.182,0.518-0.516,0.523-0.877v-6.086c0-0.363,0.19-0.695,0.505-0.877l2.124-1.23
			c0.16-0.09,0.328-0.135,0.506-0.135c0.174,0,0.354,0.043,0.506,0.135l2.125,1.23c0.314,0.182,0.508,0.514,0.508,0.877v6.086
			c0,0.359,0.209,0.688,0.521,0.877l4.989,2.863c0.155,0.098,0.35,0.098,0.505,0c0.157-0.09,0.254-0.258,0.254-0.438l0.019-13.031
			c0-0.365-0.19-0.693-0.508-0.877l-8.413-4.854c-0.139-0.076-0.295-0.117-0.453-0.117H711.502L711.502,513.787z M787.1,513.906
			c-0.176,0-0.348,0.045-0.506,0.135l-8.412,4.854c-0.312,0.184-0.506,0.518-0.506,0.881v9.709c0,0.363,0.205,0.693,0.522,0.879
			l8.345,4.754c0.309,0.176,0.686,0.188,0.994,0.016l5.059-2.814c0.16-0.09,0.271-0.256,0.271-0.438
			c0.002-0.182-0.096-0.35-0.252-0.438l-8.465-4.856c-0.163-0.096-0.266-0.268-0.271-0.455v-3.035c0-0.18,0.113-0.348,0.271-0.438
			l2.63-1.521c0.155-0.09,0.35-0.09,0.507,0l2.63,1.521c0.156,0.09,0.253,0.256,0.253,0.438v2.394c0,0.182,0.097,0.348,0.254,0.438
			c0.156,0.096,0.35,0.096,0.505,0l5.04-2.932c0.315-0.182,0.508-0.516,0.508-0.877v-2.344c0-0.361-0.191-0.695-0.507-0.877
			l-8.36-4.855C787.454,513.953,787.278,513.904,787.1,513.906L787.1,513.906z M761.945,521.156c0.045,0,0.096,0.01,0.135,0.033
			l2.884,1.668c0.08,0.043,0.132,0.127,0.135,0.219v3.338c-0.003,0.092-0.055,0.174-0.135,0.219l-2.884,1.67
			c-0.077,0.047-0.175,0.047-0.252,0l-2.884-1.668c-0.081-0.045-0.132-0.129-0.134-0.221v-3.338c0-0.09,0.056-0.172,0.134-0.219
			l2.884-1.67C761.863,521.166,761.903,521.154,761.945,521.156L761.945,521.156z"/>
		<path opacity="0.6" fill="#FFFFFF" enable-background="new    " d="M812.305,513.668c-0.293,0-0.576,0.06-0.826,0.203
			l-7.939,4.586c-0.514,0.301-0.829,0.853-0.826,1.449v9.152c0,0.596,0.312,1.152,0.826,1.449l2.074,1.197
			c1.008,0.496,1.379,0.49,1.838,0.49c1.488,0,2.344-0.906,2.344-2.481v-9.035c0-0.127-0.111-0.221-0.236-0.221h-0.992
			c-0.131,0-0.237,0.094-0.237,0.221v9.035c0,0.697-0.728,1.4-1.905,0.812l-2.157-1.266c-0.077-0.043-0.136-0.115-0.136-0.203
			v-9.152c0-0.088,0.059-0.178,0.136-0.221l7.925-4.566c0.072-0.043,0.162-0.043,0.235,0l7.923,4.566
			c0.076,0.045,0.138,0.133,0.138,0.221v9.152c0.002,0.088-0.044,0.172-0.118,0.221l-7.94,4.568c-0.073,0.039-0.162,0.039-0.235,0
			l-2.039-1.215c-0.063-0.033-0.141-0.033-0.203,0c-0.563,0.32-0.668,0.355-1.196,0.539c-0.13,0.045-0.328,0.115,0.067,0.338
			l2.664,1.566c0.254,0.146,0.535,0.221,0.824,0.221c0.295,0,0.572-0.072,0.826-0.221l7.94-4.57
			c0.514-0.297,0.823-0.854,0.823-1.447v-9.152c0-0.596-0.312-1.152-0.822-1.449l-7.941-4.586
			C812.879,513.734,812.594,513.664,812.305,513.668L812.305,513.668z M736.775,513.853c-0.177,0-0.352,0.045-0.506,0.137
			l-8.413,4.838c-0.314,0.18-0.507,0.531-0.507,0.895v9.709c0,0.365,0.19,0.697,0.507,0.881l8.413,4.854
			c0.314,0.182,0.695,0.182,1.013,0l8.412-4.854c0.312-0.184,0.506-0.518,0.506-0.879v-9.711c0-0.361-0.191-0.713-0.506-0.895
			l-8.412-4.84C737.128,513.9,736.953,513.853,736.775,513.853L736.775,513.853z M824.089,513.904v0.236h0.657v1.736h0.269v-1.736
			h0.677v-0.234h-1.604V513.904z M825.926,513.904v1.975h0.254v-1.164c0-0.047,0.002-0.121,0-0.219c-0.004-0.102,0-0.19,0-0.236
			v-0.051l0.559,1.67h0.27l0.573-1.67c0,0.106-0.015,0.209-0.018,0.303c-0.002,0.094,0,0.162,0,0.203v1.164h0.254v-1.973h-0.371
			l-0.572,1.67l-0.557-1.67h-0.392L825.926,513.904z M814.428,520.208c-2.26,0-3.605,0.963-3.605,2.561
			c0,1.736,1.337,2.217,3.508,2.432c2.596,0.254,2.798,0.635,2.798,1.144c0,0.889-0.707,1.268-2.378,1.268
			c-2.098,0-2.561-0.525-2.714-1.568c-0.018-0.113-0.104-0.203-0.22-0.203h-1.027c-0.129,0.002-0.233,0.107-0.236,0.236
			c0,1.336,0.73,2.916,4.197,2.916c2.514,0,3.963-0.986,3.963-2.713c0-1.715-1.172-2.178-3.605-2.496
			c-2.466-0.326-2.697-0.484-2.697-1.062c0-0.475,0.197-1.111,2.02-1.111c1.633,0,2.233,0.352,2.48,1.449
			c0.021,0.106,0.111,0.184,0.219,0.186h1.028c0.061,0,0.125-0.039,0.169-0.084c0.044-0.049,0.072-0.104,0.065-0.168
			C818.23,521.099,816.97,520.208,814.428,520.208L814.428,520.208z M787.083,522.519c-0.034,0-0.071,0-0.101,0.018l-1.62,0.943
			c-0.062,0.035-0.102,0.1-0.103,0.17v1.854c0,0.07,0.04,0.133,0.104,0.168l1.619,0.928c0.057,0.035,0.128,0.035,0.185,0
			l1.618-0.928c0.062-0.033,0.101-0.098,0.102-0.168v-1.854c-0.001-0.07-0.04-0.135-0.102-0.17l-1.618-0.943
			C787.137,522.519,787.117,522.519,787.083,522.519L787.083,522.519z"/>
	</g>
	<g opacity="0.4">
		<path fill="#FFFFFF" d="M869.62,190.665c-0.089,0-0.175,0.023-0.252,0.067c-0.156,0.091-0.252,0.257-0.253,0.438v12.898
			c0.003,0.124-0.063,0.24-0.168,0.303c-0.109,0.064-0.245,0.064-0.354,0l-2.107-1.213c-0.313-0.182-0.699-0.182-1.014,0
			l-8.413,4.855c-0.312,0.18-0.506,0.53-0.506,0.893v9.71c0,0.364,0.19,0.696,0.506,0.877l8.413,4.856
			c0.315,0.182,0.696,0.182,1.014,0l8.412-4.856c0.314-0.181,0.506-0.513,0.506-0.877v-24.208c0-0.37-0.201-0.714-0.523-0.894
			l-5.007-2.8C869.796,190.675,869.708,190.658,869.62,190.665L869.62,190.665z M815.502,202.785
			c-0.159,0.001-0.314,0.042-0.455,0.119l-8.412,4.856c-0.312,0.181-0.507,0.515-0.506,0.877l0.018,13.03
			c0,0.183,0.096,0.35,0.254,0.439c0.154,0.094,0.35,0.094,0.506,0l4.988-2.866c0.317-0.179,0.517-0.512,0.523-0.876v-6.085
			c0-0.364,0.19-0.697,0.505-0.877l2.124-1.231c0.16-0.09,0.328-0.134,0.506-0.134c0.174,0,0.354,0.043,0.506,0.134l2.125,1.23
			c0.314,0.18,0.506,0.514,0.506,0.878v6.086c0,0.362,0.209,0.69,0.523,0.876l4.989,2.866c0.155,0.094,0.35,0.094,0.505,0
			c0.157-0.089,0.254-0.257,0.254-0.438l0.018-13.031c0-0.366-0.189-0.696-0.506-0.878l-8.414-4.856
			c-0.139-0.077-0.295-0.118-0.455-0.118h-0.102V202.785L815.502,202.785z M891.1,202.905c-0.176,0-0.348,0.044-0.506,0.135
			l-8.412,4.855c-0.311,0.18-0.506,0.515-0.506,0.876v9.71c0,0.366,0.205,0.696,0.522,0.877l8.345,4.754
			c0.309,0.175,0.686,0.189,0.994,0.017l5.059-2.815c0.16-0.09,0.271-0.256,0.271-0.44c0.001-0.181-0.096-0.348-0.252-0.437
			l-8.465-4.856c-0.163-0.095-0.266-0.267-0.271-0.455v-3.035c0-0.181,0.113-0.347,0.271-0.438l2.63-1.517
			c0.155-0.091,0.35-0.091,0.507,0l2.63,1.517c0.156,0.091,0.253,0.257,0.253,0.438v2.394c0,0.182,0.097,0.348,0.254,0.438
			c0.156,0.092,0.35,0.092,0.505,0l5.04-2.933c0.315-0.182,0.508-0.516,0.508-0.877v-2.344c0-0.361-0.191-0.695-0.507-0.877
			l-8.36-4.855C891.452,202.95,891.277,202.905,891.1,202.905z M865.945,210.155c0.045,0,0.096,0.01,0.135,0.033l2.884,1.669
			c0.081,0.044,0.132,0.127,0.135,0.219v3.337c-0.003,0.092-0.055,0.175-0.135,0.22l-2.884,1.669c-0.078,0.046-0.174,0.046-0.252,0
			l-2.884-1.668c-0.081-0.045-0.132-0.129-0.134-0.221v-3.337c0-0.091,0.056-0.173,0.134-0.22l2.884-1.668
			C865.863,210.166,865.903,210.155,865.945,210.155L865.945,210.155z"/>
		<path opacity="0.6" fill="#FFFFFF" enable-background="new    " d="M916.305,202.669c-0.293,0-0.576,0.06-0.826,0.202
			l-7.939,4.585c-0.514,0.302-0.829,0.854-0.826,1.45v9.155c0,0.594,0.312,1.153,0.826,1.45l2.074,1.197
			c1.008,0.496,1.379,0.489,1.838,0.489c1.488,0,2.344-0.905,2.344-2.48v-9.035c0-0.127-0.111-0.22-0.236-0.22h-0.992
			c-0.131,0-0.237,0.093-0.237,0.22v9.036c0,0.697-0.728,1.399-1.905,0.81l-2.157-1.264c-0.077-0.042-0.136-0.115-0.136-0.203
			v-9.155c0-0.087,0.059-0.175,0.136-0.22l7.925-4.568c0.072-0.042,0.162-0.042,0.235,0l7.923,4.569
			c0.076,0.045,0.138,0.13,0.138,0.219v9.155c0.001,0.088-0.044,0.172-0.118,0.219l-7.94,4.57c-0.073,0.041-0.162,0.041-0.235,0
			l-2.039-1.214c-0.064-0.034-0.141-0.034-0.203,0c-0.563,0.32-0.668,0.356-1.196,0.54c-0.13,0.045-0.328,0.116,0.067,0.337
			l2.664,1.567c0.254,0.147,0.535,0.219,0.824,0.219c0.295,0,0.572-0.072,0.826-0.22l7.94-4.568c0.514-0.3,0.823-0.854,0.823-1.45
			v-9.155c0-0.594-0.312-1.152-0.822-1.45l-7.941-4.585C916.879,202.733,916.594,202.664,916.305,202.669L916.305,202.669z
			 M840.775,202.854c-0.177,0-0.352,0.044-0.506,0.135l-8.414,4.838c-0.314,0.188-0.506,0.527-0.504,0.894v9.71
			c0,0.364,0.188,0.695,0.504,0.877l8.414,4.856c0.314,0.182,0.695,0.182,1.013,0l8.412-4.856c0.312-0.181,0.506-0.515,0.506-0.876
			v-9.711c0-0.364-0.191-0.712-0.506-0.894l-8.412-4.838C841.128,202.9,840.953,202.854,840.775,202.854L840.775,202.854z
			 M928.089,202.904v0.237h0.657v1.736h0.269v-1.736h0.677v-0.236h-1.604V202.904z M929.926,202.904v1.973h0.254v-1.163
			c0-0.048,0.002-0.121,0-0.22c-0.004-0.1,0-0.187,0-0.235v-0.051l0.559,1.668h0.27l0.573-1.668c0,0.105-0.015,0.209-0.018,0.303
			c-0.002,0.092,0,0.162,0,0.203v1.163h0.254v-1.972h-0.371l-0.572,1.669l-0.557-1.67H929.926L929.926,202.904z M918.428,209.21
			c-2.26,0-3.605,0.963-3.605,2.562c0,1.737,1.337,2.214,3.508,2.429c2.596,0.254,2.798,0.635,2.798,1.146
			c0,0.887-0.707,1.264-2.378,1.264c-2.098,0-2.561-0.524-2.714-1.568c-0.018-0.112-0.104-0.202-0.22-0.202h-1.027
			c-0.13,0.002-0.233,0.107-0.236,0.236c0,1.336,0.73,2.917,4.197,2.917c2.514,0,3.963-0.986,3.963-2.714
			c0-1.713-1.172-2.173-3.606-2.495c-2.466-0.326-2.697-0.486-2.697-1.062c0-0.476,0.197-1.112,2.02-1.112
			c1.633,0,2.233,0.352,2.48,1.449c0.021,0.105,0.111,0.183,0.219,0.186h1.028c0.061,0,0.125-0.04,0.169-0.084
			c0.044-0.05,0.072-0.103,0.065-0.168C922.23,210.099,920.97,209.21,918.428,209.21L918.428,209.21z M891.083,211.519
			c-0.034,0-0.071,0-0.101,0.017l-1.62,0.945c-0.062,0.034-0.101,0.097-0.103,0.167v1.855c0,0.07,0.04,0.133,0.104,0.168
			l1.619,0.928c0.057,0.035,0.128,0.035,0.185,0l1.618-0.928c0.062-0.033,0.101-0.098,0.102-0.168v-1.855
			c-0.001-0.07-0.04-0.134-0.102-0.167l-1.618-0.945C891.137,211.519,891.117,211.519,891.083,211.519z"/>
	</g>
	<g opacity="0.4">
		<path fill="#FFFFFF" d="M269.62,96.665c-0.088,0-0.175,0.023-0.252,0.067c-0.156,0.091-0.251,0.258-0.252,0.438v12.898
			c0,0.126-0.06,0.239-0.17,0.303c-0.109,0.063-0.244,0.063-0.353,0l-2.108-1.213c-0.312-0.182-0.699-0.182-1.012,0l-8.413,4.855
			c-0.314,0.18-0.506,0.53-0.506,0.893v9.71c0,0.364,0.192,0.696,0.506,0.877l8.413,4.856c0.314,0.182,0.697,0.182,1.012,0
			l8.413-4.856c0.315-0.181,0.505-0.513,0.505-0.877v-24.208c0-0.37-0.201-0.714-0.522-0.894l-5.007-2.8
			C269.795,96.675,269.708,96.658,269.62,96.665L269.62,96.665z M215.503,108.785c-0.16,0.001-0.316,0.042-0.456,0.119l-8.413,4.856
			c-0.313,0.181-0.506,0.516-0.505,0.877l0.017,13.03c0,0.183,0.094,0.35,0.253,0.439c0.156,0.094,0.35,0.094,0.505,0l4.99-2.866
			c0.317-0.179,0.516-0.512,0.523-0.876v-6.085c0-0.364,0.19-0.697,0.505-0.877l2.124-1.231c0.313-0.18,0.699-0.18,1.012,0
			l2.125,1.23c0.314,0.18,0.505,0.514,0.505,0.878v6.086c0,0.362,0.209,0.69,0.523,0.876l4.99,2.866c0.155,0.094,0.35,0.094,0.505,0
			c0.157-0.09,0.254-0.257,0.253-0.438l0.017-13.031c0-0.366-0.19-0.696-0.506-0.877l-8.413-4.854
			c-0.14-0.077-0.296-0.118-0.456-0.118h-0.098V108.785L215.503,108.785z M291.1,108.905c-0.175,0-0.348,0.044-0.505,0.135
			l-8.413,4.855c-0.313,0.18-0.506,0.515-0.505,0.876v9.71c0,0.366,0.205,0.696,0.523,0.877l8.345,4.754
			c0.309,0.175,0.685,0.189,0.995,0.017l5.059-2.815c0.162-0.087,0.265-0.255,0.269-0.44c0.001-0.181-0.095-0.348-0.252-0.437
			l-8.464-4.856c-0.163-0.095-0.265-0.267-0.27-0.455v-3.035c0-0.181,0.113-0.347,0.27-0.438l2.63-1.517
			c0.156-0.091,0.349-0.091,0.505,0l2.63,1.517c0.157,0.09,0.254,0.257,0.254,0.438v2.394c-0.001,0.181,0.096,0.349,0.253,0.438
			c0.156,0.092,0.349,0.092,0.505,0l5.04-2.933c0.314-0.182,0.507-0.516,0.507-0.877v-2.344c0-0.361-0.192-0.695-0.506-0.877
			l-8.362-4.855C291.452,108.95,291.277,108.904,291.1,108.905z M265.946,116.155c0.044,0,0.095,0.01,0.134,0.033l2.884,1.669
			c0.081,0.044,0.132,0.127,0.135,0.219v3.337c-0.004,0.092-0.055,0.175-0.135,0.22l-2.884,1.669c-0.078,0.046-0.174,0.046-0.252,0
			l-2.883-1.668c-0.08-0.045-0.131-0.129-0.134-0.221v-3.337c0-0.091,0.056-0.173,0.134-0.22l2.883-1.668
			C265.863,116.166,265.904,116.154,265.946,116.155z"/>
		<path opacity="0.6" fill="#FFFFFF" enable-background="new    " d="M316.305,108.669c-0.293,0-0.576,0.06-0.827,0.202
			l-7.941,4.585c-0.514,0.302-0.828,0.854-0.826,1.45v9.155c0,0.594,0.313,1.153,0.826,1.45l2.074,1.197
			c1.008,0.496,1.379,0.489,1.838,0.489c1.49,0,2.343-0.905,2.343-2.48v-9.035c0-0.127-0.111-0.22-0.236-0.22h-0.995
			c-0.128,0-0.237,0.093-0.237,0.22v9.036c0,0.697-0.726,1.399-1.905,0.81l-2.157-1.264c-0.077-0.042-0.135-0.115-0.135-0.203
			v-9.155c0.005-0.092,0.056-0.175,0.135-0.22l7.924-4.568c0.073-0.042,0.163-0.042,0.236,0l7.923,4.569
			c0.08,0.045,0.13,0.128,0.135,0.219v9.155c0.002,0.088-0.043,0.172-0.118,0.219l-7.94,4.57c-0.073,0.041-0.163,0.041-0.236,0
			l-2.041-1.214c-0.063-0.034-0.139-0.034-0.202,0c-0.562,0.32-0.668,0.356-1.197,0.54c-0.13,0.045-0.328,0.116,0.068,0.337
			l2.663,1.567c0.254,0.147,0.537,0.219,0.827,0.219c0.293,0,0.572-0.072,0.825-0.22l7.94-4.568c0.514-0.3,0.826-0.854,0.826-1.45
			v-9.155c0-0.594-0.312-1.152-0.825-1.45l-7.941-4.585C316.877,108.733,316.593,108.663,316.305,108.669z M240.775,108.854
			c-0.174,0-0.35,0.044-0.506,0.135l-8.413,4.838c-0.314,0.188-0.506,0.527-0.505,0.894v9.71c0,0.364,0.19,0.695,0.505,0.877
			l8.413,4.856c0.315,0.182,0.697,0.182,1.012,0l8.413-4.856c0.314-0.182,0.505-0.513,0.505-0.876v-9.711
			c0-0.364-0.19-0.712-0.505-0.894l-8.413-4.838C241.127,108.9,240.953,108.854,240.775,108.854L240.775,108.854z M328.089,108.904
			v0.237h0.657v1.736h0.27v-1.736h0.675v-0.236h-1.602V108.904z M329.926,108.904v1.973h0.253v-1.163c0-0.048,0.002-0.121,0-0.22
			c-0.003-0.1,0-0.187,0-0.235v-0.051l0.557,1.668h0.269l0.574-1.668c0,0.105-0.014,0.209-0.017,0.303v1.366h0.253v-1.972h-0.372
			l-0.572,1.669l-0.556-1.67H329.926L329.926,108.904z M318.428,115.21c-2.26,0-3.605,0.963-3.605,2.562
			c0,1.737,1.336,2.214,3.507,2.429c2.597,0.254,2.798,0.635,2.798,1.146c0,0.887-0.707,1.264-2.377,1.264
			c-2.098,0-2.56-0.524-2.714-1.568c-0.018-0.112-0.104-0.202-0.22-0.202h-1.028c-0.129,0.003-0.233,0.107-0.235,0.236
			c0,1.336,0.728,2.917,4.197,2.917c2.513,0,3.962-0.986,3.962-2.714c0-1.713-1.171-2.173-3.608-2.495
			c-2.463-0.326-2.697-0.486-2.697-1.062c0-0.476,0.199-1.112,2.021-1.112c1.63,0,2.23,0.352,2.479,1.449
			c0.021,0.105,0.111,0.183,0.219,0.186h1.028c0.061,0,0.125-0.04,0.169-0.084c0.043-0.05,0.073-0.103,0.068-0.168
			C322.231,116.099,320.97,115.21,318.428,115.21z M291.083,117.519c-0.034,0-0.071,0-0.101,0.017l-1.62,0.945
			c-0.061,0.034-0.099,0.098-0.1,0.167v1.855c0,0.07,0.04,0.133,0.1,0.168l1.62,0.928c0.057,0.035,0.128,0.035,0.185,0l1.618-0.928
			c0.062-0.034,0.101-0.098,0.102-0.168v-1.855c-0.001-0.07-0.04-0.134-0.102-0.167l-1.618-0.945
			C291.137,117.519,291.117,117.519,291.083,117.519z"/>
	</g>
	<g opacity="0.4">
		<path fill="#FFFFFF" d="M1091.62,686.664c-0.278,0.002-0.504,0.228-0.506,0.506v12.898c0.004,0.189-0.146,0.348-0.336,0.352
			c-0.065,0.002-0.13-0.016-0.187-0.049l-2.107-1.213c-0.312-0.184-0.698-0.184-1.013,0l-8.412,4.854
			c-0.313,0.184-0.507,0.531-0.507,0.896v9.711c0,0.361,0.19,0.693,0.507,0.877l8.412,4.854c0.314,0.184,0.696,0.184,1.013,0
			l8.413-4.854c0.313-0.184,0.505-0.514,0.505-0.877V690.41c0-0.371-0.199-0.713-0.521-0.897l-5.007-2.801
			C1091.795,686.675,1091.708,686.658,1091.62,686.664L1091.62,686.664z M1037.502,698.787c-0.159,0-0.314,0.041-0.455,0.117
			l-8.412,4.856c-0.312,0.18-0.506,0.516-0.506,0.877l0.018,13.029c0,0.184,0.096,0.35,0.252,0.438c0.156,0.098,0.352,0.098,0.508,0
			l4.988-2.863c0.317-0.182,0.517-0.516,0.523-0.877v-6.086c0-0.363,0.188-0.695,0.505-0.877l2.124-1.23
			c0.16-0.09,0.328-0.135,0.506-0.135c0.174,0,0.354,0.043,0.506,0.135l2.125,1.23c0.314,0.182,0.506,0.514,0.506,0.877v6.086
			c0,0.359,0.209,0.688,0.524,0.877l4.989,2.863c0.153,0.098,0.35,0.098,0.505,0c0.156-0.09,0.254-0.258,0.254-0.438l0.017-13.031
			c0-0.365-0.188-0.693-0.506-0.877l-8.413-4.854c-0.139-0.076-0.296-0.117-0.455-0.117H1037.502L1037.502,698.787z M1113.1,698.906
			c-0.176,0-0.348,0.045-0.506,0.135l-8.412,4.853c-0.312,0.184-0.506,0.518-0.506,0.881v9.709c0,0.363,0.205,0.693,0.522,0.879
			l8.345,4.754c0.309,0.176,0.686,0.188,0.994,0.016l5.059-2.814c0.16-0.09,0.271-0.256,0.271-0.438
			c0.002-0.182-0.096-0.35-0.252-0.438l-8.465-4.856c-0.163-0.096-0.266-0.268-0.271-0.455v-3.035c0-0.18,0.113-0.348,0.271-0.438
			l2.63-1.522c0.155-0.09,0.35-0.09,0.507,0l2.63,1.522c0.156,0.09,0.253,0.256,0.253,0.438v2.394c0,0.182,0.096,0.348,0.254,0.438
			c0.156,0.096,0.351,0.096,0.505,0l5.04-2.932c0.314-0.182,0.508-0.516,0.508-0.877v-2.344c0-0.361-0.191-0.695-0.507-0.877
			l-8.36-4.855C1113.454,698.953,1113.278,698.904,1113.1,698.906L1113.1,698.906z M1087.946,706.156
			c0.045,0,0.096,0.01,0.135,0.033l2.884,1.668c0.08,0.043,0.132,0.127,0.135,0.219v3.338c-0.003,0.092-0.055,0.174-0.135,0.219
			l-2.884,1.67c-0.077,0.047-0.175,0.047-0.252,0l-2.884-1.668c-0.081-0.045-0.132-0.129-0.135-0.221v-3.338
			c0-0.09,0.057-0.172,0.135-0.219l2.884-1.67C1087.863,706.166,1087.904,706.154,1087.946,706.156L1087.946,706.156z"/>
		<path opacity="0.6" fill="#FFFFFF" enable-background="new    " d="M1138.305,698.667c-0.293,0-0.576,0.061-0.826,0.203
			l-7.939,4.586c-0.514,0.301-0.829,0.854-0.826,1.449v9.152c0,0.596,0.312,1.152,0.826,1.449l2.074,1.197
			c1.008,0.496,1.379,0.49,1.838,0.49c1.489,0,2.344-0.906,2.344-2.481v-9.035c0-0.127-0.111-0.221-0.236-0.221h-0.992
			c-0.131,0-0.237,0.094-0.237,0.221v9.035c0,0.697-0.728,1.4-1.905,0.812l-2.157-1.266c-0.077-0.043-0.136-0.115-0.136-0.203
			v-9.152c0-0.088,0.059-0.178,0.136-0.221l7.925-4.566c0.072-0.043,0.162-0.043,0.235,0l7.923,4.566
			c0.076,0.045,0.137,0.133,0.137,0.221v9.152c0.002,0.088-0.043,0.172-0.118,0.221l-7.939,4.568c-0.073,0.039-0.162,0.039-0.235,0
			l-2.041-1.215c-0.062-0.033-0.14-0.033-0.201,0c-0.562,0.32-0.668,0.355-1.196,0.539c-0.13,0.045-0.328,0.115,0.065,0.338
			l2.664,1.566c0.254,0.147,0.536,0.221,0.826,0.221c0.293,0,0.572-0.072,0.826-0.221l7.94-4.57
			c0.514-0.297,0.823-0.854,0.823-1.447v-9.152c0-0.596-0.312-1.152-0.823-1.449l-7.94-4.586
			C1138.879,698.734,1138.594,698.664,1138.305,698.667L1138.305,698.667z M1062.775,698.853c-0.177,0-0.352,0.045-0.506,0.137
			l-8.413,4.838c-0.314,0.18-0.505,0.531-0.505,0.895v9.709c0,0.365,0.188,0.697,0.505,0.881l8.413,4.854
			c0.313,0.182,0.695,0.182,1.013,0l8.412-4.854c0.312-0.184,0.506-0.518,0.506-0.879v-9.711c0-0.361-0.191-0.713-0.506-0.895
			l-8.412-4.84C1063.128,698.9,1062.953,698.853,1062.775,698.853L1062.775,698.853z M1150.089,698.904v0.236h0.657v1.736h0.27
			v-1.736h0.677v-0.234h-1.604V698.904z M1151.926,698.904v1.975h0.254v-1.164c0-0.047,0.002-0.121,0-0.219
			c-0.004-0.102,0-0.19,0-0.236v-0.051l0.559,1.67h0.27l0.573-1.67c0,0.106-0.015,0.209-0.017,0.303s0,0.162,0,0.203v1.164h0.252
			v-1.973h-0.371l-0.572,1.67l-0.557-1.67h-0.392L1151.926,698.904z M1140.428,705.208c-2.26,0-3.605,0.963-3.605,2.56
			c0,1.736,1.337,2.217,3.508,2.432c2.596,0.254,2.798,0.635,2.798,1.145c0,0.889-0.707,1.268-2.378,1.268
			c-2.099,0-2.561-0.525-2.714-1.568c-0.02-0.113-0.104-0.203-0.221-0.203h-1.026c-0.129,0.002-0.233,0.107-0.236,0.236
			c0,1.336,0.729,2.916,4.197,2.916c2.514,0,3.963-0.986,3.963-2.713c0-1.715-1.172-2.178-3.605-2.496
			c-2.465-0.326-2.697-0.484-2.697-1.062c0-0.475,0.197-1.111,2.02-1.111c1.633,0,2.233,0.352,2.48,1.449
			c0.021,0.106,0.111,0.184,0.219,0.186h1.028c0.062,0,0.125-0.039,0.169-0.084c0.044-0.049,0.072-0.104,0.066-0.168
			C1144.23,706.099,1142.97,705.208,1140.428,705.208L1140.428,705.208z M1113.083,707.519c-0.034,0-0.071,0-0.101,0.018
			l-1.62,0.943c-0.062,0.035-0.102,0.1-0.103,0.17v1.854c0,0.07,0.04,0.133,0.104,0.168l1.619,0.928
			c0.057,0.035,0.128,0.035,0.185,0l1.618-0.928c0.062-0.033,0.101-0.098,0.104-0.168v-1.854c-0.002-0.07-0.041-0.135-0.104-0.17
			l-1.618-0.943C1113.137,707.519,1113.117,707.519,1113.083,707.519L1113.083,707.519z"/>
	</g>
	<g opacity="0.4">
		<path fill="#FFFFFF" d="M1301.62,294.665c-0.089,0-0.175,0.023-0.252,0.067c-0.156,0.091-0.252,0.257-0.253,0.438v12.898
			c0.003,0.124-0.062,0.238-0.168,0.303c-0.109,0.064-0.245,0.064-0.354,0l-2.106-1.213c-0.313-0.184-0.699-0.184-1.014,0
			l-8.412,4.853c-0.313,0.182-0.507,0.53-0.507,0.895v9.71c0,0.364,0.19,0.696,0.507,0.877l8.412,4.854
			c0.314,0.184,0.696,0.184,1.014,0l8.412-4.854c0.313-0.181,0.506-0.513,0.506-0.877v-24.208c0-0.37-0.201-0.714-0.522-0.894
			l-5.007-2.8C1301.796,294.675,1301.708,294.658,1301.62,294.665L1301.62,294.665z M1247.502,306.785
			c-0.159,0.001-0.314,0.042-0.455,0.119l-8.412,4.855c-0.312,0.182-0.507,0.517-0.506,0.877l0.018,13.03
			c0,0.183,0.096,0.35,0.252,0.44c0.156,0.094,0.352,0.094,0.508,0l4.988-2.866c0.317-0.181,0.517-0.514,0.523-0.876v-6.085
			c0-0.364,0.188-0.697,0.505-0.877l2.124-1.232c0.16-0.09,0.328-0.134,0.506-0.134c0.174,0,0.354,0.043,0.506,0.134l2.125,1.23
			c0.314,0.18,0.506,0.514,0.506,0.878v6.086c0,0.36,0.209,0.689,0.523,0.876l4.989,2.866c0.154,0.094,0.35,0.094,0.505,0
			c0.156-0.091,0.254-0.259,0.254-0.438l0.017-13.031c0-0.364-0.188-0.694-0.506-0.877l-8.413-4.855
			c-0.139-0.077-0.296-0.118-0.455-0.118h-0.102V306.785L1247.502,306.785z M1323.1,306.905c-0.176,0-0.348,0.044-0.506,0.135
			l-8.412,4.854c-0.312,0.182-0.506,0.516-0.506,0.878v9.71c0,0.364,0.205,0.694,0.522,0.877l8.345,4.754
			c0.309,0.175,0.686,0.188,0.994,0.017l5.059-2.813c0.16-0.092,0.271-0.258,0.271-0.44c0.001-0.181-0.096-0.348-0.252-0.437
			l-8.465-4.856c-0.163-0.095-0.266-0.267-0.271-0.455v-3.035c0-0.181,0.113-0.347,0.271-0.438l2.63-1.519
			c0.155-0.091,0.35-0.091,0.507,0l2.63,1.519c0.156,0.091,0.253,0.257,0.253,0.438v2.395c0,0.182,0.096,0.348,0.254,0.438
			c0.156,0.092,0.351,0.092,0.505,0l5.04-2.933c0.314-0.184,0.508-0.518,0.508-0.877v-2.346c0-0.359-0.191-0.693-0.507-0.877
			l-8.36-4.853C1323.452,306.95,1323.277,306.904,1323.1,306.905L1323.1,306.905z M1297.946,314.155c0.045,0,0.096,0.01,0.135,0.032
			l2.884,1.67c0.08,0.044,0.132,0.127,0.135,0.219v3.337c-0.004,0.092-0.055,0.175-0.135,0.22l-2.884,1.669
			c-0.078,0.046-0.175,0.046-0.252,0l-2.884-1.668c-0.081-0.045-0.132-0.129-0.135-0.221v-3.337c0-0.091,0.057-0.173,0.135-0.22
			l2.884-1.669C1297.864,314.166,1297.904,314.154,1297.946,314.155z"/>
		<path opacity="0.6" fill="#FFFFFF" enable-background="new    " d="M1348.305,306.669c-0.293,0-0.576,0.06-0.826,0.202
			l-7.939,4.585c-0.514,0.302-0.829,0.854-0.826,1.45v9.153c0,0.596,0.312,1.153,0.826,1.45l2.074,1.197
			c1.008,0.496,1.379,0.489,1.838,0.489c1.489,0,2.344-0.905,2.344-2.48v-9.035c0-0.127-0.111-0.22-0.236-0.22h-0.992
			c-0.131,0-0.237,0.093-0.237,0.22v9.036c0,0.697-0.728,1.399-1.905,0.811l-2.157-1.266c-0.077-0.042-0.136-0.113-0.136-0.203
			v-9.153c0-0.087,0.059-0.175,0.136-0.222l7.925-4.566c0.072-0.042,0.162-0.042,0.235,0l7.923,4.569
			c0.076,0.045,0.137,0.13,0.137,0.219v9.153c0.002,0.09-0.043,0.173-0.118,0.221l-7.939,4.568c-0.073,0.041-0.162,0.041-0.235,0
			l-2.041-1.214c-0.062-0.034-0.14-0.034-0.201,0c-0.562,0.32-0.668,0.356-1.196,0.54c-0.13,0.045-0.328,0.116,0.065,0.337
			l2.664,1.567c0.254,0.145,0.536,0.219,0.826,0.219c0.293,0,0.572-0.072,0.826-0.22l7.94-4.568c0.514-0.3,0.823-0.854,0.823-1.45
			v-9.153c0-0.594-0.312-1.152-0.823-1.45l-7.94-4.585C1348.879,306.733,1348.593,306.664,1348.305,306.669L1348.305,306.669z
			 M1272.775,306.854c-0.177,0-0.352,0.046-0.506,0.137l-8.413,4.838c-0.315,0.188-0.507,0.527-0.505,0.894v9.71
			c0,0.364,0.188,0.695,0.505,0.877l8.413,4.856c0.313,0.182,0.695,0.182,1.013,0l8.412-4.856c0.312-0.18,0.506-0.514,0.506-0.876
			v-9.711c0-0.362-0.191-0.712-0.506-0.894l-8.412-4.838C1273.128,306.9,1272.953,306.854,1272.775,306.854L1272.775,306.854z
			 M1360.089,306.904v0.235h0.657v1.736h0.27v-1.736h0.677v-0.234L1360.089,306.904L1360.089,306.904z M1361.926,306.904v1.973
			h0.254v-1.163c0-0.048,0.002-0.121,0-0.22c-0.004-0.102,0-0.188,0-0.235v-0.051l0.559,1.668h0.27l0.573-1.668
			c0,0.105-0.015,0.209-0.017,0.303c-0.002,0.093,0,0.162,0,0.203v1.163h0.252v-1.972h-0.371l-0.572,1.669l-0.557-1.67H1361.926
			L1361.926,306.904z M1350.428,313.21c-2.26,0-3.605,0.963-3.605,2.562c0,1.735,1.337,2.214,3.508,2.429
			c2.596,0.254,2.798,0.635,2.798,1.145c0,0.889-0.707,1.266-2.378,1.266c-2.099,0-2.561-0.524-2.714-1.568
			c-0.02-0.112-0.104-0.202-0.221-0.202h-1.026c-0.13,0.002-0.233,0.106-0.236,0.236c0,1.336,0.729,2.917,4.197,2.917
			c2.514,0,3.963-0.986,3.963-2.714c0-1.713-1.172-2.173-3.605-2.495c-2.465-0.326-2.697-0.486-2.697-1.062
			c0-0.476,0.197-1.11,2.02-1.11c1.633,0,2.233,0.352,2.48,1.447c0.021,0.107,0.111,0.185,0.219,0.188h1.028
			c0.062,0,0.125-0.04,0.169-0.084c0.044-0.05,0.072-0.104,0.066-0.168C1354.23,314.099,1352.97,313.21,1350.428,313.21
			L1350.428,313.21z M1323.083,315.519c-0.034,0-0.071,0-0.101,0.019l-1.62,0.945c-0.062,0.032-0.101,0.097-0.103,0.167v1.854
			c0,0.07,0.04,0.133,0.104,0.168l1.619,0.928c0.057,0.035,0.128,0.035,0.185,0l1.618-0.928c0.062-0.033,0.102-0.098,0.104-0.168
			v-1.854c-0.002-0.07-0.041-0.136-0.104-0.167l-1.618-0.945C1323.137,315.519,1323.117,315.519,1323.083,315.519L1323.083,315.519z
			"/>
	</g>
	<g opacity="0.4">
		<path fill="#FFFFFF" d="M338.62,439.664c-0.279,0.002-0.504,0.229-0.505,0.506v12.898c0.003,0.191-0.148,0.348-0.338,0.352
			c-0.064,0.002-0.128-0.016-0.184-0.049l-2.108-1.213c-0.312-0.184-0.699-0.184-1.012,0l-8.413,4.854
			c-0.314,0.184-0.506,0.531-0.506,0.896v9.711c0,0.363,0.192,0.693,0.506,0.877l8.413,4.854c0.314,0.184,0.697,0.184,1.012,0
			l8.413-4.854c0.315-0.184,0.505-0.514,0.505-0.877V443.41c0-0.371-0.2-0.713-0.522-0.897l-5.007-2.801
			C338.795,439.675,338.708,439.658,338.62,439.664L338.62,439.664z M284.503,451.787c-0.159,0-0.316,0.041-0.456,0.117
			l-8.413,4.855c-0.312,0.18-0.506,0.516-0.505,0.877l0.017,13.029c0,0.184,0.094,0.35,0.253,0.438c0.156,0.098,0.35,0.098,0.505,0
			l4.99-2.863c0.317-0.182,0.516-0.516,0.523-0.877v-6.084c0-0.363,0.19-0.695,0.505-0.877l2.124-1.23
			c0.313-0.18,0.699-0.18,1.012,0l2.125,1.23c0.314,0.182,0.505,0.514,0.505,0.877v6.086c0,0.359,0.209,0.688,0.523,0.877
			l4.99,2.865c0.155,0.096,0.35,0.096,0.505,0c0.157-0.092,0.253-0.26,0.253-0.439l0.017-13.031c0-0.363-0.19-0.693-0.506-0.877
			l-8.413-4.853c-0.14-0.076-0.297-0.117-0.456-0.117h-0.098V451.787L284.503,451.787z M360.1,451.906
			c-0.175,0-0.348,0.045-0.505,0.135l-8.413,4.853c-0.313,0.184-0.506,0.518-0.505,0.881v9.709c0,0.363,0.205,0.693,0.523,0.879
			l8.345,4.754c0.309,0.176,0.685,0.188,0.995,0.016l5.059-2.814c0.162-0.088,0.264-0.254,0.269-0.438
			c0.002-0.182-0.095-0.35-0.252-0.438l-8.464-4.855c-0.163-0.096-0.265-0.268-0.27-0.455v-3.035c0-0.18,0.113-0.348,0.27-0.438
			l2.63-1.522c0.156-0.09,0.349-0.09,0.505,0l2.63,1.522c0.157,0.09,0.254,0.256,0.254,0.438v2.395
			c-0.001,0.182,0.096,0.35,0.253,0.438c0.156,0.094,0.35,0.094,0.505,0l5.04-2.932c0.314-0.184,0.507-0.516,0.507-0.877v-2.344
			c0-0.361-0.192-0.695-0.506-0.877l-8.362-4.855C360.454,451.951,360.278,451.904,360.1,451.906L360.1,451.906z M334.946,459.156
			c0.044,0,0.095,0.01,0.134,0.031l2.884,1.67c0.08,0.043,0.131,0.127,0.135,0.219v3.338c-0.003,0.092-0.055,0.174-0.135,0.219
			l-2.884,1.67c-0.078,0.047-0.175,0.047-0.252,0l-2.883-1.668c-0.08-0.045-0.131-0.129-0.134-0.221v-3.338
			c0-0.09,0.056-0.172,0.134-0.219l2.883-1.67C334.863,459.166,334.904,459.154,334.946,459.156z"/>
		<path opacity="0.6" fill="#FFFFFF" enable-background="new    " d="M385.305,451.668c-0.294,0-0.576,0.061-0.827,0.203
			l-7.941,4.586c-0.514,0.301-0.828,0.854-0.826,1.449v9.152c0,0.596,0.313,1.152,0.826,1.449l2.074,1.197
			c1.008,0.496,1.379,0.49,1.838,0.49c1.49,0,2.343-0.906,2.343-2.481v-9.035c0-0.127-0.111-0.221-0.236-0.221h-0.995
			c-0.128,0-0.237,0.094-0.237,0.221v9.035c0,0.697-0.726,1.4-1.905,0.813l-2.157-1.266c-0.077-0.043-0.135-0.115-0.135-0.203
			v-9.152c0-0.088,0.059-0.178,0.135-0.223l7.924-4.564c0.073-0.043,0.163-0.043,0.236,0l7.923,4.566
			c0.08,0.045,0.13,0.127,0.135,0.221v9.152c0.002,0.088-0.043,0.172-0.118,0.221l-7.94,4.568c-0.073,0.039-0.162,0.039-0.236,0
			l-2.041-1.215c-0.063-0.035-0.139-0.035-0.202,0c-0.562,0.32-0.668,0.356-1.197,0.539c-0.13,0.045-0.328,0.115,0.068,0.338
			l2.663,1.566c0.254,0.147,0.537,0.221,0.827,0.221c0.293,0,0.572-0.072,0.825-0.221l7.94-4.57
			c0.514-0.297,0.826-0.854,0.826-1.447v-9.152c0-0.598-0.312-1.152-0.825-1.449l-7.941-4.586
			C385.877,451.732,385.593,451.662,385.305,451.668L385.305,451.668z M309.775,451.853c-0.174,0-0.35,0.045-0.506,0.137
			l-8.413,4.838c-0.314,0.18-0.505,0.531-0.505,0.895v9.709c0,0.365,0.19,0.697,0.505,0.879l8.413,4.855
			c0.315,0.182,0.697,0.182,1.012,0l8.413-4.855c0.313-0.182,0.506-0.516,0.505-0.877v-9.711c0-0.361-0.19-0.713-0.505-0.895
			l-8.413-4.84C310.127,451.9,309.953,451.853,309.775,451.853L309.775,451.853z M397.089,451.904v0.236h0.657v1.736h0.27v-1.736
			h0.677v-0.234h-1.604V451.904z M398.926,451.904v1.975h0.253v-1.164c0-0.047,0.002-0.121,0-0.219c-0.003-0.102,0-0.189,0-0.236
			v-0.051l0.559,1.67h0.268l0.574-1.67c0,0.105-0.014,0.209-0.018,0.303v1.367h0.254v-1.973h-0.372l-0.572,1.67l-0.556-1.67h-0.392
			L398.926,451.904z M387.428,458.209c-2.26,0-3.605,0.963-3.605,2.56c0,1.736,1.336,2.217,3.507,2.432
			c2.597,0.254,2.798,0.635,2.798,1.145c0,0.889-0.707,1.268-2.377,1.268c-2.098,0-2.56-0.525-2.714-1.568
			c-0.018-0.113-0.104-0.203-0.22-0.203h-1.028c-0.129,0.004-0.232,0.107-0.235,0.236c0,1.336,0.728,2.916,4.197,2.916
			c2.513,0,3.962-0.986,3.962-2.713c0-1.715-1.171-2.176-3.608-2.496c-2.463-0.326-2.697-0.484-2.697-1.062
			c0-0.475,0.199-1.111,2.021-1.111c1.63,0,2.23,0.352,2.479,1.449c0.021,0.105,0.111,0.184,0.219,0.186h1.028
			c0.061,0,0.125-0.039,0.169-0.084c0.043-0.049,0.073-0.104,0.068-0.168C391.231,459.099,389.97,458.209,387.428,458.209z
			 M360.083,460.519c-0.034,0-0.071,0-0.101,0.018l-1.62,0.945c-0.061,0.033-0.099,0.098-0.1,0.168v1.854
			c0,0.07,0.04,0.133,0.1,0.168l1.62,0.928c0.057,0.035,0.128,0.035,0.185,0l1.618-0.928c0.062-0.033,0.1-0.098,0.102-0.168v-1.854
			c-0.001-0.07-0.039-0.135-0.102-0.168l-1.618-0.945C360.137,460.519,360.117,460.519,360.083,460.519L360.083,460.519z"/>
	</g>
	<path opacity="0.4" fill="#FFFFFF" enable-background="new    " d="M85.546,340.672H77.1l0.593-7.113h-4.149l-0.593,7.113H55.465
		l-0.593-7.113h-4.149l0.593,7.113H42.87l-4.742-30.822l11.854-18.967h28.451l11.854,18.967L85.546,340.672L85.546,340.672z
		 M76.063,300.366h-7.621l0.508,3.557h-9.483l0.508-3.557h-7.621l-4.742,9.482l2.371,18.969h28.451l2.371-18.969L76.063,300.366z
		 M71.914,322.523c-0.655,0-1.186-1.977-1.186-4.41c0-2.437,0.531-4.41,1.186-4.41c0.654,0,1.185,1.975,1.185,4.41
		C73.099,320.547,72.568,322.523,71.914,322.523z M56.947,322.89c-0.654,0-1.185-1.975-1.185-4.408c0-2.436,0.531-4.41,1.185-4.41
		c0.655,0,1.186,1.975,1.186,4.41C58.132,320.916,57.602,322.89,56.947,322.89z M803.546,52.672H795.1l0.595-7.113h-4.149
		l-0.592,7.113h-17.486l-0.592-7.113h-4.15l0.596,7.113h-8.447L756.13,21.85l11.854-18.967h28.451l11.854,18.967L803.546,52.672z
		 M794.062,12.366h-7.621l0.508,3.557h-9.482l0.508-3.557h-7.619l-4.742,9.484l2.371,18.967h28.449l2.371-18.967L794.062,12.366z
		 M789.914,34.522c-0.655,0-1.186-1.975-1.186-4.41c0-2.436,0.528-4.41,1.186-4.41c0.654,0,1.185,1.975,1.185,4.41
		C791.099,32.548,790.568,34.522,789.914,34.522z M774.947,34.89c-0.654,0-1.188-1.975-1.188-4.41c0-2.435,0.531-4.41,1.188-4.41
		c0.653,0,1.186,1.975,1.186,4.41C776.133,32.916,775.602,34.89,774.947,34.89z M984.546,432.671H976.1l0.595-7.113h-4.149
		l-0.592,7.113h-17.486l-0.592-7.113h-4.15l0.596,7.113h-8.447l-4.741-30.822l11.854-18.967h28.449l11.854,18.967L984.546,432.671
		L984.546,432.671z M975.062,392.367h-7.621l0.508,3.557h-9.482l0.508-3.557h-7.621l-4.74,9.482l2.371,18.969h28.449l2.371-18.969
		L975.062,392.367z M970.914,414.523c-0.655,0-1.186-1.977-1.186-4.41c0-2.436,0.528-4.41,1.186-4.41
		c0.654,0,1.185,1.975,1.185,4.41C972.099,412.548,971.568,414.523,970.914,414.523z M955.947,414.89
		c-0.654,0-1.188-1.975-1.188-4.408c0-2.435,0.531-4.41,1.188-4.41c0.654,0,1.186,1.975,1.186,4.41
		C957.133,412.916,956.602,414.89,955.947,414.89z M786.743,728.47h-8.446l0.593-7.113h-4.147l-0.592,7.113h-17.486l-0.592-7.113
		h-4.15l0.594,7.113h-8.445l-4.741-30.822l11.854-18.967h28.451l11.854,18.967L786.743,728.47z M777.26,688.164h-7.621l0.51,3.557
		h-9.482l0.508-3.557h-7.621l-4.74,9.482l2.369,18.969h28.451l2.371-18.969L777.26,688.164z M773.111,710.32
		c-0.655,0-1.188-1.975-1.188-4.408c0-2.438,0.53-4.41,1.188-4.41c0.652,0,1.185,1.975,1.185,4.41
		C774.296,708.345,773.766,710.32,773.111,710.32z M758.144,710.687c-0.652,0-1.185-1.975-1.185-4.408
		c0-2.435,0.531-4.41,1.185-4.41c0.655,0,1.188,1.975,1.188,4.41C759.331,708.712,758.799,710.687,758.144,710.687z
		 M579.546,661.671H571.1l0.595-7.113h-4.149l-0.593,7.113h-17.485l-0.593-7.113h-4.149l0.595,7.113h-8.446l-4.742-30.822
		l11.854-18.967h28.449l11.855,18.967L579.546,661.671z M570.062,621.367h-7.621l0.508,3.557h-9.483l0.508-3.557h-7.619
		l-4.742,9.482l2.371,18.969h28.449l2.371-18.969L570.062,621.367z M565.914,643.521c-0.655,0-1.186-1.975-1.186-4.408
		c0-2.436,0.529-4.41,1.186-4.41c0.654,0,1.184,1.975,1.184,4.41C567.099,641.548,566.568,643.521,565.914,643.521z M550.947,643.89
		c-0.654,0-1.187-1.975-1.187-4.408c0-2.436,0.531-4.41,1.187-4.41c0.654,0,1.185,1.975,1.185,4.41
		C552.133,641.916,551.602,643.89,550.947,643.89z M680.546,363.672H672.1l0.595-7.113h-4.149l-0.592,7.113h-17.486l-0.592-7.113
		h-4.15l0.596,7.113h-8.447l-4.742-30.822l11.854-18.967h28.449l11.855,18.967L680.546,363.672L680.546,363.672z M671.062,323.366
		h-7.621l0.508,3.557h-9.482l0.508-3.557h-7.619l-4.742,9.482l2.371,18.969h28.449l2.371-18.969L671.062,323.366z M666.914,345.523
		c-0.655,0-1.186-1.977-1.186-4.41c0-2.438,0.528-4.41,1.186-4.41c0.654,0,1.184,1.975,1.184,4.41
		C668.099,343.547,667.568,345.523,666.914,345.523z M651.947,345.89c-0.654,0-1.187-1.975-1.187-4.408
		c0-2.436,0.531-4.41,1.187-4.41c0.653,0,1.186,1.975,1.186,4.41C653.133,343.916,652.602,345.89,651.947,345.89z M1339.546,432.671
		h-8.446l0.595-7.113h-4.149l-0.592,7.113h-17.486l-0.592-7.113h-4.15l0.596,7.113h-8.447l-4.741-30.822l11.854-18.967h28.449
		l11.854,18.967L1339.546,432.671L1339.546,432.671z M1330.062,392.367h-7.621l0.508,3.557h-9.482l0.508-3.557h-7.619l-4.742,9.482
		l2.371,18.969h28.451l2.369-18.969L1330.062,392.367L1330.062,392.367z M1325.914,414.523c-0.655,0-1.187-1.977-1.187-4.41
		c0-2.436,0.529-4.41,1.187-4.41c0.654,0,1.186,1.975,1.186,4.41C1327.1,412.548,1326.568,414.523,1325.914,414.523z
		 M1310.947,414.89c-0.654,0-1.188-1.975-1.188-4.408c0-2.435,0.531-4.41,1.188-4.41c0.654,0,1.186,1.975,1.186,4.41
		C1312.133,412.916,1311.602,414.89,1310.947,414.89z M1153.546,197.672h-8.446l0.595-7.113h-4.149l-0.592,7.113h-17.486
		l-0.592-7.113h-4.15l0.596,7.113h-8.447l-4.741-30.822l11.854-18.967h28.449l11.854,18.967L1153.546,197.672L1153.546,197.672z
		 M1144.062,157.366h-7.621l0.508,3.557h-9.482l0.508-3.557h-7.619l-4.742,9.484l2.371,18.967h28.451l2.369-18.967L1144.062,157.366
		L1144.062,157.366z M1139.914,179.522c-0.655,0-1.187-1.975-1.187-4.41c0-2.436,0.529-4.41,1.187-4.41
		c0.654,0,1.186,1.975,1.186,4.41C1141.1,177.548,1140.568,179.522,1139.914,179.522z M1124.947,179.89
		c-0.654,0-1.188-1.975-1.188-4.41c0-2.435,0.531-4.41,1.188-4.41c0.654,0,1.186,1.975,1.186,4.41
		C1126.133,177.916,1125.602,179.89,1124.947,179.89z M125.05,157.631l-0.036-0.037L117,165.609l19.458,19.423l8.014-7.978
		l11.444-11.445l-8.015-8.014v-0.036h-22.888L125.05,157.631L125.05,157.631z M497.05,529.63l-0.036-0.035L489,537.609
		l19.458,19.422l8.014-7.979l11.444-11.443l-8.015-8.016v-0.035h-22.89L497.05,529.63L497.05,529.63z M880.05,97.631l-0.036-0.037
		L872,105.609l19.458,19.423l8.015-7.978l11.443-11.445l-8.014-8.014v-0.036h-22.891L880.05,97.631z M1025.05,623.63l-0.036-0.035
		l-8.014,8.016l19.458,19.422l8.015-7.979l11.443-11.443l-8.014-8.016v-0.037h-22.891L1025.05,623.63L1025.05,623.63z
		 M1272.05,166.631l-0.036-0.037l-8.014,8.014l19.458,19.423l8.015-7.979l11.443-11.445l-8.014-8.014v-0.036h-22.891
		L1272.05,166.631L1272.05,166.631z M285.05,694.63l-0.036-0.035L277,702.609l19.458,19.422l8.014-7.979l11.444-11.443l-8.015-8.016
		v-0.035h-22.888L285.05,694.63L285.05,694.63z M257.05,322.631l-0.036-0.037L249,330.609l19.458,19.423l8.014-7.979l11.444-11.443
		l-8.015-8.016v-0.036h-22.888L257.05,322.631L257.05,322.631z M707.05,309.631l-0.036-0.037L699,317.609l19.458,19.423l8.015-7.979
		l11.443-11.443l-8.014-8.016v-0.036h-22.891L707.05,309.631L707.05,309.631z"/>
	<g transform="matrix(.1617 0 0 .158089 -107.53764 -81.66187)" opacity="0.4">
		<path fill="#FFFFFF" d="M3318.661,2651.083c-23.385-3.684-48.456-3.275-68.008,0c-28.8,4.815-34.016,14.928-34.016,33.517
			l-0.001-0.001v24.534h68.034v8.187h-93.558c-19.781,0-37.092,11.294-42.51,32.7c-6.249,24.537-6.525,39.802,0,65.423
			c4.838,19.071,16.354,32.7,36.134,32.7h23.384v-29.425c0-21.261,19.453-40.067,42.534-40.067h68.008
			c18.923,0,34.016-14.734,34.016-32.721V2684.6C3352.677,2667.144,3337.131,2653.996,3318.661,2651.083z M3246.396,2692.787
			c-7.054,0-12.751-5.49-12.751-12.256c0-6.79,5.694-12.281,12.751-12.281c7.03,0,12.751,5.49,12.751,12.281
			C3259.147,2687.299,3253.427,2692.787,3246.396,2692.787z"/>
		<path opacity="0.8" fill="#FFFFFF" d="M3420.712,2750.023c-4.886-18.638-14.211-32.7-34.016-32.7h-25.5v28.606
			c0,22.177-19.881,40.885-42.534,40.885h-68.009c-18.62,0-34.016,15.072-34.016,32.722v61.329c0,17.458,16.024,27.692,34.016,32.7
			c21.543,5.996,42.231,7.079,68.009,0c17.134-4.695,34.016-14.111,34.016-32.7v-24.533h-68.009v-8.187h102.026
			c19.78,0,27.138-13.1,34.016-32.7C3427.818,2795.267,3427.515,2775.908,3420.712,2750.023z M3322.919,2872.68
			c7.054,0,12.752,5.49,12.752,12.256c0,6.79-5.695,12.281-12.752,12.281c-7.03,0-12.751-5.49-12.751-12.281
			C3310.167,2878.168,3315.888,2872.68,3322.919,2872.68z"/>
	</g>
	<g transform="matrix(.1617 0 0 .158089 -107.53764 -81.66187)" opacity="0.4">
		<path fill="#FFFFFF" d="M3527.528,943.233c-23.385-3.684-48.456-3.275-68.009,0c-28.8,4.815-34.016,14.928-34.016,33.517
			l-0.001-0.001v24.534h68.034v8.187h-93.558c-19.781,0-37.092,11.294-42.51,32.7c-6.248,24.537-6.525,39.802,0,65.423
			c4.838,19.071,16.354,32.7,36.134,32.7h23.384v-29.425c0-21.261,19.453-40.067,42.534-40.067h68.009
			c18.923,0,34.016-14.734,34.016-32.722v-61.329C3561.544,959.294,3545.998,946.147,3527.528,943.233z M3455.263,984.938
			c-7.054,0-12.751-5.49-12.751-12.256c0-6.79,5.695-12.281,12.751-12.281c7.03,0,12.751,5.49,12.751,12.281
			C3468.014,979.45,3462.294,984.938,3455.263,984.938z"/>
		<path opacity="0.8" fill="#FFFFFF" d="M3629.58,1042.173c-4.886-18.638-14.211-32.7-34.016-32.7h-25.5v28.606
			c0,22.178-19.881,40.886-42.534,40.886h-68.008c-18.62,0-34.016,15.071-34.016,32.721v61.329c0,17.458,16.024,27.692,34.016,32.7
			c21.543,5.996,42.231,7.079,68.008,0c17.134-4.695,34.016-14.111,34.016-32.7v-24.533h-68.008v-8.187h102.026
			c19.78,0,27.138-13.1,34.016-32.7C3636.685,1087.417,3636.382,1068.059,3629.58,1042.173z M3531.786,1164.831
			c7.054,0,12.751,5.49,12.751,12.256c0,6.79-5.695,12.281-12.751,12.281c-7.03,0-12.751-5.49-12.751-12.281
			C3519.035,1170.319,3524.755,1164.831,3531.786,1164.831z"/>
	</g>
	<g transform="matrix(.1617 0 0 .158089 -107.53764 -81.66187)" opacity="0.4">
		<path fill="#FFFFFF" d="M7002.799,2324.013c-23.385-3.684-48.456-3.275-68.008,0c-28.8,4.815-34.017,14.928-34.017,33.517
			l-0.001-0.001v24.534h68.034v8.187h-93.558c-19.781,0-37.092,11.294-42.51,32.7c-6.249,24.537-6.525,39.802,0,65.423
			c4.838,19.071,16.354,32.7,36.134,32.7h23.384v-29.425c0-21.261,19.453-40.067,42.534-40.067h68.008
			c18.923,0,34.016-14.734,34.016-32.721v-61.329C7036.815,2340.074,7021.269,2326.927,7002.799,2324.013z M6930.534,2365.718
			c-7.054,0-12.751-5.49-12.751-12.256c0-6.79,5.694-12.281,12.751-12.281c7.03,0,12.751,5.49,12.751,12.281
			C6943.285,2360.23,6937.565,2365.718,6930.534,2365.718z"/>
		<path opacity="0.8" fill="#FFFFFF" d="M7104.851,2422.953c-4.887-18.638-14.211-32.699-34.017-32.699h-25.5v28.606
			c0,22.177-19.881,40.885-42.534,40.885h-68.008c-18.621,0-34.017,15.072-34.017,32.722v61.329c0,17.458,16.024,27.692,34.017,32.7
			c21.543,5.996,42.231,7.079,68.008,0c17.134-4.695,34.016-14.111,34.016-32.7v-24.533h-68.008v-8.187h102.026
			c19.78,0,27.138-13.1,34.017-32.7C7111.956,2468.198,7111.653,2448.839,7104.851,2422.953z M7007.057,2545.611
			c7.054,0,12.752,5.49,12.752,12.256c0,6.79-5.695,12.281-12.752,12.281c-7.029,0-12.751-5.49-12.751-12.281
			C6994.306,2551.099,7000.026,2545.611,7007.057,2545.611z"/>
	</g>
	<g transform="matrix(.1617 0 0 .158089 -107.53764 -81.66187)" opacity="0.4">
		<path fill="#FFFFFF" d="M8906.007,943.233c-23.385-3.684-48.455-3.275-68.008,0c-28.801,4.815-34.017,14.928-34.017,33.517
			l-0.001-0.001v24.534h68.033v8.187h-93.558c-19.781,0-37.093,11.294-42.51,32.7c-6.249,24.537-6.525,39.802,0,65.423
			c4.838,19.071,16.354,32.7,36.134,32.7h23.384v-29.425c0-21.261,19.453-40.067,42.534-40.067h68.008
			c18.923,0,34.017-14.734,34.017-32.722v-61.329C8940.023,959.294,8924.478,946.147,8906.007,943.233z M8833.742,984.938
			c-7.054,0-12.752-5.49-12.752-12.256c0-6.79,5.694-12.281,12.752-12.281c7.029,0,12.751,5.49,12.751,12.281
			C8846.493,979.45,8840.773,984.938,8833.742,984.938z"/>
		<path opacity="0.8" fill="#FFFFFF" d="M9008.059,1042.173c-4.887-18.638-14.211-32.7-34.017-32.7h-25.5v28.606
			c0,22.178-19.881,40.886-42.533,40.886H8838c-18.62,0-34.017,15.071-34.017,32.721v61.329c0,17.458,16.024,27.692,34.017,32.7
			c21.543,5.996,42.231,7.079,68.009,0c17.134-4.695,34.016-14.111,34.016-32.7v-24.533h-68.008v-8.187h102.025
			c19.78,0,27.139-13.1,34.017-32.7C9015.164,1087.417,9014.861,1068.059,9008.059,1042.173z M8910.265,1164.831
			c7.055,0,12.752,5.49,12.752,12.256c0,6.79-5.694,12.281-12.752,12.281c-7.029,0-12.751-5.49-12.751-12.281
			C8897.514,1170.319,8903.234,1164.831,8910.265,1164.831z"/>
	</g>
	<g transform="matrix(.1617 0 0 .158089 -107.53764 -81.66187)" opacity="0.4">
		<path fill="#FFFFFF" d="M6405.162,4342.561c-23.385-3.684-48.456-3.275-68.008,0c-28.8,4.815-34.017,14.928-34.017,33.518
			l-0.001-0.001v24.535h68.034v8.187h-93.558c-19.781,0-37.092,11.294-42.51,32.7c-6.249,24.537-6.526,39.802,0,65.423
			c4.838,19.071,16.354,32.7,36.134,32.7h23.384v-29.425c0-21.261,19.453-40.067,42.534-40.067h68.008
			c18.923,0,34.016-14.734,34.016-32.722v-61.329C6439.178,4358.622,6423.632,4345.474,6405.162,4342.561z M6332.896,4384.265
			c-7.054,0-12.751-5.49-12.751-12.256c0-6.79,5.694-12.281,12.751-12.281c7.03,0,12.751,5.49,12.751,12.281
			C6345.648,4378.777,6339.928,4384.265,6332.896,4384.265z"/>
		<path opacity="0.8" fill="#FFFFFF" d="M6507.213,4441.501c-4.887-18.639-14.211-32.7-34.017-32.7h-25.5v28.606
			c0,22.178-19.881,40.886-42.534,40.886h-68.009c-18.62,0-34.016,15.071-34.016,32.722v61.329c0,17.458,16.024,27.692,34.016,32.7
			c21.543,5.996,42.231,7.079,68.009,0c17.134-4.695,34.016-14.111,34.016-32.7v-24.533h-68.008v-8.187h102.026
			c19.78,0,27.138-13.1,34.017-32.7C6514.319,4486.745,6514.016,4467.386,6507.213,4441.501z M6409.419,4564.158
			c7.054,0,12.752,5.489,12.752,12.256c0,6.79-5.695,12.281-12.752,12.281c-7.029,0-12.751-5.49-12.751-12.281
			C6396.668,4569.646,6402.389,4564.158,6409.419,4564.158z"/>
	</g>
	<g opacity="0.4">
		<path opacity="0.2" fill-rule="evenodd" clip-rule="evenodd" fill="#FFFFFF" d="M408.058,192.511
			c-3.592,1.099-7.059,4.308-10.402,9.625c-5.014,7.976-11.49,19.311-2.573,28.285c4.125,4.152,10.937,6.602,19.876,2.721
			c7.181-3.118,9.178-12.064,6.6-16.268c-5.318-8.672-10.714-10.811-12.159-16.19C408.438,197.098,407.991,194.374,408.058,192.511z
			"/>
		<path opacity="0.4" fill-rule="evenodd" clip-rule="evenodd" fill="#FFFFFF" d="M408.058,192.403
			c-3.61,1.111-7.077,4.319-10.402,9.625c-4.987,7.959-11.49,19.311-2.573,28.285c4.125,4.152,10.849,5.493,14.58,3.031
			c2.432-1.605,4.087-3.135,5.04-6.359c1.061-3.59,0.247-8.423-0.311-10.643c-0.706-2.809-0.937-5.893-0.693-9.25
			c-0.086-0.09-0.15-0.158-0.193-0.203c-1.942-2.052-3.441-3.84-4.105-6.312C408.438,196.991,407.991,194.266,408.058,192.403z"/>
		<path opacity="0.6" fill-rule="evenodd" clip-rule="evenodd" fill="#FFFFFF" d="M405.069,193.8
			c-3.362,2.294-5.862,6.143-7.5,11.546c-2.456,8.104-2.723,15.577-1.856,19.924c1.68,8.426,10.386,11.625,19.317,7.703
			c5.496-2.414,7.785-7.595,7.664-13.219c-0.126-5.823-13.159-12.423-15.467-17.283C405.689,199.231,404.969,196.34,405.069,193.8z"
			/>
		<path opacity="0.4" fill-rule="evenodd" clip-rule="evenodd" fill="#FFFFFF" d="M413.593,208.993
			c4.033,4.465,4.912,7.574,2.637,9.325c-3.412,2.627-11.755,4.341-16.945,1.163c-3.46-2.119-4.769-6.664-3.928-13.635
			c-1.428,2.576-2.636,5.185-3.623,7.827c-0.987,2.643-1.275,5.408-0.865,8.296c1.237,2.161,4.245,3.604,9.023,4.329
			c7.167,1.088,13.951,0.551,18.503-1.431c3.035-1.321,4.47-2.636,4.306-3.944c0.109-1.933-0.581-3.773-2.071-5.52
			S416.794,211.52,413.593,208.993z"/>
		<path opacity="0.3" fill-rule="evenodd" clip-rule="evenodd" fill="#FFFFFF" d="M397.835,204.534
			c-0.034,3.225,0.927,6.29,2.881,9.197c2.932,4.359,6.354,8.667,11.475,12.238c3.414,2.38,6.142,3.15,8.183,2.307
			c-1.677,2.591-3.46,3.861-5.35,3.809c-2.834-0.078-6.29-1.147-11.826-6.892c-3.691-3.83-6.216-7.452-7.575-10.868
			c0.216-1.355,0.444-2.705,0.686-4.049C396.55,208.933,397.059,207.018,397.835,204.534z"/>
		<path opacity="0.1" fill-rule="evenodd" clip-rule="evenodd" fill="#FFFFFF" d="M406.496,208.96c0.313,2.627,1.497,6.829,0,9.627
			c-1.497,2.798-8.413,7.852-6.504,12.305c1.909,4.453,6.561,3.453,9.479,1.401s4.48-5.389,4.826-7.735
			c0.346-2.346-0.828-6.861-1.21-10.789c-0.255-2.618-0.082-4.863,0.518-6.734l-0.894-0.972l-5.263-1.345
			C406.604,205.795,406.287,207.209,406.496,208.96z"/>
		<path opacity="0.4" fill-rule="evenodd" clip-rule="evenodd" fill="#FFFFFF" d="M408.375,195.948
			c-1.703,0.621-3.317,1.853-4.842,3.694c-2.287,2.762-3.451,4.418-2.589,9.893c0.575,3.65,0.986,7.008,1.234,10.074l7.372-18.493
			c-0.271-0.942-0.496-1.793-0.676-2.553S408.527,196.932,408.375,195.948z"/>
		<path fill-rule="evenodd" clip-rule="evenodd" fill="#FFFFFF" fill-opacity="0.3163" d="M409.535,201.08
			c-1.871,0.943-3.321,2.875-4.35,5.796c-1.029,2.921-1.97,7.005-2.823,12.251c1.138-3.337,1.894-5.754,2.266-7.251
			c0.558-2.245,0.748-5.42,2.23-7.576C407.844,202.864,408.737,201.79,409.535,201.08z"/>
		<path fill-rule="evenodd" clip-rule="evenodd" fill="#EDEDED" fill-opacity="0.6033" d="M402.417,195.948
			c-1.694,1.747-3.162,3.599-4.403,5.557c-1.242,1.957-2.129,3.418-2.662,4.381c-0.165,0.718-0.246,1.778-0.242,3.18
			c0.004,1.402,0.144,2.96,0.421,4.675c0.242-3.359,0.985-6.619,2.226-9.781S400.553,198.127,402.417,195.948z"/>
	</g>
	<g opacity="0.4">
		<path opacity="0.2" fill-rule="evenodd" clip-rule="evenodd" fill="#FFFFFF" d="M1289.869,622.286
			c-3.592,1.099-7.059,4.308-10.402,9.625c-5.014,7.976-11.49,19.311-2.573,28.285c4.125,4.152,10.937,6.602,19.876,2.721
			c7.181-3.118,9.178-12.064,6.6-16.268c-5.318-8.672-10.714-10.811-12.159-16.19
			C1290.249,626.873,1289.801,624.149,1289.869,622.286z"/>
		<path opacity="0.4" fill-rule="evenodd" clip-rule="evenodd" fill="#FFFFFF" d="M1289.869,622.178
			c-3.61,1.111-7.077,4.319-10.402,9.625c-4.987,7.959-11.49,19.311-2.573,28.285c4.125,4.152,10.849,5.493,14.58,3.031
			c2.432-1.605,4.087-3.135,5.04-6.359c1.061-3.59,0.247-8.423-0.311-10.643c-0.706-2.809-0.937-5.893-0.693-9.25
			c-0.086-0.09-0.15-0.158-0.193-0.203c-1.942-2.052-3.441-3.84-4.105-6.312C1290.249,626.766,1289.801,624.042,1289.869,622.178z"
			/>
		<path opacity="0.6" fill-rule="evenodd" clip-rule="evenodd" fill="#FFFFFF" d="M1286.88,623.575
			c-3.362,2.294-5.862,6.143-7.5,11.546c-2.456,8.104-2.723,15.577-1.856,19.924c1.68,8.426,10.386,11.625,19.318,7.703
			c5.496-2.414,7.785-7.595,7.664-13.219c-0.125-5.823-13.159-12.423-15.467-17.283
			C1287.499,629.006,1286.78,626.116,1286.88,623.575z"/>
		<path opacity="0.4" fill-rule="evenodd" clip-rule="evenodd" fill="#FFFFFF" d="M1295.404,638.768
			c4.032,4.465,4.911,7.574,2.637,9.325c-3.412,2.627-11.755,4.341-16.945,1.163c-3.46-2.119-4.769-6.664-3.928-13.635
			c-1.428,2.576-2.636,5.185-3.623,7.827c-0.987,2.643-1.275,5.408-0.865,8.296c1.237,2.161,4.245,3.604,9.023,4.329
			c7.167,1.088,13.951,0.55,18.503-1.431c3.035-1.321,4.47-2.636,4.306-3.944c0.109-1.933-0.581-3.773-2.071-5.52
			S1298.605,641.296,1295.404,638.768z"/>
		<path opacity="0.3" fill-rule="evenodd" clip-rule="evenodd" fill="#FFFFFF" d="M1279.646,634.31
			c-0.034,3.225,0.927,6.29,2.881,9.197c2.932,4.359,6.354,8.667,11.474,12.238c3.414,2.38,6.142,3.15,8.183,2.307
			c-1.677,2.591-3.46,3.861-5.349,3.809c-2.834-0.078-6.29-1.147-11.826-6.892c-3.691-3.83-6.216-7.452-7.575-10.868
			c0.216-1.355,0.444-2.705,0.686-4.049C1278.361,638.708,1278.87,636.794,1279.646,634.31z"/>
		<path opacity="0.1" fill-rule="evenodd" clip-rule="evenodd" fill="#FFFFFF" d="M1288.306,638.735
			c0.313,2.627,1.497,6.829,0,9.627c-1.497,2.798-8.413,7.852-6.504,12.305s6.561,3.453,9.479,1.401
			c2.918-2.052,4.48-5.389,4.826-7.735c0.346-2.346-0.828-6.861-1.21-10.789c-0.255-2.618-0.082-4.863,0.518-6.734l-0.894-0.972
			l-5.263-1.345C1288.415,635.57,1288.098,636.984,1288.306,638.735z"/>
		<path opacity="0.4" fill-rule="evenodd" clip-rule="evenodd" fill="#FFFFFF" d="M1290.185,625.723
			c-1.703,0.622-3.317,1.853-4.842,3.694c-2.287,2.762-3.451,4.418-2.589,9.893c0.575,3.65,0.986,7.008,1.234,10.074l7.372-18.493
			c-0.271-0.942-0.496-1.793-0.676-2.553C1290.504,627.579,1290.338,626.707,1290.185,625.723z"/>
		<path fill-rule="evenodd" clip-rule="evenodd" fill="#FFFFFF" fill-opacity="0.3163" d="M1291.346,630.855
			c-1.871,0.943-3.321,2.875-4.35,5.796c-1.029,2.921-1.97,7.005-2.823,12.251c1.138-3.337,1.894-5.754,2.266-7.251
			c0.558-2.245,0.748-5.42,2.23-7.576C1289.655,632.639,1290.548,631.566,1291.346,630.855z"/>
		<path fill-rule="evenodd" clip-rule="evenodd" fill="#EDEDED" fill-opacity="0.6033" d="M1284.228,625.723
			c-1.694,1.747-3.162,3.599-4.403,5.557c-1.242,1.957-2.129,3.418-2.662,4.381c-0.165,0.718-0.246,1.778-0.242,3.18
			c0.004,1.402,0.144,2.96,0.421,4.675c0.242-3.359,0.985-6.619,2.226-9.781C1280.811,630.573,1282.364,627.903,1284.228,625.723z"
			/>
	</g>
	<g opacity="0.4">
		<path opacity="0.2" fill-rule="evenodd" clip-rule="evenodd" fill="#FFFFFF" d="M1043.536,505.936
			c-3.592,1.099-7.059,4.308-10.402,9.625c-5.014,7.976-11.49,19.311-2.573,28.285c4.125,4.152,10.937,6.602,19.876,2.721
			c7.181-3.118,9.178-12.064,6.6-16.268c-5.318-8.672-10.714-10.811-12.159-16.19
			C1043.916,510.524,1043.468,507.799,1043.536,505.936z"/>
		<path opacity="0.4" fill-rule="evenodd" clip-rule="evenodd" fill="#FFFFFF" d="M1043.536,505.829
			c-3.61,1.111-7.077,4.319-10.402,9.625c-4.987,7.959-11.49,19.311-2.573,28.285c4.125,4.152,10.849,5.493,14.58,3.031
			c2.432-1.605,4.087-3.135,5.04-6.359c1.061-3.59,0.247-8.423-0.311-10.643c-0.706-2.809-0.937-5.893-0.693-9.25
			c-0.086-0.09-0.15-0.158-0.193-0.203c-1.942-2.052-3.441-3.84-4.105-6.312C1043.916,510.416,1043.468,507.692,1043.536,505.829z"
			/>
		<path opacity="0.6" fill-rule="evenodd" clip-rule="evenodd" fill="#FFFFFF" d="M1040.547,507.225
			c-3.362,2.294-5.862,6.143-7.5,11.546c-2.457,8.104-2.723,15.577-1.856,19.924c1.679,8.427,10.386,11.625,19.317,7.703
			c5.496-2.414,7.785-7.595,7.664-13.219c-0.126-5.823-13.159-12.423-15.467-17.283
			C1041.166,512.656,1040.447,509.766,1040.547,507.225z"/>
		<path opacity="0.4" fill-rule="evenodd" clip-rule="evenodd" fill="#FFFFFF" d="M1049.071,522.419
			c4.033,4.465,4.912,7.574,2.637,9.325c-3.412,2.627-11.755,4.341-16.945,1.163c-3.46-2.119-4.769-6.664-3.928-13.635
			c-1.428,2.576-2.636,5.185-3.623,7.827s-1.275,5.408-0.865,8.296c1.237,2.161,4.245,3.604,9.023,4.329
			c7.167,1.088,13.951,0.551,18.503-1.431c3.035-1.321,4.47-2.636,4.306-3.944c0.109-1.933-0.581-3.773-2.071-5.52
			C1054.618,527.083,1052.272,524.946,1049.071,522.419z"/>
		<path opacity="0.3" fill-rule="evenodd" clip-rule="evenodd" fill="#FFFFFF" d="M1033.312,517.96
			c-0.034,3.225,0.927,6.29,2.881,9.197c2.932,4.359,6.354,8.667,11.474,12.238c3.414,2.38,6.142,3.15,8.183,2.307
			c-1.677,2.591-3.46,3.861-5.349,3.809c-2.834-0.078-6.29-1.147-11.826-6.892c-3.691-3.83-6.216-7.452-7.575-10.868
			c0.215-1.355,0.444-2.705,0.686-4.049S1032.536,520.444,1033.312,517.96z"/>
		<path opacity="0.1" fill-rule="evenodd" clip-rule="evenodd" fill="#FFFFFF" d="M1041.973,522.386
			c0.313,2.627,1.497,6.829,0,9.627c-1.497,2.798-8.413,7.852-6.504,12.305s6.561,3.453,9.479,1.401
			c2.918-2.052,4.48-5.389,4.826-7.735c0.346-2.346-0.828-6.861-1.21-10.789c-0.255-2.618-0.082-4.863,0.518-6.734l-0.894-0.971
			l-5.263-1.346C1042.082,519.22,1041.765,520.634,1041.973,522.386z"/>
		<path opacity="0.4" fill-rule="evenodd" clip-rule="evenodd" fill="#FFFFFF" d="M1043.852,509.374
			c-1.703,0.621-3.318,1.853-4.842,3.694c-2.287,2.762-3.451,4.418-2.589,9.893c0.575,3.65,0.986,7.008,1.234,10.074l7.372-18.493
			c-0.271-0.942-0.496-1.793-0.676-2.553C1044.171,511.23,1044.005,510.358,1043.852,509.374z"/>
		<path fill-rule="evenodd" clip-rule="evenodd" fill="#FFFFFF" fill-opacity="0.3163" d="M1045.013,514.506
			c-1.871,0.943-3.321,2.875-4.35,5.796c-1.029,2.921-1.97,7.005-2.823,12.251c1.139-3.337,1.894-5.754,2.266-7.251
			c0.558-2.245,0.748-5.42,2.23-7.576C1043.322,516.29,1044.215,515.216,1045.013,514.506z"/>
		<path fill-rule="evenodd" clip-rule="evenodd" fill="#EDEDED" fill-opacity="0.6033" d="M1037.895,509.374
			c-1.694,1.747-3.162,3.599-4.403,5.557c-1.242,1.957-2.129,3.418-2.662,4.381c-0.165,0.718-0.246,1.778-0.242,3.18
			c0.004,1.402,0.144,2.96,0.421,4.675c0.242-3.359,0.984-6.619,2.226-9.781C1034.478,514.224,1036.031,511.553,1037.895,509.374z"
			/>
	</g>
	<g opacity="0.4">
		<path opacity="0.2" fill-rule="evenodd" clip-rule="evenodd" fill="#FFFFFF" d="M158.117,506.207
			c-3.592,1.099-7.059,4.308-10.402,9.625c-5.014,7.976-11.49,19.311-2.573,28.285c4.125,4.152,10.937,6.602,19.876,2.721
			c7.181-3.118,9.178-12.064,6.6-16.268c-5.318-8.672-10.714-10.811-12.159-16.19C158.498,510.795,158.05,508.07,158.117,506.207z"
			/>
		<path opacity="0.4" fill-rule="evenodd" clip-rule="evenodd" fill="#FFFFFF" d="M158.117,506.1
			c-3.61,1.111-7.077,4.319-10.402,9.625c-4.987,7.959-11.49,19.311-2.573,28.285c4.125,4.152,10.849,5.493,14.58,3.031
			c2.432-1.605,4.087-3.135,5.04-6.359c1.061-3.59,0.247-8.423-0.311-10.643c-0.706-2.809-0.937-5.893-0.693-9.25
			c-0.086-0.09-0.15-0.158-0.193-0.203c-1.942-2.052-3.441-3.84-4.105-6.312C158.498,510.687,158.05,507.963,158.117,506.1z"/>
		<path opacity="0.6" fill-rule="evenodd" clip-rule="evenodd" fill="#FFFFFF" d="M155.128,507.496
			c-3.362,2.294-5.862,6.143-7.5,11.546c-2.456,8.104-2.723,15.577-1.856,19.924c1.679,8.426,10.386,11.625,19.317,7.703
			c5.496-2.414,7.785-7.595,7.664-13.219c-0.126-5.823-13.159-12.423-15.467-17.283
			C155.748,512.927,155.028,510.037,155.128,507.496z"/>
		<path opacity="0.4" fill-rule="evenodd" clip-rule="evenodd" fill="#FFFFFF" d="M163.653,522.69
			c4.033,4.465,4.912,7.574,2.637,9.325c-3.412,2.627-11.755,4.341-16.945,1.163c-3.46-2.119-4.769-6.664-3.928-13.635
			c-1.428,2.576-2.636,5.185-3.623,7.827c-0.987,2.643-1.275,5.408-0.865,8.296c1.237,2.161,4.245,3.604,9.023,4.329
			c7.167,1.088,13.951,0.55,18.503-1.431c3.035-1.321,4.47-2.636,4.306-3.944c0.11-1.933-0.581-3.773-2.071-5.52
			S166.854,525.217,163.653,522.69z"/>
		<path opacity="0.3" fill-rule="evenodd" clip-rule="evenodd" fill="#FFFFFF" d="M147.894,518.231
			c-0.034,3.225,0.927,6.29,2.881,9.197c2.932,4.359,6.354,8.667,11.475,12.238c3.414,2.38,6.142,3.15,8.183,2.307
			c-1.677,2.591-3.46,3.861-5.35,3.809c-2.834-0.078-6.29-1.147-11.826-6.892c-3.691-3.83-6.216-7.452-7.575-10.868
			c0.216-1.355,0.444-2.705,0.686-4.049C146.609,522.629,147.118,520.715,147.894,518.231z"/>
		<path opacity="0.1" fill-rule="evenodd" clip-rule="evenodd" fill="#FFFFFF" d="M156.555,522.656c0.313,2.627,1.497,6.829,0,9.627
			c-1.497,2.798-8.413,7.852-6.504,12.305c1.909,4.453,6.561,3.453,9.479,1.401c2.918-2.052,4.48-5.389,4.826-7.735
			c0.346-2.346-0.828-6.861-1.21-10.789c-0.255-2.618-0.082-4.863,0.518-6.734l-0.894-0.972l-5.263-1.345
			C156.664,519.491,156.346,520.905,156.555,522.656z"/>
		<path opacity="0.4" fill-rule="evenodd" clip-rule="evenodd" fill="#FFFFFF" d="M158.434,509.644
			c-1.703,0.621-3.317,1.853-4.842,3.694c-2.287,2.762-3.451,4.418-2.589,9.893c0.575,3.65,0.986,7.008,1.234,10.074l7.372-18.493
			c-0.271-0.942-0.496-1.793-0.676-2.553C158.752,511.501,158.586,510.629,158.434,509.644z"/>
		<path fill-rule="evenodd" clip-rule="evenodd" fill="#FFFFFF" fill-opacity="0.3163" d="M159.594,514.777
			c-1.871,0.943-3.321,2.875-4.35,5.796c-1.029,2.921-1.97,7.005-2.824,12.251c1.138-3.337,1.894-5.754,2.266-7.25
			c0.558-2.245,0.748-5.42,2.23-7.576C157.904,516.56,158.796,515.487,159.594,514.777z"/>
		<path fill-rule="evenodd" clip-rule="evenodd" fill="#EDEDED" fill-opacity="0.6033" d="M152.477,509.644
			c-1.694,1.747-3.162,3.599-4.403,5.557c-1.242,1.957-2.129,3.418-2.662,4.381c-0.165,0.718-0.246,1.778-0.242,3.18
			s0.144,2.96,0.421,4.675c0.242-3.359,0.985-6.619,2.226-9.781S150.613,511.824,152.477,509.644z"/>
	</g>
	<g opacity="0.4">
		<path opacity="0.2" fill-rule="evenodd" clip-rule="evenodd" fill="#FFFFFF" d="M1016.567,85.129
			c-3.592,1.099-7.059,4.308-10.402,9.625c-5.014,7.976-11.49,19.311-2.573,28.285c4.125,4.152,10.937,6.602,19.876,2.721
			c7.181-3.118,9.178-12.064,6.6-16.268c-5.318-8.672-10.714-10.811-12.159-16.19C1016.947,89.716,1016.5,86.992,1016.567,85.129z"
			/>
		<path opacity="0.4" fill-rule="evenodd" clip-rule="evenodd" fill="#FFFFFF" d="M1016.567,85.022
			c-3.61,1.111-7.077,4.319-10.402,9.625c-4.987,7.959-11.49,19.311-2.573,28.285c4.125,4.152,10.849,5.493,14.58,3.031
			c2.432-1.605,4.087-3.135,5.04-6.359c1.061-3.59,0.247-8.423-0.311-10.643c-0.706-2.809-0.937-5.893-0.693-9.25
			c-0.086-0.09-0.15-0.158-0.193-0.203c-1.942-2.052-3.441-3.84-4.105-6.312C1016.947,89.609,1016.5,86.885,1016.567,85.022z"/>
		<path opacity="0.6" fill-rule="evenodd" clip-rule="evenodd" fill="#FFFFFF" d="M1013.578,86.418
			c-3.362,2.294-5.862,6.143-7.5,11.546c-2.456,8.104-2.723,15.577-1.856,19.924c1.68,8.426,10.387,11.625,19.317,7.703
			c5.496-2.414,7.785-7.595,7.664-13.219c-0.125-5.823-13.159-12.423-15.467-17.283
			C1014.198,91.849,1013.478,88.959,1013.578,86.418z"/>
		<path opacity="0.4" fill-rule="evenodd" clip-rule="evenodd" fill="#FFFFFF" d="M1022.102,101.611
			c4.033,4.465,4.912,7.574,2.637,9.325c-3.412,2.627-11.755,4.341-16.945,1.163c-3.46-2.119-4.769-6.664-3.928-13.635
			c-1.428,2.576-2.636,5.185-3.623,7.827c-0.987,2.643-1.275,5.408-0.865,8.296c1.237,2.161,4.245,3.604,9.023,4.329
			c7.167,1.088,13.951,0.551,18.503-1.431c3.035-1.321,4.47-2.636,4.306-3.944c0.109-1.933-0.581-3.773-2.071-5.52
			C1027.649,106.276,1025.303,104.139,1022.102,101.611z"/>
		<path opacity="0.3" fill-rule="evenodd" clip-rule="evenodd" fill="#FFFFFF" d="M1006.344,97.153
			c-0.034,3.225,0.927,6.29,2.881,9.197c2.932,4.359,6.354,8.667,11.475,12.238c3.414,2.38,6.142,3.15,8.183,2.307
			c-1.677,2.591-3.46,3.861-5.349,3.809c-2.834-0.078-6.289-1.147-11.826-6.892c-3.691-3.83-6.216-7.452-7.575-10.868
			c0.216-1.355,0.444-2.705,0.686-4.049C1005.059,101.551,1005.568,99.637,1006.344,97.153z"/>
		<path opacity="0.1" fill-rule="evenodd" clip-rule="evenodd" fill="#FFFFFF" d="M1015.005,101.578
			c0.313,2.627,1.497,6.829,0,9.627c-1.497,2.798-8.413,7.852-6.504,12.305c1.909,4.453,6.561,3.453,9.479,1.401
			c2.918-2.052,4.48-5.389,4.826-7.735s-0.828-6.861-1.21-10.789c-0.255-2.618-0.082-4.863,0.518-6.734l-0.894-0.972l-5.263-1.345
			C1015.113,98.413,1014.796,99.827,1015.005,101.578z"/>
		<path opacity="0.4" fill-rule="evenodd" clip-rule="evenodd" fill="#FFFFFF" d="M1016.884,88.566
			c-1.703,0.621-3.317,1.853-4.842,3.694c-2.287,2.762-3.451,4.418-2.589,9.893c0.575,3.65,0.986,7.008,1.234,10.074l7.372-18.493
			c-0.271-0.942-0.496-1.793-0.676-2.553S1017.036,89.551,1016.884,88.566z"/>
		<path fill-rule="evenodd" clip-rule="evenodd" fill="#FFFFFF" fill-opacity="0.3163" d="M1018.044,93.699
			c-1.871,0.943-3.321,2.875-4.35,5.796c-1.029,2.921-1.97,7.005-2.823,12.251c1.138-3.337,1.894-5.754,2.266-7.251
			c0.558-2.245,0.748-5.42,2.23-7.576C1016.353,95.482,1017.246,94.409,1018.044,93.699z"/>
		<path fill-rule="evenodd" clip-rule="evenodd" fill="#EDEDED" fill-opacity="0.6033" d="M1010.927,88.566
			c-1.694,1.747-3.162,3.599-4.403,5.557c-1.242,1.957-2.129,3.418-2.662,4.381c-0.165,0.718-0.246,1.778-0.242,3.18
			c0.004,1.402,0.144,2.96,0.421,4.675c0.242-3.359,0.984-6.619,2.226-9.781C1007.509,93.417,1009.062,90.746,1010.927,88.566z"/>
	</g>
</g>
</svg>
