<?xml version="1.0" encoding="utf-8"?>
<!-- Generator: Adobe Illustrator 22.1.0, SVG Export Plug-In . SVG Version: 6.00 Build 0)  -->
<svg version="1.1" id="Layer_1" xmlns="http://www.w3.org/2000/svg" xmlns:xlink="http://www.w3.org/1999/xlink" x="0px" y="0px"
	 viewBox="0 0 1411.5 738.4" style="enable-background:new 0 0 1411.5 738.4;" xml:space="preserve">
<style type="text/css">
	.st0{opacity:0.35;fill:#FFFFFF;enable-background:new    ;}
	.st1{opacity:0.35;}
	.st2{opacity:0.6;fill:#FFFFFF;enable-background:new    ;}
	.st3{fill:#FFFFFF;}
	.st4{opacity:0.35;enable-background:new    ;}
	.st5{opacity:0.5;fill:#FFFFFF;}
	.st6{opacity:0.35;fill:#FFFFFF;}
</style>
<g>
	<path class="st0" d="M123.2,80.8v33.5h33.5V80.8H123.2z M141.4,106.9c0,3.3-1.9,4.7-4.7,4.7c-2.5,0-4-1.3-4.7-2.9l2.6-1.6
		c0.5,0.9,0.9,1.6,2,1.6c1,0,1.7-0.4,1.7-2V96.2h3.1V106.9z M148.8,111.7c-2.9,0-4.8-1.4-5.7-3.2l2.6-1.5c0.7,1.1,1.6,1.9,3.1,1.9
		c1.3,0,2.1-0.7,2.1-1.6c0-1.1-0.9-1.5-2.3-2.1l-0.8-0.3c-2.3-1-3.8-2.2-3.8-4.7c0-2.4,1.8-4.2,4.6-4.2c2,0,3.4,0.7,4.5,2.5
		l-2.5,1.6c-0.5-1-1.1-1.3-2-1.3c-0.9,0-1.5,0.6-1.5,1.3c0,0.9,0.6,1.3,1.9,1.9l0.8,0.3c2.7,1.1,4.2,2.3,4.2,4.9
		C154.1,110.1,151.8,111.7,148.8,111.7z M382.2,108.2v33.5h33.5v-33.5L382.2,108.2z M400.4,134.3c0,3.3-1.9,4.7-4.7,4.7
		c-2.5,0-4-1.3-4.7-2.9l2.6-1.6c0.5,0.9,0.9,1.6,2,1.6c1,0,1.7-0.4,1.7-2v-10.7h3.1L400.4,134.3L400.4,134.3z M407.9,139.1
		c-2.9,0-4.8-1.4-5.7-3.2l2.6-1.5c0.7,1.1,1.6,1.9,3.1,1.9c1.3,0,2.1-0.7,2.1-1.6c0-1.1-0.9-1.5-2.3-2.1l-0.8-0.3
		c-2.3-1-3.8-2.2-3.8-4.7c0-2.4,1.8-4.2,4.6-4.2c2,0,3.4,0.7,4.5,2.5l-2.5,1.6c-0.5-1-1.1-1.3-2-1.3c-0.9,0-1.5,0.6-1.5,1.3
		c0,0.9,0.6,1.3,1.9,1.9l0.8,0.3c2.7,1.1,4.2,2.3,4.2,4.9C413.1,137.5,410.9,139.1,407.9,139.1L407.9,139.1z M568.2,453.2v33.5h33.5
		v-33.5H568.2z M586.4,479.3c0,3.3-1.9,4.7-4.7,4.7c-2.5,0-4-1.3-4.7-2.9l2.6-1.6c0.5,0.9,0.9,1.6,2,1.6c1,0,1.7-0.4,1.7-2v-10.7
		h3.1L586.4,479.3L586.4,479.3z M593.9,484.1c-2.9,0-4.8-1.4-5.7-3.2l2.6-1.5c0.7,1.1,1.6,1.9,3.1,1.9c1.3,0,2.1-0.7,2.1-1.6
		c0-1.1-0.9-1.5-2.3-2.1l-0.8-0.3c-2.3-1-3.8-2.2-3.8-4.7c0-2.4,1.8-4.2,4.6-4.2c2,0,3.4,0.7,4.5,2.5l-2.5,1.6c-0.5-1-1.1-1.4-2-1.4
		c-0.9,0-1.5,0.6-1.5,1.4c0,0.9,0.6,1.3,1.9,1.9l0.8,0.3c2.7,1.1,4.2,2.3,4.2,4.9C599.1,482.5,596.9,484.1,593.9,484.1L593.9,484.1z
		 M1104.2,290.2v33.5h33.5v-33.5H1104.2z M1122.4,316.3c0,3.3-1.9,4.7-4.7,4.7c-2.5,0-4-1.3-4.7-2.9l2.6-1.6c0.5,0.9,0.9,1.6,2,1.6
		c1,0,1.7-0.4,1.7-2v-10.7h3.1L1122.4,316.3z M1129.9,321.1c-2.9,0-4.8-1.4-5.7-3.2l2.6-1.5c0.7,1.1,1.6,1.9,3.1,1.9
		c1.3,0,2.1-0.7,2.1-1.6c0-1.1-0.9-1.5-2.3-2.1l-0.8-0.3c-2.3-1-3.8-2.2-3.8-4.7c0-2.4,1.8-4.2,4.6-4.2c2,0,3.4,0.7,4.5,2.5
		l-2.5,1.6c-0.5-1-1.1-1.4-2-1.4c-0.9,0-1.5,0.6-1.5,1.4c0,0.9,0.6,1.3,1.9,1.9l0.8,0.3c2.7,1.1,4.2,2.3,4.2,4.9
		C1135.1,319.5,1132.9,321.1,1129.9,321.1L1129.9,321.1z M988.2,63.2v33.5h33.5V63.2L988.2,63.2L988.2,63.2z M1006.4,89.3
		c0,3.3-1.9,4.7-4.7,4.7c-2.5,0-4-1.3-4.7-2.9l2.6-1.6c0.5,0.9,0.9,1.6,2,1.6c1,0,1.7-0.4,1.7-2V78.6h3.1L1006.4,89.3z M1013.9,94.1
		c-2.9,0-4.8-1.4-5.7-3.2l2.6-1.5c0.7,1.1,1.6,1.9,3.1,1.9c1.3,0,2.1-0.7,2.1-1.6c0-1.1-0.9-1.5-2.3-2.1l-0.8-0.3
		c-2.3-1-3.8-2.2-3.8-4.7c0-2.4,1.8-4.2,4.6-4.2c2,0,3.4,0.7,4.5,2.5l-2.5,1.6c-0.5-1-1.1-1.3-2-1.3c-0.9,0-1.5,0.6-1.5,1.3
		c0,0.9,0.6,1.3,1.9,1.9l0.8,0.3c2.7,1.1,4.2,2.3,4.2,4.9C1019.1,92.5,1016.9,94.1,1013.9,94.1L1013.9,94.1z M906.2,638.2v33.5h33.5
		v-33.5H906.2z M924.4,664.3c0,3.3-1.9,4.7-4.7,4.7c-2.5,0-4-1.3-4.7-2.9l2.6-1.6c0.5,0.9,0.9,1.6,2,1.6c1,0,1.7-0.4,1.7-2v-10.7
		h3.1L924.4,664.3z M931.9,669.1c-2.9,0-4.8-1.4-5.7-3.2l2.6-1.5c0.7,1.1,1.6,1.9,3.1,1.9c1.3,0,2.1-0.7,2.1-1.6
		c0-1.1-0.9-1.5-2.3-2.1l-0.8-0.3c-2.3-1-3.8-2.2-3.8-4.7c0-2.4,1.8-4.2,4.6-4.2c2,0,3.4,0.7,4.5,2.5l-2.5,1.6c-0.5-1-1.1-1.4-2-1.4
		c-0.9,0-1.5,0.6-1.5,1.4c0,0.9,0.6,1.3,1.9,1.9l0.8,0.3c2.7,1.1,4.2,2.3,4.2,4.9C937.1,667.5,934.9,669.1,931.9,669.1L931.9,669.1z
		 M59.2,638.2v33.5h33.5v-33.5H59.2z M77.4,664.3c0,3.3-1.9,4.7-4.7,4.7c-2.5,0-4-1.3-4.7-2.9l2.6-1.6c0.5,0.9,0.9,1.6,2,1.6
		c1,0,1.7-0.4,1.7-2v-10.7h3.2L77.4,664.3z M84.9,669.1c-2.9,0-4.8-1.4-5.7-3.2l2.6-1.5c0.7,1.1,1.6,1.9,3.1,1.9
		c1.3,0,2.1-0.7,2.1-1.6c0-1.1-0.9-1.5-2.3-2.1l-0.8-0.3c-2.3-1-3.8-2.2-3.8-4.7c0-2.4,1.8-4.2,4.6-4.2c2,0,3.4,0.7,4.5,2.5
		l-2.5,1.6c-0.5-1-1.1-1.4-2-1.4c-0.9,0-1.5,0.6-1.5,1.4c0,0.9,0.6,1.3,1.9,1.9l0.8,0.3c2.7,1.1,4.2,2.3,4.2,4.9
		C90.1,667.5,87.9,669.1,84.9,669.1L84.9,669.1z M1180.2,404.2v33.5h33.5v-33.5H1180.2z M1198.4,430.3c0,3.3-1.9,4.7-4.7,4.7
		c-2.5,0-4-1.3-4.7-2.9l2.6-1.6c0.5,0.9,0.9,1.6,2,1.6c1,0,1.7-0.4,1.7-2v-10.7h3.1L1198.4,430.3z M1205.9,435.1
		c-2.9,0-4.8-1.4-5.7-3.2l2.6-1.5c0.7,1.1,1.6,1.9,3.1,1.9c1.3,0,2.1-0.7,2.1-1.6c0-1.1-0.9-1.5-2.3-2.1l-0.8-0.3
		c-2.3-1-3.8-2.2-3.8-4.7c0-2.4,1.8-4.2,4.6-4.2c2,0,3.4,0.7,4.5,2.5l-2.5,1.6c-0.5-1-1.1-1.4-2-1.4c-0.9,0-1.5,0.6-1.5,1.4
		c0,0.9,0.6,1.3,1.9,1.9l0.8,0.3c2.7,1.1,4.2,2.3,4.2,4.9C1211.1,433.5,1208.9,435.1,1205.9,435.1L1205.9,435.1z M780.2,100.2v33.5
		h33.5v-33.5H780.2z M798.4,126.3c0,3.3-1.9,4.7-4.7,4.7c-2.5,0-4-1.3-4.7-2.9l2.6-1.6c0.5,0.9,0.9,1.6,2,1.6c1,0,1.7-0.4,1.7-2
		v-10.7h3.1L798.4,126.3z M805.9,131.1c-2.9,0-4.8-1.4-5.7-3.2l2.6-1.5c0.7,1.1,1.6,1.9,3.1,1.9c1.3,0,2.1-0.7,2.1-1.6
		c0-1.1-0.9-1.5-2.3-2.1l-0.8-0.3c-2.3-1-3.8-2.2-3.8-4.7c0-2.4,1.8-4.2,4.6-4.2c2,0,3.4,0.7,4.5,2.5l-2.5,1.6c-0.5-1-1.1-1.3-2-1.3
		c-0.9,0-1.5,0.6-1.5,1.3c0,0.9,0.6,1.3,1.9,1.9l0.8,0.3c2.7,1.1,4.2,2.3,4.2,4.9C811.1,129.5,808.9,131.1,805.9,131.1L805.9,131.1z
		"/>
	<g class="st1">
		<path class="st2" d="M511.8,371.1h1.8v1.7h1.6v-1.7h1.8v5.3h-1.8v-1.8h-1.6v1.8h-1.8V371.1z M519.3,372.9h-1.6v-1.8h4.9v1.8H521
			v3.5h-1.8L519.3,372.9L519.3,372.9z M523.4,371.1h1.8l1.1,1.9l1.1-1.9h1.8v5.3h-1.8v-2.6l-1.2,1.9h0l-1.2-1.9v2.6h-1.7
			L523.4,371.1L523.4,371.1z M530.2,371.1h1.8v3.5h2.5v1.8h-4.3V371.1z"/>
		<path class="st3" d="M509.2,378.9l2.5,28.4l11.4,3.2l11.4-3.2l2.5-28.4H509.2z M531.7,385.6l-0.2,1.8l-0.1,0.8h-13.3l0.3,3.6h12.7
			l-0.1,0.9l-0.8,9.2l-0.1,0.6l-7.1,2l0,0l-7.1-2l-0.5-5.5h3.5l0.2,2.8l3.9,1h0l3.9-1l0.4-4.5h-12.1l-0.9-9.6l-0.1-0.9h17.4
			L531.7,385.6z"/>
	</g>
	<g class="st1">
		<path class="st2" d="M385.8,62.1h1.8v1.7h1.6v-1.7h1.8v5.3h-1.8v-1.8h-1.6v1.8h-1.8V62.1z M393.3,63.9h-1.6v-1.8h4.9v1.8H395v3.5
			h-1.8V63.9z M397.4,62.1h1.8l1.1,1.9l1.1-1.9h1.8v5.3h-1.8v-2.6l-1.2,1.9h0l-1.2-1.9v2.6h-1.7L397.4,62.1L397.4,62.1z M404.2,62.1
			h1.8v3.5h2.5v1.8h-4.3V62.1z"/>
		<path class="st3" d="M383.2,69.9l2.5,28.4l11.4,3.2l11.4-3.2l2.5-28.4L383.2,69.9z M405.7,76.6l-0.2,1.8l-0.1,0.8h-13.3l0.3,3.6
			h12.7l-0.1,0.9l-0.8,9.2l-0.1,0.6l-7.1,2l0,0l-7.1-2l-0.5-5.5h3.5l0.2,2.8l3.9,1l0,0l3.9-1l0.4-4.5h-12.1l-0.9-9.6l-0.1-0.9h17.4
			L405.7,76.6z"/>
	</g>
	<g class="st1">
		<path class="st2" d="M931.8,487.1h1.8v1.7h1.6v-1.7h1.8v5.3h-1.8v-1.8h-1.6v1.8h-1.8L931.8,487.1z M939.3,488.9h-1.6v-1.8h4.9v1.8
			H941v3.5h-1.8L939.3,488.9L939.3,488.9z M943.4,487.1h1.8l1.1,1.9l1.1-1.9h1.8v5.3h-1.8v-2.6l-1.2,1.9h0l-1.2-1.9v2.6h-1.7
			L943.4,487.1z M950.2,487.1h1.8v3.5h2.5v1.8h-4.3V487.1z"/>
		<path class="st3" d="M929.2,494.9l2.5,28.4l11.4,3.2l11.4-3.2l2.5-28.4L929.2,494.9z M951.7,501.6l-0.2,1.8l-0.1,0.8h-13.3
			l0.3,3.6h12.7l-0.1,0.9l-0.8,9.2l-0.1,0.6l-7.1,2v0l0,0l-7.1-2l-0.5-5.5h3.5l0.2,2.8l3.9,1h0l3.9-1l0.4-4.5h-12.1l-0.9-9.6
			l-0.1-0.9h17.4L951.7,501.6z"/>
	</g>
	<g class="st1">
		<path class="st2" d="M1277.8,591.1h1.8v1.7h1.6v-1.7h1.8v5.3h-1.8v-1.8h-1.6v1.8h-1.8L1277.8,591.1z M1285.3,592.9h-1.6v-1.8h4.9
			v1.8h-1.6v3.5h-1.8L1285.3,592.9z M1289.4,591.1h1.8l1.1,1.9l1.1-1.9h1.8v5.3h-1.8v-2.6l-1.2,1.9h0l-1.2-1.9v2.6h-1.7
			L1289.4,591.1z M1296.2,591.1h1.8v3.5h2.5v1.8h-4.3V591.1z"/>
		<path class="st3" d="M1275.2,598.9l2.5,28.4l11.4,3.2l11.4-3.2l2.5-28.4L1275.2,598.9z M1297.7,605.6l-0.2,1.8l-0.1,0.8h-13.3
			l0.3,3.6h12.7l-0.1,0.9l-0.8,9.2l-0.1,0.6l-7.1,2v0l0,0l-7.1-2l-0.5-5.5h3.5l0.2,2.8l3.9,1h0l3.9-1l0.4-4.5h-12.1l-0.9-9.6
			l-0.1-0.9h17.4L1297.7,605.6z"/>
	</g>
	<g class="st1">
		<path class="st2" d="M1269.8,55.1h1.8v1.7h1.6v-1.7h1.8v5.3h-1.8v-1.8h-1.6v1.8h-1.8L1269.8,55.1z M1277.3,56.9h-1.6v-1.8h4.9v1.8
			h-1.6v3.5h-1.8L1277.3,56.9z M1281.4,55.1h1.8l1.1,1.9l1.1-1.9h1.8v5.3h-1.8v-2.6l-1.2,1.9h0l-1.2-1.9v2.6h-1.7L1281.4,55.1z
			 M1288.2,55.1h1.8v3.5h2.5v1.8h-4.3V55.1z"/>
		<path class="st3" d="M1267.2,62.9l2.5,28.4l11.4,3.2l11.4-3.2l2.5-28.4L1267.2,62.9z M1289.7,69.6l-0.2,1.8l-0.1,0.8h-13.3
			l0.3,3.6h12.7l-0.1,0.9l-0.8,9.2l-0.1,0.6l-7.1,2l0,0l-7.1-2l-0.5-5.5h3.5l0.2,2.8l3.9,1l0,0l3.9-1l0.4-4.5h-12.1l-0.9-9.6
			l-0.1-0.9h17.4L1289.7,69.6z"/>
	</g>
	<g class="st1">
		<path class="st2" d="M844.8,307.1h1.8v1.7h1.6v-1.7h1.8v5.3h-1.8v-1.8h-1.6v1.8h-1.8L844.8,307.1z M852.3,308.9h-1.6v-1.8h4.9v1.8
			H854v3.5h-1.8L852.3,308.9L852.3,308.9z M856.4,307.1h1.8l1.1,1.9l1.1-1.9h1.8v5.3h-1.8v-2.6l-1.2,1.9h0l-1.2-1.9v2.6h-1.7
			L856.4,307.1z M863.2,307.1h1.8v3.5h2.5v1.8h-4.3V307.1z"/>
		<path class="st3" d="M842.2,314.9l2.5,28.4l11.4,3.2l11.4-3.2l2.5-28.4H842.2z M864.7,321.6l-0.2,1.8l-0.1,0.8h-13.3l0.3,3.6h12.7
			l-0.1,0.9l-0.8,9.2l-0.1,0.6l-7.1,2l0,0l-7.1-2l-0.5-5.5h3.5l0.2,2.8l3.9,1l0,0l3.9-1l0.4-4.5h-12.1l-0.9-9.6l-0.1-0.9h17.4
			L864.7,321.6z"/>
	</g>
	<g class="st1">
		<path class="st2" d="M101.8,504.1h1.8v1.7h1.6v-1.7h1.8v5.3h-1.8v-1.8h-1.6v1.8h-1.8L101.8,504.1z M109.3,505.9h-1.6v-1.8h4.9v1.8
			H111v3.5h-1.8L109.3,505.9z M113.4,504.1h1.8l1.1,1.9l1.1-1.9h1.8v5.3h-1.8v-2.6l-1.2,1.9h0l-1.2-1.9v2.6h-1.7V504.1z
			 M120.2,504.1h1.8v3.5h2.5v1.8h-4.3V504.1z"/>
		<path class="st3" d="M99.2,511.9l2.5,28.4l11.4,3.2l11.4-3.2l2.5-28.4L99.2,511.9z M121.7,518.6l-0.2,1.8l-0.1,0.8h-13.3l0.3,3.6
			h12.7l-0.1,0.9l-0.8,9.2l-0.1,0.6l-7.1,2v0l0,0l-7.1-2l-0.5-5.5h3.5l0.2,2.8l3.9,1h0l3.9-1l0.4-4.5h-12.1l-0.9-9.6l-0.1-0.9h17.4
			L121.7,518.6z"/>
	</g>
	<g class="st1">
		<path class="st2" d="M44.8,149.1h1.8v1.7h1.6v-1.7H50v5.3h-1.8v-1.8h-1.6v1.8h-1.8V149.1z M52.3,150.9h-1.6v-1.8h4.9v1.8H54v3.5
			h-1.8L52.3,150.9z M56.4,149.1h1.8l1.1,1.9l1.1-1.9h1.8v5.3h-1.8v-2.6l-1.2,1.9h0l-1.2-1.9v2.6h-1.7L56.4,149.1z M63.2,149.1H65
			v3.5h2.5v1.8h-4.3V149.1z"/>
		<path class="st3" d="M42.2,156.9l2.5,28.4l11.4,3.2l11.4-3.2l2.5-28.4H42.2z M64.7,163.6l-0.2,1.8l-0.1,0.8H51.2l0.3,3.6h12.7
			l-0.1,0.9l-0.8,9.2l-0.1,0.6l-7.1,2l0,0l-7.1-2l-0.5-5.5H52l0.2,2.8l3.9,1l0,0l3.9-1l0.4-4.5H48.3l-0.9-9.6l-0.1-0.9h17.4
			L64.7,163.6z"/>
	</g>
	<path class="st0" d="M679.3,188.8c-1.4,0-2.5,1.1-2.5,2.5v9.5c0,1.4,1.1,2.5,2.5,2.5s2.5-1.1,2.5-2.5v-9.5
		C681.8,189.9,680.7,188.8,679.3,188.8L679.3,188.8z M652.6,188.8c-1.4,0-2.5,1.1-2.5,2.5v9.5c0,1.4,1.1,2.5,2.5,2.5
		c1.4,0,2.5-1.1,2.5-2.5v-9.5C655.2,189.9,654,188.8,652.6,188.8L652.6,188.8z M655.8,204.2c0,1.4,1.1,2.5,2.5,2.5l0,0h1.4v5
		c0,1.4,1.1,2.5,2.5,2.5s2.5-1.1,2.5-2.5v-5h2.6v5c0,1.4,1.1,2.5,2.5,2.5c1.4,0,2.5-1.1,2.5-2.5v-5h1.4c1.4,0,2.5-1.1,2.5-2.5v-15
		h-20.4L655.8,204.2z M676.2,188.6c0-3.4-2-6.5-5-8.1l1.6-2.9c0.1-0.3,0-0.6-0.2-0.7c-0.2-0.1-0.6-0.1-0.7,0.2c0,0,0,0,0,0l-1.6,3
		c-1.3-0.6-2.8-0.8-4.2-0.8c-1.4,0-2.9,0.3-4.2,0.8l-1.6-3c-0.1-0.3-0.5-0.4-0.7-0.3c-0.3,0.1-0.4,0.5-0.3,0.7c0,0,0,0.1,0,0.1
		l1.6,2.9c-3,1.6-5,4.6-5,8.1l0,0.1l0,0v0.1h20.4v-0.1L676.2,188.6L676.2,188.6z M661.3,184.7c-0.3,0-0.6-0.3-0.6-0.6
		c0-0.3,0.3-0.6,0.6-0.6s0.6,0.3,0.6,0.6C661.9,184.4,661.6,184.7,661.3,184.7L661.3,184.7z M670.7,184.7c-0.3,0-0.6-0.3-0.6-0.6
		c0-0.3,0.2-0.6,0.6-0.6h0c0.3,0,0.6,0.3,0.6,0.6C671.3,184.4,671,184.7,670.7,184.7L670.7,184.7z M1102.3,544.8
		c-1.4,0-2.5,1.1-2.5,2.5v9.5c0,1.4,1.1,2.5,2.5,2.5s2.5-1.1,2.5-2.5v-9.5C1104.8,545.9,1103.7,544.8,1102.3,544.8z M1075.6,544.8
		c-1.4,0-2.5,1.1-2.5,2.5v9.5c0,1.4,1.1,2.5,2.5,2.5c1.4,0,2.5-1.1,2.5-2.5v-9.5C1078.2,545.9,1077,544.8,1075.6,544.8z
		 M1078.8,560.2c0,1.4,1.1,2.5,2.5,2.5h1.4v5c0,1.4,1.1,2.5,2.5,2.5s2.5-1.1,2.5-2.5v-5h2.6v5c0,1.4,1.1,2.5,2.5,2.5
		c1.4,0,2.5-1.1,2.5-2.5v-5h1.4c1.4,0,2.5-1.1,2.5-2.5v-15h-20.4L1078.8,560.2z M1099.2,544.6c0-3.4-2-6.5-5-8.1l1.6-2.9
		c0.1-0.3,0-0.6-0.3-0.7c-0.3-0.1-0.6,0-0.7,0.2l-1.6,3c-1.3-0.6-2.8-0.8-4.2-0.8c-1.4,0-2.9,0.3-4.2,0.8l-1.6-3
		c-0.2-0.3-0.5-0.3-0.8-0.2c-0.2,0.1-0.3,0.5-0.2,0.7l1.6,2.9c-3,1.6-5,4.6-5,8.1l0,0.1l0,0v0.1h20.4v-0.1L1099.2,544.6
		C1099.2,544.7,1099.2,544.7,1099.2,544.6L1099.2,544.6z M1084.3,540.7c-0.3,0-0.6-0.3-0.6-0.6c0-0.3,0.3-0.6,0.6-0.6
		s0.6,0.3,0.6,0.6C1084.9,540.4,1084.6,540.7,1084.3,540.7z M1093.7,540.7c-0.3,0-0.6-0.3-0.6-0.6s0.3-0.6,0.6-0.6
		c0.3,0,0.6,0.3,0.6,0.6C1094.2,540.4,1094,540.6,1093.7,540.7z M1341.3,85.8c-1.4,0-2.5,1.1-2.5,2.5v9.5c0,1.4,1.1,2.5,2.5,2.5
		s2.5-1.1,2.5-2.5v-9.5C1343.8,86.9,1342.7,85.8,1341.3,85.8z M1314.6,85.8c-1.4,0-2.5,1.1-2.5,2.5v9.5c0,1.4,1.1,2.5,2.5,2.5
		c1.4,0,2.5-1.1,2.5-2.5v-9.5C1317.2,86.9,1316,85.8,1314.6,85.8z M1317.8,101.2c0,1.4,1.1,2.5,2.5,2.5l0,0h1.4v5
		c0,1.4,1.1,2.5,2.5,2.5s2.5-1.1,2.5-2.5v-5h2.6v5c0,1.4,1.1,2.5,2.5,2.5c1.4,0,2.5-1.1,2.5-2.5v-5h1.4c1.4,0,2.5-1.1,2.5-2.5v-15
		h-20.4C1317.8,86.2,1317.8,101.2,1317.8,101.2z M1338.2,85.6c0-3.4-2-6.5-5-8.1l1.6-2.9c0.1-0.3,0-0.6-0.2-0.7
		c-0.3-0.1-0.6-0.1-0.7,0.2c0,0,0,0,0,0l-1.6,3c-1.3-0.6-2.8-0.8-4.2-0.8c-1.4,0-2.9,0.3-4.2,0.8l-1.6-3c-0.1-0.3-0.5-0.4-0.7-0.3
		s-0.4,0.5-0.3,0.7c0,0,0,0.1,0,0.1l1.6,2.9c-3,1.6-5,4.6-5,8.1l0,0.1l0,0v0.1h20.4v-0.1L1338.2,85.6L1338.2,85.6z M1323.3,81.7
		c-0.3,0-0.6-0.3-0.6-0.6c0-0.3,0.3-0.6,0.6-0.6c0.3,0,0.6,0.3,0.6,0.6C1323.9,81.4,1323.6,81.7,1323.3,81.7z M1332.7,81.7
		c-0.3,0-0.6-0.3-0.6-0.6c0-0.3,0.3-0.6,0.6-0.6h0.1c0.3,0,0.6,0.3,0.6,0.6C1333.3,81.4,1333,81.7,1332.7,81.7L1332.7,81.7z
		 M430.3,297.8c-1.4,0-2.5,1.1-2.5,2.5v9.5c0,1.4,1.1,2.5,2.5,2.5c1.4,0,2.5-1.1,2.5-2.5v-9.5C432.8,298.9,431.7,297.8,430.3,297.8z
		 M403.6,297.8c-1.4,0-2.5,1.1-2.5,2.5v9.5c0,1.4,1.1,2.5,2.5,2.5c1.4,0,2.5-1.1,2.5-2.5v-9.5C406.2,298.9,405,297.8,403.6,297.8z
		 M406.8,313.2c0,1.4,1.1,2.5,2.5,2.5h0h1.4v5c0,1.4,1.1,2.5,2.5,2.5s2.5-1.1,2.5-2.5v-5h2.6v5c0,1.4,1.2,2.5,2.6,2.5
		c1.3,0,2.4-1.1,2.5-2.5v-5h1.4c1.4,0,2.5-1.1,2.5-2.5v0v-15h-20.4L406.8,313.2z M427.2,297.6c0-3.4-2-6.5-5-8.1l1.6-2.9
		c0.1-0.3,0-0.6-0.3-0.7c-0.2-0.1-0.5,0-0.7,0.2l-1.6,3c-1.3-0.6-2.8-0.8-4.2-0.8c-1.4,0-2.9,0.3-4.2,0.8l-1.6-3
		c-0.1-0.3-0.5-0.4-0.8-0.2c-0.3,0.1-0.4,0.5-0.2,0.8l1.6,2.9c-3,1.6-5,4.6-5,8.1l0,0.1l0,0v0.1h20.4v-0.1L427.2,297.6L427.2,297.6z
		 M412.3,293.7c-0.3,0-0.6-0.3-0.6-0.6c0-0.3,0.2-0.6,0.6-0.6h0c0.3,0,0.6,0.3,0.6,0.6C412.9,293.4,412.6,293.7,412.3,293.7z
		 M421.7,293.7c-0.3,0-0.6-0.2-0.7-0.6c0-0.3,0.2-0.6,0.6-0.7c0,0,0,0,0,0h0c0.3,0,0.6,0.3,0.6,0.7
		C422.2,293.4,422,293.6,421.7,293.7z M89.3,386.8c-1.4,0-2.5,1.1-2.5,2.5v9.5c0,1.4,1.1,2.5,2.5,2.5c1.4,0,2.5-1.1,2.5-2.5v-9.5
		C91.8,387.9,90.7,386.8,89.3,386.8z M62.6,386.8c-1.4,0-2.5,1.1-2.5,2.5v9.5c0,1.4,1.1,2.5,2.5,2.5c1.4,0,2.5-1.1,2.5-2.5v-9.5
		C65.2,387.9,64,386.8,62.6,386.8z M65.8,402.2c0,1.4,1.1,2.5,2.5,2.5h1.4v5c0,1.4,1.1,2.5,2.5,2.5c1.4,0,2.5-1.1,2.5-2.5v-5h2.6v5
		c0,1.4,1.1,2.5,2.5,2.5s2.5-1.1,2.5-2.5v-5h1.4c1.4,0,2.5-1.1,2.5-2.5v-15H65.8L65.8,402.2z M86.2,386.6c0-3.4-2-6.4-5-8.1l1.6-2.9
		c0.2-0.3,0.1-0.6-0.2-0.8c-0.3-0.2-0.6-0.1-0.8,0.2c0,0,0,0.1,0,0.1l-1.6,3c-1.3-0.6-2.8-0.8-4.2-0.8c-1.5,0-2.9,0.3-4.2,0.8
		l-1.6-3c-0.2-0.3-0.5-0.3-0.8-0.2c-0.2,0.1-0.3,0.5-0.2,0.7l1.6,2.9c-3,1.6-5,4.6-5,8.1l0,0.1l0,0v0.1h20.4v-0.1L86.2,386.6
		C86.2,386.7,86.2,386.7,86.2,386.6z M71.3,382.7c-0.3,0-0.6-0.3-0.6-0.6c0-0.3,0.2-0.6,0.6-0.6h0.1c0.3,0,0.6,0.3,0.6,0.6
		C71.9,382.4,71.6,382.7,71.3,382.7C71.3,382.7,71.3,382.7,71.3,382.7z M80.7,382.7c-0.3,0-0.6-0.3-0.6-0.6c0-0.3,0.2-0.6,0.6-0.6
		h0.1c0.3,0,0.6,0.2,0.7,0.6S81.1,382.6,80.7,382.7C80.7,382.7,80.7,382.7,80.7,382.7z M314.3,510.8c-1.4,0-2.5,1.1-2.5,2.5v9.5
		c0,1.4,1.1,2.5,2.5,2.5c1.4,0,2.5-1.1,2.5-2.5v-9.5C316.8,511.9,315.7,510.8,314.3,510.8L314.3,510.8z M287.6,510.8
		c-1.4,0-2.5,1.1-2.5,2.5v9.5c0,1.4,1.1,2.5,2.5,2.5c1.4,0,2.5-1.1,2.5-2.5v-9.5C290.2,511.9,289,510.8,287.6,510.8L287.6,510.8z
		 M290.8,526.2c0,1.4,1.1,2.5,2.5,2.5h1.4v5c0,1.4,1.1,2.5,2.5,2.5c1.4,0,2.5-1.1,2.5-2.5v-5h2.6v5c0,1.4,1.1,2.5,2.5,2.5
		s2.5-1.1,2.5-2.5l0,0v-5h1.4c1.4,0,2.5-1.1,2.5-2.5v-15h-20.4L290.8,526.2z M311.2,510.6c0-3.4-2-6.4-5-8.1l1.6-2.9
		c0.1-0.3,0-0.6-0.2-0.8c-0.1,0-0.2-0.1-0.3-0.1c-0.2,0-0.4,0.1-0.5,0.3l-1.6,3c-1.3-0.6-2.8-0.8-4.2-0.8c-1.5,0-2.9,0.3-4.2,0.8
		l-1.6-3c-0.1-0.3-0.5-0.4-0.7-0.2c-0.3,0.1-0.4,0.5-0.2,0.7c0,0,0,0,0,0l1.6,2.9c-3,1.6-5,4.6-5,8.1l0,0.1l0,0v0.1h20.4v-0.1
		L311.2,510.6C311.2,510.7,311.2,510.7,311.2,510.6L311.2,510.6z M296.3,506.7c-0.3,0-0.6-0.3-0.6-0.6c0-0.3,0.3-0.6,0.6-0.6l0,0
		c0.3,0,0.6,0.3,0.6,0.6C296.9,506.4,296.6,506.7,296.3,506.7z M305.7,506.7c-0.3,0-0.6-0.2-0.7-0.6c0-0.3,0.2-0.6,0.6-0.7
		c0,0,0,0,0.1,0c0.3,0,0.6,0.3,0.6,0.6C306.2,506.4,306,506.6,305.7,506.7z M1165.6,623.1c0,0.5-0.3,0.8-0.8,0.8
		c-0.4,0-0.7-0.3-0.7-0.8c0-0.4,0.3-0.8,0.7-0.8C1165.3,622.3,1165.6,622.6,1165.6,623.1z M1164.4,647.3v-18.5h0.8v18.5H1164.4z
		 M1190.4,634.1c0,9.3-5.2,13.6-10.8,13.6c-5.8,0-10.5-4.6-10.5-13.2c0-8.8,4.9-13.6,10.9-13.6
		C1185.9,620.9,1190.4,625.6,1190.4,634.1z M1169.9,634.3c0,7.1,3.4,12.6,9.7,12.6c6.4,0,10-5.7,10-12.6c0-6.5-2.9-12.4-9.6-12.4
		S1169.9,627.4,1169.9,634.3z M1193.2,645.3c1.3,0.8,3.5,1.7,5.4,1.7c3.6,0,6.8-2.5,6.8-6.2c0-3.4-2.1-5.2-5.7-6.7
		c-3.2-1.4-6.1-2.9-6.1-6.5c0-3.8,3-6.5,7.1-6.5c2.2,0,3.9,0.6,4.6,1.2l-0.3,0.7c-0.7-0.5-2.4-1.1-4.4-1.1c-4.3,0-6.2,3.3-6.2,5.7
		c0,3.3,2.6,4.4,5.9,6c3.9,1.9,5.9,3.6,5.9,7.2c0,3.9-2.8,7.1-7.7,7.1c-2,0-4.4-0.7-5.6-1.6L1193.2,645.3z M957.6,276.1
		c0,0.5-0.3,0.8-0.8,0.8c-0.4,0-0.7-0.3-0.7-0.8c0-0.4,0.3-0.8,0.7-0.8C957.3,275.3,957.6,275.6,957.6,276.1z M956.4,300.3v-18.5
		h0.8v18.5H956.4z M982.4,287.1c0,9.3-5.2,13.6-10.8,13.6c-5.8,0-10.5-4.6-10.5-13.2c0-8.8,4.9-13.6,10.9-13.6
		C977.9,273.9,982.4,278.6,982.4,287.1z M961.9,287.3c0,7.1,3.4,12.6,9.7,12.6c6.4,0,10-5.7,10-12.6c0-6.5-2.9-12.4-9.6-12.4
		S961.9,280.4,961.9,287.3z M985.2,298.3c1.3,0.8,3.5,1.7,5.4,1.7c3.6,0,6.8-2.5,6.8-6.2c0-3.4-2.1-5.2-5.7-6.7
		c-3.2-1.4-6.1-2.9-6.1-6.5c0-3.8,3-6.5,7.1-6.5c2.2,0,3.9,0.6,4.6,1.2l-0.3,0.7c-0.7-0.5-2.4-1.1-4.4-1.1c-4.3,0-6.2,3.3-6.2,5.7
		c0,3.3,2.6,4.4,5.9,6c3.9,1.9,5.9,3.6,5.9,7.2c0,3.9-2.8,7.1-7.7,7.1c-2,0-4.4-0.7-5.5-1.6L985.2,298.3z M567.6,330.1
		c0,0.5-0.3,0.8-0.8,0.8c-0.4,0-0.7-0.3-0.7-0.8c0-0.4,0.3-0.8,0.7-0.8C567.3,329.3,567.6,329.6,567.6,330.1z M566.4,354.3v-18.5
		h0.8v18.5H566.4z M592.4,341.1c0,9.3-5.2,13.6-10.8,13.6c-5.8,0-10.5-4.6-10.5-13.2c0-8.8,4.9-13.6,10.9-13.6
		C587.9,327.9,592.4,332.6,592.4,341.1z M571.9,341.3c0,7.1,3.4,12.6,9.7,12.6c6.4,0,10-5.7,10-12.6c0-6.5-2.9-12.4-9.6-12.4
		S571.9,334.4,571.9,341.3z M595.2,352.3c1.3,0.9,3.5,1.7,5.4,1.7c3.6,0,6.8-2.5,6.8-6.2c0-3.4-2.1-5.2-5.7-6.7
		c-3.2-1.4-6.1-2.9-6.1-6.5c0-3.8,3-6.5,7.1-6.5c2.2,0,3.9,0.6,4.6,1.2l-0.3,0.7c-0.7-0.5-2.4-1.1-4.4-1.1c-4.3,0-6.2,3.3-6.2,5.7
		c0,3.3,2.6,4.4,5.9,6c3.9,1.9,5.9,3.6,5.9,7.2c0,3.9-2.8,7.1-7.7,7.1c-2,0-4.4-0.7-5.5-1.6L595.2,352.3z M251.6,187.1
		c0,0.5-0.3,0.8-0.8,0.8c-0.4,0-0.7-0.3-0.7-0.8c0-0.4,0.3-0.8,0.7-0.8C251.3,186.3,251.6,186.6,251.6,187.1L251.6,187.1z
		 M250.4,211.3v-18.5h0.8v18.5L250.4,211.3z M276.4,198.1c0,9.3-5.2,13.6-10.8,13.6c-5.8,0-10.5-4.6-10.5-13.2
		c0-8.8,4.9-13.6,10.9-13.6C271.9,184.9,276.4,189.6,276.4,198.1L276.4,198.1z M255.9,198.3c0,7.1,3.4,12.6,9.7,12.6
		c6.4,0,10-5.7,10-12.6c0-6.5-2.9-12.4-9.6-12.4S255.9,191.4,255.9,198.3L255.9,198.3z M279.2,209.3c1.3,0.8,3.5,1.7,5.4,1.7
		c3.6,0,6.8-2.5,6.8-6.2c0-3.4-2.1-5.2-5.7-6.7c-3.2-1.4-6.1-2.9-6.1-6.5c0-3.8,3-6.5,7.1-6.5c2.2,0,3.9,0.6,4.6,1.2l-0.3,0.7
		c-0.7-0.5-2.4-1.1-4.4-1.1c-4.3,0-6.2,3.3-6.2,5.7c0,3.3,2.6,4.4,5.9,6c3.9,1.9,5.9,3.6,5.9,7.2c0,3.9-2.8,7.1-7.7,7.1
		c-2,0-4.4-0.7-5.5-1.6L279.2,209.3z M219.6,649.1c0,0.5-0.3,0.8-0.8,0.8c-0.4,0-0.7-0.3-0.7-0.8c0-0.4,0.3-0.8,0.7-0.8
		C219.3,648.3,219.6,648.6,219.6,649.1L219.6,649.1z M218.4,673.3v-18.5h0.8v18.5H218.4z M244.4,660.1c0,9.3-5.2,13.6-10.8,13.6
		c-5.8,0-10.5-4.6-10.5-13.2c0-8.8,4.9-13.6,10.9-13.6C239.9,646.9,244.4,651.6,244.4,660.1L244.4,660.1z M223.9,660.3
		c0,7.1,3.4,12.6,9.7,12.6c6.4,0,10-5.7,10-12.6c0-6.5-2.9-12.4-9.6-12.4C227.4,647.8,223.9,653.4,223.9,660.3z M247.2,671.3
		c1.3,0.8,3.5,1.7,5.4,1.7c3.6,0,6.8-2.5,6.8-6.2c0-3.4-2.1-5.2-5.7-6.7c-3.2-1.4-6.1-2.9-6.1-6.5c0-3.8,3-6.5,7.1-6.5
		c2.2,0,3.9,0.6,4.6,1.2l-0.3,0.7c-0.7-0.5-2.4-1.1-4.4-1.1c-4.3,0-6.2,3.3-6.2,5.7c0,3.3,2.6,4.4,5.9,6c3.9,1.9,5.9,3.6,5.9,7.2
		c0,3.9-2.8,7.1-7.7,7.1c-2,0-4.4-0.7-5.6-1.6L247.2,671.3z M886.6,36.1c0,0.5-0.3,0.8-0.8,0.8c-0.4,0-0.7-0.3-0.7-0.8
		c0-0.4,0.3-0.8,0.7-0.8C886.3,35.3,886.6,35.6,886.6,36.1z M885.4,60.3V41.8h0.8v18.5H885.4z M911.4,47.1c0,9.3-5.2,13.6-10.8,13.6
		c-5.8,0-10.5-4.6-10.5-13.2c0-8.8,4.9-13.6,10.9-13.6C906.9,33.9,911.4,38.6,911.4,47.1z M890.9,47.3c0,7.1,3.4,12.6,9.7,12.6
		c6.4,0,10-5.7,10-12.6c0-6.5-2.9-12.4-9.6-12.4S890.9,40.4,890.9,47.3z M914.2,58.3c1.3,0.8,3.5,1.7,5.4,1.7c3.6,0,6.8-2.5,6.8-6.2
		c0-3.4-2.1-5.2-5.7-6.7c-3.2-1.4-6.1-2.9-6.1-6.5c0-3.8,3-6.5,7.1-6.5c2.2,0,3.9,0.6,4.6,1.2l-0.3,0.7c-0.7-0.5-2.4-1.1-4.4-1.1
		c-4.3,0-6.2,3.3-6.2,5.7c0,3.3,2.6,4.4,5.9,6c3.9,1.9,5.9,3.6,5.9,7.2c0,3.9-2.8,7.1-7.7,7.1c-2,0-4.4-0.7-5.5-1.6L914.2,58.3z
		 M311.6,31.1c0,0.5-0.3,0.8-0.8,0.8c-0.4,0-0.7-0.3-0.7-0.8c0-0.4,0.3-0.8,0.7-0.8C311.3,30.3,311.6,30.6,311.6,31.1z M310.4,55.3
		V36.8h0.8v18.5H310.4z M336.4,42.1c0,9.3-5.2,13.6-10.8,13.6c-5.8,0-10.5-4.6-10.5-13.2c0-8.8,4.9-13.6,10.9-13.6
		C331.9,28.9,336.4,33.6,336.4,42.1L336.4,42.1z M315.9,42.3c0,7.1,3.4,12.6,9.7,12.6c6.4,0,10-5.7,10-12.6c0-6.5-2.9-12.4-9.6-12.4
		S315.9,35.4,315.9,42.3L315.9,42.3z M339.2,53.3c1.3,0.8,3.5,1.7,5.4,1.7c3.6,0,6.8-2.5,6.8-6.2c0-3.4-2.1-5.2-5.7-6.7
		c-3.2-1.4-6.1-2.9-6.1-6.5c0-3.8,3-6.5,7.1-6.5c2.2,0,3.9,0.6,4.6,1.2l-0.3,0.7c-0.7-0.5-2.4-1.1-4.4-1.1c-4.3,0-6.2,3.3-6.2,5.7
		c0,3.3,2.6,4.4,5.9,6c3.9,1.9,5.9,3.6,5.9,7.2c0,3.9-2.8,7.1-7.7,7.1c-2,0-4.4-0.7-5.5-1.6L339.2,53.3z M871.6,441.1
		c0,0.5-0.3,0.8-0.8,0.8c-0.4,0-0.7-0.3-0.7-0.8c0-0.4,0.3-0.8,0.7-0.8C871.3,440.3,871.6,440.6,871.6,441.1z M870.4,465.3v-18.5
		h0.8v18.5H870.4z M896.4,452.1c0,9.3-5.2,13.6-10.8,13.6c-5.8,0-10.5-4.6-10.5-13.2c0-8.8,4.9-13.6,10.9-13.6
		C891.9,438.9,896.4,443.6,896.4,452.1z M875.9,452.3c0,7.1,3.4,12.6,9.7,12.6c6.4,0,10-5.7,10-12.6c0-6.5-2.9-12.4-9.6-12.4
		S875.9,445.4,875.9,452.3z M899.2,463.3c1.3,0.9,3.5,1.7,5.4,1.7c3.6,0,6.8-2.5,6.8-6.2c0-3.4-2.1-5.2-5.7-6.7
		c-3.2-1.4-6.1-2.9-6.1-6.5c0-3.8,3-6.5,7.1-6.5c2.2,0,3.9,0.6,4.6,1.2l-0.3,0.7c-0.7-0.5-2.4-1.1-4.4-1.1c-4.3,0-6.2,3.3-6.2,5.7
		c0,3.3,2.6,4.4,5.9,6c3.9,1.9,5.9,3.6,5.9,7.2c0,3.9-2.8,7.1-7.7,7.1c-2,0-4.4-0.7-5.5-1.6L899.2,463.3z M496.6,694.1
		c0,0.5-0.3,0.8-0.8,0.8c-0.4,0-0.7-0.3-0.7-0.8c0-0.4,0.3-0.8,0.7-0.8C496.3,693.3,496.6,693.6,496.6,694.1z M495.4,718.3v-18.5
		h0.8v18.5H495.4z M521.4,705.1c0,9.3-5.2,13.6-10.8,13.6c-5.8,0-10.5-4.6-10.5-13.2c0-8.8,4.9-13.6,10.9-13.6
		C516.9,691.9,521.4,696.6,521.4,705.1z M500.9,705.3c0,7.1,3.4,12.6,9.7,12.6c6.4,0,10-5.7,10-12.6c0-6.5-2.9-12.4-9.6-12.4
		S500.9,698.4,500.9,705.3L500.9,705.3z M524.2,716.3c1.3,0.8,3.5,1.7,5.4,1.7c3.6,0,6.8-2.5,6.8-6.2c0-3.4-2.1-5.2-5.7-6.7
		c-3.2-1.4-6.1-2.9-6.1-6.5c0-3.8,3-6.5,7.1-6.5c2.2,0,3.9,0.6,4.6,1.2l-0.3,0.7c-0.7-0.5-2.4-1.1-4.4-1.1c-4.3,0-6.2,3.3-6.2,5.7
		c0,3.3,2.6,4.4,5.9,6c3.9,1.9,5.9,3.6,5.9,7.2c0,3.9-2.8,7.1-7.7,7.1c-2,0-4.4-0.7-5.5-1.6L524.2,716.3z"/>
</g>
<g class="st4">
	<path class="st3" d="M146.9,239.1c-1.2,0-2.2,1-2.2,2.2c0,1.2,1,2.2,2.2,2.2c1.2,0,2.2-1,2.2-2.2
		C149.1,240.1,148.1,239.1,146.9,239.1z M147.5,241c-0.4,0-0.7-0.3-0.7-0.7s0.3-0.7,0.7-0.7s0.7,0.3,0.7,0.7S147.8,241,147.5,241z"
		/>
	<path class="st3" d="M161.2,239.1c-1.2,0-2.2,1-2.2,2.2c0,1.2,1,2.2,2.2,2.2c1.2,0,2.2-1,2.2-2.2
		C163.5,240.1,162.5,239.1,161.2,239.1z M160.7,241c-0.4,0-0.7-0.3-0.7-0.7s0.3-0.7,0.7-0.7s0.7,0.3,0.7,0.7S161.1,241,160.7,241z"
		/>
	<path class="st5" d="M141.6,275.3c1.2-1.7,2.2-0.4,3.9,0.5c0.8,0.4-1.3,1.9-3.7,0.8C141.2,276.2,141.2,275.8,141.6,275.3z"/>
	<path class="st5" d="M166.5,275.1c-1.2-1.7-2.2-0.4-3.9,0.5c-0.8,0.4,1.3,1.9,3.7,0.8C166.9,276,166.9,275.6,166.5,275.1z"/>
	<path class="st3" d="M173.2,233.6c-1.3-2.6-4.4-0.3-5.2-1.1c-4.1-4.2-9-5.2-12.9-5.4c0,0-1.7,0-2.1,0c-3.9,0.1-8.8,1.2-12.9,5.4
		c-0.8,0.8-4-1.5-5.2,1.1c-1.5,3.1,3,3.4,2.8,4.8c-0.4,2.5-0.2,6.1,0.2,9.7c0.3,2.9-0.6,7.7-0.6,12.5c-0.8,0.1-1.3,1.4-1.3,2.5
		c0,0.5,0.1,1,0.3,1.3c0.3,0.4,0.7,0.7,1.3,0.7v-0.4c0.5,3.8,2,7.3,5.3,9.6c0.7,0,1.4,0.6,2.3,1.1c2.3,0.7,6,1.1,9.2,1.1h0h0
		c3-0.1,6-0.4,8.1-1c0-0.1,0.1-0.1,0.2-0.2c1.2-0.6,2.1-1.4,2.9-1.3c4.1-3,5.2-7.9,5.3-12.8c0.4-0.1,0.8-0.3,1-0.6
		c0.2-0.3,0.3-0.8,0.3-1.3c0-1.2-0.6-2.5-1.5-2.5c-0.2-3.5-0.7-6.6-0.5-8.8c0.3-3.6,0.6-7.3,0.2-9.7
		C170.2,237,174.7,236.7,173.2,233.6z M136.9,264.1c-0.1-0.2-0.2-0.5-0.2-0.9c0-0.8,0.3-1.5,0.6-1.7c0,1,0.1,1.9,0.2,2.9
		C137.2,264.4,137.1,264.3,136.9,264.1z M137.9,235.7c-0.1,0.5-1.7-0.7-1.1-1.5c0.5-0.7,1.6-0.5,1.7-0.1S138.1,234.4,137.9,235.7z
		 M141.4,241.1c0.5-3.9,3.9-5.8,5.9-5.6c6.5,0.8,5.6,7.5,3.1,9.7C145.7,249.2,140.9,245.2,141.4,241.1z M158,248.5
		c-0.1,0.7-1.1,1.2-2.4,1.4c0,0,0,0,0,0c0.1,0.2,0.2,0.4,0.2,0.7c0,0,0,0,0,0c0,0,0,0.1,0,0.1c0,0,0,0,0,0.1c0,0,0,0,0,0.1
		c0,0,0,0,0,0.1c0,0,0,0,0,0.1c0,0,0,0,0,0.1c0,0,0,0,0,0.1c0,0,0,0.1,0,0.1c0,0,0,0,0,0.1c0,0,0,0,0,0.1c0,0,0,0,0,0.1
		c0,0,0,0-0.1,0.1c0,0,0,0,0,0c0,0,0,0-0.1,0.1c0,0,0,0,0,0c0,0-0.1,0.1-0.1,0.1c-0.4,0.3-2,0.1-2.6,0c-0.1,0-0.1,0-0.1,0
		c0,0,0,0,0,0c0,0-0.1,0-0.1,0c0,0,0,0,0,0c0,0,0,0-0.1-0.1c0,0,0,0,0,0c0,0,0-0.1-0.1-0.1c0,0,0,0,0,0c0-0.1-0.1-0.2-0.1-0.3
		c0,0,0,0,0,0c0,0,0-0.1,0-0.1c0,0,0,0,0-0.1c0,0,0-0.1,0-0.1c0,0,0,0,0-0.1c0,0,0-0.1,0-0.1c0,0,0,0,0-0.1c0,0,0-0.1,0-0.1
		c0,0,0-0.1,0-0.1c0,0,0,0,0,0c0,0,0-0.1,0-0.1c0,0,0,0,0,0c0,0,0-0.1,0-0.1c0,0,0,0,0,0c0,0,0-0.1,0-0.1c-1.1-0.2-1.9-0.7-2-1.4
		c-0.2-1.1,0.5-1.9,2.3-2.4c-0.1,0.2-0.2,0.3-0.3,0.6c-0.5,1.9,4.2,1.6,4.1,0.4c0-0.3-0.2-0.7-0.5-1
		C156.9,246.4,158.2,247.4,158,248.5z M157.7,245.2c-2.5-2.2-3.4-8.9,3.1-9.7c2-0.2,5.4,1.6,5.9,5.6
		C167.2,245.2,162.4,249.2,157.7,245.2z M171.4,259.5c0,0.4-0.1,0.7-0.2,0.9c-0.1,0.1-0.2,0.2-0.3,0.3c0-1,0-2-0.1-2.9
		C171,257.8,171.4,258.6,171.4,259.5z M170.2,235.7c-0.2-1.3-0.7-1.2-0.6-1.6c0.1-0.4,1.1-0.6,1.7,0.1
		C172,235,170.3,236.2,170.2,235.7z"/>
</g>
<g class="st4">
	<path class="st3" d="M781.8,578.3c-1.2,0-2.2,1-2.2,2.2s1,2.2,2.2,2.2c1.2,0,2.2-1,2.2-2.2S783,578.3,781.8,578.3z M782.4,580.2
		c-0.4,0-0.7-0.3-0.7-0.7c0-0.4,0.3-0.7,0.7-0.7c0.4,0,0.7,0.3,0.7,0.7C783.1,579.9,782.8,580.2,782.4,580.2z"/>
	<path class="st3" d="M796.2,578.3c-1.2,0-2.2,1-2.2,2.2s1,2.2,2.2,2.2s2.2-1,2.2-2.2S797.4,578.3,796.2,578.3z M795.6,580.2
		c-0.4,0-0.7-0.3-0.7-0.7c0-0.4,0.3-0.7,0.7-0.7c0.4,0,0.7,0.3,0.7,0.7C796.3,579.9,796,580.2,795.6,580.2z"/>
	<path class="st5" d="M776.5,614.4c1.2-1.7,2.2-0.4,3.9,0.5c0.8,0.4-1.3,1.9-3.7,0.8C776.1,615.4,776.1,615,776.5,614.4z"/>
	<path class="st5" d="M801.4,614.2c-1.2-1.7-2.2-0.4-3.9,0.5c-0.8,0.4,1.3,1.9,3.7,0.8C801.9,615.2,801.8,614.8,801.4,614.2z"/>
	<path class="st3" d="M808.2,572.8c-1.3-2.6-4.4-0.3-5.2-1.1c-4.1-4.2-9-5.2-12.9-5.4c0,0-1.7,0-2.1,0c-3.9,0.1-8.8,1.2-12.9,5.4
		c-0.8,0.8-4-1.5-5.2,1.1c-1.5,3.1,3,3.4,2.8,4.8c-0.4,2.5-0.2,6.1,0.2,9.7c0.3,2.9-0.6,7.7-0.6,12.5c-0.8,0.1-1.3,1.4-1.3,2.5
		c0,0.5,0.1,1,0.3,1.3c0.3,0.4,0.7,0.7,1.3,0.7V604c0.5,3.8,2,7.3,5.3,9.6c0.7,0,1.4,0.6,2.3,1.1c2.3,0.7,6,1.1,9.2,1.1h0h0
		c3-0.1,6-0.4,8.1-1c0-0.1,0.1-0.1,0.2-0.2c1.2-0.6,2.1-1.4,2.9-1.3c4.1-3,5.2-7.9,5.3-12.8c0.4-0.1,0.8-0.3,1-0.6
		c0.2-0.3,0.3-0.8,0.3-1.3c0-1.2-0.6-2.5-1.5-2.5c-0.2-3.5-0.7-6.6-0.5-8.8c0.3-3.6,0.6-7.3,0.2-9.7
		C805.1,576.2,809.7,575.9,808.2,572.8z M771.9,603.3c-0.1-0.2-0.2-0.5-0.2-0.9c0-0.8,0.3-1.5,0.6-1.7c0,1,0.1,1.9,0.2,2.9
		C772.2,603.6,772,603.5,771.9,603.3z M772.8,574.9c-0.1,0.5-1.7-0.7-1.1-1.5c0.5-0.7,1.6-0.5,1.7-0.1
		C773.6,573.7,773,573.6,772.8,574.9z M776.4,580.2c0.5-3.9,3.9-5.8,5.9-5.6c6.5,0.8,5.6,7.5,3.1,9.7
		C780.7,588.4,775.8,584.3,776.4,580.2z M793,587.7c-0.1,0.7-1.1,1.2-2.4,1.4c0,0,0,0,0,0c0.1,0.2,0.2,0.4,0.2,0.7c0,0,0,0,0,0
		c0,0,0,0.1,0,0.1c0,0,0,0,0,0.1c0,0,0,0,0,0.1c0,0,0,0,0,0.1c0,0,0,0,0,0.1c0,0,0,0,0,0.1c0,0,0,0,0,0.1c0,0,0,0.1,0,0.1
		c0,0,0,0,0,0.1c0,0,0,0,0,0.1c0,0,0,0,0,0.1c0,0,0,0-0.1,0.1c0,0,0,0,0,0c0,0,0,0-0.1,0.1c0,0,0,0,0,0c0,0-0.1,0.1-0.1,0.1
		c-0.4,0.3-2,0.1-2.6,0c-0.1,0-0.1,0-0.1,0c0,0,0,0,0,0c0,0-0.1,0-0.1,0c0,0,0,0,0,0c0,0,0,0-0.1-0.1c0,0,0,0,0,0c0,0,0-0.1-0.1-0.1
		c0,0,0,0,0,0c0-0.1-0.1-0.2-0.1-0.3c0,0,0,0,0,0c0,0,0-0.1,0-0.1c0,0,0,0,0-0.1c0,0,0-0.1,0-0.1c0,0,0,0,0-0.1c0,0,0-0.1,0-0.1
		c0,0,0,0,0-0.1c0,0,0-0.1,0-0.1c0,0,0-0.1,0-0.1c0,0,0,0,0,0c0,0,0-0.1,0-0.1c0,0,0,0,0,0c0,0,0-0.1,0-0.1c0,0,0,0,0,0
		c0,0,0-0.1,0-0.1c-1.1-0.2-1.9-0.7-2-1.4c-0.2-1.1,0.5-1.9,2.3-2.4c-0.1,0.2-0.2,0.3-0.3,0.6c-0.5,1.9,4.2,1.6,4.1,0.4
		c0-0.3-0.2-0.7-0.5-1C791.8,585.6,793.1,586.6,793,587.7z M792.6,584.3c-2.5-2.2-3.4-8.9,3.1-9.7c2-0.2,5.4,1.6,5.9,5.6
		C802.1,584.3,797.3,588.4,792.6,584.3z M806.3,598.6c0,0.4-0.1,0.7-0.2,0.9c-0.1,0.1-0.2,0.2-0.3,0.3c0-1,0-2-0.1-2.9
		C805.9,597,806.3,597.7,806.3,598.6z M805.1,574.9c-0.2-1.3-0.7-1.2-0.6-1.6c0.1-0.4,1.1-0.6,1.7,0.1
		C806.9,574.2,805.2,575.3,805.1,574.9z"/>
</g>
<g class="st4">
	<path class="st3" d="M185.8,572.2c-1.2,0-2.2,1-2.2,2.2c0,1.2,1,2.2,2.2,2.2s2.2-1,2.2-2.2C188,573.2,187,572.2,185.8,572.2z
		 M186.4,574.2c-0.4,0-0.7-0.3-0.7-0.7c0-0.4,0.3-0.7,0.7-0.7s0.7,0.3,0.7,0.7C187.1,573.9,186.8,574.2,186.4,574.2z"/>
	<path class="st3" d="M200.2,572.2c-1.2,0-2.2,1-2.2,2.2c0,1.2,1,2.2,2.2,2.2c1.2,0,2.2-1,2.2-2.2
		C202.4,573.2,201.4,572.2,200.2,572.2z M199.6,574.2c-0.4,0-0.7-0.3-0.7-0.7c0-0.4,0.3-0.7,0.7-0.7s0.7,0.3,0.7,0.7
		C200.3,573.9,200,574.2,199.6,574.2z"/>
	<path class="st5" d="M180.5,608.4c1.2-1.7,2.2-0.4,3.9,0.5c0.8,0.4-1.3,1.9-3.7,0.8C180.1,609.3,180.1,608.9,180.5,608.4z"/>
	<path class="st5" d="M205.5,608.2c-1.2-1.7-2.2-0.4-3.9,0.5c-0.8,0.4,1.3,1.9,3.7,0.8C205.9,609.1,205.8,608.7,205.5,608.2z"/>
	<path class="st3" d="M212.2,566.8c-1.3-2.6-4.4-0.3-5.2-1.1c-4.1-4.2-9-5.2-12.9-5.4c0,0-1.7,0-2.1,0c-3.9,0.1-8.8,1.2-12.9,5.4
		c-0.8,0.8-4-1.5-5.2,1.1c-1.5,3.1,3,3.4,2.8,4.8c-0.4,2.5-0.2,6.1,0.2,9.7c0.3,2.9-0.6,7.7-0.6,12.5c-0.8,0.1-1.3,1.4-1.3,2.5
		c0,0.5,0.1,1,0.3,1.3c0.3,0.4,0.7,0.7,1.3,0.7v-0.4c0.5,3.8,2,7.3,5.3,9.6c0.7,0,1.4,0.6,2.3,1.1c2.3,0.7,6,1.1,9.2,1.1h0h0
		c3-0.1,6-0.4,8.1-1c0-0.1,0.1-0.1,0.2-0.2c1.2-0.6,2.1-1.4,2.9-1.3c4.1-3,5.2-7.9,5.3-12.8c0.4-0.1,0.8-0.3,1-0.6
		c0.2-0.3,0.3-0.8,0.3-1.3c0-1.2-0.6-2.5-1.5-2.5c-0.2-3.5-0.7-6.6-0.5-8.8c0.3-3.6,0.6-7.3,0.2-9.7
		C209.1,570.2,213.7,569.8,212.2,566.8z M175.9,597.2c-0.1-0.2-0.2-0.5-0.2-0.9c0-0.8,0.3-1.5,0.6-1.7c0,1,0.1,1.9,0.2,2.9
		C176.2,597.5,176,597.4,175.9,597.2z M176.8,568.8c-0.1,0.5-1.7-0.7-1.1-1.5c0.5-0.7,1.6-0.5,1.7-0.1
		C177.6,567.6,177,567.6,176.8,568.8z M180.4,574.2c0.5-3.9,3.9-5.8,5.9-5.6c6.5,0.8,5.6,7.5,3.1,9.7
		C184.7,582.3,179.8,578.3,180.4,574.2z M197,581.7c-0.1,0.7-1.1,1.2-2.4,1.4c0,0,0,0,0,0c0.1,0.2,0.2,0.4,0.2,0.7c0,0,0,0,0,0
		c0,0,0,0.1,0,0.1c0,0,0,0,0,0.1c0,0,0,0,0,0.1c0,0,0,0,0,0.1c0,0,0,0,0,0.1c0,0,0,0,0,0.1c0,0,0,0,0,0.1c0,0,0,0.1,0,0.1
		c0,0,0,0,0,0.1c0,0,0,0,0,0.1c0,0,0,0,0,0.1c0,0,0,0-0.1,0.1c0,0,0,0,0,0c0,0,0,0-0.1,0.1c0,0,0,0,0,0c0,0-0.1,0.1-0.1,0.1
		c-0.4,0.3-2,0.1-2.6,0c-0.1,0-0.1,0-0.1,0c0,0,0,0,0,0c0,0-0.1,0-0.1,0c0,0,0,0,0,0c0,0,0,0-0.1-0.1c0,0,0,0,0,0c0,0,0-0.1-0.1-0.1
		c0,0,0,0,0,0c0-0.1-0.1-0.2-0.1-0.3c0,0,0,0,0,0c0,0,0-0.1,0-0.1c0,0,0,0,0-0.1c0,0,0-0.1,0-0.1c0,0,0,0,0-0.1c0,0,0-0.1,0-0.1
		c0,0,0,0,0-0.1c0,0,0-0.1,0-0.1c0,0,0-0.1,0-0.1c0,0,0,0,0,0c0,0,0-0.1,0-0.1c0,0,0,0,0,0c0,0,0-0.1,0-0.1c0,0,0,0,0,0
		c0,0,0-0.1,0-0.1c-1.1-0.2-1.9-0.7-2-1.4c-0.2-1.1,0.5-1.9,2.3-2.4c-0.1,0.2-0.2,0.3-0.3,0.6c-0.5,1.9,4.2,1.6,4.1,0.4
		c0-0.3-0.2-0.7-0.5-1C195.8,579.6,197.1,580.6,197,581.7z M196.6,578.3c-2.5-2.2-3.4-8.9,3.1-9.7c2-0.2,5.4,1.6,5.9,5.6
		C206.1,578.3,201.3,582.3,196.6,578.3z M210.3,592.6c0,0.4-0.1,0.7-0.2,0.9c-0.1,0.1-0.2,0.2-0.3,0.3c0-1,0-2-0.1-2.9
		C210,590.9,210.3,591.7,210.3,592.6z M209.1,568.8c-0.2-1.3-0.7-1.2-0.6-1.6c0.1-0.4,1.1-0.6,1.7,0.1
		C210.9,568.2,209.2,569.3,209.1,568.8z"/>
</g>
<g class="st4">
	<path class="st3" d="M1156.9,128.8c-1.2,0-2.2,1-2.2,2.2s1,2.2,2.2,2.2c1.2,0,2.2-1,2.2-2.2S1158.1,128.8,1156.9,128.8z
		 M1157.5,130.8c-0.4,0-0.7-0.3-0.7-0.7c0-0.4,0.3-0.7,0.7-0.7s0.7,0.3,0.7,0.7C1158.2,130.5,1157.9,130.8,1157.5,130.8z"/>
	<path class="st3" d="M1171.3,128.8c-1.2,0-2.2,1-2.2,2.2s1,2.2,2.2,2.2c1.2,0,2.2-1,2.2-2.2S1172.5,128.8,1171.3,128.8z
		 M1170.7,130.8c-0.4,0-0.7-0.3-0.7-0.7c0-0.4,0.3-0.7,0.7-0.7c0.4,0,0.7,0.3,0.7,0.7C1171.4,130.5,1171.1,130.8,1170.7,130.8z"/>
	<path class="st5" d="M1151.6,165c1.2-1.7,2.2-0.4,3.9,0.5c0.8,0.4-1.3,1.9-3.7,0.8C1151.2,165.9,1151.2,165.5,1151.6,165z"/>
	<path class="st5" d="M1176.5,164.8c-1.2-1.7-2.2-0.4-3.9,0.5c-0.8,0.4,1.3,1.9,3.7,0.8C1177,165.7,1176.9,165.3,1176.5,164.8z"/>
	<path class="st3" d="M1183.3,123.3c-1.3-2.6-4.4-0.3-5.2-1.1c-4.1-4.2-9-5.2-12.9-5.4c0,0-1.7,0-2.1,0c-3.9,0.1-8.8,1.2-12.9,5.4
		c-0.8,0.8-4-1.5-5.2,1.1c-1.5,3.1,3,3.4,2.8,4.8c-0.4,2.5-0.2,6.1,0.2,9.7c0.3,2.9-0.6,7.7-0.6,12.5c-0.8,0.1-1.3,1.4-1.3,2.5
		c0,0.5,0.1,1,0.3,1.3c0.3,0.4,0.7,0.7,1.3,0.7v-0.4c0.5,3.8,2,7.3,5.3,9.6c0.7,0,1.4,0.6,2.3,1.1c2.3,0.7,6,1.1,9.2,1.1h0h0
		c3-0.1,6-0.4,8.1-1c0-0.1,0.1-0.1,0.2-0.2c1.2-0.6,2.1-1.4,2.9-1.3c4.1-3,5.2-7.9,5.3-12.8c0.4-0.1,0.8-0.3,1-0.6
		c0.2-0.3,0.3-0.8,0.3-1.3c0-1.2-0.6-2.5-1.5-2.5c-0.2-3.5-0.7-6.6-0.5-8.8c0.3-3.6,0.6-7.3,0.2-9.7
		C1180.2,126.7,1184.8,126.4,1183.3,123.3z M1146.9,153.8c-0.1-0.2-0.2-0.5-0.2-0.9c0-0.8,0.3-1.5,0.6-1.7c0,1,0.1,1.9,0.2,2.9
		C1147.3,154.1,1147.1,154,1146.9,153.8z M1147.9,125.4c-0.1,0.5-1.7-0.7-1.1-1.5c0.5-0.7,1.6-0.5,1.7-0.1
		C1148.7,124.2,1148.1,124.2,1147.9,125.4z M1151.5,130.8c0.5-3.9,3.9-5.8,5.9-5.6c6.5,0.8,5.6,7.5,3.1,9.7
		C1155.8,138.9,1150.9,134.9,1151.5,130.8z M1168,138.3c-0.1,0.7-1.1,1.2-2.4,1.4c0,0,0,0,0,0c0.1,0.2,0.2,0.4,0.2,0.7c0,0,0,0,0,0
		c0,0,0,0.1,0,0.1c0,0,0,0,0,0.1c0,0,0,0,0,0.1c0,0,0,0,0,0.1c0,0,0,0,0,0.1c0,0,0,0,0,0.1c0,0,0,0,0,0.1c0,0,0,0.1,0,0.1
		c0,0,0,0,0,0.1c0,0,0,0,0,0.1c0,0,0,0,0,0.1c0,0,0,0-0.1,0.1c0,0,0,0,0,0c0,0,0,0-0.1,0.1c0,0,0,0,0,0c0,0-0.1,0.1-0.1,0.1
		c-0.4,0.3-2,0.1-2.6,0c-0.1,0-0.1,0-0.1,0c0,0,0,0,0,0c0,0-0.1,0-0.1,0c0,0,0,0,0,0c0,0,0,0-0.1-0.1c0,0,0,0,0,0c0,0,0-0.1-0.1-0.1
		c0,0,0,0,0,0c0-0.1-0.1-0.2-0.1-0.3c0,0,0,0,0,0c0,0,0-0.1,0-0.1c0,0,0,0,0-0.1c0,0,0-0.1,0-0.1c0,0,0,0,0-0.1c0,0,0-0.1,0-0.1
		c0,0,0,0,0-0.1c0,0,0-0.1,0-0.1c0,0,0-0.1,0-0.1c0,0,0,0,0,0c0,0,0-0.1,0-0.1c0,0,0,0,0,0c0,0,0-0.1,0-0.1c0,0,0,0,0,0
		c0,0,0-0.1,0-0.1c-1.1-0.2-1.9-0.7-2-1.4c-0.2-1.1,0.5-1.9,2.3-2.4c-0.1,0.2-0.2,0.3-0.3,0.6c-0.5,1.9,4.2,1.6,4.1,0.4
		c0-0.3-0.2-0.7-0.5-1C1166.9,136.1,1168.2,137.1,1168,138.3z M1167.7,134.9c-2.5-2.2-3.4-8.9,3.1-9.7c2-0.2,5.4,1.6,5.9,5.6
		C1177.2,134.9,1172.4,138.9,1167.7,134.9z M1181.4,149.2c0,0.4-0.1,0.7-0.2,0.9c-0.1,0.1-0.2,0.2-0.3,0.3c0-1,0-2-0.1-2.9
		C1181,147.5,1181.4,148.3,1181.4,149.2z M1180.2,125.4c-0.2-1.3-0.7-1.2-0.6-1.6c0.1-0.4,1.1-0.6,1.7,0.1
		C1182,124.7,1180.3,125.9,1180.2,125.4z"/>
</g>
<g class="st4">
	<path class="st3" d="M594.5,73.4c-1.2,0-2.2,1-2.2,2.2c0,1.2,1,2.2,2.2,2.2c1.2,0,2.2-1,2.2-2.2C596.7,74.4,595.7,73.4,594.5,73.4z
		 M595.1,75.4c-0.4,0-0.7-0.3-0.7-0.7s0.3-0.7,0.7-0.7c0.4,0,0.7,0.3,0.7,0.7S595.5,75.4,595.1,75.4z"/>
	<path class="st3" d="M608.9,73.4c-1.2,0-2.2,1-2.2,2.2c0,1.2,1,2.2,2.2,2.2s2.2-1,2.2-2.2C611.1,74.4,610.1,73.4,608.9,73.4z
		 M608.3,75.4c-0.4,0-0.7-0.3-0.7-0.7s0.3-0.7,0.7-0.7c0.4,0,0.7,0.3,0.7,0.7S608.7,75.4,608.3,75.4z"/>
	<path class="st5" d="M589.2,109.6c1.2-1.7,2.2-0.4,3.9,0.5c0.8,0.4-1.3,1.9-3.7,0.8C588.8,110.5,588.8,110.1,589.2,109.6z"/>
	<path class="st5" d="M614.1,109.4c-1.2-1.7-2.2-0.4-3.9,0.5c-0.8,0.4,1.3,1.9,3.7,0.8C614.6,110.3,614.5,110,614.1,109.4z"/>
	<path class="st3" d="M620.9,68c-1.3-2.6-4.4-0.3-5.2-1.1c-4.1-4.2-9-5.2-12.9-5.4c0,0-1.7,0-2.1,0c-3.9,0.1-8.8,1.2-12.9,5.4
		c-0.8,0.8-4-1.5-5.2,1.1c-1.5,3.1,3,3.4,2.8,4.8c-0.4,2.5-0.2,6.1,0.2,9.7c0.3,2.9-0.6,7.7-0.6,12.5c-0.8,0.1-1.3,1.4-1.3,2.5
		c0,0.5,0.1,1,0.3,1.3c0.3,0.4,0.7,0.7,1.3,0.7v-0.4c0.5,3.8,2,7.3,5.3,9.6c0.7,0,1.4,0.6,2.3,1.1c2.3,0.7,6,1.1,9.2,1.1h0h0
		c3-0.1,6-0.4,8.1-1c0-0.1,0.1-0.1,0.2-0.2c1.2-0.6,2.1-1.4,2.9-1.3c4.1-3,5.2-7.9,5.3-12.8c0.4-0.1,0.8-0.3,1-0.6
		c0.2-0.3,0.3-0.8,0.3-1.3c0-1.2-0.6-2.5-1.5-2.5c-0.2-3.5-0.7-6.6-0.5-8.8c0.3-3.6,0.6-7.3,0.2-9.7C617.8,71.4,622.4,71,620.9,68z
		 M584.5,98.5c-0.1-0.2-0.2-0.5-0.2-0.9c0-0.8,0.3-1.5,0.6-1.7c0,1,0.1,1.9,0.2,2.9C584.9,98.7,584.7,98.7,584.5,98.5z M585.5,70
		c-0.1,0.5-1.7-0.7-1.1-1.5c0.5-0.7,1.6-0.5,1.7-0.1C586.3,68.8,585.7,68.8,585.5,70z M589.1,75.4c0.5-3.9,3.9-5.8,5.9-5.6
		c6.5,0.8,5.6,7.5,3.1,9.7C593.4,83.5,588.5,79.5,589.1,75.4z M605.6,82.9c-0.1,0.7-1.1,1.2-2.4,1.4c0,0,0,0,0,0
		c0.1,0.2,0.2,0.4,0.2,0.7c0,0,0,0,0,0c0,0,0,0.1,0,0.1c0,0,0,0,0,0.1c0,0,0,0,0,0.1c0,0,0,0,0,0.1c0,0,0,0,0,0.1c0,0,0,0,0,0.1
		c0,0,0,0,0,0.1c0,0,0,0.1,0,0.1c0,0,0,0,0,0.1c0,0,0,0,0,0.1c0,0,0,0,0,0.1c0,0,0,0-0.1,0.1c0,0,0,0,0,0c0,0,0,0-0.1,0.1
		c0,0,0,0,0,0c0,0-0.1,0.1-0.1,0.1c-0.4,0.3-2,0.1-2.6,0c-0.1,0-0.1,0-0.1,0c0,0,0,0,0,0c0,0-0.1,0-0.1,0c0,0,0,0,0,0
		c0,0,0,0-0.1-0.1c0,0,0,0,0,0c0,0,0-0.1-0.1-0.1c0,0,0,0,0,0c0-0.1-0.1-0.2-0.1-0.3c0,0,0,0,0,0c0,0,0-0.1,0-0.1c0,0,0,0,0-0.1
		c0,0,0-0.1,0-0.1c0,0,0,0,0-0.1c0,0,0-0.1,0-0.1c0,0,0,0,0-0.1c0,0,0-0.1,0-0.1c0,0,0-0.1,0-0.1c0,0,0,0,0,0c0,0,0-0.1,0-0.1
		c0,0,0,0,0,0c0,0,0-0.1,0-0.1c0,0,0,0,0,0c0,0,0-0.1,0-0.1c-1.1-0.2-1.9-0.7-2-1.4c-0.2-1.1,0.5-1.9,2.3-2.4
		c-0.1,0.2-0.2,0.3-0.3,0.6c-0.5,1.9,4.2,1.6,4.1,0.4c0-0.3-0.2-0.7-0.5-1C604.5,80.8,605.8,81.8,605.6,82.9z M605.3,79.5
		c-2.5-2.2-3.4-8.9,3.1-9.7c2-0.2,5.4,1.6,5.9,5.6C614.8,79.5,610,83.5,605.3,79.5z M619,93.8c0,0.4-0.1,0.7-0.2,0.9
		c-0.1,0.1-0.2,0.2-0.3,0.3c0-1,0-2-0.1-2.9C618.6,92.2,619,92.9,619,93.8z M617.8,70c-0.2-1.3-0.7-1.2-0.6-1.6
		c0.1-0.4,1.1-0.6,1.7,0.1C619.6,69.4,617.9,70.5,617.8,70z"/>
</g>
<polygon class="st6" points="246.9,100.8 246.9,100.7 238.6,109 258.7,129.2 267,120.9 278.9,109 270.6,100.7 270.6,100.7 
	246.9,100.7 "/>
<polygon class="st6" points="1021.9,639.2 1021.9,639.2 1013.6,647.5 1033.8,667.6 1042.1,659.4 1053.9,647.5 1045.6,639.2 
	1045.6,639.2 1021.9,639.2 "/>
<polygon class="st6" points="365.4,625 365.4,625 357.1,633.3 377.2,653.4 385.5,645.1 397.4,633.3 389.1,625 389.1,624.9 
	365.4,624.9 "/>
<polygon class="st6" points="207.7,379.9 207.7,379.9 199.4,388.2 219.6,408.3 227.9,400 239.7,388.2 231.4,379.9 231.4,379.9 
	207.7,379.9 "/>
<polygon class="st6" points="1269.6,273.1 1269.5,273.1 1261.2,281.4 1281.4,301.5 1289.7,293.2 1301.5,281.4 1293.2,273.1 
	1293.2,273 1269.5,273 "/>
</svg>
