<svg version="1" xmlns="http://www.w3.org/2000/svg" width="1411.482" height="738.433" viewBox="0 0 1411.482 738.433"><g opacity=".5"><g fill="#FFF" opacity=".4"><path d="M39.329 38.312h8.836c2.594.022 4.474.77 5.638 2.242 1.166 1.472 1.55 3.484 1.154 6.034a11.547 11.547 0 0 1-1.022 3.428 10.184 10.184 0 0 1-2.11 3.034c-1.1 1.142-2.274 1.868-3.528 2.176s-2.55.462-3.89.462H40.45l-1.252 6.264h-4.584l4.714-23.64m3.858 3.758l-1.978 9.892c.132.022.264.034.396.034h.462c2.11.022 3.868-.186 5.276-.626 1.406-.462 2.352-2.066 2.836-4.814.396-2.308 0-3.638-1.188-3.99-1.166-.352-2.626-.516-4.386-.494a9.141 9.141 0 0 1-.758.034h-.692l.032-.036M60.179 32.014h4.55l-1.286 6.298h4.088c2.242.044 3.912.506 5.012 1.386 1.122.878 1.452 2.55.99 5.012l-2.21 10.98h-4.616l2.11-10.486c.22-1.1.154-1.88-.198-2.34-.352-.462-1.11-.692-2.276-.692l-3.66-.032-2.704 13.552h-4.55l4.75-23.678M78.417 38.312h8.836c2.594.022 4.474.77 5.638 2.242 1.166 1.472 1.55 3.484 1.154 6.034a11.547 11.547 0 0 1-1.022 3.428 10.148 10.148 0 0 1-2.11 3.034c-1.098 1.142-2.274 1.868-3.528 2.176s-2.55.462-3.89.462h-3.956l-1.252 6.264h-4.584l4.714-23.64m3.858 3.758l-1.978 9.892c.132.022.264.034.396.034h.462c2.11.022 3.868-.186 5.276-.626 1.406-.462 2.352-2.066 2.834-4.814.396-2.308 0-3.638-1.186-3.99-1.166-.352-2.626-.516-4.386-.494a9.141 9.141 0 0 1-.758.034h-.692l.032-.036"/></g><g fill="#FFF" opacity=".4"><path d="M488.627 231.4h8.836c2.594.022 4.474.77 5.638 2.242 1.166 1.472 1.55 3.484 1.154 6.034a11.547 11.547 0 0 1-1.022 3.428 10.184 10.184 0 0 1-2.11 3.034c-1.1 1.142-2.274 1.868-3.528 2.176s-2.55.462-3.89.462h-3.956l-1.252 6.264h-4.584l4.714-23.64m3.858 3.76l-1.978 9.892c.132.022.264.034.396.034h.462c2.11.022 3.868-.186 5.276-.626 1.406-.462 2.352-2.066 2.836-4.814.396-2.308 0-3.638-1.188-3.99-1.166-.352-2.626-.516-4.386-.494a9.141 9.141 0 0 1-.758.034h-.692l.032-.036M509.475 225.104h4.55l-1.286 6.298h4.088c2.242.044 3.912.506 5.012 1.386 1.122.878 1.452 2.55.99 5.012l-2.21 10.98h-4.616l2.11-10.486c.22-1.1.154-1.88-.198-2.34-.352-.462-1.11-.692-2.276-.692l-3.66-.032-2.704 13.552h-4.55l4.75-23.678M527.715 231.4h8.836c2.594.022 4.474.77 5.638 2.242 1.166 1.472 1.55 3.484 1.154 6.034a11.547 11.547 0 0 1-1.022 3.428 10.148 10.148 0 0 1-2.11 3.034c-1.098 1.142-2.274 1.868-3.528 2.176s-2.55.462-3.89.462h-3.956l-1.252 6.264H523l4.714-23.64m3.858 3.76l-1.978 9.892c.132.022.264.034.396.034h.462c2.11.022 3.868-.186 5.276-.626 1.406-.462 2.352-2.066 2.834-4.814.396-2.308 0-3.638-1.186-3.99-1.166-.352-2.626-.516-4.386-.494a9.141 9.141 0 0 1-.758.034h-.692l.032-.036"/></g><g fill="#FFF" opacity=".4"><path d="M171.627 413.4h8.836c2.594.024 4.474.77 5.638 2.242 1.166 1.472 1.55 3.484 1.154 6.034a11.547 11.547 0 0 1-1.022 3.428 10.184 10.184 0 0 1-2.11 3.034c-1.1 1.142-2.274 1.868-3.528 2.176s-2.55.462-3.89.462h-3.956l-1.252 6.264h-4.584l4.714-23.64m3.858 3.76l-1.978 9.89c.132.022.264.034.396.034h.462c2.11.022 3.868-.186 5.276-.626 1.406-.462 2.352-2.066 2.836-4.814.396-2.308 0-3.638-1.188-3.99-1.166-.352-2.626-.516-4.386-.494a9.141 9.141 0 0 1-.758.034h-.692l.032-.034M192.475 407.104h4.55l-1.286 6.296h4.088c2.242.044 3.912.506 5.012 1.386 1.122.878 1.452 2.55.99 5.01l-2.21 10.98h-4.616l2.11-10.486c.22-1.098.154-1.88-.198-2.34-.352-.462-1.11-.694-2.276-.694l-3.66-.032-2.704 13.552h-4.55l4.75-23.672M210.715 413.4h8.836c2.594.024 4.474.77 5.638 2.242 1.166 1.472 1.55 3.484 1.154 6.034a11.547 11.547 0 0 1-1.022 3.428 10.148 10.148 0 0 1-2.11 3.034c-1.098 1.142-2.274 1.868-3.528 2.176s-2.55.462-3.89.462h-3.956l-1.252 6.264H206l4.714-23.64m3.858 3.76l-1.978 9.89c.132.022.264.034.396.034h.462c2.11.022 3.868-.186 5.276-.626 1.406-.462 2.352-2.066 2.834-4.814.396-2.308 0-3.638-1.186-3.99-1.166-.352-2.626-.516-4.386-.494a9.141 9.141 0 0 1-.758.034h-.692l.032-.034"/></g><g fill="#FFF" opacity=".4"><path d="M349.627 591.4h8.836c2.594.024 4.474.77 5.638 2.242 1.166 1.472 1.55 3.484 1.154 6.034a11.547 11.547 0 0 1-1.022 3.428 10.184 10.184 0 0 1-2.11 3.034c-1.1 1.142-2.274 1.868-3.528 2.176s-2.55.462-3.89.462h-3.956l-1.252 6.264h-4.584l4.714-23.64m3.858 3.76l-1.978 9.89c.132.022.264.034.396.034h.462c2.11.022 3.868-.186 5.276-.626 1.406-.462 2.352-2.066 2.836-4.814.396-2.308 0-3.638-1.188-3.99-1.166-.352-2.626-.516-4.386-.494a9.141 9.141 0 0 1-.758.034h-.692l.032-.034M370.475 585.104h4.55l-1.286 6.296h4.088c2.242.044 3.912.506 5.012 1.386 1.122.878 1.452 2.55.99 5.01l-2.21 10.98h-4.616l2.11-10.486c.22-1.098.154-1.88-.198-2.34-.352-.462-1.11-.694-2.276-.694l-3.66-.032-2.704 13.552h-4.55l4.75-23.672M388.715 591.4h8.836c2.594.024 4.474.77 5.638 2.242 1.166 1.472 1.55 3.484 1.154 6.034a11.547 11.547 0 0 1-1.022 3.428 10.148 10.148 0 0 1-2.11 3.034c-1.098 1.142-2.274 1.868-3.528 2.176s-2.55.462-3.89.462h-3.956l-1.252 6.264H384l4.714-23.64m3.858 3.76l-1.978 9.89c.132.022.264.034.396.034h.462c2.11.022 3.868-.186 5.276-.626 1.406-.462 2.352-2.066 2.834-4.814.396-2.308 0-3.638-1.186-3.99-1.166-.352-2.626-.516-4.386-.494a9.141 9.141 0 0 1-.758.034h-.692l.032-.034"/></g><g fill="#FFF" opacity=".4"><path d="M749.627 394.4h8.836c2.594.022 4.472.77 5.638 2.242s1.55 3.484 1.154 6.034a11.606 11.606 0 0 1-1.022 3.428 10.184 10.184 0 0 1-2.11 3.034c-1.1 1.142-2.276 1.868-3.528 2.176s-2.55.462-3.89.462h-3.956l-1.254 6.264h-4.582l4.714-23.64m3.858 3.76l-1.978 9.892c.132.022.264.034.396.034h.46c2.11.022 3.87-.186 5.276-.626 1.406-.462 2.352-2.066 2.836-4.814.394-2.308 0-3.638-1.188-3.99-1.166-.352-2.626-.516-4.384-.494a9.18 9.18 0 0 1-.758.034h-.692l.032-.036M770.475 388.104h4.55l-1.286 6.298h4.088c2.242.044 3.912.506 5.012 1.386 1.122.878 1.452 2.55.99 5.012l-2.21 10.98h-4.616l2.11-10.486c.22-1.1.154-1.88-.198-2.34-.352-.462-1.11-.692-2.276-.692l-3.66-.032-2.704 13.552h-4.55l4.75-23.678M788.715 394.4h8.836c2.594.022 4.474.77 5.638 2.242s1.548 3.484 1.154 6.034a11.493 11.493 0 0 1-1.024 3.428 10.148 10.148 0 0 1-2.11 3.034c-1.1 1.142-2.276 1.868-3.528 2.176-1.254.308-2.55.462-3.89.462h-3.958l-1.252 6.264h-4.584l4.718-23.64m3.858 3.76l-1.978 9.892c.132.022.264.034.396.034h.46c2.11.022 3.87-.186 5.276-.626 1.408-.462 2.352-2.066 2.836-4.814.394-2.308 0-3.638-1.188-3.99-1.164-.352-2.626-.516-4.384-.494a9.141 9.141 0 0 1-.758.034h-.694l.034-.036"/></g><g fill="#FFF" opacity=".4"><path d="M665.627 119.4h8.836c2.594.022 4.472.77 5.638 2.242s1.55 3.484 1.154 6.034a11.606 11.606 0 0 1-1.022 3.428 10.184 10.184 0 0 1-2.11 3.034c-1.1 1.142-2.276 1.868-3.528 2.176s-2.55.462-3.89.462h-3.956l-1.254 6.264h-4.582l4.714-23.64m3.858 3.76l-1.978 9.892c.132.022.264.034.396.034h.46c2.11.022 3.87-.186 5.276-.626 1.406-.462 2.352-2.066 2.836-4.814.394-2.308 0-3.638-1.188-3.99-1.166-.352-2.626-.516-4.384-.494a9.18 9.18 0 0 1-.758.034h-.692l.032-.036M686.475 113.104h4.55l-1.286 6.298h4.088c2.242.044 3.912.506 5.012 1.386 1.122.878 1.452 2.55.99 5.012l-2.21 10.98h-4.616l2.11-10.486c.22-1.1.154-1.88-.198-2.34-.352-.462-1.11-.692-2.276-.692l-3.66-.032-2.704 13.552h-4.55l4.75-23.678M704.715 119.4h8.836c2.594.022 4.474.77 5.638 2.242s1.548 3.484 1.154 6.034a11.493 11.493 0 0 1-1.024 3.428 10.148 10.148 0 0 1-2.11 3.034c-1.1 1.142-2.276 1.868-3.528 2.176-1.254.308-2.55.462-3.89.462h-3.958l-1.252 6.264h-4.584l4.718-23.64m3.858 3.76l-1.978 9.892c.132.022.264.034.396.034h.46c2.11.022 3.87-.186 5.276-.626 1.408-.462 2.352-2.066 2.836-4.814.394-2.308 0-3.638-1.188-3.99-1.164-.352-2.626-.516-4.384-.494a9.141 9.141 0 0 1-.758.034h-.694l.034-.036"/></g><g fill="#FFF" opacity=".4"><path d="M1036.627 408.4h8.836c2.594.024 4.472.77 5.638 2.242s1.55 3.484 1.154 6.034a11.606 11.606 0 0 1-1.022 3.428 10.184 10.184 0 0 1-2.11 3.034c-1.1 1.142-2.276 1.868-3.528 2.176s-2.55.462-3.89.462h-3.956l-1.254 6.264h-4.582l4.714-23.64m3.858 3.76l-1.978 9.89c.132.022.264.034.396.034h.46c2.11.022 3.87-.186 5.276-.626 1.406-.462 2.352-2.066 2.836-4.814.394-2.308 0-3.638-1.188-3.99-1.166-.352-2.626-.516-4.384-.494a9.18 9.18 0 0 1-.758.034h-.692l.032-.034M1057.475 402.104h4.55l-1.286 6.296h4.088c2.242.044 3.912.506 5.012 1.386 1.122.878 1.452 2.55.99 5.01l-2.21 10.98h-4.616l2.11-10.486c.22-1.098.154-1.88-.198-2.34-.352-.462-1.11-.694-2.276-.694l-3.66-.032-2.704 13.552h-4.55l4.75-23.672M1075.715 408.4h8.836c2.594.024 4.474.77 5.638 2.242s1.548 3.484 1.154 6.034a11.493 11.493 0 0 1-1.024 3.428 10.148 10.148 0 0 1-2.11 3.034c-1.1 1.142-2.276 1.868-3.528 2.176-1.254.308-2.55.462-3.89.462h-3.958l-1.252 6.264h-4.584l4.718-23.64m3.858 3.76l-1.978 9.89c.132.022.264.034.396.034h.46c2.11.022 3.87-.186 5.276-.626 1.408-.462 2.352-2.066 2.836-4.814.394-2.308 0-3.638-1.188-3.99-1.164-.352-2.626-.516-4.384-.494a9.141 9.141 0 0 1-.758.034h-.694l.034-.034"/></g><g fill="#FFF" opacity=".4"><path d="M648.627 596.4h8.836c2.594.024 4.472.77 5.638 2.242s1.55 3.484 1.154 6.034a11.606 11.606 0 0 1-1.022 3.428 10.184 10.184 0 0 1-2.11 3.034c-1.1 1.142-2.276 1.868-3.528 2.176s-2.55.462-3.89.462h-3.956l-1.254 6.264h-4.582l4.714-23.64m3.858 3.76l-1.978 9.89c.132.022.264.034.396.034h.46c2.11.022 3.87-.186 5.276-.626 1.406-.462 2.352-2.066 2.836-4.814.394-2.308 0-3.638-1.188-3.99-1.166-.352-2.626-.516-4.384-.494a9.18 9.18 0 0 1-.758.034h-.692l.032-.034M669.475 590.104h4.55l-1.286 6.296h4.088c2.242.044 3.912.506 5.012 1.386 1.122.878 1.452 2.55.99 5.01l-2.21 10.98h-4.616l2.11-10.486c.22-1.098.154-1.88-.198-2.34-.352-.462-1.11-.694-2.276-.694l-3.66-.032-2.704 13.552h-4.55l4.75-23.672M687.715 596.4h8.836c2.594.024 4.474.77 5.638 2.242s1.548 3.484 1.154 6.034a11.493 11.493 0 0 1-1.024 3.428 10.148 10.148 0 0 1-2.11 3.034c-1.1 1.142-2.276 1.868-3.528 2.176-1.254.308-2.55.462-3.89.462h-3.958l-1.252 6.264h-4.584l4.718-23.64m3.858 3.76l-1.978 9.89c.132.022.264.034.396.034h.46c2.11.022 3.87-.186 5.276-.626 1.408-.462 2.352-2.066 2.836-4.814.394-2.308 0-3.638-1.188-3.99-1.164-.352-2.626-.516-4.384-.494a9.141 9.141 0 0 1-.758.034h-.694l.034-.034"/></g><g fill="#FFF" opacity=".4"><path d="M1196.627 179.4h8.836c2.594.022 4.472.77 5.638 2.242s1.55 3.484 1.154 6.034a11.606 11.606 0 0 1-1.022 3.428 10.184 10.184 0 0 1-2.11 3.034c-1.1 1.142-2.276 1.868-3.528 2.176s-2.55.462-3.89.462h-3.956l-1.254 6.264h-4.582l4.714-23.64m3.858 3.76l-1.978 9.892c.132.022.264.034.396.034h.46c2.11.022 3.87-.186 5.276-.626 1.406-.462 2.352-2.066 2.836-4.814.394-2.308 0-3.638-1.188-3.99-1.166-.352-2.626-.516-4.384-.494a9.18 9.18 0 0 1-.758.034h-.692l.032-.036M1217.475 173.104h4.55l-1.286 6.298h4.088c2.242.044 3.912.506 5.012 1.386 1.122.878 1.452 2.55.99 5.012l-2.21 10.98h-4.616l2.11-10.486c.22-1.1.154-1.88-.198-2.34-.352-.462-1.11-.692-2.276-.692l-3.66-.032-2.704 13.552h-4.55l4.75-23.678M1235.715 179.4h8.836c2.594.022 4.474.77 5.638 2.242s1.548 3.484 1.154 6.034a11.493 11.493 0 0 1-1.024 3.428 10.148 10.148 0 0 1-2.11 3.034c-1.1 1.142-2.276 1.868-3.528 2.176-1.254.308-2.55.462-3.89.462h-3.958l-1.252 6.264h-4.584l4.718-23.64m3.858 3.76l-1.978 9.892c.132.022.264.034.396.034h.46c2.11.022 3.87-.186 5.276-.626 1.408-.462 2.352-2.066 2.836-4.814.394-2.308 0-3.638-1.188-3.99-1.164-.352-2.626-.516-4.384-.494a9.141 9.141 0 0 1-.758.034h-.694l.034-.036"/></g><g fill="#FFF" opacity=".4"><path d="M1100.627 43.4h8.836c2.594.022 4.472.77 5.638 2.242s1.55 3.484 1.154 6.034a11.606 11.606 0 0 1-1.022 3.428 10.184 10.184 0 0 1-2.11 3.034c-1.1 1.142-2.276 1.868-3.528 2.176s-2.55.462-3.89.462h-3.956l-1.254 6.264h-4.582l4.714-23.64m3.858 3.76l-1.978 9.892c.132.022.264.034.396.034h.46c2.11.022 3.87-.186 5.276-.626 1.406-.462 2.352-2.066 2.836-4.814.394-2.308 0-3.638-1.188-3.99-1.166-.352-2.626-.516-4.384-.494a9.18 9.18 0 0 1-.758.034h-.692l.032-.036M1121.475 37.104h4.55l-1.286 6.298h4.088c2.242.044 3.912.506 5.012 1.386 1.122.878 1.452 2.55.99 5.012l-2.21 10.98h-4.616l2.11-10.486c.22-1.1.154-1.88-.198-2.34-.352-.462-1.11-.692-2.276-.692l-3.66-.032-2.704 13.552h-4.55l4.75-23.678M1139.715 43.4h8.836c2.594.022 4.474.77 5.638 2.242s1.548 3.484 1.154 6.034a11.493 11.493 0 0 1-1.024 3.428 10.148 10.148 0 0 1-2.11 3.034c-1.1 1.142-2.276 1.868-3.528 2.176-1.254.308-2.55.462-3.89.462h-3.958l-1.252 6.264h-4.584l4.718-23.64m3.858 3.76l-1.978 9.892c.132.022.264.034.396.034h.46c2.11.022 3.87-.186 5.276-.626 1.408-.462 2.352-2.066 2.836-4.814.394-2.308 0-3.638-1.188-3.99-1.164-.352-2.626-.516-4.384-.494a9.141 9.141 0 0 1-.758.034h-.694l.034-.036"/></g><g fill="#FFF" opacity=".4"><path d="M1233.627 487.4h8.836c2.594.024 4.472.77 5.638 2.242s1.55 3.484 1.154 6.034a11.606 11.606 0 0 1-1.022 3.428 10.184 10.184 0 0 1-2.11 3.034c-1.1 1.142-2.276 1.868-3.528 2.176s-2.55.462-3.89.462h-3.956l-1.254 6.264h-4.582l4.714-23.64m3.858 3.76l-1.978 9.89c.132.022.264.034.396.034h.46c2.11.022 3.87-.186 5.276-.626 1.406-.462 2.352-2.066 2.836-4.814.394-2.308 0-3.638-1.188-3.99-1.166-.352-2.626-.516-4.384-.494a9.18 9.18 0 0 1-.758.034h-.692l.032-.034M1254.475 481.104h4.55l-1.286 6.296h4.088c2.242.044 3.912.506 5.012 1.386 1.122.878 1.452 2.55.99 5.01l-2.21 10.98h-4.616l2.11-10.486c.22-1.098.154-1.88-.198-2.34-.352-.462-1.11-.694-2.276-.694l-3.66-.032-2.704 13.552h-4.55l4.75-23.672M1272.715 487.4h8.836c2.594.024 4.474.77 5.638 2.242s1.548 3.484 1.154 6.034a11.493 11.493 0 0 1-1.024 3.428 10.148 10.148 0 0 1-2.11 3.034c-1.1 1.142-2.276 1.868-3.528 2.176-1.254.308-2.55.462-3.89.462h-3.958l-1.252 6.264h-4.584l4.718-23.64m3.858 3.76l-1.978 9.89c.132.022.264.034.396.034h.46c2.11.022 3.87-.186 5.276-.626 1.408-.462 2.352-2.066 2.836-4.814.394-2.308 0-3.638-1.188-3.99-1.164-.352-2.626-.516-4.384-.494a9.141 9.141 0 0 1-.758.034h-.694l.034-.034"/></g><g fill="#FFF" opacity=".4"><path d="M374.627 221.4h8.836c2.594.022 4.474.77 5.638 2.242 1.166 1.472 1.55 3.484 1.154 6.034a11.547 11.547 0 0 1-1.022 3.428 10.184 10.184 0 0 1-2.11 3.034c-1.1 1.142-2.274 1.868-3.528 2.176s-2.55.462-3.89.462h-3.956l-1.252 6.264h-4.584l4.714-23.64m3.858 3.76l-1.978 9.892c.132.022.264.034.396.034h.462c2.11.022 3.868-.186 5.276-.626 1.406-.462 2.352-2.066 2.836-4.814.396-2.308 0-3.638-1.188-3.99-1.166-.352-2.626-.516-4.386-.494a9.141 9.141 0 0 1-.758.034h-.692l.032-.036M395.475 215.104h4.55l-1.286 6.298h4.088c2.242.044 3.912.506 5.012 1.386 1.122.878 1.452 2.55.99 5.012l-2.21 10.98h-4.616l2.11-10.486c.22-1.1.154-1.88-.198-2.34-.352-.462-1.11-.692-2.276-.692l-3.66-.032-2.704 13.552h-4.55l4.75-23.678M413.715 221.4h8.836c2.594.022 4.474.77 5.638 2.242 1.166 1.472 1.55 3.484 1.154 6.034a11.547 11.547 0 0 1-1.022 3.428 10.148 10.148 0 0 1-2.11 3.034c-1.098 1.142-2.274 1.868-3.528 2.176s-2.55.462-3.89.462h-3.956l-1.252 6.264H409l4.714-23.64m3.858 3.76l-1.978 9.892c.132.022.264.034.396.034h.462c2.11.022 3.868-.186 5.276-.626 1.406-.462 2.352-2.066 2.834-4.814.396-2.308 0-3.638-1.186-3.99-1.166-.352-2.626-.516-4.386-.494a9.141 9.141 0 0 1-.758.034h-.692l.032-.036"/></g><g fill="#FFF" opacity=".4"><path d="M144.627 608.4h8.836c2.594.024 4.474.77 5.638 2.242 1.166 1.472 1.55 3.484 1.154 6.034a11.547 11.547 0 0 1-1.022 3.428 10.184 10.184 0 0 1-2.11 3.034c-1.1 1.142-2.274 1.868-3.528 2.176s-2.55.462-3.89.462h-3.956l-1.252 6.264h-4.584l4.714-23.64m3.858 3.76l-1.978 9.89c.132.022.264.034.396.034h.462c2.11.022 3.868-.186 5.276-.626 1.406-.462 2.352-2.066 2.836-4.814.396-2.308 0-3.638-1.188-3.99-1.166-.352-2.626-.516-4.386-.494a9.141 9.141 0 0 1-.758.034h-.692l.032-.034M165.475 602.104h4.55l-1.286 6.296h4.088c2.242.044 3.912.506 5.012 1.386 1.122.878 1.452 2.55.99 5.01l-2.21 10.98h-4.616l2.11-10.486c.22-1.098.154-1.88-.198-2.34-.352-.462-1.11-.694-2.276-.694l-3.66-.032-2.704 13.552h-4.55l4.75-23.672M183.715 608.4h8.836c2.594.024 4.474.77 5.638 2.242 1.166 1.472 1.55 3.484 1.154 6.034a11.547 11.547 0 0 1-1.022 3.428 10.148 10.148 0 0 1-2.11 3.034c-1.098 1.142-2.274 1.868-3.528 2.176s-2.55.462-3.89.462h-3.956l-1.252 6.264H179l4.714-23.64m3.858 3.76l-1.978 9.89c.132.022.264.034.396.034h.462c2.11.022 3.868-.186 5.276-.626 1.406-.462 2.352-2.066 2.834-4.814.396-2.308 0-3.638-1.186-3.99-1.166-.352-2.626-.516-4.386-.494a9.141 9.141 0 0 1-.758.034h-.692l.032-.034"/></g><g opacity=".4" fill="#FFF"><path d="M224.62 267.665a.518.518 0 0 0-.252.067.51.51 0 0 0-.252.438v12.898c0 .126-.06.239-.17.303a.35.35 0 0 1-.353 0l-2.108-1.213a1.006 1.006 0 0 0-1.012 0l-8.413 4.855c-.314.18-.506.53-.506.893v9.71c0 .364.192.696.506.877l8.413 4.856c.314.182.697.182 1.012 0l8.413-4.856c.315-.181.505-.513.505-.877v-24.208c0-.37-.201-.714-.522-.894l-5.007-2.8a.492.492 0 0 0-.253-.05zm-54.117 12.12a.96.96 0 0 0-.456.119l-8.413 4.856a1.007 1.007 0 0 0-.505.877l.017 13.03c0 .183.094.35.253.439.156.094.35.094.505 0l4.99-2.866a1.03 1.03 0 0 0 .523-.876v-6.085c0-.364.19-.697.505-.877l2.124-1.231a1.017 1.017 0 0 1 1.012 0l2.125 1.23c.314.18.505.514.505.878v6.086c0 .362.209.69.523.876l4.99 2.866a.487.487 0 0 0 .505 0 .502.502 0 0 0 .253-.438l.017-13.031c0-.366-.19-.696-.506-.877l-8.413-4.856a.947.947 0 0 0-.456-.118h-.098v-.001zm75.597.12c-.175 0-.348.044-.505.135l-8.413 4.855a1.008 1.008 0 0 0-.505.876v9.71c0 .366.205.696.522.877l8.345 4.754c.309.175.685.189.995.017l5.059-2.815a.512.512 0 0 0 .269-.44.497.497 0 0 0-.252-.437l-8.464-4.856a.545.545 0 0 1-.27-.455v-3.035c0-.181.113-.347.27-.438l2.63-1.517a.501.501 0 0 1 .505 0l2.63 1.517a.506.506 0 0 1 .254.438v2.394a.5.5 0 0 0 .253.438.499.499 0 0 0 .505 0l5.04-2.933c.314-.182.507-.516.507-.877v-2.344c0-.361-.192-.695-.506-.877l-8.362-4.855a1.029 1.029 0 0 0-.507-.132zm-25.154 7.25c.044 0 .095.01.134.033l2.884 1.669a.26.26 0 0 1 .135.219v3.337a.265.265 0 0 1-.135.22l-2.884 1.669a.247.247 0 0 1-.252 0l-2.883-1.668a.263.263 0 0 1-.134-.221v-3.337c0-.091.056-.173.134-.22l2.883-1.668a.217.217 0 0 1 .118-.033z"/><path opacity=".6" d="M271.305 279.669c-.293 0-.576.06-.827.202l-7.941 4.585a1.675 1.675 0 0 0-.826 1.45v9.155c0 .594.313 1.153.826 1.45l2.074 1.197c1.008.496 1.379.489 1.838.489 1.49 0 2.343-.905 2.343-2.48v-9.035c0-.127-.111-.22-.236-.22h-.995c-.128 0-.237.093-.237.22v9.036c0 .697-.726 1.399-1.905.81l-2.157-1.264c-.077-.042-.135-.115-.135-.203v-9.155a.27.27 0 0 1 .135-.22l7.924-4.568a.237.237 0 0 1 .236 0l7.923 4.569a.27.27 0 0 1 .135.219v9.155a.253.253 0 0 1-.118.219l-7.94 4.57a.242.242 0 0 1-.236 0l-2.041-1.214a.213.213 0 0 0-.202 0c-.562.32-.668.356-1.197.54-.13.045-.328.116.068.337l2.663 1.567c.254.147.537.219.827.219.293 0 .572-.072.825-.22l7.94-4.568c.514-.3.826-.855.826-1.45v-9.155c0-.594-.312-1.152-.825-1.45l-7.941-4.585a1.645 1.645 0 0 0-.824-.202zm-75.53.185c-.174 0-.35.044-.506.135l-8.413 4.838a1.036 1.036 0 0 0-.505.894v9.71c0 .364.19.695.505.877l8.413 4.856c.315.182.697.182 1.012 0l8.413-4.856c.314-.182.505-.513.505-.876v-9.711c0-.364-.19-.712-.505-.894l-8.413-4.838a1.001 1.001 0 0 0-.505-.135zm87.314.05v.237h.657v1.736h.27v-1.736h.675v-.236h-1.602zm1.837 0v1.973h.253v-1.163c0-.048.002-.121 0-.22-.003-.1 0-.187 0-.235v-.051l.557 1.668h.269l.574-1.668c0 .105-.014.209-.017.303v1.366h.253v-1.972h-.372l-.572 1.669-.556-1.67h-.39zm-11.498 6.306c-2.26 0-3.607.963-3.607 2.562 0 1.737 1.336 2.214 3.507 2.429 2.597.254 2.798.635 2.798 1.146 0 .887-.707 1.264-2.377 1.264-2.098 0-2.56-.524-2.714-1.568-.018-.112-.104-.202-.22-.202h-1.028a.24.24 0 0 0-.235.236c0 1.336.727 2.917 4.197 2.917 2.513 0 3.962-.986 3.962-2.714 0-1.713-1.171-2.173-3.608-2.495-2.463-.326-2.697-.486-2.697-1.062 0-.476.199-1.112 2.022-1.112 1.63 0 2.23.352 2.479 1.449a.23.23 0 0 0 .219.186h1.028c.063 0 .125-.04.169-.084.043-.05.073-.103.068-.168-.16-1.895-1.421-2.784-3.963-2.784zm-27.345 2.309c-.034 0-.071 0-.101.017l-1.62.945a.194.194 0 0 0-.1.167v1.855c0 .07.04.133.1.168l1.62.928a.176.176 0 0 0 .185 0l1.618-.928a.196.196 0 0 0 .102-.168v-1.855a.194.194 0 0 0-.102-.167l-1.618-.945c-.03-.017-.05-.017-.084-.017z"/></g><g opacity=".4" fill="#FFF"><path d="M765.62 501.664a.51.51 0 0 0-.506.506v12.898a.344.344 0 0 1-.521.303l-2.108-1.214a1.006 1.006 0 0 0-1.012 0l-8.413 4.855c-.314.18-.506.53-.506.894v9.71c0 .364.19.696.506.877l8.413 4.856c.314.182.696.182 1.012 0l8.413-4.856c.314-.181.505-.513.505-.877v-24.208a1.03 1.03 0 0 0-.522-.895l-5.007-2.8a.515.515 0 0 0-.253-.05zm-54.118 12.122a.964.964 0 0 0-.455.118l-8.412 4.855a1.01 1.01 0 0 0-.506.877l.018 13.03c0 .183.094.35.252.439.156.095.35.095.506 0l4.99-2.866a1.03 1.03 0 0 0 .523-.876v-6.086c0-.364.19-.696.505-.877l2.124-1.231c.16-.09.328-.134.506-.134.174 0 .352.043.506.134l2.125 1.23c.314.182.506.514.506.878v6.086c0 .362.209.69.523.876l4.989 2.866a.483.483 0 0 0 .505 0 .506.506 0 0 0 .254-.438l.017-13.031c0-.365-.19-.695-.506-.877l-8.413-4.855a.955.955 0 0 0-.455-.118h-.102zm75.598.119c-.176 0-.348.045-.506.135l-8.412 4.855a1.01 1.01 0 0 0-.506.877v9.71c0 .366.205.696.522.878l8.345 4.754c.309.176.686.189.994.017l5.059-2.815c.16-.09.27-.256.27-.438a.496.496 0 0 0-.252-.438l-8.465-4.855a.545.545 0 0 1-.27-.455v-3.035c0-.18.113-.347.27-.438l2.63-1.518a.503.503 0 0 1 .507 0l2.63 1.518a.508.508 0 0 1 .253.438v2.395c0 .182.096.348.254.438a.497.497 0 0 0 .505 0l5.04-2.932c.314-.183.507-.516.507-.877v-2.344c0-.361-.192-.695-.506-.877l-8.362-4.855a.978.978 0 0 0-.507-.138zm-25.155 7.25c.045 0 .096.01.135.033l2.884 1.668a.264.264 0 0 1 .135.22v3.337a.263.263 0 0 1-.135.22l-2.884 1.669a.243.243 0 0 1-.252 0l-2.884-1.668a.262.262 0 0 1-.134-.221v-3.337c0-.091.056-.173.134-.22l2.884-1.668a.208.208 0 0 1 .117-.033z"/><path opacity=".6" d="M812.305 513.668c-.293 0-.576.06-.826.203l-7.941 4.585a1.673 1.673 0 0 0-.826 1.45v9.154c0 .594.312 1.152.826 1.449l2.074 1.197c1.008.496 1.379.49 1.838.49 1.49 0 2.344-.906 2.344-2.48v-9.035c0-.127-.111-.22-.236-.22h-.994c-.13 0-.237.093-.237.22v9.036c0 .697-.726 1.399-1.905.81l-2.157-1.264c-.077-.043-.136-.115-.136-.203v-9.154c0-.088.059-.176.136-.22l7.924-4.568a.237.237 0 0 1 .236 0l7.923 4.569c.076.045.136.13.136.219v9.154a.252.252 0 0 1-.118.219l-7.94 4.57a.247.247 0 0 1-.236 0l-2.04-1.215a.215.215 0 0 0-.203 0c-.562.32-.668.356-1.196.539-.13.046-.328.116.067.338l2.664 1.567c.254.147.536.22.826.22.293 0 .572-.072.826-.22l7.94-4.57c.514-.298.825-.854.825-1.448v-9.154c0-.595-.312-1.152-.824-1.45l-7.941-4.585a1.68 1.68 0 0 0-.83-.203zm-75.53.186c-.175 0-.35.044-.506.135l-8.413 4.839c-.314.18-.505.53-.505.894v9.71c0 .364.19.696.505.878l8.413 4.855c.315.182.697.182 1.013 0l8.412-4.855a1.01 1.01 0 0 0 .506-.877v-9.711c0-.363-.191-.713-.506-.894l-8.412-4.84a1.01 1.01 0 0 0-.506-.134zm87.314.05v.237h.657v1.736h.27v-1.736h.675v-.236h-1.602zm1.837 0v1.974h.254v-1.163c0-.048.002-.121 0-.22-.004-.1 0-.188 0-.235v-.051l.557 1.669h.27l.573-1.67c0 .106-.015.21-.017.304-.002.093 0 .162 0 .203v1.163h.252v-1.973h-.371l-.572 1.67-.557-1.67h-.39zm-11.498 6.305c-2.26 0-3.607.963-3.607 2.562 0 1.737 1.337 2.215 3.508 2.43 2.596.254 2.798.635 2.798 1.146 0 .887-.707 1.265-2.378 1.265-2.098 0-2.56-.524-2.714-1.568-.018-.112-.104-.202-.22-.202h-1.027a.24.24 0 0 0-.236.235c0 1.336.728 2.917 4.197 2.917 2.514 0 3.963-.986 3.963-2.714 0-1.714-1.172-2.174-3.607-2.495-2.464-.326-2.697-.485-2.697-1.062 0-.476.198-1.112 2.02-1.112 1.632 0 2.233.352 2.48 1.449a.23.23 0 0 0 .219.186h1.028c.063 0 .125-.04.169-.084.044-.05.073-.104.067-.168-.16-1.894-1.421-2.785-3.963-2.785zm-27.345 2.31c-.034 0-.071 0-.101.018l-1.62.944a.195.195 0 0 0-.101.168v1.855c0 .069.04.133.102.168l1.619.928a.18.18 0 0 0 .185 0l1.618-.928a.195.195 0 0 0 .102-.168v-1.855a.195.195 0 0 0-.102-.168l-1.618-.944c-.03-.018-.05-.017-.084-.017z"/></g><g opacity=".4" fill="#FFF"><path d="M869.62 190.665a.512.512 0 0 0-.252.067.51.51 0 0 0-.253.438v12.898a.343.343 0 0 1-.168.303.35.35 0 0 1-.354 0l-2.108-1.213a1.006 1.006 0 0 0-1.012 0l-8.413 4.855c-.314.18-.506.53-.506.893v9.71c0 .364.19.696.506.877l8.413 4.856c.314.182.696.182 1.012 0l8.413-4.856c.314-.181.505-.513.505-.877v-24.208c0-.37-.201-.714-.522-.894l-5.007-2.8a.494.494 0 0 0-.253-.05zm-54.118 12.12a.952.952 0 0 0-.455.119l-8.412 4.856a1.008 1.008 0 0 0-.506.877l.018 13.03c0 .183.094.35.252.439a.49.49 0 0 0 .506 0l4.99-2.866a1.03 1.03 0 0 0 .523-.876v-6.085c0-.364.19-.697.505-.877l2.124-1.231c.16-.09.328-.134.506-.134.174 0 .352.043.506.134l2.125 1.23c.314.18.506.514.506.878v6.086c0 .362.209.69.523.876l4.989 2.866a.487.487 0 0 0 .505 0 .503.503 0 0 0 .254-.438l.017-13.031c0-.366-.19-.696-.506-.877l-8.413-4.856a.944.944 0 0 0-.455-.118h-.102v-.001zm75.598.12c-.176 0-.348.044-.506.135l-8.412 4.855a1.01 1.01 0 0 0-.506.876v9.71c0 .366.205.696.522.877l8.345 4.754c.309.175.686.189.994.017l5.059-2.815c.16-.09.27-.256.27-.44a.497.497 0 0 0-.252-.437l-8.465-4.856a.545.545 0 0 1-.27-.455v-3.035c0-.181.113-.347.27-.438l2.63-1.517a.503.503 0 0 1 .507 0l2.63 1.517a.508.508 0 0 1 .253.438v2.394c0 .182.096.348.254.438a.499.499 0 0 0 .505 0l5.04-2.933c.314-.182.507-.516.507-.877v-2.344c0-.361-.192-.695-.506-.877l-8.362-4.855a1.032 1.032 0 0 0-.507-.132zm-25.155 7.25c.045 0 .096.01.135.033l2.884 1.669a.26.26 0 0 1 .135.219v3.337a.265.265 0 0 1-.135.22l-2.884 1.669a.247.247 0 0 1-.252 0l-2.884-1.668a.263.263 0 0 1-.134-.221v-3.337c0-.091.056-.173.134-.22l2.884-1.668a.216.216 0 0 1 .117-.033z"/><path opacity=".6" d="M916.305 202.669c-.293 0-.576.06-.826.202l-7.941 4.585a1.673 1.673 0 0 0-.826 1.45v9.155c0 .594.312 1.153.826 1.45l2.074 1.197c1.008.496 1.379.489 1.838.489 1.49 0 2.344-.905 2.344-2.48v-9.035c0-.127-.111-.22-.236-.22h-.994c-.13 0-.237.093-.237.22v9.036c0 .697-.726 1.399-1.905.81l-2.157-1.264c-.077-.042-.136-.115-.136-.203v-9.155c0-.087.059-.175.136-.22l7.924-4.568a.237.237 0 0 1 .236 0l7.923 4.569c.076.045.136.13.136.219v9.155a.253.253 0 0 1-.118.219l-7.94 4.57a.242.242 0 0 1-.236 0l-2.04-1.214a.215.215 0 0 0-.203 0c-.562.32-.668.356-1.196.54-.13.045-.328.116.067.337l2.664 1.567c.254.147.536.219.826.219.293 0 .572-.072.826-.22l7.94-4.568c.514-.3.825-.855.825-1.45v-9.155c0-.594-.312-1.152-.824-1.45l-7.941-4.585a1.679 1.679 0 0 0-.83-.202zm-75.53.185c-.175 0-.35.044-.506.135l-8.413 4.838a1.036 1.036 0 0 0-.505.894v9.71c0 .364.19.695.505.877l8.413 4.856c.315.182.697.182 1.013 0l8.412-4.856a1.01 1.01 0 0 0 .506-.876v-9.711c0-.364-.191-.712-.506-.894l-8.412-4.838a1.01 1.01 0 0 0-.506-.135zm87.314.05v.237h.657v1.736h.27v-1.736h.675v-.236h-1.602zm1.837 0v1.973h.254v-1.163c0-.048.002-.121 0-.22-.004-.1 0-.187 0-.235v-.051l.557 1.668h.27l.573-1.668c0 .105-.015.209-.017.303-.002.092 0 .162 0 .203v1.163h.252v-1.972h-.371l-.572 1.669-.557-1.67h-.39zm-11.498 6.306c-2.26 0-3.607.963-3.607 2.562 0 1.737 1.337 2.214 3.508 2.429 2.596.254 2.798.635 2.798 1.146 0 .887-.707 1.264-2.378 1.264-2.098 0-2.56-.524-2.714-1.568-.018-.112-.104-.202-.22-.202h-1.027a.24.24 0 0 0-.236.236c0 1.336.728 2.917 4.197 2.917 2.514 0 3.963-.986 3.963-2.714 0-1.713-1.172-2.173-3.607-2.495-2.464-.326-2.697-.486-2.697-1.062 0-.476.198-1.112 2.02-1.112 1.632 0 2.233.352 2.48 1.449a.23.23 0 0 0 .219.186h1.028c.063 0 .125-.04.169-.084.044-.05.073-.103.067-.168-.16-1.895-1.421-2.784-3.963-2.784zm-27.345 2.309c-.034 0-.071 0-.101.017l-1.62.945a.195.195 0 0 0-.101.167v1.855c0 .07.04.133.102.168l1.619.928a.176.176 0 0 0 .185 0l1.618-.928a.194.194 0 0 0 .102-.168v-1.855a.192.192 0 0 0-.102-.167l-1.618-.945c-.03-.017-.05-.017-.084-.017z"/></g><g opacity=".4" fill="#FFF"><path d="M269.62 96.665a.518.518 0 0 0-.252.067.51.51 0 0 0-.252.438v12.898c0 .126-.06.239-.17.303a.35.35 0 0 1-.353 0l-2.108-1.213a1.006 1.006 0 0 0-1.012 0l-8.413 4.855c-.314.18-.506.53-.506.893v9.71c0 .364.192.696.506.877l8.413 4.856c.314.182.697.182 1.012 0l8.413-4.856c.315-.181.505-.513.505-.877v-24.208c0-.37-.201-.714-.522-.894l-5.007-2.8a.492.492 0 0 0-.253-.05zm-54.117 12.12a.96.96 0 0 0-.456.119l-8.413 4.856a1.007 1.007 0 0 0-.505.877l.017 13.03c0 .183.094.35.253.439.156.094.35.094.505 0l4.99-2.866a1.03 1.03 0 0 0 .523-.876v-6.085c0-.364.19-.697.505-.877l2.124-1.231a1.017 1.017 0 0 1 1.012 0l2.125 1.23c.314.18.505.514.505.878v6.086c0 .362.209.69.523.876l4.99 2.866a.487.487 0 0 0 .505 0 .502.502 0 0 0 .253-.438l.017-13.031c0-.366-.19-.696-.506-.877l-8.413-4.856a.947.947 0 0 0-.456-.118h-.098v-.001zm75.597.12c-.175 0-.348.044-.505.135l-8.413 4.855a1.008 1.008 0 0 0-.505.876v9.71c0 .366.205.696.522.877l8.345 4.754c.309.175.685.189.995.017l5.059-2.815a.512.512 0 0 0 .269-.44.497.497 0 0 0-.252-.437l-8.464-4.856a.545.545 0 0 1-.27-.455v-3.035c0-.181.113-.347.27-.438l2.63-1.517a.501.501 0 0 1 .505 0l2.63 1.517a.506.506 0 0 1 .254.438v2.394a.5.5 0 0 0 .253.438.499.499 0 0 0 .505 0l5.04-2.933c.314-.182.507-.516.507-.877v-2.344c0-.361-.192-.695-.506-.877l-8.362-4.855a1.029 1.029 0 0 0-.507-.132zm-25.154 7.25c.044 0 .095.01.134.033l2.884 1.669a.26.26 0 0 1 .135.219v3.337a.265.265 0 0 1-.135.22l-2.884 1.669a.247.247 0 0 1-.252 0l-2.883-1.668a.263.263 0 0 1-.134-.221v-3.337c0-.091.056-.173.134-.22l2.883-1.668a.217.217 0 0 1 .118-.033z"/><path opacity=".6" d="M316.305 108.669c-.293 0-.576.06-.827.202l-7.941 4.585a1.675 1.675 0 0 0-.826 1.45v9.155c0 .594.313 1.153.826 1.45l2.074 1.197c1.008.496 1.379.489 1.838.489 1.49 0 2.343-.905 2.343-2.48v-9.035c0-.127-.111-.22-.236-.22h-.995c-.128 0-.237.093-.237.22v9.036c0 .697-.726 1.399-1.905.81l-2.157-1.264c-.077-.042-.135-.115-.135-.203v-9.155a.27.27 0 0 1 .135-.22l7.924-4.568a.237.237 0 0 1 .236 0l7.923 4.569a.27.27 0 0 1 .135.219v9.155a.253.253 0 0 1-.118.219l-7.94 4.57a.242.242 0 0 1-.236 0l-2.041-1.214a.213.213 0 0 0-.202 0c-.562.32-.668.356-1.197.54-.13.045-.328.116.068.337l2.663 1.567c.254.147.537.219.827.219.293 0 .572-.072.825-.22l7.94-4.568c.514-.3.826-.855.826-1.45v-9.155c0-.594-.312-1.152-.825-1.45l-7.941-4.585a1.645 1.645 0 0 0-.824-.202zm-75.53.185c-.174 0-.35.044-.506.135l-8.413 4.838a1.036 1.036 0 0 0-.505.894v9.71c0 .364.19.695.505.877l8.413 4.856c.315.182.697.182 1.012 0l8.413-4.856c.314-.182.505-.513.505-.876v-9.711c0-.364-.19-.712-.505-.894l-8.413-4.838a1.001 1.001 0 0 0-.505-.135zm87.314.05v.237h.657v1.736h.27v-1.736h.675v-.236h-1.602zm1.837 0v1.973h.253v-1.163c0-.048.002-.121 0-.22-.003-.1 0-.187 0-.235v-.051l.557 1.668h.269l.574-1.668c0 .105-.014.209-.017.303v1.366h.253v-1.972h-.372l-.572 1.669-.556-1.67h-.39zm-11.498 6.306c-2.26 0-3.607.963-3.607 2.562 0 1.737 1.336 2.214 3.507 2.429 2.597.254 2.798.635 2.798 1.146 0 .887-.707 1.264-2.377 1.264-2.098 0-2.56-.524-2.714-1.568-.018-.112-.104-.202-.22-.202h-1.028a.24.24 0 0 0-.235.236c0 1.336.727 2.917 4.197 2.917 2.513 0 3.962-.986 3.962-2.714 0-1.713-1.171-2.173-3.608-2.495-2.463-.326-2.697-.486-2.697-1.062 0-.476.199-1.112 2.022-1.112 1.63 0 2.23.352 2.479 1.449a.23.23 0 0 0 .219.186h1.028c.063 0 .125-.04.169-.084.043-.05.073-.103.068-.168-.16-1.895-1.421-2.784-3.963-2.784zm-27.345 2.309c-.034 0-.071 0-.101.017l-1.62.945a.194.194 0 0 0-.1.167v1.855c0 .07.04.133.1.168l1.62.928a.176.176 0 0 0 .185 0l1.618-.928a.196.196 0 0 0 .102-.168v-1.855a.194.194 0 0 0-.102-.167l-1.618-.945c-.03-.017-.05-.017-.084-.017z"/></g><g opacity=".4" fill="#FFF"><path d="M1091.62 686.664a.51.51 0 0 0-.506.506v12.898a.344.344 0 0 1-.521.303l-2.108-1.214a1.006 1.006 0 0 0-1.012 0l-8.413 4.855c-.314.18-.506.53-.506.894v9.71c0 .364.19.696.506.877l8.413 4.856c.314.182.696.182 1.012 0l8.413-4.856c.314-.181.505-.513.505-.877v-24.208a1.03 1.03 0 0 0-.522-.895l-5.007-2.8a.515.515 0 0 0-.253-.05zm-54.118 12.122a.964.964 0 0 0-.455.118l-8.412 4.855a1.01 1.01 0 0 0-.506.877l.018 13.03c0 .183.094.35.252.439.156.095.35.095.506 0l4.99-2.866a1.03 1.03 0 0 0 .523-.876v-6.086c0-.364.19-.696.505-.877l2.124-1.231c.16-.09.328-.134.506-.134.174 0 .352.043.506.134l2.125 1.23c.314.182.506.514.506.878v6.086c0 .362.209.69.523.876l4.989 2.866a.483.483 0 0 0 .505 0 .506.506 0 0 0 .254-.438l.017-13.031c0-.365-.19-.695-.506-.877l-8.413-4.855a.955.955 0 0 0-.455-.118h-.102zm75.598.119c-.176 0-.348.045-.506.135l-8.412 4.855a1.01 1.01 0 0 0-.506.877v9.71c0 .366.205.696.522.878l8.345 4.754c.309.176.686.189.994.017l5.059-2.815c.16-.09.27-.256.27-.438a.496.496 0 0 0-.252-.438l-8.465-4.855a.545.545 0 0 1-.27-.455v-3.035c0-.18.113-.347.27-.438l2.63-1.518a.503.503 0 0 1 .507 0l2.63 1.518a.508.508 0 0 1 .253.438v2.395c0 .182.096.348.254.438a.497.497 0 0 0 .505 0l5.04-2.932c.314-.183.507-.516.507-.877v-2.344c0-.361-.192-.695-.506-.877l-8.362-4.855a.978.978 0 0 0-.507-.138zm-25.154 7.25c.045 0 .096.01.135.033l2.884 1.668a.264.264 0 0 1 .135.22v3.337a.263.263 0 0 1-.135.22l-2.884 1.669a.243.243 0 0 1-.252 0l-2.884-1.668a.262.262 0 0 1-.134-.221v-3.337c0-.091.056-.173.134-.22l2.884-1.668a.206.206 0 0 1 .117-.033z"/><path opacity=".6" d="M1138.305 698.668c-.293 0-.576.06-.826.203l-7.941 4.585a1.673 1.673 0 0 0-.826 1.45v9.154c0 .594.312 1.152.826 1.449l2.074 1.197c1.008.496 1.379.49 1.838.49 1.49 0 2.344-.906 2.344-2.48v-9.035c0-.127-.111-.22-.236-.22h-.994c-.13 0-.237.093-.237.22v9.036c0 .697-.726 1.399-1.905.81l-2.157-1.264c-.077-.043-.136-.115-.136-.203v-9.154c0-.088.059-.176.136-.22l7.924-4.568a.237.237 0 0 1 .236 0l7.923 4.569c.076.045.136.13.136.219v9.154a.252.252 0 0 1-.118.219l-7.94 4.57a.247.247 0 0 1-.236 0l-2.04-1.215a.215.215 0 0 0-.203 0c-.562.32-.668.356-1.196.539-.13.046-.328.116.067.338l2.664 1.567c.254.147.536.22.826.22.293 0 .572-.072.826-.22l7.94-4.57c.514-.298.825-.854.825-1.448v-9.154c0-.595-.312-1.152-.824-1.45l-7.941-4.585a1.68 1.68 0 0 0-.83-.203zm-75.53.186c-.175 0-.35.044-.506.135l-8.413 4.839c-.314.18-.505.53-.505.894v9.71c0 .364.19.696.505.878l8.413 4.855c.315.182.697.182 1.013 0l8.412-4.855a1.01 1.01 0 0 0 .506-.877v-9.711c0-.363-.191-.713-.506-.894l-8.412-4.84a1.01 1.01 0 0 0-.506-.134zm87.314.05v.237h.657v1.736h.27v-1.736h.675v-.236h-1.602zm1.837 0v1.974h.254v-1.163c0-.048.002-.121 0-.22-.004-.1 0-.188 0-.235v-.051l.557 1.669h.27l.573-1.67c0 .106-.015.21-.017.304-.002.093 0 .162 0 .203v1.163h.252v-1.973h-.371l-.572 1.67-.557-1.67h-.39zm-11.498 6.305c-2.26 0-3.607.963-3.607 2.562 0 1.737 1.337 2.215 3.508 2.43 2.596.254 2.798.635 2.798 1.146 0 .887-.707 1.265-2.378 1.265-2.098 0-2.56-.524-2.714-1.568-.018-.112-.104-.202-.22-.202h-1.027a.24.24 0 0 0-.236.235c0 1.336.728 2.917 4.197 2.917 2.514 0 3.963-.986 3.963-2.714 0-1.714-1.172-2.174-3.607-2.495-2.464-.326-2.697-.485-2.697-1.062 0-.476.198-1.112 2.02-1.112 1.632 0 2.233.352 2.48 1.449a.23.23 0 0 0 .219.186h1.028c.063 0 .125-.04.169-.084.044-.05.073-.104.067-.168-.16-1.894-1.421-2.785-3.963-2.785zm-27.345 2.31c-.034 0-.071 0-.101.018l-1.62.944a.195.195 0 0 0-.101.168v1.855c0 .069.04.133.102.168l1.619.928a.18.18 0 0 0 .185 0l1.618-.928a.195.195 0 0 0 .102-.168v-1.855a.195.195 0 0 0-.102-.168l-1.618-.944c-.03-.018-.05-.017-.084-.017z"/></g><g opacity=".4" fill="#FFF"><path d="M1301.62 294.665a.512.512 0 0 0-.252.067.51.51 0 0 0-.253.438v12.898a.343.343 0 0 1-.168.303.35.35 0 0 1-.354 0l-2.108-1.213a1.006 1.006 0 0 0-1.012 0l-8.413 4.855c-.314.18-.506.53-.506.893v9.71c0 .364.19.696.506.877l8.413 4.856c.314.182.696.182 1.012 0l8.413-4.856c.314-.181.505-.513.505-.877v-24.208c0-.37-.201-.714-.522-.894l-5.007-2.8a.494.494 0 0 0-.253-.05zm-54.118 12.12a.952.952 0 0 0-.455.119l-8.412 4.856a1.008 1.008 0 0 0-.506.877l.018 13.03c0 .183.094.35.252.439a.49.49 0 0 0 .506 0l4.99-2.866a1.03 1.03 0 0 0 .523-.876v-6.085c0-.364.19-.697.505-.877l2.124-1.231c.16-.09.328-.134.506-.134.174 0 .352.043.506.134l2.125 1.23c.314.18.506.514.506.878v6.086c0 .362.209.69.523.876l4.989 2.866a.487.487 0 0 0 .505 0 .503.503 0 0 0 .254-.438l.017-13.031c0-.366-.19-.696-.506-.877l-8.413-4.856a.944.944 0 0 0-.455-.118h-.102v-.001zm75.598.12c-.176 0-.348.044-.506.135l-8.412 4.855a1.01 1.01 0 0 0-.506.876v9.71c0 .366.205.696.522.877l8.345 4.754c.309.175.686.189.994.017l5.059-2.815c.16-.09.27-.256.27-.44a.497.497 0 0 0-.252-.437l-8.465-4.856a.545.545 0 0 1-.27-.455v-3.035c0-.181.113-.347.27-.438l2.63-1.517a.503.503 0 0 1 .507 0l2.63 1.517a.508.508 0 0 1 .253.438v2.394c0 .182.096.348.254.438a.499.499 0 0 0 .505 0l5.04-2.933c.314-.182.507-.516.507-.877v-2.344c0-.361-.192-.695-.506-.877l-8.362-4.855a1.032 1.032 0 0 0-.507-.132zm-25.154 7.25c.045 0 .096.01.135.033l2.884 1.669a.26.26 0 0 1 .135.219v3.337a.265.265 0 0 1-.135.22l-2.884 1.669a.247.247 0 0 1-.252 0l-2.884-1.668a.263.263 0 0 1-.134-.221v-3.337c0-.091.056-.173.134-.22l2.884-1.668a.214.214 0 0 1 .117-.033z"/><path opacity=".6" d="M1348.305 306.669c-.293 0-.576.06-.826.202l-7.941 4.585a1.673 1.673 0 0 0-.826 1.45v9.155c0 .594.312 1.153.826 1.45l2.074 1.197c1.008.496 1.379.489 1.838.489 1.49 0 2.344-.905 2.344-2.48v-9.035c0-.127-.111-.22-.236-.22h-.994c-.13 0-.237.093-.237.22v9.036c0 .697-.726 1.399-1.905.81l-2.157-1.264c-.077-.042-.136-.115-.136-.203v-9.155c0-.087.059-.175.136-.22l7.924-4.568a.237.237 0 0 1 .236 0l7.923 4.569c.076.045.136.13.136.219v9.155a.253.253 0 0 1-.118.219l-7.94 4.57a.242.242 0 0 1-.236 0l-2.04-1.214a.215.215 0 0 0-.203 0c-.562.32-.668.356-1.196.54-.13.045-.328.116.067.337l2.664 1.567c.254.147.536.219.826.219.293 0 .572-.072.826-.22l7.94-4.568c.514-.3.825-.855.825-1.45v-9.155c0-.594-.312-1.152-.824-1.45l-7.941-4.585a1.679 1.679 0 0 0-.83-.202zm-75.53.185c-.175 0-.35.044-.506.135l-8.413 4.838a1.036 1.036 0 0 0-.505.894v9.71c0 .364.19.695.505.877l8.413 4.856c.315.182.697.182 1.013 0l8.412-4.856a1.01 1.01 0 0 0 .506-.876v-9.711c0-.364-.191-.712-.506-.894l-8.412-4.838a1.01 1.01 0 0 0-.506-.135zm87.314.05v.237h.657v1.736h.27v-1.736h.675v-.236h-1.602zm1.837 0v1.973h.254v-1.163c0-.048.002-.121 0-.22-.004-.1 0-.187 0-.235v-.051l.557 1.668h.27l.573-1.668c0 .105-.015.209-.017.303-.002.092 0 .162 0 .203v1.163h.252v-1.972h-.371l-.572 1.669-.557-1.67h-.39zm-11.498 6.306c-2.26 0-3.607.963-3.607 2.562 0 1.737 1.337 2.214 3.508 2.429 2.596.254 2.798.635 2.798 1.146 0 .887-.707 1.264-2.378 1.264-2.098 0-2.56-.524-2.714-1.568-.018-.112-.104-.202-.22-.202h-1.027a.24.24 0 0 0-.236.236c0 1.336.728 2.917 4.197 2.917 2.514 0 3.963-.986 3.963-2.714 0-1.713-1.172-2.173-3.607-2.495-2.464-.326-2.697-.486-2.697-1.062 0-.476.198-1.112 2.02-1.112 1.632 0 2.233.352 2.48 1.449a.23.23 0 0 0 .219.186h1.028c.063 0 .125-.04.169-.084.044-.05.073-.103.067-.168-.16-1.895-1.421-2.784-3.963-2.784zm-27.345 2.309c-.034 0-.071 0-.101.017l-1.62.945a.195.195 0 0 0-.101.167v1.855c0 .07.04.133.102.168l1.619.928a.176.176 0 0 0 .185 0l1.618-.928a.194.194 0 0 0 .102-.168v-1.855a.192.192 0 0 0-.102-.167l-1.618-.945c-.03-.017-.05-.017-.084-.017z"/></g><g opacity=".4" fill="#FFF"><path d="M338.62 439.664a.508.508 0 0 0-.505.506v12.898a.345.345 0 0 1-.522.303l-2.108-1.214a1.006 1.006 0 0 0-1.012 0l-8.413 4.855c-.314.18-.506.53-.506.894v9.71c0 .364.192.696.506.877l8.413 4.856c.314.182.697.182 1.012 0l8.413-4.856c.315-.181.505-.513.505-.877v-24.208a1.03 1.03 0 0 0-.522-.895l-5.007-2.8a.513.513 0 0 0-.253-.05zm-54.117 12.122a.97.97 0 0 0-.456.118l-8.413 4.855a1.01 1.01 0 0 0-.505.877l.017 13.03c0 .183.094.35.253.439.156.095.35.095.505 0l4.99-2.866a1.03 1.03 0 0 0 .523-.876v-6.084c0-.364.19-.696.505-.877l2.124-1.231a1.017 1.017 0 0 1 1.012 0l2.125 1.23c.314.182.505.514.505.878v6.086c0 .362.209.69.523.876l4.99 2.866a.483.483 0 0 0 .505 0 .505.505 0 0 0 .253-.438l.017-13.031c0-.365-.19-.695-.506-.877l-8.413-4.855a.959.959 0 0 0-.456-.118h-.098v-.002zm75.597.119c-.175 0-.348.045-.505.135l-8.413 4.855a1.01 1.01 0 0 0-.505.877v9.71c0 .366.205.696.522.878l8.345 4.754c.309.176.685.189.995.017l5.059-2.815a.512.512 0 0 0 .269-.438.496.496 0 0 0-.252-.438l-8.464-4.855a.545.545 0 0 1-.27-.455v-3.035c0-.18.113-.347.27-.438l2.63-1.518a.501.501 0 0 1 .505 0l2.63 1.518a.506.506 0 0 1 .254.438v2.395a.5.5 0 0 0 .253.438.497.497 0 0 0 .505 0l5.04-2.932c.314-.183.507-.516.507-.877v-2.344c0-.361-.192-.695-.506-.877l-8.362-4.855a.975.975 0 0 0-.507-.138zm-25.154 7.25c.044 0 .095.01.134.033l2.884 1.668a.264.264 0 0 1 .135.22v3.337a.263.263 0 0 1-.135.22l-2.884 1.669a.243.243 0 0 1-.252 0l-2.883-1.668a.262.262 0 0 1-.134-.221v-3.337c0-.091.056-.173.134-.22l2.883-1.668a.21.21 0 0 1 .118-.033z"/><path opacity=".6" d="M385.305 451.668c-.293 0-.576.06-.827.203l-7.941 4.585a1.675 1.675 0 0 0-.826 1.45v9.154c0 .594.313 1.152.826 1.449l2.074 1.197c1.008.496 1.379.49 1.838.49 1.49 0 2.343-.906 2.343-2.48v-9.035c0-.127-.111-.22-.236-.22h-.995c-.128 0-.237.093-.237.22v9.036c0 .697-.726 1.399-1.905.81l-2.157-1.264c-.077-.043-.135-.115-.135-.203v-9.154c0-.088.059-.176.135-.22l7.924-4.568a.237.237 0 0 1 .236 0l7.923 4.569a.27.27 0 0 1 .135.219v9.154a.252.252 0 0 1-.118.219l-7.94 4.57a.247.247 0 0 1-.236 0l-2.041-1.215a.213.213 0 0 0-.202 0c-.562.32-.668.356-1.197.539-.13.046-.328.116.068.338l2.663 1.567c.254.147.537.22.827.22.293 0 .572-.072.825-.22l7.94-4.57c.514-.298.826-.854.826-1.448v-9.154c0-.595-.312-1.152-.825-1.45l-7.941-4.585a1.645 1.645 0 0 0-.824-.203zm-75.53.186c-.174 0-.35.044-.506.135l-8.413 4.839c-.314.18-.505.53-.505.894v9.71c0 .364.19.696.505.878l8.413 4.855c.315.182.697.182 1.012 0l8.413-4.855a1.01 1.01 0 0 0 .505-.877v-9.711c0-.363-.19-.713-.505-.894l-8.413-4.84a1.001 1.001 0 0 0-.505-.134zm87.314.05v.237h.657v1.736h.27v-1.736h.675v-.236h-1.602zm1.837 0v1.974h.253v-1.163c0-.048.002-.121 0-.22-.003-.1 0-.188 0-.235v-.051l.557 1.669h.269l.574-1.67c0 .106-.014.21-.017.304v1.366h.253v-1.973h-.372l-.572 1.67-.556-1.67h-.39zm-11.498 6.305c-2.26 0-3.607.963-3.607 2.562 0 1.737 1.336 2.215 3.507 2.43 2.597.254 2.798.635 2.798 1.146 0 .887-.707 1.265-2.377 1.265-2.098 0-2.56-.524-2.714-1.568-.018-.112-.104-.202-.22-.202h-1.028a.24.24 0 0 0-.235.235c0 1.336.727 2.917 4.197 2.917 2.513 0 3.962-.986 3.962-2.714 0-1.714-1.171-2.174-3.608-2.495-2.463-.326-2.697-.485-2.697-1.062 0-.476.199-1.112 2.022-1.112 1.63 0 2.23.352 2.479 1.449a.23.23 0 0 0 .219.186h1.028c.063 0 .125-.04.169-.084.043-.05.073-.104.068-.168-.16-1.894-1.421-2.785-3.963-2.785zm-27.345 2.31c-.034 0-.071 0-.101.018l-1.62.944a.194.194 0 0 0-.1.168v1.855c0 .069.04.133.1.168l1.62.928a.18.18 0 0 0 .185 0l1.618-.928a.197.197 0 0 0 .102-.168v-1.855a.197.197 0 0 0-.102-.168l-1.618-.944c-.03-.018-.05-.017-.084-.017z"/></g><path fill="#FFF" d="M85.546 340.672H77.1l.593-7.113h-4.149l-.593 7.113H55.465l-.593-7.113h-4.149l.593 7.113H42.87l-4.742-30.822 11.854-18.967h28.451l11.854 18.967-4.741 30.822zm-9.483-40.306h-7.621l.508 3.557h-9.483l.508-3.557h-7.621l-4.742 9.484 2.371 18.967h28.451l2.371-18.967-4.742-9.484zm-4.149 22.156c-.655 0-1.186-1.975-1.186-4.41 0-2.436.531-4.41 1.186-4.41.654 0 1.185 1.975 1.185 4.41 0 2.436-.531 4.41-1.185 4.41zm-14.967.368c-.654 0-1.185-1.975-1.185-4.41s.531-4.41 1.185-4.41c.655 0 1.186 1.975 1.186 4.41-.001 2.436-.531 4.41-1.186 4.41zM803.546 52.672H795.1l.593-7.113h-4.149l-.592 7.113h-17.486l-.592-7.113h-4.15l.594 7.113h-8.447L756.13 21.85l11.854-18.967h28.451l11.854 18.967-4.743 30.822zm-9.484-40.306h-7.621l.508 3.557h-9.482l.508-3.557h-7.621l-4.742 9.484 2.371 18.967h28.451l2.371-18.967-4.743-9.484zm-4.148 22.156c-.655 0-1.186-1.975-1.186-4.41 0-2.436.53-4.41 1.186-4.41.654 0 1.185 1.975 1.185 4.41 0 2.436-.531 4.41-1.185 4.41zm-14.967.368c-.654 0-1.186-1.975-1.186-4.41s.531-4.41 1.186-4.41 1.186 1.975 1.186 4.41c0 2.436-.531 4.41-1.186 4.41zM984.546 432.672H976.1l.593-7.113h-4.149l-.592 7.113h-17.486l-.592-7.113h-4.15l.594 7.113h-8.447l-4.741-30.822 11.854-18.967h28.451l11.854 18.967-4.743 30.822zm-9.484-40.306h-7.621l.508 3.557h-9.482l.508-3.557h-7.621l-4.742 9.483 2.371 18.968h28.451l2.371-18.968-4.743-9.483zm-4.148 22.156c-.655 0-1.186-1.975-1.186-4.409 0-2.436.53-4.41 1.186-4.41.654 0 1.185 1.975 1.185 4.41s-.531 4.409-1.185 4.409zm-14.967.369c-.654 0-1.186-1.975-1.186-4.41s.531-4.41 1.186-4.41 1.186 1.975 1.186 4.41-.531 4.41-1.186 4.41zM786.743 728.47h-8.446l.593-7.113h-4.149l-.592 7.113h-17.486l-.592-7.113h-4.15l.594 7.113h-8.447l-4.741-30.822 11.854-18.967h28.451l11.854 18.967-4.743 30.822zm-9.483-40.306h-7.621l.508 3.557h-9.482l.508-3.557h-7.621l-4.742 9.483 2.371 18.968h28.451l2.371-18.968-4.743-9.483zm-4.149 22.156c-.655 0-1.186-1.975-1.186-4.409 0-2.436.53-4.41 1.186-4.41.654 0 1.185 1.975 1.185 4.41s-.53 4.409-1.185 4.409zm-14.966.368c-.654 0-1.186-1.975-1.186-4.41s.531-4.41 1.186-4.41 1.186 1.975 1.186 4.41-.532 4.41-1.186 4.41zM579.546 661.672H571.1l.593-7.113h-4.149l-.593 7.113h-17.485l-.593-7.113h-4.149l.593 7.113h-8.446l-4.742-30.822 11.854-18.967h28.451l11.854 18.967-4.742 30.822zm-9.484-40.306h-7.621l.508 3.557h-9.483l.508-3.557h-7.621l-4.742 9.483 2.371 18.968h28.451l2.371-18.968-4.742-9.483zm-4.148 22.156c-.655 0-1.186-1.975-1.186-4.409 0-2.436.531-4.41 1.186-4.41.654 0 1.185 1.975 1.185 4.41s-.531 4.409-1.185 4.409zm-14.967.369c-.654 0-1.185-1.975-1.185-4.41s.531-4.41 1.185-4.41c.655 0 1.186 1.975 1.186 4.41s-.531 4.41-1.186 4.41zM680.546 363.672H672.1l.593-7.113h-4.149l-.592 7.113h-17.486l-.592-7.113h-4.15l.594 7.113h-8.447l-4.742-30.822 11.854-18.967h28.451l11.854 18.967-4.742 30.822zm-9.484-40.306h-7.621l.508 3.557h-9.482l.508-3.557h-7.621l-4.742 9.484 2.371 18.967h28.451l2.371-18.967-4.743-9.484zm-4.148 22.156c-.655 0-1.186-1.975-1.186-4.41 0-2.436.53-4.41 1.186-4.41.654 0 1.185 1.975 1.185 4.41 0 2.436-.531 4.41-1.185 4.41zm-14.967.368c-.654 0-1.186-1.975-1.186-4.41s.531-4.41 1.186-4.41 1.186 1.975 1.186 4.41c0 2.436-.531 4.41-1.186 4.41zM1339.546 432.672h-8.446l.593-7.113h-4.149l-.592 7.113h-17.486l-.592-7.113h-4.15l.594 7.113h-8.447l-4.741-30.822 11.854-18.967h28.451l11.854 18.967-4.743 30.822zm-9.484-40.306h-7.621l.508 3.557h-9.482l.508-3.557h-7.621l-4.742 9.483 2.371 18.968h28.451l2.371-18.968-4.743-9.483zm-4.148 22.156c-.655 0-1.186-1.975-1.186-4.409 0-2.436.53-4.41 1.186-4.41.654 0 1.185 1.975 1.185 4.41s-.531 4.409-1.185 4.409zm-14.967.369c-.654 0-1.186-1.975-1.186-4.41s.531-4.41 1.186-4.41 1.186 1.975 1.186 4.41-.531 4.41-1.186 4.41zM1153.546 197.672h-8.446l.593-7.113h-4.149l-.592 7.113h-17.486l-.592-7.113h-4.15l.594 7.113h-8.447l-4.741-30.822 11.854-18.967h28.451l11.854 18.967-4.743 30.822zm-9.484-40.306h-7.621l.508 3.557h-9.482l.508-3.557h-7.621l-4.742 9.484 2.371 18.967h28.451l2.371-18.967-4.743-9.484zm-4.148 22.156c-.655 0-1.186-1.975-1.186-4.41 0-2.436.53-4.41 1.186-4.41.654 0 1.185 1.975 1.185 4.41 0 2.436-.531 4.41-1.185 4.41zm-14.967.368c-.654 0-1.186-1.975-1.186-4.41s.531-4.41 1.186-4.41 1.186 1.975 1.186 4.41c0 2.436-.531 4.41-1.186 4.41zM125.05 157.631l-.036-.037-8.014 8.015 19.458 19.423 8.014-7.978 11.444-11.445-8.015-8.014v-.036h-22.888l.037.072zM497.05 529.631l-.036-.036-8.014 8.014 19.458 19.422 8.014-7.978 11.444-11.444-8.015-8.015v-.036h-22.888l.037.073zM880.05 97.631l-.036-.037-8.014 8.015 19.458 19.423 8.015-7.978 11.443-11.445-8.014-8.014v-.036h-22.889l.037.072zM1025.05 623.631l-.036-.036-8.014 8.015 19.458 19.422 8.015-7.978 11.443-11.444-8.014-8.015v-.036h-22.889l.037.072zM1272.05 166.631l-.036-.037-8.014 8.014 19.458 19.423 8.015-7.978 11.443-11.445-8.014-8.014v-.036h-22.889l.037.073zM285.05 694.631l-.036-.036-8.014 8.014 19.458 19.422 8.014-7.978 11.444-11.444-8.015-8.015v-.036h-22.888l.037.073zM257.05 322.631l-.036-.037-8.014 8.015 19.458 19.423 8.014-7.978 11.444-11.445-8.015-8.014v-.036h-22.888l.037.072zM707.05 309.631l-.036-.037-8.014 8.015 19.458 19.423 8.015-7.978 11.443-11.445-8.014-8.014v-.036h-22.889l.037.072z" opacity=".4"/></g><path fill="#FFF" d="M517.05 66.631l-.036-.037L509 74.609l19.458 19.423 8.014-7.978 11.444-11.445-8.015-8.014v-.036h-22.888l.037.072zM1011.05 216.631l-.036-.037-8.014 8.014 19.458 19.423 8.015-7.978 11.443-11.445-8.014-8.014v-.036h-22.889l.037.073z" opacity=".5"/><g opacity=".5" fill="#FFF"><path opacity=".6" d="M267.318-130.729h2.707v2.674h2.475v-2.674h2.707v8.098h-2.706v-2.712h-2.476v2.712h-2.707v-8.098zM278.766-128.043h-2.382v-2.686h7.473v2.686h-2.383v5.412h-2.708v-5.412zM285.043-130.729h2.822l1.736 2.846 1.734-2.846h2.823v8.098h-2.695v-4.014l-1.862 2.879h-.047l-1.863-2.879v4.014h-2.648v-8.098zM295.506-130.729h2.707v5.421h3.806v2.677h-6.513v-8.098z"/><path d="M263.36-118.928l3.871 43.425 17.374 4.823 17.421-4.83 3.876-43.417H263.36zm34.467 10.305l-.243 2.7-.106 1.198h-20.381l.488 5.454H296.993l-.13 1.431-1.25 14.021-.081.899-10.9 3.021v.001l-.024.007-10.909-3.029-.746-8.361h5.346l.379 4.247 5.931 1.602.004-.001 5.94-1.604.619-6.907h-18.458l-1.309-14.677-.127-1.428H297.954l-.127 1.426z"/></g><path opacity=".5" fill="#FFF" d="M193.162-126.349v51.289h51.289v-51.289h-51.289zm27.931 40.004c0 4.99-2.926 7.262-7.197 7.262-3.858 0-6.093-1.998-7.23-4.403l3.923-2.375c.757 1.343 1.446 2.479 3.102 2.479 1.583 0 2.582-.62 2.582-3.028v-16.389h4.82v16.454zm11.388 7.27c-4.477 0-7.368-2.133-8.783-4.928l3.917-2.276c1.034 1.687 2.377 2.927 4.754 2.927 1.997 0 3.273-.998 3.273-2.377 0-1.653-1.311-2.238-3.509-3.2l-1.205-.517c-3.478-1.482-5.788-3.338-5.788-7.262 0-3.615 2.754-6.367 7.058-6.367 3.064 0 5.267 1.067 6.855 3.859l-3.753 2.41c-.826-1.482-1.717-2.066-3.102-2.066-1.412 0-2.306.896-2.306 2.066 0 1.445.896 2.031 2.963 2.927l1.205.516c4.095 1.756 6.407 3.546 6.407 7.571 0 4.34-3.409 6.717-7.986 6.717z"/><g fill="#FFF" opacity=".5"><path d="M367.532-111.348a3.85 3.85 0 0 0-3.845 3.846v14.561a3.849 3.849 0 0 0 3.845 3.845 3.85 3.85 0 0 0 3.846-3.845v-14.561a3.85 3.85 0 0 0-3.846-3.846zM326.763-111.348a3.85 3.85 0 0 0-3.845 3.846v14.561a3.849 3.849 0 0 0 3.845 3.845 3.849 3.849 0 0 0 3.845-3.845v-14.561a3.85 3.85 0 0 0-3.845-3.846zM331.559-87.803a3.77 3.77 0 0 0 3.769 3.769h2.15v7.708c0 2.12 1.725 3.845 3.845 3.845s3.845-1.725 3.845-3.845v-7.708h3.958v7.708a3.85 3.85 0 0 0 3.845 3.845 3.849 3.849 0 0 0 3.845-3.845v-7.708h2.15a3.77 3.77 0 0 0 3.769-3.769v-22.945h-31.177v22.945zM362.736-111.614c0-5.266-3.064-9.87-7.636-12.377l2.463-4.443a.849.849 0 0 0-1.483-.821l-2.51 4.527a16.643 16.643 0 0 0-6.423-1.274c-2.29 0-4.464.456-6.423 1.274l-2.51-4.527a.848.848 0 1 0-1.482.821l2.463 4.443c-4.572 2.508-7.637 7.112-7.637 12.377l.002.111-.002.061v.162h31.177v-.162l-.001-.061a4.11 4.11 0 0 0 .002-.111zm-22.783-6.072a.952.952 0 1 1 .002-1.9.952.952 0 0 1-.002 1.9zm14.389 0c-.524 0-.951-.427-.951-.951s.427-.951.951-.951.951.427.951.951-.426.951-.951.951z"/></g><g opacity=".5" fill="#FFF"><path d="M386.294-112.472c0 .707-.431 1.23-1.17 1.23-.615 0-1.077-.524-1.077-1.23 0-.678.492-1.232 1.139-1.232.677 0 1.108.554 1.108 1.232zm-1.703 36.998v-28.301h1.16v28.301h-1.16zM424.337-95.638c0 14.268-7.921 20.754-16.592 20.754-8.857 0-16.03-7.015-16.03-20.165 0-13.502 7.422-20.754 16.654-20.754 9.043-.001 15.968 7.134 15.968 20.165zm-31.447.295c0 10.819 5.244 19.224 14.91 19.224 9.733 0 15.315-8.664 15.315-19.347 0-9.908-4.474-18.949-14.68-18.949-10.206-.001-15.545 8.513-15.545 19.072zM428.594-78.541c1.946 1.298 5.306 2.551 8.194 2.551 5.483 0 10.361-3.836 10.361-9.482 0-5.239-3.249-7.974-8.764-10.322-4.937-2.103-9.375-4.384-9.375-9.985 0-5.837 4.598-9.965 10.848-9.965 3.361 0 5.896.944 7.077 1.769l-.47 1.018c-1.002-.707-3.711-1.607-6.658-1.607-6.605 0-9.483 4.991-9.483 8.665 0 5.076 3.934 6.772 9.005 9.189 5.896 2.89 9.02 5.437 9.02 10.979 0 5.955-4.245 10.79-11.792 10.79-3.126 0-6.722-1.061-8.49-2.417l.527-1.183z"/></g></svg>