<svg xmlns="http://www.w3.org/2000/svg" width="1411.482" height="738.433" viewBox="0 0 1411.482 738.433"><g opacity=".5"><path fill="#FFF" d="M39.329 38.312h8.836c2.594.022 4.474.77 5.638 2.242 1.166 1.472 1.55 3.484 1.154 6.034a11.544 11.544 0 0 1-1.022 3.428 10.208 10.208 0 0 1-2.11 3.034c-1.1 1.142-2.274 1.868-3.528 2.176s-2.55.462-3.89.462H40.45l-1.252 6.264h-4.584l4.715-23.64m3.857 3.758l-1.978 9.892c.132.022.264.034.396.034h.462c2.11.022 3.868-.186 5.276-.626 1.406-.462 2.352-2.066 2.836-4.814.396-2.308 0-3.638-1.188-3.99-1.166-.352-2.626-.516-4.386-.494a9.587 9.587 0 0 1-.758.034h-.692l.032-.036m16.993-10.056h4.55l-1.286 6.298h4.088c2.242.044 3.912.506 5.012 1.386 1.122.878 1.452 2.55.99 5.012l-2.21 10.98h-4.616l2.11-10.486c.22-1.1.154-1.88-.198-2.34-.352-.462-1.11-.692-2.276-.692l-3.66-.032-2.704 13.552h-4.55l4.75-23.678m18.238 6.298h8.836c2.594.022 4.474.77 5.638 2.242 1.166 1.472 1.55 3.484 1.154 6.034a11.544 11.544 0 0 1-1.022 3.428 10.159 10.159 0 0 1-2.11 3.034c-1.098 1.142-2.274 1.868-3.528 2.176-1.254.308-2.55.462-3.89.462h-3.956l-1.252 6.264h-4.584l4.714-23.64m3.858 3.758l-1.978 9.892c.132.022.264.034.396.034h.462c2.11.022 3.868-.186 5.276-.626 1.406-.462 2.352-2.066 2.834-4.814.396-2.308 0-3.638-1.186-3.99-1.166-.352-2.626-.516-4.386-.494a9.587 9.587 0 0 1-.758.034h-.692l.032-.036M488.627 231.4h8.836c2.594.022 4.475.77 5.638 2.242 1.166 1.472 1.551 3.484 1.154 6.034a11.542 11.542 0 0 1-1.021 3.428 10.208 10.208 0 0 1-2.11 3.034c-1.1 1.142-2.274 1.868-3.528 2.176s-2.55.462-3.89.462h-3.956l-1.252 6.264h-4.584l4.713-23.64m3.858 3.76l-1.979 9.892c.132.022.265.034.396.034h.462c2.109.022 3.868-.186 5.275-.626 1.406-.462 2.353-2.066 2.836-4.814.396-2.308 0-3.638-1.188-3.99-1.166-.352-2.626-.516-4.386-.494a9.612 9.612 0 0 1-.759.034h-.691l.034-.036m16.99-10.056h4.551l-1.286 6.298h4.088c2.242.044 3.912.506 5.012 1.386 1.122.878 1.452 2.55.99 5.012l-2.21 10.98h-4.616l2.11-10.486c.22-1.1.153-1.88-.198-2.34-.353-.462-1.11-.692-2.276-.692l-3.66-.032-2.703 13.552h-4.551l4.749-23.678m18.24 6.296h8.836c2.594.022 4.475.77 5.639 2.242 1.166 1.472 1.55 3.484 1.153 6.034a11.542 11.542 0 0 1-1.021 3.428 10.177 10.177 0 0 1-2.11 3.034c-1.098 1.142-2.273 1.868-3.528 2.176-1.254.308-2.55.462-3.89.462h-3.956l-1.252 6.264H523l4.715-23.64m3.857 3.76l-1.979 9.892c.132.022.264.034.396.034h.462c2.109.022 3.868-.186 5.275-.626 1.406-.462 2.353-2.066 2.834-4.814.396-2.308 0-3.638-1.186-3.99-1.166-.352-2.626-.516-4.386-.494a9.587 9.587 0 0 1-.758.034h-.692l.034-.036M171.627 413.4h8.836c2.594.023 4.474.77 5.638 2.242 1.166 1.473 1.55 3.484 1.154 6.033a11.514 11.514 0 0 1-1.022 3.428 10.182 10.182 0 0 1-2.11 3.035c-1.1 1.143-2.274 1.867-3.528 2.176-1.254.309-2.55.463-3.89.463h-3.956l-1.252 6.264h-4.584l4.714-23.641m3.858 3.76l-1.978 9.891c.132.021.264.033.396.033h.462c2.11.023 3.868-.186 5.276-.625 1.406-.463 2.352-2.066 2.836-4.814.396-2.309 0-3.639-1.188-3.99-1.166-.352-2.626-.516-4.386-.494-.252.021-.505.033-.758.035h-.692l.032-.036m16.99-10.057h4.55l-1.286 6.297h4.088c2.242.045 3.912.506 5.012 1.387 1.122.877 1.452 2.549.99 5.01l-2.21 10.98h-4.616l2.11-10.486c.22-1.098.154-1.881-.198-2.34-.352-.463-1.11-.695-2.276-.695l-3.66-.031-2.704 13.553h-4.55l4.75-23.675m18.24 6.297h8.836c2.594.023 4.474.77 5.638 2.242 1.166 1.473 1.55 3.484 1.154 6.033a11.514 11.514 0 0 1-1.022 3.428 10.138 10.138 0 0 1-2.11 3.035c-1.098 1.143-2.274 1.867-3.528 2.176s-2.55.463-3.89.463h-3.956l-1.252 6.264H206l4.715-23.641m3.857 3.76l-1.979 9.891c.132.021.264.033.396.033h.462c2.11.023 3.868-.186 5.276-.625 1.406-.463 2.352-2.066 2.834-4.814.396-2.309 0-3.639-1.186-3.99-1.166-.352-2.626-.516-4.386-.494-.252.021-.505.033-.758.035h-.692l.033-.036M349.627 591.4h8.836c2.594.023 4.474.77 5.638 2.242 1.166 1.473 1.55 3.484 1.154 6.033a11.514 11.514 0 0 1-1.022 3.428 10.182 10.182 0 0 1-2.11 3.035c-1.1 1.143-2.274 1.867-3.528 2.176-1.254.309-2.55.463-3.89.463h-3.956l-1.252 6.264h-4.584l4.714-23.641m3.858 3.76l-1.978 9.891c.132.021.264.033.396.033h.462c2.11.021 3.868-.186 5.276-.625 1.406-.463 2.352-2.066 2.836-4.814.396-2.309 0-3.639-1.188-3.99-1.166-.352-2.626-.516-4.386-.494-.252.021-.505.033-.758.035h-.692l.032-.036m16.99-10.057h4.55l-1.286 6.297h4.088c2.242.045 3.912.506 5.012 1.387 1.122.877 1.452 2.549.99 5.01l-2.21 10.98h-4.616l2.11-10.486c.22-1.098.154-1.881-.198-2.34-.352-.463-1.11-.695-2.276-.695l-3.66-.031-2.704 13.553h-4.55l4.75-23.675m18.24 6.297h8.836c2.594.023 4.475.77 5.639 2.242 1.166 1.473 1.55 3.484 1.153 6.033a11.542 11.542 0 0 1-1.021 3.428 10.156 10.156 0 0 1-2.11 3.035c-1.098 1.143-2.273 1.867-3.528 2.176-1.254.309-2.55.463-3.89.463h-3.956l-1.252 6.264H384l4.715-23.641m3.857 3.76l-1.979 9.891c.132.021.264.033.396.033h.462c2.11.021 3.868-.186 5.276-.625 1.405-.463 2.352-2.066 2.834-4.814.396-2.309 0-3.639-1.187-3.99-1.166-.352-2.626-.516-4.386-.494-.252.021-.505.033-.758.035h-.692l.034-.036M749.627 394.4h8.836c2.594.021 4.472.77 5.638 2.242s1.551 3.484 1.154 6.033a11.6 11.6 0 0 1-1.021 3.428 10.2 10.2 0 0 1-2.11 3.035c-1.1 1.143-2.276 1.867-3.528 2.176s-2.55.463-3.89.463h-3.956l-1.254 6.264h-4.582l4.713-23.641m3.858 3.76l-1.979 9.893c.132.021.264.033.396.033h.46c2.109.023 3.87-.186 5.275-.625 1.406-.463 2.353-2.066 2.836-4.814.395-2.309 0-3.639-1.188-3.99-1.166-.352-2.626-.516-4.384-.494-.252.021-.505.033-.759.035h-.691l.034-.038m16.99-10.057h4.551l-1.286 6.299h4.088c2.242.045 3.912.506 5.012 1.387 1.122.877 1.452 2.549.99 5.012l-2.21 10.98h-4.616l2.11-10.486c.22-1.1.153-1.881-.198-2.34-.353-.463-1.11-.693-2.276-.693l-3.66-.031-2.703 13.553h-4.551l4.749-23.681m18.24 6.297h8.836c2.594.021 4.475.77 5.639 2.242s1.548 3.484 1.153 6.033a11.516 11.516 0 0 1-1.023 3.428 10.156 10.156 0 0 1-2.11 3.035c-1.1 1.143-2.275 1.867-3.528 2.176-1.254.309-2.55.463-3.89.463h-3.958l-1.252 6.264h-4.584l4.717-23.641m3.858 3.76l-1.979 9.893c.132.021.265.033.396.033h.46c2.109.023 3.87-.186 5.275-.625 1.408-.463 2.353-2.066 2.836-4.814.395-2.309 0-3.639-1.188-3.99-1.164-.352-2.626-.516-4.384-.494-.252.021-.505.033-.758.035h-.694l.036-.038M665.627 119.4h8.836c2.594.022 4.472.77 5.638 2.242s1.551 3.484 1.154 6.034a11.61 11.61 0 0 1-1.021 3.428 10.208 10.208 0 0 1-2.11 3.034c-1.1 1.142-2.276 1.868-3.528 2.176s-2.55.462-3.89.462h-3.956l-1.254 6.264h-4.582l4.713-23.64m3.858 3.76l-1.979 9.892c.132.022.264.034.396.034h.46c2.109.022 3.87-.186 5.275-.626 1.406-.462 2.353-2.066 2.836-4.814.395-2.308 0-3.638-1.188-3.99-1.166-.353-2.626-.516-4.384-.494a9.591 9.591 0 0 1-.759.034h-.691l.034-.036m16.99-10.056h4.551l-1.286 6.298h4.088c2.242.044 3.912.506 5.012 1.386 1.122.878 1.452 2.55.99 5.012l-2.21 10.98h-4.616l2.11-10.486c.22-1.1.153-1.88-.198-2.34-.353-.462-1.11-.692-2.276-.692l-3.66-.032-2.703 13.552h-4.551l4.749-23.678m18.24 6.296h8.836c2.594.022 4.475.77 5.639 2.242s1.548 3.484 1.153 6.034a11.516 11.516 0 0 1-1.023 3.428 10.177 10.177 0 0 1-2.11 3.034c-1.1 1.142-2.276 1.868-3.528 2.176-1.254.308-2.55.462-3.89.462h-3.958l-1.252 6.264h-4.584l4.717-23.64m3.858 3.76l-1.979 9.892c.132.022.265.034.396.034h.46c2.109.022 3.87-.186 5.275-.626 1.408-.462 2.353-2.066 2.836-4.814.395-2.308 0-3.638-1.188-3.99-1.164-.353-2.626-.516-4.384-.494a9.587 9.587 0 0 1-.758.034h-.694l.036-.036M1036.627 408.4h8.836c2.594.023 4.473.77 5.638 2.242 1.166 1.473 1.551 3.484 1.154 6.033a11.6 11.6 0 0 1-1.021 3.428 10.2 10.2 0 0 1-2.11 3.035c-1.1 1.143-2.276 1.867-3.528 2.176s-2.55.463-3.89.463h-3.956l-1.254 6.264h-4.582l4.713-23.641m3.858 3.76l-1.979 9.891c.132.021.265.033.396.033h.46c2.109.023 3.869-.186 5.275-.625 1.406-.463 2.353-2.066 2.836-4.814.395-2.309 0-3.639-1.188-3.99-1.166-.352-2.626-.516-4.384-.494-.253.021-.505.033-.759.035h-.691l.034-.036m16.99-10.057h4.551l-1.286 6.297h4.088c2.242.045 3.912.506 5.012 1.387 1.122.877 1.452 2.549.99 5.01l-2.21 10.98h-4.616l2.11-10.486c.22-1.098.154-1.881-.198-2.34-.353-.463-1.11-.695-2.276-.695l-3.66-.031-2.703 13.553h-4.551l4.749-23.675m18.24 6.297h8.836c2.594.023 4.475.77 5.639 2.242 1.163 1.473 1.548 3.484 1.153 6.033a11.516 11.516 0 0 1-1.023 3.428 10.156 10.156 0 0 1-2.11 3.035c-1.1 1.143-2.276 1.867-3.528 2.176-1.254.309-2.55.463-3.89.463h-3.958l-1.252 6.264h-4.584l4.717-23.641m3.858 3.76l-1.979 9.891c.132.021.265.033.396.033h.46c2.109.023 3.87-.186 5.275-.625 1.408-.463 2.353-2.066 2.837-4.814.394-2.309 0-3.639-1.188-3.99-1.164-.352-2.626-.516-4.384-.494-.252.021-.505.033-.758.035h-.694l.035-.036M648.627 596.4h8.836c2.594.023 4.472.77 5.638 2.242s1.551 3.484 1.154 6.033a11.6 11.6 0 0 1-1.021 3.428 10.2 10.2 0 0 1-2.11 3.035c-1.1 1.143-2.276 1.867-3.528 2.176s-2.55.463-3.89.463h-3.956l-1.254 6.264h-4.582l4.713-23.641m3.858 3.76l-1.979 9.891c.132.021.264.033.396.033h.46c2.109.021 3.87-.186 5.275-.625 1.406-.463 2.353-2.066 2.836-4.814.395-2.309 0-3.639-1.188-3.99-1.166-.352-2.626-.516-4.384-.494-.252.021-.505.033-.759.035h-.691l.034-.036m16.99-10.057h4.551l-1.286 6.297h4.088c2.242.045 3.912.506 5.012 1.387 1.122.877 1.452 2.549.99 5.01l-2.21 10.98h-4.616l2.11-10.486c.22-1.098.153-1.881-.198-2.34-.353-.463-1.11-.695-2.276-.695l-3.66-.031-2.703 13.553h-4.551l4.749-23.675m18.24 6.297h8.836c2.594.023 4.475.77 5.639 2.242s1.548 3.484 1.153 6.033a11.516 11.516 0 0 1-1.023 3.428 10.156 10.156 0 0 1-2.11 3.035c-1.1 1.143-2.276 1.867-3.528 2.176-1.254.309-2.55.463-3.89.463h-3.958l-1.252 6.264h-4.584l4.717-23.641m3.858 3.76l-1.979 9.891c.132.021.265.033.396.033h.46c2.109.021 3.87-.186 5.275-.625 1.408-.463 2.353-2.066 2.836-4.814.395-2.309 0-3.639-1.188-3.99-1.164-.352-2.626-.516-4.384-.494-.252.021-.505.033-.758.035h-.694l.036-.036M1196.627 179.4h8.836c2.594.022 4.473.77 5.638 2.242 1.166 1.472 1.551 3.484 1.154 6.034a11.61 11.61 0 0 1-1.021 3.428 10.208 10.208 0 0 1-2.11 3.034c-1.1 1.142-2.276 1.868-3.528 2.176s-2.55.462-3.89.462h-3.956l-1.254 6.264h-4.582l4.713-23.64m3.858 3.76l-1.979 9.892c.132.022.265.034.396.034h.46c2.109.022 3.869-.186 5.275-.626 1.406-.462 2.353-2.066 2.836-4.814.395-2.308 0-3.638-1.188-3.99-1.166-.352-2.626-.516-4.384-.494a9.612 9.612 0 0 1-.759.034h-.691l.034-.036m16.99-10.056h4.551l-1.286 6.298h4.088c2.242.044 3.912.506 5.012 1.386 1.122.878 1.452 2.55.99 5.012l-2.21 10.98h-4.616l2.11-10.486c.22-1.1.154-1.88-.198-2.34-.353-.462-1.11-.692-2.276-.692l-3.66-.032-2.703 13.552h-4.551l4.749-23.678m18.24 6.296h8.836c2.594.022 4.475.77 5.639 2.242 1.163 1.472 1.548 3.484 1.153 6.034a11.516 11.516 0 0 1-1.023 3.428 10.177 10.177 0 0 1-2.11 3.034c-1.1 1.142-2.276 1.868-3.528 2.176-1.254.308-2.55.462-3.89.462h-3.958l-1.252 6.264h-4.584l4.717-23.64m3.858 3.76l-1.979 9.892c.132.022.265.034.396.034h.46c2.109.022 3.87-.186 5.275-.626 1.408-.462 2.353-2.066 2.837-4.814.394-2.308 0-3.638-1.188-3.99-1.164-.352-2.626-.516-4.384-.494a9.587 9.587 0 0 1-.758.034h-.694l.035-.036M1100.627 43.4h8.836c2.594.022 4.473.77 5.638 2.242 1.166 1.472 1.551 3.484 1.154 6.034a11.61 11.61 0 0 1-1.021 3.428 10.208 10.208 0 0 1-2.11 3.034c-1.1 1.142-2.276 1.868-3.528 2.176s-2.55.462-3.89.462h-3.956l-1.254 6.264h-4.582l4.713-23.64m3.858 3.76l-1.979 9.892c.132.022.265.034.396.034h.46c2.109.022 3.869-.186 5.275-.626 1.406-.462 2.353-2.066 2.836-4.814.395-2.308 0-3.638-1.188-3.99-1.166-.352-2.626-.516-4.384-.494a9.612 9.612 0 0 1-.759.034h-.691l.034-.036m16.99-10.056h4.551l-1.286 6.298h4.088c2.242.044 3.912.506 5.012 1.386 1.122.878 1.452 2.55.99 5.012l-2.21 10.98h-4.616l2.11-10.486c.22-1.1.154-1.88-.198-2.34-.353-.462-1.11-.692-2.276-.692l-3.66-.032-2.703 13.552h-4.551l4.749-23.678m18.24 6.296h8.836c2.594.022 4.475.77 5.639 2.242 1.163 1.472 1.548 3.484 1.153 6.034a11.516 11.516 0 0 1-1.023 3.428 10.177 10.177 0 0 1-2.11 3.034c-1.1 1.142-2.276 1.868-3.528 2.176-1.254.308-2.55.462-3.89.462h-3.958l-1.252 6.264h-4.584l4.717-23.64m3.858 3.76l-1.979 9.892c.132.022.265.034.396.034h.46c2.109.022 3.87-.186 5.275-.626 1.408-.462 2.353-2.066 2.837-4.814.394-2.308 0-3.638-1.188-3.99-1.164-.352-2.626-.516-4.384-.494a9.587 9.587 0 0 1-.758.034h-.694l.035-.036M1233.627 487.4h8.836c2.594.023 4.473.77 5.638 2.242 1.166 1.473 1.551 3.484 1.154 6.033a11.6 11.6 0 0 1-1.021 3.428 10.2 10.2 0 0 1-2.11 3.035c-1.1 1.143-2.276 1.867-3.528 2.176s-2.55.463-3.89.463h-3.956l-1.254 6.264h-4.582l4.713-23.641m3.858 3.76l-1.979 9.891c.132.021.265.033.396.033h.46c2.109.023 3.869-.186 5.275-.625 1.406-.463 2.353-2.066 2.836-4.814.395-2.309 0-3.639-1.188-3.99-1.166-.352-2.626-.516-4.384-.494-.253.021-.505.033-.759.035h-.691l.034-.036m16.99-10.057h4.551l-1.286 6.297h4.088c2.242.045 3.912.506 5.012 1.387 1.122.877 1.452 2.549.99 5.01l-2.21 10.98h-4.616l2.11-10.486c.22-1.098.154-1.881-.198-2.34-.353-.463-1.11-.695-2.276-.695l-3.66-.031-2.703 13.553h-4.551l4.749-23.675m18.24 6.297h8.836c2.594.023 4.475.77 5.639 2.242 1.163 1.473 1.548 3.484 1.153 6.033a11.516 11.516 0 0 1-1.023 3.428 10.156 10.156 0 0 1-2.11 3.035c-1.1 1.143-2.276 1.867-3.528 2.176-1.254.309-2.55.463-3.89.463h-3.958l-1.252 6.264h-4.584l4.717-23.641m3.858 3.76l-1.979 9.891c.132.021.265.033.396.033h.46c2.109.023 3.87-.186 5.275-.625 1.408-.463 2.353-2.066 2.837-4.814.394-2.309 0-3.639-1.188-3.99-1.164-.352-2.626-.516-4.384-.494-.252.021-.505.033-.758.035h-.694l.035-.036M374.627 221.4h8.836c2.594.022 4.474.77 5.638 2.242 1.166 1.472 1.55 3.484 1.154 6.034a11.514 11.514 0 0 1-1.022 3.428 10.19 10.19 0 0 1-2.11 3.034c-1.1 1.142-2.274 1.868-3.528 2.176-1.254.308-2.55.462-3.89.462h-3.956l-1.252 6.264h-4.584l4.714-23.64m3.858 3.76l-1.978 9.892c.132.022.264.034.396.034h.462c2.11.022 3.868-.186 5.276-.626 1.406-.462 2.352-2.066 2.836-4.814.396-2.308 0-3.638-1.188-3.99-1.166-.352-2.626-.516-4.386-.494a9.587 9.587 0 0 1-.758.034h-.692l.032-.036m16.99-10.056h4.55l-1.286 6.298h4.088c2.242.044 3.912.506 5.012 1.386 1.122.878 1.452 2.55.99 5.012l-2.21 10.98h-4.616l2.11-10.486c.22-1.1.153-1.88-.198-2.34-.353-.462-1.11-.692-2.276-.692l-3.66-.032-2.704 13.552h-4.55l4.75-23.678m18.24 6.296h8.836c2.594.022 4.475.77 5.639 2.242 1.166 1.472 1.55 3.484 1.153 6.034a11.542 11.542 0 0 1-1.021 3.428 10.177 10.177 0 0 1-2.11 3.034c-1.098 1.142-2.273 1.868-3.528 2.176-1.254.308-2.55.462-3.89.462h-3.956l-1.252 6.264H409l4.715-23.64m3.857 3.76l-1.979 9.892c.132.022.265.034.396.034h.462c2.11.022 3.868-.186 5.276-.626 1.405-.462 2.352-2.066 2.834-4.814.396-2.308 0-3.638-1.187-3.99-1.166-.352-2.626-.516-4.386-.494a9.587 9.587 0 0 1-.758.034h-.692l.034-.036M144.627 608.4h8.836c2.594.023 4.474.77 5.638 2.242 1.166 1.473 1.55 3.484 1.154 6.033a11.514 11.514 0 0 1-1.022 3.428 10.182 10.182 0 0 1-2.11 3.035c-1.1 1.143-2.274 1.867-3.528 2.176-1.254.309-2.55.463-3.89.463h-3.956l-1.252 6.264h-4.584l4.714-23.641m3.858 3.76l-1.978 9.891c.132.021.264.033.396.033h.462c2.11.021 3.868-.186 5.276-.625 1.406-.463 2.352-2.066 2.836-4.814.396-2.309 0-3.639-1.188-3.99-1.166-.352-2.626-.516-4.386-.494-.252.021-.505.033-.758.035h-.692l.032-.036m16.99-10.057h4.55l-1.286 6.297h4.088c2.242.045 3.912.506 5.012 1.387 1.122.877 1.452 2.549.99 5.01l-2.21 10.98h-4.616l2.11-10.486c.22-1.098.154-1.881-.198-2.34-.352-.463-1.11-.695-2.276-.695l-3.66-.031-2.704 13.553h-4.55l4.75-23.675m18.24 6.297h8.836c2.594.023 4.474.77 5.638 2.242 1.166 1.473 1.55 3.484 1.154 6.033a11.514 11.514 0 0 1-1.022 3.428 10.138 10.138 0 0 1-2.11 3.035c-1.098 1.143-2.274 1.867-3.528 2.176s-2.55.463-3.89.463h-3.956l-1.252 6.264H179l4.715-23.641m3.857 3.76l-1.979 9.891c.132.021.264.033.396.033h.462c2.11.021 3.868-.186 5.276-.625 1.406-.463 2.352-2.066 2.834-4.814.396-2.309 0-3.639-1.186-3.99-1.166-.352-2.626-.516-4.386-.494-.252.021-.505.033-.758.035h-.692l.033-.036" opacity=".4"/><g opacity=".4" fill="#FFF"><path d="M224.62 267.665a.508.508 0 0 0-.252.067.51.51 0 0 0-.252.438v12.898c0 .126-.06.239-.17.303a.353.353 0 0 1-.353 0l-2.108-1.213a1.006 1.006 0 0 0-1.012 0l-8.413 4.855c-.314.18-.506.53-.506.893v9.71c0 .364.192.696.506.877l8.413 4.856c.314.182.697.182 1.012 0l8.413-4.856c.315-.181.505-.513.505-.877v-24.208c0-.37-.201-.714-.522-.894l-5.007-2.8a.485.485 0 0 0-.254-.049zm-54.117 12.12a.957.957 0 0 0-.456.119l-8.413 4.856a1.011 1.011 0 0 0-.505.877l.017 13.03c0 .183.094.35.253.439.156.094.35.094.505 0l4.99-2.866c.317-.179.516-.512.523-.876v-6.085c0-.364.19-.697.505-.877l2.124-1.231c.313-.18.699-.18 1.012 0l2.125 1.23c.314.18.505.514.505.878v6.086c0 .362.209.69.523.876l4.99 2.866c.155.094.35.094.505 0a.502.502 0 0 0 .253-.438l.017-13.031c0-.366-.19-.696-.506-.877l-8.413-4.856a.945.945 0 0 0-.456-.118h-.098v-.002zm75.597.12c-.175 0-.348.044-.505.135l-8.413 4.855c-.313.18-.506.515-.505.876v9.71c0 .366.205.696.522.877l8.345 4.754c.309.175.685.189.995.017l5.059-2.815a.498.498 0 1 0 .017-.877l-8.464-4.856a.543.543 0 0 1-.27-.455v-3.035c0-.181.113-.347.27-.438l2.63-1.517a.501.501 0 0 1 .505 0l2.63 1.517c.157.09.254.257.254.438v2.394a.5.5 0 0 0 .253.438.497.497 0 0 0 .505 0l5.04-2.933c.314-.182.507-.516.507-.877v-2.344c0-.361-.192-.695-.506-.877l-8.362-4.855a1.026 1.026 0 0 0-.507-.132zm-25.154 7.25c.044 0 .095.01.134.033l2.884 1.669a.258.258 0 0 1 .135.219v3.337a.265.265 0 0 1-.135.22l-2.884 1.669a.247.247 0 0 1-.252 0l-2.883-1.668a.264.264 0 0 1-.134-.221v-3.337c0-.091.056-.173.134-.22l2.883-1.668a.213.213 0 0 1 .118-.033z"/><path opacity=".6" d="M271.305 279.669c-.293 0-.576.06-.827.202l-7.941 4.585a1.674 1.674 0 0 0-.826 1.45v9.155c0 .594.313 1.153.826 1.45l2.074 1.197c1.008.496 1.379.489 1.838.489 1.49 0 2.343-.905 2.343-2.48v-9.035c0-.127-.111-.22-.236-.22h-.995c-.128 0-.237.093-.237.22v9.036c0 .697-.726 1.399-1.905.81l-2.157-1.264c-.077-.042-.135-.115-.135-.203v-9.155a.27.27 0 0 1 .135-.22l7.924-4.568a.237.237 0 0 1 .236 0l7.923 4.569c.08.045.13.128.135.219v9.155a.253.253 0 0 1-.118.219l-7.94 4.57a.242.242 0 0 1-.236 0l-2.041-1.214a.213.213 0 0 0-.202 0c-.562.32-.668.356-1.197.54-.13.045-.328.116.068.337l2.663 1.567c.254.147.537.219.827.219.293 0 .572-.072.825-.22l7.94-4.568c.514-.3.826-.855.826-1.45v-9.155c0-.594-.312-1.152-.825-1.45l-7.941-4.585a1.644 1.644 0 0 0-.824-.202zm-75.53.185c-.174 0-.35.044-.506.135l-8.413 4.838a1.038 1.038 0 0 0-.505.894v9.71c0 .364.19.695.505.877l8.413 4.856c.315.182.697.182 1.012 0l8.413-4.856c.314-.182.505-.513.505-.876v-9.711c0-.364-.19-.712-.505-.894l-8.413-4.838a1.01 1.01 0 0 0-.506-.135zm87.314.05v.237h.657v1.736h.27v-1.736h.675v-.236l-1.602-.001zm1.837 0v1.973h.253v-1.163c0-.048.002-.121 0-.22-.003-.1 0-.187 0-.235v-.051l.557 1.668h.269l.574-1.668c0 .105-.014.209-.017.303v1.366h.253v-1.972h-.372l-.572 1.669-.556-1.67h-.389zm-11.498 6.306c-2.26 0-3.606.963-3.606 2.562 0 1.737 1.336 2.214 3.507 2.429 2.597.254 2.798.635 2.798 1.146 0 .887-.707 1.264-2.377 1.264-2.098 0-2.56-.524-2.714-1.568-.018-.112-.104-.202-.22-.202h-1.028a.24.24 0 0 0-.235.236c0 1.336.727 2.917 4.197 2.917 2.513 0 3.962-.986 3.962-2.714 0-1.713-1.171-2.173-3.608-2.495-2.463-.326-2.697-.486-2.697-1.062 0-.476.199-1.112 2.021-1.112 1.63 0 2.23.352 2.479 1.449a.23.23 0 0 0 .219.186h1.028c.062 0 .125-.04.169-.084.043-.05.073-.103.068-.168-.16-1.895-1.421-2.784-3.963-2.784zm-27.345 2.309c-.034 0-.071 0-.101.017l-1.62.945a.195.195 0 0 0-.1.167v1.855c0 .07.04.133.1.168l1.62.928a.176.176 0 0 0 .185 0l1.618-.928a.195.195 0 0 0 .102-.168v-1.855a.194.194 0 0 0-.102-.167l-1.618-.945c-.03-.017-.05-.017-.084-.017z"/></g><g opacity=".4" fill="#FFF"><path d="M765.62 501.664a.511.511 0 0 0-.506.506v12.898a.345.345 0 0 1-.522.303l-2.107-1.213a.999.999 0 0 0-1.013 0l-8.413 4.854a1.041 1.041 0 0 0-.506.895v9.711c0 .363.19.695.506.877l8.413 4.855c.314.182.696.182 1.013 0l8.413-4.855c.313-.182.505-.514.505-.877v-24.209a1.03 1.03 0 0 0-.522-.895l-5.007-2.801a.505.505 0 0 0-.254-.049zm-54.118 12.123a.954.954 0 0 0-.455.117l-8.412 4.855c-.313.18-.506.516-.506.877l.019 13.029c0 .184.094.35.252.439a.48.48 0 0 0 .506 0l4.989-2.865a1.03 1.03 0 0 0 .523-.877v-6.086c0-.363.19-.695.505-.877l2.124-1.23a1.015 1.015 0 0 1 1.012 0l2.125 1.23c.314.182.507.514.507.877v6.086c0 .361.209.689.522.877l4.989 2.865c.155.096.35.096.505 0a.506.506 0 0 0 .254-.438l.018-13.031c0-.365-.19-.695-.507-.877l-8.413-4.855a.947.947 0 0 0-.454-.117h-.103v.001zm75.598.119c-.176 0-.348.045-.506.135l-8.412 4.854a1.016 1.016 0 0 0-.506.879v9.709c0 .365.205.695.522.879l8.345 4.754c.309.176.686.188.994.016l5.059-2.814a.495.495 0 1 0 .019-.876l-8.465-4.855a.55.55 0 0 1-.271-.455v-3.035a.52.52 0 0 1 .271-.438l2.63-1.52a.51.51 0 0 1 .507 0l2.63 1.52c.156.09.253.256.253.438v2.395c0 .182.097.348.254.438.156.094.35.094.505 0l5.04-2.932c.314-.182.507-.516.507-.877v-2.344c0-.361-.191-.695-.506-.877l-8.361-4.855a.977.977 0 0 0-.509-.139zm-25.155 7.25c.045 0 .096.01.135.033l2.884 1.668c.08.043.132.127.135.219v3.338a.261.261 0 0 1-.135.219l-2.884 1.67a.243.243 0 0 1-.252 0l-2.884-1.668a.26.26 0 0 1-.134-.221v-3.338c0-.09.056-.172.134-.219l2.884-1.67a.208.208 0 0 1 .117-.031z"/><path opacity=".6" d="M812.305 513.667c-.293 0-.576.061-.826.203l-7.94 4.586a1.67 1.67 0 0 0-.826 1.449v9.154c0 .594.312 1.152.826 1.449l2.074 1.197c1.008.496 1.379.49 1.838.49 1.489 0 2.344-.906 2.344-2.48v-9.035c0-.127-.111-.221-.236-.221h-.993c-.131 0-.237.094-.237.221v9.035c0 .697-.727 1.4-1.905.811l-2.157-1.264c-.077-.043-.136-.115-.136-.203v-9.154c0-.088.059-.176.136-.219l7.925-4.568a.23.23 0 0 1 .235 0l7.923 4.568c.076.045.137.131.137.219v9.154a.253.253 0 0 1-.118.219l-7.94 4.57a.253.253 0 0 1-.236 0l-2.039-1.215a.22.22 0 0 0-.203 0c-.562.32-.668.355-1.196.539-.13.045-.328.115.067.338l2.664 1.566c.254.146.535.221.825.221.294 0 .572-.072.826-.221l7.94-4.57a1.67 1.67 0 0 0 .824-1.447v-9.154c0-.594-.312-1.152-.823-1.449l-7.941-4.586a1.744 1.744 0 0 0-.832-.203zm-75.53.186a.99.99 0 0 0-.506.137l-8.413 4.838c-.314.18-.506.531-.506.895v9.709c0 .365.19.697.506.879l8.413 4.855c.314.182.696.182 1.013 0l8.412-4.855c.313-.182.506-.516.506-.877v-9.711c0-.363-.191-.713-.506-.895l-8.412-4.84a1.023 1.023 0 0 0-.507-.135zm87.314.051v.236h.657v1.736h.27v-1.736h.676v-.234h-1.603v-.002zm1.837 0v1.975h.254v-1.164c0-.047.002-.121 0-.219-.004-.102 0-.189 0-.236v-.051l.558 1.67h.27l.573-1.67c0 .105-.015.209-.018.303-.002.094 0 .162 0 .203v1.164h.253v-1.973h-.371l-.572 1.67-.557-1.67h-.391l.001-.002zm-11.498 6.304c-2.26 0-3.606.963-3.606 2.562 0 1.736 1.337 2.215 3.508 2.43 2.596.254 2.798.635 2.798 1.146 0 .887-.707 1.266-2.378 1.266-2.098 0-2.56-.525-2.714-1.568-.018-.113-.104-.203-.22-.203h-1.027a.241.241 0 0 0-.236.236c0 1.336.729 2.916 4.197 2.916 2.514 0 3.963-.986 3.963-2.713 0-1.715-1.172-2.176-3.606-2.496-2.465-.326-2.697-.484-2.697-1.062 0-.475.198-1.111 2.02-1.111 1.633 0 2.233.352 2.48 1.449a.23.23 0 0 0 .219.186h1.028c.062 0 .125-.039.169-.084.044-.049.073-.104.066-.168-.161-1.895-1.422-2.786-3.964-2.786zm-27.345 2.311c-.034 0-.071 0-.101.018l-1.62.943a.2.2 0 0 0-.102.17v1.854c0 .07.04.133.103.168l1.619.928a.176.176 0 0 0 .185 0l1.618-.928a.194.194 0 0 0 .102-.168v-1.854a.2.2 0 0 0-.102-.17l-1.618-.943c-.03-.018-.05-.018-.084-.018z"/></g><g opacity=".4" fill="#FFF"><path d="M869.62 190.665a.506.506 0 0 0-.505.505v12.898a.344.344 0 0 1-.522.303l-2.107-1.213a1.008 1.008 0 0 0-1.013 0l-8.413 4.855c-.313.18-.506.53-.506.893v9.71c0 .364.19.696.506.877l8.413 4.856c.314.182.696.182 1.013 0l8.413-4.856a1.01 1.01 0 0 0 .505-.877v-24.208c0-.37-.201-.714-.522-.894l-5.007-2.8a.488.488 0 0 0-.255-.049zm-54.118 12.12a.956.956 0 0 0-.455.119l-8.412 4.856a1.01 1.01 0 0 0-.506.877l.018 13.03a.5.5 0 0 0 .253.439.49.49 0 0 0 .506 0l4.989-2.866c.317-.179.516-.512.523-.876v-6.085c0-.364.19-.697.505-.877l2.124-1.231c.16-.09.328-.134.506-.134.174 0 .353.043.506.134l2.125 1.23c.314.18.506.514.506.878v6.086c0 .362.209.69.523.876l4.989 2.866c.155.094.35.094.505 0a.504.504 0 0 0 .254-.438l.018-13.031c0-.366-.19-.696-.506-.877l-8.414-4.856a.938.938 0 0 0-.455-.118h-.102v-.002zm75.598.12c-.176 0-.348.044-.506.135l-8.412 4.855c-.312.18-.506.515-.506.876v9.71c0 .366.205.696.522.877l8.345 4.754c.309.175.686.189.994.017l5.059-2.815a.515.515 0 0 0 .271-.44.498.498 0 0 0-.252-.437l-8.465-4.856a.547.547 0 0 1-.271-.455v-3.035a.52.52 0 0 1 .271-.438l2.63-1.517a.505.505 0 0 1 .507 0l2.63 1.517a.507.507 0 0 1 .253.438v2.394c0 .182.097.348.254.438.156.092.35.092.505 0l5.04-2.933c.314-.182.507-.516.507-.877v-2.344c0-.361-.191-.695-.506-.877l-8.361-4.855a1.05 1.05 0 0 0-.509-.132zm-25.155 7.25c.045 0 .096.01.135.033l2.884 1.669a.258.258 0 0 1 .135.219v3.337a.263.263 0 0 1-.135.22l-2.884 1.669a.247.247 0 0 1-.252 0l-2.884-1.668a.26.26 0 0 1-.134-.221v-3.337c0-.091.056-.173.134-.22l2.884-1.668a.218.218 0 0 1 .117-.033z"/><path opacity=".6" d="M916.305 202.669c-.293 0-.576.06-.826.202l-7.94 4.585a1.672 1.672 0 0 0-.826 1.45v9.155c0 .594.312 1.153.826 1.45l2.074 1.197c1.008.496 1.379.489 1.838.489 1.489 0 2.344-.905 2.344-2.48v-9.035c0-.127-.111-.22-.236-.22h-.993c-.131 0-.237.093-.237.22v9.036c0 .697-.727 1.399-1.905.81l-2.157-1.264c-.077-.042-.136-.115-.136-.203v-9.155c0-.087.059-.175.136-.22l7.925-4.568a.235.235 0 0 1 .235 0l7.923 4.569c.076.045.137.13.137.219v9.155a.255.255 0 0 1-.118.219l-7.94 4.57a.242.242 0 0 1-.236 0l-2.039-1.214a.215.215 0 0 0-.203 0c-.562.32-.668.356-1.196.54-.13.045-.328.116.067.337l2.664 1.567c.254.147.535.219.825.219.294 0 .572-.072.826-.22l7.94-4.568c.514-.3.824-.854.824-1.45v-9.155a1.68 1.68 0 0 0-.823-1.45l-7.941-4.585a1.698 1.698 0 0 0-.832-.202zm-75.53.185a.997.997 0 0 0-.506.135l-8.414 4.838a1.035 1.035 0 0 0-.504.894v9.71c0 .364.189.695.504.877l8.414 4.856c.314.182.696.182 1.013 0l8.412-4.856c.313-.181.506-.515.506-.876v-9.711c0-.364-.191-.712-.506-.894l-8.412-4.838a1.013 1.013 0 0 0-.507-.135zm87.314.05v.237h.657v1.736h.27v-1.736h.676v-.236h-1.603v-.001zm1.837 0v1.973h.254v-1.163c0-.048.002-.121 0-.22-.004-.1 0-.187 0-.235v-.051l.558 1.668h.27l.573-1.668c0 .105-.015.209-.018.303-.002.092 0 .162 0 .203v1.163h.253v-1.972h-.371l-.572 1.669-.557-1.67h-.39zm-11.498 6.306c-2.26 0-3.606.963-3.606 2.562 0 1.737 1.337 2.214 3.508 2.429 2.596.254 2.798.635 2.798 1.146 0 .887-.707 1.264-2.378 1.264-2.098 0-2.56-.524-2.714-1.568-.018-.112-.104-.202-.22-.202h-1.027a.24.24 0 0 0-.236.236c0 1.336.729 2.917 4.197 2.917 2.514 0 3.963-.986 3.963-2.714 0-1.713-1.172-2.173-3.606-2.495-2.465-.326-2.697-.486-2.697-1.062 0-.476.198-1.112 2.02-1.112 1.633 0 2.233.352 2.48 1.449a.23.23 0 0 0 .219.186h1.028c.062 0 .125-.04.169-.084.044-.05.073-.103.066-.168-.161-1.895-1.422-2.784-3.964-2.784zm-27.345 2.309c-.034 0-.071 0-.101.017l-1.62.945a.196.196 0 0 0-.102.167v1.855c0 .07.04.133.103.168l1.619.928a.176.176 0 0 0 .185 0l1.618-.928a.194.194 0 0 0 .102-.168v-1.855a.192.192 0 0 0-.102-.167l-1.618-.945c-.03-.017-.05-.017-.084-.017z"/></g><g opacity=".4" fill="#FFF"><path d="M269.62 96.665a.508.508 0 0 0-.252.067.51.51 0 0 0-.252.438v12.898c0 .126-.06.239-.17.303a.353.353 0 0 1-.353 0l-2.108-1.213a1.006 1.006 0 0 0-1.012 0l-8.413 4.855c-.314.18-.506.53-.506.893v9.71c0 .364.192.696.506.877l8.413 4.856c.314.182.697.182 1.012 0l8.413-4.856c.315-.181.505-.513.505-.877v-24.208c0-.37-.201-.714-.522-.894l-5.007-2.8a.485.485 0 0 0-.254-.049zm-54.117 12.12a.957.957 0 0 0-.456.119l-8.413 4.856a1.011 1.011 0 0 0-.505.877l.017 13.03c0 .183.094.35.253.439.156.094.35.094.505 0l4.99-2.866c.317-.179.516-.512.523-.876v-6.085c0-.364.19-.697.505-.877l2.124-1.231c.313-.18.699-.18 1.012 0l2.125 1.23c.314.18.505.514.505.878v6.086c0 .362.209.69.523.876l4.99 2.866c.155.094.35.094.505 0a.502.502 0 0 0 .253-.438l.017-13.031c0-.366-.19-.696-.506-.877l-8.413-4.855a.945.945 0 0 0-.456-.118h-.098v-.003zm75.597.12c-.175 0-.348.044-.505.135l-8.413 4.855c-.313.18-.506.515-.505.876v9.71c0 .366.205.696.522.877l8.345 4.754c.309.175.685.189.995.017l5.059-2.815a.498.498 0 1 0 .017-.877l-8.464-4.856a.543.543 0 0 1-.27-.455v-3.035c0-.181.113-.347.27-.438l2.63-1.517a.501.501 0 0 1 .505 0l2.63 1.517c.157.09.254.257.254.438v2.394a.5.5 0 0 0 .253.438.497.497 0 0 0 .505 0l5.04-2.933c.314-.182.507-.516.507-.877v-2.344c0-.361-.192-.695-.506-.877l-8.362-4.855a1.026 1.026 0 0 0-.507-.132zm-25.154 7.25c.044 0 .095.01.134.033l2.884 1.669a.258.258 0 0 1 .135.219v3.337a.265.265 0 0 1-.135.22l-2.884 1.669a.247.247 0 0 1-.252 0l-2.883-1.668a.264.264 0 0 1-.134-.221v-3.337c0-.091.056-.173.134-.22l2.883-1.668a.213.213 0 0 1 .118-.033z"/><path opacity=".6" d="M316.305 108.669c-.293 0-.576.06-.827.202l-7.941 4.585a1.674 1.674 0 0 0-.826 1.45v9.155c0 .594.313 1.153.826 1.45l2.074 1.197c1.008.496 1.379.489 1.838.489 1.49 0 2.343-.905 2.343-2.48v-9.035c0-.127-.111-.22-.236-.22h-.995c-.128 0-.237.093-.237.22v9.036c0 .697-.726 1.399-1.905.81l-2.157-1.264c-.077-.042-.135-.115-.135-.203v-9.155a.27.27 0 0 1 .135-.22l7.924-4.568a.237.237 0 0 1 .236 0l7.923 4.569c.08.045.13.128.135.219v9.155a.253.253 0 0 1-.118.219l-7.94 4.57a.242.242 0 0 1-.236 0l-2.041-1.214a.213.213 0 0 0-.202 0c-.562.32-.668.356-1.197.54-.13.045-.328.116.068.337l2.663 1.567c.254.147.537.219.827.219.293 0 .572-.072.825-.22l7.94-4.568c.514-.3.826-.854.826-1.45v-9.155c0-.594-.312-1.152-.825-1.45l-7.941-4.585a1.644 1.644 0 0 0-.824-.202zm-75.53.185c-.174 0-.35.044-.506.135l-8.413 4.838a1.038 1.038 0 0 0-.505.894v9.71c0 .364.19.695.505.877l8.413 4.856c.315.182.697.182 1.012 0l8.413-4.856c.314-.182.505-.513.505-.876v-9.711c0-.364-.19-.712-.505-.894l-8.413-4.838a1.01 1.01 0 0 0-.506-.135zm87.314.05v.237h.657v1.736h.27v-1.736h.675v-.236h-1.602v-.001zm1.837 0v1.973h.253v-1.163c0-.048.002-.121 0-.22-.003-.1 0-.187 0-.235v-.051l.557 1.668h.269l.574-1.668c0 .105-.014.209-.017.303v1.366h.253v-1.972h-.372l-.572 1.669-.556-1.67h-.389zm-11.498 6.306c-2.26 0-3.606.963-3.606 2.562 0 1.737 1.336 2.214 3.507 2.429 2.597.254 2.798.635 2.798 1.146 0 .887-.707 1.264-2.377 1.264-2.098 0-2.56-.524-2.714-1.568-.018-.112-.104-.202-.22-.202h-1.028a.24.24 0 0 0-.235.236c0 1.336.727 2.917 4.197 2.917 2.513 0 3.962-.986 3.962-2.714 0-1.713-1.171-2.173-3.608-2.495-2.463-.326-2.697-.486-2.697-1.062 0-.476.199-1.112 2.021-1.112 1.63 0 2.23.352 2.479 1.449a.23.23 0 0 0 .219.186h1.028c.062 0 .125-.04.169-.084.043-.05.073-.103.068-.168-.16-1.895-1.421-2.784-3.963-2.784zm-27.345 2.309c-.034 0-.071 0-.101.017l-1.62.945a.195.195 0 0 0-.1.167v1.855c0 .07.04.133.1.168l1.62.928a.176.176 0 0 0 .185 0l1.618-.928a.195.195 0 0 0 .102-.168v-1.855a.192.192 0 0 0-.102-.167l-1.618-.945c-.03-.017-.05-.017-.084-.017z"/></g><g opacity=".4" fill="#FFF"><path d="M1091.62 686.664a.511.511 0 0 0-.506.506v12.898a.345.345 0 0 1-.522.303l-2.107-1.213a.999.999 0 0 0-1.013 0l-8.412 4.854a1.04 1.04 0 0 0-.507.895v9.711c0 .363.19.695.507.877l8.412 4.855c.314.182.696.182 1.013 0l8.413-4.855c.313-.182.505-.514.505-.877v-24.209a1.03 1.03 0 0 0-.522-.895l-5.007-2.801a.505.505 0 0 0-.254-.049zm-54.118 12.123a.954.954 0 0 0-.455.117l-8.412 4.855c-.313.18-.506.516-.506.877l.018 13.029a.5.5 0 0 0 .252.439.482.482 0 0 0 .507 0l4.989-2.865c.317-.18.516-.514.523-.877v-6.086c0-.363.189-.695.505-.877l2.124-1.23a1.015 1.015 0 0 1 1.012 0l2.125 1.23c.314.182.506.514.506.877v6.086c0 .361.209.689.523.877l4.989 2.865c.154.096.35.096.505 0a.508.508 0 0 0 .254-.438l.017-13.031c0-.365-.189-.695-.506-.877l-8.413-4.855a.95.95 0 0 0-.455-.117h-.102v.001zm75.598.119c-.176 0-.348.045-.506.135l-8.412 4.854a1.016 1.016 0 0 0-.506.879v9.709c0 .365.205.695.522.879l8.345 4.754c.309.176.686.188.994.016l5.059-2.814a.495.495 0 1 0 .019-.876l-8.465-4.855a.55.55 0 0 1-.271-.455v-3.035a.52.52 0 0 1 .271-.438l2.63-1.52a.51.51 0 0 1 .507 0l2.63 1.52c.156.09.253.256.253.438v2.395c0 .182.096.348.254.438.156.094.35.094.505 0l5.04-2.932c.314-.182.507-.516.507-.877v-2.344c0-.361-.191-.695-.506-.877l-8.361-4.855a.977.977 0 0 0-.509-.139zm-25.154 7.25c.045 0 .096.01.135.033l2.884 1.668c.08.043.132.127.135.219v3.338a.261.261 0 0 1-.135.219l-2.884 1.67a.243.243 0 0 1-.252 0l-2.884-1.668a.263.263 0 0 1-.135-.221v-3.338c0-.09.057-.172.135-.219l2.884-1.67a.206.206 0 0 1 .117-.031z"/><path opacity=".6" d="M1138.305 698.667c-.293 0-.576.061-.826.203l-7.94 4.586a1.67 1.67 0 0 0-.826 1.449v9.154c0 .594.312 1.152.826 1.449l2.074 1.197c1.008.496 1.379.49 1.838.49 1.489 0 2.344-.906 2.344-2.48v-9.035c0-.127-.111-.221-.236-.221h-.993c-.131 0-.237.094-.237.221v9.035c0 .697-.727 1.4-1.905.811l-2.157-1.264c-.077-.043-.136-.115-.136-.203v-9.154c0-.088.059-.176.136-.219l7.924-4.568a.232.232 0 0 1 .236 0l7.923 4.568a.27.27 0 0 1 .136.219v9.154a.25.25 0 0 1-.118.219l-7.939 4.57a.253.253 0 0 1-.236 0l-2.04-1.215a.218.218 0 0 0-.202 0c-.562.32-.668.355-1.196.539-.13.045-.328.115.066.338l2.664 1.566a1.65 1.65 0 0 0 1.652 0l7.94-4.57a1.67 1.67 0 0 0 .824-1.447v-9.154c0-.594-.312-1.152-.824-1.449l-7.94-4.586a1.744 1.744 0 0 0-.832-.203zm-75.53.186a.99.99 0 0 0-.506.137l-8.413 4.838c-.314.18-.505.531-.505.895v9.709c0 .365.189.697.505.879l8.413 4.855c.314.182.696.182 1.013 0l8.412-4.855c.313-.182.506-.516.506-.877v-9.711c0-.363-.191-.713-.506-.895l-8.412-4.84a1.023 1.023 0 0 0-.507-.135zm87.314.051v.236h.657v1.736h.27v-1.736h.676v-.234h-1.603v-.002zm1.837 0v1.975h.254v-1.164c0-.047.002-.121 0-.219-.004-.102 0-.189 0-.236v-.051l.558 1.67h.27l.573-1.67c0 .105-.015.209-.017.303s0 .162 0 .203v1.164h.252v-1.973h-.371l-.572 1.67-.557-1.67h-.391l.001-.002zm-11.498 6.304c-2.26 0-3.606.963-3.606 2.562 0 1.736 1.337 2.215 3.508 2.43 2.596.254 2.798.635 2.798 1.146 0 .887-.707 1.266-2.378 1.266-2.099 0-2.561-.525-2.714-1.568-.019-.113-.104-.203-.221-.203h-1.026a.241.241 0 0 0-.236.236c0 1.336.729 2.916 4.197 2.916 2.514 0 3.963-.986 3.963-2.713 0-1.715-1.172-2.176-3.606-2.496-2.465-.326-2.697-.484-2.697-1.062 0-.475.197-1.111 2.02-1.111 1.632 0 2.233.352 2.48 1.449a.23.23 0 0 0 .219.186h1.028c.062 0 .125-.039.169-.084.044-.049.072-.104.066-.168-.162-1.895-1.422-2.786-3.964-2.786zm-27.345 2.311c-.034 0-.071 0-.101.018l-1.62.943a.2.2 0 0 0-.102.17v1.854c0 .07.04.133.103.168l1.619.928a.176.176 0 0 0 .185 0l1.618-.928a.197.197 0 0 0 .103-.168v-1.854a.203.203 0 0 0-.103-.17l-1.618-.943c-.03-.018-.05-.018-.084-.018z"/></g><g opacity=".4" fill="#FFF"><path d="M1301.62 294.665a.506.506 0 0 0-.505.505v12.898a.345.345 0 0 1-.522.303l-2.107-1.213a1.003 1.003 0 0 0-1.013 0l-8.412 4.854c-.314.181-.507.53-.507.894v9.71c0 .364.19.696.507.877l8.412 4.855c.314.183.696.183 1.013 0l8.413-4.855a1.01 1.01 0 0 0 .505-.877v-24.208c0-.37-.201-.714-.522-.894l-5.007-2.8a.488.488 0 0 0-.255-.049zm-54.118 12.12a.956.956 0 0 0-.455.119l-8.412 4.855a1.012 1.012 0 0 0-.506.877l.018 13.03c0 .183.095.35.252.439a.491.491 0 0 0 .507 0l4.989-2.866c.317-.18.516-.513.523-.876v-6.085c0-.364.189-.697.505-.877l2.124-1.231c.16-.09.328-.134.506-.134.174 0 .353.043.506.134l2.125 1.23c.314.18.506.514.506.878v6.086c0 .361.209.689.523.876l4.989 2.866c.155.094.35.094.505 0a.506.506 0 0 0 .254-.438l.017-13.031c0-.365-.189-.695-.506-.877l-8.413-4.855a.94.94 0 0 0-.455-.118h-.102v-.002zm75.598.12c-.176 0-.348.044-.506.135l-8.412 4.854a1.015 1.015 0 0 0-.506.877v9.71c0 .365.205.695.522.877l8.345 4.754c.309.175.686.188.994.017l5.059-2.814a.517.517 0 0 0 .271-.44.498.498 0 0 0-.252-.437l-8.465-4.856a.547.547 0 0 1-.271-.455v-3.035a.52.52 0 0 1 .271-.438l2.63-1.518a.505.505 0 0 1 .507 0l2.63 1.518a.507.507 0 0 1 .253.438v2.395c0 .182.096.348.254.438.156.092.35.092.505 0l5.04-2.933c.314-.183.507-.517.507-.877v-2.345c0-.36-.191-.694-.506-.877l-8.361-4.854a1.02 1.02 0 0 0-.509-.134zm-25.154 7.25c.045 0 .096.01.135.032l2.884 1.67a.26.26 0 0 1 .135.219v3.337a.265.265 0 0 1-.135.22l-2.884 1.669a.247.247 0 0 1-.252 0l-2.884-1.668a.263.263 0 0 1-.135-.221v-3.337c0-.091.057-.173.135-.22l2.884-1.669a.217.217 0 0 1 .117-.032z"/><path opacity=".6" d="M1348.305 306.669c-.293 0-.576.06-.826.202l-7.94 4.585a1.672 1.672 0 0 0-.826 1.45v9.154c0 .595.312 1.153.826 1.45l2.074 1.197c1.008.496 1.379.489 1.838.489 1.489 0 2.344-.905 2.344-2.48v-9.035c0-.127-.111-.22-.236-.22h-.993c-.131 0-.237.093-.237.22v9.036c0 .697-.727 1.399-1.905.811l-2.157-1.265c-.077-.042-.136-.114-.136-.203v-9.154c0-.087.059-.175.136-.221l7.924-4.567a.237.237 0 0 1 .236 0l7.923 4.569c.076.045.136.13.136.219v9.154a.255.255 0 0 1-.118.22l-7.939 4.569a.242.242 0 0 1-.236 0l-2.04-1.214a.213.213 0 0 0-.202 0c-.562.32-.668.356-1.196.54-.13.045-.328.116.066.337l2.664 1.567c.254.146.536.219.826.219.293 0 .572-.072.826-.22l7.94-4.568c.514-.3.824-.854.824-1.45v-9.154c0-.594-.312-1.152-.824-1.45l-7.94-4.585a1.7 1.7 0 0 0-.832-.202zm-75.53.185a.998.998 0 0 0-.506.136l-8.413 4.838a1.034 1.034 0 0 0-.505.894v9.71c0 .364.189.695.505.877l8.413 4.856c.314.182.696.182 1.013 0l8.412-4.856c.312-.18.506-.514.506-.876v-9.711c0-.363-.191-.712-.506-.894l-8.412-4.838a1.004 1.004 0 0 0-.507-.136zm87.314.05v.236h.657v1.736h.27v-1.736h.676v-.235l-1.603-.001zm1.837 0v1.973h.254v-1.163c0-.048.002-.121 0-.22-.004-.101 0-.188 0-.235v-.051l.558 1.668h.27l.573-1.668c0 .105-.015.209-.017.303-.002.093 0 .162 0 .203v1.163h.252v-1.972h-.371l-.572 1.669-.557-1.67h-.39zm-11.498 6.306c-2.26 0-3.606.963-3.606 2.562 0 1.736 1.337 2.214 3.508 2.429 2.596.254 2.798.635 2.798 1.146 0 .888-.707 1.265-2.378 1.265-2.099 0-2.561-.524-2.714-1.568-.019-.112-.104-.202-.221-.202h-1.026a.24.24 0 0 0-.236.236c0 1.336.729 2.917 4.197 2.917 2.514 0 3.963-.986 3.963-2.714 0-1.713-1.172-2.173-3.606-2.495-2.465-.326-2.697-.486-2.697-1.062 0-.476.197-1.111 2.02-1.111 1.632 0 2.233.352 2.48 1.448a.23.23 0 0 0 .219.187h1.028c.062 0 .125-.04.169-.084.044-.05.072-.104.066-.168-.162-1.897-1.422-2.786-3.964-2.786zm-27.345 2.309c-.034 0-.071 0-.101.018l-1.62.945a.194.194 0 0 0-.102.167v1.854c0 .07.04.133.103.168l1.619.928a.176.176 0 0 0 .185 0l1.618-.928a.195.195 0 0 0 .103-.168v-1.854a.19.19 0 0 0-.103-.167l-1.618-.945c-.03-.018-.05-.018-.084-.018z"/></g><g opacity=".4" fill="#FFF"><path d="M338.62 439.664a.509.509 0 0 0-.505.506v12.898a.346.346 0 0 1-.522.303l-2.108-1.213a.997.997 0 0 0-1.012 0l-8.413 4.854a1.039 1.039 0 0 0-.506.895v9.711c0 .363.192.695.506.877l8.413 4.855c.314.182.697.182 1.012 0l8.413-4.855c.315-.182.505-.514.505-.877v-24.209c0-.371-.2-.713-.522-.895l-5.007-2.801a.505.505 0 0 0-.254-.049zm-54.117 12.123a.958.958 0 0 0-.456.117l-8.413 4.855a1.01 1.01 0 0 0-.505.877l.017 13.029c0 .184.094.35.253.439.156.096.35.096.505 0l4.99-2.865c.317-.18.516-.514.523-.877v-6.084c0-.363.19-.695.505-.877l2.124-1.23c.313-.18.699-.18 1.012 0l2.125 1.23c.314.182.505.514.505.877v6.086c0 .361.209.689.523.877l4.99 2.865c.155.096.35.096.505 0a.505.505 0 0 0 .253-.438l.017-13.031c0-.365-.19-.695-.506-.877l-8.413-4.855a.958.958 0 0 0-.456-.117h-.098v-.001zm75.597.119c-.175 0-.348.045-.505.135l-8.413 4.854a1.013 1.013 0 0 0-.505.879v9.709c0 .365.205.695.522.879l8.345 4.754c.309.176.685.188.995.016l5.059-2.814a.513.513 0 0 0 .269-.438.495.495 0 0 0-.252-.438l-8.464-4.855a.546.546 0 0 1-.27-.455v-3.035c0-.18.113-.348.27-.438l2.63-1.52a.506.506 0 0 1 .505 0l2.63 1.52c.157.09.254.256.254.438v2.395a.498.498 0 0 0 .253.438c.156.092.35.092.505 0l5.04-2.932c.314-.184.507-.516.507-.877v-2.344c0-.361-.192-.695-.506-.877l-8.362-4.855a.947.947 0 0 0-.507-.139zm-25.154 7.25c.044 0 .095.01.134.031l2.884 1.67c.08.043.131.127.135.219v3.338a.261.261 0 0 1-.135.219l-2.884 1.67a.243.243 0 0 1-.252 0l-2.883-1.668a.264.264 0 0 1-.134-.221v-3.338c0-.09.056-.172.134-.219l2.883-1.67a.211.211 0 0 1 .118-.031z"/><path opacity=".6" d="M385.305 451.667c-.293 0-.576.061-.827.203l-7.941 4.586a1.673 1.673 0 0 0-.826 1.449v9.154c0 .594.313 1.152.826 1.449l2.074 1.197c1.008.496 1.379.49 1.838.49 1.49 0 2.343-.906 2.343-2.48v-9.035c0-.127-.111-.221-.236-.221h-.995c-.128 0-.237.094-.237.221v9.035c0 .697-.726 1.4-1.905.811l-2.157-1.264c-.077-.043-.135-.115-.135-.203v-9.154c0-.088.059-.176.135-.221l7.924-4.566a.232.232 0 0 1 .236 0l7.923 4.568c.08.045.13.127.135.219v9.154a.253.253 0 0 1-.118.219l-7.94 4.57a.253.253 0 0 1-.236 0l-2.041-1.215a.207.207 0 0 0-.202 0c-.562.32-.668.355-1.197.539-.13.045-.328.115.068.338l2.663 1.566a1.653 1.653 0 0 0 1.652 0l7.94-4.57c.514-.297.826-.854.826-1.447v-9.154c0-.596-.312-1.152-.825-1.449l-7.941-4.586a1.656 1.656 0 0 0-.824-.203zm-75.53.186a.997.997 0 0 0-.506.137l-8.413 4.838c-.314.18-.505.531-.505.895v9.709c0 .365.19.697.505.879l8.413 4.855c.315.182.697.182 1.012 0l8.413-4.855c.313-.182.506-.516.505-.877v-9.711c0-.363-.19-.713-.505-.895l-8.413-4.84a1.02 1.02 0 0 0-.506-.135zm87.314.051v.236h.657v1.736h.27v-1.736h.676v-.234h-1.603v-.002zm1.837 0v1.975h.253v-1.164c0-.047.002-.121 0-.219-.003-.102 0-.189 0-.236v-.051l.558 1.67h.269l.574-1.67c0 .105-.014.209-.017.303v1.367h.253v-1.973h-.372l-.572 1.67-.556-1.67h-.391l.001-.002zm-11.498 6.304c-2.26 0-3.606.963-3.606 2.562 0 1.736 1.336 2.215 3.507 2.43 2.597.254 2.798.635 2.798 1.146 0 .887-.707 1.266-2.377 1.266-2.098 0-2.56-.525-2.714-1.568-.018-.113-.104-.203-.22-.203h-1.028a.242.242 0 0 0-.235.236c0 1.336.727 2.916 4.197 2.916 2.513 0 3.962-.986 3.962-2.713 0-1.715-1.171-2.174-3.608-2.496-2.463-.326-2.697-.484-2.697-1.062 0-.475.199-1.111 2.021-1.111 1.63 0 2.23.352 2.479 1.449a.23.23 0 0 0 .219.186h1.028c.062 0 .125-.039.169-.084.043-.049.073-.104.068-.168-.16-1.895-1.421-2.786-3.963-2.786zm-27.345 2.311c-.034 0-.071 0-.101.018l-1.62.945a.194.194 0 0 0-.1.168v1.854c0 .07.04.133.1.168l1.62.928a.176.176 0 0 0 .185 0l1.618-.928a.196.196 0 0 0 .102-.168v-1.854a.194.194 0 0 0-.102-.168l-1.618-.945c-.03-.018-.05-.018-.084-.018z"/></g><path opacity=".4" fill="#FFF" d="M85.546 340.672H77.1l.593-7.113h-4.149l-.593 7.113H55.465l-.593-7.113h-4.149l.593 7.113H42.87l-4.742-30.822 11.854-18.967h28.451l11.854 18.967-4.741 30.822zm-9.483-40.306h-7.621l.508 3.557h-9.483l.508-3.557h-7.621l-4.742 9.483 2.371 18.968h28.451l2.371-18.968-4.742-9.483zm-4.149 22.156c-.655 0-1.186-1.976-1.186-4.41 0-2.437.531-4.41 1.186-4.41.654 0 1.185 1.975 1.185 4.41s-.531 4.41-1.185 4.41zm-14.967.368c-.654 0-1.185-1.975-1.185-4.409 0-2.436.531-4.41 1.185-4.41.655 0 1.186 1.975 1.186 4.41-.001 2.435-.531 4.409-1.186 4.409zM803.546 52.672H795.1l.594-7.113h-4.149l-.592 7.113h-17.486l-.592-7.113h-4.15l.595 7.113h-8.447L756.13 21.85l11.854-18.967h28.451l11.854 18.967-4.743 30.822zm-9.484-40.306h-7.621l.508 3.557h-9.482l.508-3.557h-7.62l-4.742 9.484 2.371 18.967h28.45l2.371-18.967-4.743-9.484zm-4.148 22.156c-.655 0-1.186-1.975-1.186-4.41 0-2.436.529-4.41 1.186-4.41.654 0 1.185 1.975 1.185 4.41 0 2.436-.531 4.41-1.185 4.41zm-14.967.368c-.654 0-1.187-1.975-1.187-4.41s.531-4.41 1.187-4.41c.654 0 1.186 1.975 1.186 4.41 0 2.436-.531 4.41-1.186 4.41zm209.599 397.781H976.1l.594-7.113h-4.149l-.592 7.113h-17.486l-.592-7.113h-4.15l.595 7.113h-8.447l-4.741-30.822 11.854-18.967h28.45l11.854 18.967-4.744 30.822zm-9.484-40.304h-7.621l.508 3.557h-9.482l.508-3.557h-7.621l-4.741 9.482 2.371 18.969h28.45l2.371-18.969-4.743-9.482zm-4.148 22.156c-.655 0-1.186-1.977-1.186-4.41 0-2.436.529-4.41 1.186-4.41.654 0 1.185 1.975 1.185 4.41s-.531 4.41-1.185 4.41zm-14.967.367c-.654 0-1.187-1.975-1.187-4.408 0-2.436.531-4.41 1.187-4.41.654 0 1.186 1.975 1.186 4.41 0 2.434-.531 4.408-1.186 4.408zM786.743 728.47h-8.446l.593-7.113h-4.148l-.592 7.113h-17.486l-.592-7.113h-4.15l.594 7.113h-8.446l-4.741-30.822 11.854-18.967h28.451l11.854 18.967-4.745 30.822zm-9.483-40.306h-7.621l.509 3.557h-9.482l.508-3.557h-7.621l-4.741 9.482 2.37 18.969h28.451l2.371-18.969-4.744-9.482zm-4.149 22.156c-.655 0-1.187-1.975-1.187-4.408 0-2.438.53-4.41 1.187-4.41.653 0 1.185 1.975 1.185 4.41 0 2.433-.53 4.408-1.185 4.408zm-14.966.367c-.653 0-1.186-1.975-1.186-4.408 0-2.436.531-4.41 1.186-4.41.655 0 1.187 1.975 1.187 4.41-.001 2.433-.533 4.408-1.187 4.408zm-178.599-49.016H571.1l.594-7.113h-4.149l-.593 7.113h-17.485l-.593-7.113h-4.149l.594 7.113h-8.446l-4.742-30.822 11.854-18.967h28.45l11.854 18.967-4.743 30.822zm-9.484-40.304h-7.621l.508 3.557h-9.483l.508-3.557h-7.62l-4.742 9.482 2.371 18.969h28.45l2.371-18.969-4.742-9.482zm-4.148 22.154c-.655 0-1.186-1.975-1.186-4.408 0-2.436.53-4.41 1.186-4.41.654 0 1.185 1.975 1.185 4.41s-.531 4.408-1.185 4.408zm-14.967.369c-.654 0-1.186-1.975-1.186-4.408 0-2.436.531-4.41 1.186-4.41s1.186 1.975 1.186 4.41c0 2.434-.531 4.408-1.186 4.408zm129.599-280.218H672.1l.594-7.113h-4.149l-.592 7.113h-17.486l-.592-7.113h-4.15l.595 7.113h-8.447l-4.742-30.822 11.854-18.967h28.45l11.854 18.967-4.743 30.822zm-9.484-40.306h-7.621l.508 3.557h-9.482l.508-3.557h-7.62l-4.742 9.483 2.371 18.968h28.45l2.371-18.968-4.743-9.483zm-4.148 22.156c-.655 0-1.186-1.976-1.186-4.41 0-2.437.529-4.41 1.186-4.41.654 0 1.185 1.975 1.185 4.41s-.531 4.41-1.185 4.41zm-14.967.368c-.654 0-1.187-1.975-1.187-4.409 0-2.436.531-4.41 1.187-4.41.654 0 1.186 1.975 1.186 4.41s-.531 4.409-1.186 4.409zm687.599 86.781h-8.446l.594-7.113h-4.149l-.592 7.113h-17.486l-.592-7.113h-4.15l.595 7.113h-8.447l-4.741-30.822 11.854-18.967h28.45l11.854 18.967-4.744 30.822zm-9.484-40.304h-7.621l.508 3.557h-9.482l.508-3.557h-7.62l-4.742 9.482 2.371 18.969h28.451l2.37-18.969-4.743-9.482zm-4.148 22.156c-.655 0-1.186-1.977-1.186-4.41 0-2.436.529-4.41 1.186-4.41.654 0 1.186 1.975 1.186 4.41s-.532 4.41-1.186 4.41zm-14.967.367c-.654 0-1.187-1.975-1.187-4.408 0-2.436.531-4.41 1.187-4.41.654 0 1.186 1.975 1.186 4.41 0 2.434-.531 4.408-1.186 4.408zm-157.401-217.218h-8.446l.594-7.113h-4.149l-.592 7.113h-17.486l-.592-7.113h-4.15l.595 7.113h-8.447l-4.741-30.822 11.854-18.967h28.45l11.854 18.967-4.744 30.822zm-9.484-40.306h-7.621l.508 3.557h-9.482l.508-3.557h-7.62l-4.742 9.484 2.371 18.967h28.451l2.37-18.967-4.743-9.484zm-4.148 22.156c-.655 0-1.186-1.975-1.186-4.41 0-2.436.529-4.41 1.186-4.41.654 0 1.186 1.975 1.186 4.41 0 2.436-.532 4.41-1.186 4.41zm-14.967.368c-.654 0-1.187-1.975-1.187-4.41s.531-4.41 1.187-4.41c.654 0 1.186 1.975 1.186 4.41 0 2.436-.531 4.41-1.186 4.41zM125.05 157.631l-.036-.037-8.014 8.015 19.458 19.423 8.014-7.978 11.444-11.445-8.015-8.014v-.036h-22.888l.037.072zm372 371.999l-.036-.035-8.014 8.014 19.458 19.422 8.014-7.979 11.444-11.443-8.015-8.016v-.035h-22.889l.038.072zm383-431.999l-.036-.037-8.014 8.015 19.458 19.423 8.015-7.978 11.443-11.445-8.014-8.014v-.036h-22.89l.038.072zm145 525.999l-.036-.035-8.014 8.016 19.458 19.422 8.015-7.979 11.443-11.443-8.014-8.016v-.037h-22.89l.038.072zm247-456.999l-.036-.037-8.014 8.014 19.458 19.423 8.015-7.979 11.443-11.445-8.014-8.014v-.036h-22.89l.038.074zm-987 527.999l-.036-.035-8.014 8.014 19.458 19.422 8.014-7.979 11.444-11.443-8.015-8.016v-.035h-22.888l.037.072zm-28-371.999l-.036-.037-8.014 8.015 19.458 19.423 8.014-7.979 11.444-11.444-8.015-8.015v-.036h-22.888l.037.073zm450-13l-.036-.037-8.014 8.015 19.458 19.423 8.015-7.979 11.443-11.444-8.014-8.015v-.036h-22.89l.038.073z"/></g><path opacity=".5" fill="#FFF" d="M517.05 66.631l-.036-.037L509 74.609l19.458 19.423 8.014-7.978 11.444-11.445-8.015-8.014v-.036h-22.889l.038.072zm494 150l-.036-.037-8.014 8.014 19.458 19.423 8.015-7.978 11.443-11.445-8.014-8.014v-.036h-22.89l.038.073z"/></svg>