<svg xmlns="http://www.w3.org/2000/svg" width="1411.482" height="738.433" viewBox="0 0 1411.482 738.433"><path opacity=".35" fill="#FFF" d="M123.15 80.797v33.524h33.524V80.797H123.15zm18.257 26.147c0 3.262-1.913 4.747-4.704 4.747-2.522 0-3.983-1.306-4.726-2.878l2.564-1.552c.495.878.945 1.621 2.028 1.621 1.035 0 1.688-.405 1.688-1.979V96.19h3.15v10.754zm7.443 4.753c-2.926 0-4.815-1.396-5.741-3.221l2.56-1.488c.676 1.103 1.554 1.914 3.108 1.914 1.305 0 2.139-.652 2.139-1.554 0-1.08-.857-1.463-2.293-2.091l-.788-.338c-2.273-.968-3.783-2.182-3.783-4.747 0-2.363 1.8-4.162 4.613-4.162 2.003 0 3.443.697 4.48 2.522l-2.453 1.575c-.54-.969-1.123-1.35-2.027-1.35-.923 0-1.507.585-1.507 1.35 0 .945.585 1.328 1.937 1.913l.787.337c2.677 1.147 4.188 2.317 4.188 4.949 0 2.837-2.228 4.391-5.22 4.391zm233.318-3.519v33.524h33.524v-33.524h-33.524zm18.257 26.148c0 3.262-1.913 4.747-4.704 4.747-2.521 0-3.983-1.306-4.726-2.878l2.564-1.552c.495.878.945 1.621 2.028 1.621 1.035 0 1.688-.405 1.688-1.979v-10.712h3.149v10.753h.001zm7.444 4.752c-2.926 0-4.815-1.395-5.741-3.221l2.56-1.488c.677 1.103 1.555 1.914 3.108 1.914 1.305 0 2.139-.652 2.139-1.554 0-1.08-.856-1.463-2.293-2.091l-.788-.338c-2.272-.968-3.782-2.182-3.782-4.747 0-2.363 1.8-4.162 4.612-4.162 2.004 0 3.443.697 4.48 2.522l-2.453 1.575c-.54-.969-1.123-1.35-2.027-1.35-.923 0-1.507.585-1.507 1.35 0 .945.585 1.328 1.938 1.913l.787.337c2.677 1.146 4.188 2.317 4.188 4.949-.001 2.837-2.23 4.391-5.221 4.391zm160.299 314.099v33.525h33.524v-33.525h-33.524zm18.257 26.149c0 3.262-1.913 4.746-4.704 4.746-2.521 0-3.982-1.307-4.726-2.877l2.563-1.553c.495.877.945 1.619 2.028 1.619 1.035 0 1.688-.404 1.688-1.979v-10.711h3.149v10.755h.002zm7.444 4.752c-2.926 0-4.815-1.395-5.741-3.221l2.56-1.488c.677 1.104 1.555 1.914 3.108 1.914 1.305 0 2.139-.652 2.139-1.555 0-1.08-.856-1.463-2.293-2.092l-.788-.338c-2.272-.969-3.782-2.182-3.782-4.746 0-2.363 1.8-4.162 4.612-4.162 2.003 0 3.443.697 4.48 2.523l-2.453 1.574c-.54-.971-1.123-1.352-2.027-1.352-.923 0-1.507.586-1.507 1.352 0 .943.585 1.328 1.938 1.914l.786.336c2.678 1.146 4.188 2.316 4.188 4.947 0 2.841-2.23 4.394-5.22 4.394zm510.299-193.9v33.524h33.524v-33.524h-33.524zm18.258 26.148c0 3.262-1.913 4.747-4.705 4.747-2.521 0-3.981-1.307-4.726-2.878l2.563-1.553c.495.879.945 1.621 2.028 1.621 1.034 0 1.688-.404 1.688-1.979v-10.712h3.149l.003 10.754zm7.443 4.752c-2.926 0-4.816-1.396-5.741-3.221l2.561-1.488c.676 1.103 1.555 1.914 3.107 1.914 1.307 0 2.141-.652 2.141-1.554 0-1.08-.857-1.464-2.294-2.092l-.788-.338c-2.273-.968-3.783-2.182-3.783-4.747 0-2.362 1.801-4.162 4.613-4.162 2.004 0 3.442.697 4.479 2.522l-2.453 1.575c-.539-.969-1.121-1.351-2.026-1.351-.922 0-1.507.585-1.507 1.351 0 .944.585 1.328 1.937 1.913l.787.337c2.678 1.146 4.188 2.316 4.188 4.949 0 2.838-2.23 4.392-5.221 4.392zm-141.701-257.9v33.524h33.524V63.178h-33.524zm18.258 26.148c0 3.262-1.913 4.747-4.705 4.747-2.521 0-3.981-1.306-4.726-2.878l2.563-1.552c.495.878.945 1.621 2.028 1.621 1.034 0 1.688-.405 1.688-1.979V78.571h3.149l.003 10.755zm7.443 4.752c-2.926 0-4.816-1.395-5.741-3.221l2.56-1.488c.677 1.103 1.556 1.914 3.108 1.914 1.306 0 2.14-.652 2.14-1.554 0-1.08-.856-1.463-2.294-2.091l-.788-.338c-2.272-.968-3.782-2.182-3.782-4.747 0-2.363 1.801-4.162 4.612-4.162 2.004 0 3.443.697 4.48 2.522l-2.453 1.575c-.539-.969-1.122-1.35-2.027-1.35-.922 0-1.507.585-1.507 1.35 0 .945.585 1.328 1.938 1.913l.786.337c2.679 1.147 4.188 2.317 4.188 4.949 0 2.837-2.23 4.391-5.22 4.391zM906.168 638.177v33.525h33.524v-33.525h-33.524zm18.258 26.149c0 3.262-1.913 4.746-4.705 4.746-2.521 0-3.981-1.307-4.726-2.877l2.563-1.553c.495.877.945 1.619 2.028 1.619 1.034 0 1.688-.404 1.688-1.979v-10.711h3.149l.003 10.755zm7.443 4.752c-2.926 0-4.816-1.395-5.741-3.221l2.56-1.488c.677 1.104 1.556 1.914 3.108 1.914 1.306 0 2.14-.652 2.14-1.555 0-1.08-.856-1.463-2.294-2.092l-.788-.338c-2.272-.969-3.782-2.182-3.782-4.746 0-2.363 1.801-4.162 4.612-4.162 2.004 0 3.443.697 4.48 2.523l-2.453 1.574c-.539-.971-1.122-1.352-2.027-1.352-.922 0-1.507.586-1.507 1.352 0 .943.585 1.328 1.938 1.914l.786.336c2.679 1.146 4.188 2.316 4.188 4.947 0 2.841-2.23 4.394-5.22 4.394zM59.168 638.177v33.525h33.524v-33.525H59.168zm18.257 26.149c0 3.262-1.913 4.746-4.704 4.746-2.522 0-3.983-1.307-4.726-2.877l2.564-1.553c.495.877.945 1.619 2.028 1.619 1.035 0 1.688-.404 1.688-1.979v-10.711h3.15v10.755zm7.444 4.752c-2.926 0-4.815-1.395-5.741-3.221l2.56-1.488c.676 1.104 1.554 1.914 3.108 1.914 1.305 0 2.139-.652 2.139-1.555 0-1.08-.857-1.463-2.293-2.092l-.788-.338c-2.273-.969-3.783-2.182-3.783-4.746 0-2.363 1.8-4.162 4.613-4.162 2.003 0 3.443.697 4.48 2.523l-2.453 1.574c-.54-.971-1.123-1.352-2.027-1.352-.923 0-1.507.586-1.507 1.352 0 .943.585 1.328 1.938 1.914l.787.336c2.677 1.146 4.188 2.316 4.188 4.947-.001 2.841-2.23 4.394-5.221 4.394zm1095.299-264.901v33.525h33.524v-33.525h-33.524zm18.258 26.149c0 3.262-1.913 4.746-4.705 4.746-2.521 0-3.981-1.307-4.726-2.877l2.563-1.553c.495.877.945 1.619 2.028 1.619 1.034 0 1.688-.404 1.688-1.979v-10.711h3.149l.003 10.755zm7.443 4.752c-2.926 0-4.816-1.395-5.741-3.221l2.561-1.488c.676 1.104 1.555 1.914 3.107 1.914 1.307 0 2.141-.652 2.141-1.555 0-1.08-.857-1.463-2.294-2.092l-.788-.338c-2.273-.969-3.783-2.182-3.783-4.746 0-2.363 1.801-4.162 4.613-4.162 2.004 0 3.442.697 4.479 2.523l-2.453 1.574c-.539-.971-1.121-1.352-2.026-1.352-.922 0-1.507.586-1.507 1.352 0 .943.585 1.328 1.937 1.914l.787.336c2.678 1.146 4.188 2.316 4.188 4.947 0 2.841-2.23 4.394-5.221 4.394zm-425.701-334.9v33.524h33.524v-33.524h-33.524zm18.258 26.148c0 3.262-1.913 4.747-4.705 4.747-2.521 0-3.981-1.306-4.726-2.878l2.563-1.552c.495.878.945 1.621 2.028 1.621 1.034 0 1.688-.405 1.688-1.979v-10.712h3.149l.003 10.753zm7.443 4.752c-2.926 0-4.816-1.395-5.741-3.221l2.56-1.488c.677 1.103 1.556 1.914 3.108 1.914 1.306 0 2.14-.652 2.14-1.554 0-1.08-.856-1.463-2.294-2.091l-.788-.338c-2.272-.968-3.782-2.182-3.782-4.747 0-2.363 1.801-4.162 4.612-4.162 2.004 0 3.443.697 4.48 2.522l-2.453 1.575c-.539-.969-1.122-1.35-2.027-1.35-.922 0-1.507.585-1.507 1.35 0 .945.585 1.328 1.938 1.913l.786.337c2.679 1.147 4.188 2.317 4.188 4.949 0 2.837-2.23 4.391-5.22 4.391z"/><g opacity=".35" fill="#FFF"><path opacity=".6" d="M511.795 371.144h1.77v1.748h1.617v-1.748h1.771v5.293h-1.77v-1.771h-1.618v1.771h-1.77v-5.293zm7.482 1.756h-1.558v-1.756h4.886v1.756h-1.559v3.537h-1.77V372.9zm4.103-1.756h1.845l1.135 1.861 1.134-1.861h1.845v5.293h-1.762v-2.623l-1.217 1.883h-.03l-1.218-1.883v2.623h-1.731v-5.293h-.001zm6.839 0h1.77v3.543h2.487v1.75h-4.257v-5.293z"/><path d="M509.208 378.859l2.53 28.383 11.355 3.152 11.388-3.158 2.532-28.377h-27.805zm22.528 6.734l-.159 1.766-.069.783h-13.322l.319 3.564h12.687l-.086.936-.816 9.164-.053.588-7.125 1.977-.017.004-7.13-1.979-.488-5.465h3.495l.248 2.775 3.877 1.047h.003l3.884-1.049.403-4.514h-12.064l-.856-9.594-.083-.934h17.438l-.086.931z"/></g><g opacity=".35" fill="#FFF"><path opacity=".6" d="M385.795 62.145h1.769v1.748h1.618v-1.748h1.77v5.293h-1.769v-1.772h-1.619v1.772h-1.769v-5.293zm7.482 1.755h-1.557v-1.755h4.886V63.9h-1.559v3.538h-1.77V63.9zm4.103-1.755h1.845l1.135 1.86 1.134-1.86h1.845v5.293h-1.762v-2.624l-1.217 1.882h-.03l-1.218-1.882v2.624h-1.731v-5.293zm6.839 0h1.77v3.543h2.487v1.75h-4.257v-5.293z"/><path d="M383.208 69.858l2.53 28.384 11.355 3.152 11.387-3.157 2.533-28.379h-27.805zm22.528 6.736l-.159 1.765-.069.783h-13.322l.319 3.565h12.687l-.085.935-.817 9.165-.053.588-7.125 1.975-.017.004-7.13-1.979-.488-5.465h3.495l.248 2.776 3.877 1.047.003-.001 3.884-1.048.403-4.515h-12.064l-.856-9.593-.083-.934h17.438l-.086.932z"/></g><g opacity=".35" fill="#FFF"><path opacity=".6" d="M931.795 487.144h1.77v1.748h1.617v-1.748h1.771v5.293h-1.769v-1.771h-1.618v1.771h-1.771v-5.293zm7.482 1.756h-1.558v-1.756h4.886v1.756h-1.56v3.537h-1.771V488.9h.003zm4.104-1.756h1.844l1.136 1.861 1.134-1.861h1.845v5.293h-1.762v-2.621l-1.218 1.881h-.029l-1.219-1.881v2.621h-1.729l-.002-5.293zm6.838 0h1.771v3.543h2.487v1.75h-4.258v-5.293z"/><path d="M929.207 494.857l2.531 28.385 11.354 3.152 11.388-3.158 2.532-28.379h-27.805zm22.529 6.736l-.159 1.766-.069.781h-13.322l.318 3.566h12.688l-.086.934-.817 9.166-.053.588-7.124 1.975v.002l-.018.004-7.13-1.98-.488-5.465h3.494l.248 2.775 3.877 1.047h.003l3.883-1.049.404-4.514H935.32l-.855-9.596-.083-.934h17.438l-.084.934z"/></g><g opacity=".35" fill="#FFF"><path opacity=".6" d="M1277.795 591.144h1.771v1.748h1.616v-1.748h1.771v5.295h-1.77v-1.773h-1.618v1.773h-1.77v-5.295zm7.482 1.756h-1.558v-1.756h4.886v1.756h-1.56v3.537h-1.77l.002-3.537zm4.104-1.756h1.844l1.136 1.861 1.134-1.861h1.845v5.295h-1.762v-2.623l-1.217 1.881h-.03l-1.218-1.881v2.623h-1.73l-.002-5.295zm6.838 0h1.771v3.545h2.487v1.75h-4.258v-5.295z"/><path d="M1275.207 598.857l2.531 28.385 11.354 3.152 11.388-3.158 2.532-28.379h-27.805zm22.529 6.736l-.159 1.766-.069.781h-13.322l.318 3.566h12.688l-.086.934-.817 9.166-.053.588-7.124 1.975v.002l-.018.004-7.13-1.98-.488-5.465h3.494l.248 2.775 3.877 1.047h.003l3.884-1.049.403-4.516h-12.064l-.855-9.594-.083-.934h17.438l-.085.934z"/></g><g opacity=".35" fill="#FFF"><path opacity=".6" d="M1269.795 55.145h1.771v1.748h1.616v-1.748h1.771v5.293h-1.77v-1.772h-1.618v1.772h-1.77v-5.293zm7.482 1.755h-1.558v-1.755h4.886V56.9h-1.56v3.538h-1.77l.002-3.538zm4.104-1.755h1.844l1.136 1.86 1.134-1.86h1.845v5.293h-1.762v-2.624l-1.217 1.882h-.03l-1.218-1.882v2.624h-1.73l-.002-5.293zm6.838 0h1.771v3.543h2.487v1.75h-4.258v-5.293z"/><path d="M1267.207 62.858l2.531 28.384 11.354 3.152 11.388-3.157 2.532-28.379h-27.805zm22.529 6.736l-.159 1.765-.069.783h-13.322l.318 3.565h12.688l-.086.935-.817 9.165-.053.588-7.124 1.975-.018.004-7.13-1.979-.488-5.465h3.494l.248 2.776 3.877 1.047.003-.001 3.884-1.048.403-4.515h-12.064l-.855-9.593-.083-.934h17.438l-.085.932z"/></g><g opacity=".35" fill="#FFF"><path opacity=".6" d="M844.795 307.145h1.77v1.748h1.617v-1.748h1.771v5.293h-1.769v-1.771h-1.618v1.771h-1.771v-5.293zm7.482 1.755h-1.558v-1.756h4.886v1.756h-1.56v3.537h-1.771V308.9h.003zm4.104-1.755h1.844l1.136 1.86 1.134-1.86h1.845v5.293h-1.762v-2.623l-1.218 1.882h-.029l-1.219-1.882v2.623h-1.729l-.002-5.293zm6.838 0h1.771v3.543h2.487v1.75h-4.258v-5.293z"/><path d="M842.207 314.858l2.531 28.384 11.354 3.151 11.388-3.156 2.532-28.379h-27.805zm22.529 6.736l-.159 1.766-.069.782h-13.322l.318 3.565h12.688l-.086.935-.817 9.165-.053.588-7.124 1.976-.018.004-7.13-1.979-.488-5.465h3.494l.248 2.776 3.877 1.047.003-.001 3.883-1.048.404-4.515H848.32l-.855-9.594-.083-.934h17.438l-.084.932z"/></g><g opacity=".35" fill="#FFF"><path opacity=".6" d="M101.795 504.144h1.769v1.748h1.618v-1.748h1.77v5.293h-1.769v-1.771h-1.619v1.771h-1.769v-5.293zm7.482 1.756h-1.557v-1.756h4.885v1.756h-1.558v3.537h-1.77V505.9zm4.103-1.756h1.845l1.134 1.861 1.134-1.861h1.845v5.293h-1.762v-2.621l-1.217 1.881h-.03l-1.218-1.881v2.621h-1.731v-5.293zm6.839 0h1.769v3.543h2.488v1.75h-4.257v-5.293z"/><path d="M99.208 511.857l2.53 28.385 11.356 3.152 11.387-3.158 2.533-28.379H99.208zm22.528 6.736l-.159 1.766-.069.781h-13.322l.319 3.566h12.686l-.085.934-.817 9.166-.053.588-7.125 1.975v.002l-.016.004-7.13-1.98-.488-5.465h3.495l.248 2.775 3.877 1.047h.003l3.883-1.049.404-4.516h-12.065l-.856-9.594-.083-.934h17.437l-.084.934z"/></g><g opacity=".35" fill="#FFF"><path opacity=".6" d="M44.795 149.145h1.769v1.748h1.618v-1.748h1.77v5.293h-1.769v-1.772h-1.619v1.772h-1.769v-5.293zm7.482 1.755H50.72v-1.755h4.885v1.755h-1.558v3.538h-1.77V150.9zm4.103-1.755h1.845l1.134 1.86 1.134-1.86h1.845v5.293h-1.762v-2.624l-1.217 1.882h-.03l-1.218-1.882v2.624H56.38v-5.293zm6.839 0h1.769v3.543h2.488v1.75h-4.257v-5.293z"/><path d="M42.208 156.858l2.53 28.384 11.356 3.152 11.387-3.157 2.533-28.379H42.208zm22.528 6.736l-.159 1.765-.069.783H51.186l.319 3.565h12.686l-.085.935-.817 9.165-.053.588-7.125 1.975-.016.004-7.13-1.979-.488-5.465h3.495l.248 2.776 3.877 1.047.003-.001 3.883-1.048.404-4.515H48.322l-.856-9.593-.083-.934H64.82l-.084.932z"/></g><path fill="#FFF" d="M679.298 188.812a2.515 2.515 0 0 0-2.513 2.514v9.518c0 1.386 1.127 2.513 2.513 2.513s2.514-1.127 2.514-2.513v-9.518a2.516 2.516 0 0 0-2.514-2.514zm-26.649 0a2.516 2.516 0 0 0-2.514 2.514v9.518a2.516 2.516 0 0 0 2.514 2.513 2.516 2.516 0 0 0 2.514-2.513v-9.518a2.516 2.516 0 0 0-2.514-2.514zm3.136 15.39a2.463 2.463 0 0 0 2.463 2.463h1.405v5.039c0 1.386 1.128 2.513 2.514 2.513s2.513-1.127 2.513-2.513v-5.039h2.588v5.039a2.514 2.514 0 0 0 5.028 0v-5.039h1.405a2.465 2.465 0 0 0 2.464-2.463v-14.998h-20.378l-.002 14.998zm20.378-15.563c0-3.442-2.003-6.451-4.991-8.09l1.609-2.904a.555.555 0 0 0-.951-.569c-.006.011-.013.021-.018.033l-1.642 2.959a10.875 10.875 0 0 0-4.198-.833 10.87 10.87 0 0 0-4.197.833l-1.642-2.959a.556.556 0 1 0-.969.536l1.61 2.904c-2.989 1.639-4.991 4.648-4.991 8.09l.001.072-.001.04v.106h20.378v-.106l-.001-.04.003-.072zm-14.892-3.97a.621.621 0 1 1-.001-1.243.621.621 0 0 1 .001 1.243zm9.406 0a.624.624 0 0 1-.047-1.245h.049a.624.624 0 0 1 .598.648.626.626 0 0 1-.6.597zm431.621 360.143a2.516 2.516 0 0 0-2.513 2.514v9.518c0 1.385 1.127 2.514 2.513 2.514s2.515-1.129 2.515-2.514v-9.518a2.517 2.517 0 0 0-2.515-2.514zm-26.649 0a2.517 2.517 0 0 0-2.514 2.514v9.518a2.517 2.517 0 0 0 2.514 2.514 2.518 2.518 0 0 0 2.514-2.514v-9.518a2.516 2.516 0 0 0-2.514-2.514zm3.136 15.391a2.464 2.464 0 0 0 2.463 2.463h1.405v5.039c0 1.385 1.128 2.512 2.514 2.512s2.513-1.127 2.513-2.512v-5.039h2.588v5.039a2.513 2.513 0 1 0 5.028 0v-5.039h1.405a2.465 2.465 0 0 0 2.464-2.463v-14.998h-20.378l-.002 14.998zm20.378-15.565c0-3.439-2.003-6.451-4.991-8.09l1.609-2.904a.554.554 0 0 0-.969-.535l-1.642 2.959a10.821 10.821 0 0 0-4.198-.834 10.87 10.87 0 0 0-4.197.834l-1.642-2.959a.554.554 0 0 0-.969.535l1.61 2.904c-2.989 1.639-4.991 4.648-4.991 8.09l.001.072-.001.039v.107h20.378v-.107l-.001-.039a.815.815 0 0 0 .003-.072zm-14.892-3.969a.621.621 0 1 1-.003-1.243.621.621 0 0 1 .003 1.243zm9.406 0a.621.621 0 1 1-.047-1.244.623.623 0 0 1 .047 1.244zm247.621-454.857a2.515 2.515 0 0 0-2.513 2.514v9.518c0 1.386 1.127 2.513 2.513 2.513s2.515-1.127 2.515-2.513v-9.518a2.517 2.517 0 0 0-2.515-2.514zm-26.649 0a2.516 2.516 0 0 0-2.514 2.514v9.518a2.516 2.516 0 0 0 2.514 2.513 2.516 2.516 0 0 0 2.514-2.513v-9.518a2.516 2.516 0 0 0-2.514-2.514zm3.136 15.39a2.463 2.463 0 0 0 2.463 2.463h1.405v5.039c0 1.386 1.128 2.513 2.514 2.513s2.513-1.127 2.513-2.513v-5.039h2.588v5.039a2.514 2.514 0 0 0 5.028 0v-5.039h1.405a2.465 2.465 0 0 0 2.464-2.463V86.205h-20.378l-.002 14.997zm20.378-15.563c0-3.442-2.003-6.451-4.991-8.09l1.609-2.904a.555.555 0 0 0-.951-.569c-.006.011-.013.021-.018.033l-1.642 2.959a10.875 10.875 0 0 0-4.198-.833 10.87 10.87 0 0 0-4.197.833l-1.642-2.959a.556.556 0 1 0-.969.536l1.61 2.904c-2.989 1.639-4.991 4.648-4.991 8.09l.001.072-.001.04v.106h20.378v-.107l-.001-.04.003-.071zm-14.892-3.97a.621.621 0 1 1-.001-1.243.621.621 0 0 1 .001 1.243zm9.406 0a.623.623 0 0 1-.048-1.245h.05a.624.624 0 0 1 .598.648.626.626 0 0 1-.6.597zM430.298 297.812a2.515 2.515 0 0 0-2.513 2.514v9.518a2.516 2.516 0 0 0 2.513 2.514 2.518 2.518 0 0 0 2.515-2.514v-9.518a2.517 2.517 0 0 0-2.515-2.514zm-26.649 0a2.516 2.516 0 0 0-2.514 2.514v9.518a2.516 2.516 0 0 0 2.514 2.514 2.517 2.517 0 0 0 2.514-2.514v-9.518a2.516 2.516 0 0 0-2.514-2.514zm3.136 15.39a2.463 2.463 0 0 0 2.463 2.463h1.405v5.039c0 1.386 1.128 2.513 2.514 2.513s2.513-1.127 2.513-2.513v-5.039h2.587v5.039a2.514 2.514 0 0 0 5.027 0v-5.039h1.406a2.463 2.463 0 0 0 2.463-2.463v-14.998h-20.378v14.998zm20.378-15.563c0-3.442-2.003-6.451-4.992-8.09l1.61-2.904a.556.556 0 0 0-.969-.536l-1.642 2.959a10.875 10.875 0 0 0-4.198-.833 10.87 10.87 0 0 0-4.197.833l-1.641-2.959a.555.555 0 0 0-.753-.217.555.555 0 0 0-.216.753l1.61 2.904c-2.989 1.639-4.992 4.648-4.992 8.09l.001.072-.001.04v.106h20.378v-.106l-.001-.04.003-.072zm-14.892-3.97a.624.624 0 0 1-.046-1.245h.047a.623.623 0 0 1-.001 1.245zm9.406 0a.623.623 0 1 1-.047-1.245h.048a.624.624 0 0 1-.001 1.245zM89.298 386.812a2.516 2.516 0 0 0-2.513 2.514v9.518a2.515 2.515 0 0 0 2.513 2.514 2.516 2.516 0 0 0 2.514-2.514v-9.518a2.517 2.517 0 0 0-2.514-2.514zm-26.649 0a2.516 2.516 0 0 0-2.513 2.514v9.518a2.516 2.516 0 0 0 2.513 2.514 2.516 2.516 0 0 0 2.514-2.514v-9.518a2.517 2.517 0 0 0-2.514-2.514zm3.136 15.391a2.464 2.464 0 0 0 2.463 2.463h1.405v5.039a2.516 2.516 0 0 0 2.514 2.512 2.515 2.515 0 0 0 2.513-2.512v-5.039h2.587v5.039a2.513 2.513 0 0 0 5.026 0v-5.039H83.7a2.464 2.464 0 0 0 2.463-2.463v-14.998H65.785v14.998zm20.378-15.565c0-3.441-2.003-6.449-4.992-8.09l1.61-2.904a.556.556 0 1 0-.97-.535l-1.641 2.959a10.856 10.856 0 0 0-4.198-.832c-1.496 0-2.917.297-4.198.832l-1.64-2.959a.554.554 0 0 0-.969.535l1.61 2.904c-2.989 1.639-4.992 4.648-4.992 8.09l.001.072-.001.041v.105h20.378v-.105l-.001-.041a.815.815 0 0 0 .003-.072zm-14.892-3.969a.624.624 0 0 1-.051-1.246h.052a.623.623 0 1 1-.001 1.246zm9.406 0a.624.624 0 0 1-.051-1.246h.052a.624.624 0 1 1-.001 1.246zm233.621 128.143a2.516 2.516 0 0 0-2.513 2.514v9.518a2.515 2.515 0 0 0 2.513 2.514 2.516 2.516 0 0 0 2.514-2.514v-9.518a2.516 2.516 0 0 0-2.514-2.514zm-26.649 0a2.516 2.516 0 0 0-2.513 2.514v9.518a2.516 2.516 0 0 0 2.513 2.514 2.517 2.517 0 0 0 2.514-2.514v-9.518a2.516 2.516 0 0 0-2.514-2.514zm3.136 15.391a2.464 2.464 0 0 0 2.463 2.463h1.405v5.039a2.516 2.516 0 0 0 2.514 2.512 2.515 2.515 0 0 0 2.513-2.512v-5.039h2.587v5.039a2.513 2.513 0 0 0 5.026 0v-5.039h1.406a2.464 2.464 0 0 0 2.463-2.463v-14.998h-20.378l.001 14.998zm20.378-15.565c0-3.439-2.003-6.449-4.992-8.09l1.61-2.904a.557.557 0 0 0-.485-.822.551.551 0 0 0-.485.287l-1.641 2.959a10.821 10.821 0 0 0-4.198-.834c-1.496 0-2.917.299-4.198.834l-1.64-2.959a.554.554 0 1 0-.969.536l1.61 2.904c-2.989 1.641-4.992 4.648-4.992 8.09l.001.072-.001.039v.107h20.378v-.107l-.001-.039a.855.855 0 0 0 .003-.073zm-14.892-3.969a.622.622 0 1 1-.05-1.243.622.622 0 0 1 .05 1.243zm9.406 0a.623.623 0 1 1-.05-1.244.623.623 0 0 1 .05 1.244zm859.884 116.409c0 .461-.28.805-.764.805-.402 0-.705-.344-.705-.805 0-.443.322-.807.745-.807.442 0 .724.363.724.807zm-1.114 24.183v-18.5h.759v18.5h-.759zm25.981-13.179c0 9.324-5.178 13.564-10.846 13.564-5.789 0-10.479-4.586-10.479-13.182 0-8.824 4.853-13.564 10.887-13.564 5.91 0 10.438 4.662 10.438 13.182zm-20.555.191c0 7.072 3.428 12.564 9.745 12.564 6.362 0 10.011-5.662 10.011-12.645 0-6.479-2.924-12.389-9.596-12.389s-10.16 5.568-10.16 12.47zm23.337 10.982c1.272.85 3.468 1.668 5.356 1.668 3.584 0 6.771-2.508 6.771-6.199 0-3.424-2.123-5.211-5.729-6.744-3.227-1.375-6.127-2.865-6.127-6.527 0-3.814 3.007-6.514 7.091-6.514 2.196 0 3.854.615 4.626 1.156l-.309.664c-.654-.461-2.426-1.051-4.352-1.051-4.317 0-6.198 3.262-6.198 5.664 0 3.318 2.571 4.426 5.886 6.006 3.854 1.889 5.896 3.555 5.896 7.176 0 3.895-2.775 7.055-7.708 7.055-2.044 0-4.395-.693-5.55-1.58l.347-.774zM957.561 276.078c0 .461-.28.804-.764.804-.402 0-.705-.343-.705-.804 0-.443.322-.806.745-.806.442 0 .724.363.724.806zm-1.114 24.183v-18.499h.759v18.499h-.759zm25.981-13.18c0 9.325-5.178 13.565-10.846 13.565-5.789 0-10.479-4.586-10.479-13.181 0-8.825 4.853-13.565 10.887-13.565 5.91 0 10.438 4.663 10.438 13.181zm-20.555.192c0 7.072 3.428 12.565 9.745 12.565 6.362 0 10.011-5.663 10.011-12.646 0-6.477-2.924-12.387-9.596-12.387s-10.16 5.566-10.16 12.468zm23.337 10.983c1.272.849 3.468 1.668 5.356 1.668 3.584 0 6.771-2.508 6.771-6.199 0-3.424-2.123-5.211-5.729-6.746-3.228-1.375-6.128-2.865-6.128-6.527 0-3.814 3.007-6.513 7.091-6.513 2.196 0 3.854.616 4.626 1.156l-.309.665c-.653-.462-2.426-1.051-4.352-1.051-4.317 0-6.198 3.262-6.198 5.664 0 3.317 2.571 4.426 5.886 6.006 3.854 1.889 5.896 3.554 5.896 7.176 0 3.893-2.775 7.053-7.708 7.053-2.044 0-4.394-.693-5.55-1.58l.348-.772zm-417.649 31.822c0 .461-.28.804-.764.804-.402 0-.705-.343-.705-.804 0-.443.322-.806.745-.806.442 0 .724.363.724.806zm-1.114 24.183v-18.499h.759v18.499h-.759zm25.981-13.18c0 9.325-5.178 13.565-10.846 13.565-5.789 0-10.479-4.587-10.479-13.182 0-8.825 4.853-13.564 10.887-13.564 5.91 0 10.438 4.662 10.438 13.181zm-20.555.192c0 7.071 3.428 12.564 9.745 12.564 6.362 0 10.011-5.663 10.011-12.646 0-6.478-2.924-12.388-9.596-12.388s-10.16 5.568-10.16 12.47zm23.337 10.983c1.272.85 3.468 1.668 5.356 1.668 3.584 0 6.771-2.508 6.771-6.199 0-3.424-2.123-5.211-5.729-6.746-3.228-1.375-6.127-2.864-6.127-6.526 0-3.814 3.006-6.513 7.09-6.513 2.196 0 3.854.615 4.626 1.155l-.309.665c-.653-.462-2.426-1.051-4.352-1.051-4.317 0-6.198 3.262-6.198 5.664 0 3.317 2.571 4.426 5.886 6.006 3.854 1.889 5.896 3.554 5.896 7.176 0 3.894-2.775 7.054-7.708 7.054-2.044 0-4.394-.693-5.55-1.58l.348-.773zM251.561 187.078c0 .461-.281.804-.764.804-.402 0-.705-.343-.705-.804 0-.443.322-.806.745-.806.442 0 .724.363.724.806zm-1.114 24.183v-18.499h.759v18.499h-.759zm25.981-13.18c0 9.325-5.178 13.565-10.846 13.565-5.789 0-10.478-4.586-10.478-13.181 0-8.825 4.852-13.565 10.886-13.565 5.91 0 10.438 4.663 10.438 13.181zm-20.555.192c0 7.072 3.428 12.565 9.745 12.565 6.362 0 10.011-5.663 10.011-12.646 0-6.477-2.924-12.387-9.596-12.387-6.672 0-10.16 5.566-10.16 12.468zm23.337 10.983c1.272.849 3.468 1.668 5.356 1.668 3.584 0 6.771-2.508 6.771-6.199 0-3.424-2.123-5.211-5.729-6.746-3.227-1.375-6.127-2.865-6.127-6.527 0-3.814 3.006-6.513 7.09-6.513 2.197 0 3.854.616 4.626 1.156l-.308.665c-.654-.462-2.426-1.051-4.352-1.051-4.317 0-6.198 3.262-6.198 5.664 0 3.317 2.571 4.426 5.886 6.006 3.854 1.889 5.896 3.554 5.896 7.176 0 3.893-2.775 7.053-7.708 7.053-2.044 0-4.394-.693-5.55-1.58l.347-.772zm-59.649 439.822c0 .461-.281.805-.764.805-.402 0-.705-.344-.705-.805 0-.443.322-.807.745-.807.442 0 .724.363.724.807zm-1.114 24.183v-18.5h.759v18.5h-.759zm25.981-13.179c0 9.324-5.178 13.564-10.846 13.564-5.789 0-10.478-4.586-10.478-13.182 0-8.824 4.852-13.564 10.886-13.564 5.91 0 10.438 4.662 10.438 13.182zm-20.555.191c0 7.072 3.428 12.564 9.745 12.564 6.362 0 10.011-5.662 10.011-12.645 0-6.479-2.924-12.389-9.596-12.389-6.672.001-10.16 5.568-10.16 12.47zm23.337 10.982c1.272.85 3.468 1.668 5.356 1.668 3.584 0 6.771-2.508 6.771-6.199 0-3.424-2.123-5.211-5.729-6.744-3.227-1.375-6.127-2.865-6.127-6.527 0-3.814 3.006-6.514 7.09-6.514 2.197 0 3.854.615 4.626 1.156l-.308.664c-.654-.461-2.426-1.051-4.352-1.051-4.317 0-6.198 3.262-6.198 5.664 0 3.318 2.571 4.426 5.886 6.006 3.854 1.889 5.896 3.555 5.896 7.176 0 3.895-2.775 7.055-7.708 7.055-2.044 0-4.394-.693-5.55-1.58l.347-.774zM886.561 36.078c0 .461-.28.804-.764.804-.402 0-.705-.343-.705-.804 0-.443.322-.806.745-.806.442 0 .724.363.724.806zm-1.114 24.183V41.762h.759v18.499h-.759zm25.981-13.18c0 9.325-5.178 13.565-10.846 13.565-5.789 0-10.479-4.586-10.479-13.181 0-8.825 4.853-13.565 10.887-13.565 5.91 0 10.438 4.663 10.438 13.181zm-20.555.192c0 7.072 3.428 12.565 9.745 12.565 6.362 0 10.011-5.663 10.011-12.646 0-6.477-2.924-12.387-9.596-12.387s-10.16 5.566-10.16 12.468zm23.337 10.983c1.272.849 3.468 1.668 5.356 1.668 3.584 0 6.771-2.508 6.771-6.199 0-3.424-2.123-5.211-5.729-6.746-3.228-1.375-6.128-2.865-6.128-6.527 0-3.814 3.007-6.513 7.091-6.513 2.196 0 3.854.616 4.626 1.156l-.309.665c-.653-.462-2.426-1.051-4.352-1.051-4.317 0-6.198 3.262-6.198 5.664 0 3.317 2.571 4.426 5.886 6.006 3.854 1.889 5.896 3.554 5.896 7.176 0 3.893-2.775 7.053-7.708 7.053-2.044 0-4.394-.693-5.55-1.58l.348-.772zM311.561 31.078c0 .461-.281.804-.764.804-.402 0-.705-.343-.705-.804 0-.443.322-.806.745-.806.442 0 .724.363.724.806zm-1.114 24.183V36.762h.759v18.499h-.759zm25.981-13.18c0 9.325-5.178 13.565-10.846 13.565-5.789 0-10.478-4.586-10.478-13.181 0-8.825 4.852-13.565 10.886-13.565 5.91 0 10.438 4.663 10.438 13.181zm-20.555.192c0 7.072 3.428 12.565 9.745 12.565 6.362 0 10.011-5.663 10.011-12.646 0-6.477-2.924-12.387-9.596-12.387-6.672 0-10.16 5.566-10.16 12.468zm23.337 10.983c1.272.849 3.468 1.668 5.356 1.668 3.584 0 6.771-2.508 6.771-6.199 0-3.424-2.123-5.211-5.729-6.746-3.227-1.375-6.127-2.865-6.127-6.527 0-3.814 3.006-6.513 7.09-6.513 2.197 0 3.854.616 4.626 1.156l-.308.665c-.654-.462-2.426-1.051-4.352-1.051-4.317 0-6.198 3.262-6.198 5.664 0 3.317 2.571 4.426 5.886 6.006 3.854 1.889 5.896 3.554 5.896 7.176 0 3.893-2.775 7.053-7.708 7.053-2.044 0-4.394-.693-5.55-1.58l.347-.772zm532.351 387.822c0 .461-.28.805-.764.805-.402 0-.705-.344-.705-.805 0-.443.322-.805.745-.805.442 0 .724.361.724.805zm-1.114 24.183v-18.5h.759v18.5h-.759zm25.981-13.179c0 9.324-5.178 13.564-10.846 13.564-5.789 0-10.479-4.586-10.479-13.182 0-8.824 4.853-13.564 10.887-13.564 5.91 0 10.438 4.662 10.438 13.182zm-20.555.191c0 7.072 3.428 12.564 9.745 12.564 6.362 0 10.011-5.662 10.011-12.645 0-6.479-2.924-12.389-9.596-12.389s-10.16 5.568-10.16 12.47zm23.337 10.982c1.272.85 3.468 1.668 5.356 1.668 3.584 0 6.771-2.508 6.771-6.199 0-3.424-2.123-5.211-5.729-6.746-3.228-1.375-6.128-2.863-6.128-6.525 0-3.814 3.007-6.514 7.091-6.514 2.196 0 3.854.615 4.626 1.156l-.309.664c-.653-.461-2.426-1.051-4.352-1.051-4.317 0-6.198 3.262-6.198 5.664 0 3.318 2.571 4.426 5.886 6.006 3.854 1.889 5.896 3.555 5.896 7.176 0 3.895-2.775 7.055-7.708 7.055-2.044 0-4.394-.693-5.55-1.58l.348-.774zM496.561 694.078c0 .461-.28.805-.764.805-.402 0-.705-.344-.705-.805 0-.443.322-.807.745-.807.442 0 .724.363.724.807zm-1.114 24.183v-18.5h.759v18.5h-.759zm25.981-13.179c0 9.324-5.178 13.564-10.846 13.564-5.789 0-10.479-4.586-10.479-13.182 0-8.824 4.853-13.564 10.887-13.564 5.91 0 10.438 4.662 10.438 13.182zm-20.555.191c0 7.072 3.428 12.564 9.745 12.564 6.362 0 10.011-5.662 10.011-12.645 0-6.479-2.924-12.389-9.596-12.389s-10.16 5.568-10.16 12.47zm23.337 10.982c1.272.85 3.468 1.668 5.356 1.668 3.584 0 6.771-2.508 6.771-6.199 0-3.424-2.123-5.211-5.729-6.744-3.228-1.375-6.127-2.865-6.127-6.527 0-3.814 3.006-6.514 7.09-6.514 2.196 0 3.854.615 4.626 1.156l-.309.664c-.653-.461-2.426-1.051-4.352-1.051-4.317 0-6.198 3.262-6.198 5.664 0 3.318 2.571 4.426 5.886 6.006 3.854 1.889 5.896 3.555 5.896 7.176 0 3.895-2.775 7.055-7.708 7.055-2.044 0-4.394-.693-5.55-1.58l.348-.774z" opacity=".35"/></svg>