<?xml version="1.0" encoding="utf-8"?>
<!-- Generator: Adobe Illustrator 23.1.0, SVG Export Plug-In . SVG Version: 6.00 Build 0)  -->
<svg version="1.0" id="Layer_1" xmlns="http://www.w3.org/2000/svg" xmlns:xlink="http://www.w3.org/1999/xlink" x="0px" y="0px"
	 viewBox="0 0 1411.482 738.433" enable-background="new 0 0 1411.482 738.433" xml:space="preserve">
<path opacity="0.35" fill="#FFFFFF" enable-background="new    " d="M123.15,80.797v33.524h33.524V80.797H123.15z M141.407,106.944
	c0,3.262-1.913,4.747-4.704,4.747c-2.522,0-3.983-1.306-4.726-2.878l2.564-1.552c0.495,0.879,0.945,1.621,2.028,1.621
	c1.035,0,1.688-0.405,1.688-1.979V96.19h3.15V106.944z M148.85,111.697c-2.926,0-4.815-1.396-5.741-3.221l2.56-1.488
	c0.676,1.103,1.554,1.914,3.108,1.914c1.305,0,2.139-0.652,2.139-1.554c0-1.08-0.857-1.463-2.293-2.091l-0.788-0.338
	c-2.273-0.968-3.783-2.182-3.783-4.747c0-2.363,1.8-4.162,4.613-4.162c2.003,0,3.443,0.697,4.48,2.522l-2.453,1.575
	c-0.54-0.969-1.123-1.35-2.027-1.35c-0.923,0-1.507,0.585-1.507,1.35c0,0.945,0.585,1.328,1.937,1.913l0.787,0.337
	c2.677,1.147,4.188,2.317,4.188,4.949C154.07,110.143,151.842,111.697,148.85,111.697z"/>
<path opacity="0.35" fill="#FFFFFF" enable-background="new    " d="M382.168,108.178v33.524h33.524v-33.524H382.168z
	 M400.425,134.326c0,3.262-1.913,4.747-4.704,4.747c-2.52,0-3.983-1.306-4.726-2.878l2.564-1.552
	c0.495,0.878,0.945,1.621,2.028,1.621c1.035,0,1.688-0.405,1.688-1.979v-10.712h3.148v10.753H400.425z M407.869,139.078
	c-2.926,0-4.815-1.395-5.741-3.221l2.56-1.488c0.678,1.103,1.556,1.914,3.108,1.914c1.305,0,2.139-0.652,2.139-1.554
	c0-1.08-0.855-1.463-2.293-2.091l-0.788-0.338c-2.272-0.968-3.781-2.182-3.781-4.747c0-2.363,1.8-4.162,4.611-4.162
	c2.004,0,3.443,0.697,4.48,2.522l-2.453,1.575c-0.54-0.969-1.123-1.35-2.027-1.35c-0.923,0-1.507,0.585-1.507,1.35
	c0,0.945,0.585,1.328,1.939,1.913l0.787,0.337c2.677,1.146,4.188,2.317,4.188,4.949C413.089,137.524,410.86,139.078,407.869,139.078
	z M568.168,453.177v33.525h33.524v-33.525H568.168z M586.425,479.326c0,3.262-1.913,4.746-4.704,4.746
	c-2.521,0-3.982-1.307-4.726-2.877l2.562-1.553c0.495,0.877,0.945,1.619,2.028,1.619c1.035,0,1.689-0.404,1.689-1.979v-10.711h3.148
	v10.754H586.425z M593.869,484.078c-2.926,0-4.815-1.395-5.741-3.221l2.56-1.488c0.678,1.104,1.556,1.914,3.108,1.914
	c1.305,0,2.139-0.652,2.139-1.555c0-1.08-0.855-1.463-2.293-2.092l-0.788-0.338c-2.272-0.969-3.781-2.182-3.781-4.746
	c0-2.363,1.8-4.162,4.611-4.162c2.003,0,3.443,0.697,4.481,2.523l-2.453,1.574c-0.54-0.973-1.123-1.354-2.027-1.354
	c-0.923,0-1.507,0.586-1.507,1.354c0,0.941,0.585,1.328,1.939,1.914l0.785,0.336c2.679,1.144,4.188,2.314,4.188,4.945
	C599.089,482.525,596.859,484.078,593.869,484.078L593.869,484.078z M1104.168,290.178v33.524h33.524v-33.524H1104.168z
	 M1122.426,316.326c0,3.262-1.913,4.747-4.705,4.747c-2.521,0-3.98-1.308-4.726-2.878l2.563-1.554
	c0.494,0.88,0.944,1.621,2.027,1.621c1.034,0,1.688-0.403,1.688-1.979v-10.712h3.148L1122.426,316.326L1122.426,316.326z
	 M1129.869,321.078c-2.926,0-4.816-1.397-5.741-3.221l2.562-1.488c0.676,1.103,1.555,1.914,3.106,1.914
	c1.308,0,2.142-0.652,2.142-1.555c0-1.079-0.857-1.464-2.294-2.092l-0.788-0.338c-2.273-0.968-3.783-2.182-3.783-4.747
	c0-2.361,1.801-4.162,4.613-4.162c2.004,0,3.441,0.697,4.479,2.522l-2.453,1.575c-0.539-0.97-1.121-1.352-2.025-1.352
	c-0.922,0-1.507,0.585-1.507,1.352c0,0.943,0.585,1.328,1.937,1.913l0.787,0.337c2.678,1.146,4.188,2.315,4.188,4.948
	C1135.09,319.524,1132.86,321.078,1129.869,321.078L1129.869,321.078z M988.168,63.178v33.524h33.524V63.178H988.168z
	 M1006.426,89.326c0,3.262-1.913,4.747-4.705,4.747c-2.521,0-3.98-1.306-4.726-2.878l2.562-1.552
	c0.495,0.878,0.945,1.621,2.028,1.621c1.034,0,1.688-0.405,1.688-1.979V78.571h3.149L1006.426,89.326L1006.426,89.326z
	 M1013.869,94.078c-2.926,0-4.816-1.395-5.741-3.221l2.56-1.488c0.678,1.103,1.557,1.914,3.108,1.914c1.306,0,2.14-0.652,2.14-1.554
	c0-1.08-0.855-1.463-2.294-2.091l-0.788-0.338c-2.272-0.968-3.781-2.182-3.781-4.747c0-2.363,1.801-4.162,4.611-4.162
	c2.004,0,3.443,0.697,4.48,2.522l-2.453,1.575c-0.539-0.969-1.122-1.35-2.027-1.35c-0.922,0-1.507,0.585-1.507,1.35
	c0,0.945,0.585,1.328,1.939,1.913l0.785,0.337c2.68,1.147,4.188,2.317,4.188,4.949C1019.089,92.524,1016.859,94.078,1013.869,94.078
	L1013.869,94.078z M906.168,638.177v33.525h33.524v-33.525H906.168z M924.426,664.326c0,3.262-1.913,4.746-4.705,4.746
	c-2.521,0-3.98-1.307-4.726-2.877l2.562-1.553c0.495,0.877,0.945,1.619,2.028,1.619c1.034,0,1.688-0.404,1.688-1.979v-10.711h3.149
	L924.426,664.326L924.426,664.326z M931.869,669.078c-2.926,0-4.816-1.395-5.741-3.221l2.56-1.488
	c0.678,1.104,1.557,1.914,3.108,1.914c1.306,0,2.14-0.652,2.14-1.555c0-1.08-0.855-1.463-2.294-2.092l-0.788-0.338
	c-2.272-0.969-3.781-2.182-3.781-4.746c0-2.363,1.801-4.162,4.611-4.162c2.004,0,3.443,0.697,4.48,2.523l-2.453,1.574
	c-0.539-0.973-1.122-1.353-2.027-1.353c-0.922,0-1.507,0.586-1.507,1.353c0,0.941,0.585,1.328,1.939,1.914l0.785,0.336
	c2.68,1.145,4.188,2.314,4.188,4.945C937.089,667.525,934.859,669.078,931.869,669.078L931.869,669.078z M59.168,638.177v33.525
	h33.524v-33.525H59.168z M77.425,664.326c0,3.262-1.913,4.746-4.704,4.746c-2.522,0-3.983-1.307-4.726-2.877l2.564-1.553
	c0.495,0.877,0.945,1.619,2.028,1.619c1.035,0,1.688-0.404,1.688-1.979v-10.711h3.15V664.326L77.425,664.326z M84.869,669.078
	c-2.926,0-4.815-1.395-5.741-3.221l2.56-1.488c0.676,1.104,1.554,1.914,3.108,1.914c1.305,0,2.139-0.652,2.139-1.555
	c0-1.08-0.857-1.463-2.293-2.092l-0.788-0.338c-2.273-0.969-3.783-2.182-3.783-4.746c0-2.363,1.8-4.162,4.613-4.162
	c2.003,0,3.443,0.697,4.48,2.523l-2.453,1.574c-0.54-0.973-1.123-1.353-2.027-1.353c-0.923,0-1.507,0.586-1.507,1.353
	c0,0.941,0.586,1.328,1.938,1.914l0.787,0.336c2.677,1.145,4.188,2.314,4.188,4.945C90.089,667.525,87.86,669.078,84.869,669.078
	L84.869,669.078z M1180.168,404.177v33.525h33.524v-33.525H1180.168z M1198.426,430.326c0,3.262-1.913,4.746-4.705,4.746
	c-2.521,0-3.98-1.307-4.726-2.877l2.563-1.553c0.494,0.877,0.944,1.619,2.027,1.619c1.034,0,1.688-0.404,1.688-1.979v-10.711h3.148
	L1198.426,430.326L1198.426,430.326z M1205.869,435.078c-2.926,0-4.816-1.395-5.741-3.221l2.562-1.488
	c0.676,1.104,1.555,1.914,3.106,1.914c1.308,0,2.142-0.652,2.142-1.555c0-1.08-0.857-1.463-2.294-2.092l-0.788-0.338
	c-2.273-0.969-3.783-2.182-3.783-4.746c0-2.363,1.801-4.162,4.613-4.162c2.004,0,3.441,0.697,4.479,2.523l-2.453,1.574
	c-0.539-0.973-1.121-1.354-2.025-1.354c-0.922,0-1.507,0.586-1.507,1.354c0,0.941,0.585,1.328,1.937,1.914l0.787,0.336
	c2.678,1.144,4.188,2.314,4.188,4.945C1211.09,433.525,1208.86,435.078,1205.869,435.078L1205.869,435.078z M780.168,100.178v33.524
	h33.524v-33.524H780.168z M798.426,126.326c0,3.262-1.913,4.747-4.705,4.747c-2.521,0-3.98-1.306-4.726-2.878l2.562-1.552
	c0.495,0.878,0.945,1.621,2.028,1.621c1.034,0,1.688-0.405,1.688-1.979v-10.712h3.149L798.426,126.326L798.426,126.326z
	 M805.869,131.078c-2.926,0-4.816-1.395-5.741-3.221l2.56-1.488c0.678,1.103,1.557,1.914,3.108,1.914c1.306,0,2.14-0.652,2.14-1.554
	c0-1.08-0.855-1.463-2.294-2.091l-0.788-0.338c-2.272-0.968-3.781-2.182-3.781-4.747c0-2.363,1.801-4.162,4.611-4.162
	c2.004,0,3.443,0.697,4.48,2.522l-2.453,1.575c-0.539-0.969-1.122-1.35-2.027-1.35c-0.922,0-1.507,0.585-1.507,1.35
	c0,0.945,0.585,1.328,1.939,1.913l0.785,0.337c2.68,1.147,4.188,2.317,4.188,4.949C811.089,129.524,808.859,131.078,805.869,131.078
	L805.869,131.078z"/>
<g opacity="0.35">
	<path opacity="0.6" fill="#FFFFFF" enable-background="new    " d="M511.795,371.144h1.771v1.748h1.616v-1.748h1.772v5.293h-1.771
		v-1.771h-1.617v1.771h-1.771V371.144z M519.277,372.9h-1.559v-1.756h4.887v1.756h-1.56v3.537h-1.769L519.277,372.9L519.277,372.9z
		 M523.38,371.144h1.845l1.136,1.861l1.134-1.861h1.845v5.293h-1.762v-2.623l-1.217,1.883h-0.03l-1.218-1.883v2.623h-1.732
		L523.38,371.144L523.38,371.144z M530.219,371.144h1.771v3.543h2.486v1.75h-4.257V371.144L530.219,371.144z"/>
	<path fill="#FFFFFF" d="M509.208,378.859l2.53,28.383l11.354,3.152l11.389-3.158l2.531-28.377H509.208L509.208,378.859z
		 M531.736,385.593l-0.159,1.766l-0.069,0.783h-13.322l0.319,3.564h12.688l-0.086,0.936l-0.816,9.164l-0.053,0.588l-7.125,1.977l0,0
		l-0.018,0.004l-7.13-1.978l-0.488-5.465h3.495l0.248,2.775l3.877,1.047h0.003l3.885-1.049l0.402-4.516h-12.064l-0.856-9.594
		l-0.083-0.934h17.439L531.736,385.593L531.736,385.593z"/>
</g>
<g opacity="0.35">
	<path opacity="0.6" fill="#FFFFFF" enable-background="new    " d="M385.795,62.145h1.769v1.748h1.618v-1.748h1.77v5.293h-1.769
		v-1.772h-1.619v1.772h-1.769V62.145z M393.277,63.9h-1.557v-1.755h4.886V63.9h-1.559v3.538h-1.77V63.9z M397.38,62.145h1.845
		l1.136,1.86l1.134-1.86h1.845v5.293h-1.762v-2.624l-1.217,1.882h-0.03l-1.218-1.882v2.624h-1.732L397.38,62.145L397.38,62.145z
		 M404.219,62.145h1.771v3.543h2.486v1.75h-4.257V62.145z"/>
	<path fill="#FFFFFF" d="M383.208,69.858l2.53,28.384l11.354,3.152l11.388-3.157l2.532-28.379H383.208z M405.736,76.594
		l-0.159,1.765l-0.069,0.783h-13.322l0.319,3.565h12.688l-0.085,0.935l-0.817,9.165l-0.053,0.588l-7.125,1.975l-0.018,0.004
		l-7.13-1.979l-0.488-5.465h3.495l0.247,2.776l3.877,1.047l0.003-0.001l3.885-1.048l0.402-4.515h-12.063l-0.856-9.593l-0.083-0.934
		h17.439L405.736,76.594L405.736,76.594z"/>
</g>
<g opacity="0.35">
	<path opacity="0.6" fill="#FFFFFF" enable-background="new    " d="M931.795,487.144h1.77v1.748h1.617v-1.748h1.771v5.293h-1.769
		v-1.771h-1.617v1.771h-1.772V487.144L931.795,487.144z M939.277,488.9h-1.559v-1.756h4.887v1.756h-1.561v3.537h-1.771V488.9
		H939.277L939.277,488.9z M943.381,487.144h1.844l1.137,1.861l1.134-1.861h1.845v5.293h-1.762v-2.621l-1.219,1.881h-0.028
		l-1.22-1.881v2.621h-1.728L943.381,487.144L943.381,487.144z M950.219,487.144h1.772v3.543h2.486v1.75h-4.258V487.144z"/>
	<path fill="#FFFFFF" d="M929.207,494.857l2.531,28.385l11.354,3.152l11.389-3.158l2.531-28.379H929.207L929.207,494.857z
		 M951.736,501.593l-0.159,1.766l-0.069,0.781h-13.322l0.318,3.566h12.688l-0.087,0.934l-0.816,9.166l-0.053,0.588l-7.124,1.975
		v0.002l-0.019,0.004l-7.13-1.98l-0.487-5.465h3.493l0.248,2.775l3.877,1.047h0.003l3.883-1.049l0.404-4.514H935.32l-0.856-9.596
		l-0.083-0.934h17.439L951.736,501.593L951.736,501.593z"/>
</g>
<g opacity="0.35">
	<path opacity="0.6" fill="#FFFFFF" enable-background="new    " d="M1277.795,591.144h1.771v1.748h1.615v-1.748h1.771v5.295h-1.771
		v-1.773h-1.618v1.773h-1.77V591.144L1277.795,591.144z M1285.277,592.9h-1.559v-1.756h4.887v1.756h-1.561v3.537h-1.77
		L1285.277,592.9L1285.277,592.9z M1289.381,591.144h1.844l1.137,1.861l1.134-1.861h1.845v5.295h-1.762v-2.623l-1.217,1.881h-0.03
		l-1.218-1.881v2.623h-1.73L1289.381,591.144L1289.381,591.144z M1296.219,591.144h1.771v3.545h2.486v1.75h-4.258V591.144z"/>
	<path fill="#FFFFFF" d="M1275.207,598.857l2.531,28.385l11.354,3.152l11.389-3.158l2.531-28.379H1275.207L1275.207,598.857z
		 M1297.736,605.593l-0.159,1.766l-0.069,0.781h-13.322l0.318,3.566h12.688l-0.086,0.934l-0.816,9.166l-0.053,0.588l-7.125,1.975
		v0.002l-0.018,0.004l-7.13-1.979l-0.488-5.467h3.494l0.248,2.775l3.877,1.047h0.003l3.885-1.049l0.402-4.516h-12.063l-0.855-9.594
		l-0.083-0.934h17.438L1297.736,605.593L1297.736,605.593z"/>
</g>
<g opacity="0.35">
	<path opacity="0.6" fill="#FFFFFF" enable-background="new    " d="M1269.795,55.145h1.771v1.748h1.615v-1.748h1.771v5.293h-1.771
		v-1.772h-1.618v1.772h-1.77V55.145L1269.795,55.145z M1277.277,56.9h-1.559v-1.755h4.887V56.9h-1.561v3.538h-1.77L1277.277,56.9
		L1277.277,56.9z M1281.381,55.145h1.844l1.137,1.86l1.134-1.86h1.845v5.293h-1.762v-2.624l-1.217,1.882h-0.03l-1.218-1.882v2.624
		h-1.73L1281.381,55.145L1281.381,55.145z M1288.219,55.145h1.771v3.543h2.486v1.75h-4.258V55.145z"/>
	<path fill="#FFFFFF" d="M1267.207,62.858l2.531,28.384l11.354,3.152l11.389-3.157l2.531-28.379H1267.207L1267.207,62.858z
		 M1289.736,69.594l-0.159,1.765l-0.069,0.783h-13.322l0.318,3.565h12.688l-0.086,0.935l-0.816,9.165l-0.053,0.588l-7.125,1.975
		l-0.018,0.004l-7.13-1.979l-0.488-5.465h3.494l0.248,2.776l3.877,1.047l0.003-0.001l3.885-1.048l0.402-4.515h-12.063l-0.855-9.593
		l-0.083-0.934h17.438L1289.736,69.594L1289.736,69.594z"/>
</g>
<g opacity="0.35">
	<path opacity="0.6" fill="#FFFFFF" enable-background="new    " d="M844.795,307.145h1.77v1.748h1.617v-1.748h1.771v5.293h-1.769
		v-1.771h-1.617v1.771h-1.772V307.145L844.795,307.145z M852.277,308.9h-1.559v-1.757h4.887v1.757h-1.561v3.536h-1.771V308.9
		H852.277L852.277,308.9z M856.381,307.145h1.844l1.137,1.86l1.134-1.86h1.845v5.293h-1.762v-2.622l-1.219,1.882h-0.028l-1.22-1.882
		v2.622h-1.728L856.381,307.145L856.381,307.145z M863.219,307.145h1.772v3.543h2.486v1.75h-4.258V307.145z"/>
	<path fill="#FFFFFF" d="M842.207,314.858l2.531,28.384l11.354,3.15l11.389-3.155l2.531-28.379H842.207z M864.736,321.594
		l-0.159,1.767l-0.069,0.781h-13.322l0.318,3.565h12.688l-0.087,0.935l-0.816,9.165l-0.053,0.588l-7.124,1.977l-0.019,0.004
		l-7.13-1.979l-0.487-5.466h3.493l0.248,2.776l3.877,1.047l0.003-0.001l3.883-1.048l0.404-4.515H848.32l-0.856-9.595l-0.083-0.934
		h17.439L864.736,321.594L864.736,321.594z"/>
</g>
<g opacity="0.35">
	<path opacity="0.6" fill="#FFFFFF" enable-background="new    " d="M101.795,504.144h1.769v1.748h1.618v-1.748h1.77v5.293h-1.769
		v-1.771h-1.619v1.771h-1.769V504.144z M109.277,505.9h-1.557v-1.756h4.885v1.756h-1.558v3.537h-1.77V505.9z M113.38,504.144h1.845
		l1.134,1.861l1.134-1.861h1.845v5.293h-1.762v-2.621l-1.217,1.881h-0.03l-1.218-1.881v2.621h-1.731V504.144z M120.219,504.144
		h1.769v3.543h2.488v1.75h-4.257V504.144z"/>
	<path fill="#FFFFFF" d="M99.208,511.857l2.53,28.385l11.356,3.152l11.387-3.158l2.533-28.379H99.208L99.208,511.857z
		 M121.736,518.593l-0.159,1.766l-0.069,0.781h-13.322l0.319,3.566h12.686l-0.085,0.934l-0.817,9.166l-0.053,0.588l-7.125,1.975
		v0.002l-0.016,0.004l-7.13-1.979l-0.488-5.467h3.495l0.248,2.775l3.877,1.047h0.003l3.883-1.049l0.404-4.516h-12.065l-0.856-9.594
		l-0.083-0.934h17.437L121.736,518.593L121.736,518.593z"/>
</g>
<g opacity="0.35">
	<path opacity="0.6" fill="#FFFFFF" enable-background="new    " d="M44.795,149.145h1.769v1.748h1.618v-1.748h1.77v5.293h-1.769
		v-1.772h-1.619v1.772h-1.769V149.145z M52.277,150.9H50.72v-1.755h4.885v1.755h-1.558v3.538h-1.77V150.9z M56.38,149.145h1.845
		l1.134,1.86l1.134-1.86h1.845v5.293h-1.762v-2.624l-1.217,1.882h-0.03l-1.218-1.882v2.624H56.38V149.145z M63.219,149.145h1.769
		v3.543h2.488v1.75h-4.257V149.145z"/>
	<path fill="#FFFFFF" d="M42.208,156.858l2.53,28.384l11.356,3.152l11.387-3.157l2.533-28.379H42.208z M64.736,163.594l-0.159,1.765
		l-0.069,0.783H51.186l0.319,3.565h12.686l-0.085,0.935l-0.817,9.165l-0.053,0.588l-7.125,1.975l-0.016,0.004l-7.13-1.979
		l-0.488-5.465h3.495l0.248,2.776l3.877,1.047l0.003-0.001l3.883-1.048l0.404-4.515H48.322l-0.856-9.593l-0.083-0.934H64.82
		L64.736,163.594z"/>
</g>
<g opacity="0.35">
	<path fill="#FFFFFF" d="M679.298,188.812c-1.388,0.001-2.512,1.126-2.513,2.514v9.518c0,1.386,1.127,2.513,2.513,2.513
		c1.386,0,2.514-1.127,2.514-2.513v-9.518C681.81,189.938,680.685,188.813,679.298,188.812z M652.649,188.812
		c-1.389,0.001-2.514,1.126-2.515,2.514v9.518c0,1.386,1.127,2.513,2.515,2.513c1.386,0,2.514-1.127,2.514-2.513v-9.518
		C655.161,189.938,654.037,188.813,652.649,188.812z M655.785,204.202c0,1.36,1.103,2.463,2.463,2.463l0,0h1.405v5.039
		c0,1.386,1.128,2.513,2.514,2.513c1.386,0,2.513-1.127,2.513-2.513v-5.039h2.588v5.039c0.002,1.388,1.127,2.512,2.516,2.513
		c1.388-0.001,2.512-1.125,2.513-2.513v-5.039h1.405c1.359,0,2.463-1.103,2.464-2.463v-14.998h-20.378L655.785,204.202
		L655.785,204.202z M676.163,188.639c0-3.442-2.003-6.451-4.991-8.09l1.609-2.904c0.156-0.263,0.07-0.603-0.191-0.76
		c-0.263-0.157-0.602-0.072-0.76,0.191c-0.006,0.011-0.013,0.021-0.018,0.033l-1.643,2.959c-1.33-0.553-2.757-0.836-4.198-0.833
		c-1.496,0-2.917,0.298-4.196,0.833l-1.643-2.959c-0.166-0.257-0.51-0.331-0.768-0.165c-0.232,0.15-0.318,0.45-0.201,0.701
		l1.609,2.904c-2.988,1.639-4.99,4.648-4.99,8.09l0.001,0.072l-0.001,0.04v0.106h20.378v-0.106l-0.001-0.04L676.163,188.639z
		 M661.271,184.669c-0.345,0-0.622-0.278-0.622-0.622c0-0.343,0.277-0.622,0.622-0.622c0.343,0,0.62,0.279,0.62,0.622
		C661.893,184.391,661.614,184.669,661.271,184.669z M670.677,184.669c-0.344,0.014-0.633-0.254-0.646-0.598
		c-0.014-0.344,0.255-0.633,0.599-0.647c0.017,0,0.032,0,0.049,0c0.345,0.014,0.611,0.304,0.599,0.648
		C671.262,184.396,671.002,184.656,670.677,184.669z"/>
</g>
<g opacity="0.35">
	<path fill="#FFFFFF" d="M1102.298,544.812c-1.388,0.002-2.512,1.127-2.513,2.514v9.518c0,1.385,1.127,2.516,2.513,2.516
		s2.515-1.131,2.515-2.516v-9.518C1104.811,545.937,1103.686,544.814,1102.298,544.812z M1075.649,544.812
		c-1.389,0.002-2.514,1.127-2.515,2.514v9.518c0,1.385,1.127,2.516,2.515,2.516c1.386,0,2.514-1.131,2.514-2.516v-9.518
		C1078.162,545.937,1077.037,544.814,1075.649,544.812z M1078.785,560.203c0,1.359,1.103,2.463,2.463,2.463h1.405v5.039
		c0,1.385,1.128,2.512,2.514,2.512s2.513-1.127,2.513-2.512v-5.039h2.588v5.039c0.002,1.387,1.127,2.512,2.516,2.512
		c1.388,0,2.512-1.125,2.513-2.512v-5.039h1.405c1.359,0,2.464-1.104,2.464-2.463v-14.998h-20.378L1078.785,560.203
		L1078.785,560.203z M1099.163,544.638c0-3.44-2.003-6.451-4.991-8.09l1.609-2.904c0.131-0.275,0.014-0.607-0.265-0.738
		c-0.252-0.121-0.555-0.033-0.704,0.203l-1.643,2.959c-1.33-0.555-2.757-0.838-4.198-0.834c-1.495,0-2.917,0.299-4.196,0.834
		l-1.643-2.959c-0.147-0.268-0.484-0.365-0.753-0.217c-0.268,0.148-0.364,0.484-0.216,0.752l0,0l1.61,2.904
		c-2.989,1.639-4.991,4.649-4.991,8.09l0.001,0.072l-0.001,0.039v0.107h20.378v-0.107l-0.001-0.039
		C1099.162,544.687,1099.163,544.664,1099.163,544.638L1099.163,544.638z M1084.271,540.669c-0.345,0-0.623-0.277-0.623-0.621
		c0-0.344,0.278-0.623,0.623-0.623c0.343,0,0.62,0.279,0.62,0.623C1084.892,540.392,1084.614,540.669,1084.271,540.669z
		 M1093.677,540.669c-0.344,0.014-0.633-0.254-0.646-0.598c-0.014-0.346,0.255-0.635,0.599-0.647c0.017-0.002,0.033-0.002,0.049,0
		c0.345,0.014,0.611,0.305,0.598,0.648C1094.261,540.398,1094.001,540.658,1093.677,540.669z"/>
</g>
<g opacity="0.35">
	<path fill="#FFFFFF" d="M1341.298,85.812c-1.388,0.001-2.512,1.126-2.513,2.514v9.518c0,1.386,1.127,2.513,2.513,2.513
		s2.515-1.127,2.515-2.513v-9.518C1343.811,86.938,1342.686,85.813,1341.298,85.812z M1314.649,85.812
		c-1.389,0.001-2.514,1.126-2.515,2.514v9.518c0,1.386,1.127,2.513,2.515,2.513c1.386,0,2.514-1.127,2.514-2.513v-9.518
		C1317.161,86.938,1316.037,85.813,1314.649,85.812z M1317.785,101.202c0,1.36,1.103,2.463,2.463,2.463l0,0h1.405v5.039
		c0,1.386,1.128,2.513,2.514,2.513s2.513-1.127,2.513-2.513v-5.039h2.588v5.039c0.002,1.388,1.127,2.512,2.516,2.513
		c1.388-0.001,2.512-1.125,2.513-2.513v-5.039h1.405c1.359,0,2.463-1.103,2.464-2.463V86.205h-20.378L1317.785,101.202
		L1317.785,101.202z M1338.163,85.639c0-3.442-2.003-6.451-4.991-8.09l1.609-2.904c0.156-0.263,0.07-0.603-0.191-0.76
		c-0.263-0.157-0.603-0.072-0.76,0.191c-0.006,0.011-0.013,0.021-0.018,0.033l-1.643,2.959c-1.33-0.553-2.757-0.836-4.198-0.833
		c-1.495,0-2.917,0.298-4.196,0.833l-1.643-2.959c-0.166-0.257-0.51-0.331-0.768-0.165c-0.232,0.15-0.318,0.45-0.201,0.701
		l1.61,2.904c-2.989,1.639-4.991,4.648-4.991,8.09l0.001,0.072l-0.001,0.04v0.106h20.378V85.75l-0.001-0.04L1338.163,85.639
		L1338.163,85.639z M1323.271,81.669c-0.345,0-0.622-0.278-0.622-0.622c0-0.343,0.277-0.622,0.622-0.622
		c0.343,0,0.62,0.279,0.62,0.622C1323.893,81.391,1323.614,81.669,1323.271,81.669z M1332.677,81.669
		c-0.344,0.014-0.633-0.254-0.646-0.598c-0.014-0.344,0.254-0.633,0.598-0.647c0.018,0,0.033,0,0.05,0
		c0.345,0.014,0.611,0.304,0.599,0.648C1333.262,81.396,1333.002,81.656,1332.677,81.669z"/>
</g>
<g opacity="0.35">
	<path fill="#FFFFFF" d="M430.298,297.812c-1.388,0.001-2.512,1.126-2.513,2.514v9.517c0.001,1.389,1.125,2.513,2.513,2.515
		c1.388-0.002,2.513-1.126,2.515-2.515v-9.517C432.811,298.938,431.686,297.813,430.298,297.812z M403.649,297.812
		c-1.389,0.001-2.514,1.126-2.515,2.514v9.517c0.001,1.389,1.126,2.513,2.515,2.515c1.388-0.002,2.512-1.126,2.514-2.515v-9.517
		C406.162,298.938,405.037,297.813,403.649,297.812z M406.785,313.202c0,1.359,1.103,2.463,2.463,2.463l0,0h1.405v5.039
		c0,1.386,1.128,2.513,2.514,2.513c1.386,0,2.513-1.127,2.513-2.513v-5.039h2.587v5.039c0.003,1.388,1.126,2.512,2.515,2.513
		c1.388-0.001,2.512-1.125,2.513-2.513v-5.039h1.406c1.36,0,2.463-1.102,2.463-2.463l0,0v-14.998h-20.378V313.202L406.785,313.202z
		 M427.163,297.639c0-3.442-2.003-6.451-4.992-8.09l1.61-2.904c0.129-0.278,0.009-0.608-0.27-0.738
		c-0.251-0.117-0.55-0.031-0.7,0.202l-1.642,2.959c-1.33-0.553-2.757-0.836-4.198-0.833c-1.496,0-2.917,0.298-4.196,0.833
		l-1.642-2.959c-0.147-0.267-0.483-0.364-0.753-0.217c-0.267,0.148-0.363,0.485-0.216,0.753l1.61,2.904
		c-2.989,1.639-4.992,4.648-4.992,8.09l0.001,0.072l-0.001,0.04v0.106h20.378v-0.106l-0.001-0.04L427.163,297.639L427.163,297.639z
		 M412.272,293.669c-0.346,0.013-0.635-0.255-0.647-0.599c-0.012-0.344,0.256-0.633,0.6-0.646c0.017,0,0.031,0,0.047,0
		c0.346,0.015,0.611,0.305,0.598,0.648C412.854,293.396,412.595,293.656,412.272,293.669z M421.677,293.669
		c-0.344,0.013-0.633-0.255-0.645-0.599c-0.014-0.344,0.255-0.633,0.599-0.646c0.017,0,0.032,0,0.048,0
		c0.344,0.015,0.611,0.305,0.598,0.648C422.261,293.396,422.001,293.656,421.677,293.669z"/>
</g>
<g opacity="0.35">
	<path fill="#FFFFFF" d="M89.298,386.812c-1.388,0.002-2.512,1.127-2.513,2.514v9.518c0.001,1.391,1.125,2.514,2.513,2.516
		c1.388-0.002,2.513-1.125,2.514-2.516v-9.518C91.811,387.939,90.686,386.814,89.298,386.812z M62.649,386.812
		c-1.388,0.002-2.512,1.127-2.513,2.514v9.518c0.001,1.391,1.126,2.514,2.513,2.516c1.388-0.002,2.512-1.125,2.514-2.516v-9.518
		C65.162,387.939,64.037,386.814,62.649,386.812z M65.785,402.203c0,1.359,1.103,2.463,2.463,2.463h1.405v5.039
		c0,1.385,1.128,2.512,2.514,2.512c1.386,0,2.513-1.127,2.513-2.512v-5.039h2.587v5.039c0.001,1.387,1.125,2.512,2.513,2.512
		c1.388,0,2.512-1.125,2.513-2.512v-5.039H83.7c1.36,0,2.463-1.104,2.463-2.463v-14.998H65.785V402.203z M86.163,386.638
		c0-3.441-2.003-6.449-4.992-8.09l1.61-2.904c0.129-0.277,0.009-0.607-0.269-0.736c-0.251-0.117-0.55-0.031-0.701,0.201
		l-1.641,2.959c-1.33-0.553-2.757-0.836-4.198-0.832c-1.496,0-2.917,0.297-4.198,0.832l-1.64-2.959
		c-0.148-0.268-0.485-0.363-0.753-0.217c-0.267,0.148-0.363,0.484-0.216,0.752l1.61,2.904c-2.989,1.639-4.992,4.648-4.992,8.09
		l0.001,0.072l-0.001,0.041v0.105h20.378v-0.105l-0.001-0.041C86.162,386.687,86.163,386.664,86.163,386.638L86.163,386.638z
		 M71.271,382.669c-0.344,0.014-0.634-0.254-0.648-0.598c-0.014-0.346,0.253-0.633,0.597-0.648c0.018,0,0.035,0,0.052,0
		c0.344,0.016,0.611,0.307,0.596,0.65C71.854,382.396,71.595,382.656,71.271,382.669z M80.677,382.669
		c-0.344,0.014-0.634-0.254-0.648-0.598c-0.014-0.346,0.253-0.633,0.597-0.648c0.017,0,0.035,0,0.052,0
		c0.344,0.016,0.61,0.307,0.596,0.65C81.26,382.396,81,382.656,80.677,382.669z"/>
</g>
<g opacity="0.35">
	<path fill="#FFFFFF" d="M314.298,510.812c-1.388,0.002-2.512,1.127-2.513,2.514v9.518c0.001,1.391,1.125,2.514,2.513,2.516
		c1.388-0.004,2.512-1.125,2.514-2.516v-9.518C316.811,511.937,315.686,510.814,314.298,510.812L314.298,510.812z M287.649,510.812
		c-1.388,0.002-2.512,1.127-2.513,2.514v9.518c0.003,1.391,1.126,2.514,2.513,2.516c1.387-0.004,2.512-1.125,2.514-2.516v-9.518
		C290.162,511.937,289.037,510.814,287.649,510.812L287.649,510.812z M290.785,526.203c0,1.359,1.103,2.463,2.463,2.463h1.405v5.039
		c0,1.385,1.128,2.512,2.514,2.512c1.386,0,2.513-1.127,2.513-2.512v-5.039h2.587v5.039c0.001,1.387,1.125,2.512,2.513,2.512
		c1.387,0,2.512-1.125,2.513-2.512v-5.039h1.406c1.36,0,2.463-1.104,2.463-2.463v-14.998h-20.378L290.785,526.203L290.785,526.203z
		 M311.163,510.638c0-3.439-2.003-6.449-4.992-8.09l1.61-2.904c0.146-0.267,0.048-0.605-0.221-0.754
		c-0.081-0.045-0.171-0.068-0.264-0.068c-0.202,0-0.388,0.109-0.485,0.287l-1.641,2.959c-1.33-0.555-2.757-0.838-4.198-0.834
		c-1.496,0-2.917,0.299-4.198,0.834l-1.64-2.959c-0.144-0.272-0.479-0.373-0.749-0.23c-0.27,0.146-0.373,0.48-0.229,0.75
		c0.003,0.006,0.006,0.012,0.009,0.016l1.61,2.904c-2.989,1.643-4.992,4.648-4.992,8.09l0.001,0.072l-0.001,0.039v0.107h20.378
		v-0.107l-0.001-0.039C311.162,510.687,311.163,510.664,311.163,510.638z M296.271,506.669c-0.344,0.014-0.634-0.254-0.647-0.598
		c-0.013-0.346,0.253-0.633,0.597-0.646c0.017-0.002,0.034-0.002,0.051,0c0.344,0.014,0.611,0.305,0.596,0.648
		C296.855,506.398,296.595,506.658,296.271,506.669z M305.677,506.669c-0.344,0.014-0.633-0.254-0.646-0.598
		c-0.014-0.346,0.254-0.633,0.598-0.646c0.017-0.002,0.034-0.002,0.051,0c0.344,0.014,0.611,0.305,0.597,0.648
		C306.261,506.398,306.001,506.658,305.677,506.669z"/>
</g>
<g opacity="0.35">
	<path fill="#FFFFFF" d="M1165.561,623.078c0,0.461-0.279,0.805-0.764,0.805c-0.402,0-0.705-0.344-0.705-0.805
		c0-0.443,0.322-0.807,0.745-0.807C1165.279,622.271,1165.561,622.634,1165.561,623.078z M1164.447,647.261v-18.5h0.759v18.5
		H1164.447z M1190.428,634.081c0,9.324-5.178,13.565-10.846,13.565c-5.789,0-10.479-4.586-10.479-13.182
		c0-8.824,4.853-13.564,10.887-13.564C1185.9,620.9,1190.428,625.562,1190.428,634.081L1190.428,634.081z M1169.873,634.273
		c0,7.072,3.428,12.565,9.745,12.565c6.362,0,10.011-5.662,10.011-12.644c0-6.481-2.924-12.391-9.596-12.391
		S1169.873,627.371,1169.873,634.273z M1193.21,645.255c1.272,0.85,3.468,1.668,5.356,1.668c3.584,0,6.771-2.508,6.771-6.199
		c0-3.424-2.123-5.211-5.729-6.744c-3.227-1.375-6.127-2.865-6.127-6.527c0-3.814,3.008-6.514,7.092-6.514
		c2.195,0,3.854,0.615,4.626,1.156l-0.31,0.664c-0.654-0.461-2.426-1.051-4.352-1.051c-4.317,0-6.198,3.262-6.198,5.664
		c0,3.318,2.571,4.426,5.886,6.006c3.854,1.889,5.896,3.555,5.896,7.176c0,3.895-2.775,7.055-7.708,7.055
		c-2.044,0-4.396-0.693-5.55-1.58L1193.21,645.255L1193.21,645.255z"/>
</g>
<g opacity="0.35">
	<path fill="#FFFFFF" d="M957.56,276.078c0,0.461-0.279,0.804-0.764,0.804c-0.402,0-0.705-0.343-0.705-0.804
		c0-0.443,0.322-0.806,0.745-0.806C957.279,275.272,957.56,275.635,957.56,276.078z M956.447,300.261v-18.499h0.759v18.499H956.447z
		 M982.428,287.081c0,9.325-5.178,13.565-10.846,13.565c-5.789,0-10.478-4.586-10.478-13.181c0-8.825,4.852-13.565,10.887-13.565
		C977.9,273.9,982.428,278.563,982.428,287.081z M961.873,287.273c0,7.072,3.428,12.565,9.745,12.565
		c6.362,0,10.011-5.663,10.011-12.646c0-6.477-2.924-12.387-9.596-12.387C965.361,274.805,961.873,280.371,961.873,287.273z
		 M985.21,298.256c1.272,0.849,3.468,1.668,5.356,1.668c3.584,0,6.771-2.508,6.771-6.199c0-3.424-2.123-5.211-5.729-6.746
		c-3.229-1.375-6.128-2.865-6.128-6.527c0-3.814,3.007-6.513,7.091-6.513c2.196,0,3.854,0.616,4.626,1.156l-0.31,0.665
		c-0.652-0.462-2.426-1.051-4.352-1.051c-4.317,0-6.198,3.262-6.198,5.664c0,3.317,2.571,4.426,5.886,6.006
		c3.854,1.889,5.897,3.554,5.897,7.176c0,3.893-2.775,7.053-7.708,7.053c-2.044,0-4.395-0.693-5.55-1.58L985.21,298.256
		L985.21,298.256z"/>
</g>
<g opacity="0.35">
	<path fill="#FFFFFF" d="M567.56,330.078c0,0.461-0.279,0.804-0.764,0.804c-0.402,0-0.705-0.343-0.705-0.804
		c0-0.443,0.322-0.806,0.745-0.806C567.279,329.273,567.56,329.635,567.56,330.078z M566.447,354.261v-18.499h0.759v18.499H566.447z
		 M592.428,341.081c0,9.325-5.178,13.565-10.846,13.565c-5.789,0-10.479-4.588-10.479-13.183c0-8.825,4.854-13.564,10.888-13.564
		C587.9,327.9,592.428,332.563,592.428,341.081L592.428,341.081z M571.873,341.273c0,7.07,3.428,12.564,9.745,12.564
		c6.362,0,10.011-5.663,10.011-12.646c0-6.478-2.924-12.389-9.596-12.389S571.873,334.371,571.873,341.273z M595.21,352.256
		c1.272,0.85,3.468,1.668,5.356,1.668c3.584,0,6.771-2.508,6.771-6.199c0-3.424-2.123-5.211-5.729-6.746
		c-3.229-1.375-6.127-2.863-6.127-6.525c0-3.814,3.006-6.513,7.09-6.513c2.195,0,3.854,0.614,4.626,1.154l-0.31,0.665
		c-0.652-0.462-2.426-1.051-4.352-1.051c-4.317,0-6.198,3.262-6.198,5.664c0,3.317,2.571,4.426,5.886,6.006
		c3.855,1.889,5.897,3.554,5.897,7.176c0,3.895-2.775,7.055-7.708,7.055c-2.044,0-4.395-0.693-5.55-1.58L595.21,352.256
		L595.21,352.256z"/>
</g>
<g opacity="0.35">
	<path fill="#FFFFFF" d="M251.561,187.078c0,0.461-0.281,0.804-0.764,0.804c-0.402,0-0.705-0.343-0.705-0.804
		c0-0.443,0.322-0.806,0.745-0.806C251.279,186.272,251.561,186.635,251.561,187.078L251.561,187.078z M250.447,211.261v-18.499
		h0.759v18.499H250.447z M276.428,198.081c0,9.325-5.178,13.565-10.846,13.565c-5.789,0-10.478-4.586-10.478-13.181
		c0-8.825,4.852-13.565,10.886-13.565C271.9,184.9,276.428,189.563,276.428,198.081z M255.873,198.273
		c0,7.072,3.428,12.565,9.745,12.565c6.362,0,10.011-5.663,10.011-12.646c0-6.477-2.924-12.387-9.596-12.387
		C259.361,185.805,255.873,191.371,255.873,198.273L255.873,198.273z M279.21,209.256c1.272,0.849,3.468,1.668,5.356,1.668
		c3.584,0,6.771-2.508,6.771-6.199c0-3.424-2.123-5.211-5.729-6.746c-3.227-1.375-6.127-2.865-6.127-6.527
		c0-3.814,3.006-6.513,7.09-6.513c2.197,0,3.854,0.616,4.626,1.156l-0.308,0.665c-0.654-0.462-2.426-1.051-4.352-1.051
		c-4.317,0-6.198,3.262-6.198,5.664c0,3.317,2.571,4.426,5.886,6.006c3.854,1.889,5.896,3.554,5.896,7.176
		c0,3.893-2.775,7.053-7.708,7.053c-2.044,0-4.394-0.693-5.55-1.58L279.21,209.256z"/>
</g>
<g opacity="0.35">
	<path fill="#FFFFFF" d="M219.561,649.078c0,0.461-0.281,0.805-0.764,0.805c-0.402,0-0.705-0.344-0.705-0.805
		c0-0.443,0.322-0.807,0.745-0.807C219.279,648.271,219.561,648.634,219.561,649.078L219.561,649.078z M218.447,673.261v-18.5h0.759
		v18.5H218.447z M244.428,660.081c0,9.324-5.178,13.565-10.846,13.565c-5.789,0-10.478-4.586-10.478-13.182
		c0-8.824,4.852-13.564,10.886-13.564C239.9,646.9,244.428,651.562,244.428,660.081L244.428,660.081z M223.873,660.273
		c0,7.072,3.428,12.565,9.745,12.565c6.362,0,10.011-5.662,10.011-12.644c0-6.481-2.924-12.391-9.596-12.391
		C227.361,647.804,223.873,653.371,223.873,660.273z M247.21,671.255c1.272,0.85,3.468,1.668,5.356,1.668
		c3.584,0,6.771-2.508,6.771-6.199c0-3.424-2.123-5.211-5.729-6.744c-3.227-1.375-6.127-2.865-6.127-6.527
		c0-3.814,3.006-6.514,7.09-6.514c2.197,0,3.854,0.615,4.626,1.156l-0.308,0.664c-0.654-0.461-2.426-1.051-4.352-1.051
		c-4.317,0-6.198,3.262-6.198,5.664c0,3.318,2.571,4.426,5.886,6.006c3.854,1.889,5.896,3.555,5.896,7.176
		c0,3.895-2.775,7.055-7.708,7.055c-2.044,0-4.394-0.693-5.55-1.58L247.21,671.255L247.21,671.255z"/>
</g>
<g opacity="0.35">
	<path fill="#FFFFFF" d="M886.56,36.078c0,0.461-0.279,0.804-0.764,0.804c-0.402,0-0.705-0.343-0.705-0.804
		c0-0.443,0.322-0.806,0.745-0.806C886.279,35.272,886.56,35.635,886.56,36.078z M885.447,60.261V41.762h0.759v18.499H885.447z
		 M911.428,47.081c0,9.325-5.178,13.565-10.846,13.565c-5.789,0-10.478-4.586-10.478-13.181c0-8.825,4.852-13.565,10.887-13.565
		C906.9,33.9,911.428,38.563,911.428,47.081z M890.873,47.273c0,7.072,3.428,12.565,9.745,12.565
		c6.362,0,10.011-5.663,10.011-12.646c0-6.477-2.924-12.387-9.596-12.387C894.361,34.805,890.873,40.371,890.873,47.273z
		 M914.21,58.256c1.272,0.849,3.468,1.668,5.356,1.668c3.584,0,6.771-2.508,6.771-6.199c0-3.424-2.123-5.211-5.729-6.746
		c-3.229-1.375-6.128-2.865-6.128-6.527c0-3.814,3.007-6.513,7.091-6.513c2.196,0,3.854,0.616,4.626,1.156l-0.31,0.665
		c-0.652-0.462-2.426-1.051-4.352-1.051c-4.317,0-6.198,3.262-6.198,5.664c0,3.317,2.571,4.426,5.886,6.006
		c3.854,1.889,5.897,3.554,5.897,7.176c0,3.893-2.775,7.053-7.708,7.053c-2.044,0-4.395-0.693-5.55-1.58L914.21,58.256z"/>
</g>
<g opacity="0.35">
	<path fill="#FFFFFF" d="M311.561,31.078c0,0.461-0.281,0.804-0.764,0.804c-0.402,0-0.705-0.343-0.705-0.804
		c0-0.443,0.322-0.806,0.745-0.806C311.279,30.272,311.561,30.635,311.561,31.078z M310.447,55.261V36.762h0.759v18.499H310.447z
		 M336.428,42.081c0,9.325-5.178,13.565-10.846,13.565c-5.789,0-10.478-4.586-10.478-13.181c0-8.825,4.852-13.565,10.886-13.565
		C331.9,28.9,336.428,33.563,336.428,42.081z M315.873,42.273c0,7.072,3.428,12.565,9.745,12.565
		c6.362,0,10.011-5.663,10.011-12.646c0-6.477-2.924-12.387-9.596-12.387C319.361,29.805,315.873,35.371,315.873,42.273
		L315.873,42.273z M339.21,53.256c1.272,0.849,3.468,1.668,5.356,1.668c3.584,0,6.771-2.508,6.771-6.199
		c0-3.424-2.123-5.211-5.729-6.746c-3.227-1.375-6.127-2.865-6.127-6.527c0-3.814,3.006-6.513,7.09-6.513
		c2.197,0,3.854,0.616,4.626,1.156l-0.308,0.665c-0.654-0.462-2.426-1.051-4.352-1.051c-4.317,0-6.198,3.262-6.198,5.664
		c0,3.317,2.571,4.426,5.886,6.006c3.854,1.889,5.896,3.554,5.896,7.176c0,3.893-2.775,7.053-7.708,7.053
		c-2.044,0-4.394-0.693-5.55-1.58L339.21,53.256z"/>
</g>
<g opacity="0.35">
	<path fill="#FFFFFF" d="M871.56,441.078c0,0.461-0.279,0.805-0.764,0.805c-0.402,0-0.705-0.344-0.705-0.805
		c0-0.443,0.322-0.805,0.745-0.805C871.279,440.273,871.56,440.634,871.56,441.078z M870.447,465.261v-18.5h0.759v18.5H870.447z
		 M896.428,452.082c0,9.324-5.178,13.565-10.846,13.565c-5.789,0-10.478-4.586-10.478-13.182c0-8.824,4.852-13.564,10.887-13.564
		C891.9,438.9,896.428,443.562,896.428,452.082z M875.873,452.273c0,7.072,3.428,12.564,9.745,12.564
		c6.362,0,10.011-5.662,10.011-12.645c0-6.48-2.924-12.391-9.596-12.391C879.361,439.802,875.873,445.371,875.873,452.273z
		 M899.21,463.255c1.272,0.85,3.468,1.668,5.356,1.668c3.584,0,6.771-2.508,6.771-6.199c0-3.424-2.123-5.211-5.729-6.746
		c-3.229-1.375-6.128-2.863-6.128-6.525c0-3.814,3.007-6.514,7.091-6.514c2.196,0,3.854,0.615,4.626,1.156l-0.31,0.664
		c-0.652-0.461-2.426-1.051-4.352-1.051c-4.317,0-6.198,3.262-6.198,5.664c0,3.318,2.571,4.426,5.886,6.006
		c3.854,1.889,5.897,3.555,5.897,7.176c0,3.895-2.775,7.055-7.708,7.055c-2.044,0-4.395-0.693-5.55-1.58L899.21,463.255
		L899.21,463.255z"/>
</g>
<g opacity="0.35">
	<path fill="#FFFFFF" d="M496.56,694.078c0,0.461-0.279,0.805-0.764,0.805c-0.402,0-0.705-0.344-0.705-0.805
		c0-0.443,0.322-0.807,0.745-0.807C496.279,693.271,496.56,693.634,496.56,694.078z M495.447,718.261v-18.5h0.759v18.5H495.447z
		 M521.428,705.081c0,9.324-5.178,13.565-10.846,13.565c-5.789,0-10.479-4.586-10.479-13.182c0-8.824,4.853-13.564,10.888-13.564
		C516.9,691.9,521.428,696.562,521.428,705.081L521.428,705.081z M500.873,705.273c0,7.072,3.428,12.565,9.745,12.565
		c6.362,0,10.011-5.662,10.011-12.644c0-6.481-2.924-12.391-9.596-12.391C504.361,692.802,500.873,698.371,500.873,705.273
		L500.873,705.273z M524.21,716.255c1.272,0.85,3.468,1.668,5.356,1.668c3.584,0,6.771-2.508,6.771-6.199
		c0-3.424-2.123-5.211-5.729-6.744c-3.229-1.375-6.127-2.865-6.127-6.527c0-3.814,3.006-6.514,7.09-6.514
		c2.195,0,3.854,0.615,4.626,1.156l-0.31,0.664c-0.652-0.461-2.426-1.051-4.352-1.051c-4.317,0-6.198,3.262-6.198,5.664
		c0,3.318,2.571,4.426,5.886,6.006c3.855,1.889,5.897,3.555,5.897,7.176c0,3.895-2.775,7.055-7.708,7.055
		c-2.044,0-4.395-0.693-5.55-1.58L524.21,716.255L524.21,716.255z"/>
</g>
<g transform="matrix(.1617 0 0 .158089 -107.53764 -81.66187)" opacity="0.35">
	<path fill="#FFFFFF" d="M1718.963,2217.582c-18.055-2.977-37.411-2.646-52.508,0c-22.236,3.891-26.263,12.061-26.263,27.08
		l-0.001-0.001v19.823h52.528v6.615h-72.234c-15.273,0-28.638,9.125-32.821,26.42c-4.824,19.825-5.038,32.158,0,52.858
		c3.735,15.408,12.627,26.42,27.898,26.42h18.054v-23.774c0-17.178,15.019-32.372,32.84-32.372h52.508
		c14.61,0,26.263-11.904,26.263-26.437v-49.551C1745.226,2230.558,1733.224,2219.935,1718.963,2217.582z M1663.169,2251.277
		c-5.446,0-9.845-4.435-9.845-9.903c0-5.486,4.397-9.922,9.845-9.922c5.428,0,9.845,4.435,9.845,9.922
		C1673.014,2246.843,1668.597,2251.277,1663.169,2251.277z"/>
	<path opacity="0.8" fill="#FFFFFF" d="M1797.755,2297.52c-3.773-15.059-10.972-26.42-26.263-26.42h-19.688v23.112
		c0,17.918-15.35,33.034-32.84,33.034h-52.508c-14.376,0-26.263,12.177-26.263,26.437v49.551c0,14.105,12.372,22.374,26.263,26.42
		c16.633,4.844,32.606,5.72,52.508,0c13.229-3.793,26.263-11.401,26.263-26.42v-19.822h-52.508v-6.615h78.772
		c15.272,0,20.953-10.584,26.263-26.42C1803.241,2334.075,1803.007,2318.434,1797.755,2297.52z M1722.25,2396.621
		c5.446,0,9.845,4.435,9.845,9.903c0,5.486-4.397,9.922-9.845,9.922c-5.427,0-9.845-4.435-9.845-9.922
		C1712.405,2401.055,1716.822,2396.621,1722.25,2396.621z"/>
</g>
<g opacity="0.4">
	<path opacity="0.2" fill-rule="evenodd" clip-rule="evenodd" fill="#FFFFFF" d="M81.818,36.847
		c-2.436,0.863-4.787,3.383-7.053,7.559c-3.4,6.264-7.791,15.166-1.744,22.214c2.797,3.261,7.416,5.185,13.478,2.137
		c4.87-2.448,6.224-9.475,4.476-12.777c-3.606-6.811-7.265-8.491-8.245-12.715C82.075,40.45,81.772,38.31,81.818,36.847z"/>
	<path opacity="0.4" fill-rule="evenodd" clip-rule="evenodd" fill="#FFFFFF" d="M81.818,36.762
		c-2.448,0.872-4.799,3.392-7.053,7.559c-3.382,6.251-7.791,15.166-1.744,22.214c2.797,3.261,7.357,4.314,9.887,2.38
		c1.649-1.261,2.771-2.462,3.417-4.994c0.72-2.819,0.167-6.615-0.211-8.359c-0.479-2.206-0.635-4.628-0.47-7.265
		c-0.058-0.071-0.102-0.124-0.131-0.159c-1.317-1.612-2.334-3.016-2.784-4.958C82.075,40.365,81.772,38.226,81.818,36.762z"/>
	<path opacity="0.6" fill-rule="evenodd" clip-rule="evenodd" fill="#FFFFFF" d="M79.791,37.859
		c-2.28,1.802-3.975,4.825-5.086,9.068c-1.666,6.365-1.846,12.234-1.259,15.648c1.139,6.618,7.043,9.13,13.099,6.05
		c3.727-1.896,5.279-5.965,5.197-10.382c-0.085-4.573-8.923-9.757-10.488-13.573C80.211,42.124,79.723,39.854,79.791,37.859z"/>
	<path opacity="0.4" fill-rule="evenodd" clip-rule="evenodd" fill="#FFFFFF" d="M85.571,49.792
		c2.734,3.507,3.331,5.948,1.788,7.324c-2.314,2.063-7.971,3.41-11.491,0.914c-2.346-1.664-3.234-5.234-2.663-10.709
		c-0.969,2.023-1.788,4.072-2.457,6.147c-0.669,2.075-0.865,4.247-0.586,6.516c0.839,1.697,2.878,2.83,6.118,3.4
		c4.86,0.855,9.46,0.432,12.547-1.124c2.058-1.037,3.031-2.07,2.92-3.098c0.074-1.518-0.394-2.963-1.404-4.335
		C89.332,53.455,87.742,51.776,85.571,49.792z"/>
	<path opacity="0.3" fill-rule="evenodd" clip-rule="evenodd" fill="#FFFFFF" d="M74.885,46.29c-0.023,2.533,0.628,4.94,1.954,7.223
		c1.988,3.424,4.308,6.807,7.781,9.611c2.315,1.87,4.165,2.474,5.549,1.812c-1.137,2.035-2.346,3.032-3.628,2.992
		c-1.922-0.061-4.265-0.901-8.019-5.413c-2.503-3.008-4.215-5.853-5.137-8.536c0.146-1.064,0.301-2.124,0.465-3.18
		S74.359,48.241,74.885,46.29z"/>
	<path opacity="0.1" fill-rule="evenodd" clip-rule="evenodd" fill="#FFFFFF" d="M80.758,49.766c0.212,2.063,1.015,5.364,0,7.561
		c-1.015,2.197-5.705,6.167-4.41,9.664c1.294,3.497,4.449,2.712,6.428,1.1c1.979-1.612,3.038-4.232,3.273-6.075
		c0.235-1.843-0.562-5.389-0.821-8.473c-0.173-2.056-0.056-3.819,0.352-5.289l-0.606-0.763l-3.569-1.057
		C80.832,47.28,80.617,48.39,80.758,49.766z"/>
	<path opacity="0.4" fill-rule="evenodd" clip-rule="evenodd" fill="#FFFFFF" d="M82.032,39.546
		c-1.155,0.488-2.25,1.455-3.283,2.901c-1.551,2.169-2.34,3.47-1.756,7.77c0.39,2.867,0.669,5.504,0.837,7.912l4.999-14.524
		c-0.184-0.74-0.337-1.408-0.459-2.005C82.248,41.004,82.136,40.319,82.032,39.546z"/>
	<path fill-rule="evenodd" clip-rule="evenodd" fill="#FFFFFF" fill-opacity="0.3163" d="M82.819,43.577
		c-1.269,0.741-2.252,2.258-2.95,4.552c-0.698,2.294-1.336,5.501-1.915,9.622c0.772-2.621,1.284-4.519,1.536-5.694
		c0.378-1.763,0.508-4.257,1.512-5.95C81.673,44.978,82.278,44.135,82.819,43.577z"/>
	<path fill-rule="evenodd" clip-rule="evenodd" fill="#EDEDED" fill-opacity="0.6033" d="M77.993,39.546
		c-1.149,1.372-2.144,2.827-2.986,4.364c-0.842,1.537-1.444,2.684-1.805,3.441c-0.112,0.564-0.167,1.397-0.164,2.497
		c0.003,1.101,0.098,2.325,0.286,3.672c0.164-2.638,0.668-5.198,1.51-7.682C75.675,43.355,76.729,41.258,77.993,39.546z"/>
</g>
<g transform="matrix(.1617 0 0 .158089 -107.53764 -81.66187)" opacity="0.35">
	<path fill="#FFFFFF" d="M5008.209,2005.193c-18.055-2.977-37.412-2.646-52.508,0c-22.236,3.891-26.263,12.061-26.263,27.08
		l-0.001-0.001v19.823h52.527v6.615h-72.234c-15.272,0-28.638,9.125-32.821,26.42c-4.824,19.825-5.038,32.158,0,52.859
		c3.735,15.408,12.627,26.42,27.898,26.42h18.054v-23.774c0-17.178,15.019-32.372,32.839-32.372h52.508
		c14.61,0,26.264-11.905,26.264-26.438v-49.551C5034.473,2018.169,5022.47,2007.547,5008.209,2005.193z M4952.415,2038.888
		c-5.446,0-9.845-4.435-9.845-9.902c0-5.486,4.396-9.922,9.845-9.922c5.428,0,9.845,4.435,9.845,9.922
		C4962.26,2034.454,4957.843,2038.888,4952.415,2038.888z"/>
	<path opacity="0.8" fill="#FFFFFF" d="M5087.001,2085.132c-3.772-15.059-10.972-26.42-26.263-26.42h-19.688v23.112
		c0,17.918-15.35,33.034-32.84,33.034h-52.508c-14.376,0-26.263,12.177-26.263,26.437v49.551c0,14.105,12.372,22.374,26.263,26.42
		c16.633,4.844,32.606,5.72,52.508,0c13.229-3.793,26.264-11.401,26.264-26.42v-19.822h-52.508v-6.615h78.772
		c15.271,0,20.953-10.584,26.263-26.42C5092.487,2121.687,5092.253,2106.046,5087.001,2085.132z M5011.497,2184.233
		c5.446,0,9.845,4.435,9.845,9.902c0,5.486-4.396,9.922-9.845,9.922c-5.427,0-9.845-4.435-9.845-9.922
		C5001.651,2188.667,5006.068,2184.233,5011.497,2184.233z"/>
</g>
<g transform="matrix(.1617 0 0 .158089 -107.53764 -81.66187)" opacity="0.35">
	<path fill="#FFFFFF" d="M8305.871,1695.935c-18.056-2.977-37.411-2.646-52.508,0c-22.236,3.891-26.264,12.061-26.264,27.08
		l-0.001-0.001v19.823h52.528v6.615h-72.234c-15.273,0-28.639,9.125-32.821,26.42c-4.824,19.825-5.038,32.158,0,52.859
		c3.735,15.408,12.626,26.42,27.898,26.42h18.054v-23.774c0-17.178,15.02-32.372,32.84-32.372h52.508
		c14.61,0,26.264-11.905,26.264-26.437v-49.551C8332.135,1708.912,8320.132,1698.289,8305.871,1695.935z M8250.077,1729.63
		c-5.446,0-9.846-4.435-9.846-9.902c0-5.486,4.396-9.922,9.846-9.922c5.427,0,9.845,4.435,9.845,9.922
		C8259.922,1725.196,8255.505,1729.63,8250.077,1729.63z"/>
	<path opacity="0.8" fill="#FFFFFF" d="M8384.663,1775.874c-3.772-15.059-10.972-26.42-26.264-26.42h-19.688v23.112
		c0,17.918-15.35,33.034-32.84,33.034h-52.508c-14.376,0-26.264,12.177-26.264,26.437v49.551c0,14.105,12.372,22.374,26.264,26.42
		c16.633,4.844,32.606,5.72,52.508,0c13.229-3.794,26.264-11.401,26.264-26.42v-19.822h-52.508v-6.615h78.771
		c15.272,0,20.953-10.584,26.264-26.42C8390.149,1812.429,8389.915,1796.788,8384.663,1775.874z M8309.159,1874.975
		c5.445,0,9.845,4.435,9.845,9.902c0,5.486-4.396,9.922-9.845,9.922c-5.428,0-9.846-4.435-9.846-9.922
		C8299.313,1879.409,8303.73,1874.975,8309.159,1874.975z"/>
</g>
<g transform="matrix(.1617 0 0 .158089 -107.53764 -81.66187)" opacity="0.35">
	<path fill="#FFFFFF" d="M4881.621,4344.398c-18.055-2.977-37.412-2.646-52.508,0c-22.236,3.891-26.264,12.061-26.264,27.08
		l-0.001-0.001v19.823h52.528v6.615h-72.234c-15.273,0-28.638,9.125-32.821,26.42c-4.825,19.825-5.039,32.158,0,52.858
		c3.735,15.408,12.626,26.42,27.898,26.42h18.054v-23.774c0-17.178,15.019-32.372,32.84-32.372h52.508
		c14.61,0,26.263-11.905,26.263-26.438v-49.551C4907.884,4357.374,4895.881,4346.752,4881.621,4344.398z M4825.827,4378.093
		c-5.446,0-9.845-4.435-9.845-9.902c0-5.486,4.396-9.922,9.845-9.922c5.428,0,9.845,4.436,9.845,9.922
		C4835.672,4373.659,4831.255,4378.093,4825.827,4378.093z"/>
	<path opacity="0.8" fill="#FFFFFF" d="M4960.413,4424.336c-3.773-15.059-10.972-26.419-26.263-26.419h-19.688v23.112
		c0,17.918-15.35,33.034-32.84,33.034h-52.508c-14.376,0-26.263,12.177-26.263,26.437v49.551c0,14.105,12.372,22.374,26.263,26.42
		c16.633,4.844,32.606,5.72,52.508,0c13.229-3.793,26.263-11.401,26.263-26.42v-19.821h-52.508v-6.615h78.772
		c15.271,0,20.952-10.583,26.263-26.419C4965.899,4460.892,4965.665,4445.25,4960.413,4424.336z M4884.909,4523.438
		c5.446,0,9.845,4.436,9.845,9.902c0,5.486-4.397,9.922-9.845,9.922c-5.427,0-9.845-4.435-9.845-9.922
		C4875.063,4527.872,4879.48,4523.438,4884.909,4523.438z"/>
</g>
<g transform="matrix(.1617 0 0 .158089 -107.53764 -81.66187)" opacity="0.35">
	<path fill="#FFFFFF" d="M2085.502,4188.826c-18.055-2.977-37.411-2.646-52.508,0c-22.236,3.891-26.263,12.061-26.263,27.081
		l-0.001-0.001v19.823h52.528v6.615h-72.234c-15.273,0-28.638,9.125-32.821,26.42c-4.824,19.825-5.038,32.158,0,52.858
		c3.735,15.408,12.627,26.42,27.898,26.42h18.054v-23.774c0-17.178,15.019-32.372,32.84-32.372h52.508
		c14.61,0,26.263-11.905,26.263-26.438v-49.551C2111.765,4201.802,2099.762,4191.18,2085.502,4188.826z M2029.708,4222.521
		c-5.446,0-9.845-4.436-9.845-9.903c0-5.486,4.396-9.922,9.845-9.922c5.427,0,9.845,4.435,9.845,9.922
		C2039.553,4218.086,2035.136,4222.521,2029.708,4222.521z"/>
	<path opacity="0.8" fill="#FFFFFF" d="M2164.294,4268.764c-3.773-15.059-10.972-26.419-26.263-26.419h-19.688v23.112
		c0,17.918-15.35,33.034-32.84,33.034h-52.508c-14.376,0-26.263,12.177-26.263,26.438v49.551c0,14.105,12.372,22.374,26.263,26.42
		c16.633,4.844,32.606,5.72,52.508,0c13.229-3.793,26.263-11.401,26.263-26.42v-19.821h-52.508v-6.615h78.772
		c15.271,0,20.952-10.584,26.263-26.42C2169.78,4305.319,2169.546,4289.679,2164.294,4268.764z M2088.79,4367.865
		c5.446,0,9.845,4.436,9.845,9.903c0,5.486-4.397,9.922-9.845,9.922c-5.427,0-9.845-4.435-9.845-9.922
		C2078.944,4372.3,2083.361,4367.865,2088.79,4367.865z"/>
</g>
<g transform="matrix(.1617 0 0 .158089 -107.53764 -81.66187)" opacity="0.35">
	<path fill="#FFFFFF" d="M8660.246,3539.833c-18.055-2.977-37.411-2.646-52.508,0c-22.235,3.891-26.263,12.061-26.263,27.08
		l-0.001-0.001v19.823h52.527v6.615h-72.234c-15.272,0-28.638,9.125-32.821,26.42c-4.824,19.825-5.038,32.158,0,52.859
		c3.735,15.408,12.627,26.42,27.898,26.42h18.055v-23.774c0-17.178,15.019-32.372,32.839-32.372h52.508
		c14.61,0,26.264-11.905,26.264-26.438v-49.551C8686.51,3552.81,8674.507,3542.187,8660.246,3539.833z M8604.452,3573.528
		c-5.446,0-9.845-4.435-9.845-9.902c0-5.486,4.396-9.922,9.845-9.922c5.428,0,9.845,4.435,9.845,9.922
		C8614.297,3569.094,8609.881,3573.528,8604.452,3573.528z"/>
	<path opacity="0.8" fill="#FFFFFF" d="M8739.039,3619.772c-3.773-15.059-10.973-26.42-26.264-26.42h-19.688v23.112
		c0,17.918-15.35,33.034-32.839,33.034h-52.509c-14.376,0-26.263,12.177-26.263,26.437v49.551c0,14.105,12.372,22.374,26.263,26.42
		c16.634,4.844,32.606,5.72,52.509,0c13.229-3.793,26.263-11.401,26.263-26.42v-19.822h-52.508v-6.615h78.772
		c15.271,0,20.952-10.584,26.264-26.42C8744.524,3656.327,8744.291,3640.686,8739.039,3619.772z M8663.534,3718.873
		c5.446,0,9.845,4.435,9.845,9.902c0,5.486-4.396,9.922-9.845,9.922c-5.428,0-9.845-4.435-9.845-9.922
		C8653.689,3723.307,8658.105,3718.873,8663.534,3718.873z"/>
</g>
<g opacity="0.4">
	<path opacity="0.2" fill-rule="evenodd" clip-rule="evenodd" fill="#FFFFFF" d="M732.977,435.595
		c-2.436,0.863-4.787,3.383-7.053,7.559c-3.4,6.264-7.791,15.166-1.745,22.214c2.797,3.261,7.416,5.185,13.478,2.137
		c4.87-2.448,6.224-9.475,4.476-12.777c-3.606-6.811-7.265-8.491-8.245-12.715C733.235,439.198,732.931,437.059,732.977,435.595z"/>
	<path opacity="0.4" fill-rule="evenodd" clip-rule="evenodd" fill="#FFFFFF" d="M732.977,435.511
		c-2.448,0.872-4.799,3.392-7.053,7.559c-3.382,6.251-7.791,15.166-1.745,22.214c2.797,3.261,7.357,4.314,9.887,2.38
		c1.649-1.261,2.771-2.462,3.417-4.994c0.72-2.819,0.167-6.615-0.211-8.359c-0.479-2.206-0.635-4.628-0.47-7.265
		c-0.058-0.071-0.102-0.124-0.131-0.159c-1.317-1.612-2.333-3.016-2.784-4.958C733.235,439.114,732.931,436.974,732.977,435.511z"/>
	<path opacity="0.6" fill-rule="evenodd" clip-rule="evenodd" fill="#FFFFFF" d="M730.95,436.608
		c-2.28,1.802-3.975,4.825-5.086,9.068c-1.666,6.365-1.846,12.234-1.259,15.648c1.139,6.618,7.043,9.13,13.099,6.05
		c3.727-1.896,5.279-5.965,5.197-10.382c-0.085-4.573-8.923-9.757-10.488-13.573C731.37,440.873,730.882,438.603,730.95,436.608z"/>
	<path opacity="0.4" fill-rule="evenodd" clip-rule="evenodd" fill="#FFFFFF" d="M736.73,448.54
		c2.734,3.507,3.331,5.948,1.788,7.324c-2.313,2.063-7.971,3.41-11.491,0.914c-2.346-1.664-3.234-5.234-2.663-10.709
		c-0.969,2.023-1.788,4.072-2.457,6.147c-0.669,2.075-0.865,4.247-0.586,6.516c0.839,1.697,2.878,2.83,6.118,3.4
		c4.86,0.855,9.46,0.432,12.547-1.124c2.058-1.037,3.031-2.07,2.92-3.098c0.074-1.518-0.394-2.963-1.404-4.335
		S738.901,450.525,736.73,448.54z"/>
	<path opacity="0.3" fill-rule="evenodd" clip-rule="evenodd" fill="#FFFFFF" d="M726.044,445.039
		c-0.023,2.533,0.628,4.94,1.954,7.223c1.988,3.424,4.308,6.807,7.781,9.611c2.315,1.87,4.165,2.474,5.549,1.812
		c-1.137,2.035-2.346,3.032-3.628,2.992c-1.922-0.061-4.265-0.901-8.019-5.413c-2.503-3.008-4.215-5.853-5.137-8.536
		c0.146-1.064,0.301-2.124,0.465-3.18C725.173,448.493,725.518,446.99,726.044,445.039z"/>
	<path opacity="0.1" fill-rule="evenodd" clip-rule="evenodd" fill="#FFFFFF" d="M731.917,448.514c0.212,2.063,1.015,5.364,0,7.561
		c-1.015,2.197-5.705,6.167-4.41,9.664c1.294,3.497,4.449,2.712,6.428,1.1c1.979-1.612,3.038-4.232,3.273-6.075
		c0.235-1.843-0.562-5.389-0.821-8.473c-0.173-2.056-0.056-3.819,0.352-5.289l-0.606-0.763l-3.569-1.057
		C731.991,446.028,731.776,447.139,731.917,448.514z"/>
	<path opacity="0.4" fill-rule="evenodd" clip-rule="evenodd" fill="#FFFFFF" d="M733.191,438.295
		c-1.155,0.488-2.25,1.455-3.283,2.901c-1.551,2.169-2.34,3.47-1.756,7.77c0.39,2.867,0.669,5.504,0.837,7.912l4.999-14.524
		c-0.184-0.74-0.337-1.408-0.459-2.005C733.407,439.753,733.295,439.068,733.191,438.295z"/>
	<path fill-rule="evenodd" clip-rule="evenodd" fill="#FFFFFF" fill-opacity="0.3163" d="M733.978,442.326
		c-1.269,0.741-2.252,2.258-2.95,4.552s-1.336,5.501-1.915,9.622c0.772-2.621,1.284-4.519,1.536-5.694
		c0.378-1.763,0.508-4.257,1.512-5.95C732.832,443.727,733.437,442.883,733.978,442.326z"/>
	<path fill-rule="evenodd" clip-rule="evenodd" fill="#EDEDED" fill-opacity="0.6033" d="M729.152,438.295
		c-1.149,1.372-2.144,2.827-2.986,4.364s-1.444,2.684-1.805,3.441c-0.112,0.564-0.167,1.397-0.164,2.497s0.098,2.325,0.286,3.672
		c0.164-2.638,0.668-5.198,1.51-7.682C726.835,442.104,727.888,440.007,729.152,438.295z"/>
</g>
<g opacity="0.4">
	<path opacity="0.2" fill-rule="evenodd" clip-rule="evenodd" fill="#FFFFFF" d="M1037.398,175.297
		c-2.436,0.863-4.787,3.383-7.053,7.559c-3.4,6.264-7.791,15.166-1.745,22.214c2.797,3.261,7.417,5.185,13.478,2.137
		c4.87-2.448,6.224-9.475,4.476-12.777c-3.606-6.811-7.265-8.491-8.245-12.715C1037.656,178.9,1037.352,176.761,1037.398,175.297z"
		/>
	<path opacity="0.4" fill-rule="evenodd" clip-rule="evenodd" fill="#FFFFFF" d="M1037.398,175.213
		c-2.448,0.872-4.799,3.392-7.053,7.559c-3.381,6.251-7.791,15.166-1.745,22.214c2.797,3.261,7.357,4.314,9.887,2.38
		c1.649-1.261,2.771-2.462,3.417-4.994c0.72-2.819,0.167-6.615-0.211-8.359c-0.479-2.206-0.635-4.628-0.47-7.265
		c-0.058-0.071-0.102-0.124-0.131-0.159c-1.317-1.612-2.333-3.016-2.784-4.958C1037.656,178.816,1037.352,176.676,1037.398,175.213z
		"/>
	<path opacity="0.6" fill-rule="evenodd" clip-rule="evenodd" fill="#FFFFFF" d="M1035.371,176.31
		c-2.28,1.802-3.975,4.825-5.086,9.068c-1.666,6.365-1.846,12.234-1.259,15.648c1.139,6.618,7.043,9.13,13.099,6.05
		c3.727-1.896,5.279-5.965,5.197-10.382c-0.085-4.573-8.923-9.757-10.488-13.573C1035.791,180.575,1035.303,178.305,1035.371,176.31
		z"/>
	<path opacity="0.4" fill-rule="evenodd" clip-rule="evenodd" fill="#FFFFFF" d="M1041.151,188.242
		c2.734,3.507,3.331,5.948,1.788,7.324c-2.313,2.063-7.971,3.41-11.491,0.914c-2.346-1.664-3.234-5.234-2.663-10.709
		c-0.969,2.023-1.788,4.072-2.457,6.147c-0.669,2.075-0.865,4.247-0.586,6.516c0.839,1.697,2.878,2.83,6.118,3.4
		c4.86,0.855,9.46,0.432,12.547-1.124c2.058-1.037,3.031-2.07,2.92-3.098c0.074-1.518-0.394-2.963-1.404-4.335
		C1044.913,191.906,1043.322,190.227,1041.151,188.242z"/>
	<path opacity="0.3" fill-rule="evenodd" clip-rule="evenodd" fill="#FFFFFF" d="M1030.466,184.741
		c-0.023,2.533,0.628,4.94,1.954,7.223c1.988,3.424,4.308,6.807,7.781,9.611c2.315,1.87,4.165,2.474,5.549,1.812
		c-1.137,2.035-2.346,3.032-3.627,2.992c-1.922-0.061-4.265-0.901-8.019-5.413c-2.503-3.008-4.215-5.853-5.137-8.536
		c0.146-1.064,0.301-2.124,0.465-3.18C1029.594,188.195,1029.939,186.692,1030.466,184.741z"/>
	<path opacity="0.1" fill-rule="evenodd" clip-rule="evenodd" fill="#FFFFFF" d="M1036.339,188.216c0.212,2.063,1.015,5.364,0,7.561
		s-5.705,6.167-4.41,9.664c1.294,3.497,4.449,2.712,6.428,1.1c1.979-1.612,3.038-4.232,3.273-6.075
		c0.235-1.843-0.562-5.389-0.821-8.473c-0.173-2.056-0.056-3.819,0.352-5.289l-0.606-0.763l-3.569-1.057
		C1036.412,185.73,1036.197,186.841,1036.339,188.216z"/>
	<path opacity="0.4" fill-rule="evenodd" clip-rule="evenodd" fill="#FFFFFF" d="M1037.613,177.997
		c-1.155,0.488-2.25,1.455-3.283,2.901c-1.551,2.169-2.34,3.47-1.756,7.77c0.39,2.867,0.669,5.504,0.837,7.912l4.999-14.524
		c-0.184-0.74-0.337-1.408-0.458-2.005C1037.829,179.455,1037.716,178.77,1037.613,177.997z"/>
	<path fill-rule="evenodd" clip-rule="evenodd" fill="#FFFFFF" fill-opacity="0.3163" d="M1038.399,182.028
		c-1.269,0.741-2.252,2.258-2.95,4.552c-0.698,2.294-1.336,5.501-1.915,9.622c0.772-2.621,1.284-4.519,1.536-5.694
		c0.378-1.763,0.508-4.257,1.512-5.95C1037.253,183.429,1037.858,182.586,1038.399,182.028z"/>
	<path fill-rule="evenodd" clip-rule="evenodd" fill="#EDEDED" fill-opacity="0.6033" d="M1033.573,177.997
		c-1.149,1.372-2.144,2.827-2.986,4.364c-0.842,1.537-1.444,2.684-1.805,3.441c-0.112,0.564-0.167,1.397-0.164,2.497
		c0.003,1.101,0.098,2.325,0.286,3.672c0.164-2.638,0.668-5.198,1.51-7.682S1032.309,179.709,1033.573,177.997z"/>
</g>
<g opacity="0.4">
	<path opacity="0.2" fill-rule="evenodd" clip-rule="evenodd" fill="#FFFFFF" d="M1029.367,619.208
		c-2.436,0.863-4.787,3.383-7.053,7.559c-3.4,6.264-7.791,15.166-1.745,22.214c2.797,3.261,7.417,5.185,13.478,2.137
		c4.87-2.448,6.224-9.475,4.476-12.777c-3.606-6.811-7.265-8.491-8.245-12.715C1029.625,622.811,1029.322,620.672,1029.367,619.208z
		"/>
	<path opacity="0.4" fill-rule="evenodd" clip-rule="evenodd" fill="#FFFFFF" d="M1029.367,619.124
		c-2.448,0.872-4.799,3.392-7.053,7.559c-3.382,6.251-7.791,15.166-1.745,22.214c2.797,3.261,7.357,4.314,9.887,2.38
		c1.649-1.261,2.771-2.462,3.417-4.994c0.72-2.819,0.167-6.615-0.211-8.359c-0.479-2.206-0.635-4.628-0.47-7.265
		c-0.058-0.071-0.102-0.124-0.131-0.159c-1.317-1.612-2.333-3.016-2.784-4.958C1029.625,622.727,1029.322,620.587,1029.367,619.124z
		"/>
	<path opacity="0.6" fill-rule="evenodd" clip-rule="evenodd" fill="#FFFFFF" d="M1027.34,620.221
		c-2.28,1.802-3.975,4.825-5.086,9.068c-1.666,6.365-1.846,12.234-1.259,15.648c1.139,6.618,7.043,9.13,13.099,6.05
		c3.727-1.896,5.279-5.965,5.197-10.382c-0.085-4.573-8.923-9.757-10.488-13.573C1027.76,624.486,1027.273,622.216,1027.34,620.221z
		"/>
	<path opacity="0.4" fill-rule="evenodd" clip-rule="evenodd" fill="#FFFFFF" d="M1033.121,632.153
		c2.734,3.507,3.331,5.948,1.788,7.324c-2.314,2.063-7.971,3.41-11.491,0.914c-2.346-1.664-3.234-5.233-2.663-10.709
		c-0.969,2.023-1.788,4.072-2.457,6.147c-0.669,2.075-0.865,4.247-0.586,6.516c0.839,1.697,2.878,2.83,6.118,3.4
		c4.86,0.855,9.46,0.432,12.547-1.124c2.058-1.037,3.031-2.07,2.92-3.098c0.074-1.518-0.394-2.963-1.404-4.335
		C1036.882,635.817,1035.292,634.138,1033.121,632.153z"/>
	<path opacity="0.3" fill-rule="evenodd" clip-rule="evenodd" fill="#FFFFFF" d="M1022.435,628.652
		c-0.023,2.533,0.628,4.94,1.954,7.223c1.988,3.424,4.308,6.807,7.781,9.611c2.315,1.87,4.165,2.474,5.549,1.812
		c-1.137,2.035-2.346,3.032-3.627,2.992c-1.922-0.061-4.265-0.901-8.019-5.413c-2.503-3.008-4.215-5.853-5.137-8.536
		c0.146-1.064,0.301-2.124,0.465-3.18C1021.564,632.106,1021.909,630.602,1022.435,628.652z"/>
	<path opacity="0.1" fill-rule="evenodd" clip-rule="evenodd" fill="#FFFFFF" d="M1028.308,632.127c0.212,2.063,1.015,5.364,0,7.561
		s-5.705,6.167-4.41,9.664c1.294,3.497,4.449,2.712,6.428,1.1c1.979-1.612,3.038-4.232,3.273-6.075
		c0.235-1.843-0.562-5.389-0.821-8.473c-0.173-2.056-0.056-3.819,0.351-5.289l-0.606-0.763l-3.569-1.057
		C1028.382,629.641,1028.166,630.752,1028.308,632.127z"/>
	<path opacity="0.4" fill-rule="evenodd" clip-rule="evenodd" fill="#FFFFFF" d="M1029.582,621.908
		c-1.155,0.488-2.25,1.455-3.283,2.901c-1.551,2.169-2.34,3.47-1.756,7.77c0.39,2.867,0.669,5.504,0.837,7.912l4.999-14.524
		c-0.184-0.74-0.337-1.408-0.459-2.005S1029.685,622.681,1029.582,621.908z"/>
	<path fill-rule="evenodd" clip-rule="evenodd" fill="#FFFFFF" fill-opacity="0.3163" d="M1030.369,625.939
		c-1.269,0.741-2.252,2.258-2.95,4.552c-0.698,2.294-1.336,5.501-1.915,9.622c0.772-2.621,1.284-4.519,1.536-5.694
		c0.378-1.763,0.508-4.257,1.512-5.95C1029.222,627.34,1029.828,626.496,1030.369,625.939z"/>
	<path fill-rule="evenodd" clip-rule="evenodd" fill="#EDEDED" fill-opacity="0.6033" d="M1025.542,621.908
		c-1.149,1.372-2.144,2.827-2.986,4.364c-0.842,1.537-1.444,2.684-1.805,3.441c-0.112,0.564-0.167,1.397-0.164,2.497
		s0.098,2.325,0.286,3.672c0.164-2.638,0.668-5.198,1.51-7.682C1023.225,625.717,1024.278,623.62,1025.542,621.908z"/>
</g>
<g opacity="0.4">
	<path opacity="0.2" fill-rule="evenodd" clip-rule="evenodd" fill="#FFFFFF" d="M375.237,337.488
		c-2.436,0.863-4.787,3.383-7.053,7.559c-3.4,6.264-7.791,15.166-1.744,22.214c2.797,3.261,7.416,5.185,13.478,2.137
		c4.87-2.448,6.224-9.475,4.476-12.777c-3.606-6.811-7.265-8.491-8.245-12.715C375.495,341.091,375.191,338.951,375.237,337.488z"/>
	<path opacity="0.4" fill-rule="evenodd" clip-rule="evenodd" fill="#FFFFFF" d="M375.237,337.404
		c-2.448,0.872-4.799,3.392-7.053,7.559c-3.382,6.251-7.791,15.166-1.744,22.214c2.797,3.261,7.357,4.314,9.887,2.38
		c1.649-1.261,2.771-2.462,3.417-4.994c0.72-2.819,0.167-6.615-0.211-8.359c-0.479-2.206-0.635-4.628-0.47-7.265
		c-0.058-0.071-0.102-0.124-0.131-0.159c-1.317-1.612-2.333-3.016-2.784-4.958C375.495,341.007,375.191,338.867,375.237,337.404z"/>
	<path opacity="0.6" fill-rule="evenodd" clip-rule="evenodd" fill="#FFFFFF" d="M373.21,338.5c-2.28,1.802-3.975,4.825-5.086,9.068
		c-1.666,6.365-1.846,12.234-1.259,15.648c1.139,6.618,7.043,9.13,13.099,6.05c3.727-1.896,5.279-5.965,5.197-10.382
		c-0.085-4.573-8.923-9.757-10.488-13.573C373.63,342.766,373.142,340.496,373.21,338.5z"/>
	<path opacity="0.4" fill-rule="evenodd" clip-rule="evenodd" fill="#FFFFFF" d="M378.991,350.433
		c2.734,3.507,3.331,5.948,1.788,7.324c-2.314,2.063-7.971,3.41-11.491,0.914c-2.346-1.664-3.234-5.233-2.663-10.709
		c-0.969,2.023-1.788,4.072-2.457,6.147s-0.865,4.247-0.586,6.516c0.839,1.697,2.878,2.83,6.118,3.4
		c4.86,0.855,9.46,0.432,12.547-1.124c2.058-1.037,3.031-2.07,2.92-3.098c0.074-1.518-0.394-2.963-1.404-4.335
		C382.752,354.096,381.161,352.418,378.991,350.433z"/>
	<path opacity="0.3" fill-rule="evenodd" clip-rule="evenodd" fill="#FFFFFF" d="M368.305,346.931
		c-0.023,2.533,0.628,4.94,1.954,7.223c1.988,3.424,4.308,6.807,7.781,9.611c2.315,1.87,4.165,2.474,5.549,1.812
		c-1.137,2.035-2.346,3.032-3.628,2.992c-1.922-0.061-4.265-0.901-8.019-5.413c-2.503-3.008-4.215-5.853-5.137-8.536
		c0.146-1.064,0.301-2.124,0.465-3.18C367.434,350.386,367.779,348.882,368.305,346.931z"/>
	<path opacity="0.1" fill-rule="evenodd" clip-rule="evenodd" fill="#FFFFFF" d="M374.178,350.407c0.212,2.063,1.015,5.364,0,7.561
		c-1.015,2.197-5.705,6.167-4.41,9.664s4.449,2.712,6.428,1.1c1.979-1.612,3.038-4.232,3.273-6.075
		c0.235-1.843-0.562-5.389-0.821-8.473c-0.173-2.056-0.056-3.819,0.352-5.289l-0.606-0.763l-3.569-1.057
		C374.251,347.921,374.036,349.032,374.178,350.407z"/>
	<path opacity="0.4" fill-rule="evenodd" clip-rule="evenodd" fill="#FFFFFF" d="M375.452,340.188
		c-1.155,0.488-2.25,1.455-3.283,2.901c-1.551,2.169-2.34,3.47-1.756,7.77c0.39,2.867,0.669,5.504,0.837,7.912l4.999-14.524
		c-0.184-0.74-0.337-1.408-0.459-2.005S375.555,340.961,375.452,340.188z"/>
	<path fill-rule="evenodd" clip-rule="evenodd" fill="#FFFFFF" fill-opacity="0.3163" d="M376.239,344.218
		c-1.269,0.741-2.252,2.258-2.95,4.552c-0.698,2.294-1.336,5.501-1.915,9.622c0.772-2.621,1.284-4.519,1.536-5.694
		c0.378-1.763,0.508-4.257,1.512-5.95C375.092,345.619,375.698,344.776,376.239,344.218z"/>
	<path fill-rule="evenodd" clip-rule="evenodd" fill="#EDEDED" fill-opacity="0.6033" d="M371.412,340.188
		c-1.149,1.372-2.144,2.827-2.986,4.364c-0.842,1.537-1.444,2.684-1.805,3.441c-0.112,0.564-0.167,1.397-0.164,2.497
		c0.003,1.101,0.098,2.325,0.286,3.672c0.164-2.638,0.668-5.198,1.51-7.682C369.095,343.997,370.148,341.9,371.412,340.188z"/>
</g>
<g opacity="0.4">
	<path opacity="0.2" fill-rule="evenodd" clip-rule="evenodd" fill="#FFFFFF" d="M630.215,30.644
		c-2.436,0.863-4.787,3.383-7.053,7.559c-3.4,6.264-7.791,15.166-1.744,22.214c2.797,3.261,7.416,5.185,13.478,2.137
		c4.87-2.448,6.224-9.475,4.476-12.777c-3.606-6.811-7.265-8.491-8.245-12.715C630.473,34.247,630.169,32.107,630.215,30.644z"/>
	<path opacity="0.4" fill-rule="evenodd" clip-rule="evenodd" fill="#FFFFFF" d="M630.215,30.56
		c-2.448,0.872-4.799,3.392-7.053,7.559c-3.381,6.251-7.791,15.166-1.744,22.214c2.797,3.261,7.357,4.314,9.887,2.38
		c1.649-1.261,2.771-2.462,3.417-4.994c0.72-2.819,0.167-6.615-0.211-8.359c-0.479-2.206-0.635-4.628-0.47-7.265
		c-0.058-0.071-0.102-0.124-0.131-0.159c-1.317-1.612-2.334-3.016-2.784-4.958C630.473,34.163,630.169,32.023,630.215,30.56z"/>
	<path opacity="0.6" fill-rule="evenodd" clip-rule="evenodd" fill="#FFFFFF" d="M628.188,31.656
		c-2.28,1.802-3.975,4.825-5.086,9.068c-1.666,6.365-1.846,12.234-1.259,15.648c1.139,6.618,7.043,9.13,13.099,6.05
		c3.727-1.896,5.279-5.965,5.197-10.382c-0.085-4.573-8.923-9.757-10.488-13.573C628.608,35.922,628.12,33.652,628.188,31.656z"/>
	<path opacity="0.4" fill-rule="evenodd" clip-rule="evenodd" fill="#FFFFFF" d="M633.968,43.589
		c2.734,3.507,3.331,5.948,1.788,7.324c-2.314,2.063-7.971,3.41-11.491,0.914c-2.346-1.664-3.234-5.234-2.663-10.709
		c-0.969,2.023-1.788,4.072-2.457,6.147s-0.865,4.247-0.586,6.516c0.839,1.697,2.878,2.83,6.118,3.4
		c4.86,0.855,9.46,0.432,12.547-1.124c2.058-1.037,3.031-2.07,2.92-3.098c0.074-1.518-0.394-2.963-1.404-4.335
		C637.729,47.252,636.139,45.574,633.968,43.589z"/>
	<path opacity="0.3" fill-rule="evenodd" clip-rule="evenodd" fill="#FFFFFF" d="M623.282,40.087
		c-0.023,2.533,0.628,4.94,1.954,7.223c1.988,3.424,4.308,6.807,7.781,9.611c2.315,1.87,4.165,2.474,5.549,1.812
		c-1.137,2.035-2.346,3.032-3.628,2.992c-1.922-0.061-4.265-0.901-8.019-5.413c-2.503-3.008-4.215-5.853-5.137-8.536
		c0.146-1.064,0.301-2.124,0.465-3.18S622.756,42.038,623.282,40.087z"/>
	<path opacity="0.1" fill-rule="evenodd" clip-rule="evenodd" fill="#FFFFFF" d="M629.155,43.563c0.212,2.063,1.015,5.364,0,7.561
		c-1.015,2.197-5.705,6.167-4.41,9.664c1.294,3.497,4.449,2.712,6.428,1.1c1.979-1.612,3.038-4.232,3.273-6.075
		c0.235-1.843-0.562-5.389-0.821-8.473c-0.173-2.056-0.056-3.819,0.352-5.289l-0.606-0.763l-3.569-1.057
		C629.229,41.077,629.014,42.187,629.155,43.563z"/>
	<path opacity="0.4" fill-rule="evenodd" clip-rule="evenodd" fill="#FFFFFF" d="M630.429,33.344
		c-1.155,0.488-2.25,1.455-3.283,2.901c-1.551,2.169-2.34,3.47-1.756,7.77c0.39,2.867,0.669,5.504,0.837,7.912l4.999-14.524
		c-0.184-0.74-0.337-1.408-0.458-2.005C630.645,34.801,630.533,34.117,630.429,33.344z"/>
	<path fill-rule="evenodd" clip-rule="evenodd" fill="#FFFFFF" fill-opacity="0.3163" d="M631.216,37.374
		c-1.269,0.741-2.252,2.258-2.95,4.552c-0.698,2.294-1.336,5.501-1.915,9.622c0.772-2.621,1.284-4.519,1.536-5.694
		c0.378-1.763,0.508-4.257,1.512-5.95C630.07,38.775,630.675,37.932,631.216,37.374z"/>
	<path fill-rule="evenodd" clip-rule="evenodd" fill="#EDEDED" fill-opacity="0.6033" d="M626.39,33.344
		c-1.149,1.372-2.144,2.827-2.986,4.364c-0.842,1.537-1.444,2.684-1.805,3.441c-0.112,0.564-0.167,1.397-0.164,2.497
		c0.003,1.101,0.098,2.325,0.286,3.672c0.164-2.638,0.668-5.198,1.51-7.682C624.073,37.153,625.126,35.055,626.39,33.344z"/>
</g>
<g opacity="0.4">
	<path opacity="0.2" fill-rule="evenodd" clip-rule="evenodd" fill="#FFFFFF" d="M1323.582,310.45
		c-2.436,0.863-4.787,3.383-7.053,7.559c-3.4,6.264-7.791,15.166-1.745,22.214c2.797,3.261,7.416,5.185,13.478,2.137
		c4.87-2.448,6.224-9.475,4.476-12.777c-3.606-6.811-7.265-8.491-8.245-12.715C1323.84,314.053,1323.536,311.913,1323.582,310.45z"
		/>
	<path opacity="0.4" fill-rule="evenodd" clip-rule="evenodd" fill="#FFFFFF" d="M1323.582,310.365
		c-2.448,0.872-4.799,3.392-7.053,7.559c-3.382,6.251-7.791,15.166-1.745,22.214c2.797,3.261,7.357,4.314,9.887,2.38
		c1.649-1.261,2.771-2.462,3.417-4.994c0.72-2.819,0.167-6.615-0.211-8.359c-0.479-2.206-0.635-4.628-0.47-7.265
		c-0.058-0.071-0.102-0.124-0.131-0.159c-1.317-1.612-2.333-3.016-2.784-4.958C1323.84,313.968,1323.536,311.829,1323.582,310.365z"
		/>
	<path opacity="0.6" fill-rule="evenodd" clip-rule="evenodd" fill="#FFFFFF" d="M1321.555,311.462
		c-2.28,1.802-3.975,4.825-5.086,9.068c-1.666,6.365-1.846,12.234-1.259,15.648c1.139,6.618,7.043,9.13,13.099,6.05
		c3.727-1.896,5.279-5.965,5.197-10.382c-0.085-4.573-8.923-9.757-10.488-13.573
		C1321.975,315.728,1321.488,313.458,1321.555,311.462z"/>
	<path opacity="0.4" fill-rule="evenodd" clip-rule="evenodd" fill="#FFFFFF" d="M1327.336,323.395
		c2.734,3.507,3.33,5.948,1.788,7.324c-2.313,2.063-7.971,3.41-11.491,0.914c-2.346-1.664-3.234-5.234-2.663-10.709
		c-0.969,2.023-1.788,4.072-2.457,6.147c-0.669,2.075-0.865,4.247-0.586,6.516c0.839,1.697,2.878,2.83,6.118,3.4
		c4.86,0.855,9.46,0.432,12.547-1.124c2.058-1.037,3.031-2.07,2.92-3.098c0.074-1.518-0.394-2.963-1.404-4.335
		C1331.097,327.058,1329.506,325.38,1327.336,323.395z"/>
	<path opacity="0.3" fill-rule="evenodd" clip-rule="evenodd" fill="#FFFFFF" d="M1316.65,319.893
		c-0.023,2.533,0.628,4.94,1.954,7.223c1.988,3.424,4.308,6.807,7.781,9.611c2.315,1.87,4.165,2.474,5.549,1.812
		c-1.137,2.035-2.346,3.032-3.628,2.992c-1.922-0.061-4.265-0.901-8.019-5.413c-2.503-3.008-4.215-5.853-5.137-8.536
		c0.146-1.064,0.301-2.124,0.465-3.18C1315.779,323.347,1316.124,321.844,1316.65,319.893z"/>
	<path opacity="0.1" fill-rule="evenodd" clip-rule="evenodd" fill="#FFFFFF" d="M1322.523,323.369c0.212,2.063,1.015,5.364,0,7.561
		c-1.015,2.197-5.705,6.167-4.41,9.664c1.294,3.497,4.449,2.712,6.428,1.1c1.979-1.612,3.038-4.232,3.273-6.075
		s-0.562-5.389-0.821-8.473c-0.173-2.056-0.056-3.819,0.352-5.289l-0.606-0.763l-3.569-1.057
		C1322.596,320.883,1322.381,321.993,1322.523,323.369z"/>
	<path opacity="0.4" fill-rule="evenodd" clip-rule="evenodd" fill="#FFFFFF" d="M1323.797,313.149
		c-1.155,0.488-2.25,1.455-3.283,2.901c-1.551,2.169-2.34,3.47-1.756,7.77c0.39,2.867,0.669,5.504,0.837,7.912l4.999-14.524
		c-0.184-0.74-0.337-1.408-0.458-2.005C1324.013,314.607,1323.9,313.922,1323.797,313.149z"/>
	<path fill-rule="evenodd" clip-rule="evenodd" fill="#FFFFFF" fill-opacity="0.3163" d="M1324.584,317.18
		c-1.269,0.741-2.252,2.258-2.95,4.552c-0.698,2.294-1.336,5.501-1.915,9.622c0.772-2.621,1.284-4.519,1.536-5.694
		c0.378-1.763,0.507-4.257,1.512-5.95C1323.437,318.581,1324.043,317.738,1324.584,317.18z"/>
	<path fill-rule="evenodd" clip-rule="evenodd" fill="#EDEDED" fill-opacity="0.6033" d="M1319.757,313.149
		c-1.149,1.372-2.144,2.827-2.986,4.364c-0.842,1.537-1.443,2.684-1.805,3.441c-0.112,0.564-0.167,1.397-0.164,2.497
		s0.098,2.325,0.286,3.672c0.164-2.638,0.668-5.198,1.51-7.682C1317.44,316.959,1318.493,314.861,1319.757,313.149z"/>
</g>
</svg>
