<?xml version="1.0" encoding="utf-8"?>
<!-- Generator: Adobe Illustrator 22.1.0, SVG Export Plug-In . SVG Version: 6.00 Build 0)  -->
<svg version="1.1" id="Layer_1" xmlns="http://www.w3.org/2000/svg" xmlns:xlink="http://www.w3.org/1999/xlink" x="0px" y="0px"
	 viewBox="0 0 1411.5 738.4" style="enable-background:new 0 0 1411.5 738.4;" xml:space="preserve">
<style type="text/css">
	.st0{opacity:0.5;}
	.st1{opacity:0.4;fill:#FFFFFF;enable-background:new    ;}
	.st2{opacity:0.4;}
	.st3{fill:#FFFFFF;}
	.st4{opacity:0.6;fill:#FFFFFF;enable-background:new    ;}
	.st5{opacity:0.5;fill:#FFFFFF;enable-background:new    ;}
	.st6{opacity:0.5;enable-background:new    ;}
	.st7{opacity:0.5;fill:#FFFFFF;}
</style>
<g>
	<g class="st0">
		<path class="st1" d="M39.3,38.3h8.8c2.6,0,4.5,0.8,5.6,2.2c1.2,1.5,1.5,3.5,1.2,6c-0.2,1.2-0.5,2.3-1,3.4c-0.5,1.1-1.2,2.2-2.1,3
			c-1.1,1.1-2.3,1.9-3.5,2.2s-2.5,0.5-3.9,0.5h-4L39.2,62h-4.6L39.3,38.3z M43.2,42.1l-2,9.9c0.1,0,0.3,0,0.4,0h0.5
			c2.1,0,3.9-0.2,5.3-0.6c1.4-0.5,2.4-2.1,2.8-4.8c0.4-2.3,0-3.6-1.2-4c-1.2-0.4-2.6-0.5-4.4-0.5c-0.3,0-0.5,0-0.8,0L43.2,42.1
			L43.2,42.1z M60.2,32h4.5l-1.3,6.3h4.1c2.2,0,3.9,0.5,5,1.4c1.1,0.9,1.5,2.5,1,5l-2.2,11h-4.6l2.1-10.5c0.2-1.1,0.2-1.9-0.2-2.3
			c-0.4-0.5-1.1-0.7-2.3-0.7l-3.7,0L60,55.7h-4.5L60.2,32z M78.4,38.3h8.8c2.6,0,4.5,0.8,5.6,2.2c1.2,1.5,1.6,3.5,1.2,6
			c-0.2,1.2-0.5,2.3-1,3.4c-0.5,1.1-1.2,2.2-2.1,3c-1.1,1.1-2.3,1.9-3.5,2.2s-2.6,0.5-3.9,0.5h-4L78.3,62h-4.6L78.4,38.3z
			 M82.3,42.1l-2,9.9c0.1,0,0.3,0,0.4,0h0.5c2.1,0,3.9-0.2,5.3-0.6c1.4-0.5,2.4-2.1,2.8-4.8c0.4-2.3,0-3.6-1.2-4
			c-1.2-0.4-2.6-0.5-4.4-0.5c-0.3,0-0.5,0-0.8,0L82.3,42.1L82.3,42.1z M488.6,231.4h8.8c2.6,0,4.5,0.8,5.6,2.2
			c1.2,1.5,1.6,3.5,1.2,6c-0.2,1.2-0.5,2.3-1,3.4c-0.5,1.1-1.2,2.2-2.1,3c-1.1,1.1-2.3,1.9-3.5,2.2s-2.5,0.5-3.9,0.5h-4l-1.3,6.3
			h-4.6L488.6,231.4z M492.5,235.2l-2,9.9c0.1,0,0.3,0,0.4,0h0.5c2.1,0,3.9-0.2,5.3-0.6c1.4-0.5,2.4-2.1,2.8-4.8
			c0.4-2.3,0-3.6-1.2-4c-1.2-0.4-2.6-0.5-4.4-0.5c-0.3,0-0.5,0-0.8,0L492.5,235.2L492.5,235.2z M509.5,225.1h4.6l-1.3,6.3h4.1
			c2.2,0,3.9,0.5,5,1.4c1.1,0.9,1.5,2.6,1,5l-2.2,11H516l2.1-10.5c0.2-1.1,0.2-1.9-0.2-2.3c-0.4-0.5-1.1-0.7-2.3-0.7l-3.7,0
			l-2.7,13.6h-4.6L509.5,225.1z M527.7,231.4h8.8c2.6,0,4.5,0.8,5.6,2.2c1.2,1.5,1.5,3.5,1.2,6c-0.2,1.2-0.5,2.3-1,3.4
			c-0.5,1.1-1.2,2.2-2.1,3c-1.1,1.1-2.3,1.9-3.5,2.2c-1.3,0.3-2.5,0.5-3.9,0.5h-4l-1.3,6.3H523L527.7,231.4z M531.6,235.2l-2,9.9
			c0.1,0,0.3,0,0.4,0h0.5c2.1,0,3.9-0.2,5.3-0.6c1.4-0.5,2.4-2.1,2.8-4.8c0.4-2.3,0-3.6-1.2-4c-1.2-0.4-2.6-0.5-4.4-0.5
			c-0.3,0-0.5,0-0.8,0L531.6,235.2L531.6,235.2z M171.6,413.4h8.8c2.6,0,4.5,0.8,5.6,2.2c1.2,1.5,1.6,3.5,1.2,6
			c-0.2,1.2-0.5,2.3-1,3.4c-0.5,1.1-1.2,2.2-2.1,3c-1.1,1.1-2.3,1.9-3.5,2.2s-2.6,0.5-3.9,0.5h-4l-1.3,6.3h-4.6L171.6,413.4z
			 M175.5,417.2l-2,9.9c0.1,0,0.3,0,0.4,0h0.5c2.1,0,3.9-0.2,5.3-0.6c1.4-0.5,2.4-2.1,2.8-4.8c0.4-2.3,0-3.6-1.2-4
			c-1.2-0.4-2.6-0.5-4.4-0.5c-0.3,0-0.5,0-0.8,0L175.5,417.2L175.5,417.2z M192.5,407.1h4.6l-1.3,6.3h4.1c2.2,0,3.9,0.5,5,1.4
			c1.1,0.9,1.5,2.5,1,5l-2.2,11H199l2.1-10.5c0.2-1.1,0.2-1.9-0.2-2.3c-0.4-0.5-1.1-0.7-2.3-0.7l-3.7,0l-2.7,13.6h-4.6L192.5,407.1z
			 M210.7,413.4h8.8c2.6,0,4.5,0.8,5.6,2.2c1.2,1.5,1.6,3.5,1.2,6c-0.2,1.2-0.5,2.3-1,3.4c-0.5,1.1-1.2,2.2-2.1,3
			c-1.1,1.1-2.3,1.9-3.5,2.2s-2.6,0.5-3.9,0.5h-4l-1.3,6.3H206L210.7,413.4z M214.6,417.2l-2,9.9c0.1,0,0.3,0,0.4,0h0.5
			c2.1,0,3.9-0.2,5.3-0.6c1.4-0.5,2.4-2.1,2.8-4.8c0.4-2.3,0-3.6-1.2-4c-1.2-0.4-2.6-0.5-4.4-0.5c-0.3,0-0.5,0-0.8,0L214.6,417.2
			L214.6,417.2z M349.6,591.4h8.8c2.6,0,4.5,0.8,5.6,2.2c1.2,1.5,1.5,3.5,1.2,6c-0.2,1.2-0.5,2.3-1,3.4c-0.5,1.1-1.2,2.2-2.1,3
			c-1.1,1.1-2.3,1.9-3.5,2.2s-2.5,0.5-3.9,0.5h-4l-1.3,6.3h-4.6L349.6,591.4z M353.5,595.2l-2,9.9c0.1,0,0.3,0,0.4,0h0.5
			c2.1,0,3.9-0.2,5.3-0.6c1.4-0.5,2.4-2.1,2.8-4.8c0.4-2.3,0-3.6-1.2-4c-1.2-0.4-2.6-0.5-4.4-0.5c-0.3,0-0.5,0-0.8,0L353.5,595.2
			L353.5,595.2z M370.5,585.1h4.5l-1.3,6.3h4.1c2.2,0,3.9,0.5,5,1.4c1.1,0.9,1.5,2.5,1,5l-2.2,11H377l2.1-10.5
			c0.2-1.1,0.2-1.9-0.2-2.3c-0.4-0.5-1.1-0.7-2.3-0.7l-3.7,0l-2.7,13.6h-4.5L370.5,585.1z M388.7,591.4h8.8c2.6,0,4.5,0.8,5.6,2.2
			c1.2,1.5,1.5,3.5,1.2,6c-0.2,1.2-0.5,2.3-1,3.4c-0.5,1.1-1.2,2.2-2.1,3c-1.1,1.1-2.3,1.9-3.5,2.2c-1.3,0.3-2.5,0.5-3.9,0.5h-4
			l-1.3,6.3H384L388.7,591.4z M392.6,595.2l-2,9.9c0.1,0,0.3,0,0.4,0h0.5c2.1,0,3.9-0.2,5.3-0.6c1.4-0.5,2.4-2.1,2.8-4.8
			c0.4-2.3,0-3.6-1.2-4c-1.2-0.4-2.6-0.5-4.4-0.5c-0.3,0-0.5,0-0.8,0L392.6,595.2L392.6,595.2z M749.6,394.4h8.8
			c2.6,0,4.5,0.8,5.6,2.2s1.6,3.5,1.2,6c-0.2,1.2-0.5,2.3-1,3.4c-0.5,1.1-1.2,2.2-2.1,3c-1.1,1.1-2.3,1.9-3.5,2.2s-2.5,0.5-3.9,0.5
			h-4l-1.3,6.3h-4.6L749.6,394.4z M753.5,398.2l-2,9.9c0.1,0,0.3,0,0.4,0h0.5c2.1,0,3.9-0.2,5.3-0.6c1.4-0.5,2.4-2.1,2.8-4.8
			c0.4-2.3,0-3.6-1.2-4c-1.2-0.4-2.6-0.5-4.4-0.5c-0.3,0-0.5,0-0.8,0L753.5,398.2L753.5,398.2z M770.5,388.1h4.6l-1.3,6.3h4.1
			c2.2,0,3.9,0.5,5,1.4c1.1,0.9,1.5,2.5,1,5l-2.2,11H777l2.1-10.5c0.2-1.1,0.2-1.9-0.2-2.3c-0.4-0.5-1.1-0.7-2.3-0.7l-3.7,0
			l-2.7,13.6h-4.6L770.5,388.1z M788.7,394.4h8.8c2.6,0,4.5,0.8,5.6,2.2s1.5,3.5,1.2,6c-0.2,1.2-0.5,2.3-1,3.4
			c-0.5,1.1-1.2,2.2-2.1,3c-1.1,1.1-2.3,1.9-3.5,2.2c-1.3,0.3-2.5,0.5-3.9,0.5h-4l-1.3,6.3H784L788.7,394.4z M792.6,398.2l-2,9.9
			c0.1,0,0.3,0,0.4,0h0.5c2.1,0,3.9-0.2,5.3-0.6c1.4-0.5,2.4-2.1,2.8-4.8c0.4-2.3,0-3.6-1.2-4c-1.2-0.4-2.6-0.5-4.4-0.5
			c-0.3,0-0.5,0-0.8,0L792.6,398.2L792.6,398.2z M665.6,119.4h8.8c2.6,0,4.5,0.8,5.6,2.2s1.6,3.5,1.2,6c-0.2,1.2-0.5,2.3-1,3.4
			c-0.5,1.1-1.2,2.2-2.1,3c-1.1,1.1-2.3,1.9-3.5,2.2s-2.5,0.5-3.9,0.5h-4l-1.3,6.3h-4.6L665.6,119.4z M669.5,123.2l-2,9.9
			c0.1,0,0.3,0,0.4,0h0.5c2.1,0,3.9-0.2,5.3-0.6c1.4-0.5,2.4-2.1,2.8-4.8c0.4-2.3,0-3.6-1.2-4c-1.2-0.4-2.6-0.5-4.4-0.5
			c-0.3,0-0.5,0-0.8,0L669.5,123.2L669.5,123.2z M686.5,113.1h4.6l-1.3,6.3h4.1c2.2,0,3.9,0.5,5,1.4c1.1,0.9,1.5,2.6,1,5l-2.2,11
			H693l2.1-10.5c0.2-1.1,0.2-1.9-0.2-2.3c-0.4-0.5-1.1-0.7-2.3-0.7l-3.7,0l-2.7,13.6h-4.6L686.5,113.1z M704.7,119.4h8.8
			c2.6,0,4.5,0.8,5.6,2.2s1.5,3.5,1.2,6c-0.2,1.2-0.5,2.3-1,3.4c-0.5,1.1-1.2,2.2-2.1,3c-1.1,1.1-2.3,1.9-3.5,2.2
			c-1.3,0.3-2.5,0.5-3.9,0.5h-4l-1.3,6.3H700L704.7,119.4z M708.6,123.2l-2,9.9c0.1,0,0.3,0,0.4,0h0.5c2.1,0,3.9-0.2,5.3-0.6
			c1.4-0.5,2.4-2.1,2.8-4.8c0.4-2.3,0-3.6-1.2-4c-1.2-0.4-2.6-0.5-4.4-0.5c-0.3,0-0.5,0-0.8,0L708.6,123.2L708.6,123.2z
			 M1036.6,408.4h8.8c2.6,0,4.5,0.8,5.6,2.2c1.2,1.5,1.6,3.5,1.2,6c-0.2,1.2-0.5,2.3-1,3.4c-0.5,1.1-1.2,2.2-2.1,3
			c-1.1,1.1-2.3,1.9-3.5,2.2s-2.6,0.5-3.9,0.5h-4l-1.3,6.3h-4.6L1036.6,408.4z M1040.5,412.2l-2,9.9c0.1,0,0.3,0,0.4,0h0.5
			c2.1,0,3.9-0.2,5.3-0.6c1.4-0.5,2.4-2.1,2.8-4.8c0.4-2.3,0-3.6-1.2-4c-1.2-0.4-2.6-0.5-4.4-0.5c-0.3,0-0.5,0-0.8,0L1040.5,412.2
			L1040.5,412.2z M1057.5,402.1h4.6l-1.3,6.3h4.1c2.2,0,3.9,0.5,5,1.4c1.1,0.9,1.5,2.5,1,5l-2.2,11h-4.6l2.1-10.5
			c0.2-1.1,0.2-1.9-0.2-2.3c-0.4-0.5-1.1-0.7-2.3-0.7l-3.7,0l-2.7,13.6h-4.6L1057.5,402.1z M1075.7,408.4h8.8c2.6,0,4.5,0.8,5.6,2.2
			c1.2,1.5,1.5,3.5,1.2,6c-0.2,1.2-0.5,2.3-1,3.4c-0.5,1.1-1.2,2.2-2.1,3c-1.1,1.1-2.3,1.9-3.5,2.2c-1.3,0.3-2.6,0.5-3.9,0.5h-4
			l-1.3,6.3h-4.6L1075.7,408.4z M1079.6,412.2l-2,9.9c0.1,0,0.3,0,0.4,0h0.5c2.1,0,3.9-0.2,5.3-0.6c1.4-0.5,2.4-2.1,2.8-4.8
			c0.4-2.3,0-3.6-1.2-4c-1.2-0.4-2.6-0.5-4.4-0.5c-0.3,0-0.5,0-0.8,0L1079.6,412.2L1079.6,412.2z M648.6,596.4h8.8
			c2.6,0,4.5,0.8,5.6,2.2s1.6,3.5,1.2,6c-0.2,1.2-0.5,2.3-1,3.4c-0.5,1.1-1.2,2.2-2.1,3c-1.1,1.1-2.3,1.9-3.5,2.2s-2.5,0.5-3.9,0.5
			h-4l-1.3,6.3h-4.6L648.6,596.4z M652.5,600.2l-2,9.9c0.1,0,0.3,0,0.4,0h0.5c2.1,0,3.9-0.2,5.3-0.6c1.4-0.5,2.4-2.1,2.8-4.8
			c0.4-2.3,0-3.6-1.2-4c-1.2-0.4-2.6-0.5-4.4-0.5c-0.3,0-0.5,0-0.8,0L652.5,600.2L652.5,600.2z M669.5,590.1h4.6l-1.3,6.3h4.1
			c2.2,0,3.9,0.5,5,1.4c1.1,0.9,1.5,2.5,1,5l-2.2,11H676l2.1-10.5c0.2-1.1,0.2-1.9-0.2-2.3c-0.4-0.5-1.1-0.7-2.3-0.7l-3.7,0
			l-2.7,13.6h-4.6L669.5,590.1z M687.7,596.4h8.8c2.6,0,4.5,0.8,5.6,2.2s1.5,3.5,1.2,6c-0.2,1.2-0.5,2.3-1,3.4
			c-0.5,1.1-1.2,2.2-2.1,3c-1.1,1.1-2.3,1.9-3.5,2.2c-1.3,0.3-2.5,0.5-3.9,0.5h-4l-1.3,6.3H683L687.7,596.4z M691.6,600.2l-2,9.9
			c0.1,0,0.3,0,0.4,0h0.5c2.1,0,3.9-0.2,5.3-0.6c1.4-0.5,2.4-2.1,2.8-4.8c0.4-2.3,0-3.6-1.2-4c-1.2-0.4-2.6-0.5-4.4-0.5
			c-0.3,0-0.5,0-0.8,0L691.6,600.2L691.6,600.2z M1196.6,179.4h8.8c2.6,0,4.5,0.8,5.6,2.2c1.2,1.5,1.6,3.5,1.2,6
			c-0.2,1.2-0.5,2.3-1,3.4c-0.5,1.1-1.2,2.2-2.1,3c-1.1,1.1-2.3,1.9-3.5,2.2s-2.6,0.5-3.9,0.5h-4l-1.3,6.3h-4.6L1196.6,179.4z
			 M1200.5,183.2l-2,9.9c0.1,0,0.3,0,0.4,0h0.5c2.1,0,3.9-0.2,5.3-0.6c1.4-0.5,2.4-2.1,2.8-4.8c0.4-2.3,0-3.6-1.2-4
			c-1.2-0.4-2.6-0.5-4.4-0.5c-0.3,0-0.5,0-0.8,0L1200.5,183.2L1200.5,183.2z M1217.5,173.1h4.6l-1.3,6.3h4.1c2.2,0,3.9,0.5,5,1.4
			c1.1,0.9,1.5,2.6,1,5l-2.2,11h-4.6l2.1-10.5c0.2-1.1,0.2-1.9-0.2-2.3c-0.4-0.5-1.1-0.7-2.3-0.7l-3.7,0l-2.7,13.6h-4.6
			L1217.5,173.1z M1235.7,179.4h8.8c2.6,0,4.5,0.8,5.6,2.2c1.2,1.5,1.5,3.5,1.2,6c-0.2,1.2-0.5,2.3-1,3.4c-0.5,1.1-1.2,2.2-2.1,3
			c-1.1,1.1-2.3,1.9-3.5,2.2c-1.3,0.3-2.6,0.5-3.9,0.5h-4l-1.3,6.3h-4.6L1235.7,179.4z M1239.6,183.2l-2,9.9c0.1,0,0.3,0,0.4,0h0.5
			c2.1,0,3.9-0.2,5.3-0.6c1.4-0.5,2.4-2.1,2.8-4.8c0.4-2.3,0-3.6-1.2-4c-1.2-0.4-2.6-0.5-4.4-0.5c-0.3,0-0.5,0-0.8,0L1239.6,183.2
			L1239.6,183.2z M1100.6,43.4h8.8c2.6,0,4.5,0.8,5.6,2.2c1.2,1.5,1.6,3.5,1.2,6c-0.2,1.2-0.5,2.3-1,3.4c-0.5,1.1-1.2,2.2-2.1,3
			c-1.1,1.1-2.3,1.9-3.5,2.2s-2.6,0.5-3.9,0.5h-4l-1.3,6.3h-4.6L1100.6,43.4z M1104.5,47.2l-2,9.9c0.1,0,0.3,0,0.4,0h0.5
			c2.1,0,3.9-0.2,5.3-0.6c1.4-0.5,2.4-2.1,2.8-4.8c0.4-2.3,0-3.6-1.2-4c-1.2-0.4-2.6-0.5-4.4-0.5c-0.3,0-0.5,0-0.8,0L1104.5,47.2
			L1104.5,47.2z M1121.5,37.1h4.6l-1.3,6.3h4.1c2.2,0,3.9,0.5,5,1.4c1.1,0.9,1.5,2.5,1,5l-2.2,11h-4.6l2.1-10.5
			c0.2-1.1,0.2-1.9-0.2-2.3c-0.4-0.5-1.1-0.7-2.3-0.7l-3.7,0l-2.7,13.6h-4.6L1121.5,37.1z M1139.7,43.4h8.8c2.6,0,4.5,0.8,5.6,2.2
			c1.2,1.5,1.5,3.5,1.2,6c-0.2,1.2-0.5,2.3-1,3.4c-0.5,1.1-1.2,2.2-2.1,3c-1.1,1.1-2.3,1.9-3.5,2.2c-1.3,0.3-2.6,0.5-3.9,0.5h-4
			l-1.3,6.3h-4.6L1139.7,43.4z M1143.6,47.2l-2,9.9c0.1,0,0.3,0,0.4,0h0.5c2.1,0,3.9-0.2,5.3-0.6c1.4-0.5,2.4-2.1,2.8-4.8
			c0.4-2.3,0-3.6-1.2-4c-1.2-0.4-2.6-0.5-4.4-0.5c-0.3,0-0.5,0-0.8,0L1143.6,47.2L1143.6,47.2z M1233.6,487.4h8.8
			c2.6,0,4.5,0.8,5.6,2.2c1.2,1.5,1.6,3.5,1.2,6c-0.2,1.2-0.5,2.3-1,3.4c-0.5,1.1-1.2,2.2-2.1,3c-1.1,1.1-2.3,1.9-3.5,2.2
			s-2.6,0.5-3.9,0.5h-4l-1.3,6.3h-4.6L1233.6,487.4z M1237.5,491.2l-2,9.9c0.1,0,0.3,0,0.4,0h0.5c2.1,0,3.9-0.2,5.3-0.6
			c1.4-0.5,2.4-2.1,2.8-4.8c0.4-2.3,0-3.6-1.2-4c-1.2-0.4-2.6-0.5-4.4-0.5c-0.3,0-0.5,0-0.8,0L1237.5,491.2L1237.5,491.2z
			 M1254.5,481.1h4.6l-1.3,6.3h4.1c2.2,0,3.9,0.5,5,1.4c1.1,0.9,1.5,2.5,1,5l-2.2,11h-4.6l2.1-10.5c0.2-1.1,0.2-1.9-0.2-2.3
			c-0.4-0.5-1.1-0.7-2.3-0.7l-3.7,0l-2.7,13.6h-4.6L1254.5,481.1z M1272.7,487.4h8.8c2.6,0,4.5,0.8,5.6,2.2c1.2,1.5,1.5,3.5,1.2,6
			c-0.2,1.2-0.5,2.3-1,3.4c-0.5,1.1-1.2,2.2-2.1,3c-1.1,1.1-2.3,1.9-3.5,2.2c-1.3,0.3-2.6,0.5-3.9,0.5h-4l-1.3,6.3h-4.6
			L1272.7,487.4z M1276.6,491.2l-2,9.9c0.1,0,0.3,0,0.4,0h0.5c2.1,0,3.9-0.2,5.3-0.6c1.4-0.5,2.4-2.1,2.8-4.8c0.4-2.3,0-3.6-1.2-4
			c-1.2-0.4-2.6-0.5-4.4-0.5c-0.3,0-0.5,0-0.8,0L1276.6,491.2L1276.6,491.2z M374.6,221.4h8.8c2.6,0,4.5,0.8,5.6,2.2
			c1.2,1.5,1.5,3.5,1.2,6c-0.2,1.2-0.5,2.3-1,3.4c-0.5,1.1-1.2,2.2-2.1,3c-1.1,1.1-2.3,1.9-3.5,2.2s-2.5,0.5-3.9,0.5h-4l-1.3,6.3
			h-4.6L374.6,221.4z M378.5,225.2l-2,9.9c0.1,0,0.3,0,0.4,0h0.5c2.1,0,3.9-0.2,5.3-0.6c1.4-0.5,2.4-2.1,2.8-4.8
			c0.4-2.3,0-3.6-1.2-4c-1.2-0.4-2.6-0.5-4.4-0.5c-0.3,0-0.5,0-0.8,0L378.5,225.2L378.5,225.2z M395.5,215.1h4.5l-1.3,6.3h4.1
			c2.2,0,3.9,0.5,5,1.4c1.1,0.9,1.5,2.6,1,5l-2.2,11H402l2.1-10.5c0.2-1.1,0.2-1.9-0.2-2.3c-0.4-0.5-1.1-0.7-2.3-0.7l-3.7,0
			l-2.7,13.6h-4.5L395.5,215.1z M413.7,221.4h8.8c2.6,0,4.5,0.8,5.6,2.2c1.2,1.5,1.5,3.5,1.2,6c-0.2,1.2-0.5,2.3-1,3.4
			c-0.5,1.1-1.2,2.2-2.1,3c-1.1,1.1-2.3,1.9-3.5,2.2c-1.3,0.3-2.5,0.5-3.9,0.5h-4l-1.3,6.3H409L413.7,221.4z M417.6,225.2l-2,9.9
			c0.1,0,0.3,0,0.4,0h0.5c2.1,0,3.9-0.2,5.3-0.6c1.4-0.5,2.4-2.1,2.8-4.8c0.4-2.3,0-3.6-1.2-4c-1.2-0.4-2.6-0.5-4.4-0.5
			c-0.3,0-0.5,0-0.8,0L417.6,225.2L417.6,225.2z M144.6,608.4h8.8c2.6,0,4.5,0.8,5.6,2.2c1.2,1.5,1.6,3.5,1.2,6
			c-0.2,1.2-0.5,2.3-1,3.4c-0.5,1.1-1.2,2.2-2.1,3c-1.1,1.1-2.3,1.9-3.5,2.2s-2.6,0.5-3.9,0.5h-4l-1.3,6.3h-4.6L144.6,608.4z
			 M148.5,612.2l-2,9.9c0.1,0,0.3,0,0.4,0h0.5c2.1,0,3.9-0.2,5.3-0.6c1.4-0.5,2.4-2.1,2.8-4.8c0.4-2.3,0-3.6-1.2-4
			c-1.2-0.4-2.6-0.5-4.4-0.5c-0.3,0-0.5,0-0.8,0L148.5,612.2L148.5,612.2z M165.5,602.1h4.6l-1.3,6.3h4.1c2.2,0,3.9,0.5,5,1.4
			c1.1,0.9,1.5,2.5,1,5l-2.2,11H172l2.1-10.5c0.2-1.1,0.2-1.9-0.2-2.3c-0.4-0.5-1.1-0.7-2.3-0.7l-3.7,0l-2.7,13.6h-4.6L165.5,602.1z
			 M183.7,608.4h8.8c2.6,0,4.5,0.8,5.6,2.2c1.2,1.5,1.6,3.5,1.2,6c-0.2,1.2-0.5,2.3-1,3.4c-0.5,1.1-1.2,2.2-2.1,3
			c-1.1,1.1-2.3,1.9-3.5,2.2s-2.6,0.5-3.9,0.5h-4l-1.3,6.3H179L183.7,608.4z M187.6,612.2l-2,9.9c0.1,0,0.3,0,0.4,0h0.5
			c2.1,0,3.9-0.2,5.3-0.6c1.4-0.5,2.4-2.1,2.8-4.8c0.4-2.3,0-3.6-1.2-4c-1.2-0.4-2.6-0.5-4.4-0.5c-0.3,0-0.5,0-0.8,0L187.6,612.2
			L187.6,612.2z"/>
		<g class="st2">
			<path class="st3" d="M224.6,267.7c-0.1,0-0.2,0-0.3,0.1c-0.2,0.1-0.3,0.3-0.3,0.4v12.9c0,0.1-0.1,0.2-0.2,0.3
				c-0.1,0.1-0.2,0.1-0.4,0l-2.1-1.2c-0.3-0.2-0.7-0.2-1,0l-8.4,4.9c-0.3,0.2-0.5,0.5-0.5,0.9v9.7c0,0.4,0.2,0.7,0.5,0.9l8.4,4.9
				c0.3,0.2,0.7,0.2,1,0l8.4-4.9c0.3-0.2,0.5-0.5,0.5-0.9v-24.2c0-0.4-0.2-0.7-0.5-0.9l-5-2.8C224.8,267.7,224.7,267.7,224.6,267.7
				L224.6,267.7z M170.5,279.8c-0.2,0-0.3,0-0.5,0.1l-8.4,4.9c-0.3,0.2-0.5,0.5-0.5,0.9l0,13c0,0.2,0.1,0.4,0.3,0.4
				c0.2,0.1,0.4,0.1,0.5,0l5-2.9c0.3-0.2,0.5-0.5,0.5-0.9v-6.1c0-0.4,0.2-0.7,0.5-0.9l2.1-1.2c0.3-0.2,0.7-0.2,1,0l2.1,1.2
				c0.3,0.2,0.5,0.5,0.5,0.9v6.1c0,0.4,0.2,0.7,0.5,0.9l5,2.9c0.2,0.1,0.4,0.1,0.5,0c0.2-0.1,0.3-0.3,0.3-0.4l0-13
				c0-0.4-0.2-0.7-0.5-0.9l-8.4-4.9C170.9,279.8,170.8,279.8,170.5,279.8L170.5,279.8L170.5,279.8z M246.1,279.9
				c-0.2,0-0.3,0-0.5,0.1l-8.4,4.9c-0.3,0.2-0.5,0.5-0.5,0.9v9.7c0,0.4,0.2,0.7,0.5,0.9l8.3,4.8c0.3,0.2,0.7,0.2,1,0l5.1-2.8
				c0.2,0.1,0.5,0.1,0.7-0.2s0.1-0.5-0.2-0.7c-0.1-0.1-0.3-0.1-0.5,0l-8.5-4.9c-0.2-0.1-0.3-0.3-0.3-0.5v-3c0-0.2,0.1-0.3,0.3-0.4
				l2.6-1.5c0.2-0.1,0.3-0.1,0.5,0l2.6,1.5c0.2,0.1,0.3,0.3,0.3,0.4v2.4c0,0.2,0.1,0.3,0.3,0.4c0.2,0.1,0.3,0.1,0.5,0l5-2.9
				c0.3-0.2,0.5-0.5,0.5-0.9v-2.3c0-0.4-0.2-0.7-0.5-0.9l-8.4-4.9C246.5,279.9,246.3,279.9,246.1,279.9L246.1,279.9z M220.9,287.2
				c0,0,0.1,0,0.1,0l2.9,1.7c0.1,0,0.1,0.1,0.1,0.2v3.3c0,0.1-0.1,0.2-0.1,0.2l-2.9,1.7c-0.1,0-0.2,0-0.3,0l-2.9-1.7
				c-0.1,0-0.1-0.1-0.1-0.2v-3.3c0-0.1,0.1-0.2,0.1-0.2l2.9-1.7C220.9,287.2,220.9,287.2,220.9,287.2z"/>
			<path class="st4" d="M271.3,279.7c-0.3,0-0.6,0.1-0.8,0.2l-7.9,4.6c-0.5,0.3-0.8,0.9-0.8,1.5v9.2c0,0.6,0.3,1.2,0.8,1.5l2.1,1.2
				c1,0.5,1.4,0.5,1.8,0.5c1.5,0,2.3-0.9,2.3-2.5v-9c0-0.1-0.1-0.2-0.2-0.2h-1c-0.1,0-0.2,0.1-0.2,0.2v9c0,0.7-0.7,1.4-1.9,0.8
				l-2.2-1.3c-0.1,0-0.1-0.1-0.1-0.2v-9.2c0-0.1,0.1-0.2,0.1-0.2l7.9-4.6c0.1,0,0.2,0,0.2,0l7.9,4.6c0.1,0,0.1,0.1,0.1,0.2v9.2
				c0,0.1,0,0.2-0.1,0.2l-7.9,4.6c-0.1,0-0.2,0-0.2,0l-2-1.2c-0.1,0-0.1,0-0.2,0c-0.6,0.3-0.7,0.4-1.2,0.5c-0.1,0-0.3,0.1,0.1,0.3
				l2.7,1.6c0.3,0.1,0.5,0.2,0.8,0.2c0.3,0,0.6-0.1,0.8-0.2l7.9-4.6c0.5-0.3,0.8-0.9,0.8-1.5v-9.2c0-0.6-0.3-1.2-0.8-1.5l-7.9-4.6
				C271.9,279.7,271.6,279.7,271.3,279.7z M195.8,279.9c-0.2,0-0.4,0-0.5,0.1l-8.4,4.8c-0.3,0.2-0.5,0.5-0.5,0.9v9.7
				c0,0.4,0.2,0.7,0.5,0.9l8.4,4.9c0.3,0.2,0.7,0.2,1,0l8.4-4.9c0.3-0.2,0.5-0.5,0.5-0.9v-9.7c0-0.4-0.2-0.7-0.5-0.9l-8.4-4.8
				C196.1,279.9,196,279.9,195.8,279.9z M283.1,279.9v0.2h0.7v1.7h0.3v-1.7h0.7v-0.2L283.1,279.9z M284.9,279.9v2h0.3v-1.2
				c0,0,0-0.1,0-0.2c0-0.1,0-0.2,0-0.2v-0.1l0.6,1.7h0.3l0.6-1.7c0,0.1,0,0.2,0,0.3v1.4h0.3v-2h-0.4l-0.6,1.7l-0.6-1.7L284.9,279.9z
				 M273.4,286.2c-2.3,0-3.6,1-3.6,2.6c0,1.7,1.3,2.2,3.5,2.4c2.6,0.3,2.8,0.6,2.8,1.1c0,0.9-0.7,1.3-2.4,1.3
				c-2.1,0-2.6-0.5-2.7-1.6c0-0.1-0.1-0.2-0.2-0.2h-1c-0.1,0-0.2,0.1-0.2,0.2c0,1.3,0.7,2.9,4.2,2.9c2.5,0,4-1,4-2.7
				c0-1.7-1.2-2.2-3.6-2.5c-2.5-0.3-2.7-0.5-2.7-1.1c0-0.5,0.2-1.1,2-1.1c1.6,0,2.2,0.4,2.5,1.4c0,0.1,0.1,0.2,0.2,0.2h1
				c0.1,0,0.1,0,0.2-0.1c0,0,0.1-0.1,0.1-0.2C277.2,287.1,276,286.2,273.4,286.2z M246.1,288.5c0,0-0.1,0-0.1,0l-1.6,0.9
				c-0.1,0-0.1,0.1-0.1,0.2v1.9c0,0.1,0,0.1,0.1,0.2l1.6,0.9c0.1,0,0.1,0,0.2,0l1.6-0.9c0.1,0,0.1-0.1,0.1-0.2v-1.9
				c0-0.1,0-0.1-0.1-0.2L246.1,288.5C246.1,288.5,246.1,288.5,246.1,288.5z"/>
		</g>
		<g class="st2">
			<path class="st3" d="M765.6,501.7c-0.3,0-0.5,0.2-0.5,0.5v12.9c0,0.2-0.1,0.3-0.3,0.4c-0.1,0-0.1,0-0.2,0l-2.1-1.2
				c-0.3-0.2-0.7-0.2-1,0l-8.4,4.9c-0.3,0.2-0.5,0.5-0.5,0.9v9.7c0,0.4,0.2,0.7,0.5,0.9l8.4,4.9c0.3,0.2,0.7,0.2,1,0l8.4-4.9
				c0.3-0.2,0.5-0.5,0.5-0.9v-24.2c0-0.4-0.2-0.7-0.5-0.9l-5-2.8C765.8,501.7,765.7,501.7,765.6,501.7L765.6,501.7z M711.5,513.8
				c-0.2,0-0.3,0-0.5,0.1l-8.4,4.9c-0.3,0.2-0.5,0.5-0.5,0.9l0,13c0,0.2,0.1,0.3,0.3,0.4c0.2,0.1,0.4,0.1,0.5,0l5-2.9
				c0.3-0.2,0.5-0.5,0.5-0.9v-6.1c0-0.4,0.2-0.7,0.5-0.9l2.1-1.2c0.3-0.2,0.7-0.2,1,0l2.1,1.2c0.3,0.2,0.5,0.5,0.5,0.9v6.1
				c0,0.4,0.2,0.7,0.5,0.9l5,2.9c0.2,0.1,0.3,0.1,0.5,0c0.2-0.1,0.3-0.3,0.3-0.4l0-13c0-0.4-0.2-0.7-0.5-0.9l-8.4-4.9
				c-0.1-0.1-0.3-0.1-0.5-0.1L711.5,513.8L711.5,513.8z M787.1,513.9c-0.2,0-0.3,0-0.5,0.1l-8.4,4.9c-0.3,0.2-0.5,0.5-0.5,0.9v9.7
				c0,0.4,0.2,0.7,0.5,0.9l8.3,4.8c0.3,0.2,0.7,0.2,1,0l5.1-2.8c0.2,0.1,0.5,0,0.7-0.2c0.1-0.2,0-0.5-0.2-0.7
				c-0.1-0.1-0.3-0.1-0.5,0l-8.5-4.9c-0.2-0.1-0.3-0.3-0.3-0.5v-3c0-0.2,0.1-0.4,0.3-0.4l2.6-1.5c0.2-0.1,0.3-0.1,0.5,0l2.6,1.5
				c0.2,0.1,0.3,0.3,0.3,0.4v2.4c0,0.2,0.1,0.3,0.3,0.4c0.2,0.1,0.3,0.1,0.5,0l5-2.9c0.3-0.2,0.5-0.5,0.5-0.9v-2.3
				c0-0.4-0.2-0.7-0.5-0.9l-8.4-4.9C787.5,514,787.3,513.9,787.1,513.9L787.1,513.9z M761.9,521.2c0,0,0.1,0,0.1,0l2.9,1.7
				c0.1,0,0.1,0.1,0.1,0.2v3.3c0,0.1-0.1,0.2-0.1,0.2l-2.9,1.7c-0.1,0-0.2,0-0.3,0l-2.9-1.7c-0.1,0-0.1-0.1-0.1-0.2v-3.3
				c0-0.1,0.1-0.2,0.1-0.2l2.9-1.7C761.9,521.2,761.9,521.2,761.9,521.2z"/>
			<path class="st4" d="M812.3,513.7c-0.3,0-0.6,0.1-0.8,0.2l-7.9,4.6c-0.5,0.3-0.8,0.9-0.8,1.4v9.2c0,0.6,0.3,1.2,0.8,1.4l2.1,1.2
				c1,0.5,1.4,0.5,1.8,0.5c1.5,0,2.3-0.9,2.3-2.5v-9c0-0.1-0.1-0.2-0.2-0.2h-1c-0.1,0-0.2,0.1-0.2,0.2v9c0,0.7-0.7,1.4-1.9,0.8
				l-2.2-1.3c-0.1,0-0.1-0.1-0.1-0.2v-9.2c0-0.1,0.1-0.2,0.1-0.2l7.9-4.6c0.1,0,0.2,0,0.2,0l7.9,4.6c0.1,0,0.1,0.1,0.1,0.2v9.2
				c0,0.1,0,0.2-0.1,0.2l-7.9,4.6c-0.1,0-0.2,0-0.2,0l-2-1.2c-0.1,0-0.1,0-0.2,0c-0.6,0.3-0.7,0.4-1.2,0.5c-0.1,0-0.3,0.1,0.1,0.3
				l2.7,1.6c0.3,0.1,0.5,0.2,0.8,0.2c0.3,0,0.6-0.1,0.8-0.2l7.9-4.6c0.5-0.3,0.8-0.9,0.8-1.4v-9.2c0-0.6-0.3-1.2-0.8-1.4l-7.9-4.6
				C812.9,513.7,812.6,513.7,812.3,513.7L812.3,513.7z M736.8,513.9c-0.2,0-0.4,0-0.5,0.1l-8.4,4.8c-0.3,0.2-0.5,0.5-0.5,0.9v9.7
				c0,0.4,0.2,0.7,0.5,0.9l8.4,4.9c0.3,0.2,0.7,0.2,1,0l8.4-4.9c0.3-0.2,0.5-0.5,0.5-0.9v-9.7c0-0.4-0.2-0.7-0.5-0.9l-8.4-4.8
				C737.1,513.9,737,513.9,736.8,513.9z M824.1,513.9v0.2h0.7v1.7h0.3v-1.7h0.7v-0.2L824.1,513.9L824.1,513.9z M825.9,513.9v2h0.3
				v-1.2c0,0,0-0.1,0-0.2c0-0.1,0-0.2,0-0.2v-0.1l0.6,1.7h0.3l0.6-1.7c0,0.1,0,0.2,0,0.3c0,0.1,0,0.2,0,0.2v1.2h0.3v-2h-0.4
				l-0.6,1.7l-0.6-1.7L825.9,513.9L825.9,513.9z M814.4,520.2c-2.3,0-3.6,1-3.6,2.6c0,1.7,1.3,2.2,3.5,2.4c2.6,0.3,2.8,0.6,2.8,1.1
				c0,0.9-0.7,1.3-2.4,1.3c-2.1,0-2.6-0.5-2.7-1.6c0-0.1-0.1-0.2-0.2-0.2h-1c-0.1,0-0.2,0.1-0.2,0.2c0,1.3,0.7,2.9,4.2,2.9
				c2.5,0,4-1,4-2.7c0-1.7-1.2-2.2-3.6-2.5c-2.5-0.3-2.7-0.5-2.7-1.1c0-0.5,0.2-1.1,2-1.1c1.6,0,2.2,0.4,2.5,1.4
				c0,0.1,0.1,0.2,0.2,0.2h1c0.1,0,0.1,0,0.2-0.1c0,0,0.1-0.1,0.1-0.2C818.2,521.1,817,520.2,814.4,520.2L814.4,520.2z M787.1,522.5
				c0,0-0.1,0-0.1,0l-1.6,0.9c-0.1,0-0.1,0.1-0.1,0.2v1.9c0,0.1,0,0.1,0.1,0.2l1.6,0.9c0.1,0,0.1,0,0.2,0l1.6-0.9
				c0.1,0,0.1-0.1,0.1-0.2v-1.9c0-0.1,0-0.1-0.1-0.2L787.1,522.5C787.1,522.5,787.1,522.5,787.1,522.5L787.1,522.5z"/>
		</g>
		<g class="st2">
			<path class="st3" d="M869.6,190.7c-0.3,0-0.5,0.2-0.5,0.5v12.9c0,0.2-0.1,0.3-0.3,0.4c-0.1,0-0.1,0-0.2,0l-2.1-1.2
				c-0.3-0.2-0.7-0.2-1,0l-8.4,4.9c-0.3,0.2-0.5,0.5-0.5,0.9v9.7c0,0.4,0.2,0.7,0.5,0.9l8.4,4.9c0.3,0.2,0.7,0.2,1,0l8.4-4.9
				c0.3-0.2,0.5-0.5,0.5-0.9v-24.2c0-0.4-0.2-0.7-0.5-0.9l-5-2.8C869.8,190.7,869.7,190.7,869.6,190.7L869.6,190.7z M815.5,202.8
				c-0.2,0-0.3,0-0.5,0.1l-8.4,4.9c-0.3,0.2-0.5,0.5-0.5,0.9l0,13c0,0.2,0.1,0.3,0.3,0.4c0.2,0.1,0.4,0.1,0.5,0l5-2.9
				c0.3-0.2,0.5-0.5,0.5-0.9v-6.1c0-0.4,0.2-0.7,0.5-0.9l2.1-1.2c0.2-0.1,0.3-0.1,0.5-0.1c0.2,0,0.4,0,0.5,0.1l2.1,1.2
				c0.3,0.2,0.5,0.5,0.5,0.9v6.1c0,0.4,0.2,0.7,0.5,0.9l5,2.9c0.2,0.1,0.3,0.1,0.5,0c0.2-0.1,0.3-0.3,0.3-0.4l0-13
				c0-0.4-0.2-0.7-0.5-0.9l-8.4-4.9c-0.1-0.1-0.3-0.1-0.5-0.1L815.5,202.8L815.5,202.8z M891.1,202.9c-0.2,0-0.3,0-0.5,0.1l-8.4,4.9
				c-0.3,0.2-0.5,0.5-0.5,0.9v9.7c0,0.4,0.2,0.7,0.5,0.9l8.3,4.8c0.3,0.2,0.7,0.2,1,0l5.1-2.8c0.2-0.1,0.3-0.3,0.3-0.4
				c0-0.2-0.1-0.3-0.3-0.4l-8.5-4.9c-0.2-0.1-0.3-0.3-0.3-0.5v-3c0-0.2,0.1-0.4,0.3-0.4l2.6-1.5c0.2-0.1,0.4-0.1,0.5,0l2.6,1.5
				c0.2,0.1,0.3,0.3,0.3,0.4v2.4c0,0.2,0.1,0.3,0.3,0.4c0.2,0.1,0.3,0.1,0.5,0l5-2.9c0.3-0.2,0.5-0.5,0.5-0.9v-2.3
				c0-0.4-0.2-0.7-0.5-0.9l-8.4-4.9C891.5,203,891.3,202.9,891.1,202.9L891.1,202.9z M865.9,210.2c0,0,0.1,0,0.1,0l2.9,1.7
				c0.1,0,0.1,0.1,0.1,0.2v3.3c0,0.1-0.1,0.2-0.1,0.2l-2.9,1.7c-0.1,0-0.2,0-0.3,0l-2.9-1.7c-0.1,0-0.1-0.1-0.1-0.2v-3.3
				c0-0.1,0.1-0.2,0.1-0.2l2.9-1.7C865.9,210.2,865.9,210.2,865.9,210.2L865.9,210.2z"/>
			<path class="st4" d="M916.3,202.7c-0.3,0-0.6,0.1-0.8,0.2l-7.9,4.6c-0.5,0.3-0.8,0.9-0.8,1.4v9.2c0,0.6,0.3,1.2,0.8,1.4l2.1,1.2
				c1,0.5,1.4,0.5,1.8,0.5c1.5,0,2.3-0.9,2.3-2.5v-9c0-0.1-0.1-0.2-0.2-0.2h-1c-0.1,0-0.2,0.1-0.2,0.2v9c0,0.7-0.7,1.4-1.9,0.8
				l-2.2-1.3c-0.1,0-0.1-0.1-0.1-0.2v-9.2c0-0.1,0.1-0.2,0.1-0.2l7.9-4.6c0.1,0,0.2,0,0.2,0l7.9,4.6c0.1,0,0.1,0.1,0.1,0.2v9.2
				c0,0.1,0,0.2-0.1,0.2l-7.9,4.6c-0.1,0-0.2,0-0.2,0l-2-1.2c-0.1,0-0.1,0-0.2,0c-0.6,0.3-0.7,0.4-1.2,0.5c-0.1,0-0.3,0.1,0.1,0.3
				l2.7,1.6c0.3,0.1,0.5,0.2,0.8,0.2c0.3,0,0.6-0.1,0.8-0.2l7.9-4.6c0.5-0.3,0.8-0.9,0.8-1.4v-9.2c0-0.6-0.3-1.1-0.8-1.4l-7.9-4.6
				C916.9,202.7,916.6,202.7,916.3,202.7L916.3,202.7z M840.8,202.9c-0.2,0-0.4,0-0.5,0.1l-8.4,4.8c-0.3,0.2-0.5,0.5-0.5,0.9v9.7
				c0,0.4,0.2,0.7,0.5,0.9l8.4,4.9c0.3,0.2,0.7,0.2,1,0l8.4-4.9c0.3-0.2,0.5-0.5,0.5-0.9v-9.7c0-0.4-0.2-0.7-0.5-0.9l-8.4-4.8
				C841.1,202.9,841,202.9,840.8,202.9z M928.1,202.9v0.2h0.7v1.7h0.3v-1.7h0.7v-0.2L928.1,202.9L928.1,202.9z M929.9,202.9v2h0.3
				v-1.2c0,0,0-0.1,0-0.2c0-0.1,0-0.2,0-0.2v-0.1l0.6,1.7h0.3l0.6-1.7c0,0.1,0,0.2,0,0.3c0,0.1,0,0.2,0,0.2v1.2h0.3v-2h-0.4
				l-0.6,1.7l-0.6-1.7L929.9,202.9z M918.4,209.2c-2.3,0-3.6,1-3.6,2.6c0,1.7,1.3,2.2,3.5,2.4c2.6,0.3,2.8,0.6,2.8,1.1
				c0,0.9-0.7,1.3-2.4,1.3c-2.1,0-2.6-0.5-2.7-1.6c0-0.1-0.1-0.2-0.2-0.2h-1c-0.1,0-0.2,0.1-0.2,0.2c0,1.3,0.7,2.9,4.2,2.9
				c2.5,0,4-1,4-2.7c0-1.7-1.2-2.2-3.6-2.5c-2.5-0.3-2.7-0.5-2.7-1.1c0-0.5,0.2-1.1,2-1.1c1.6,0,2.2,0.4,2.5,1.4
				c0,0.1,0.1,0.2,0.2,0.2h1c0.1,0,0.1,0,0.2-0.1c0-0.1,0.1-0.1,0.1-0.2C922.2,210.1,921,209.2,918.4,209.2L918.4,209.2z
				 M891.1,211.5c0,0-0.1,0-0.1,0l-1.6,0.9c-0.1,0-0.1,0.1-0.1,0.2v1.9c0,0.1,0,0.1,0.1,0.2l1.6,0.9c0.1,0,0.1,0,0.2,0l1.6-0.9
				c0.1,0,0.1-0.1,0.1-0.2v-1.9c0-0.1,0-0.1-0.1-0.2L891.1,211.5C891.1,211.5,891.1,211.5,891.1,211.5L891.1,211.5z"/>
		</g>
		<g class="st2">
			<path class="st3" d="M269.6,96.7c-0.1,0-0.2,0-0.3,0.1c-0.2,0.1-0.3,0.3-0.3,0.4v12.9c0,0.1-0.1,0.2-0.2,0.3
				c-0.1,0.1-0.2,0.1-0.4,0l-2.1-1.2c-0.3-0.2-0.7-0.2-1,0l-8.4,4.9c-0.3,0.2-0.5,0.5-0.5,0.9v9.7c0,0.4,0.2,0.7,0.5,0.9l8.4,4.9
				c0.3,0.2,0.7,0.2,1,0l8.4-4.9c0.3-0.2,0.5-0.5,0.5-0.9v-24.2c0-0.4-0.2-0.7-0.5-0.9l-5-2.8C269.8,96.7,269.7,96.7,269.6,96.7
				L269.6,96.7z M215.5,108.8c-0.2,0-0.3,0-0.5,0.1l-8.4,4.9c-0.3,0.2-0.5,0.5-0.5,0.9l0,13c0,0.2,0.1,0.4,0.3,0.4
				c0.2,0.1,0.4,0.1,0.5,0l5-2.9c0.3-0.2,0.5-0.5,0.5-0.9v-6.1c0-0.4,0.2-0.7,0.5-0.9l2.1-1.2c0.3-0.2,0.7-0.2,1,0l2.1,1.2
				c0.3,0.2,0.5,0.5,0.5,0.9v6.1c0,0.4,0.2,0.7,0.5,0.9l5,2.9c0.2,0.1,0.4,0.1,0.5,0c0.2-0.1,0.3-0.3,0.3-0.4l0-13
				c0-0.4-0.2-0.7-0.5-0.9l-8.4-4.9C215.9,108.8,215.8,108.8,215.5,108.8L215.5,108.8L215.5,108.8z M291.1,108.9
				c-0.2,0-0.3,0-0.5,0.1l-8.4,4.9c-0.3,0.2-0.5,0.5-0.5,0.9v9.7c0,0.4,0.2,0.7,0.5,0.9l8.3,4.8c0.3,0.2,0.7,0.2,1,0l5.1-2.8
				c0.2,0.1,0.5,0.1,0.7-0.2c0.1-0.2,0.1-0.5-0.2-0.7c-0.1-0.1-0.3-0.1-0.5,0l-8.5-4.9c-0.2-0.1-0.3-0.3-0.3-0.5v-3
				c0-0.2,0.1-0.3,0.3-0.4l2.6-1.5c0.2-0.1,0.3-0.1,0.5,0l2.6,1.5c0.2,0.1,0.3,0.3,0.3,0.4v2.4c0,0.2,0.1,0.3,0.3,0.4
				c0.2,0.1,0.3,0.1,0.5,0l5-2.9c0.3-0.2,0.5-0.5,0.5-0.9v-2.3c0-0.4-0.2-0.7-0.5-0.9l-8.4-4.9C291.5,108.9,291.3,108.9,291.1,108.9
				z M265.9,116.2c0,0,0.1,0,0.1,0l2.9,1.7c0.1,0,0.1,0.1,0.1,0.2v3.3c0,0.1-0.1,0.2-0.1,0.2l-2.9,1.7c-0.1,0-0.2,0-0.3,0l-2.9-1.7
				c-0.1,0-0.1-0.1-0.1-0.2v-3.3c0-0.1,0.1-0.2,0.1-0.2l2.9-1.7C265.9,116.2,265.9,116.2,265.9,116.2z"/>
			<path class="st4" d="M316.3,108.7c-0.3,0-0.6,0.1-0.8,0.2l-7.9,4.6c-0.5,0.3-0.8,0.9-0.8,1.4v9.2c0,0.6,0.3,1.2,0.8,1.4l2.1,1.2
				c1,0.5,1.4,0.5,1.8,0.5c1.5,0,2.3-0.9,2.3-2.5v-9c0-0.1-0.1-0.2-0.2-0.2h-1c-0.1,0-0.2,0.1-0.2,0.2v9c0,0.7-0.7,1.4-1.9,0.8
				l-2.2-1.3c-0.1,0-0.1-0.1-0.1-0.2v-9.2c0-0.1,0.1-0.2,0.1-0.2l7.9-4.6c0.1,0,0.2,0,0.2,0l7.9,4.6c0.1,0,0.1,0.1,0.1,0.2v9.2
				c0,0.1,0,0.2-0.1,0.2l-7.9,4.6c-0.1,0-0.2,0-0.2,0l-2-1.2c-0.1,0-0.1,0-0.2,0c-0.6,0.3-0.7,0.4-1.2,0.5c-0.1,0-0.3,0.1,0.1,0.3
				l2.7,1.6c0.3,0.1,0.5,0.2,0.8,0.2c0.3,0,0.6-0.1,0.8-0.2l7.9-4.6c0.5-0.3,0.8-0.9,0.8-1.4v-9.2c0-0.6-0.3-1.2-0.8-1.4l-7.9-4.6
				C316.9,108.7,316.6,108.7,316.3,108.7z M240.8,108.9c-0.2,0-0.4,0-0.5,0.1l-8.4,4.8c-0.3,0.2-0.5,0.5-0.5,0.9v9.7
				c0,0.4,0.2,0.7,0.5,0.9l8.4,4.9c0.3,0.2,0.7,0.2,1,0l8.4-4.9c0.3-0.2,0.5-0.5,0.5-0.9v-9.7c0-0.4-0.2-0.7-0.5-0.9l-8.4-4.8
				C241.1,108.9,241,108.9,240.8,108.9z M328.1,108.9v0.2h0.7v1.7h0.3v-1.7h0.7v-0.2L328.1,108.9L328.1,108.9z M329.9,108.9v2h0.3
				v-1.2c0,0,0-0.1,0-0.2c0-0.1,0-0.2,0-0.2v-0.1l0.6,1.7h0.3l0.6-1.7c0,0.1,0,0.2,0,0.3v1.4h0.3v-2h-0.4l-0.6,1.7l-0.6-1.7
				L329.9,108.9z M318.4,115.2c-2.3,0-3.6,1-3.6,2.6c0,1.7,1.3,2.2,3.5,2.4c2.6,0.3,2.8,0.6,2.8,1.1c0,0.9-0.7,1.3-2.4,1.3
				c-2.1,0-2.6-0.5-2.7-1.6c0-0.1-0.1-0.2-0.2-0.2h-1c-0.1,0-0.2,0.1-0.2,0.2c0,1.3,0.7,2.9,4.2,2.9c2.5,0,4-1,4-2.7
				c0-1.7-1.2-2.2-3.6-2.5c-2.5-0.3-2.7-0.5-2.7-1.1c0-0.5,0.2-1.1,2-1.1c1.6,0,2.2,0.4,2.5,1.4c0,0.1,0.1,0.2,0.2,0.2h1
				c0.1,0,0.1,0,0.2-0.1c0-0.1,0.1-0.1,0.1-0.2C322.2,116.1,321,115.2,318.4,115.2z M291.1,117.5c0,0-0.1,0-0.1,0l-1.6,0.9
				c-0.1,0-0.1,0.1-0.1,0.2v1.9c0,0.1,0,0.1,0.1,0.2l1.6,0.9c0.1,0,0.1,0,0.2,0l1.6-0.9c0.1,0,0.1-0.1,0.1-0.2v-1.9
				c0-0.1,0-0.1-0.1-0.2L291.1,117.5C291.1,117.5,291.1,117.5,291.1,117.5L291.1,117.5z"/>
		</g>
		<g class="st2">
			<path class="st3" d="M1091.6,686.7c-0.3,0-0.5,0.2-0.5,0.5v12.9c0,0.2-0.1,0.3-0.3,0.4c-0.1,0-0.1,0-0.2,0l-2.1-1.2
				c-0.3-0.2-0.7-0.2-1,0l-8.4,4.9c-0.3,0.2-0.5,0.5-0.5,0.9v9.7c0,0.4,0.2,0.7,0.5,0.9l8.4,4.9c0.3,0.2,0.7,0.2,1,0l8.4-4.9
				c0.3-0.2,0.5-0.5,0.5-0.9v-24.2c0-0.4-0.2-0.7-0.5-0.9l-5-2.8C1091.8,686.7,1091.7,686.7,1091.6,686.7L1091.6,686.7z
				 M1037.5,698.8c-0.2,0-0.3,0-0.5,0.1l-8.4,4.9c-0.3,0.2-0.5,0.5-0.5,0.9l0,13c0,0.2,0.1,0.3,0.3,0.4c0.2,0.1,0.4,0.1,0.5,0l5-2.9
				c0.3-0.2,0.5-0.5,0.5-0.9v-6.1c0-0.4,0.2-0.7,0.5-0.9l2.1-1.2c0.3-0.2,0.7-0.2,1,0l2.1,1.2c0.3,0.2,0.5,0.5,0.5,0.9v6.1
				c0,0.4,0.2,0.7,0.5,0.9l5,2.9c0.2,0.1,0.3,0.1,0.5,0c0.2-0.1,0.3-0.3,0.3-0.4l0-13c0-0.4-0.2-0.7-0.5-0.9l-8.4-4.9
				c-0.1-0.1-0.3-0.1-0.5-0.1L1037.5,698.8L1037.5,698.8z M1113.1,698.9c-0.2,0-0.3,0-0.5,0.1l-8.4,4.9c-0.3,0.2-0.5,0.5-0.5,0.9
				v9.7c0,0.4,0.2,0.7,0.5,0.9l8.3,4.8c0.3,0.2,0.7,0.2,1,0l5.1-2.8c0.2,0.1,0.5,0,0.7-0.2c0.1-0.2,0-0.5-0.2-0.7
				c-0.1-0.1-0.3-0.1-0.5,0l-8.5-4.9c-0.2-0.1-0.3-0.3-0.3-0.5v-3c0-0.2,0.1-0.4,0.3-0.4l2.6-1.5c0.2-0.1,0.3-0.1,0.5,0l2.6,1.5
				c0.2,0.1,0.3,0.3,0.3,0.4v2.4c0,0.2,0.1,0.3,0.3,0.4c0.2,0.1,0.3,0.1,0.5,0l5-2.9c0.3-0.2,0.5-0.5,0.5-0.9v-2.3
				c0-0.4-0.2-0.7-0.5-0.9l-8.4-4.9C1113.5,699,1113.3,698.9,1113.1,698.9L1113.1,698.9z M1087.9,706.2c0,0,0.1,0,0.1,0l2.9,1.7
				c0.1,0,0.1,0.1,0.1,0.2v3.3c0,0.1-0.1,0.2-0.1,0.2l-2.9,1.7c-0.1,0-0.2,0-0.3,0l-2.9-1.7c-0.1,0-0.1-0.1-0.1-0.2v-3.3
				c0-0.1,0.1-0.2,0.1-0.2l2.9-1.7C1087.9,706.2,1087.9,706.2,1087.9,706.2z"/>
			<path class="st4" d="M1138.3,698.7c-0.3,0-0.6,0.1-0.8,0.2l-7.9,4.6c-0.5,0.3-0.8,0.9-0.8,1.4v9.2c0,0.6,0.3,1.2,0.8,1.4l2.1,1.2
				c1,0.5,1.4,0.5,1.8,0.5c1.5,0,2.3-0.9,2.3-2.5v-9c0-0.1-0.1-0.2-0.2-0.2h-1c-0.1,0-0.2,0.1-0.2,0.2v9c0,0.7-0.7,1.4-1.9,0.8
				l-2.2-1.3c-0.1,0-0.1-0.1-0.1-0.2v-9.2c0-0.1,0.1-0.2,0.1-0.2l7.9-4.6c0.1,0,0.2,0,0.2,0l7.9,4.6c0.1,0,0.1,0.1,0.1,0.2v9.2
				c0,0.1,0,0.2-0.1,0.2l-7.9,4.6c-0.1,0-0.2,0-0.2,0l-2-1.2c-0.1,0-0.1,0-0.2,0c-0.6,0.3-0.7,0.4-1.2,0.5c-0.1,0-0.3,0.1,0.1,0.3
				l2.7,1.6c0.5,0.3,1.1,0.3,1.7,0l7.9-4.6c0.5-0.3,0.8-0.9,0.8-1.4v-9.2c0-0.6-0.3-1.2-0.8-1.4l-7.9-4.6
				C1138.9,698.7,1138.6,698.7,1138.3,698.7L1138.3,698.7z M1062.8,698.9c-0.2,0-0.4,0-0.5,0.1l-8.4,4.8c-0.3,0.2-0.5,0.5-0.5,0.9
				v9.7c0,0.4,0.2,0.7,0.5,0.9l8.4,4.9c0.3,0.2,0.7,0.2,1,0l8.4-4.9c0.3-0.2,0.5-0.5,0.5-0.9v-9.7c0-0.4-0.2-0.7-0.5-0.9l-8.4-4.8
				C1063.1,698.9,1063,698.9,1062.8,698.9z M1150.1,698.9v0.2h0.7v1.7h0.3v-1.7h0.7v-0.2L1150.1,698.9L1150.1,698.9z M1151.9,698.9
				v2h0.3v-1.2c0,0,0-0.1,0-0.2c0-0.1,0-0.2,0-0.2v-0.1l0.6,1.7h0.3l0.6-1.7c0,0.1,0,0.2,0,0.3s0,0.2,0,0.2v1.2h0.3v-2h-0.4
				l-0.6,1.7l-0.6-1.7L1151.9,698.9L1151.9,698.9z M1140.4,705.2c-2.3,0-3.6,1-3.6,2.6c0,1.7,1.3,2.2,3.5,2.4
				c2.6,0.3,2.8,0.6,2.8,1.1c0,0.9-0.7,1.3-2.4,1.3c-2.1,0-2.6-0.5-2.7-1.6c0-0.1-0.1-0.2-0.2-0.2h-1c-0.1,0-0.2,0.1-0.2,0.2
				c0,1.3,0.7,2.9,4.2,2.9c2.5,0,4-1,4-2.7c0-1.7-1.2-2.2-3.6-2.5c-2.5-0.3-2.7-0.5-2.7-1.1c0-0.5,0.2-1.1,2-1.1
				c1.6,0,2.2,0.4,2.5,1.4c0,0.1,0.1,0.2,0.2,0.2h1c0.1,0,0.1,0,0.2-0.1c0,0,0.1-0.1,0.1-0.2C1144.2,706.1,1143,705.2,1140.4,705.2
				L1140.4,705.2z M1113.1,707.5c0,0-0.1,0-0.1,0l-1.6,0.9c-0.1,0-0.1,0.1-0.1,0.2v1.9c0,0.1,0,0.1,0.1,0.2l1.6,0.9
				c0.1,0,0.1,0,0.2,0l1.6-0.9c0.1,0,0.1-0.1,0.1-0.2v-1.9c0-0.1,0-0.1-0.1-0.2L1113.1,707.5
				C1113.1,707.5,1113.1,707.5,1113.1,707.5L1113.1,707.5z"/>
		</g>
		<g class="st2">
			<path class="st3" d="M1301.6,294.7c-0.3,0-0.5,0.2-0.5,0.5v12.9c0,0.2-0.1,0.3-0.3,0.4c-0.1,0-0.1,0-0.2,0l-2.1-1.2
				c-0.3-0.2-0.7-0.2-1,0l-8.4,4.9c-0.3,0.2-0.5,0.5-0.5,0.9v9.7c0,0.4,0.2,0.7,0.5,0.9l8.4,4.9c0.3,0.2,0.7,0.2,1,0l8.4-4.9
				c0.3-0.2,0.5-0.5,0.5-0.9v-24.2c0-0.4-0.2-0.7-0.5-0.9l-5-2.8C1301.8,294.7,1301.7,294.7,1301.6,294.7z M1247.5,306.8
				c-0.2,0-0.3,0-0.5,0.1l-8.4,4.9c-0.3,0.2-0.5,0.5-0.5,0.9l0,13c0,0.2,0.1,0.4,0.3,0.4c0.2,0.1,0.4,0.1,0.5,0l5-2.9
				c0.3-0.2,0.5-0.5,0.5-0.9v-6.1c0-0.4,0.2-0.7,0.5-0.9l2.1-1.2c0.2-0.1,0.3-0.1,0.5-0.1c0.2,0,0.4,0,0.5,0.1l2.1,1.2
				c0.3,0.2,0.5,0.5,0.5,0.9v6.1c0,0.4,0.2,0.7,0.5,0.9l5,2.9c0.2,0.1,0.3,0.1,0.5,0c0.2-0.1,0.3-0.3,0.3-0.4l0-13
				c0-0.4-0.2-0.7-0.5-0.9l-8.4-4.9c-0.1-0.1-0.3-0.1-0.5-0.1L1247.5,306.8L1247.5,306.8z M1323.1,306.9c-0.2,0-0.3,0-0.5,0.1
				l-8.4,4.9c-0.3,0.2-0.5,0.5-0.5,0.9v9.7c0,0.4,0.2,0.7,0.5,0.9l8.3,4.8c0.3,0.2,0.7,0.2,1,0l5.1-2.8c0.2-0.1,0.3-0.3,0.3-0.4
				c0-0.2-0.1-0.3-0.3-0.4l-8.5-4.9c-0.2-0.1-0.3-0.3-0.3-0.5v-3c0-0.2,0.1-0.4,0.3-0.4l2.6-1.5c0.2-0.1,0.4-0.1,0.5,0l2.6,1.5
				c0.2,0.1,0.3,0.3,0.3,0.4v2.4c0,0.2,0.1,0.3,0.3,0.4c0.2,0.1,0.3,0.1,0.5,0l5-2.9c0.3-0.2,0.5-0.5,0.5-0.9v-2.3
				c0-0.4-0.2-0.7-0.5-0.9l-8.4-4.9C1323.5,307,1323.3,306.9,1323.1,306.9L1323.1,306.9z M1297.9,314.2c0,0,0.1,0,0.1,0l2.9,1.7
				c0.1,0,0.1,0.1,0.1,0.2v3.3c0,0.1-0.1,0.2-0.1,0.2l-2.9,1.7c-0.1,0-0.2,0-0.3,0l-2.9-1.7c-0.1,0-0.1-0.1-0.1-0.2v-3.3
				c0-0.1,0.1-0.2,0.1-0.2l2.9-1.7C1297.9,314.2,1297.9,314.2,1297.9,314.2z"/>
			<path class="st4" d="M1348.3,306.7c-0.3,0-0.6,0.1-0.8,0.2l-7.9,4.6c-0.5,0.3-0.8,0.9-0.8,1.5v9.2c0,0.6,0.3,1.2,0.8,1.5l2.1,1.2
				c1,0.5,1.4,0.5,1.8,0.5c1.5,0,2.3-0.9,2.3-2.5v-9c0-0.1-0.1-0.2-0.2-0.2h-1c-0.1,0-0.2,0.1-0.2,0.2v9c0,0.7-0.7,1.4-1.9,0.8
				l-2.2-1.3c-0.1,0-0.1-0.1-0.1-0.2v-9.2c0-0.1,0.1-0.2,0.1-0.2l7.9-4.6c0.1,0,0.2,0,0.2,0l7.9,4.6c0.1,0,0.1,0.1,0.1,0.2v9.2
				c0,0.1,0,0.2-0.1,0.2l-7.9,4.6c-0.1,0-0.2,0-0.2,0l-2-1.2c-0.1,0-0.1,0-0.2,0c-0.6,0.3-0.7,0.4-1.2,0.5c-0.1,0-0.3,0.1,0.1,0.3
				l2.7,1.6c0.3,0.1,0.5,0.2,0.8,0.2c0.3,0,0.6-0.1,0.8-0.2l7.9-4.6c0.5-0.3,0.8-0.9,0.8-1.5v-9.2c0-0.6-0.3-1.2-0.8-1.5l-7.9-4.6
				C1348.9,306.7,1348.6,306.7,1348.3,306.7L1348.3,306.7z M1272.8,306.9c-0.2,0-0.4,0-0.5,0.1l-8.4,4.8c-0.3,0.2-0.5,0.5-0.5,0.9
				v9.7c0,0.4,0.2,0.7,0.5,0.9l8.4,4.9c0.3,0.2,0.7,0.2,1,0l8.4-4.9c0.3-0.2,0.5-0.5,0.5-0.9v-9.7c0-0.4-0.2-0.7-0.5-0.9l-8.4-4.8
				C1273.1,306.9,1273,306.9,1272.8,306.9z M1360.1,306.9v0.2h0.7v1.7h0.3v-1.7h0.7v-0.2L1360.1,306.9z M1361.9,306.9v2h0.3v-1.2
				c0,0,0-0.1,0-0.2c0-0.1,0-0.2,0-0.2v-0.1l0.6,1.7h0.3l0.6-1.7c0,0.1,0,0.2,0,0.3c0,0.1,0,0.2,0,0.2v1.2h0.3v-2h-0.4l-0.6,1.7
				l-0.6-1.7L1361.9,306.9z M1350.4,313.2c-2.3,0-3.6,1-3.6,2.6c0,1.7,1.3,2.2,3.5,2.4c2.6,0.3,2.8,0.6,2.8,1.1
				c0,0.9-0.7,1.3-2.4,1.3c-2.1,0-2.6-0.5-2.7-1.6c0-0.1-0.1-0.2-0.2-0.2h-1c-0.1,0-0.2,0.1-0.2,0.2c0,1.3,0.7,2.9,4.2,2.9
				c2.5,0,4-1,4-2.7c0-1.7-1.2-2.2-3.6-2.5c-2.5-0.3-2.7-0.5-2.7-1.1c0-0.5,0.2-1.1,2-1.1c1.6,0,2.2,0.4,2.5,1.4
				c0,0.1,0.1,0.2,0.2,0.2h1c0.1,0,0.1,0,0.2-0.1c0,0,0.1-0.1,0.1-0.2C1354.2,314.1,1353,313.2,1350.4,313.2L1350.4,313.2z
				 M1323.1,315.5c0,0-0.1,0-0.1,0l-1.6,0.9c-0.1,0-0.1,0.1-0.1,0.2v1.9c0,0.1,0,0.1,0.1,0.2l1.6,0.9c0.1,0,0.1,0,0.2,0l1.6-0.9
				c0.1,0,0.1-0.1,0.1-0.2v-1.9c0-0.1,0-0.1-0.1-0.2L1323.1,315.5C1323.1,315.5,1323.1,315.5,1323.1,315.5L1323.1,315.5z"/>
		</g>
		<g class="st2">
			<path class="st3" d="M338.6,439.7c-0.3,0-0.5,0.2-0.5,0.5v12.9c0,0.2-0.1,0.3-0.3,0.4c-0.1,0-0.1,0-0.2,0l-2.1-1.2
				c-0.3-0.2-0.7-0.2-1,0l-8.4,4.9c-0.3,0.2-0.5,0.5-0.5,0.9v9.7c0,0.4,0.2,0.7,0.5,0.9l8.4,4.9c0.3,0.2,0.7,0.2,1,0l8.4-4.9
				c0.3-0.2,0.5-0.5,0.5-0.9v-24.2c0-0.4-0.2-0.7-0.5-0.9l-5-2.8C338.8,439.7,338.7,439.7,338.6,439.7z M284.5,451.8
				c-0.2,0-0.3,0-0.5,0.1l-8.4,4.9c-0.3,0.2-0.5,0.5-0.5,0.9l0,13c0,0.2,0.1,0.4,0.3,0.4c0.2,0.1,0.4,0.1,0.5,0l5-2.9
				c0.3-0.2,0.5-0.5,0.5-0.9v-6.1c0-0.4,0.2-0.7,0.5-0.9l2.1-1.2c0.3-0.2,0.7-0.2,1,0l2.1,1.2c0.3,0.2,0.5,0.5,0.5,0.9v6.1
				c0,0.4,0.2,0.7,0.5,0.9l5,2.9c0.2,0.1,0.4,0.1,0.5,0c0.2-0.1,0.3-0.3,0.3-0.4l0-13c0-0.4-0.2-0.7-0.5-0.9l-8.4-4.9
				C284.9,451.8,284.8,451.8,284.5,451.8L284.5,451.8L284.5,451.8z M360.1,451.9c-0.2,0-0.3,0-0.5,0.1l-8.4,4.9
				c-0.3,0.2-0.5,0.5-0.5,0.9v9.7c0,0.4,0.2,0.7,0.5,0.9l8.3,4.8c0.3,0.2,0.7,0.2,1,0l5.1-2.8c0.2-0.1,0.3-0.3,0.3-0.4
				c0-0.2-0.1-0.3-0.3-0.4l-8.5-4.9c-0.2-0.1-0.3-0.3-0.3-0.5v-3c0-0.2,0.1-0.3,0.3-0.4l2.6-1.5c0.2-0.1,0.3-0.1,0.5,0l2.6,1.5
				c0.2,0.1,0.3,0.3,0.3,0.4v2.4c0,0.2,0.1,0.3,0.3,0.4c0.2,0.1,0.4,0.1,0.5,0l5-2.9c0.3-0.2,0.5-0.5,0.5-0.9v-2.3
				c0-0.4-0.2-0.7-0.5-0.9l-8.4-4.9C360.5,452,360.3,451.9,360.1,451.9L360.1,451.9z M334.9,459.2c0,0,0.1,0,0.1,0l2.9,1.7
				c0.1,0,0.1,0.1,0.1,0.2v3.3c0,0.1-0.1,0.2-0.1,0.2l-2.9,1.7c-0.1,0-0.2,0-0.3,0l-2.9-1.7c-0.1,0-0.1-0.1-0.1-0.2v-3.3
				c0-0.1,0.1-0.2,0.1-0.2l2.9-1.7C334.9,459.2,334.9,459.2,334.9,459.2z"/>
			<path class="st4" d="M385.3,451.7c-0.3,0-0.6,0.1-0.8,0.2l-7.9,4.6c-0.5,0.3-0.8,0.9-0.8,1.4v9.2c0,0.6,0.3,1.2,0.8,1.4l2.1,1.2
				c1,0.5,1.4,0.5,1.8,0.5c1.5,0,2.3-0.9,2.3-2.5v-9c0-0.1-0.1-0.2-0.2-0.2h-1c-0.1,0-0.2,0.1-0.2,0.2v9c0,0.7-0.7,1.4-1.9,0.8
				l-2.2-1.3c-0.1,0-0.1-0.1-0.1-0.2v-9.2c0-0.1,0.1-0.2,0.1-0.2l7.9-4.6c0.1,0,0.2,0,0.2,0l7.9,4.6c0.1,0,0.1,0.1,0.1,0.2v9.2
				c0,0.1,0,0.2-0.1,0.2l-7.9,4.6c-0.1,0-0.2,0-0.2,0l-2-1.2c-0.1,0-0.1,0-0.2,0c-0.6,0.3-0.7,0.4-1.2,0.5c-0.1,0-0.3,0.1,0.1,0.3
				l2.7,1.6c0.5,0.3,1.1,0.3,1.7,0l7.9-4.6c0.5-0.3,0.8-0.9,0.8-1.4v-9.2c0-0.6-0.3-1.2-0.8-1.4l-7.9-4.6
				C385.9,451.7,385.6,451.7,385.3,451.7L385.3,451.7z M309.8,451.9c-0.2,0-0.4,0-0.5,0.1l-8.4,4.8c-0.3,0.2-0.5,0.5-0.5,0.9v9.7
				c0,0.4,0.2,0.7,0.5,0.9l8.4,4.9c0.3,0.2,0.7,0.2,1,0l8.4-4.9c0.3-0.2,0.5-0.5,0.5-0.9v-9.7c0-0.4-0.2-0.7-0.5-0.9l-8.4-4.8
				C310.1,451.9,310,451.9,309.8,451.9L309.8,451.9z M397.1,451.9v0.2h0.7v1.7h0.3v-1.7h0.7v-0.2L397.1,451.9L397.1,451.9z
				 M398.9,451.9v2h0.3v-1.2c0,0,0-0.1,0-0.2c0-0.1,0-0.2,0-0.2v-0.1l0.6,1.7h0.3l0.6-1.7c0,0.1,0,0.2,0,0.3v1.4h0.3v-2h-0.4
				l-0.6,1.7l-0.6-1.7L398.9,451.9L398.9,451.9z M387.4,458.2c-2.3,0-3.6,1-3.6,2.6c0,1.7,1.3,2.2,3.5,2.4c2.6,0.3,2.8,0.6,2.8,1.1
				c0,0.9-0.7,1.3-2.4,1.3c-2.1,0-2.6-0.5-2.7-1.6c0-0.1-0.1-0.2-0.2-0.2h-1c-0.1,0-0.2,0.1-0.2,0.2c0,1.3,0.7,2.9,4.2,2.9
				c2.5,0,4-1,4-2.7c0-1.7-1.2-2.2-3.6-2.5c-2.5-0.3-2.7-0.5-2.7-1.1c0-0.5,0.2-1.1,2-1.1c1.6,0,2.2,0.4,2.5,1.4
				c0,0.1,0.1,0.2,0.2,0.2h1c0.1,0,0.1,0,0.2-0.1c0,0,0.1-0.1,0.1-0.2C391.2,459.1,390,458.2,387.4,458.2L387.4,458.2z M360.1,460.5
				c0,0-0.1,0-0.1,0l-1.6,0.9c-0.1,0-0.1,0.1-0.1,0.2v1.9c0,0.1,0,0.1,0.1,0.2l1.6,0.9c0.1,0,0.1,0,0.2,0l1.6-0.9
				c0.1,0,0.1-0.1,0.1-0.2v-1.9c0-0.1,0-0.1-0.1-0.2L360.1,460.5C360.1,460.5,360.1,460.5,360.1,460.5L360.1,460.5z"/>
		</g>
		<path class="st1" d="M85.5,340.7h-8.4l0.6-7.1h-4.1l-0.6,7.1H55.5l-0.6-7.1h-4.1l0.6,7.1h-8.4l-4.7-30.8l11.9-19h28.5l11.9,19
			L85.5,340.7z M76.1,300.4h-7.6l0.5,3.6h-9.5l0.5-3.6h-7.6l-4.7,9.5l2.4,19h28.5l2.4-19L76.1,300.4z M71.9,322.5
			c-0.7,0-1.2-2-1.2-4.4c0-2.4,0.5-4.4,1.2-4.4c0.7,0,1.2,2,1.2,4.4S72.6,322.5,71.9,322.5z M56.9,322.9c-0.7,0-1.2-2-1.2-4.4
			c0-2.4,0.5-4.4,1.2-4.4c0.7,0,1.2,2,1.2,4.4C58.1,320.9,57.6,322.9,56.9,322.9z M803.5,52.7h-8.4l0.6-7.1h-4.1l-0.6,7.1h-17.5
			l-0.6-7.1h-4.2l0.6,7.1h-8.4l-4.7-30.8l11.9-19h28.5l11.9,19L803.5,52.7z M794.1,12.4h-7.6l0.5,3.6h-9.5l0.5-3.6h-7.6l-4.7,9.5
			l2.4,19h28.5l2.4-19L794.1,12.4z M789.9,34.5c-0.7,0-1.2-2-1.2-4.4c0-2.4,0.5-4.4,1.2-4.4c0.7,0,1.2,2,1.2,4.4
			C791.1,32.5,790.6,34.5,789.9,34.5z M774.9,34.9c-0.7,0-1.2-2-1.2-4.4s0.5-4.4,1.2-4.4c0.7,0,1.2,2,1.2,4.4
			C776.1,32.9,775.6,34.9,774.9,34.9z M984.5,432.7h-8.4l0.6-7.1h-4.1l-0.6,7.1h-17.5l-0.6-7.1h-4.2l0.6,7.1h-8.4l-4.7-30.8l11.9-19
			h28.5l11.9,19L984.5,432.7z M975.1,392.4h-7.6l0.5,3.6h-9.5l0.5-3.6h-7.6l-4.7,9.5l2.4,19h28.5l2.4-19L975.1,392.4z M970.9,414.5
			c-0.7,0-1.2-2-1.2-4.4c0-2.4,0.5-4.4,1.2-4.4c0.7,0,1.2,2,1.2,4.4S971.6,414.5,970.9,414.5z M955.9,414.9c-0.7,0-1.2-2-1.2-4.4
			c0-2.4,0.5-4.4,1.2-4.4c0.7,0,1.2,2,1.2,4.4C957.1,412.9,956.6,414.9,955.9,414.9z M786.7,728.5h-8.4l0.6-7.1h-4.1l-0.6,7.1h-17.5
			l-0.6-7.1h-4.2l0.6,7.1h-8.4l-4.7-30.8l11.9-19h28.5l11.9,19L786.7,728.5z M777.3,688.2h-7.6l0.5,3.6h-9.5l0.5-3.6h-7.6l-4.7,9.5
			l2.4,19h28.5l2.4-19L777.3,688.2z M773.1,710.3c-0.7,0-1.2-2-1.2-4.4c0-2.4,0.5-4.4,1.2-4.4c0.7,0,1.2,2,1.2,4.4
			C774.3,708.3,773.8,710.3,773.1,710.3z M758.1,710.7c-0.7,0-1.2-2-1.2-4.4c0-2.4,0.5-4.4,1.2-4.4s1.2,2,1.2,4.4
			C759.3,708.7,758.8,710.7,758.1,710.7z M579.5,661.7h-8.4l0.6-7.1h-4.1l-0.6,7.1h-17.5l-0.6-7.1h-4.1l0.6,7.1h-8.4l-4.7-30.8
			l11.9-19h28.5l11.9,19L579.5,661.7z M570.1,621.4h-7.6l0.5,3.6h-9.5l0.5-3.6h-7.6l-4.7,9.5l2.4,19h28.5l2.4-19L570.1,621.4z
			 M565.9,643.5c-0.7,0-1.2-2-1.2-4.4c0-2.4,0.5-4.4,1.2-4.4c0.7,0,1.2,2,1.2,4.4S566.6,643.5,565.9,643.5z M550.9,643.9
			c-0.7,0-1.2-2-1.2-4.4c0-2.4,0.5-4.4,1.2-4.4s1.2,2,1.2,4.4C552.1,641.9,551.6,643.9,550.9,643.9z M680.5,363.7h-8.4l0.6-7.1h-4.1
			l-0.6,7.1h-17.5l-0.6-7.1h-4.2l0.6,7.1h-8.4l-4.7-30.8l11.9-19h28.5l11.9,19L680.5,363.7z M671.1,323.4h-7.6l0.5,3.6h-9.5l0.5-3.6
			h-7.6l-4.7,9.5l2.4,19h28.5l2.4-19L671.1,323.4z M666.9,345.5c-0.7,0-1.2-2-1.2-4.4c0-2.4,0.5-4.4,1.2-4.4c0.7,0,1.2,2,1.2,4.4
			S667.6,345.5,666.9,345.5z M651.9,345.9c-0.7,0-1.2-2-1.2-4.4c0-2.4,0.5-4.4,1.2-4.4c0.7,0,1.2,2,1.2,4.4S652.6,345.9,651.9,345.9
			z M1339.5,432.7h-8.4l0.6-7.1h-4.1l-0.6,7.1h-17.5l-0.6-7.1h-4.2l0.6,7.1h-8.4l-4.7-30.8l11.9-19h28.4l11.9,19L1339.5,432.7z
			 M1330.1,392.4h-7.6l0.5,3.6h-9.5l0.5-3.6h-7.6l-4.7,9.5l2.4,19h28.5l2.4-19L1330.1,392.4z M1325.9,414.5c-0.7,0-1.2-2-1.2-4.4
			c0-2.4,0.5-4.4,1.2-4.4c0.7,0,1.2,2,1.2,4.4S1326.6,414.5,1325.9,414.5z M1310.9,414.9c-0.7,0-1.2-2-1.2-4.4
			c0-2.4,0.5-4.4,1.2-4.4c0.7,0,1.2,2,1.2,4.4C1312.1,412.9,1311.6,414.9,1310.9,414.9z M1153.5,197.7h-8.4l0.6-7.1h-4.1l-0.6,7.1
			h-17.5l-0.6-7.1h-4.2l0.6,7.1h-8.4l-4.7-30.8l11.9-19h28.4l11.9,19L1153.5,197.7z M1144.1,157.4h-7.6l0.5,3.6h-9.5l0.5-3.6h-7.6
			l-4.7,9.5l2.4,19h28.5l2.4-19L1144.1,157.4z M1139.9,179.5c-0.7,0-1.2-2-1.2-4.4c0-2.4,0.5-4.4,1.2-4.4c0.7,0,1.2,2,1.2,4.4
			C1141.1,177.5,1140.6,179.5,1139.9,179.5z M1124.9,179.9c-0.7,0-1.2-2-1.2-4.4s0.5-4.4,1.2-4.4c0.7,0,1.2,2,1.2,4.4
			C1126.1,177.9,1125.6,179.9,1124.9,179.9z M125.1,157.6L125.1,157.6l-8.1,8l19.5,19.4l8-8l11.4-11.4l-8-8v0L125.1,157.6
			L125.1,157.6z M497,529.6L497,529.6l-8.1,8l19.5,19.4l8-8l11.4-11.4l-8-8v0L497,529.6L497,529.6z M880,97.6L880,97.6l-8,8
			l19.5,19.4l8-8l11.4-11.4l-8-8v0L880,97.6L880,97.6z M1025.1,623.6L1025.1,623.6l-8,8l19.5,19.4l8-8l11.4-11.4l-8-8v0
			L1025.1,623.6L1025.1,623.6z M1272.1,166.6L1272.1,166.6l-8.1,8l19.5,19.4l8-8l11.4-11.4l-8-8v0L1272.1,166.6L1272.1,166.6z
			 M285.1,694.6L285.1,694.6l-8.1,8l19.5,19.4l8-8l11.4-11.4l-8-8v0L285.1,694.6L285.1,694.6z M257.1,322.6L257.1,322.6l-8.1,8
			l19.5,19.4l8-8l11.4-11.4l-8-8v0L257.1,322.6L257.1,322.6z M707.1,309.6L707.1,309.6l-8,8l19.5,19.4l8-8l11.4-11.4l-8-8v0
			L707.1,309.6L707.1,309.6z"/>
	</g>
	<path class="st5" d="M517,66.6L517,66.6l-8,8L528.5,94l8-8l11.4-11.4l-8-8v0L517,66.6L517,66.6z M1011,216.6L1011,216.6l-8,8
		l19.5,19.4l8-8l11.4-11.4l-8-8v0L1011,216.6L1011,216.6z"/>
</g>
<g class="st6">
	<path class="st3" d="M148.7,44.2c-1.2,0-2.2,1-2.2,2.2c0,1.2,1,2.2,2.2,2.2c1.2,0,2.2-1,2.2-2.2C150.9,45.2,149.9,44.2,148.7,44.2z
		 M149.3,46.1c-0.4,0-0.7-0.3-0.7-0.7c0-0.4,0.3-0.7,0.7-0.7s0.7,0.3,0.7,0.7C150,45.8,149.7,46.1,149.3,46.1z"/>
	<path class="st3" d="M163.1,44.2c-1.2,0-2.2,1-2.2,2.2c0,1.2,1,2.2,2.2,2.2c1.2,0,2.2-1,2.2-2.2C165.3,45.2,164.3,44.2,163.1,44.2z
		 M162.5,46.1c-0.4,0-0.7-0.3-0.7-0.7c0-0.4,0.3-0.7,0.7-0.7s0.7,0.3,0.7,0.7C163.2,45.8,162.9,46.1,162.5,46.1z"/>
	<path class="st7" d="M143.4,80.4c1.2-1.7,2.2-0.4,3.9,0.5c0.8,0.4-1.3,1.9-3.7,0.8C143,81.3,143.1,80.9,143.4,80.4z"/>
	<path class="st7" d="M168.4,80.2c-1.2-1.7-2.2-0.4-3.9,0.5c-0.8,0.4,1.3,1.9,3.7,0.8C168.8,81.1,168.8,80.7,168.4,80.2z"/>
	<path class="st3" d="M175.1,38.7c-1.3-2.6-4.4-0.3-5.2-1.1c-4.1-4.2-9-5.2-12.9-5.4c0,0-1.7,0-2.1,0c-3.9,0.1-8.8,1.2-12.9,5.4
		c-0.8,0.8-4-1.5-5.2,1.1c-1.5,3.1,3,3.4,2.8,4.8c-0.4,2.5-0.2,6.1,0.2,9.7c0.3,2.9-0.6,7.7-0.6,12.5c-0.8,0.1-1.3,1.4-1.3,2.5
		c0,0.5,0.1,1,0.3,1.3c0.3,0.4,0.7,0.7,1.3,0.7v-0.4c0.5,3.8,2,7.3,5.3,9.6c0.7,0,1.4,0.6,2.3,1.1c2.3,0.7,6,1.1,9.2,1.1h0h0
		c3-0.1,6-0.4,8.1-1c0-0.1,0.1-0.1,0.2-0.2c1.2-0.6,2.1-1.4,2.9-1.3c4.1-3,5.2-7.9,5.3-12.8c0.4-0.1,0.8-0.3,1-0.6
		c0.2-0.3,0.3-0.8,0.3-1.3c0-1.2-0.6-2.5-1.5-2.5c-0.2-3.5-0.7-6.6-0.5-8.8c0.3-3.6,0.6-7.3,0.2-9.7C172,42.1,176.6,41.8,175.1,38.7
		z M138.8,69.2c-0.1-0.2-0.2-0.5-0.2-0.9c0-0.8,0.3-1.5,0.6-1.7c0,1,0.1,1.9,0.2,2.9C139.1,69.5,138.9,69.4,138.8,69.2z M139.8,40.8
		c-0.1,0.5-1.7-0.7-1.1-1.5c0.5-0.7,1.6-0.5,1.7-0.1C140.5,39.6,140,39.5,139.8,40.8z M143.3,46.2c0.5-3.9,3.9-5.8,5.9-5.6
		c6.5,0.8,5.6,7.5,3.1,9.7C147.6,54.3,142.7,50.3,143.3,46.2z M159.9,53.6c-0.1,0.7-1.1,1.2-2.4,1.4c0,0,0,0,0,0
		c0.1,0.2,0.2,0.4,0.2,0.7c0,0,0,0,0,0c0,0,0,0.1,0,0.1c0,0,0,0,0,0.1c0,0,0,0,0,0.1c0,0,0,0,0,0.1c0,0,0,0,0,0.1c0,0,0,0,0,0.1
		c0,0,0,0,0,0.1c0,0,0,0.1,0,0.1c0,0,0,0,0,0.1c0,0,0,0,0,0.1c0,0,0,0,0,0.1c0,0,0,0-0.1,0.1c0,0,0,0,0,0c0,0,0,0-0.1,0.1
		c0,0,0,0,0,0c0,0-0.1,0.1-0.1,0.1c-0.4,0.3-2,0.1-2.6,0c-0.1,0-0.1,0-0.1,0c0,0,0,0,0,0c0,0-0.1,0-0.1,0c0,0,0,0,0,0
		c0,0,0,0-0.1-0.1c0,0,0,0,0,0c0,0,0-0.1-0.1-0.1c0,0,0,0,0,0c0-0.1-0.1-0.2-0.1-0.3c0,0,0,0,0,0c0,0,0-0.1,0-0.1c0,0,0,0,0-0.1
		c0,0,0-0.1,0-0.1c0,0,0,0,0-0.1c0,0,0-0.1,0-0.1c0,0,0,0,0-0.1c0,0,0-0.1,0-0.1c0,0,0-0.1,0-0.1c0,0,0,0,0,0c0,0,0-0.1,0-0.1
		c0,0,0,0,0,0c0,0,0-0.1,0-0.1c0,0,0,0,0,0c0,0,0-0.1,0-0.1c-1.1-0.2-1.9-0.7-2-1.4c-0.2-1.1,0.5-1.9,2.3-2.4
		c-0.1,0.2-0.2,0.3-0.3,0.6c-0.5,1.9,4.2,1.6,4.1,0.4c0-0.3-0.2-0.7-0.5-1C158.7,51.5,160,52.5,159.9,53.6z M159.5,50.3
		c-2.5-2.2-3.4-8.9,3.1-9.7c2-0.2,5.4,1.6,5.9,5.6C169,50.3,164.2,54.3,159.5,50.3z M173.3,64.6c0,0.4-0.1,0.7-0.2,0.9
		c-0.1,0.1-0.2,0.2-0.3,0.3c0-1,0-2-0.1-2.9C172.9,62.9,173.3,63.7,173.3,64.6z M172.1,40.8c-0.2-1.3-0.7-1.2-0.6-1.6
		c0.1-0.4,1.1-0.6,1.7,0.1C173.8,40.1,172.1,41.3,172.1,40.8z"/>
</g>
<g class="st6">
	<path class="st3" d="M254.5,569c-1.2,0-2.2,1-2.2,2.2c0,1.2,1,2.2,2.2,2.2s2.2-1,2.2-2.2C256.7,570,255.7,569,254.5,569z
		 M255.1,571c-0.4,0-0.7-0.3-0.7-0.7s0.3-0.7,0.7-0.7s0.7,0.3,0.7,0.7S255.5,571,255.1,571z"/>
	<path class="st3" d="M268.9,569c-1.2,0-2.2,1-2.2,2.2c0,1.2,1,2.2,2.2,2.2c1.2,0,2.2-1,2.2-2.2C271.1,570,270.1,569,268.9,569z
		 M268.3,571c-0.4,0-0.7-0.3-0.7-0.7s0.3-0.7,0.7-0.7c0.4,0,0.7,0.3,0.7,0.7S268.7,571,268.3,571z"/>
	<path class="st7" d="M249.2,605.2c1.2-1.7,2.2-0.4,3.9,0.5c0.8,0.4-1.3,1.9-3.7,0.8C248.8,606.1,248.9,605.8,249.2,605.2z"/>
	<path class="st7" d="M274.2,605c-1.2-1.7-2.2-0.4-3.9,0.5c-0.8,0.4,1.3,1.9,3.7,0.8C274.6,605.9,274.6,605.6,274.2,605z"/>
	<path class="st3" d="M280.9,563.6c-1.3-2.6-4.4-0.3-5.2-1.1c-4.1-4.2-9-5.2-12.9-5.4c0,0-1.7,0-2.1,0c-3.9,0.1-8.8,1.2-12.9,5.4
		c-0.8,0.8-4-1.5-5.2,1.1c-1.5,3.1,3,3.4,2.8,4.8c-0.4,2.5-0.2,6.1,0.2,9.7c0.3,2.9-0.6,7.7-0.6,12.5c-0.8,0.1-1.3,1.4-1.3,2.5
		c0,0.5,0.1,1,0.3,1.3c0.3,0.4,0.7,0.7,1.3,0.7v-0.4c0.5,3.8,2,7.3,5.3,9.6c0.7,0,1.4,0.6,2.3,1.1c2.3,0.7,6,1.1,9.2,1.1h0h0
		c3-0.1,6-0.4,8.1-1c0-0.1,0.1-0.1,0.2-0.2c1.2-0.6,2.1-1.4,2.9-1.3c4.1-3,5.2-7.9,5.3-12.8c0.4-0.1,0.8-0.3,1-0.6
		c0.2-0.3,0.3-0.8,0.3-1.3c0-1.2-0.6-2.5-1.5-2.5c-0.2-3.5-0.7-6.6-0.5-8.8c0.3-3.6,0.6-7.3,0.2-9.7
		C277.8,567,282.4,566.6,280.9,563.6z M244.6,594.1c-0.1-0.2-0.2-0.5-0.2-0.9c0-0.8,0.3-1.5,0.6-1.7c0,1,0.1,1.9,0.2,2.9
		C244.9,594.4,244.7,594.3,244.6,594.1z M245.6,565.6c-0.1,0.5-1.7-0.7-1.1-1.5c0.5-0.7,1.6-0.5,1.7-0.1
		C246.3,564.4,245.7,564.4,245.6,565.6z M249.1,571c0.5-3.9,3.9-5.8,5.9-5.6c6.5,0.8,5.6,7.5,3.1,9.7
		C253.4,579.2,248.5,575.1,249.1,571z M265.7,578.5c-0.1,0.7-1.1,1.2-2.4,1.4c0,0,0,0,0,0c0.1,0.2,0.2,0.4,0.2,0.7c0,0,0,0,0,0
		c0,0,0,0.1,0,0.1c0,0,0,0,0,0.1c0,0,0,0,0,0.1c0,0,0,0,0,0.1c0,0,0,0,0,0.1c0,0,0,0,0,0.1c0,0,0,0,0,0.1c0,0,0,0.1,0,0.1
		c0,0,0,0,0,0.1c0,0,0,0,0,0.1c0,0,0,0,0,0.1c0,0,0,0-0.1,0.1c0,0,0,0,0,0c0,0,0,0-0.1,0.1c0,0,0,0,0,0c0,0-0.1,0.1-0.1,0.1
		c-0.4,0.3-2,0.1-2.6,0c-0.1,0-0.1,0-0.1,0c0,0,0,0,0,0c0,0-0.1,0-0.1,0c0,0,0,0,0,0c0,0,0,0-0.1-0.1c0,0,0,0,0,0c0,0,0-0.1-0.1-0.1
		c0,0,0,0,0,0c0-0.1-0.1-0.2-0.1-0.3c0,0,0,0,0,0c0,0,0-0.1,0-0.1c0,0,0,0,0-0.1c0,0,0-0.1,0-0.1c0,0,0,0,0-0.1c0,0,0-0.1,0-0.1
		c0,0,0,0,0-0.1c0,0,0-0.1,0-0.1c0,0,0-0.1,0-0.1c0,0,0,0,0,0c0,0,0-0.1,0-0.1c0,0,0,0,0,0c0,0,0-0.1,0-0.1c0,0,0,0,0,0
		c0,0,0-0.1,0-0.1c-1.1-0.2-1.9-0.7-2-1.4c-0.2-1.1,0.5-1.9,2.3-2.4c-0.1,0.2-0.2,0.3-0.3,0.6c-0.5,1.9,4.2,1.6,4.1,0.4
		c0-0.3-0.2-0.7-0.5-1C264.5,576.4,265.8,577.4,265.7,578.5z M265.3,575.1c-2.5-2.2-3.4-8.9,3.1-9.7c2-0.2,5.4,1.6,5.9,5.6
		C274.8,575.1,270,579.2,265.3,575.1z M279.1,589.4c0,0.4-0.1,0.7-0.2,0.9c-0.1,0.1-0.2,0.2-0.3,0.3c0-1,0-2-0.1-2.9
		C278.7,587.8,279.1,588.5,279.1,589.4z M277.8,565.6c-0.2-1.3-0.7-1.2-0.6-1.6c0.1-0.4,1.1-0.6,1.7,0.1
		C279.6,565,277.9,566.1,277.8,565.6z"/>
</g>
<g class="st6">
	<path class="st3" d="M1151.1,516.1c-1.2,0-2.2,1-2.2,2.2s1,2.2,2.2,2.2c1.2,0,2.2-1,2.2-2.2S1152.3,516.1,1151.1,516.1z
		 M1151.7,518.1c-0.4,0-0.7-0.3-0.7-0.7c0-0.4,0.3-0.7,0.7-0.7s0.7,0.3,0.7,0.7C1152.4,517.7,1152.1,518.1,1151.7,518.1z"/>
	<path class="st3" d="M1165.5,516.1c-1.2,0-2.2,1-2.2,2.2s1,2.2,2.2,2.2c1.2,0,2.2-1,2.2-2.2S1166.7,516.1,1165.5,516.1z
		 M1164.9,518.1c-0.4,0-0.7-0.3-0.7-0.7c0-0.4,0.3-0.7,0.7-0.7c0.4,0,0.7,0.3,0.7,0.7C1165.6,517.7,1165.3,518.1,1164.9,518.1z"/>
	<path class="st7" d="M1145.8,552.3c1.2-1.7,2.2-0.4,3.9,0.5c0.8,0.4-1.3,1.9-3.7,0.8C1145.4,553.2,1145.4,552.8,1145.8,552.3z"/>
	<path class="st7" d="M1170.7,552.1c-1.2-1.7-2.2-0.4-3.9,0.5c-0.8,0.4,1.3,1.9,3.7,0.8C1171.2,553,1171.1,552.6,1170.7,552.1z"/>
	<path class="st3" d="M1177.5,510.6c-1.3-2.6-4.4-0.3-5.2-1.1c-4.1-4.2-9-5.2-12.9-5.4c0,0-1.7,0-2.1,0c-3.9,0.1-8.8,1.2-12.9,5.4
		c-0.8,0.8-4-1.5-5.2,1.1c-1.5,3.1,3,3.4,2.8,4.8c-0.4,2.5-0.2,6.1,0.2,9.7c0.3,2.9-0.6,7.7-0.6,12.5c-0.8,0.1-1.3,1.4-1.3,2.5
		c0,0.5,0.1,1,0.3,1.3c0.3,0.4,0.7,0.7,1.3,0.7v-0.4c0.5,3.8,2,7.3,5.3,9.6c0.7,0,1.4,0.6,2.3,1.1c2.3,0.7,6,1.1,9.2,1.1h0h0
		c3-0.1,6-0.4,8.1-1c0-0.1,0.1-0.1,0.2-0.2c1.2-0.6,2.1-1.4,2.9-1.3c4.1-3,5.2-7.9,5.3-12.8c0.4-0.1,0.8-0.3,1-0.6
		c0.2-0.3,0.3-0.8,0.3-1.3c0-1.2-0.6-2.5-1.5-2.5c-0.2-3.5-0.7-6.6-0.5-8.8c0.3-3.6,0.6-7.3,0.2-9.7
		C1174.4,514,1178.9,513.7,1177.5,510.6z M1141.1,541.1c-0.1-0.2-0.2-0.5-0.2-0.9c0-0.8,0.3-1.5,0.6-1.7c0,1,0.1,1.9,0.2,2.9
		C1141.5,541.4,1141.3,541.3,1141.1,541.1z M1142.1,512.7c-0.1,0.5-1.7-0.7-1.1-1.5c0.5-0.7,1.6-0.5,1.7-0.1
		C1142.8,511.5,1142.3,511.5,1142.1,512.7z M1145.7,518.1c0.5-3.9,3.9-5.8,5.9-5.6c6.5,0.8,5.6,7.5,3.1,9.7
		C1150,526.2,1145.1,522.2,1145.7,518.1z M1162.2,525.5c-0.1,0.7-1.1,1.2-2.4,1.4c0,0,0,0,0,0c0.1,0.2,0.2,0.4,0.2,0.7c0,0,0,0,0,0
		c0,0,0,0.1,0,0.1c0,0,0,0,0,0.1c0,0,0,0,0,0.1c0,0,0,0,0,0.1c0,0,0,0,0,0.1c0,0,0,0,0,0.1c0,0,0,0,0,0.1c0,0,0,0.1,0,0.1
		c0,0,0,0,0,0.1c0,0,0,0,0,0.1c0,0,0,0,0,0.1c0,0,0,0-0.1,0.1c0,0,0,0,0,0c0,0,0,0-0.1,0.1c0,0,0,0,0,0c0,0-0.1,0.1-0.1,0.1
		c-0.4,0.3-2,0.1-2.6,0c-0.1,0-0.1,0-0.1,0c0,0,0,0,0,0c0,0-0.1,0-0.1,0c0,0,0,0,0,0c0,0,0,0-0.1-0.1c0,0,0,0,0,0c0,0,0-0.1-0.1-0.1
		c0,0,0,0,0,0c0-0.1-0.1-0.2-0.1-0.3c0,0,0,0,0,0c0,0,0-0.1,0-0.1c0,0,0,0,0-0.1c0,0,0-0.1,0-0.1c0,0,0,0,0-0.1c0,0,0-0.1,0-0.1
		c0,0,0,0,0-0.1c0,0,0-0.1,0-0.1c0,0,0-0.1,0-0.1c0,0,0,0,0,0c0,0,0-0.1,0-0.1c0,0,0,0,0,0c0,0,0-0.1,0-0.1c0,0,0,0,0,0
		c0,0,0-0.1,0-0.1c-1.1-0.2-1.9-0.7-2-1.4c-0.2-1.1,0.5-1.9,2.3-2.4c-0.1,0.2-0.2,0.3-0.3,0.6c-0.5,1.9,4.2,1.6,4.1,0.4
		c0-0.3-0.2-0.7-0.5-1C1161.1,523.4,1162.4,524.4,1162.2,525.5z M1161.9,522.2c-2.5-2.2-3.4-8.9,3.1-9.7c2-0.2,5.4,1.6,5.9,5.6
		C1171.4,522.2,1166.6,526.2,1161.9,522.2z M1175.6,536.5c0,0.4-0.1,0.7-0.2,0.9c-0.1,0.1-0.2,0.2-0.3,0.3c0-1,0-2-0.1-2.9
		C1175.2,534.8,1175.6,535.6,1175.6,536.5z M1174.4,512.7c-0.2-1.3-0.7-1.2-0.6-1.6c0.1-0.4,1.1-0.6,1.7,0.1
		C1176.2,512,1174.5,513.2,1174.4,512.7z"/>
</g>
<g class="st6">
	<path class="st3" d="M1325.3,39.8c-1.2,0-2.2,1-2.2,2.2c0,1.2,1,2.2,2.2,2.2c1.2,0,2.2-1,2.2-2.2
		C1327.5,40.8,1326.5,39.8,1325.3,39.8z M1325.9,41.7c-0.4,0-0.7-0.3-0.7-0.7s0.3-0.7,0.7-0.7s0.7,0.3,0.7,0.7
		S1326.2,41.7,1325.9,41.7z"/>
	<path class="st3" d="M1339.7,39.8c-1.2,0-2.2,1-2.2,2.2c0,1.2,1,2.2,2.2,2.2c1.2,0,2.2-1,2.2-2.2
		C1341.9,40.8,1340.9,39.8,1339.7,39.8z M1339.1,41.7c-0.4,0-0.7-0.3-0.7-0.7s0.3-0.7,0.7-0.7c0.4,0,0.7,0.3,0.7,0.7
		S1339.5,41.7,1339.1,41.7z"/>
	<path class="st7" d="M1320,75.9c1.2-1.7,2.2-0.4,3.9,0.5c0.8,0.4-1.3,1.9-3.7,0.8C1319.6,76.9,1319.6,76.5,1320,75.9z"/>
	<path class="st7" d="M1344.9,75.7c-1.2-1.7-2.2-0.4-3.9,0.5c-0.8,0.4,1.3,1.9,3.7,0.8C1345.3,76.7,1345.3,76.3,1344.9,75.7z"/>
	<path class="st3" d="M1351.6,34.3c-1.3-2.6-4.4-0.3-5.2-1.1c-4.1-4.2-9-5.2-12.9-5.4c0,0-1.7,0-2.1,0c-3.9,0.1-8.8,1.2-12.9,5.4
		c-0.8,0.8-4-1.5-5.2,1.1c-1.5,3.1,3,3.4,2.8,4.8c-0.4,2.5-0.2,6.1,0.2,9.7c0.3,2.9-0.6,7.7-0.6,12.5c-0.8,0.1-1.3,1.4-1.3,2.5
		c0,0.5,0.1,1,0.3,1.3c0.3,0.4,0.7,0.7,1.3,0.7v-0.4c0.5,3.8,2,7.3,5.3,9.6c0.7,0,1.4,0.6,2.3,1.1c2.3,0.7,6,1.1,9.2,1.1h0h0
		c3-0.1,6-0.4,8.1-1c0-0.1,0.1-0.1,0.2-0.2c1.2-0.6,2.1-1.4,2.9-1.3c4.1-3,5.2-7.9,5.3-12.8c0.4-0.1,0.8-0.3,1-0.6
		c0.2-0.3,0.3-0.8,0.3-1.3c0-1.2-0.6-2.5-1.5-2.5c-0.2-3.5-0.7-6.6-0.5-8.8c0.3-3.6,0.6-7.3,0.2-9.7
		C1348.6,37.7,1353.1,37.4,1351.6,34.3z M1315.3,64.8c-0.1-0.2-0.2-0.5-0.2-0.9c0-0.8,0.3-1.5,0.6-1.7c0,1,0.1,1.9,0.2,2.9
		C1315.6,65.1,1315.5,65,1315.3,64.8z M1316.3,36.4c-0.1,0.5-1.7-0.7-1.1-1.5c0.5-0.7,1.6-0.5,1.7-0.1
		C1317,35.2,1316.5,35.1,1316.3,36.4z M1319.8,41.8c0.5-3.9,3.9-5.8,5.9-5.6c6.5,0.8,5.6,7.5,3.1,9.7
		C1324.2,49.9,1319.3,45.8,1319.8,41.8z M1336.4,49.2c-0.1,0.7-1.1,1.2-2.4,1.4c0,0,0,0,0,0c0.1,0.2,0.2,0.4,0.2,0.7c0,0,0,0,0,0
		c0,0,0,0.1,0,0.1c0,0,0,0,0,0.1c0,0,0,0,0,0.1c0,0,0,0,0,0.1c0,0,0,0,0,0.1c0,0,0,0,0,0.1c0,0,0,0,0,0.1c0,0,0,0.1,0,0.1
		c0,0,0,0,0,0.1c0,0,0,0,0,0.1c0,0,0,0,0,0.1c0,0,0,0-0.1,0.1c0,0,0,0,0,0c0,0,0,0-0.1,0.1c0,0,0,0,0,0c0,0-0.1,0.1-0.1,0.1
		c-0.4,0.3-2,0.1-2.6,0c-0.1,0-0.1,0-0.1,0c0,0,0,0,0,0c0,0-0.1,0-0.1,0c0,0,0,0,0,0c0,0,0,0-0.1-0.1c0,0,0,0,0,0c0,0,0-0.1-0.1-0.1
		c0,0,0,0,0,0c0-0.1-0.1-0.2-0.1-0.3c0,0,0,0,0,0c0,0,0-0.1,0-0.1c0,0,0,0,0-0.1c0,0,0-0.1,0-0.1c0,0,0,0,0-0.1c0,0,0-0.1,0-0.1
		c0,0,0,0,0-0.1c0,0,0-0.1,0-0.1c0,0,0-0.1,0-0.1c0,0,0,0,0,0c0,0,0-0.1,0-0.1c0,0,0,0,0,0c0,0,0-0.1,0-0.1c0,0,0,0,0,0
		c0,0,0-0.1,0-0.1c-1.1-0.2-1.9-0.7-2-1.4c-0.2-1.1,0.5-1.9,2.3-2.4c-0.1,0.2-0.2,0.3-0.3,0.6c-0.5,1.9,4.2,1.6,4.1,0.4
		c0-0.3-0.2-0.7-0.5-1C1335.3,47.1,1336.6,48.1,1336.4,49.2z M1336.1,45.8c-2.5-2.2-3.4-8.9,3.1-9.7c2-0.2,5.4,1.6,5.9,5.6
		C1345.6,45.8,1340.8,49.9,1336.1,45.8z M1349.8,60.1c0,0.4-0.1,0.7-0.2,0.9c-0.1,0.1-0.2,0.2-0.3,0.3c0-1,0-2-0.1-2.9
		C1349.4,58.5,1349.8,59.3,1349.8,60.1z M1348.6,36.4c-0.2-1.3-0.7-1.2-0.6-1.6c0.1-0.4,1.1-0.6,1.7,0.1
		C1350.4,35.7,1348.7,36.8,1348.6,36.4z"/>
</g>
<g class="st6">
	<path class="st3" d="M373,338.9c-1.2,0-2.2,1-2.2,2.2s1,2.2,2.2,2.2c1.2,0,2.2-1,2.2-2.2S374.2,338.9,373,338.9z M373.5,340.9
		c-0.4,0-0.7-0.3-0.7-0.7s0.3-0.7,0.7-0.7c0.4,0,0.7,0.3,0.7,0.7S373.9,340.9,373.5,340.9z"/>
	<path class="st3" d="M387.3,338.9c-1.2,0-2.2,1-2.2,2.2s1,2.2,2.2,2.2c1.2,0,2.2-1,2.2-2.2S388.6,338.9,387.3,338.9z M386.8,340.9
		c-0.4,0-0.7-0.3-0.7-0.7s0.3-0.7,0.7-0.7s0.7,0.3,0.7,0.7S387.1,340.9,386.8,340.9z"/>
	<path class="st7" d="M367.7,375.1c1.2-1.7,2.2-0.4,3.9,0.5c0.8,0.4-1.3,1.9-3.7,0.8C367.3,376,367.3,375.6,367.7,375.1z"/>
	<path class="st7" d="M392.6,374.9c-1.2-1.7-2.2-0.4-3.9,0.5c-0.8,0.4,1.3,1.9,3.7,0.8C393,375.8,393,375.5,392.6,374.9z"/>
	<path class="st3" d="M399.3,333.5c-1.3-2.6-4.4-0.3-5.2-1.1c-4.1-4.2-9-5.2-12.9-5.4c0,0-1.7,0-2.1,0c-3.9,0.1-8.8,1.2-12.9,5.4
		c-0.8,0.8-4-1.5-5.2,1.1c-1.5,3.1,3,3.4,2.8,4.8c-0.4,2.5-0.2,6.1,0.2,9.7c0.3,2.9-0.6,7.7-0.6,12.5c-0.8,0.1-1.3,1.4-1.3,2.5
		c0,0.5,0.1,1,0.3,1.3c0.3,0.4,0.7,0.7,1.3,0.7v-0.4c0.5,3.8,2,7.3,5.3,9.6c0.7,0,1.4,0.6,2.3,1.1c2.3,0.7,6,1.1,9.2,1.1h0h0
		c3-0.1,6-0.4,8.1-1c0-0.1,0.1-0.1,0.2-0.2c1.2-0.6,2.1-1.4,2.9-1.3c4.1-3,5.2-7.9,5.3-12.8c0.4-0.1,0.8-0.3,1-0.6
		c0.2-0.3,0.3-0.8,0.3-1.3c0-1.2-0.6-2.5-1.5-2.5c-0.2-3.5-0.7-6.6-0.5-8.8c0.3-3.6,0.6-7.3,0.2-9.7
		C396.3,336.9,400.8,336.5,399.3,333.5z M363,363.9c-0.1-0.2-0.2-0.5-0.2-0.9c0-0.8,0.3-1.5,0.6-1.7c0,1,0.1,1.9,0.2,2.9
		C363.3,364.2,363.1,364.1,363,363.9z M364,335.5c-0.1,0.5-1.7-0.7-1.1-1.5c0.5-0.7,1.6-0.5,1.7-0.1S364.2,334.3,364,335.5z
		 M367.5,340.9c0.5-3.9,3.9-5.8,5.9-5.6c6.5,0.8,5.6,7.5,3.1,9.7C371.8,349,367,345,367.5,340.9z M384.1,348.4
		c-0.1,0.7-1.1,1.2-2.4,1.4c0,0,0,0,0,0c0.1,0.2,0.2,0.4,0.2,0.7c0,0,0,0,0,0c0,0,0,0.1,0,0.1c0,0,0,0,0,0.1c0,0,0,0,0,0.1
		c0,0,0,0,0,0.1c0,0,0,0,0,0.1c0,0,0,0,0,0.1c0,0,0,0,0,0.1c0,0,0,0.1,0,0.1c0,0,0,0,0,0.1c0,0,0,0,0,0.1c0,0,0,0,0,0.1
		c0,0,0,0-0.1,0.1c0,0,0,0,0,0c0,0,0,0-0.1,0.1c0,0,0,0,0,0c0,0-0.1,0.1-0.1,0.1c-0.4,0.3-2,0.1-2.6,0c-0.1,0-0.1,0-0.1,0
		c0,0,0,0,0,0c0,0-0.1,0-0.1,0c0,0,0,0,0,0c0,0,0,0-0.1-0.1c0,0,0,0,0,0c0,0,0-0.1-0.1-0.1c0,0,0,0,0,0c0-0.1-0.1-0.2-0.1-0.3
		c0,0,0,0,0,0c0,0,0-0.1,0-0.1c0,0,0,0,0-0.1c0,0,0-0.1,0-0.1c0,0,0,0,0-0.1c0,0,0-0.1,0-0.1c0,0,0,0,0-0.1c0,0,0-0.1,0-0.1
		c0,0,0-0.1,0-0.1c0,0,0,0,0,0c0,0,0-0.1,0-0.1c0,0,0,0,0,0c0,0,0-0.1,0-0.1c0,0,0,0,0,0c0,0,0-0.1,0-0.1c-1.1-0.2-1.9-0.7-2-1.4
		c-0.2-1.1,0.5-1.9,2.3-2.4c-0.1,0.2-0.2,0.3-0.3,0.6c-0.5,1.9,4.2,1.6,4.1,0.4c0-0.3-0.2-0.7-0.5-1
		C382.9,346.3,384.2,347.3,384.1,348.4z M383.8,345c-2.5-2.2-3.4-8.9,3.1-9.7c2-0.2,5.4,1.6,5.9,5.6C393.3,345,388.4,349,383.8,345z
		 M397.5,359.3c0,0.4-0.1,0.7-0.2,0.9c-0.1,0.1-0.2,0.2-0.3,0.3c0-1,0-2-0.1-2.9C397.1,357.6,397.5,358.4,397.5,359.3z M396.3,335.5
		c-0.2-1.3-0.7-1.2-0.6-1.6c0.1-0.4,1.1-0.6,1.7,0.1C398,334.9,396.4,336,396.3,335.5z"/>
</g>
</svg>
