<svg version="1" xmlns="http://www.w3.org/2000/svg" width="1411.482" height="738.433" viewBox="0 0 1411.482 738.433"><path d="M475.919 135.092h4.318c1.268.012 2.186.376 2.754 1.096.57.72.758 1.702.564 2.948a5.676 5.676 0 0 1-.5 1.676 4.962 4.962 0 0 1-1.032 1.482c-.538.558-1.112.912-1.724 1.062s-1.246.226-1.902.226h-1.934l-.612 3.062h-2.24l2.308-11.552m1.884 1.836l-.966 4.834c.064.01.128.016.194.016h.226c1.03.012 1.89-.09 2.578-.306.688-.226 1.15-1.01 1.386-2.354.194-1.128 0-1.778-.58-1.95-.57-.172-1.284-.252-2.144-.242-.128.01-.252.016-.37.016h-.338l.014-.014m8.304-4.914h2.224l-.628 3.078h1.998c1.096.022 1.912.248 2.45.678.548.43.708 1.246.484 2.448l-1.08 5.366h-2.256l1.03-5.124c.108-.538.076-.918-.096-1.144-.172-.226-.542-.338-1.112-.338l-1.788-.016-1.322 6.622h-2.224l2.32-11.57m8.912 3.078h4.318c1.268.012 2.186.376 2.754 1.096.57.72.758 1.702.564 2.948a5.676 5.676 0 0 1-.5 1.676 4.926 4.926 0 0 1-1.032 1.482c-.536.558-1.112.912-1.724 1.062s-1.246.226-1.902.226h-1.934l-.612 3.062h-2.24l2.308-11.552m1.886 1.836l-.966 4.834c.064.01.128.016.192.016h.226c1.03.012 1.89-.09 2.578-.306.688-.226 1.15-1.01 1.386-2.354.194-1.128 0-1.778-.58-1.95-.57-.172-1.284-.252-2.144-.242-.128.01-.252.016-.37.016h-.338l.016-.014M991.919 135.092h4.318c1.268.012 2.186.376 2.754 1.096s.756 1.702.564 2.948a5.617 5.617 0 0 1-.5 1.676 4.962 4.962 0 0 1-1.032 1.482c-.538.558-1.112.912-1.724 1.062s-1.246.226-1.902.226h-1.934l-.612 3.062h-2.24l2.308-11.552m1.884 1.836l-.966 4.834c.064.01.128.016.194.016h.226c1.032.012 1.89-.09 2.578-.306.688-.226 1.148-1.01 1.384-2.354.194-1.128 0-1.778-.58-1.95-.568-.172-1.284-.252-2.142-.242a4.79 4.79 0 0 1-.372.016h-.338l.016-.014m8.304-4.914h2.224l-.628 3.078h1.998c1.096.022 1.912.248 2.45.678.548.43.708 1.246.484 2.448l-1.08 5.366h-2.256l1.032-5.124c.108-.538.076-.918-.096-1.144-.172-.226-.542-.338-1.112-.338l-1.788-.016-1.322 6.622h-2.224l2.318-11.57m8.912 3.078h4.318c1.268.012 2.186.376 2.754 1.096.57.72.758 1.702.564 2.948a5.676 5.676 0 0 1-.5 1.676 4.926 4.926 0 0 1-1.032 1.482c-.536.558-1.112.912-1.722 1.062a7.974 7.974 0 0 1-1.902.226h-1.932l-.612 3.062h-2.24l2.304-11.552m1.886 1.836l-.966 4.834c.064.01.128.016.194.016h.226c1.03.012 1.89-.09 2.578-.306.688-.226 1.15-1.01 1.386-2.354.194-1.128 0-1.778-.58-1.95-.57-.172-1.284-.252-2.142-.242a4.79 4.79 0 0 1-.372.016h-.338l.014-.014M1256.919 429.092h4.318c1.268.01 2.186.376 2.754 1.096.57.718.756 1.702.564 2.948a5.588 5.588 0 0 1-.5 1.674 4.996 4.996 0 0 1-1.032 1.484c-.538.558-1.112.914-1.724 1.064s-1.246.224-1.902.224h-1.934l-.612 3.062h-2.24l2.308-11.552m1.884 1.836l-.966 4.834c.064.01.128.016.194.016h.226c1.032.012 1.89-.09 2.578-.304.688-.226 1.148-1.01 1.384-2.354.194-1.126 0-1.778-.58-1.95-.568-.172-1.284-.252-2.142-.242a3.97 3.97 0 0 1-.372.016h-.338l.016-.016m8.304-4.914h2.224l-.628 3.078h1.998c1.096.022 1.912.246 2.45.676.548.428.708 1.246.484 2.448l-1.08 5.366h-2.256l1.032-5.124c.108-.538.076-.918-.096-1.144-.172-.224-.542-.338-1.112-.338l-1.788-.016-1.322 6.622h-2.224l2.318-11.568m8.912 3.078h4.318c1.268.01 2.186.376 2.754 1.096.57.718.758 1.702.564 2.948a5.646 5.646 0 0 1-.5 1.674 4.96 4.96 0 0 1-1.032 1.484c-.536.558-1.112.914-1.722 1.064a7.973 7.973 0 0 1-1.902.224h-1.932l-.612 3.062h-2.24l2.304-11.552m1.886 1.836l-.966 4.834c.064.01.128.016.194.016h.226c1.03.012 1.89-.09 2.578-.304.688-.226 1.15-1.01 1.386-2.354.194-1.126 0-1.778-.58-1.95-.57-.172-1.284-.252-2.142-.242a3.97 3.97 0 0 1-.372.016h-.338l.014-.016M809.919 631.092h4.318c1.268.01 2.186.376 2.754 1.096.57.718.756 1.702.564 2.948a5.588 5.588 0 0 1-.5 1.674 4.996 4.996 0 0 1-1.032 1.484c-.538.558-1.112.914-1.724 1.064s-1.246.224-1.902.224h-1.934l-.612 3.062h-2.24l2.308-11.552m1.884 1.836l-.966 4.834c.064.01.128.016.194.016h.226c1.032.012 1.89-.09 2.578-.304.688-.226 1.148-1.01 1.384-2.354.194-1.126 0-1.778-.58-1.95-.568-.172-1.284-.252-2.142-.242a3.97 3.97 0 0 1-.372.016h-.338l.016-.016m8.304-4.914h2.224l-.628 3.078h1.998c1.096.022 1.912.246 2.45.676.548.428.708 1.246.484 2.448l-1.08 5.366h-2.256l1.032-5.124c.108-.538.076-.918-.096-1.144-.172-.224-.542-.338-1.112-.338l-1.788-.016-1.322 6.622h-2.224l2.318-11.568m8.912 3.078h4.318c1.268.01 2.186.376 2.754 1.096.57.718.758 1.702.564 2.948a5.646 5.646 0 0 1-.5 1.674 4.96 4.96 0 0 1-1.032 1.484c-.536.558-1.112.914-1.722 1.064a7.973 7.973 0 0 1-1.902.224h-1.932l-.612 3.062h-2.24l2.304-11.552m1.886 1.836l-.966 4.834c.064.01.128.016.194.016h.226c1.03.012 1.89-.09 2.578-.304.688-.226 1.15-1.01 1.386-2.354.194-1.126 0-1.778-.58-1.95-.57-.172-1.284-.252-2.142-.242a3.97 3.97 0 0 1-.372.016h-.338l.014-.016M428.919 535.092h4.318c1.268.01 2.186.376 2.754 1.096.57.718.758 1.702.564 2.948a5.646 5.646 0 0 1-.5 1.674 4.996 4.996 0 0 1-1.032 1.484c-.538.558-1.112.914-1.724 1.064s-1.246.224-1.902.224h-1.934l-.612 3.062h-2.24l2.308-11.552m1.884 1.836l-.966 4.834c.064.01.128.016.194.016h.226c1.03.012 1.89-.09 2.578-.304.688-.226 1.15-1.01 1.386-2.354.194-1.126 0-1.778-.58-1.95-.57-.172-1.284-.252-2.144-.242a3.956 3.956 0 0 1-.37.016h-.338l.014-.016m8.304-4.914h2.224l-.628 3.078h1.998c1.096.022 1.912.246 2.45.676.548.428.708 1.246.484 2.448l-1.08 5.366h-2.256l1.03-5.124c.108-.538.076-.918-.096-1.144-.172-.224-.542-.338-1.112-.338l-1.788-.016-1.322 6.622h-2.224l2.32-11.568m8.912 3.078h4.318c1.268.01 2.186.376 2.754 1.096.57.718.758 1.702.564 2.948a5.646 5.646 0 0 1-.5 1.674 4.96 4.96 0 0 1-1.032 1.484c-.536.558-1.112.914-1.724 1.064s-1.246.224-1.902.224h-1.934l-.612 3.062h-2.24l2.308-11.552m1.886 1.836l-.966 4.834c.064.01.128.016.192.016h.226c1.03.012 1.89-.09 2.578-.304.688-.226 1.15-1.01 1.386-2.354.194-1.126 0-1.778-.58-1.95-.57-.172-1.284-.252-2.144-.242a3.956 3.956 0 0 1-.37.016h-.338l.016-.016M214.919 680.092h4.318c1.268.01 2.186.376 2.754 1.096.57.718.758 1.702.564 2.948a5.646 5.646 0 0 1-.5 1.674 4.996 4.996 0 0 1-1.032 1.484c-.538.558-1.112.914-1.724 1.064s-1.246.224-1.902.224h-1.934l-.612 3.062h-2.24l2.308-11.552m1.884 1.836l-.966 4.834c.064.01.128.016.194.016h.226c1.03.012 1.89-.09 2.578-.304.688-.226 1.15-1.01 1.386-2.354.194-1.126 0-1.778-.58-1.95-.57-.172-1.284-.252-2.144-.242a3.956 3.956 0 0 1-.37.016h-.338l.014-.016m8.304-4.914h2.224l-.628 3.078h1.998c1.096.022 1.912.246 2.45.676.548.428.708 1.246.484 2.448l-1.08 5.366h-2.256l1.03-5.124c.108-.538.076-.918-.096-1.144-.172-.224-.542-.338-1.112-.338l-1.788-.016-1.322 6.622h-2.224l2.32-11.568m8.912 3.078h4.318c1.268.01 2.186.376 2.754 1.096.57.718.758 1.702.564 2.948a5.646 5.646 0 0 1-.5 1.674 4.96 4.96 0 0 1-1.032 1.484c-.536.558-1.112.914-1.724 1.064s-1.246.224-1.902.224h-1.934l-.612 3.062h-2.24l2.308-11.552m1.886 1.836l-.966 4.834c.064.01.128.016.192.016h.226c1.03.012 1.89-.09 2.578-.304.688-.226 1.15-1.01 1.386-2.354.194-1.126 0-1.778-.58-1.95-.57-.172-1.284-.252-2.144-.242a3.956 3.956 0 0 1-.37.016h-.338l.016-.016M189.919 214.092h4.318c1.268.012 2.186.376 2.754 1.096.57.72.758 1.702.564 2.948a5.676 5.676 0 0 1-.5 1.676 4.962 4.962 0 0 1-1.032 1.482c-.538.558-1.112.912-1.724 1.062s-1.246.226-1.902.226h-1.934l-.612 3.062h-2.24l2.308-11.552m1.884 1.836l-.966 4.834c.064.01.128.016.194.016h.226c1.03.012 1.89-.09 2.578-.306.688-.226 1.15-1.01 1.386-2.354.194-1.128 0-1.778-.58-1.95-.57-.172-1.284-.252-2.144-.242-.128.01-.252.016-.37.016h-.338l.014-.014m8.304-4.914h2.224l-.628 3.078h1.998c1.096.022 1.912.248 2.45.678.548.43.708 1.246.484 2.448l-1.08 5.366h-2.256l1.03-5.124c.108-.538.076-.918-.096-1.144-.172-.226-.542-.338-1.112-.338l-1.788-.016-1.322 6.622h-2.224l2.32-11.57m8.912 3.078h4.318c1.268.012 2.186.376 2.754 1.096.57.72.758 1.702.564 2.948a5.676 5.676 0 0 1-.5 1.676 4.926 4.926 0 0 1-1.032 1.482c-.536.558-1.112.912-1.724 1.062s-1.246.226-1.902.226h-1.934l-.612 3.062h-2.24l2.308-11.552m1.886 1.836l-.966 4.834c.064.01.128.016.192.016h.226c1.03.012 1.89-.09 2.578-.306.688-.226 1.15-1.01 1.386-2.354.194-1.128 0-1.778-.58-1.95-.57-.172-1.284-.252-2.144-.242-.128.01-.252.016-.37.016h-.338l.016-.014M1095.919 251.092h4.318c1.268.012 2.186.376 2.754 1.096s.756 1.702.564 2.948a5.617 5.617 0 0 1-.5 1.676 4.962 4.962 0 0 1-1.032 1.482c-.538.558-1.112.912-1.724 1.062s-1.246.226-1.902.226h-1.934l-.612 3.062h-2.24l2.308-11.552m1.884 1.836l-.966 4.834c.064.01.128.016.194.016h.226c1.032.012 1.89-.09 2.578-.306.688-.226 1.148-1.01 1.384-2.354.194-1.128 0-1.778-.58-1.95-.568-.172-1.284-.252-2.142-.242a4.79 4.79 0 0 1-.372.016h-.338l.016-.014m8.304-4.914h2.224l-.628 3.078h1.998c1.096.022 1.912.248 2.45.678.548.43.708 1.246.484 2.448l-1.08 5.366h-2.256l1.032-5.124c.108-.538.076-.918-.096-1.144-.172-.226-.542-.338-1.112-.338l-1.788-.016-1.322 6.622h-2.224l2.318-11.57m8.912 3.078h4.318c1.268.012 2.186.376 2.754 1.096.57.72.758 1.702.564 2.948a5.676 5.676 0 0 1-.5 1.676 4.926 4.926 0 0 1-1.032 1.482c-.536.558-1.112.912-1.722 1.062a7.974 7.974 0 0 1-1.902.226h-1.932l-.612 3.062h-2.24l2.304-11.552m1.886 1.836l-.966 4.834c.064.01.128.016.194.016h.226c1.03.012 1.89-.09 2.578-.306.688-.226 1.15-1.01 1.386-2.354.194-1.128 0-1.778-.58-1.95-.57-.172-1.284-.252-2.142-.242a4.79 4.79 0 0 1-.372.016h-.338l.014-.014M1379.919 68.092h4.318c1.268.012 2.186.376 2.754 1.096s.756 1.702.564 2.948a5.617 5.617 0 0 1-.5 1.676 4.962 4.962 0 0 1-1.032 1.482c-.538.558-1.112.912-1.724 1.062s-1.246.226-1.902.226h-1.934l-.612 3.062h-2.24l2.308-11.552m1.884 1.836l-.966 4.834c.064.01.128.016.194.016h.226c1.032.012 1.89-.09 2.578-.306.688-.226 1.148-1.01 1.384-2.354.194-1.128 0-1.778-.58-1.95-.568-.172-1.284-.252-2.142-.242a4.79 4.79 0 0 1-.372.016h-.338l.016-.014m8.304-4.914h2.224l-.628 3.078h1.998c1.096.022 1.912.248 2.45.678.548.43.708 1.246.484 2.448l-1.08 5.366h-2.256l1.032-5.124c.108-.538.076-.918-.096-1.144-.172-.226-.542-.338-1.112-.338l-1.788-.016-1.322 6.622h-2.224l2.318-11.57m8.912 3.078h4.318c1.268.012 2.186.376 2.754 1.096.57.72.758 1.702.564 2.948a5.676 5.676 0 0 1-.5 1.676 4.926 4.926 0 0 1-1.032 1.482c-.536.558-1.112.912-1.722 1.062a7.974 7.974 0 0 1-1.902.226h-1.932l-.612 3.062h-2.24l2.304-11.552m1.886 1.836l-.966 4.834c.064.01.128.016.194.016h.226c1.03.012 1.89-.09 2.578-.306.688-.226 1.15-1.01 1.386-2.354.194-1.128 0-1.778-.58-1.95-.57-.172-1.284-.252-2.142-.242a4.79 4.79 0 0 1-.372.016h-.338l.014-.014" fill="#FFF" opacity=".2"/><g opacity=".2" fill="#FFF"><path d="M508.368 279.665a.298.298 0 0 0-.296.297v7.565a.204.204 0 0 1-.307.177l-1.236-.711a.593.593 0 0 0-.593 0L501 289.84a.605.605 0 0 0-.296.524v5.695a.59.59 0 0 0 .296.514l4.935 2.848a.588.588 0 0 0 .593 0l4.934-2.848a.589.589 0 0 0 .296-.514v-14.2a.603.603 0 0 0-.306-.523l-2.937-1.642a.282.282 0 0 0-.148-.03zm-31.741 7.109a.574.574 0 0 0-.267.069l-4.934 2.848a.59.59 0 0 0-.296.514l.01 7.643c0 .107.055.205.148.257a.282.282 0 0 0 .296 0l2.927-1.681a.604.604 0 0 0 .307-.514v-3.57a.59.59 0 0 1 .296-.513l1.246-.722a.595.595 0 0 1 .594 0l1.246.722a.588.588 0 0 1 .296.514v3.569c0 .213.123.405.307.514l2.926 1.68a.282.282 0 0 0 .296 0 .296.296 0 0 0 .148-.256l.01-7.643a.589.589 0 0 0-.297-.514l-4.934-2.848a.553.553 0 0 0-.267-.07h-.058zm44.338.07a.589.589 0 0 0-.296.079l-4.934 2.848a.59.59 0 0 0-.296.514v5.696c0 .214.12.408.306.514l4.895 2.789a.594.594 0 0 0 .583.01l2.967-1.651a.292.292 0 1 0 .01-.515l-4.964-2.848a.319.319 0 0 1-.158-.267v-1.78c0-.106.066-.204.158-.257l1.543-.89a.295.295 0 0 1 .296 0l1.543.89a.297.297 0 0 1 .148.257v1.404c0 .107.056.204.148.257a.29.29 0 0 0 .296 0l2.957-1.72a.595.595 0 0 0 .296-.515v-1.375a.595.595 0 0 0-.296-.514l-4.905-2.848a.589.589 0 0 0-.297-.078zm-14.752 4.252c.026 0 .056.006.079.019l1.69.979a.151.151 0 0 1 .08.128v1.958a.152.152 0 0 1-.08.129l-1.69.979a.145.145 0 0 1-.148 0l-1.691-.98a.154.154 0 0 1-.08-.128v-1.958c0-.053.034-.102.08-.128l1.69-.98a.128.128 0 0 1 .07-.018z"/><path opacity=".6" d="M535.749 286.705a.976.976 0 0 0-.485.119l-4.657 2.689a.98.98 0 0 0-.484.85v5.37c0 .348.183.676.484.85l1.216.702c.59.29.809.287 1.078.287.875 0 1.375-.531 1.375-1.454v-5.3c0-.075-.065-.128-.14-.128h-.582c-.075 0-.14.054-.14.128v5.3c0 .409-.424.82-1.116.475l-1.266-.741c-.045-.024-.08-.067-.08-.12v-5.37c0-.05.035-.102.08-.127l4.647-2.68a.138.138 0 0 1 .139 0l4.647 2.68c.044.027.079.077.079.128v5.37a.149.149 0 0 1-.07.128l-4.656 2.68a.149.149 0 0 1-.14 0l-1.196-.711a.124.124 0 0 0-.118 0c-.33.188-.392.209-.702.316-.076.027-.192.068.04.198l1.562.919a.964.964 0 0 0 .485.128.955.955 0 0 0 .484-.128l4.658-2.68a.984.984 0 0 0 .484-.85v-5.37a.981.981 0 0 0-.484-.85l-4.658-2.69a.973.973 0 0 0-.484-.118zm-44.3.109a.584.584 0 0 0-.296.08l-4.934 2.837a.606.606 0 0 0-.296.524v5.696c0 .213.112.407.296.514l4.934 2.848a.595.595 0 0 0 .594 0l4.934-2.848a.59.59 0 0 0 .296-.514v-5.696a.607.607 0 0 0-.296-.524l-4.934-2.837a.589.589 0 0 0-.297-.08zm51.21.03v.139h.387V288h.159v-1.018h.395v-.14h-.94zm1.079 0V288h.149v-.812c-.002-.058 0-.108 0-.137v-.03l.326.979h.158l.336-.98c0 .063-.008.124-.01.179V288h.148v-1.157h-.218l-.336.979-.326-.98h-.227zm-6.744 3.698c-1.326 0-2.116.564-2.116 1.503 0 1.019.784 1.298 2.057 1.424 1.523.149 1.642.373 1.642.672 0 .52-.415.74-1.395.74-1.23 0-1.501-.306-1.592-.918-.01-.066-.061-.12-.128-.12h-.604a.14.14 0 0 0-.138.139c0 .784.426 1.71 2.462 1.71 1.474 0 2.324-.578 2.324-1.591 0-1.005-.687-1.274-2.116-1.463-1.445-.191-1.582-.285-1.582-.624 0-.28.116-.652 1.186-.652.956 0 1.309.207 1.454.85a.135.135 0 0 0 .128.109h.603c.037 0 .073-.023.099-.05.025-.03.043-.061.04-.1-.093-1.107-.833-1.63-2.324-1.63zm-16.038 1.354c-.02 0-.042 0-.06.01l-.948.554a.115.115 0 0 0-.06.099v1.088c0 .04.024.078.06.099l.949.544a.1.1 0 0 0 .108 0l.949-.544a.117.117 0 0 0 .06-.1v-1.087a.117.117 0 0 0-.06-.1l-.95-.553c-.016-.01-.028-.01-.048-.01z"/></g><g opacity=".2" fill="#FFF"><path d="M1047.368 353.665a.297.297 0 0 0-.295.297v7.565c0 .074-.035.14-.1.177a.202.202 0 0 1-.207 0l-1.236-.711a.595.595 0 0 0-.594 0L1040 363.84a.605.605 0 0 0-.296.524v5.695c0 .213.11.408.296.514l4.935 2.848a.59.59 0 0 0 .594 0l4.934-2.848a.588.588 0 0 0 .297-.514v-14.2a.602.602 0 0 0-.307-.523l-2.937-1.642a.286.286 0 0 0-.15-.03zm-31.741 7.109a.578.578 0 0 0-.268.069l-4.934 2.848a.59.59 0 0 0-.297.514l.01 7.643c0 .107.055.205.148.257a.284.284 0 0 0 .297 0l2.927-1.681a.604.604 0 0 0 .307-.514v-3.57a.59.59 0 0 1 .296-.513l1.246-.722a.595.595 0 0 1 .594 0l1.246.722a.589.589 0 0 1 .297.514v3.569c0 .213.122.405.307.514l2.926 1.68a.284.284 0 0 0 .297 0 .294.294 0 0 0 .148-.256l.01-7.643a.586.586 0 0 0-.297-.514l-4.934-2.848a.557.557 0 0 0-.268-.07h-.058zm44.338.07a.594.594 0 0 0-.296.079l-4.935 2.848a.592.592 0 0 0-.296.514v5.696c0 .214.12.408.306.514l4.895 2.789a.596.596 0 0 0 .584.01l2.967-1.651a.303.303 0 0 0 .158-.258.296.296 0 0 0-.148-.257l-4.965-2.848a.32.32 0 0 1-.158-.267v-1.78c0-.106.066-.204.158-.257l1.543-.89a.297.297 0 0 1 .297 0l1.543.89a.297.297 0 0 1 .148.257v1.404a.295.295 0 0 0 .444.257l2.957-1.72a.595.595 0 0 0 .296-.515v-1.375a.593.593 0 0 0-.296-.514l-4.905-2.848a.589.589 0 0 0-.297-.078zm-14.752 4.252c.025 0 .055.006.078.019l1.69.979a.151.151 0 0 1 .08.128v1.958a.152.152 0 0 1-.08.129l-1.69.979a.145.145 0 0 1-.148 0l-1.69-.98a.154.154 0 0 1-.08-.128v-1.958c0-.053.034-.102.08-.128l1.69-.98a.134.134 0 0 1 .07-.018z"/><path opacity=".6" d="M1074.749 360.705a.976.976 0 0 0-.485.119l-4.657 2.689a.978.978 0 0 0-.484.85v5.37c0 .348.183.676.484.85l1.216.702c.592.29.81.287 1.078.287.875 0 1.375-.531 1.375-1.454v-5.3c0-.075-.065-.128-.14-.128h-.582c-.075 0-.14.054-.14.128v5.3c0 .409-.425.82-1.117.475l-1.266-.741a.137.137 0 0 1-.078-.12v-5.37c0-.05.033-.102.078-.127l4.648-2.68a.138.138 0 0 1 .139 0l4.646 2.68c.045.027.08.077.08.128v5.37a.147.147 0 0 1-.07.128l-4.656 2.68a.149.149 0 0 1-.14 0l-1.196-.711a.124.124 0 0 0-.118 0c-.33.188-.392.209-.702.316-.076.027-.192.068.04.198l1.562.919a.959.959 0 0 0 .485.128.949.949 0 0 0 .483-.128l4.658-2.68a.984.984 0 0 0 .484-.85v-5.37a.983.983 0 0 0-.484-.85l-4.658-2.69a.966.966 0 0 0-.483-.118zm-44.3.109a.584.584 0 0 0-.297.08l-4.934 2.837a.605.605 0 0 0-.297.524v5.696a.59.59 0 0 0 .297.514l4.934 2.848a.595.595 0 0 0 .594 0l4.934-2.848a.59.59 0 0 0 .297-.514v-5.696a.604.604 0 0 0-.297-.524l-4.934-2.837a.578.578 0 0 0-.297-.08zm51.21.03v.139h.387V362h.159v-1.018h.395v-.14h-.94zm1.079 0V362h.148v-.812c-.002-.058 0-.108 0-.137v-.03l.326.979h.158l.336-.98c0 .063-.008.124-.01.179V362h.148v-1.157h-.218l-.336.979-.326-.98h-.226zm-6.744 3.698c-1.326 0-2.115.564-2.115 1.503 0 1.019.783 1.298 2.057 1.424 1.522.149 1.64.373 1.64.672 0 .52-.413.74-1.394.74-1.23 0-1.501-.306-1.592-.918-.01-.066-.061-.12-.128-.12h-.604a.14.14 0 0 0-.138.139c0 .784.426 1.71 2.46 1.71 1.476 0 2.325-.578 2.325-1.591 0-1.005-.688-1.274-2.115-1.463-1.445-.191-1.582-.285-1.582-.624 0-.28.115-.652 1.186-.652.956 0 1.309.207 1.454.85a.134.134 0 0 0 .128.109h.604c.037 0 .073-.023.1-.05.025-.03.043-.061.039-.1-.094-1.107-.834-1.63-2.325-1.63zm-16.04 1.354c-.02 0-.04 0-.058.01l-.95.554a.117.117 0 0 0-.06.099v1.088c0 .04.025.078.06.099l.95.544a.1.1 0 0 0 .108 0l.949-.544a.117.117 0 0 0 .06-.1v-1.087a.115.115 0 0 0-.06-.1l-.95-.553c-.015-.01-.027-.01-.048-.01z"/></g><g opacity=".2" fill="#FFF"><path d="M1222.368 516.664a.298.298 0 0 0-.295.297v7.564a.2.2 0 0 1-.1.178.202.202 0 0 1-.207 0l-1.236-.711a.59.59 0 0 0-.594 0L1215 526.84a.603.603 0 0 0-.296.523v5.695c0 .213.11.408.296.514l4.935 2.849a.595.595 0 0 0 .594 0l4.934-2.85a.586.586 0 0 0 .297-.513v-14.2a.6.6 0 0 0-.307-.522l-2.937-1.643a.306.306 0 0 0-.15-.03zm-31.741 7.11a.567.567 0 0 0-.268.07l-4.934 2.848a.59.59 0 0 0-.297.514l.01 7.644c0 .106.055.205.148.257a.284.284 0 0 0 .297 0l2.927-1.681a.606.606 0 0 0 .307-.515v-3.568a.59.59 0 0 1 .296-.515l1.246-.722a.585.585 0 0 1 .297-.08.57.57 0 0 1 .297.08l1.246.722a.589.589 0 0 1 .297.515v3.568c0 .213.122.406.307.515l2.926 1.68a.284.284 0 0 0 .297 0 .294.294 0 0 0 .148-.256l.01-7.644a.586.586 0 0 0-.297-.514l-4.934-2.848a.558.558 0 0 0-.268-.07h-.058zm44.338.07a.593.593 0 0 0-.296.078l-4.935 2.848a.594.594 0 0 0-.296.515v5.696c0 .214.12.408.306.514l4.895 2.789c.182.103.402.11.584.01l2.967-1.651a.303.303 0 0 0 .158-.258.298.298 0 0 0-.148-.257l-4.965-2.848a.321.321 0 0 1-.158-.268v-1.78c0-.104.066-.202.158-.257l1.543-.89a.293.293 0 0 1 .297 0l1.543.89a.3.3 0 0 1 .148.258v1.404c0 .106.056.203.148.256a.286.286 0 0 0 .296 0l2.957-1.72a.595.595 0 0 0 .296-.515v-1.374a.596.596 0 0 0-.296-.515l-4.905-2.848a.598.598 0 0 0-.297-.077zm-14.752 4.252c.025 0 .055.006.078.02l1.69.979a.152.152 0 0 1 .08.129v1.957a.152.152 0 0 1-.08.129l-1.69.979a.145.145 0 0 1-.148 0l-1.69-.98a.152.152 0 0 1-.08-.128v-1.957c0-.054.034-.102.08-.13l1.69-.978a.126.126 0 0 1 .07-.02z"/><path opacity=".6" d="M1249.749 523.705a.966.966 0 0 0-.485.119l-4.657 2.689a.978.978 0 0 0-.484.85v5.369c0 .349.183.676.484.85l1.216.703c.592.29.81.287 1.078.287.875 0 1.375-.531 1.375-1.454v-5.3c0-.074-.065-.13-.14-.13h-.582c-.075 0-.14.056-.14.13v5.3c0 .409-.425.82-1.117.475l-1.266-.741a.137.137 0 0 1-.078-.12v-5.368a.16.16 0 0 1 .078-.13l4.648-2.68a.143.143 0 0 1 .139 0l4.646 2.68c.045.028.08.078.08.13v5.369a.149.149 0 0 1-.07.129l-4.656 2.68a.149.149 0 0 1-.14 0l-1.196-.712a.124.124 0 0 0-.118 0c-.33.188-.392.209-.702.316-.076.026-.192.067.04.198l1.562.919a.949.949 0 0 0 .485.128.94.94 0 0 0 .483-.128l4.658-2.68a.984.984 0 0 0 .484-.851v-5.37a.983.983 0 0 0-.484-.85l-4.658-2.688a.956.956 0 0 0-.483-.12zm-44.3.109a.593.593 0 0 0-.297.079l-4.934 2.838a.605.605 0 0 0-.297.524v5.696c0 .213.112.406.297.514l4.934 2.848a.595.595 0 0 0 .594 0l4.934-2.848a.59.59 0 0 0 .297-.514v-5.696a.603.603 0 0 0-.297-.524l-4.934-2.838a.587.587 0 0 0-.297-.08zm51.21.03v.139h.387V525h.159v-1.018h.395v-.14h-.94zm1.079 0V525h.148v-.812c-.002-.058 0-.108 0-.138v-.03l.326.98h.158l.336-.98c0 .063-.008.124-.01.179V525h.148v-1.156h-.218l-.336.979-.326-.98h-.226zm-6.744 3.697c-1.326 0-2.115.564-2.115 1.504 0 1.018.783 1.298 2.057 1.424 1.522.148 1.64.373 1.64.672 0 .52-.413.742-1.394.742-1.23 0-1.501-.308-1.592-.92-.01-.066-.061-.12-.128-.12h-.604a.141.141 0 0 0-.138.14c0 .783.426 1.71 2.46 1.71 1.476 0 2.325-.577 2.325-1.591 0-1.006-.688-1.275-2.115-1.463-1.445-.191-1.582-.285-1.582-.624 0-.278.115-.652 1.186-.652.956 0 1.309.206 1.454.85a.134.134 0 0 0 .128.11h.604c.037 0 .073-.023.1-.051.025-.028.043-.061.039-.098-.094-1.11-.834-1.633-2.325-1.633zm-16.04 1.356c-.02 0-.04 0-.058.01l-.95.554a.118.118 0 0 0-.06.099v1.088c0 .04.025.078.06.099l.95.544a.1.1 0 0 0 .108 0l.949-.544a.117.117 0 0 0 .06-.1v-1.087a.116.116 0 0 0-.06-.1l-.95-.553c-.015-.011-.027-.01-.048-.01z"/></g><g opacity=".2" fill="#FFF"><path d="M486.368 642.664a.3.3 0 0 0-.296.297v7.564a.204.204 0 0 1-.307.178l-1.236-.711a.588.588 0 0 0-.593 0L479 652.84a.603.603 0 0 0-.296.523v5.695a.59.59 0 0 0 .296.514l4.935 2.849a.593.593 0 0 0 .593 0l4.934-2.85a.588.588 0 0 0 .296-.513v-14.2a.602.602 0 0 0-.306-.522l-2.937-1.643a.302.302 0 0 0-.148-.03zm-31.741 7.11a.563.563 0 0 0-.267.07l-4.934 2.848a.588.588 0 0 0-.296.514l.01 7.644c0 .106.055.205.148.257a.282.282 0 0 0 .296 0l2.927-1.681a.606.606 0 0 0 .307-.515v-3.568a.59.59 0 0 1 .296-.515l1.246-.722a.585.585 0 0 1 .297-.08.57.57 0 0 1 .297.08l1.246.722a.588.588 0 0 1 .296.515v3.568c0 .213.123.406.307.515l2.926 1.68a.282.282 0 0 0 .296 0 .296.296 0 0 0 .148-.256l.01-7.644a.589.589 0 0 0-.297-.514l-4.934-2.848a.554.554 0 0 0-.267-.07h-.058zm44.338.07a.588.588 0 0 0-.296.078l-4.934 2.848a.592.592 0 0 0-.296.515v5.696c0 .214.12.408.306.514l4.895 2.789c.18.103.402.11.583.01l2.967-1.651a.303.303 0 0 0 .158-.258.294.294 0 0 0-.148-.257l-4.964-2.848a.319.319 0 0 1-.158-.268v-1.78c0-.104.066-.202.158-.257l1.543-.89a.29.29 0 0 1 .296 0l1.543.89a.3.3 0 0 1 .148.258v1.404c0 .106.056.203.148.256a.286.286 0 0 0 .296 0l2.957-1.72a.595.595 0 0 0 .296-.515v-1.374a.598.598 0 0 0-.296-.515l-4.905-2.848a.598.598 0 0 0-.297-.077zm-14.752 4.252c.026 0 .056.006.079.02l1.69.979a.152.152 0 0 1 .08.129v1.957a.152.152 0 0 1-.08.129l-1.69.979a.145.145 0 0 1-.148 0l-1.691-.98a.152.152 0 0 1-.08-.128v-1.957c0-.054.034-.102.08-.13l1.69-.978a.12.12 0 0 1 .07-.02z"/><path opacity=".6" d="M513.749 649.705a.966.966 0 0 0-.485.119l-4.657 2.689a.98.98 0 0 0-.484.85v5.369c0 .349.183.676.484.85l1.216.703c.59.29.809.287 1.078.287.875 0 1.375-.531 1.375-1.454v-5.3c0-.074-.065-.13-.14-.13h-.582c-.075 0-.14.056-.14.13v5.3c0 .409-.424.82-1.116.475l-1.266-.741c-.045-.024-.08-.067-.08-.12v-5.368c0-.051.035-.103.08-.13l4.647-2.68a.143.143 0 0 1 .139 0l4.647 2.68a.16.16 0 0 1 .079.13v5.369a.15.15 0 0 1-.07.129l-4.656 2.68a.149.149 0 0 1-.14 0l-1.196-.712a.124.124 0 0 0-.118 0c-.33.188-.392.209-.702.316-.076.026-.192.067.04.198l1.562.919a.954.954 0 0 0 .485.128.945.945 0 0 0 .484-.128l4.658-2.68a.984.984 0 0 0 .484-.851v-5.37a.981.981 0 0 0-.484-.85l-4.658-2.688a.962.962 0 0 0-.484-.12zm-44.3.109a.593.593 0 0 0-.296.079l-4.934 2.838a.606.606 0 0 0-.296.524v5.696c0 .213.112.406.296.514l4.934 2.848a.595.595 0 0 0 .594 0l4.934-2.848a.592.592 0 0 0 .296-.514v-5.696a.606.606 0 0 0-.296-.524l-4.934-2.838a.598.598 0 0 0-.297-.08zm51.21.03v.139h.387V651h.159v-1.018h.395v-.14h-.94zm1.079 0V651h.149v-.812c-.002-.058 0-.108 0-.138v-.03l.326.98h.158l.336-.98c0 .063-.008.124-.01.179V651h.148v-1.156h-.218l-.336.979-.326-.98h-.227zm-6.744 3.697c-1.326 0-2.116.564-2.116 1.504 0 1.018.784 1.298 2.057 1.424 1.523.148 1.642.373 1.642.672 0 .52-.415.742-1.395.742-1.23 0-1.501-.308-1.592-.92-.01-.066-.061-.12-.128-.12h-.604a.141.141 0 0 0-.138.14c0 .783.426 1.71 2.462 1.71 1.474 0 2.324-.577 2.324-1.591 0-1.006-.687-1.275-2.116-1.463-1.445-.191-1.582-.285-1.582-.624 0-.278.116-.652 1.186-.652.956 0 1.309.206 1.454.85a.135.135 0 0 0 .128.11h.603c.037 0 .073-.023.099-.051.025-.028.043-.061.04-.098-.093-1.11-.833-1.633-2.324-1.633zm-16.038 1.356c-.02 0-.042 0-.06.01l-.948.554a.116.116 0 0 0-.06.099v1.088c0 .04.024.078.06.099l.949.544a.1.1 0 0 0 .108 0l.949-.544a.117.117 0 0 0 .06-.1v-1.087a.118.118 0 0 0-.06-.1l-.95-.553c-.016-.011-.028-.01-.048-.01z"/></g><g opacity=".2" fill="#FFF"><path d="M703.368 10.665a.297.297 0 0 0-.295.297v7.565c0 .074-.035.14-.1.177a.202.202 0 0 1-.207 0l-1.236-.711a.595.595 0 0 0-.594 0L696 20.84a.605.605 0 0 0-.296.524v5.695c0 .213.11.408.296.514l4.935 2.848a.59.59 0 0 0 .594 0l4.934-2.848a.588.588 0 0 0 .297-.514v-14.2a.602.602 0 0 0-.307-.523l-2.937-1.642a.286.286 0 0 0-.15-.03zm-31.741 7.109a.578.578 0 0 0-.268.069l-4.934 2.848a.59.59 0 0 0-.297.514l.01 7.643c0 .107.055.205.148.257a.284.284 0 0 0 .297 0l2.927-1.681a.604.604 0 0 0 .307-.514v-3.57a.59.59 0 0 1 .296-.513l1.246-.722a.595.595 0 0 1 .594 0l1.246.722a.589.589 0 0 1 .297.514v3.569c0 .213.122.405.307.514l2.926 1.68a.284.284 0 0 0 .297 0 .294.294 0 0 0 .148-.256l.01-7.643a.586.586 0 0 0-.297-.514l-4.934-2.848a.557.557 0 0 0-.268-.07h-.058zm44.338.07a.594.594 0 0 0-.296.079l-4.935 2.848a.592.592 0 0 0-.296.514v5.696c0 .214.12.408.306.514l4.895 2.789a.596.596 0 0 0 .584.01l2.967-1.651a.303.303 0 0 0 .158-.258.296.296 0 0 0-.148-.257l-4.965-2.848a.32.32 0 0 1-.158-.267v-1.78c0-.106.066-.204.158-.257l1.543-.89a.297.297 0 0 1 .297 0l1.543.89a.297.297 0 0 1 .148.257v1.404a.295.295 0 0 0 .444.257l2.957-1.72a.595.595 0 0 0 .296-.515v-1.375a.593.593 0 0 0-.296-.514l-4.905-2.848a.589.589 0 0 0-.297-.078zm-14.752 4.252c.025 0 .055.006.078.019l1.69.979a.151.151 0 0 1 .08.128v1.958a.152.152 0 0 1-.08.129l-1.69.979a.145.145 0 0 1-.148 0l-1.69-.98a.154.154 0 0 1-.08-.128v-1.958c0-.053.034-.102.08-.128l1.69-.98a.134.134 0 0 1 .07-.018z"/><path opacity=".6" d="M730.749 17.705a.976.976 0 0 0-.485.119l-4.657 2.689a.978.978 0 0 0-.484.85v5.37c0 .348.183.676.484.85l1.216.702c.592.29.81.287 1.078.287.875 0 1.375-.531 1.375-1.454v-5.3c0-.075-.065-.128-.14-.128h-.582c-.075 0-.14.054-.14.128v5.3c0 .409-.425.82-1.117.475l-1.266-.741a.137.137 0 0 1-.078-.12v-5.37c0-.05.033-.102.078-.127l4.648-2.68a.138.138 0 0 1 .139 0l4.646 2.68c.045.027.08.077.08.128v5.37a.147.147 0 0 1-.07.128l-4.656 2.68a.149.149 0 0 1-.14 0l-1.196-.711a.124.124 0 0 0-.118 0c-.33.188-.392.209-.702.316-.076.027-.192.068.04.198l1.562.919a.959.959 0 0 0 .485.128.949.949 0 0 0 .483-.128l4.658-2.68a.984.984 0 0 0 .484-.85v-5.37a.983.983 0 0 0-.484-.85l-4.658-2.69a.966.966 0 0 0-.483-.118zm-44.3.109a.584.584 0 0 0-.297.08l-4.934 2.837a.605.605 0 0 0-.297.524v5.696a.59.59 0 0 0 .297.514l4.934 2.848a.595.595 0 0 0 .594 0l4.934-2.848a.59.59 0 0 0 .297-.514v-5.696a.604.604 0 0 0-.297-.524l-4.934-2.837a.581.581 0 0 0-.297-.08zm51.21.03v.139h.387V19h.159v-1.018h.395v-.14h-.94zm1.079 0V19h.148v-.812c-.002-.058 0-.108 0-.137v-.03l.326.979h.158l.336-.98c0 .063-.008.124-.01.179V19h.148v-1.157h-.218l-.336.979-.326-.98h-.226zm-6.744 3.698c-1.326 0-2.115.564-2.115 1.503 0 1.019.783 1.298 2.057 1.424 1.522.149 1.64.373 1.64.672 0 .52-.413.74-1.394.74-1.23 0-1.501-.306-1.592-.918-.01-.066-.061-.12-.128-.12h-.604a.14.14 0 0 0-.138.139c0 .784.426 1.71 2.46 1.71 1.476 0 2.325-.578 2.325-1.591 0-1.005-.688-1.274-2.115-1.463-1.445-.191-1.582-.285-1.582-.624 0-.28.115-.652 1.186-.652.956 0 1.309.207 1.454.85a.134.134 0 0 0 .128.109h.604c.037 0 .073-.023.1-.05.025-.03.043-.061.039-.1-.094-1.107-.834-1.63-2.325-1.63zm-16.04 1.354c-.02 0-.04 0-.058.01l-.95.554a.117.117 0 0 0-.06.099v1.088c0 .04.025.078.06.099l.95.544a.1.1 0 0 0 .108 0l.949-.544a.117.117 0 0 0 .06-.1V23.56a.115.115 0 0 0-.06-.1l-.95-.553c-.015-.01-.027-.01-.048-.01z"/></g><path fill="#FFF" d="M790.268 340.606l-.023-.024-5.245 5.244 12.732 12.709 5.244-5.22 7.488-7.489-5.244-5.244v-.023h-14.977l.025.047zm-326-161l-.023-.024-5.245 5.244 12.732 12.709 5.244-5.22 7.488-7.489-5.244-5.244v-.023h-14.977l.025.047zm-109 148l-.023-.024-5.245 5.244 12.732 12.709 5.244-5.22 7.488-7.489-5.244-5.244v-.023h-14.977l.025.047zm891 363l-.023-.024-5.244 5.244 12.732 12.709 5.244-5.22 7.488-7.489-5.244-5.244v-.023h-14.977l.024.047zm114-484l-.023-.024-5.244 5.244 12.732 12.709 5.244-5.22 7.488-7.489-5.244-5.244v-.023h-14.977l.024.047zm-1264-69l-.023-.024L91 142.826l12.732 12.709 5.244-5.22 7.488-7.489-5.244-5.244v-.023H96.244l.024.047zm558 491l-.023-.024-5.245 5.244 12.732 12.709 5.244-5.22 7.488-7.489-5.244-5.244v-.023h-14.977l.025.047zm122.7-436.441h-5.138l.361-4.326h-2.524l-.359 4.326h-10.636l-.359-4.326h-2.524l.361 4.326h-5.138l-2.884-18.746 7.21-11.536h17.304l7.21 11.536-2.884 18.746zm-5.769-24.515h-4.635l.309 2.163h-5.767l.309-2.163h-4.635l-2.885 5.768 1.442 11.536h17.304l1.442-11.536-2.884-5.768zm-2.522 13.476c-.398 0-.722-1.201-.722-2.682s.323-2.682.722-2.682c.397 0 .72 1.201.72 2.682s-.323 2.682-.72 2.682zm-9.103.224c-.398 0-.722-1.201-.722-2.682s.323-2.682.722-2.682c.397 0 .721 1.201.721 2.682s-.323 2.682-.721 2.682zM590.968 53.165h-5.138l.361-4.326h-2.524l-.359 4.326h-10.636l-.359-4.326h-2.524l.361 4.326h-5.138l-2.884-18.746 7.21-11.536h17.304l7.21 11.536-2.884 18.746zm-5.769-24.515h-4.635l.309 2.163h-5.767l.309-2.163h-4.635l-2.885 5.768 1.442 11.536h17.304l1.442-11.536-2.884-5.768zm-2.522 13.476c-.398 0-.722-1.201-.722-2.682s.323-2.682.722-2.682c.397 0 .72 1.201.72 2.682s-.323 2.682-.72 2.682zm-9.103.224c-.398 0-.722-1.201-.722-2.682s.323-2.682.722-2.682c.397 0 .721 1.201.721 2.682s-.323 2.682-.721 2.682zM269.968 579.164h-5.138l.361-4.326h-2.524l-.359 4.326h-10.636l-.359-4.326h-2.524l.361 4.326h-5.138l-2.884-18.746 7.21-11.535h17.304l7.21 11.535-2.884 18.746zm-5.769-24.514h-4.635l.309 2.163h-5.767l.309-2.163h-4.635l-2.885 5.768 1.442 11.537h17.304l1.442-11.537-2.884-5.768zm-2.522 13.476c-.398 0-.722-1.201-.722-2.683 0-1.48.323-2.682.722-2.682.397 0 .72 1.201.72 2.682-.001 1.482-.323 2.683-.72 2.683zm-9.103.224c-.398 0-.722-1.201-.722-2.682 0-1.481.323-2.683.722-2.683.397 0 .721 1.201.721 2.683 0 1.48-.323 2.682-.721 2.682zm997.394 47.814h-5.138l.361-4.326h-2.524l-.359 4.326h-10.636l-.359-4.326h-2.524l.361 4.326h-5.138l-2.884-18.746 7.21-11.535h17.304l7.21 11.535-2.884 18.746zm-5.769-24.514h-4.635l.309 2.163h-5.767l.309-2.163h-4.635l-2.885 5.768 1.442 11.537h17.304l1.442-11.537-2.884-5.768zm-2.522 13.476c-.398 0-.722-1.201-.722-2.683 0-1.48.323-2.682.722-2.682.397 0 .72 1.201.72 2.682-.001 1.482-.323 2.683-.72 2.683zm-9.103.224c-.398 0-.722-1.201-.722-2.682 0-1.481.323-2.683.722-2.683.397 0 .721 1.201.721 2.683 0 1.48-.323 2.682-.721 2.682zM819.968 413.164h-5.138l.361-4.326h-2.524l-.359 4.326h-10.636l-.359-4.326h-2.524l.361 4.326h-5.138l-2.884-18.746 7.21-11.536h17.304l7.21 11.536-2.884 18.746zm-5.769-24.514h-4.635l.309 2.163h-5.767l.309-2.163h-4.635l-2.885 5.768 1.442 11.537h17.304l1.442-11.537-2.884-5.768zm-2.522 13.476c-.398 0-.722-1.201-.722-2.682s.323-2.682.722-2.682c.397 0 .72 1.201.72 2.682s-.323 2.682-.72 2.682zm-9.103.224c-.398 0-.722-1.201-.722-2.682s.323-2.682.722-2.682c.397 0 .721 1.201.721 2.682s-.323 2.682-.721 2.682zM530.968 231.165h-5.138l.361-4.326h-2.524l-.359 4.326h-10.636l-.359-4.326h-2.524l.361 4.326h-5.138l-2.884-18.746 7.21-11.536h17.304l7.21 11.536-2.884 18.746zm-5.769-24.515h-4.635l.309 2.163h-5.767l.309-2.163h-4.635l-2.885 5.768 1.442 11.536h17.304l1.442-11.536-2.884-5.768zm-2.522 13.476c-.398 0-.722-1.201-.722-2.682s.323-2.682.722-2.682c.397 0 .72 1.201.72 2.682s-.323 2.682-.72 2.682zm-9.103.224c-.398 0-.722-1.201-.722-2.682s.323-2.682.722-2.682c.397 0 .721 1.201.721 2.682s-.323 2.682-.721 2.682zM214.968 394.165h-5.138l.361-4.326h-2.524l-.359 4.326h-10.636l-.359-4.326h-2.524l.361 4.326h-5.138l-2.884-18.746 7.21-11.536h17.304l7.21 11.536-2.884 18.746zm-5.769-24.515h-4.635l.309 2.163h-5.767l.309-2.163h-4.635l-2.885 5.768 1.442 11.536h17.304l1.442-11.536-2.884-5.768zm-2.522 13.476c-.398 0-.722-1.201-.722-2.682s.323-2.682.722-2.682c.397 0 .72 1.201.72 2.682s-.323 2.682-.72 2.682zm-9.103.224c-.398 0-.722-1.201-.722-2.682s.323-2.682.722-2.682c.397 0 .721 1.201.721 2.682s-.323 2.682-.721 2.682zm959.594 98.828v15.107h15.107v-15.107h-15.107zm8.228 11.783c0 1.471-.862 2.139-2.12 2.139-1.136 0-1.795-.588-2.129-1.297l1.155-.699c.223.396.426.73.914.73.466 0 .761-.183.761-.893v-4.826h1.419v4.846zm3.354 2.142c-1.318 0-2.17-.628-2.587-1.451l1.153-.671c.305.497.7.862 1.4.862.589 0 .965-.294.965-.7 0-.486-.387-.659-1.034-.942l-.355-.152c-1.024-.437-1.704-.983-1.704-2.139 0-1.065.811-1.876 2.078-1.876.903 0 1.552.314 2.02 1.138l-1.105.709c-.243-.437-.506-.608-.914-.608-.415 0-.679.264-.679.608 0 .426.264.599.873.862l.354.152c1.207.517 1.888 1.044 1.888 2.229 0 1.278-1.005 1.979-2.353 1.979zM659.168 264.178v15.107h15.107v-15.107h-15.107zm8.228 11.783c0 1.471-.862 2.139-2.12 2.139-1.136 0-1.795-.588-2.129-1.297l1.155-.699c.223.396.426.73.914.73.466 0 .761-.183.761-.893v-4.826h1.419v4.846zm3.354 2.142c-1.318 0-2.17-.628-2.587-1.451l1.153-.671c.305.497.7.862 1.4.862.589 0 .965-.294.965-.7 0-.486-.387-.659-1.034-.942l-.355-.152c-1.024-.437-1.704-.983-1.704-2.139 0-1.065.811-1.876 2.078-1.876.903 0 1.552.314 2.02 1.138l-1.105.709c-.243-.437-.506-.608-.914-.608-.415 0-.679.264-.679.608 0 .426.264.599.873.862l.354.152c1.207.517 1.888 1.044 1.888 2.229 0 1.278-1.005 1.979-2.353 1.979zM315.168 408.178v15.107h15.107v-15.107h-15.107zm8.228 11.783c0 1.471-.862 2.139-2.12 2.139-1.136 0-1.795-.588-2.129-1.297l1.155-.699c.223.396.426.73.914.73.466 0 .761-.183.761-.893v-4.826h1.419v4.846zm3.354 2.142c-1.318 0-2.17-.628-2.587-1.451l1.153-.671c.305.497.7.862 1.4.862.589 0 .965-.294.965-.7 0-.486-.387-.659-1.034-.942l-.355-.152c-1.024-.437-1.704-.983-1.704-2.139 0-1.065.811-1.876 2.078-1.876.903 0 1.552.314 2.02 1.138l-1.105.709c-.243-.437-.506-.608-.914-.608-.415 0-.679.264-.679.608 0 .426.264.599.873.862l.354.152c1.207.517 1.888 1.044 1.888 2.229 0 1.278-1.005 1.979-2.353 1.979zM672.257 378.627c-.671 0-1.217.546-1.217 1.217v4.609c0 .671.546 1.217 1.217 1.217s1.217-.546 1.217-1.217v-4.609c0-.671-.546-1.217-1.217-1.217zm-12.903 0c-.672 0-1.217.546-1.217 1.217v4.609a1.218 1.218 0 0 0 2.434 0v-4.609a1.22 1.22 0 0 0-1.217-1.217zm1.517 7.452c0 .659.534 1.193 1.193 1.193h.68v2.44a1.218 1.218 0 0 0 2.435 0v-2.44h1.253v2.44a1.218 1.218 0 0 0 2.434 0v-2.44h.681c.659 0 1.192-.534 1.192-1.193v-7.262h-9.867v7.262zm9.867-7.536c0-1.667-.97-3.124-2.416-3.917l.779-1.406a.27.27 0 0 0-.235-.399.268.268 0 0 0-.234.138l-.794 1.433c-.62-.259-1.309-.403-2.033-.403s-1.412.144-2.033.403l-.794-1.433a.268.268 0 1 0-.468.261l.779 1.406c-1.447.793-2.417 2.251-2.417 3.917l.001.035-.001.02v.051h9.867v-.071l-.001-.035zm-7.21-1.921a.302.302 0 1 1-.001-.603.302.302 0 0 1 .001.603zm4.554 0a.301.301 0 1 1 0-.603.301.301 0 0 1 0 .603zM60.257 597.627a1.22 1.22 0 0 0-1.217 1.217v4.609c0 .671.546 1.217 1.217 1.217s1.217-.546 1.217-1.217v-4.609a1.22 1.22 0 0 0-1.217-1.217zm-12.903 0c-.672 0-1.217.547-1.217 1.217v4.609a1.218 1.218 0 0 0 2.434 0v-4.609a1.22 1.22 0 0 0-1.217-1.217zm1.517 7.452c0 .659.534 1.192 1.193 1.192h.68v2.44a1.218 1.218 0 0 0 2.435 0v-2.44h1.253v2.44a1.218 1.218 0 0 0 2.434 0v-2.44h.681c.659 0 1.192-.533 1.192-1.192v-7.262h-9.867v7.262zm9.867-7.536c0-1.666-.97-3.123-2.416-3.917l.779-1.406a.269.269 0 0 0-.469-.26l-.794 1.434c-.62-.26-1.309-.403-2.033-.403s-1.412.144-2.033.403l-.794-1.434a.268.268 0 1 0-.468.26l.779 1.406c-1.447.794-2.417 2.251-2.417 3.917l.001.035-.001.02v.051h9.867v-.071l-.001-.035zm-7.21-1.922a.302.302 0 1 1-.001-.603.302.302 0 0 1 .001.603zm4.554 0a.301.301 0 1 1 0-.603.301.301 0 0 1 0 .603zM332.257 108.627c-.671 0-1.217.546-1.217 1.217v4.609c0 .671.546 1.217 1.217 1.217s1.217-.546 1.217-1.217v-4.609c0-.671-.546-1.217-1.217-1.217zm-12.903 0c-.672 0-1.217.546-1.217 1.217v4.609a1.218 1.218 0 0 0 2.434 0v-4.609a1.22 1.22 0 0 0-1.217-1.217zm1.517 7.452c0 .659.534 1.193 1.193 1.193h.68v2.44a1.218 1.218 0 0 0 2.435 0v-2.44h1.253v2.44a1.218 1.218 0 0 0 2.434 0v-2.44h.681c.659 0 1.192-.534 1.192-1.193v-7.262h-9.867v7.262zm9.867-7.536c0-1.667-.97-3.124-2.416-3.917l.779-1.406a.27.27 0 0 0-.235-.399.268.268 0 0 0-.234.138l-.794 1.433c-.62-.259-1.309-.403-2.033-.403s-1.412.144-2.033.403l-.794-1.433a.268.268 0 1 0-.468.261l.779 1.406c-1.447.793-2.417 2.251-2.417 3.917l.001.035-.001.02v.051h9.867v-.071l-.001-.035zm-7.21-1.921a.302.302 0 1 1-.001-.603.302.302 0 0 1 .001.603zm4.554 0a.301.301 0 1 1 0-.603.301.301 0 0 1 0 .603zM885.257 71.627c-.671 0-1.217.546-1.217 1.217v4.609c0 .671.546 1.217 1.217 1.217s1.217-.546 1.217-1.217v-4.609c0-.671-.546-1.217-1.217-1.217zm-12.903 0c-.672 0-1.217.546-1.217 1.217v4.609a1.218 1.218 0 0 0 2.434 0v-4.609a1.22 1.22 0 0 0-1.217-1.217zm1.517 7.452c0 .659.534 1.193 1.193 1.193h.68v2.44a1.218 1.218 0 0 0 2.435 0v-2.44h1.253v2.44a1.218 1.218 0 0 0 2.434 0v-2.44h.681c.659 0 1.192-.534 1.192-1.193v-7.262h-9.867v7.262zm9.867-7.536c0-1.667-.97-3.124-2.416-3.917l.779-1.406a.27.27 0 0 0-.235-.399.268.268 0 0 0-.234.138l-.794 1.433c-.62-.259-1.309-.403-2.033-.403s-1.412.144-2.033.403l-.794-1.433a.268.268 0 1 0-.468.261l.779 1.406c-1.447.793-2.417 2.251-2.417 3.917l.001.035-.001.02v.051h9.867v-.071l-.001-.035zm-7.21-1.921a.302.302 0 1 1-.001-.603.302.302 0 0 1 .001.603zm4.554 0a.301.301 0 1 1 0-.603.301.301 0 0 1 0 .603zM1236.257 333.627c-.671 0-1.217.546-1.217 1.217v4.609c0 .671.546 1.217 1.217 1.217s1.217-.546 1.217-1.217v-4.609c0-.671-.546-1.217-1.217-1.217zm-12.903 0c-.672 0-1.217.546-1.217 1.217v4.609a1.218 1.218 0 0 0 2.434 0v-4.609a1.22 1.22 0 0 0-1.217-1.217zm1.517 7.452c0 .659.534 1.193 1.193 1.193h.68v2.44a1.218 1.218 0 0 0 2.435 0v-2.44h1.253v2.44a1.218 1.218 0 0 0 2.434 0v-2.44h.681c.659 0 1.192-.534 1.192-1.193v-7.262h-9.867v7.262zm9.867-7.536c0-1.667-.97-3.124-2.416-3.917l.779-1.406a.27.27 0 0 0-.235-.399.268.268 0 0 0-.234.138l-.794 1.433c-.62-.259-1.309-.403-2.033-.403s-1.412.144-2.033.403l-.794-1.433a.268.268 0 1 0-.468.261l.779 1.406c-1.447.793-2.417 2.251-2.417 3.917l.001.035-.001.02v.051h9.867v-.071l-.001-.035zm-7.21-1.921a.302.302 0 1 1-.001-.603.302.302 0 0 1 .001.603zm4.554 0a.301.301 0 1 1 0-.603.301.301 0 0 1 0 .603zM979.257 639.627a1.22 1.22 0 0 0-1.217 1.217v4.609c0 .671.546 1.217 1.217 1.217s1.217-.546 1.217-1.217v-4.609a1.22 1.22 0 0 0-1.217-1.217zm-12.903 0c-.672 0-1.217.547-1.217 1.217v4.609a1.218 1.218 0 0 0 2.434 0v-4.609a1.22 1.22 0 0 0-1.217-1.217zm1.517 7.452c0 .659.534 1.192 1.193 1.192h.68v2.44a1.218 1.218 0 0 0 2.435 0v-2.44h1.253v2.44a1.218 1.218 0 0 0 2.434 0v-2.44h.681c.659 0 1.192-.533 1.192-1.192v-7.262h-9.867v7.262zm9.867-7.536c0-1.666-.97-3.123-2.416-3.917l.779-1.406a.269.269 0 0 0-.469-.26l-.794 1.434c-.62-.26-1.309-.403-2.033-.403s-1.412.144-2.033.403l-.794-1.434a.268.268 0 1 0-.468.26l.779 1.406c-1.447.794-2.417 2.251-2.417 3.917l.001.035-.001.02v.051h9.867v-.071l-.001-.035zm-7.21-1.922a.302.302 0 1 1-.001-.603.302.302 0 0 1 .001.603zm4.554 0a.301.301 0 1 1 0-.603.301.301 0 0 1 0 .603z" opacity=".2"/><g opacity=".2" fill="#FFF"><path opacity=".6" d="M935.737 480.145h1.046v1.033h.956v-1.033h1.046v3.129h-1.046v-1.048h-.956v1.048h-1.046v-3.129zm4.423 1.038h-.92v-1.038h2.888v1.038h-.922v2.091h-1.046v-2.091zm2.426-1.038h1.09l.671 1.1.67-1.1h1.091v3.129h-1.042v-1.551l-.719 1.112h-.018l-.721-1.112v1.551h-1.022v-3.129zm4.042 0h1.046v2.095h1.471v1.034h-2.517v-3.129z"/><path d="M934.207 484.704l1.496 16.779 6.713 1.863 6.731-1.867 1.497-16.775h-16.437zm13.318 3.982l-.095 1.044-.041.462h-7.875l.188 2.107h7.501l-.051.553-.483 5.418-.031.348-4.211 1.167v.001l-.01.002-4.215-1.17-.289-3.231h2.065l.146 1.642 2.292.618h.002l2.295-.62.239-2.668h-7.132l-.506-5.672-.049-.552h10.306l-.046.551z"/></g><g opacity=".2" fill="#FFF"><path opacity=".6" d="M587.737 446.145h1.046v1.033h.956v-1.033h1.046v3.129h-1.046v-1.048h-.956v1.048h-1.046v-3.129zm4.423 1.038h-.92v-1.038h2.888v1.038h-.922v2.091h-1.046v-2.091zm2.426-1.038h1.09l.671 1.1.67-1.1h1.091v3.129h-1.042v-1.551l-.719 1.112h-.018l-.721-1.112v1.551h-1.022v-3.129zm4.042 0h1.046v2.095h1.471v1.034h-2.517v-3.129z"/><path d="M586.207 450.704l1.496 16.779 6.713 1.863 6.731-1.867 1.497-16.775h-16.437zm13.318 3.982l-.095 1.044-.041.462h-7.875l.188 2.107h7.501l-.051.553-.483 5.418-.031.348-4.211 1.167v.001l-.01.002-4.215-1.17-.289-3.231h2.065l.146 1.642 2.292.618h.002l2.295-.62.239-2.668h-7.132l-.506-5.672-.049-.552h10.306l-.046.551z"/></g><g opacity=".2" fill="#FFF"><path opacity=".6" d="M1185.737 127.145h1.046v1.033h.956v-1.033h1.046v3.129h-1.046v-1.048h-.956v1.048h-1.046v-3.129zm4.423 1.038h-.92v-1.038h2.888v1.038h-.922v2.091h-1.046v-2.091zm2.426-1.038h1.09l.671 1.1.67-1.1h1.091v3.129h-1.042v-1.551l-.719 1.112h-.018l-.721-1.112v1.551h-1.022v-3.129zm4.042 0h1.046v2.095h1.471v1.034h-2.517v-3.129z"/><path d="M1184.207 131.704l1.496 16.779 6.713 1.863 6.731-1.867 1.497-16.775h-16.437zm13.318 3.982l-.095 1.044-.041.462h-7.875l.188 2.107h7.501l-.051.553-.483 5.418-.031.348-4.211 1.167v.001l-.01.002-4.215-1.17-.289-3.231h2.065l.146 1.642 2.292.618h.002l2.295-.62.239-2.668h-7.132l-.506-5.672-.049-.552h10.306l-.046.551z"/></g><g opacity=".2" fill="#FFF"><path opacity=".6" d="M105.737 359.145h1.046v1.033h.956v-1.033h1.046v3.129h-1.046v-1.048h-.956v1.048h-1.046v-3.129zm4.423 1.038h-.92v-1.038h2.888v1.038h-.922v2.091h-1.046v-2.091zm2.426-1.038h1.09l.671 1.1.67-1.1h1.091v3.129h-1.042v-1.551l-.719 1.112h-.018l-.721-1.112v1.551h-1.022v-3.129zm4.042 0h1.046v2.095h1.471v1.034h-2.517v-3.129z"/><path d="M104.207 363.704l1.496 16.779 6.713 1.863 6.731-1.867 1.497-16.775h-16.437zm13.318 3.982l-.095 1.044-.041.462h-7.875l.188 2.107h7.501l-.051.553-.483 5.418-.031.348-4.211 1.167v.001l-.01.002-4.215-1.17-.289-3.231h2.065l.146 1.642 2.292.618h.002l2.295-.62.239-2.668h-7.132l-.506-5.672-.049-.552h10.306l-.046.551z"/></g><g opacity=".2" fill="#FFF"><path opacity=".6" d="M234.737 100.145h1.046v1.033h.956v-1.033h1.046v3.129h-1.046v-1.048h-.956v1.048h-1.046v-3.129zm4.423 1.038h-.92v-1.038h2.888v1.038h-.922v2.091h-1.046v-2.091zm2.426-1.038h1.09l.671 1.1.67-1.1h1.091v3.129h-1.042v-1.551l-.719 1.112h-.018l-.721-1.112v1.551h-1.022v-3.129zm4.042 0h1.046v2.095h1.471v1.034h-2.517v-3.129z"/><path d="M233.207 104.704l1.496 16.779 6.713 1.863 6.731-1.867 1.497-16.775h-16.437zm13.318 3.982l-.095 1.044-.041.462h-7.875l.188 2.107h7.501l-.051.553-.483 5.418-.031.348-4.211 1.167v.001l-.01.002-4.215-1.17-.289-3.231h2.065l.146 1.642 2.292.618h.002l2.295-.62.239-2.668h-7.132l-.506-5.672-.049-.552h10.306l-.046.551z"/></g><path d="M895.777 281.917c0 .215-.131.375-.356.375-.188 0-.329-.16-.329-.375 0-.207.15-.376.348-.376.206 0 .337.169.337.376zm-.519 11.286v-8.634h.354v8.634h-.354zm12.125-6.151c0 4.352-2.416 6.331-5.062 6.331-2.702 0-4.89-2.14-4.89-6.151 0-4.119 2.264-6.331 5.08-6.331 2.76-.001 4.872 2.176 4.872 6.151zm-9.593.09c0 3.301 1.6 5.864 4.548 5.864 2.97 0 4.673-2.643 4.673-5.901 0-3.023-1.365-5.781-4.479-5.781-3.114-.001-4.742 2.596-4.742 5.818zm10.892 5.125c.594.396 1.618.779 2.5.779 1.673 0 3.16-1.17 3.16-2.894 0-1.598-.991-2.432-2.674-3.148-1.506-.642-2.859-1.337-2.859-3.046 0-1.78 1.403-3.04 3.309-3.04 1.026 0 1.8.288 2.159.54l-.144.31c-.305-.215-1.132-.49-2.03-.49-2.016 0-2.894 1.522-2.894 2.644 0 1.548 1.2 2.065 2.747 2.803 1.799.881 2.752 1.659 2.752 3.349 0 1.816-1.295 3.292-3.597 3.292-.954 0-2.051-.324-2.591-.737l.162-.362zM704.777 557.917c0 .215-.131.375-.356.375-.188 0-.329-.16-.329-.375 0-.207.15-.376.348-.376.206 0 .337.169.337.376zm-.519 11.286v-8.634h.354v8.634h-.354zm12.125-6.151c0 4.353-2.416 6.331-5.062 6.331-2.702 0-4.89-2.141-4.89-6.151 0-4.118 2.264-6.331 5.08-6.331 2.76-.001 4.872 2.175 4.872 6.151zm-9.593.09c0 3.301 1.6 5.864 4.548 5.864 2.97 0 4.673-2.643 4.673-5.901 0-3.022-1.365-5.781-4.479-5.781-3.114-.001-4.742 2.596-4.742 5.818zm10.892 5.126c.594.396 1.618.778 2.5.778 1.673 0 3.16-1.171 3.16-2.894 0-1.598-.991-2.432-2.674-3.148-1.506-.642-2.859-1.337-2.859-3.047 0-1.779 1.403-3.039 3.309-3.039 1.026 0 1.8.287 2.159.54l-.144.31c-.305-.215-1.132-.49-2.03-.49-2.016 0-2.894 1.522-2.894 2.645 0 1.548 1.2 2.064 2.747 2.803 1.799.881 2.752 1.658 2.752 3.349 0 1.816-1.295 3.292-3.597 3.292-.954 0-2.051-.324-2.591-.738l.162-.361zM474.777 474.917c0 .215-.131.375-.356.375-.188 0-.329-.16-.329-.375 0-.207.15-.376.348-.376.206 0 .337.169.337.376zm-.519 11.286v-8.634h.354v8.634h-.354zm12.125-6.151c0 4.353-2.416 6.331-5.062 6.331-2.702 0-4.89-2.141-4.89-6.151 0-4.118 2.264-6.331 5.08-6.331 2.76-.001 4.872 2.175 4.872 6.151zm-9.593.09c0 3.301 1.6 5.864 4.548 5.864 2.97 0 4.673-2.643 4.673-5.901 0-3.022-1.365-5.781-4.479-5.781-3.114-.001-4.742 2.596-4.742 5.818zm10.892 5.126c.594.396 1.618.778 2.5.778 1.673 0 3.16-1.171 3.16-2.894 0-1.598-.991-2.432-2.674-3.148-1.506-.642-2.859-1.337-2.859-3.047 0-1.779 1.403-3.039 3.309-3.039 1.026 0 1.8.287 2.159.54l-.144.31c-.305-.215-1.132-.49-2.03-.49-2.016 0-2.894 1.522-2.894 2.645 0 1.548 1.2 2.064 2.747 2.803 1.799.881 2.752 1.658 2.752 3.349 0 1.816-1.295 3.292-3.597 3.292-.954 0-2.051-.324-2.591-.738l.162-.361zM338.777 227.917c0 .215-.131.375-.356.375-.188 0-.329-.16-.329-.375 0-.207.15-.376.348-.376.206 0 .337.169.337.376zm-.519 11.286v-8.634h.354v8.634h-.354zm12.125-6.151c0 4.352-2.416 6.331-5.062 6.331-2.702 0-4.89-2.14-4.89-6.151 0-4.119 2.264-6.331 5.08-6.331 2.76-.001 4.872 2.176 4.872 6.151zm-9.593.09c0 3.301 1.6 5.864 4.548 5.864 2.97 0 4.673-2.643 4.673-5.901 0-3.023-1.365-5.781-4.479-5.781-3.114-.001-4.742 2.596-4.742 5.818zm10.892 5.125c.594.396 1.618.779 2.5.779 1.673 0 3.16-1.17 3.16-2.894 0-1.598-.991-2.432-2.674-3.148-1.506-.642-2.859-1.337-2.859-3.046 0-1.78 1.403-3.04 3.309-3.04 1.026 0 1.8.288 2.159.54l-.144.31c-.305-.215-1.132-.49-2.03-.49-2.016 0-2.894 1.522-2.894 2.644 0 1.548 1.2 2.065 2.747 2.803 1.799.881 2.752 1.659 2.752 3.349 0 1.816-1.295 3.292-3.597 3.292-.954 0-2.051-.324-2.591-.737l.162-.362zM86.777 9.917c0 .215-.131.375-.356.375-.188 0-.329-.16-.329-.375 0-.207.15-.376.348-.376.206 0 .337.169.337.376zm-.519 11.286v-8.634h.354v8.634h-.354zm12.125-6.151c0 4.352-2.416 6.331-5.062 6.331-2.702 0-4.89-2.14-4.89-6.151 0-4.119 2.264-6.331 5.08-6.331 2.76-.001 4.872 2.176 4.872 6.151zm-9.593.09c0 3.301 1.6 5.864 4.548 5.864 2.97 0 4.673-2.643 4.673-5.901 0-3.023-1.365-5.781-4.479-5.781-3.114-.001-4.742 2.596-4.742 5.818zm10.892 5.125c.594.396 1.618.779 2.5.779 1.673 0 3.16-1.17 3.16-2.894 0-1.598-.991-2.432-2.674-3.148-1.506-.642-2.859-1.337-2.859-3.046 0-1.78 1.403-3.04 3.309-3.04 1.026 0 1.8.288 2.159.54l-.144.31c-.305-.215-1.132-.49-2.03-.49-2.016 0-2.894 1.522-2.894 2.644 0 1.548 1.2 2.065 2.747 2.803 1.799.881 2.752 1.659 2.752 3.349 0 1.816-1.295 3.292-3.597 3.292-.954 0-2.051-.324-2.591-.737l.162-.362zM1069.777 49.917c0 .215-.131.375-.356.375-.188 0-.329-.16-.329-.375 0-.207.15-.376.348-.376.206 0 .337.169.337.376zm-.519 11.286v-8.634h.354v8.634h-.354zm12.125-6.151c0 4.352-2.416 6.331-5.062 6.331-2.702 0-4.89-2.14-4.89-6.151 0-4.119 2.264-6.331 5.08-6.331 2.76-.001 4.872 2.176 4.872 6.151zm-9.593.09c0 3.301 1.6 5.864 4.548 5.864 2.97 0 4.673-2.643 4.673-5.901 0-3.023-1.365-5.781-4.479-5.781-3.114-.001-4.742 2.596-4.742 5.818zm10.892 5.125c.594.396 1.618.779 2.5.779 1.673 0 3.16-1.17 3.16-2.894 0-1.598-.991-2.432-2.674-3.148-1.506-.642-2.859-1.337-2.859-3.046 0-1.78 1.403-3.04 3.309-3.04 1.026 0 1.8.288 2.159.54l-.144.31c-.305-.215-1.132-.49-2.03-.49-2.016 0-2.894 1.522-2.894 2.644 0 1.548 1.2 2.065 2.747 2.803 1.799.881 2.752 1.659 2.752 3.349 0 1.816-1.295 3.292-3.597 3.292-.954 0-2.051-.324-2.591-.737l.162-.362zM1022.777 619.917c0 .215-.131.375-.356.375-.188 0-.329-.16-.329-.375 0-.207.15-.376.348-.376.206 0 .337.169.337.376zm-.519 11.286v-8.634h.354v8.634h-.354zm12.125-6.151c0 4.353-2.416 6.331-5.062 6.331-2.702 0-4.89-2.141-4.89-6.151 0-4.118 2.264-6.331 5.08-6.331 2.76-.001 4.872 2.175 4.872 6.151zm-9.593.09c0 3.301 1.6 5.864 4.548 5.864 2.97 0 4.673-2.643 4.673-5.901 0-3.022-1.365-5.781-4.479-5.781-3.114-.001-4.742 2.596-4.742 5.818zm10.892 5.126c.594.396 1.618.778 2.5.778 1.673 0 3.16-1.171 3.16-2.894 0-1.598-.991-2.432-2.674-3.148-1.506-.642-2.859-1.337-2.859-3.047 0-1.779 1.403-3.039 3.309-3.039 1.026 0 1.8.287 2.159.54l-.144.31c-.305-.215-1.132-.49-2.03-.49-2.016 0-2.894 1.522-2.894 2.645 0 1.548 1.2 2.064 2.747 2.803 1.799.881 2.752 1.658 2.752 3.349 0 1.816-1.295 3.292-3.597 3.292-.954 0-2.051-.324-2.591-.738l.162-.361z" opacity=".2" fill="#FFF"/></svg>