<svg version="1" xmlns="http://www.w3.org/2000/svg" width="1411.482" height="738.433" viewBox="0 0 1411.482 738.433"><path opacity=".35" fill="#FFF" d="M123.15 80.797v33.524h33.524V80.797H123.15zm18.257 26.147c0 3.262-1.913 4.747-4.704 4.747-2.522 0-3.983-1.306-4.726-2.878l2.564-1.552c.495.878.945 1.621 2.028 1.621 1.035 0 1.688-.405 1.688-1.979V96.19h3.15v10.754zm7.443 4.753c-2.926 0-4.815-1.395-5.741-3.221l2.56-1.488c.676 1.103 1.554 1.914 3.108 1.914 1.305 0 2.139-.652 2.139-1.554 0-1.08-.857-1.463-2.293-2.091l-.788-.338c-2.273-.968-3.783-2.182-3.783-4.747 0-2.363 1.8-4.162 4.613-4.162 2.003 0 3.443.697 4.48 2.522l-2.453 1.575c-.54-.969-1.123-1.35-2.027-1.35-.923 0-1.507.585-1.507 1.35 0 .945.585 1.328 1.937 1.913l.787.337c2.677 1.147 4.188 2.317 4.188 4.949 0 2.837-2.228 4.391-5.22 4.391z"/><g fill="#FFF" opacity=".35"><path d="M626.298-52.188a2.516 2.516 0 0 0-2.513 2.514v9.518a2.515 2.515 0 0 0 2.513 2.513 2.516 2.516 0 0 0 2.514-2.513v-9.518a2.517 2.517 0 0 0-2.514-2.514zM599.649-52.188a2.516 2.516 0 0 0-2.513 2.514v9.518a2.515 2.515 0 0 0 2.513 2.513 2.516 2.516 0 0 0 2.514-2.513v-9.518a2.516 2.516 0 0 0-2.514-2.514zM602.785-36.798a2.463 2.463 0 0 0 2.463 2.463h1.405v5.039c0 1.386 1.128 2.513 2.514 2.513s2.513-1.127 2.513-2.513v-5.039h2.587v5.039a2.515 2.515 0 0 0 2.513 2.513 2.515 2.515 0 0 0 2.513-2.513v-5.039h1.406a2.463 2.463 0 0 0 2.463-2.463v-14.998h-20.378v14.998zM623.163-52.361c0-3.442-2.003-6.451-4.992-8.09l1.61-2.904a.555.555 0 0 0-.969-.536l-1.641 2.959a10.87 10.87 0 0 0-4.198-.833c-1.496 0-2.917.298-4.198.833l-1.64-2.959a.556.556 0 0 0-.753-.217.555.555 0 0 0-.216.753l1.61 2.904c-2.989 1.639-4.992 4.648-4.992 8.09l.001.072-.001.04v.106h20.378v-.106l-.001-.04.002-.072zm-14.892-3.97a.623.623 0 1 1 .001-1.245.623.623 0 0 1-.001 1.245zm9.406 0a.623.623 0 1 1 .001-1.245.623.623 0 0 1-.001 1.245z"/></g><g opacity=".35" fill="#FFF"><path d="M638.561-52.922c0 .462-.282.804-.765.804-.402 0-.704-.342-.704-.804 0-.443.322-.805.745-.805.442-.001.724.361.724.805zm-1.113 24.183v-18.499h.758v18.499h-.758zM663.428-41.919c0 9.326-5.178 13.565-10.846 13.565-5.789 0-10.478-4.585-10.478-13.181 0-8.825 4.852-13.565 10.886-13.565 5.91 0 10.438 4.663 10.438 13.181zm-20.555.192c0 7.072 3.428 12.565 9.745 12.565 6.362 0 10.011-5.663 10.011-12.646 0-6.476-2.924-12.386-9.596-12.386s-10.16 5.566-10.16 12.467zM666.21-30.744c1.272.849 3.468 1.667 5.356 1.667 3.584 0 6.771-2.507 6.771-6.198 0-3.424-2.123-5.212-5.729-6.747-3.227-1.374-6.127-2.865-6.127-6.526 0-3.815 3.006-6.513 7.09-6.513 2.197 0 3.854.617 4.626 1.156l-.308.665c-.654-.462-2.426-1.051-4.352-1.051-4.317 0-6.198 3.262-6.198 5.664 0 3.318 2.571 4.427 5.886 6.007 3.854 1.889 5.896 3.553 5.896 7.176 0 3.893-2.775 7.053-7.708 7.053-2.044 0-4.394-.693-5.55-1.58l.347-.773z"/></g><path opacity=".35" fill="#FFF" d="M382.168 108.178v33.524h33.524v-33.524h-33.524zm18.257 26.148c0 3.262-1.913 4.747-4.704 4.747-2.522 0-3.983-1.306-4.726-2.878l2.564-1.552c.495.878.945 1.621 2.028 1.621 1.035 0 1.688-.405 1.688-1.979v-10.712h3.15v10.753zm7.444 4.752c-2.926 0-4.815-1.395-5.741-3.221l2.56-1.488c.676 1.103 1.554 1.914 3.108 1.914 1.305 0 2.139-.652 2.139-1.554 0-1.08-.857-1.463-2.293-2.091l-.788-.338c-2.273-.968-3.783-2.182-3.783-4.747 0-2.363 1.8-4.162 4.613-4.162 2.003 0 3.443.697 4.48 2.522l-2.453 1.575c-.54-.969-1.123-1.35-2.027-1.35-.923 0-1.507.585-1.507 1.35 0 .945.585 1.328 1.937 1.913l.787.337c2.677 1.147 4.188 2.317 4.188 4.949 0 2.837-2.229 4.391-5.22 4.391zM568.168 453.178v33.525h33.524v-33.525h-33.524zm18.257 26.148c0 3.262-1.913 4.746-4.704 4.746-2.522 0-3.983-1.306-4.726-2.878l2.564-1.552c.495.877.945 1.62 2.028 1.62 1.035 0 1.688-.405 1.688-1.979v-10.712h3.15v10.755zm7.444 4.752c-2.926 0-4.815-1.395-5.741-3.221l2.56-1.488c.676 1.103 1.554 1.913 3.108 1.913 1.305 0 2.139-.651 2.139-1.554 0-1.08-.857-1.463-2.293-2.092l-.788-.338c-2.273-.968-3.783-2.182-3.783-4.746 0-2.363 1.8-4.162 4.613-4.162 2.003 0 3.443.697 4.48 2.523l-2.453 1.574c-.54-.969-1.123-1.35-2.027-1.35-.923 0-1.507.585-1.507 1.35 0 .945.585 1.328 1.937 1.914l.787.337c2.677 1.147 4.188 2.317 4.188 4.948 0 2.838-2.229 4.392-5.22 4.392zM1104.168 290.178v33.524h33.524v-33.524h-33.524zm18.258 26.148c0 3.262-1.913 4.747-4.705 4.747-2.521 0-3.982-1.306-4.726-2.878l2.564-1.552c.495.878.945 1.621 2.028 1.621 1.034 0 1.688-.405 1.688-1.979v-10.712h3.15v10.753zm7.443 4.752c-2.926 0-4.816-1.395-5.741-3.221l2.56-1.488c.676 1.103 1.555 1.914 3.108 1.914 1.306 0 2.14-.652 2.14-1.554 0-1.08-.857-1.463-2.294-2.091l-.788-.338c-2.273-.968-3.783-2.182-3.783-4.747 0-2.363 1.801-4.162 4.613-4.162 2.004 0 3.443.697 4.48 2.522l-2.453 1.575c-.539-.969-1.122-1.35-2.027-1.35-.922 0-1.507.585-1.507 1.35 0 .945.585 1.328 1.937 1.913l.787.337c2.678 1.147 4.188 2.317 4.188 4.949 0 2.837-2.229 4.391-5.22 4.391zM988.168 63.178v33.524h33.524V63.178h-33.524zm18.258 26.148c0 3.262-1.913 4.747-4.705 4.747-2.521 0-3.982-1.306-4.726-2.878l2.564-1.552c.495.878.945 1.621 2.028 1.621 1.034 0 1.688-.405 1.688-1.979V78.571h3.15v10.755zm7.443 4.752c-2.926 0-4.816-1.395-5.741-3.221l2.56-1.488c.676 1.103 1.555 1.914 3.108 1.914 1.306 0 2.14-.652 2.14-1.554 0-1.08-.857-1.463-2.294-2.091l-.788-.338c-2.273-.968-3.783-2.182-3.783-4.747 0-2.363 1.801-4.162 4.613-4.162 2.004 0 3.443.697 4.48 2.522l-2.453 1.575c-.539-.969-1.122-1.35-2.027-1.35-.922 0-1.507.585-1.507 1.35 0 .945.585 1.328 1.937 1.913l.787.337c2.678 1.147 4.188 2.317 4.188 4.949 0 2.837-2.229 4.391-5.22 4.391zM906.168 638.178v33.525h33.524v-33.525h-33.524zm18.258 26.148c0 3.262-1.913 4.746-4.705 4.746-2.521 0-3.982-1.306-4.726-2.878l2.564-1.552c.495.877.945 1.62 2.028 1.62 1.034 0 1.688-.405 1.688-1.979v-10.712h3.15v10.755zm7.443 4.752c-2.926 0-4.816-1.395-5.741-3.221l2.56-1.488c.676 1.103 1.555 1.913 3.108 1.913 1.306 0 2.14-.651 2.14-1.554 0-1.08-.857-1.463-2.294-2.092l-.788-.338c-2.273-.968-3.783-2.182-3.783-4.746 0-2.363 1.801-4.162 4.613-4.162 2.004 0 3.443.697 4.48 2.523l-2.453 1.574c-.539-.969-1.122-1.35-2.027-1.35-.922 0-1.507.585-1.507 1.35 0 .945.585 1.328 1.937 1.914l.787.337c2.678 1.147 4.188 2.317 4.188 4.948 0 2.838-2.229 4.392-5.22 4.392zM59.168 638.178v33.525h33.524v-33.525H59.168zm18.257 26.148c0 3.262-1.913 4.746-4.704 4.746-2.522 0-3.983-1.306-4.726-2.878l2.564-1.552c.495.877.945 1.62 2.028 1.62 1.035 0 1.688-.405 1.688-1.979v-10.712h3.15v10.755zm7.444 4.752c-2.926 0-4.815-1.395-5.741-3.221l2.56-1.488c.676 1.103 1.554 1.913 3.108 1.913 1.305 0 2.139-.651 2.139-1.554 0-1.08-.857-1.463-2.293-2.092l-.788-.338c-2.273-.968-3.783-2.182-3.783-4.746 0-2.363 1.8-4.162 4.613-4.162 2.003 0 3.443.697 4.48 2.523l-2.453 1.574c-.54-.969-1.123-1.35-2.027-1.35-.923 0-1.507.585-1.507 1.35 0 .945.585 1.328 1.937 1.914l.787.337c2.677 1.147 4.188 2.317 4.188 4.948 0 2.838-2.229 4.392-5.22 4.392zM1180.168 404.178v33.525h33.524v-33.525h-33.524zm18.258 26.148c0 3.262-1.913 4.746-4.705 4.746-2.521 0-3.982-1.306-4.726-2.878l2.564-1.552c.495.877.945 1.62 2.028 1.62 1.034 0 1.688-.405 1.688-1.979v-10.712h3.15v10.755zm7.443 4.752c-2.926 0-4.816-1.395-5.741-3.221l2.56-1.488c.676 1.103 1.555 1.913 3.108 1.913 1.306 0 2.14-.651 2.14-1.554 0-1.08-.857-1.463-2.294-2.092l-.788-.338c-2.273-.968-3.783-2.182-3.783-4.746 0-2.363 1.801-4.162 4.613-4.162 2.004 0 3.443.697 4.48 2.523l-2.453 1.574c-.539-.969-1.122-1.35-2.027-1.35-.922 0-1.507.585-1.507 1.35 0 .945.585 1.328 1.937 1.914l.787.337c2.678 1.147 4.188 2.317 4.188 4.948 0 2.838-2.229 4.392-5.22 4.392zM780.168 100.178v33.524h33.524v-33.524h-33.524zm18.258 26.148c0 3.262-1.913 4.747-4.705 4.747-2.521 0-3.982-1.306-4.726-2.878l2.564-1.552c.495.878.945 1.621 2.028 1.621 1.034 0 1.688-.405 1.688-1.979v-10.712h3.15v10.753zm7.443 4.752c-2.926 0-4.816-1.395-5.741-3.221l2.56-1.488c.676 1.103 1.555 1.914 3.108 1.914 1.306 0 2.14-.652 2.14-1.554 0-1.08-.857-1.463-2.294-2.091l-.788-.338c-2.273-.968-3.783-2.182-3.783-4.747 0-2.363 1.801-4.162 4.613-4.162 2.004 0 3.443.697 4.48 2.522l-2.453 1.575c-.539-.969-1.122-1.35-2.027-1.35-.922 0-1.507.585-1.507 1.35 0 .945.585 1.328 1.937 1.913l.787.337c2.678 1.147 4.188 2.317 4.188 4.949 0 2.837-2.229 4.391-5.22 4.391z"/><g opacity=".35" fill="#FFF"><path opacity=".6" d="M511.795 371.145h1.769v1.748h1.618v-1.748h1.77v5.293h-1.769v-1.772h-1.619v1.772h-1.769v-5.293zM519.277 372.9h-1.557v-1.755h4.885v1.755h-1.558v3.538h-1.77V372.9zM523.38 371.145h1.845l1.134 1.86 1.134-1.86h1.845v5.293h-1.762v-2.624l-1.217 1.882h-.03l-1.218-1.882v2.624h-1.731v-5.293zM530.219 371.145h1.769v3.543h2.488v1.75h-4.257v-5.293z"/><path d="M509.208 378.858l2.53 28.384 11.356 3.152 11.387-3.158 2.533-28.378h-27.806zm22.528 6.736l-.159 1.765-.069.783h-13.322l.319 3.565H531.191l-.085.935-.817 9.165-.053.588-7.125 1.975v.001l-.016.004-7.13-1.979-.488-5.465h3.495l.248 2.776 3.877 1.047.003-.001 3.883-1.048.404-4.515h-12.065l-.856-9.593-.083-.934h17.437l-.084.931z"/></g><g opacity=".35" fill="#FFF"><path opacity=".6" d="M385.795 62.145h1.769v1.748h1.618v-1.748h1.77v5.293h-1.769v-1.772h-1.619v1.772h-1.769v-5.293zM393.277 63.9h-1.557v-1.755h4.885V63.9h-1.558v3.538h-1.77V63.9zM397.38 62.145h1.845l1.134 1.86 1.134-1.86h1.845v5.293h-1.762v-2.624l-1.217 1.882h-.03l-1.218-1.882v2.624h-1.731v-5.293zM404.219 62.145h1.769v3.543h2.488v1.75h-4.257v-5.293z"/><path d="M383.208 69.858l2.53 28.384 11.356 3.152 11.387-3.157 2.533-28.379h-27.806zm22.528 6.736l-.159 1.765-.069.783h-13.322l.319 3.565H405.191l-.085.935-.817 9.165-.053.588-7.125 1.975-.016.004-7.13-1.979-.488-5.465h3.495l.248 2.776 3.877 1.047.003-.001 3.883-1.048.404-4.515h-12.065l-.856-9.593-.083-.934h17.437l-.084.932z"/></g><g opacity=".35" fill="#FFF"><path opacity=".6" d="M931.795 487.145h1.77v1.748h1.617v-1.748h1.77v5.293h-1.769v-1.772h-1.618v1.772h-1.77v-5.293zM939.277 488.9h-1.557v-1.756h4.885v1.756h-1.559v3.537h-1.77V488.9h.001zM943.381 487.145h1.844l1.135 1.86 1.134-1.86h1.845v5.293h-1.762v-2.623l-1.217 1.881h-.03l-1.218-1.881v2.623h-1.73v-5.293zM950.219 487.145h1.77v3.543h2.488v1.75h-4.258v-5.293z"/><path d="M929.207 494.857l2.531 28.385 11.355 3.152 11.387-3.158 2.533-28.379h-27.806zm22.529 6.737l-.159 1.765-.069.782h-13.323l.319 3.565H951.191l-.086.935-.817 9.165-.053.588-7.124 1.975v.001l-.017.004-7.13-1.979-.488-5.466H938.97l.248 2.776 3.877 1.047.003-.001 3.883-1.049.404-4.514H935.32l-.855-9.594-.083-.934h17.437l-.083.934z"/></g><g opacity=".35" fill="#FFF"><path opacity=".6" d="M1277.795 591.145h1.77v1.748h1.617v-1.748h1.77v5.293h-1.769v-1.772h-1.618v1.772h-1.77v-5.293zM1285.277 592.9h-1.557v-1.756h4.885v1.756h-1.559v3.537h-1.77V592.9h.001zM1289.381 591.145h1.844l1.135 1.86 1.134-1.86h1.845v5.293h-1.762v-2.623l-1.217 1.881h-.03l-1.218-1.881v2.623h-1.73v-5.293zM1296.219 591.145h1.77v3.543h2.488v1.75h-4.258v-5.293z"/><path d="M1275.207 598.857l2.531 28.385 11.355 3.152 11.387-3.158 2.533-28.379h-27.806zm22.529 6.737l-.159 1.765-.069.782h-13.323l.319 3.565H1297.191l-.086.935-.817 9.165-.053.588-7.124 1.975v.001l-.017.004-7.13-1.979-.488-5.466H1284.97l.248 2.776 3.877 1.047.003-.001 3.883-1.049.404-4.514h-12.065l-.855-9.594-.083-.934h17.437l-.083.934z"/></g><g opacity=".35" fill="#FFF"><path opacity=".6" d="M1269.795 55.145h1.77v1.748h1.617v-1.748h1.77v5.293h-1.769v-1.772h-1.618v1.772h-1.77v-5.293zM1277.277 56.9h-1.557v-1.755h4.885V56.9h-1.559v3.538h-1.77V56.9h.001zM1281.381 55.145h1.844l1.135 1.86 1.134-1.86h1.845v5.293h-1.762v-2.624l-1.217 1.882h-.03l-1.218-1.882v2.624h-1.73v-5.293zM1288.219 55.145h1.77v3.543h2.488v1.75h-4.258v-5.293z"/><path d="M1267.207 62.858l2.531 28.384 11.355 3.152 11.387-3.157 2.533-28.379h-27.806zm22.529 6.736l-.159 1.765-.069.783h-13.323l.319 3.565H1289.191l-.086.935-.817 9.165-.053.588-7.124 1.975-.017.004-7.13-1.979-.488-5.465H1276.97l.248 2.776 3.877 1.047.003-.001 3.883-1.048.404-4.515h-12.065l-.855-9.593-.083-.934h17.437l-.083.932z"/></g><g opacity=".35" fill="#FFF"><path opacity=".6" d="M844.795 307.145h1.77v1.748h1.617v-1.748h1.77v5.293h-1.769v-1.772h-1.618v1.772h-1.77v-5.293zM852.277 308.9h-1.557v-1.755h4.885v1.755h-1.559v3.538h-1.77V308.9h.001zM856.381 307.145h1.844l1.135 1.86 1.134-1.86h1.845v5.293h-1.762v-2.624l-1.217 1.882h-.03l-1.218-1.882v2.624h-1.73v-5.293zM863.219 307.145h1.77v3.543h2.488v1.75h-4.258v-5.293z"/><path d="M842.207 314.858l2.531 28.384 11.355 3.152 11.387-3.157 2.533-28.379h-27.806zm22.529 6.736l-.159 1.765-.069.783h-13.323l.319 3.565H864.191l-.086.935-.817 9.165-.053.588-7.124 1.975-.017.004-7.13-1.979-.488-5.465H851.97l.248 2.776 3.877 1.047.003-.001 3.883-1.048.404-4.515H848.32l-.855-9.593-.083-.934h17.437l-.083.932z"/></g><g opacity=".35" fill="#FFF"><path opacity=".6" d="M101.795 504.145h1.769v1.748h1.618v-1.748h1.77v5.293h-1.769v-1.772h-1.619v1.772h-1.769v-5.293zM109.277 505.9h-1.557v-1.756h4.885v1.756h-1.558v3.537h-1.77V505.9zM113.38 504.145h1.845l1.134 1.86 1.134-1.86h1.845v5.293h-1.762v-2.623l-1.217 1.881h-.03l-1.218-1.881v2.623h-1.731v-5.293zM120.219 504.145h1.769v3.543h2.488v1.75h-4.257v-5.293z"/><path d="M99.208 511.857l2.53 28.385 11.356 3.152 11.387-3.158 2.533-28.379H99.208zm22.528 6.737l-.159 1.765-.069.782h-13.322l.319 3.565H121.191l-.085.935-.817 9.165-.053.588-7.125 1.975v.001l-.016.004-7.13-1.979-.488-5.466h3.495l.248 2.776 3.877 1.047.003-.001 3.883-1.049.404-4.514h-12.065l-.856-9.594-.083-.934h17.437l-.084.934z"/></g><g opacity=".35" fill="#FFF"><path opacity=".6" d="M44.795 149.145h1.769v1.748h1.618v-1.748h1.77v5.293h-1.769v-1.772h-1.619v1.772h-1.769v-5.293zM52.277 150.9H50.72v-1.755h4.885v1.755h-1.558v3.538h-1.77V150.9zM56.38 149.145h1.845l1.134 1.86 1.134-1.86h1.845v5.293h-1.762v-2.624l-1.217 1.882h-.03l-1.218-1.882v2.624H56.38v-5.293zM63.219 149.145h1.769v3.543h2.488v1.75h-4.257v-5.293z"/><path d="M42.208 156.858l2.53 28.384 11.356 3.152 11.387-3.157 2.533-28.379H42.208zm22.528 6.736l-.159 1.765-.069.783H51.186l.319 3.565H64.191l-.085.935-.817 9.165-.053.588-7.125 1.975-.016.004-7.13-1.979-.488-5.465h3.495l.248 2.776 3.877 1.047.003-.001 3.883-1.048.404-4.515H48.322l-.856-9.593-.083-.934H64.82l-.084.932z"/></g><g fill="#FFF" opacity=".35"><path d="M679.298 188.812a2.516 2.516 0 0 0-2.513 2.514v9.518c0 1.386 1.127 2.513 2.513 2.513s2.514-1.127 2.514-2.513v-9.518a2.517 2.517 0 0 0-2.514-2.514zM652.649 188.812a2.516 2.516 0 0 0-2.513 2.514v9.518c0 1.386 1.127 2.513 2.513 2.513s2.514-1.127 2.514-2.513v-9.518a2.517 2.517 0 0 0-2.514-2.514zM655.785 204.202a2.463 2.463 0 0 0 2.463 2.463h1.405v5.039c0 1.386 1.128 2.513 2.514 2.513s2.513-1.127 2.513-2.513v-5.039h2.588v5.039a2.516 2.516 0 0 0 2.514 2.513 2.515 2.515 0 0 0 2.513-2.513v-5.039h1.405a2.464 2.464 0 0 0 2.464-2.463v-14.998h-20.378v14.998zM676.163 188.639c0-3.442-2.003-6.451-4.991-8.09l1.609-2.904a.554.554 0 1 0-.969-.536l-1.641 2.959a10.87 10.87 0 0 0-4.198-.833c-1.496 0-2.917.298-4.198.833l-1.641-2.959a.555.555 0 0 0-.969.536l1.61 2.904c-2.989 1.639-4.991 4.648-4.991 8.09l.001.072-.001.04v.106h20.378v-.106l-.001-.04.002-.072zm-14.892-3.97a.622.622 0 1 1 0-1.244.622.622 0 0 1 0 1.244zm9.406 0a.623.623 0 1 1 .001-1.245.623.623 0 0 1-.001 1.245z"/></g><g fill="#FFF" opacity=".35"><path d="M1102.298 544.812a2.516 2.516 0 0 0-2.513 2.514v9.518c0 1.385 1.127 2.513 2.513 2.513s2.514-1.128 2.514-2.513v-9.518a2.516 2.516 0 0 0-2.514-2.514zM1075.649 544.812a2.516 2.516 0 0 0-2.513 2.514v9.518c0 1.385 1.127 2.513 2.513 2.513s2.514-1.128 2.514-2.513v-9.518a2.516 2.516 0 0 0-2.514-2.514zM1078.785 560.202a2.464 2.464 0 0 0 2.463 2.464h1.405v5.038c0 1.386 1.128 2.513 2.514 2.513s2.513-1.127 2.513-2.513v-5.038h2.588v5.038a2.516 2.516 0 0 0 2.514 2.513 2.515 2.515 0 0 0 2.513-2.513v-5.038h1.405a2.464 2.464 0 0 0 2.464-2.464v-14.997h-20.378v14.997zM1099.163 544.639c0-3.441-2.003-6.451-4.991-8.09l1.609-2.904a.555.555 0 0 0-.969-.537l-1.641 2.959a10.87 10.87 0 0 0-4.198-.833c-1.496 0-2.917.298-4.198.833l-1.641-2.959a.553.553 0 1 0-.969.537l1.61 2.904c-2.989 1.639-4.991 4.648-4.991 8.09l.001.072-.001.039v.106h20.378v-.106l-.001-.039a1.73 1.73 0 0 0 .002-.072zm-14.892-3.969a.622.622 0 1 1 0-1.244.622.622 0 0 1 0 1.244zm9.406 0a.623.623 0 1 1 .001-1.245.623.623 0 0 1-.001 1.245z"/></g><g fill="#FFF" opacity=".35"><path d="M1341.298 85.812a2.516 2.516 0 0 0-2.513 2.514v9.518c0 1.386 1.127 2.513 2.513 2.513s2.514-1.127 2.514-2.513v-9.518a2.517 2.517 0 0 0-2.514-2.514zM1314.649 85.812a2.516 2.516 0 0 0-2.513 2.514v9.518c0 1.386 1.127 2.513 2.513 2.513s2.514-1.127 2.514-2.513v-9.518a2.517 2.517 0 0 0-2.514-2.514zM1317.785 101.202a2.463 2.463 0 0 0 2.463 2.463h1.405v5.039c0 1.386 1.128 2.513 2.514 2.513s2.513-1.127 2.513-2.513v-5.039h2.588v5.039a2.516 2.516 0 0 0 2.514 2.513 2.515 2.515 0 0 0 2.513-2.513v-5.039h1.405a2.464 2.464 0 0 0 2.464-2.463V86.205h-20.378v14.997zM1338.163 85.639c0-3.442-2.003-6.451-4.991-8.09l1.609-2.904a.554.554 0 1 0-.969-.536l-1.641 2.959a10.87 10.87 0 0 0-4.198-.833c-1.496 0-2.917.298-4.198.833l-1.641-2.959a.555.555 0 0 0-.969.536l1.61 2.904c-2.989 1.639-4.991 4.648-4.991 8.09l.001.072-.001.04v.106h20.378v-.107l-.001-.04.002-.071zm-14.892-3.97a.622.622 0 1 1 0-1.244.622.622 0 0 1 0 1.244zm9.406 0a.623.623 0 1 1 .001-1.245.623.623 0 0 1-.001 1.245z"/></g><g fill="#FFF" opacity=".35"><path d="M430.298 297.812a2.516 2.516 0 0 0-2.513 2.514v9.518a2.515 2.515 0 0 0 2.513 2.513 2.516 2.516 0 0 0 2.514-2.513v-9.518a2.517 2.517 0 0 0-2.514-2.514zM403.649 297.812a2.516 2.516 0 0 0-2.513 2.514v9.518a2.515 2.515 0 0 0 2.513 2.513 2.516 2.516 0 0 0 2.514-2.513v-9.518a2.516 2.516 0 0 0-2.514-2.514zM406.785 313.202a2.463 2.463 0 0 0 2.463 2.463h1.405v5.039c0 1.386 1.128 2.513 2.514 2.513s2.513-1.127 2.513-2.513v-5.039h2.587v5.039a2.515 2.515 0 0 0 2.513 2.513 2.515 2.515 0 0 0 2.513-2.513v-5.039h1.406a2.463 2.463 0 0 0 2.463-2.463v-14.998h-20.378v14.998zM427.163 297.639c0-3.442-2.003-6.451-4.992-8.09l1.61-2.904a.555.555 0 0 0-.969-.536l-1.641 2.959a10.87 10.87 0 0 0-4.198-.833c-1.496 0-2.917.298-4.198.833l-1.64-2.959a.556.556 0 0 0-.753-.217.555.555 0 0 0-.216.753l1.61 2.904c-2.989 1.639-4.992 4.648-4.992 8.09l.001.072-.001.04v.106h20.378v-.106l-.001-.04.002-.072zm-14.892-3.97a.623.623 0 1 1 .001-1.245.623.623 0 0 1-.001 1.245zm9.406 0a.623.623 0 1 1 .001-1.245.623.623 0 0 1-.001 1.245z"/></g><g fill="#FFF" opacity=".35"><path d="M89.298 386.812a2.516 2.516 0 0 0-2.513 2.514v9.518a2.515 2.515 0 0 0 2.513 2.513 2.516 2.516 0 0 0 2.514-2.513v-9.518a2.517 2.517 0 0 0-2.514-2.514zM62.649 386.812a2.516 2.516 0 0 0-2.513 2.514v9.518a2.515 2.515 0 0 0 2.513 2.513 2.516 2.516 0 0 0 2.514-2.513v-9.518a2.516 2.516 0 0 0-2.514-2.514zM65.785 402.202a2.464 2.464 0 0 0 2.463 2.464h1.405v5.038c0 1.386 1.128 2.513 2.514 2.513s2.513-1.127 2.513-2.513v-5.038h2.587v5.038a2.515 2.515 0 0 0 2.513 2.513 2.515 2.515 0 0 0 2.513-2.513v-5.038H83.7a2.464 2.464 0 0 0 2.463-2.464v-14.998H65.785v14.998zM86.163 386.639c0-3.442-2.003-6.451-4.992-8.09l1.61-2.904a.555.555 0 0 0-.969-.536l-1.641 2.959a10.87 10.87 0 0 0-4.198-.833c-1.496 0-2.917.298-4.198.833l-1.64-2.959a.556.556 0 0 0-.753-.217.555.555 0 0 0-.216.753l1.61 2.904c-2.989 1.639-4.992 4.648-4.992 8.09l.001.072-.001.04v.106h20.378v-.106l-.001-.04a1.73 1.73 0 0 0 .002-.072zm-14.892-3.97a.623.623 0 1 1 .001-1.245.623.623 0 0 1-.001 1.245zm9.406 0a.623.623 0 1 1 .001-1.245.623.623 0 0 1-.001 1.245z"/></g><g fill="#FFF" opacity=".35"><path d="M314.298 510.812a2.516 2.516 0 0 0-2.513 2.514v9.518a2.516 2.516 0 0 0 2.513 2.513 2.517 2.517 0 0 0 2.514-2.513v-9.518a2.516 2.516 0 0 0-2.514-2.514zM287.649 510.812a2.516 2.516 0 0 0-2.513 2.514v9.518a2.516 2.516 0 0 0 2.513 2.513 2.517 2.517 0 0 0 2.514-2.513v-9.518a2.516 2.516 0 0 0-2.514-2.514zM290.785 526.202a2.464 2.464 0 0 0 2.463 2.464h1.405v5.038c0 1.386 1.128 2.513 2.514 2.513s2.513-1.127 2.513-2.513v-5.038h2.587v5.038a2.515 2.515 0 0 0 2.513 2.513 2.515 2.515 0 0 0 2.513-2.513v-5.038h1.406a2.464 2.464 0 0 0 2.463-2.464v-14.997h-20.378v14.997zM311.163 510.639c0-3.441-2.003-6.451-4.992-8.09l1.61-2.904a.556.556 0 0 0-.484-.823.553.553 0 0 0-.485.286l-1.641 2.959a10.87 10.87 0 0 0-4.198-.833c-1.496 0-2.917.298-4.198.833l-1.64-2.959a.554.554 0 1 0-.969.537l1.61 2.904c-2.989 1.639-4.992 4.648-4.992 8.09l.001.072-.001.039v.106h20.378v-.106l-.001-.039a1.73 1.73 0 0 0 .002-.072zm-14.892-3.969a.623.623 0 1 1 .001-1.245.623.623 0 0 1-.001 1.245zm9.406 0a.623.623 0 1 1 .001-1.245.623.623 0 0 1-.001 1.245z"/></g><g opacity=".35" fill="#FFF"><path d="M1165.561 623.078c0 .461-.281.804-.764.804-.402 0-.705-.343-.705-.804 0-.443.322-.806.745-.806.442 0 .724.363.724.806zm-1.114 24.183v-18.499h.759v18.499h-.759zM1190.428 634.081c0 9.325-5.178 13.565-10.846 13.565-5.789 0-10.478-4.586-10.478-13.181 0-8.825 4.852-13.565 10.886-13.565 5.91 0 10.438 4.663 10.438 13.181zm-20.555.192c0 7.072 3.428 12.565 9.745 12.565 6.362 0 10.011-5.663 10.011-12.646 0-6.477-2.924-12.387-9.596-12.387s-10.16 5.566-10.16 12.468zM1193.21 645.256c1.272.849 3.468 1.668 5.356 1.668 3.584 0 6.771-2.508 6.771-6.199 0-3.424-2.123-5.211-5.729-6.746-3.227-1.375-6.127-2.865-6.127-6.527 0-3.814 3.006-6.513 7.09-6.513 2.197 0 3.854.616 4.626 1.156l-.308.665c-.654-.462-2.426-1.051-4.352-1.051-4.317 0-6.198 3.262-6.198 5.664 0 3.317 2.571 4.426 5.886 6.006 3.854 1.889 5.896 3.554 5.896 7.176 0 3.893-2.775 7.053-7.708 7.053-2.044 0-4.394-.693-5.55-1.58l.347-.772z"/></g><g opacity=".35" fill="#FFF"><path d="M957.561 276.078c0 .461-.281.804-.764.804-.402 0-.705-.343-.705-.804 0-.443.322-.806.745-.806.442 0 .724.363.724.806zm-1.114 24.183v-18.499h.759v18.499h-.759zM982.428 287.081c0 9.325-5.178 13.565-10.846 13.565-5.789 0-10.478-4.586-10.478-13.181 0-8.825 4.852-13.565 10.886-13.565 5.91 0 10.438 4.663 10.438 13.181zm-20.555.192c0 7.072 3.428 12.565 9.745 12.565 6.362 0 10.011-5.663 10.011-12.646 0-6.477-2.924-12.387-9.596-12.387s-10.16 5.566-10.16 12.468zM985.21 298.256c1.272.849 3.468 1.668 5.356 1.668 3.584 0 6.771-2.508 6.771-6.199 0-3.424-2.123-5.211-5.729-6.746-3.227-1.375-6.127-2.865-6.127-6.527 0-3.814 3.006-6.513 7.09-6.513 2.197 0 3.854.616 4.626 1.156l-.308.665c-.654-.462-2.426-1.051-4.352-1.051-4.317 0-6.198 3.262-6.198 5.664 0 3.317 2.571 4.426 5.886 6.006 3.854 1.889 5.896 3.554 5.896 7.176 0 3.893-2.775 7.053-7.708 7.053-2.044 0-4.394-.693-5.55-1.58l.347-.772z"/></g><g opacity=".35" fill="#FFF"><path d="M567.561 330.078c0 .461-.281.804-.764.804-.402 0-.705-.343-.705-.804 0-.443.322-.806.745-.806.442 0 .724.363.724.806zm-1.114 24.183v-18.499h.759v18.499h-.759zM592.428 341.081c0 9.325-5.178 13.565-10.846 13.565-5.789 0-10.478-4.586-10.478-13.181 0-8.825 4.852-13.565 10.886-13.565 5.91 0 10.438 4.663 10.438 13.181zm-20.555.192c0 7.072 3.428 12.565 9.745 12.565 6.362 0 10.011-5.663 10.011-12.646 0-6.477-2.924-12.387-9.596-12.387s-10.16 5.566-10.16 12.468zM595.21 352.256c1.272.849 3.468 1.668 5.356 1.668 3.584 0 6.771-2.508 6.771-6.199 0-3.424-2.123-5.211-5.729-6.746-3.227-1.375-6.127-2.865-6.127-6.527 0-3.814 3.006-6.513 7.09-6.513 2.197 0 3.854.616 4.626 1.156l-.308.665c-.654-.462-2.426-1.051-4.352-1.051-4.317 0-6.198 3.262-6.198 5.664 0 3.317 2.571 4.426 5.886 6.006 3.854 1.889 5.896 3.554 5.896 7.176 0 3.893-2.775 7.053-7.708 7.053-2.044 0-4.394-.693-5.55-1.58l.347-.772z"/></g><g opacity=".35" fill="#FFF"><path d="M251.561 187.078c0 .461-.281.804-.764.804-.402 0-.705-.343-.705-.804 0-.443.322-.806.745-.806.442 0 .724.363.724.806zm-1.114 24.183v-18.499h.759v18.499h-.759zM276.428 198.081c0 9.325-5.178 13.565-10.846 13.565-5.789 0-10.478-4.586-10.478-13.181 0-8.825 4.852-13.565 10.886-13.565 5.91 0 10.438 4.663 10.438 13.181zm-20.555.192c0 7.072 3.428 12.565 9.745 12.565 6.362 0 10.011-5.663 10.011-12.646 0-6.477-2.924-12.387-9.596-12.387s-10.16 5.566-10.16 12.468zM279.21 209.256c1.272.849 3.468 1.668 5.356 1.668 3.584 0 6.771-2.508 6.771-6.199 0-3.424-2.123-5.211-5.729-6.746-3.227-1.375-6.127-2.865-6.127-6.527 0-3.814 3.006-6.513 7.09-6.513 2.197 0 3.854.616 4.626 1.156l-.308.665c-.654-.462-2.426-1.051-4.352-1.051-4.317 0-6.198 3.262-6.198 5.664 0 3.317 2.571 4.426 5.886 6.006 3.854 1.889 5.896 3.554 5.896 7.176 0 3.893-2.775 7.053-7.708 7.053-2.044 0-4.394-.693-5.55-1.58l.347-.772z"/></g><g opacity=".35" fill="#FFF"><path d="M219.561 649.078c0 .461-.281.804-.764.804-.402 0-.705-.343-.705-.804 0-.443.322-.806.745-.806.442 0 .724.363.724.806zm-1.114 24.183v-18.499h.759v18.499h-.759zM244.428 660.081c0 9.325-5.178 13.565-10.846 13.565-5.789 0-10.478-4.586-10.478-13.181 0-8.825 4.852-13.565 10.886-13.565 5.91 0 10.438 4.663 10.438 13.181zm-20.555.192c0 7.072 3.428 12.565 9.745 12.565 6.362 0 10.011-5.663 10.011-12.646 0-6.477-2.924-12.387-9.596-12.387s-10.16 5.566-10.16 12.468zM247.21 671.256c1.272.849 3.468 1.668 5.356 1.668 3.584 0 6.771-2.508 6.771-6.199 0-3.424-2.123-5.211-5.729-6.746-3.227-1.375-6.127-2.865-6.127-6.527 0-3.814 3.006-6.513 7.09-6.513 2.197 0 3.854.616 4.626 1.156l-.308.665c-.654-.462-2.426-1.051-4.352-1.051-4.317 0-6.198 3.262-6.198 5.664 0 3.317 2.571 4.426 5.886 6.006 3.854 1.889 5.896 3.554 5.896 7.176 0 3.893-2.775 7.053-7.708 7.053-2.044 0-4.394-.693-5.55-1.58l.347-.772z"/></g><g opacity=".35" fill="#FFF"><path d="M886.561 36.078c0 .461-.281.804-.764.804-.402 0-.705-.343-.705-.804 0-.443.322-.806.745-.806.442 0 .724.363.724.806zm-1.114 24.183V41.762h.759v18.499h-.759zM911.428 47.081c0 9.325-5.178 13.565-10.846 13.565-5.789 0-10.478-4.586-10.478-13.181 0-8.825 4.852-13.565 10.886-13.565 5.91 0 10.438 4.663 10.438 13.181zm-20.555.192c0 7.072 3.428 12.565 9.745 12.565 6.362 0 10.011-5.663 10.011-12.646 0-6.477-2.924-12.387-9.596-12.387s-10.16 5.566-10.16 12.468zM914.21 58.256c1.272.849 3.468 1.668 5.356 1.668 3.584 0 6.771-2.508 6.771-6.199 0-3.424-2.123-5.211-5.729-6.746-3.227-1.375-6.127-2.865-6.127-6.527 0-3.814 3.006-6.513 7.09-6.513 2.197 0 3.854.616 4.626 1.156l-.308.665c-.654-.462-2.426-1.051-4.352-1.051-4.317 0-6.198 3.262-6.198 5.664 0 3.317 2.571 4.426 5.886 6.006 3.854 1.889 5.896 3.554 5.896 7.176 0 3.893-2.775 7.053-7.708 7.053-2.044 0-4.394-.693-5.55-1.58l.347-.772z"/></g><g opacity=".35" fill="#FFF"><path d="M311.561 31.078c0 .461-.281.804-.764.804-.402 0-.705-.343-.705-.804 0-.443.322-.806.745-.806.442 0 .724.363.724.806zm-1.114 24.183V36.762h.759v18.499h-.759zM336.428 42.081c0 9.325-5.178 13.565-10.846 13.565-5.789 0-10.478-4.586-10.478-13.181 0-8.825 4.852-13.565 10.886-13.565 5.91 0 10.438 4.663 10.438 13.181zm-20.555.192c0 7.072 3.428 12.565 9.745 12.565 6.362 0 10.011-5.663 10.011-12.646 0-6.477-2.924-12.387-9.596-12.387s-10.16 5.566-10.16 12.468zM339.21 53.256c1.272.849 3.468 1.668 5.356 1.668 3.584 0 6.771-2.508 6.771-6.199 0-3.424-2.123-5.211-5.729-6.746-3.227-1.375-6.127-2.865-6.127-6.527 0-3.814 3.006-6.513 7.09-6.513 2.197 0 3.854.616 4.626 1.156l-.308.665c-.654-.462-2.426-1.051-4.352-1.051-4.317 0-6.198 3.262-6.198 5.664 0 3.317 2.571 4.426 5.886 6.006 3.854 1.889 5.896 3.554 5.896 7.176 0 3.893-2.775 7.053-7.708 7.053-2.044 0-4.394-.693-5.55-1.58l.347-.772z"/></g><g opacity=".35" fill="#FFF"><path d="M871.561 441.078c0 .461-.281.804-.764.804-.402 0-.705-.343-.705-.804 0-.443.322-.806.745-.806.442 0 .724.363.724.806zm-1.114 24.183v-18.499h.759v18.499h-.759zM896.428 452.081c0 9.325-5.178 13.565-10.846 13.565-5.789 0-10.478-4.586-10.478-13.181 0-8.825 4.852-13.565 10.886-13.565 5.91 0 10.438 4.663 10.438 13.181zm-20.555.192c0 7.072 3.428 12.565 9.745 12.565 6.362 0 10.011-5.663 10.011-12.646 0-6.477-2.924-12.387-9.596-12.387s-10.16 5.566-10.16 12.468zM899.21 463.256c1.272.849 3.468 1.668 5.356 1.668 3.584 0 6.771-2.508 6.771-6.199 0-3.424-2.123-5.211-5.729-6.746-3.227-1.375-6.127-2.865-6.127-6.527 0-3.814 3.006-6.513 7.09-6.513 2.197 0 3.854.616 4.626 1.156l-.308.665c-.654-.462-2.426-1.051-4.352-1.051-4.317 0-6.198 3.262-6.198 5.664 0 3.317 2.571 4.426 5.886 6.006 3.854 1.889 5.896 3.554 5.896 7.176 0 3.893-2.775 7.053-7.708 7.053-2.044 0-4.394-.693-5.55-1.58l.347-.772z"/></g><g opacity=".35" fill="#FFF"><path d="M496.561 694.078c0 .461-.281.804-.764.804-.402 0-.705-.343-.705-.804 0-.443.322-.806.745-.806.442 0 .724.363.724.806zm-1.114 24.183v-18.499h.759v18.499h-.759zM521.428 705.081c0 9.325-5.178 13.565-10.846 13.565-5.789 0-10.478-4.586-10.478-13.181 0-8.825 4.852-13.565 10.886-13.565 5.91 0 10.438 4.663 10.438 13.181zm-20.555.192c0 7.072 3.428 12.565 9.745 12.565 6.362 0 10.011-5.663 10.011-12.646 0-6.477-2.924-12.387-9.596-12.387s-10.16 5.566-10.16 12.468zM524.21 716.256c1.272.849 3.468 1.668 5.356 1.668 3.584 0 6.771-2.508 6.771-6.199 0-3.424-2.123-5.211-5.729-6.746-3.227-1.375-6.127-2.865-6.127-6.527 0-3.814 3.006-6.513 7.09-6.513 2.197 0 3.854.616 4.626 1.156l-.308.665c-.654-.462-2.426-1.051-4.352-1.051-4.317 0-6.198 3.262-6.198 5.664 0 3.317 2.571 4.426 5.886 6.006 3.854 1.889 5.896 3.554 5.896 7.176 0 3.893-2.775 7.053-7.708 7.053-2.044 0-4.394-.693-5.55-1.58l.347-.772z"/></g></svg>